<?xml version="1.0" encoding="UTF-8" standalone="no"?>
<!-- Created with Inkscape (http://www.inkscape.org/) -->

<svg
   width="64.332558mm"
   height="65.191933mm"
   viewBox="0 0 64.332558 65.191933"
   version="1.1"
   id="svg1"
   inkscape:version="1.3.2 (091e20e, 2023-11-25)"
   sodipodi:docname="blonde-woldo-avatar.svg"
   xmlns:inkscape="http://www.inkscape.org/namespaces/inkscape"
   xmlns:sodipodi="http://sodipodi.sourceforge.net/DTD/sodipodi-0.dtd"
   xmlns="http://www.w3.org/2000/svg"
   xmlns:svg="http://www.w3.org/2000/svg">
  <sodipodi:namedview
     id="namedview1"
     pagecolor="#ffffff"
     bordercolor="#000000"
     borderopacity="0.25"
     inkscape:showpageshadow="2"
     inkscape:pageopacity="0.0"
     inkscape:pagecheckerboard="0"
     inkscape:deskcolor="#d1d1d1"
     inkscape:document-units="mm"
     inkscape:zoom="1.1297573"
     inkscape:cx="-0.44257295"
     inkscape:cy="231.46565"
     inkscape:window-width="1920"
     inkscape:window-height="1052"
     inkscape:window-x="0"
     inkscape:window-y="28"
     inkscape:window-maximized="0"
     inkscape:current-layer="layer1" />
  <defs
     id="defs1">
    <clipPath
       clipPathUnits="userSpaceOnUse"
       id="clipPath1141">
      <path
         d="m 17966.8,2934.46 c 0,-503.56 -408.2,-911.79 -911.8,-911.79 -503.6,0 -911.8,408.23 -911.8,911.79 0,503.58 408.2,911.8 911.8,911.8 503.6,0 911.8,-408.22 911.8,-911.8"
         transform="translate(0,-2.5e-4)"
         id="path1141" />
    </clipPath>
    <clipPath
       clipPathUnits="userSpaceOnUse"
       id="clipPath1143">
      <path
         d="m 17966.8,2934.46 c 0,-503.56 -408.2,-911.79 -911.8,-911.79 -503.6,0 -911.8,408.23 -911.8,911.79 0,503.58 408.2,911.8 911.8,911.8 503.6,0 911.8,-408.22 911.8,-911.8"
         transform="translate(0,-2.5e-4)"
         id="path1143" />
    </clipPath>
    <clipPath
       clipPathUnits="userSpaceOnUse"
       id="clipPath1145">
      <path
         d="m 17966.8,2934.46 c 0,-503.56 -408.2,-911.79 -911.8,-911.79 -503.6,0 -911.8,408.23 -911.8,911.79 0,503.58 408.2,911.8 911.8,911.8 503.6,0 911.8,-408.22 911.8,-911.8"
         transform="translate(0,-2.5e-4)"
         id="path1145" />
    </clipPath>
    <clipPath
       clipPathUnits="userSpaceOnUse"
       id="clipPath1147">
      <path
         d="m 17966.8,2934.46 c 0,-503.56 -408.2,-911.79 -911.8,-911.79 -503.6,0 -911.8,408.23 -911.8,911.79 0,503.58 408.2,911.8 911.8,911.8 503.6,0 911.8,-408.22 911.8,-911.8"
         transform="translate(0,-2.5e-4)"
         id="path1147" />
    </clipPath>
    <clipPath
       clipPathUnits="userSpaceOnUse"
       id="clipPath1149">
      <path
         d="m 17966.8,2934.46 c 0,-503.56 -408.2,-911.79 -911.8,-911.79 -503.6,0 -911.8,408.23 -911.8,911.79 0,503.58 408.2,911.8 911.8,911.8 503.6,0 911.8,-408.22 911.8,-911.8"
         transform="translate(0,-2.5e-4)"
         id="path1149" />
    </clipPath>
    <clipPath
       clipPathUnits="userSpaceOnUse"
       id="clipPath1150">
      <path
         d="m 17557.8,2312.97 c -94.8,63.44 -209.2,88.84 -321,111.3 -6.8,1.37 -13.9,2.85 -19.4,7.14 -9.4,7.32 11.9,254.22 0,362.17 l -159.5,-14.95 -159.6,14.95 c -11.9,-107.95 9.4,-354.85 0,-362.17 -5.5,-4.29 -12.6,-5.77 -19.4,-7.14 -111.8,-22.46 -226.3,-47.86 -321,-111.3 -94.7,-63.44 -166.5,-174.09 -151.3,-287.09 95.1,0.5 360.7,-1.22 629.6,-4.76 v -0.58 c 7.2,0.1 14.4,0.2 21.7,0.3 7.1,-0.1 14.4,-0.2 21.6,-0.3 v 0.58 c 268.9,3.54 534.4,5.26 629.6,4.76 15.2,113 -56.6,223.65 -151.3,287.09"
         transform="translate(0,-2.5e-4)"
         id="path1150" />
    </clipPath>
    <clipPath
       clipPathUnits="userSpaceOnUse"
       id="clipPath1153">
      <path
         d="m 17966.8,2934.46 c 0,-503.56 -408.2,-911.79 -911.8,-911.79 -503.6,0 -911.8,408.23 -911.8,911.79 0,503.58 408.2,911.8 911.8,911.8 503.6,0 911.8,-408.22 911.8,-911.8"
         transform="translate(0,-2.5e-4)"
         id="path1153" />
    </clipPath>
    <clipPath
       clipPathUnits="userSpaceOnUse"
       id="clipPath1155">
      <path
         d="m 17966.8,2934.46 c 0,-503.56 -408.2,-911.79 -911.8,-911.79 -503.6,0 -911.8,408.23 -911.8,911.79 0,503.58 408.2,911.8 911.8,911.8 503.6,0 911.8,-408.22 911.8,-911.8"
         transform="translate(0,-2.5e-4)"
         id="path1155" />
    </clipPath>
    <clipPath
       clipPathUnits="userSpaceOnUse"
       id="clipPath1157">
      <path
         d="m 17966.8,2934.46 c 0,-503.56 -408.2,-911.79 -911.8,-911.79 -503.6,0 -911.8,408.23 -911.8,911.79 0,503.58 408.2,911.8 911.8,911.8 503.6,0 911.8,-408.22 911.8,-911.8"
         transform="translate(0,-2.5e-4)"
         id="path1157" />
    </clipPath>
    <clipPath
       clipPathUnits="userSpaceOnUse"
       id="clipPath1159">
      <path
         d="m 17966.8,2934.46 c 0,-503.56 -408.2,-911.79 -911.8,-911.79 -503.6,0 -911.8,408.23 -911.8,911.79 0,503.58 408.2,911.8 911.8,911.8 503.6,0 911.8,-408.22 911.8,-911.8"
         transform="translate(0,-2.5e-4)"
         id="path1159" />
    </clipPath>
    <clipPath
       clipPathUnits="userSpaceOnUse"
       id="clipPath1161">
      <path
         d="m 17966.8,2934.46 c 0,-503.56 -408.2,-911.79 -911.8,-911.79 -503.6,0 -911.8,408.23 -911.8,911.79 0,503.58 408.2,911.8 911.8,911.8 503.6,0 911.8,-408.22 911.8,-911.8"
         transform="translate(0,-2.5e-4)"
         id="path1161" />
    </clipPath>
    <clipPath
       clipPathUnits="userSpaceOnUse"
       id="clipPath1163">
      <path
         d="m 17966.8,2934.46 c 0,-503.56 -408.2,-911.79 -911.8,-911.79 -503.6,0 -911.8,408.23 -911.8,911.79 0,503.58 408.2,911.8 911.8,911.8 503.6,0 911.8,-408.22 911.8,-911.8"
         transform="translate(0,-2.5e-4)"
         id="path1163" />
    </clipPath>
    <clipPath
       clipPathUnits="userSpaceOnUse"
       id="clipPath1165">
      <path
         d="m 17966.8,2934.46 c 0,-503.56 -408.2,-911.79 -911.8,-911.79 -503.6,0 -911.8,408.23 -911.8,911.79 0,503.58 408.2,911.8 911.8,911.8 503.6,0 911.8,-408.22 911.8,-911.8"
         transform="translate(0,-2.5e-4)"
         id="path1165" />
    </clipPath>
    <clipPath
       clipPathUnits="userSpaceOnUse"
       id="clipPath1167">
      <path
         d="m 17966.8,2934.46 c 0,-503.56 -408.2,-911.79 -911.8,-911.79 -503.6,0 -911.8,408.23 -911.8,911.79 0,503.58 408.2,911.8 911.8,911.8 503.6,0 911.8,-408.22 911.8,-911.8"
         transform="translate(0,-2.5e-4)"
         id="path1167" />
    </clipPath>
    <clipPath
       clipPathUnits="userSpaceOnUse"
       id="clipPath1169">
      <path
         d="m 17966.8,2934.46 c 0,-503.56 -408.2,-911.79 -911.8,-911.79 -503.6,0 -911.8,408.23 -911.8,911.79 0,503.58 408.2,911.8 911.8,911.8 503.6,0 911.8,-408.22 911.8,-911.8"
         transform="translate(0,-2.5e-4)"
         id="path1169" />
    </clipPath>
    <clipPath
       clipPathUnits="userSpaceOnUse"
       id="clipPath1171">
      <path
         d="m 17966.8,2934.46 c 0,-503.56 -408.2,-911.79 -911.8,-911.79 -503.6,0 -911.8,408.23 -911.8,911.79 0,503.58 408.2,911.8 911.8,911.8 503.6,0 911.8,-408.22 911.8,-911.8"
         transform="translate(0,-2.5e-4)"
         id="path1171" />
    </clipPath>
    <clipPath
       clipPathUnits="userSpaceOnUse"
       id="clipPath1173">
      <path
         d="m 17966.8,2934.46 c 0,-503.56 -408.2,-911.79 -911.8,-911.79 -503.6,0 -911.8,408.23 -911.8,911.79 0,503.58 408.2,911.8 911.8,911.8 503.6,0 911.8,-408.22 911.8,-911.8"
         transform="translate(0,-2.5e-4)"
         id="path1173" />
    </clipPath>
    <clipPath
       clipPathUnits="userSpaceOnUse"
       id="clipPath1175">
      <path
         d="m 17966.8,2934.46 c 0,-503.56 -408.2,-911.79 -911.8,-911.79 -503.6,0 -911.8,408.23 -911.8,911.79 0,503.58 408.2,911.8 911.8,911.8 503.6,0 911.8,-408.22 911.8,-911.8"
         transform="translate(0,-2.5e-4)"
         id="path1175" />
    </clipPath>
    <clipPath
       clipPathUnits="userSpaceOnUse"
       id="clipPath1177">
      <path
         d="m 17966.8,2934.46 c 0,-503.56 -408.2,-911.79 -911.8,-911.79 -503.6,0 -911.8,408.23 -911.8,911.79 0,503.58 408.2,911.8 911.8,911.8 503.6,0 911.8,-408.22 911.8,-911.8"
         transform="translate(0,-2.5e-4)"
         id="path1177" />
    </clipPath>
    <clipPath
       clipPathUnits="userSpaceOnUse"
       id="clipPath1179">
      <path
         d="m 17966.8,2934.46 c 0,-503.56 -408.2,-911.79 -911.8,-911.79 -503.6,0 -911.8,408.23 -911.8,911.79 0,503.58 408.2,911.8 911.8,911.8 503.6,0 911.8,-408.22 911.8,-911.8"
         transform="translate(0,-2.5e-4)"
         id="path1179" />
    </clipPath>
    <clipPath
       clipPathUnits="userSpaceOnUse"
       id="clipPath1181">
      <path
         d="m 17966.8,2934.46 c 0,-503.56 -408.2,-911.79 -911.8,-911.79 -503.6,0 -911.8,408.23 -911.8,911.79 0,503.58 408.2,911.8 911.8,911.8 503.6,0 911.8,-408.22 911.8,-911.8"
         transform="translate(0,-2.5e-4)"
         id="path1181" />
    </clipPath>
    <clipPath
       clipPathUnits="userSpaceOnUse"
       id="clipPath1183">
      <path
         d="m 17966.8,2934.46 c 0,-503.56 -408.2,-911.79 -911.8,-911.79 -503.6,0 -911.8,408.23 -911.8,911.79 0,503.58 408.2,911.8 911.8,911.8 503.6,0 911.8,-408.22 911.8,-911.8"
         transform="translate(0,-2.5e-4)"
         id="path1183" />
    </clipPath>
    <clipPath
       clipPathUnits="userSpaceOnUse"
       id="clipPath1185">
      <path
         d="m 17966.8,2934.46 c 0,-503.56 -408.2,-911.79 -911.8,-911.79 -503.6,0 -911.8,408.23 -911.8,911.79 0,503.58 408.2,911.8 911.8,911.8 503.6,0 911.8,-408.22 911.8,-911.8"
         transform="translate(0,-2.5e-4)"
         id="path1185" />
    </clipPath>
    <clipPath
       clipPathUnits="userSpaceOnUse"
       id="clipPath1187">
      <path
         d="m 17966.8,2934.46 c 0,-503.56 -408.2,-911.79 -911.8,-911.79 -503.6,0 -911.8,408.23 -911.8,911.79 0,503.58 408.2,911.8 911.8,911.8 503.6,0 911.8,-408.22 911.8,-911.8"
         transform="translate(0,-2.5e-4)"
         id="path1187" />
    </clipPath>
    <clipPath
       clipPathUnits="userSpaceOnUse"
       id="clipPath1189">
      <path
         d="m 17966.8,2934.46 c 0,-503.56 -408.2,-911.79 -911.8,-911.79 -503.6,0 -911.8,408.23 -911.8,911.79 0,503.58 408.2,911.8 911.8,911.8 503.6,0 911.8,-408.22 911.8,-911.8"
         transform="translate(0,-2.5e-4)"
         id="path1189" />
    </clipPath>
    <clipPath
       clipPathUnits="userSpaceOnUse"
       id="clipPath1191">
      <path
         d="m 17966.8,2934.46 c 0,-503.56 -408.2,-911.79 -911.8,-911.79 -503.6,0 -911.8,408.23 -911.8,911.79 0,503.58 408.2,911.8 911.8,911.8 503.6,0 911.8,-408.22 911.8,-911.8"
         transform="translate(0,-2.5e-4)"
         id="path1191" />
    </clipPath>
    <clipPath
       clipPathUnits="userSpaceOnUse"
       id="clipPath1193">
      <path
         d="m 17966.8,2934.46 c 0,-503.56 -408.2,-911.79 -911.8,-911.79 -503.6,0 -911.8,408.23 -911.8,911.79 0,503.58 408.2,911.8 911.8,911.8 503.6,0 911.8,-408.22 911.8,-911.8"
         transform="translate(0,-2.5e-4)"
         id="path1193" />
    </clipPath>
    <clipPath
       clipPathUnits="userSpaceOnUse"
       id="clipPath1194">
      <path
         d="m 17377,2391.74 c -74.2,-101.65 -183.1,-140.42 -309.5,-136.11 v 0.81 c -2.9,-0.17 -5.7,-0.31 -8.6,-0.47 -2.8,0.16 -5.7,0.3 -8.5,0.47 v -0.81 c -126.4,-4.31 -229.7,34.46 -303.9,136.11 0,0 -386.7,-74.37 -346.6,-386.28 0.2,-2.13 320.5,-4.83 650.5,-7.04 v -0.12 c 2.8,0.02 5.7,0.04 8.5,0.06 2.9,-0.02 5.7,-0.04 8.6,-0.06 v 0.12 c 330,2.21 650.3,4.9 650.5,7.04 31.9,306.19 -341,386.28 -341,386.28"
         transform="translate(0,-2.5e-4)"
         id="path1194" />
    </clipPath>
    <clipPath
       clipPathUnits="userSpaceOnUse"
       id="clipPath1195">
      <path
         d="m 17377,2391.74 c -74.2,-101.65 -183.1,-140.42 -309.5,-136.11 v 0.81 c -2.9,-0.17 -5.7,-0.31 -8.6,-0.47 -2.8,0.16 -5.7,0.3 -8.5,0.47 v -0.81 c -126.4,-4.31 -229.7,34.46 -303.9,136.11 0,0 -386.7,-74.37 -346.6,-386.28 0.2,-2.13 320.5,-4.83 650.5,-7.04 v -0.12 c 2.8,0.02 5.7,0.04 8.5,0.06 2.9,-0.02 5.7,-0.04 8.6,-0.06 v 0.12 c 330,2.21 650.3,4.9 650.5,7.04 31.9,306.19 -341,386.28 -341,386.28"
         transform="translate(0,-2.5e-4)"
         id="path1195" />
    </clipPath>
    <clipPath
       clipPathUnits="userSpaceOnUse"
       id="clipPath1196">
      <path
         d="m 17377,2391.74 c -74.2,-101.65 -183.1,-140.42 -309.5,-136.11 v 0.81 c -2.9,-0.17 -5.7,-0.31 -8.6,-0.47 -2.8,0.16 -5.7,0.3 -8.5,0.47 v -0.81 c -126.4,-4.31 -229.7,34.46 -303.9,136.11 0,0 -386.7,-74.37 -346.6,-386.28 0.2,-2.13 320.5,-4.83 650.5,-7.04 v -0.12 c 2.8,0.02 5.7,0.04 8.5,0.06 2.9,-0.02 5.7,-0.04 8.6,-0.06 v 0.12 c 330,2.21 650.3,4.9 650.5,7.04 31.9,306.19 -341,386.28 -341,386.28"
         transform="translate(0,-2.5e-4)"
         id="path1196" />
    </clipPath>
    <clipPath
       clipPathUnits="userSpaceOnUse"
       id="clipPath1197">
      <path
         d="m 17377,2391.74 c -74.2,-101.65 -183.1,-140.42 -309.5,-136.11 v 0.81 c -2.9,-0.17 -5.7,-0.31 -8.6,-0.47 -2.8,0.16 -5.7,0.3 -8.5,0.47 v -0.81 c -126.4,-4.31 -229.7,34.46 -303.9,136.11 0,0 -386.7,-74.37 -346.6,-386.28 0.2,-2.13 320.5,-4.83 650.5,-7.04 v -0.12 c 2.8,0.02 5.7,0.04 8.5,0.06 2.9,-0.02 5.7,-0.04 8.6,-0.06 v 0.12 c 330,2.21 650.3,4.9 650.5,7.04 31.9,306.19 -341,386.28 -341,386.28"
         transform="translate(0,-2.5e-4)"
         id="path1197" />
    </clipPath>
    <clipPath
       clipPathUnits="userSpaceOnUse"
       id="clipPath1198">
      <path
         d="m 17377,2391.74 c -74.2,-101.65 -183.1,-140.42 -309.5,-136.11 v 0.81 c -2.9,-0.17 -5.7,-0.31 -8.6,-0.47 -2.8,0.16 -5.7,0.3 -8.5,0.47 v -0.81 c -126.4,-4.31 -229.7,34.46 -303.9,136.11 0,0 -386.7,-74.37 -346.6,-386.28 0.2,-2.13 320.5,-4.83 650.5,-7.04 v -0.12 c 2.8,0.02 5.7,0.04 8.5,0.06 2.9,-0.02 5.7,-0.04 8.6,-0.06 v 0.12 c 330,2.21 650.3,4.9 650.5,7.04 31.9,306.19 -341,386.28 -341,386.28"
         transform="translate(0,-2.5e-4)"
         id="path1198" />
    </clipPath>
    <clipPath
       clipPathUnits="userSpaceOnUse"
       id="clipPath1199">
      <path
         d="m 17377,2391.74 c -74.2,-101.65 -183.1,-140.42 -309.5,-136.11 v 0.81 c -2.9,-0.17 -5.7,-0.31 -8.6,-0.47 -2.8,0.16 -5.7,0.3 -8.5,0.47 v -0.81 c -126.4,-4.31 -229.7,34.46 -303.9,136.11 0,0 -386.7,-74.37 -346.6,-386.28 0.2,-2.13 320.5,-4.83 650.5,-7.04 v -0.12 c 2.8,0.02 5.7,0.04 8.5,0.06 2.9,-0.02 5.7,-0.04 8.6,-0.06 v 0.12 c 330,2.21 650.3,4.9 650.5,7.04 31.9,306.19 -341,386.28 -341,386.28"
         transform="translate(0,-2.5e-4)"
         id="path1199" />
    </clipPath>
    <clipPath
       clipPathUnits="userSpaceOnUse"
       id="clipPath1207">
      <path
         d="m 17966.8,2934.46 c 0,-503.56 -408.2,-911.79 -911.8,-911.79 -503.6,0 -911.8,408.23 -911.8,911.79 0,503.58 408.2,911.8 911.8,911.8 503.6,0 911.8,-408.22 911.8,-911.8"
         transform="translate(0,-2.5e-4)"
         id="path1207" />
    </clipPath>
    <clipPath
       clipPathUnits="userSpaceOnUse"
       id="clipPath1209">
      <path
         d="m 17966.8,2934.46 c 0,-503.56 -408.2,-911.79 -911.8,-911.79 -503.6,0 -911.8,408.23 -911.8,911.79 0,503.58 408.2,911.8 911.8,911.8 503.6,0 911.8,-408.22 911.8,-911.8"
         transform="translate(0,-2.5e-4)"
         id="path1209" />
    </clipPath>
    <clipPath
       clipPathUnits="userSpaceOnUse"
       id="clipPath1211">
      <path
         d="m 17966.8,2934.46 c 0,-503.56 -408.2,-911.79 -911.8,-911.79 -503.6,0 -911.8,408.23 -911.8,911.79 0,503.58 408.2,911.8 911.8,911.8 503.6,0 911.8,-408.22 911.8,-911.8"
         transform="translate(0,-2.5e-4)"
         id="path1211" />
    </clipPath>
    <clipPath
       clipPathUnits="userSpaceOnUse"
       id="clipPath1213">
      <path
         d="m 17966.8,2934.46 c 0,-503.56 -408.2,-911.79 -911.8,-911.79 -503.6,0 -911.8,408.23 -911.8,911.79 0,503.58 408.2,911.8 911.8,911.8 503.6,0 911.8,-408.22 911.8,-911.8"
         transform="translate(0,-2.5e-4)"
         id="path1213" />
    </clipPath>
    <clipPath
       clipPathUnits="userSpaceOnUse"
       id="clipPath1215">
      <path
         d="m 17966.8,2934.46 c 0,-503.56 -408.2,-911.79 -911.8,-911.79 -503.6,0 -911.8,408.23 -911.8,911.79 0,503.58 408.2,911.8 911.8,911.8 503.6,0 911.8,-408.22 911.8,-911.8"
         transform="translate(0,-2.5e-4)"
         id="path1215" />
    </clipPath>
    <clipPath
       clipPathUnits="userSpaceOnUse"
       id="clipPath1217">
      <path
         d="m 17966.8,2934.46 c 0,-503.56 -408.2,-911.79 -911.8,-911.79 -503.6,0 -911.8,408.23 -911.8,911.79 0,503.58 408.2,911.8 911.8,911.8 503.6,0 911.8,-408.22 911.8,-911.8"
         transform="translate(0,-2.5e-4)"
         id="path1217" />
    </clipPath>
  </defs>
  <g
     inkscape:label="Layer 1"
     inkscape:groupmode="layer"
     id="layer1"
     transform="translate(-69.850058,-115.88748)">
    <path
       id="path1140"
       d="m 17966.8,2022.67 h -1823.6 v 1823.59 h 1823.6 V 2022.67"
       style="fill:#a59eff;fill-opacity:1;fill-rule:nonzero;stroke:none"
       transform="matrix(0.03527778,0,0,-0.03527778,-499.6462,251.57499)"
       clip-path="url(#clipPath1141)" />
    <path
       id="path1142"
       d="m 16819.1,3258.06 c -33.7,4.93 -68.1,13.88 -94.1,35.84 -25.9,21.97 -40.9,59.85 -27.6,91.15 18.3,43.24 75.1,51.71 122,52.09 177.5,1.4 359.4,-23.9 515.4,-108.56 38.4,-20.83 76.3,-46.53 97.8,-84.5 21.6,-37.97 22.1,-90.86 -9.1,-121.42 -37.9,-37.1 -99.9,-26.42 -151,-12.1 -147,41.23 -291.4,91.62 -432.2,150.77 l -21.2,-3.27"
       style="fill:#724328;fill-opacity:1;fill-rule:nonzero;stroke:none"
       transform="matrix(0.03527778,0,0,-0.03527778,-499.6462,251.57499)"
       clip-path="url(#clipPath1143)" />
    <path
       id="path1144"
       d="m 16837.2,2908.92 c 40.7,-109.2 119.8,-209.77 229.7,-248.81 27.8,-9.9 57.6,-15.71 87,-12.65 65.5,6.8 120.8,58.39 144.8,119.77 23.9,61.38 20.4,130.59 3.9,194.39 l -465.4,-52.7"
       style="fill:#a46e4a;fill-opacity:1;fill-rule:nonzero;stroke:none"
       transform="matrix(0.03527778,0,0,-0.03527778,-499.6462,251.57499)"
       clip-path="url(#clipPath1145)" />
    <path
       id="path1146"
       d="m 16881,3410.4 c -2.4,15.01 -15.1,25.94 -26.9,35.49 -10.3,8.4 -20.7,16.79 -31.1,25.18 28.5,-1.47 56.4,-13.56 77,-33.4 6.9,28.42 31.5,51.71 60.3,57.14 -22.6,-15.67 -24.7,-53.31 -4,-71.41 l -75.3,-13"
       style="fill:#a46e4a;fill-opacity:1;fill-rule:nonzero;stroke:none"
       transform="matrix(0.03527778,0,0,-0.03527778,-499.6462,251.57499)"
       clip-path="url(#clipPath1147)" />
    <path
       id="path1148"
       d="m 17557.8,2312.97 c -94.8,63.44 -209.2,88.85 -321,111.3 -6.8,1.37 -13.9,2.85 -19.4,7.14 -9.4,7.33 11.9,254.22 0,362.16 l -159.6,-14.94 -159.5,14.94 c -11.9,-107.94 9.4,-354.83 0,-362.16 -5.5,-4.29 -12.6,-5.77 -19.4,-7.14 -111.8,-22.45 -226.3,-47.86 -321,-111.3 -94.7,-63.44 -166.5,-174.09 -151.3,-287.08 95.1,0.49 360.7,-1.23 629.6,-4.77 v -0.58 c 7.2,0.1 14.4,0.2 21.6,0.29 7.2,-0.09 14.4,-0.19 21.6,-0.29 v 0.58 c 269,3.54 534.5,5.26 629.7,4.77 15.2,112.99 -56.6,223.64 -151.3,287.08"
       style="fill:#fbd1b9;fill-opacity:1;fill-rule:nonzero;stroke:none"
       transform="matrix(0.03527778,0,0,-0.03527778,-499.6462,251.57499)"
       clip-path="url(#clipPath1149)" />
    <g
       id="g1151"
       transform="matrix(0.26458333,0,0,0.26458333,-499.6462,-106.93894)">
      <path
         d="m 16685.9,2797.05 c 62.9,40.53 65.6,59.97 68.7,40.53 14.8,-95.55 165.9,-325.71 303.1,-325.71 177.8,0 280.9,299.96 297.5,375.56 -205.4,-29.36 -413.4,-58.76 -619.4,-34.05 5.7,-5.34 11.3,-10.68 17,-16.01 l -66.9,-40.32"
         style="fill:#dba78a;fill-opacity:1;fill-rule:nonzero;stroke:none"
         transform="matrix(0.13333333,0,0,-0.13333333,0,1355.0133)"
         clip-path="url(#clipPath1150)"
         id="path1151" />
    </g>
    <path
       id="path1152"
       d="m 16821.1,3320.74 c -36.7,-123.88 -27.6,-340.94 0,-467.15 l 0.5,-2.04 c 14.9,-67.74 38.9,-135.38 84,-188.11 45.1,-52.73 114.5,-88.38 183.2,-79.03 66.5,9.04 122.3,58.43 154.7,117.17 32.5,58.73 44.9,126.21 54,192.7 15.8,115.77 11.6,423.23 0.5,424.17 -143.2,12.12 -337.5,41.45 -476.9,6.31 v -4.02"
       style="fill:#fbd1b9;fill-opacity:1;fill-rule:nonzero;stroke:none"
       transform="matrix(0.03527778,0,0,-0.03527778,-499.6462,251.57499)"
       clip-path="url(#clipPath1153)" />
    <path
       id="path1154"
       d="m 17291.8,2942.23 c 3.5,25.5 34.2,41.44 58.8,33.96 24.6,-7.48 40.9,-33.05 42.7,-58.72 1.9,-25.67 -8.6,-50.93 -23.3,-72.03 -24.5,-35.2 -67.7,-62.53 -109.2,-51.64 6.5,52.78 16,105.21 28.3,156.97 l 2.7,-8.54"
       style="fill:#fbd1b9;fill-opacity:1;fill-rule:nonzero;stroke:none"
       transform="matrix(0.03527778,0,0,-0.03527778,-499.6462,251.57499)"
       clip-path="url(#clipPath1155)" />
    <path
       id="path1156"
       d="m 16824.9,2942.23 c -3.5,25.5 -34.2,41.44 -58.8,33.96 -24.6,-7.48 -40.9,-33.05 -42.7,-58.72 -1.9,-25.67 8.5,-50.93 23.3,-72.03 24.5,-35.2 67.7,-62.53 109.2,-51.64 -6.6,52.78 -16,105.21 -28.3,156.97 l -2.7,-8.54"
       style="fill:#fbd1b9;fill-opacity:1;fill-rule:nonzero;stroke:none"
       transform="matrix(0.03527778,0,0,-0.03527778,-499.6462,251.57499)"
       clip-path="url(#clipPath1157)" />
    <path
       id="path1158"
       d="m 17297.8,2966.36 c -5.7,55.31 -11.4,110.63 -17.2,165.94 -96.4,21.2 -187.7,65.09 -264.6,127.11 20.8,-57.44 79,-81.26 127.6,-118.29 -84.2,30.13 -181.3,53.56 -241.8,119.37 10.4,-51.45 57.2,-75.33 93,-113.65 -57.4,28.29 -131,43.64 -172.9,92.06 10.8,-91.09 11.3,-183.39 1.6,-274.6 -24,5.88 -57.5,10.92 -57.5,10.92 -5.7,13.01 -14.3,220.51 -6.3,292.09 4.9,43.54 13.3,89.03 41.2,122.8 27.9,33.77 81.1,50.27 116.7,24.72 36.9,37.46 88.3,58.58 140.4,64.73 52.2,6.15 105.2,-1.81 155.7,-16.26 38.8,-11.09 77.8,-26.87 105.5,-56.21 46.2,-49.07 50.4,-123.41 48.6,-190.8 -2.3,-82.24 -9.6,-164.33 -22,-245.66 -14.1,3.79 -29.7,2.33 -42.9,-4.02 l -5.1,-0.25"
       style="fill:#a46e4a;fill-opacity:1;fill-rule:nonzero;stroke:none"
       transform="matrix(0.03527778,0,0,-0.03527778,-499.6462,251.57499)"
       clip-path="url(#clipPath1159)" />
    <path
       id="path1160"
       d="m 17315,2866.51 c 12.3,23.71 28.7,44.88 48.5,62.84 3.1,2.79 2.9,8.06 0,10.9 -3.1,3.07 -7.8,2.8 -10.9,0 -20.7,-18.75 -38,-41.2 -51,-65.96 -1.9,-3.69 -0.9,-8.37 2.8,-10.54 3.5,-2.03 8.6,-0.94 10.6,2.76"
       style="fill:#a46e4a;fill-opacity:1;fill-rule:nonzero;stroke:none"
       transform="matrix(0.03527778,0,0,-0.03527778,-499.6462,251.57499)"
       clip-path="url(#clipPath1161)" />
    <path
       id="path1162"
       d="m 17331.5,2906.35 c 3.8,-16.59 7.5,-33.18 11.2,-49.78 0.9,-3.93 5.7,-6.62 9.5,-5.38 4.1,1.34 6.3,5.26 5.4,9.48 -3.7,16.59 -7.5,33.18 -11.2,49.77 -0.9,3.94 -5.6,6.63 -9.5,5.39 -4.1,-1.34 -6.3,-5.26 -5.4,-9.48"
       style="fill:#a46e4a;fill-opacity:1;fill-rule:nonzero;stroke:none"
       transform="matrix(0.03527778,0,0,-0.03527778,-499.6462,251.57499)"
       clip-path="url(#clipPath1163)" />
    <path
       id="path1164"
       d="m 16754.8,2914.94 c 17.8,-21.96 35.6,-43.92 53.5,-65.88 2.6,-3.23 8.2,-2.73 10.9,0 3.2,3.2 2.6,7.66 0,10.9 -17.8,21.96 -35.7,43.92 -53.5,65.88 -2.7,3.23 -8.2,2.72 -10.9,0 -3.2,-3.2 -2.7,-7.66 0,-10.9"
       style="fill:#a46e4a;fill-opacity:1;fill-rule:nonzero;stroke:none"
       transform="matrix(0.03527778,0,0,-0.03527778,-499.6462,251.57499)"
       clip-path="url(#clipPath1165)" />
    <path
       id="path1166"
       d="m 16769.3,2857.73 c 7.7,4.07 15.4,8.13 23.1,12.2 3.5,1.89 4.9,7.15 2.7,10.55 -2.3,3.63 -6.7,4.78 -10.5,2.76 -7.7,-4.07 -15.4,-8.13 -23.1,-12.2 -3.6,-1.89 -5,-7.15 -2.8,-10.55 2.4,-3.63 6.7,-4.78 10.6,-2.76"
       style="fill:#a46e4a;fill-opacity:1;fill-rule:nonzero;stroke:none"
       transform="matrix(0.03527778,0,0,-0.03527778,-499.6462,251.57499)"
       clip-path="url(#clipPath1167)" />
    <path
       id="path1168"
       d="m 16966.8,2987.41 c 0,-20.95 -12.3,-37.93 -27.5,-37.93 -15.1,0 -27.4,16.98 -27.4,37.93 0,20.95 12.3,37.93 27.4,37.93 15.2,0 27.5,-16.98 27.5,-37.93"
       style="fill:#1a1a1a;fill-opacity:1;fill-rule:nonzero;stroke:none"
       transform="matrix(0.03527778,0,0,-0.03527778,-499.6462,251.57499)"
       clip-path="url(#clipPath1169)" />
    <path
       id="path1170"
       d="m 17217.9,2987.41 c 0,-20.95 -12.3,-37.93 -27.4,-37.93 -15.2,0 -27.5,16.98 -27.5,37.93 0,20.95 12.3,37.93 27.5,37.93 15.1,0 27.4,-16.98 27.4,-37.93"
       style="fill:#1a1a1a;fill-opacity:1;fill-rule:nonzero;stroke:none"
       transform="matrix(0.03527778,0,0,-0.03527778,-499.6462,251.57499)"
       clip-path="url(#clipPath1171)" />
    <path
       id="path1172"
       d="m 17054.9,2737.83 c 28.6,-5.73 71.8,45.04 78.7,66.32 1.4,-3.4 -153.1,-3.4 -151.8,0 0,0 43.3,-60.37 73.1,-66.32"
       style="fill:#ffffff;fill-opacity:1;fill-rule:nonzero;stroke:none"
       transform="matrix(0.03527778,0,0,-0.03527778,-499.6462,251.57499)"
       clip-path="url(#clipPath1173)" />
    <path
       id="path1174"
       d="m 17052.8,2730.39 c 20.6,-3.58 39.7,10.57 53.9,23.9 13.8,13.01 28.1,29.52 34.3,47.82 -5,0 -9.9,0 -14.9,0 -1.3,8 3.4,8.09 4.7,9.05 l -1,-0.2 c 0,-0.04 1.7,0.16 0.3,0.03 l -2.4,-0.22 c -3.8,-0.32 -7.6,-0.47 -11.4,-0.62 -11.8,-0.46 -23.6,-0.62 -35.4,-0.73 -26,-0.25 -51.9,-0.25 -77.8,0.59 -4.8,0.16 -9.6,0.32 -14.3,0.68 -1.5,0.1 -2.9,0.21 -4.3,0.4 3.4,-0.44 0.5,-0.22 0.3,0.01 l -0.4,0.11 c 1.9,-1.47 5.9,0.2 5.1,-7.06 -4.8,-1.29 -9.6,-2.59 -14.4,-3.89 8.3,-11.54 17.5,-22.59 27.1,-33.03 13.5,-14.58 30.5,-32.4 50.6,-36.84 9.7,-2.12 13.8,12.74 4.1,14.87 -17.9,3.94 -32.9,21.01 -44.8,33.96 -8.5,9.34 -16.6,19 -23.7,28.83 -4.6,6.46 -13.4,3.81 -14.3,-3.9 -1.2,-9.63 14.1,-8.9 19.9,-9.19 12.7,-0.64 25.4,-0.8 38.2,-0.93 28.7,-0.31 57.5,-0.44 86.2,0.79 7.8,0.34 24.7,-1.05 22.6,11.38 -1.4,8.08 -12.7,6.53 -14.9,0 -4.9,-14.69 -17.1,-28.11 -28,-38.76 -9.7,-9.49 -26.1,-24.8 -41.2,-22.18 -9.7,1.68 -13.8,-13.17 -4.1,-14.87"
       style="fill:#a46e4a;fill-opacity:1;fill-rule:nonzero;stroke:none"
       transform="matrix(0.03527778,0,0,-0.03527778,-499.6462,251.57499)"
       clip-path="url(#clipPath1175)" />
    <path
       id="path1176"
       d="m 16913,3404.76 c 1.3,-39.85 10,-78.76 25.5,-115.47 1.7,-3.86 7.3,-4.63 10.6,-2.76 4,2.27 4.4,6.73 2.7,10.54 -14.3,34.08 -22.2,70.75 -23.3,107.69 -0.4,9.9 -15.8,9.94 -15.5,0"
       style="fill:#7f4e33;fill-opacity:1;fill-rule:nonzero;stroke:none"
       transform="matrix(0.03527778,0,0,-0.03527778,-499.6462,251.57499)"
       clip-path="url(#clipPath1177)" />
    <path
       id="path1178"
       d="m 16965.1,3344.58 c 58.2,-50 123.1,-92.01 192.8,-124.11 19.9,-9.21 40.3,-17.61 60.9,-25.24 9.4,-3.45 13.4,11.45 4.1,14.86 -90.1,33.31 -174,82.76 -246.9,145.39 -7.5,6.44 -18.4,-4.42 -10.9,-10.9"
       style="fill:#7f4e33;fill-opacity:1;fill-rule:nonzero;stroke:none"
       transform="matrix(0.03527778,0,0,-0.03527778,-499.6462,251.57499)"
       clip-path="url(#clipPath1179)" />
    <path
       id="path1180"
       d="m 17114.5,3289.36 c 53.1,-37.39 115.1,-60.48 179.6,-67.76 9.8,-1.11 9.8,14.32 0,15.42 -61.8,6.97 -121,29.91 -171.8,65.65 -8.2,5.72 -15.9,-7.64 -7.8,-13.31"
       style="fill:#7f4e33;fill-opacity:1;fill-rule:nonzero;stroke:none"
       transform="matrix(0.03527778,0,0,-0.03527778,-499.6462,251.57499)"
       clip-path="url(#clipPath1181)" />
    <path
       id="path1182"
       d="m 17207.4,3298.07 c 44.4,-18.37 91.3,-29.58 139.2,-33.71 9.9,-0.85 9.8,14.57 0,15.42 -46.5,4 -92,15.34 -135.1,33.15 -9.2,3.79 -13.2,-11.12 -4.1,-14.86"
       style="fill:#7f4e33;fill-opacity:1;fill-rule:nonzero;stroke:none"
       transform="matrix(0.03527778,0,0,-0.03527778,-499.6462,251.57499)"
       clip-path="url(#clipPath1183)" />
    <path
       id="path1184"
       d="m 16799,3310.37 c -7.5,-30.38 -12.2,-61.4 -14.1,-92.63 -0.6,-9.91 14.9,-9.87 15.5,0 1.7,29.89 6.3,59.46 13.5,88.53 2.3,9.63 -12.5,13.74 -14.9,4.1"
       style="fill:#7f4e33;fill-opacity:1;fill-rule:nonzero;stroke:none"
       transform="matrix(0.03527778,0,0,-0.03527778,-499.6462,251.57499)"
       clip-path="url(#clipPath1185)" />
    <path
       id="path1186"
       d="m 16845.5,3317.1 c -1.3,-15.56 -2.5,-31.11 -3.8,-46.67 -0.3,-4.03 3.8,-7.88 7.7,-7.71 4.5,0.2 7.4,3.4 7.7,7.71 1.3,15.56 2.5,31.11 3.8,46.67 0.3,4.03 -3.8,7.88 -7.7,7.71 -4.5,-0.2 -7.4,-3.39 -7.7,-7.71"
       style="fill:#7f4e33;fill-opacity:1;fill-rule:nonzero;stroke:none"
       transform="matrix(0.03527778,0,0,-0.03527778,-499.6462,251.57499)"
       clip-path="url(#clipPath1187)" />
    <path
       id="path1188"
       d="m 16958.6,3108.01 c 7.4,-7.67 3.8,-21.34 -4.5,-28.03 -8.3,-6.69 -19.4,-8.28 -30,-9.63 -16.2,-2.06 -32.4,-4.12 -48.6,-6.18 21.4,24.43 46.8,50.83 79.3,51.11 l 3.8,-7.27"
       style="fill:#7f4e33;fill-opacity:1;fill-rule:nonzero;stroke:none"
       transform="matrix(0.03527778,0,0,-0.03527778,-499.6462,251.57499)"
       clip-path="url(#clipPath1189)" />
    <path
       id="path1190"
       d="m 17149.7,3103.59 c -8,-8.67 -3.4,-22.04 6.2,-27.77 9.6,-5.73 22.2,-5.94 34.1,-5.98 18.3,-0.06 36.5,-0.12 54.8,-0.18 -25,22.02 -54.7,45.52 -91.1,41.75 l -4,-7.82"
       style="fill:#7f4e33;fill-opacity:1;fill-rule:nonzero;stroke:none"
       transform="matrix(0.03527778,0,0,-0.03527778,-499.6462,251.57499)"
       clip-path="url(#clipPath1191)" />
    <path
       id="path1192"
       d="m 17377,2391.74 c -74.2,-101.65 -183.1,-140.42 -309.6,-136.11 v 0.81 c -2.8,-0.17 -5.6,-0.32 -8.5,-0.47 -2.8,0.15 -5.7,0.3 -8.5,0.47 v -0.81 c -126.4,-4.31 -229.7,34.46 -303.9,136.11 0,0 -386.6,-74.37 -346.6,-386.28 0.3,-2.13 320.5,-4.83 650.5,-7.05 v -0.11 c 2.8,0.02 5.7,0.04 8.5,0.06 2.9,-0.02 5.7,-0.04 8.5,-0.06 v 0.11 c 330.1,2.22 650.4,4.91 650.6,7.05 26.2,306.19 -341,386.28 -341,386.28"
       style="fill:#8ca3c3;fill-opacity:1;fill-rule:nonzero;stroke:none"
       transform="matrix(0.03527778,0,0,-0.03527778,-499.6462,251.57499)"
       clip-path="url(#clipPath1193)" />
    <g
       id="g1205"
       transform="matrix(0.26458333,0,0,0.26458333,-499.6462,-106.93894)">
      <path
         d="m 16512,2312.72 c 80.6,-15.05 161.2,-30.1 242.4,-41.41 80.5,-11.21 161.3,-17.98 242.5,-20.14 162.7,-4.32 326.2,3.66 488.2,19.8 90.4,9.01 180.5,20.93 270.1,35.68 9.8,1.61 5.6,16.47 -4.1,14.87 -159.4,-26.23 -320.2,-43.28 -481.5,-51.06 -161.4,-7.77 -323.8,-8.32 -484.3,12.13 -90.2,11.51 -179.8,28.29 -269.2,44.99 -9.7,1.81 -13.8,-13.04 -4.1,-14.86"
         style="fill:#ffffff;fill-opacity:1;fill-rule:nonzero;stroke:none"
         transform="matrix(0.13333333,0,0,-0.13333333,0,1355.0133)"
         clip-path="url(#clipPath1194)"
         id="path1200" />
      <path
         d="m 16413.8,2214.45 c 187,-32.44 377.2,-41.35 566.8,-39.42 190.3,1.94 380.4,14.07 570.4,24.49 108.6,5.96 217.1,11.91 325.7,17.87 9.9,0.54 9.9,15.96 0,15.41 -192,-10.53 -384,-21.65 -576.1,-31.42 -188.2,-9.57 -376.8,-16.11 -565.2,-6.45 -106.4,5.46 -212.5,16.18 -317.5,34.38 -9.7,1.68 -13.9,-13.17 -4.1,-14.86"
         style="fill:#ffffff;fill-opacity:1;fill-rule:nonzero;stroke:none"
         transform="matrix(0.13333333,0,0,-0.13333333,0,1355.0133)"
         clip-path="url(#clipPath1195)"
         id="path1201" />
      <path
         d="m 16361.6,2085.18 c 41.5,-18.85 86.5,-26.46 131.7,-29.56 49.1,-3.36 98.5,-3 147.7,-3.52 102.7,-1.09 205.5,-0.85 308.2,0.69 102.7,1.55 205.4,4.42 308.1,8.6 102.7,4.18 205.3,9.67 307.8,16.48 102.5,6.8 204.9,14.92 307.2,24.36 12.7,1.17 25.4,2.36 38.2,3.58 9.7,0.93 9.8,16.35 0,15.41 -203.6,-19.39 -407.6,-33.64 -611.8,-42.66 -203.3,-8.98 -406.7,-12.8 -610.2,-11.46 -55.8,0.37 -111.7,0.43 -167.5,2.51 -51.5,1.91 -104.1,7.33 -151.6,28.88 -9,4.07 -16.8,-9.21 -7.8,-13.31"
         style="fill:#ffffff;fill-opacity:1;fill-rule:nonzero;stroke:none"
         transform="matrix(0.13333333,0,0,-0.13333333,0,1355.0133)"
         clip-path="url(#clipPath1196)"
         id="path1202" />
      <path
         d="m 16668.5,2419.91 c 73.1,-144.4 235.2,-240.34 398.8,-236.08 163.6,4.25 320.2,108.48 385.5,256.48 -257.7,-32.88 -509.4,-37.03 -778.3,-9.13 l -6,-11.27"
         style="fill:#4f657f;fill-opacity:1;fill-rule:nonzero;stroke:none"
         transform="matrix(0.13333333,0,0,-0.13333333,0,1355.0133)"
         clip-path="url(#clipPath1197)"
         id="path1203" />
      <path
         d="m 17503.9,2183.01 c 8.1,-85.34 3.4,-171.57 -14.1,-255.49 -2,-9.68 12.8,-13.82 14.8,-4.1 17.8,85.25 22.9,172.88 14.7,259.59 -1,9.79 -16.4,9.88 -15.4,0"
         style="fill:#4f657f;fill-opacity:1;fill-rule:nonzero;stroke:none"
         transform="matrix(0.13333333,0,0,-0.13333333,0,1355.0133)"
         clip-path="url(#clipPath1198)"
         id="path1204" />
      <path
         d="m 16577.4,2178.54 c 2.7,-87.58 25.5,-174.09 66.1,-251.72 11.5,-22.01 24.5,-43.22 38.8,-63.55 5.6,-8.06 19,-0.37 13.3,7.78 -49.1,69.88 -82,150.34 -95.8,234.6 -4,24.11 -6.2,48.47 -7,72.89 -0.3,9.9 -15.7,9.94 -15.4,0"
         style="fill:#4f657f;fill-opacity:1;fill-rule:nonzero;stroke:none"
         transform="matrix(0.13333333,0,0,-0.13333333,0,1355.0133)"
         clip-path="url(#clipPath1199)"
         id="path1205" />
    </g>
    <path
       id="path1206"
       d="m 16914.7,3067.33 c -50.8,0 -92.1,-41.32 -92.1,-92.11 0,-50.79 41.3,-92.11 92.1,-92.11 50.8,0 92.1,41.32 92.1,92.11 0,50.79 -41.3,92.11 -92.1,92.11 z m 0,-194.49 c -56.4,0 -102.3,45.93 -102.3,102.38 0,56.46 45.9,102.39 102.3,102.39 56.5,0 102.4,-45.93 102.4,-102.39 0,-56.45 -45.9,-102.38 -102.4,-102.38"
       style="fill:#ed6b55;fill-opacity:1;fill-rule:nonzero;stroke:none"
       transform="matrix(0.03527778,0,0,-0.03527778,-499.6462,251.57499)"
       clip-path="url(#clipPath1207)" />
    <path
       id="path1208"
       d="m 17183.6,3067.33 c -50.8,0 -92.1,-41.32 -92.1,-92.11 0,-50.79 41.3,-92.11 92.1,-92.11 50.8,0 92.1,41.32 92.1,92.11 0,50.79 -41.3,92.11 -92.1,92.11 z m 0,-194.49 c -56.5,0 -102.4,45.93 -102.4,102.38 0,56.46 45.9,102.39 102.4,102.39 56.5,0 102.4,-45.93 102.4,-102.39 0,-56.45 -45.9,-102.38 -102.4,-102.38"
       style="fill:#ed6b55;fill-opacity:1;fill-rule:nonzero;stroke:none"
       transform="matrix(0.03527778,0,0,-0.03527778,-499.6462,251.57499)"
       clip-path="url(#clipPath1209)" />
    <path
       id="path1210"
       d="m 17021.9,2971.65 c 7.4,8.01 18.1,12.28 28.8,11.01 9.7,-1.15 19.1,-7.4 24.3,-16.04 5.1,-8.48 18.5,-0.74 13.3,7.78 -7.9,13.1 -21.4,21.78 -36.6,23.56 -15,1.75 -30.5,-4.39 -40.7,-15.41 -2.8,-3.06 -3,-7.87 0,-10.9 2.9,-2.85 8.1,-3.07 10.9,0"
       style="fill:#ed6b55;fill-opacity:1;fill-rule:nonzero;stroke:none"
       transform="matrix(0.03527778,0,0,-0.03527778,-499.6462,251.57499)"
       clip-path="url(#clipPath1211)" />
    <path
       id="path1212"
       d="m 17077,2923.83 c -23.1,6.94 -46.3,13.83 -69.4,20.75 -3.5,1.06 -6.7,-0.8 -8.7,-3.54 -11.9,-16.23 -4,-36.27 6.9,-50.63 11.6,-15.32 26.4,-27.81 41.7,-39.24 2.7,-1.96 5.3,-3.89 8,-5.79 l 2.5,-1.73 0.7,-0.56 -2.3,2.4 c 0.4,3.12 0.8,6.23 1.2,9.34 v -0.01 c -7,-7.07 3.9,-17.97 10.9,-10.9 v 0.01 c 2.6,2.69 2.6,6.12 1.2,9.34 -1.4,3.16 -7.1,5.88 -9.7,7.8 -6.6,4.76 -10.5,7.72 -16.7,12.95 -7.1,5.92 -13.8,12.21 -19.9,19.1 -3.2,3.54 -5.1,5.96 -7.7,9.82 -1.2,1.79 -2.3,3.61 -3.3,5.5 -0.5,0.9 -1,1.83 -1.4,2.76 -0.7,1.54 -0.4,0.65 -0.8,1.95 -0.8,2.02 -1.3,4.07 -1.7,6.18 -0.4,1.73 -0.2,-0.47 -0.2,1.68 0,1.01 0,2.01 0,3.02 0,0.24 0.2,1.65 0,0.64 -0.1,-1.07 0.2,0.94 0.2,0.95 0.3,0.98 0.5,1.95 0.9,2.91 0.4,1.13 -0.5,-1.03 0,0.07 l 0.8,1.58 c 0.6,1.07 1.3,2.09 2,3.08 -2.9,-1.18 -5.8,-2.36 -8.7,-3.54 23.1,-6.92 46.3,-13.81 69.4,-20.76 9.5,-2.86 13.6,12.01 4.1,14.87"
       style="fill:#a46e4a;fill-opacity:1;fill-rule:nonzero;stroke:none"
       transform="matrix(0.03527778,0,0,-0.03527778,-499.6462,251.57499)"
       clip-path="url(#clipPath1213)" />
    <path
       id="path1214"
       d="m 16706,3392.02 c 21.6,62.21 101.8,76.4 154,116.52 31.7,24.31 89.9,114.03 116.5,143.78 83.4,93.23 184.4,79.14 305.2,46.65 31,-8.34 61.6,-21.61 84.3,-44.3 17.3,-17.23 29.4,-39.2 37.4,-62.23 20.6,-58.72 16,-123.1 6.5,-184.58 -3,-19.45 -6.5,-39.32 -2.9,-58.68 5.8,-31.67 29.2,-56.87 42.7,-86.07 19.7,-42.37 17.3,-94.31 -6.3,-134.62 -34.8,85.7 -132.1,125.2 -220.5,152.5 -156.9,48.48 -317.1,86.65 -479.1,114.16 l -37.8,-3.13"
       style="fill:#f5e6df;fill-opacity:1;fill-rule:nonzero;stroke:none"
       transform="matrix(0.03527778,0,0,-0.03527778,-499.6462,251.57499)"
       clip-path="url(#clipPath1215)" />
    <path
       id="path1216"
       d="m 16860.5,3492.39 c 146.9,-23.6 291.5,-61.96 430.8,-114.51 39.8,-15.02 79.1,-31.21 118,-48.52 9,-4 16.8,9.28 7.8,13.31 -137.4,61.18 -280.7,108.58 -427.6,140.87 -41.4,9.1 -83.1,16.99 -124.9,23.72 -9.7,1.55 -13.9,-13.3 -4.1,-14.87"
       style="fill:#7f4e33;fill-opacity:1;fill-rule:nonzero;stroke:none"
       transform="matrix(0.03527778,0,0,-0.03527778,-499.6462,251.57499)"
       clip-path="url(#clipPath1217)" />
  </g>
</svg>
