<?xml version="1.0" encoding="UTF-8" standalone="no"?>
<!-- Created with Inkscape (http://www.inkscape.org/) -->

<svg
   width="64.332558mm"
   height="64.331856mm"
   viewBox="0 0 64.332558 64.331856"
   version="1.1"
   id="svg1"
   inkscape:version="1.3.2 (091e20e, 2023-11-25)"
   sodipodi:docname="farmer-girl-avatar.svg"
   xmlns:inkscape="http://www.inkscape.org/namespaces/inkscape"
   xmlns:sodipodi="http://sodipodi.sourceforge.net/DTD/sodipodi-0.dtd"
   xmlns="http://www.w3.org/2000/svg"
   xmlns:svg="http://www.w3.org/2000/svg">
  <sodipodi:namedview
     id="namedview1"
     pagecolor="#ffffff"
     bordercolor="#000000"
     borderopacity="0.25"
     inkscape:showpageshadow="2"
     inkscape:pageopacity="0.0"
     inkscape:pagecheckerboard="0"
     inkscape:deskcolor="#d1d1d1"
     inkscape:document-units="mm"
     inkscape:zoom="1.1553367"
     inkscape:cx="248.84522"
     inkscape:cy="216.81992"
     inkscape:window-width="1920"
     inkscape:window-height="1052"
     inkscape:window-x="0"
     inkscape:window-y="28"
     inkscape:window-maximized="0"
     inkscape:current-layer="layer1" />
  <defs
     id="defs1">
    <clipPath
       clipPathUnits="userSpaceOnUse"
       id="clipPath2349">
      <path
         d="m 28813.9,7228.16 c 0,-503.58 -408.2,-911.79 -911.8,-911.79 -503.5,0 -911.8,408.21 -911.8,911.79 0,503.56 408.3,911.79 911.8,911.79 503.6,0 911.8,-408.23 911.8,-911.79"
         transform="translate(0,-2.5e-4)"
         id="path2349" />
    </clipPath>
    <clipPath
       clipPathUnits="userSpaceOnUse"
       id="clipPath2351">
      <path
         d="m 28813.9,7228.16 c 0,-503.58 -408.2,-911.79 -911.8,-911.79 -503.5,0 -911.8,408.21 -911.8,911.79 0,503.56 408.3,911.79 911.8,911.79 503.6,0 911.8,-408.23 911.8,-911.79"
         transform="translate(0,-2.5e-4)"
         id="path2351" />
    </clipPath>
    <clipPath
       clipPathUnits="userSpaceOnUse"
       id="clipPath2353">
      <path
         d="m 28813.9,7228.16 c 0,-503.58 -408.2,-911.79 -911.8,-911.79 -503.5,0 -911.8,408.21 -911.8,911.79 0,503.56 408.3,911.79 911.8,911.79 503.6,0 911.8,-408.23 911.8,-911.79"
         transform="translate(0,-2.5e-4)"
         id="path2353" />
    </clipPath>
    <clipPath
       clipPathUnits="userSpaceOnUse"
       id="clipPath2354">
      <path
         d="m 28340.2,6769.38 c -111.2,54.75 -226,98.52 -232.5,102.22 -11,6.32 14,119.12 0,212.28 l -187.3,-12.89 -187.3,12.89 c -14,-93.16 11,-205.96 0,-212.28 -6.5,-3.7 -121.3,-47.47 -232.5,-102.22 -111.3,-54.76 -195.5,-150.24 -177.7,-247.76 111.7,0.42 283.2,-1.07 599,-4.11 v -0.52 c 8.5,0.09 16.9,0.18 25.4,0.26 8.4,-0.08 16.9,-0.17 25.3,-0.26 v 0.52 c 315.8,3.04 433.6,4.53 545.3,4.11 17.8,97.52 -66.4,193 -177.7,247.76"
         transform="translate(0,-2.5e-4)"
         id="path2354" />
    </clipPath>
    <clipPath
       clipPathUnits="userSpaceOnUse"
       id="clipPath2357">
      <path
         d="m 28813.9,7228.16 c 0,-503.58 -408.2,-911.79 -911.8,-911.79 -503.5,0 -911.8,408.21 -911.8,911.79 0,503.56 408.3,911.79 911.8,911.79 503.6,0 911.8,-408.23 911.8,-911.79"
         transform="translate(0,-2.5e-4)"
         id="path2357" />
    </clipPath>
    <clipPath
       clipPathUnits="userSpaceOnUse"
       id="clipPath2359">
      <path
         d="m 28813.9,7228.16 c 0,-503.58 -408.2,-911.79 -911.8,-911.79 -503.5,0 -911.8,408.21 -911.8,911.79 0,503.56 408.3,911.79 911.8,911.79 503.6,0 911.8,-408.23 911.8,-911.79"
         transform="translate(0,-2.5e-4)"
         id="path2359" />
    </clipPath>
    <clipPath
       clipPathUnits="userSpaceOnUse"
       id="clipPath2361">
      <path
         d="m 28813.9,7228.16 c 0,-503.58 -408.2,-911.79 -911.8,-911.79 -503.5,0 -911.8,408.21 -911.8,911.79 0,503.56 408.3,911.79 911.8,911.79 503.6,0 911.8,-408.23 911.8,-911.79"
         transform="translate(0,-2.5e-4)"
         id="path2361" />
    </clipPath>
    <clipPath
       clipPathUnits="userSpaceOnUse"
       id="clipPath2363">
      <path
         d="m 28813.9,7228.16 c 0,-503.58 -408.2,-911.79 -911.8,-911.79 -503.5,0 -911.8,408.21 -911.8,911.79 0,503.56 408.3,911.79 911.8,911.79 503.6,0 911.8,-408.23 911.8,-911.79"
         transform="translate(0,-2.5e-4)"
         id="path2363" />
    </clipPath>
    <clipPath
       clipPathUnits="userSpaceOnUse"
       id="clipPath2365">
      <path
         d="m 28813.9,7228.16 c 0,-503.58 -408.2,-911.79 -911.8,-911.79 -503.5,0 -911.8,408.21 -911.8,911.79 0,503.56 408.3,911.79 911.8,911.79 503.6,0 911.8,-408.23 911.8,-911.79"
         transform="translate(0,-2.5e-4)"
         id="path2365" />
    </clipPath>
    <clipPath
       clipPathUnits="userSpaceOnUse"
       id="clipPath2367">
      <path
         d="m 28813.9,7228.16 c 0,-503.58 -408.2,-911.79 -911.8,-911.79 -503.5,0 -911.8,408.21 -911.8,911.79 0,503.56 408.3,911.79 911.8,911.79 503.6,0 911.8,-408.23 911.8,-911.79"
         transform="translate(0,-2.5e-4)"
         id="path2367" />
    </clipPath>
    <clipPath
       clipPathUnits="userSpaceOnUse"
       id="clipPath2369">
      <path
         d="m 28813.9,7228.16 c 0,-503.58 -408.2,-911.79 -911.8,-911.79 -503.5,0 -911.8,408.21 -911.8,911.79 0,503.56 408.3,911.79 911.8,911.79 503.6,0 911.8,-408.23 911.8,-911.79"
         transform="translate(0,-2.5e-4)"
         id="path2369" />
    </clipPath>
    <clipPath
       clipPathUnits="userSpaceOnUse"
       id="clipPath2371">
      <path
         d="m 28813.9,7228.16 c 0,-503.58 -408.2,-911.79 -911.8,-911.79 -503.5,0 -911.8,408.21 -911.8,911.79 0,503.56 408.3,911.79 911.8,911.79 503.6,0 911.8,-408.23 911.8,-911.79"
         transform="translate(0,-2.5e-4)"
         id="path2371" />
    </clipPath>
    <clipPath
       clipPathUnits="userSpaceOnUse"
       id="clipPath2373">
      <path
         d="m 28813.9,7228.16 c 0,-503.58 -408.2,-911.79 -911.8,-911.79 -503.5,0 -911.8,408.21 -911.8,911.79 0,503.56 408.3,911.79 911.8,911.79 503.6,0 911.8,-408.23 911.8,-911.79"
         transform="translate(0,-2.5e-4)"
         id="path2373" />
    </clipPath>
    <clipPath
       clipPathUnits="userSpaceOnUse"
       id="clipPath2375">
      <path
         d="m 28813.9,7228.16 c 0,-503.58 -408.2,-911.79 -911.8,-911.79 -503.5,0 -911.8,408.21 -911.8,911.79 0,503.56 408.3,911.79 911.8,911.79 503.6,0 911.8,-408.23 911.8,-911.79"
         transform="translate(0,-2.5e-4)"
         id="path2375" />
    </clipPath>
    <clipPath
       clipPathUnits="userSpaceOnUse"
       id="clipPath2377">
      <path
         d="m 28813.9,7228.16 c 0,-503.58 -408.2,-911.79 -911.8,-911.79 -503.5,0 -911.8,408.21 -911.8,911.79 0,503.56 408.3,911.79 911.8,911.79 503.6,0 911.8,-408.23 911.8,-911.79"
         transform="translate(0,-2.5e-4)"
         id="path2377" />
    </clipPath>
    <clipPath
       clipPathUnits="userSpaceOnUse"
       id="clipPath2379">
      <path
         d="m 28813.9,7228.16 c 0,-503.58 -408.2,-911.79 -911.8,-911.79 -503.5,0 -911.8,408.21 -911.8,911.79 0,503.56 408.3,911.79 911.8,911.79 503.6,0 911.8,-408.23 911.8,-911.79"
         transform="translate(0,-2.5e-4)"
         id="path2379" />
    </clipPath>
    <clipPath
       clipPathUnits="userSpaceOnUse"
       id="clipPath2381">
      <path
         d="m 28813.9,7228.16 c 0,-503.58 -408.2,-911.79 -911.8,-911.79 -503.5,0 -911.8,408.21 -911.8,911.79 0,503.56 408.3,911.79 911.8,911.79 503.6,0 911.8,-408.23 911.8,-911.79"
         transform="translate(0,-2.5e-4)"
         id="path2381" />
    </clipPath>
    <clipPath
       clipPathUnits="userSpaceOnUse"
       id="clipPath2383">
      <path
         d="m 28813.9,7228.16 c 0,-503.58 -408.2,-911.79 -911.8,-911.79 -503.5,0 -911.8,408.21 -911.8,911.79 0,503.56 408.3,911.79 911.8,911.79 503.6,0 911.8,-408.23 911.8,-911.79"
         transform="translate(0,-2.5e-4)"
         id="path2383" />
    </clipPath>
    <clipPath
       clipPathUnits="userSpaceOnUse"
       id="clipPath2385">
      <path
         d="m 28813.9,7228.16 c 0,-503.58 -408.2,-911.79 -911.8,-911.79 -503.5,0 -911.8,408.21 -911.8,911.79 0,503.56 408.3,911.79 911.8,911.79 503.6,0 911.8,-408.23 911.8,-911.79"
         transform="translate(0,-2.5e-4)"
         id="path2385" />
    </clipPath>
    <clipPath
       clipPathUnits="userSpaceOnUse"
       id="clipPath2387">
      <path
         d="m 28813.9,7228.16 c 0,-503.58 -408.2,-911.79 -911.8,-911.79 -503.5,0 -911.8,408.21 -911.8,911.79 0,503.56 408.3,911.79 911.8,911.79 503.6,0 911.8,-408.23 911.8,-911.79"
         transform="translate(0,-2.5e-4)"
         id="path2387" />
    </clipPath>
    <clipPath
       clipPathUnits="userSpaceOnUse"
       id="clipPath2389">
      <path
         d="m 28813.9,7228.16 c 0,-503.58 -408.2,-911.79 -911.8,-911.79 -503.5,0 -911.8,408.21 -911.8,911.79 0,503.56 408.3,911.79 911.8,911.79 503.6,0 911.8,-408.23 911.8,-911.79"
         transform="translate(0,-2.5e-4)"
         id="path2389" />
    </clipPath>
    <clipPath
       clipPathUnits="userSpaceOnUse"
       id="clipPath2391">
      <path
         d="m 28813.9,7228.16 c 0,-503.58 -408.2,-911.79 -911.8,-911.79 -503.5,0 -911.8,408.21 -911.8,911.79 0,503.56 408.3,911.79 911.8,911.79 503.6,0 911.8,-408.23 911.8,-911.79"
         transform="translate(0,-2.5e-4)"
         id="path2391" />
    </clipPath>
    <clipPath
       clipPathUnits="userSpaceOnUse"
       id="clipPath2393">
      <path
         d="m 28813.9,7228.16 c 0,-503.58 -408.2,-911.79 -911.8,-911.79 -503.5,0 -911.8,408.21 -911.8,911.79 0,503.56 408.3,911.79 911.8,911.79 503.6,0 911.8,-408.23 911.8,-911.79"
         transform="translate(0,-2.5e-4)"
         id="path2393" />
    </clipPath>
    <clipPath
       clipPathUnits="userSpaceOnUse"
       id="clipPath2395">
      <path
         d="m 28813.9,7228.16 c 0,-503.58 -408.2,-911.79 -911.8,-911.79 -503.5,0 -911.8,408.21 -911.8,911.79 0,503.56 408.3,911.79 911.8,911.79 503.6,0 911.8,-408.23 911.8,-911.79"
         transform="translate(0,-2.5e-4)"
         id="path2395" />
    </clipPath>
    <clipPath
       clipPathUnits="userSpaceOnUse"
       id="clipPath2397">
      <path
         d="m 28813.9,7228.16 c 0,-503.58 -408.2,-911.79 -911.8,-911.79 -503.5,0 -911.8,408.21 -911.8,911.79 0,503.56 408.3,911.79 911.8,911.79 503.6,0 911.8,-408.23 911.8,-911.79"
         transform="translate(0,-2.5e-4)"
         id="path2397" />
    </clipPath>
    <clipPath
       clipPathUnits="userSpaceOnUse"
       id="clipPath2399">
      <path
         d="m 28813.9,7228.16 c 0,-503.58 -408.2,-911.79 -911.8,-911.79 -503.5,0 -911.8,408.21 -911.8,911.79 0,503.56 408.3,911.79 911.8,911.79 503.6,0 911.8,-408.23 911.8,-911.79"
         transform="translate(0,-2.5e-4)"
         id="path2399" />
    </clipPath>
    <clipPath
       clipPathUnits="userSpaceOnUse"
       id="clipPath2401">
      <path
         d="m 28813.9,7228.16 c 0,-503.58 -408.2,-911.79 -911.8,-911.79 -503.5,0 -911.8,408.21 -911.8,911.79 0,503.56 408.3,911.79 911.8,911.79 503.6,0 911.8,-408.23 911.8,-911.79"
         transform="translate(0,-2.5e-4)"
         id="path2401" />
    </clipPath>
    <clipPath
       clipPathUnits="userSpaceOnUse"
       id="clipPath2403">
      <path
         d="m 28813.9,7228.16 c 0,-503.58 -408.2,-911.79 -911.8,-911.79 -503.5,0 -911.8,408.21 -911.8,911.79 0,503.56 408.3,911.79 911.8,911.79 503.6,0 911.8,-408.23 911.8,-911.79"
         transform="translate(0,-2.5e-4)"
         id="path2403" />
    </clipPath>
    <clipPath
       clipPathUnits="userSpaceOnUse"
       id="clipPath2405">
      <path
         d="m 28813.9,7228.16 c 0,-503.58 -408.2,-911.79 -911.8,-911.79 -503.5,0 -911.8,408.21 -911.8,911.79 0,503.56 408.3,911.79 911.8,911.79 503.6,0 911.8,-408.23 911.8,-911.79"
         transform="translate(0,-2.5e-4)"
         id="path2405" />
    </clipPath>
    <clipPath
       clipPathUnits="userSpaceOnUse"
       id="clipPath2407">
      <path
         d="m 28813.9,7228.16 c 0,-503.58 -408.2,-911.79 -911.8,-911.79 -503.5,0 -911.8,408.21 -911.8,911.79 0,503.56 408.3,911.79 911.8,911.79 503.6,0 911.8,-408.23 911.8,-911.79"
         transform="translate(0,-2.5e-4)"
         id="path2407" />
    </clipPath>
    <clipPath
       clipPathUnits="userSpaceOnUse"
       id="clipPath2409">
      <path
         d="m 28813.9,7228.16 c 0,-503.58 -408.2,-911.79 -911.8,-911.79 -503.5,0 -911.8,408.21 -911.8,911.79 0,503.56 408.3,911.79 911.8,911.79 503.6,0 911.8,-408.23 911.8,-911.79"
         transform="translate(0,-2.5e-4)"
         id="path2409" />
    </clipPath>
    <clipPath
       clipPathUnits="userSpaceOnUse"
       id="clipPath2411">
      <path
         d="m 28813.9,7228.16 c 0,-503.58 -408.2,-911.79 -911.8,-911.79 -503.5,0 -911.8,408.21 -911.8,911.79 0,503.56 408.3,911.79 911.8,911.79 503.6,0 911.8,-408.23 911.8,-911.79"
         transform="translate(0,-2.5e-4)"
         id="path2411" />
    </clipPath>
    <clipPath
       clipPathUnits="userSpaceOnUse"
       id="clipPath2413">
      <path
         d="m 28813.9,7228.16 c 0,-503.58 -408.2,-911.79 -911.8,-911.79 -503.5,0 -911.8,408.21 -911.8,911.79 0,503.56 408.3,911.79 911.8,911.79 503.6,0 911.8,-408.23 911.8,-911.79"
         transform="translate(0,-2.5e-4)"
         id="path2413" />
    </clipPath>
    <clipPath
       clipPathUnits="userSpaceOnUse"
       id="clipPath2415">
      <path
         d="m 28813.9,7228.16 c 0,-503.58 -408.2,-911.79 -911.8,-911.79 -503.5,0 -911.8,408.21 -911.8,911.79 0,503.56 408.3,911.79 911.8,911.79 503.6,0 911.8,-408.23 911.8,-911.79"
         transform="translate(0,-2.5e-4)"
         id="path2415" />
    </clipPath>
    <clipPath
       clipPathUnits="userSpaceOnUse"
       id="clipPath2417">
      <path
         d="m 28813.9,7228.16 c 0,-503.58 -408.2,-911.79 -911.8,-911.79 -503.5,0 -911.8,408.21 -911.8,911.79 0,503.56 408.3,911.79 911.8,911.79 503.6,0 911.8,-408.23 911.8,-911.79"
         transform="translate(0,-2.5e-4)"
         id="path2417" />
    </clipPath>
    <clipPath
       clipPathUnits="userSpaceOnUse"
       id="clipPath2419">
      <path
         d="m 28813.9,7228.16 c 0,-503.58 -408.2,-911.79 -911.8,-911.79 -503.5,0 -911.8,408.21 -911.8,911.79 0,503.56 408.3,911.79 911.8,911.79 503.6,0 911.8,-408.23 911.8,-911.79"
         transform="translate(0,-2.5e-4)"
         id="path2419" />
    </clipPath>
    <clipPath
       clipPathUnits="userSpaceOnUse"
       id="clipPath2421">
      <path
         d="m 28813.9,7228.16 c 0,-503.58 -408.2,-911.79 -911.8,-911.79 -503.5,0 -911.8,408.21 -911.8,911.79 0,503.56 408.3,911.79 911.8,911.79 503.6,0 911.8,-408.23 911.8,-911.79"
         transform="translate(0,-2.5e-4)"
         id="path2421" />
    </clipPath>
    <clipPath
       clipPathUnits="userSpaceOnUse"
       id="clipPath2423">
      <path
         d="m 28813.9,7228.16 c 0,-503.58 -408.2,-911.79 -911.8,-911.79 -503.5,0 -911.8,408.21 -911.8,911.79 0,503.56 408.3,911.79 911.8,911.79 503.6,0 911.8,-408.23 911.8,-911.79"
         transform="translate(0,-2.5e-4)"
         id="path2423" />
    </clipPath>
    <clipPath
       clipPathUnits="userSpaceOnUse"
       id="clipPath2425">
      <path
         d="m 28813.9,7228.16 c 0,-503.58 -408.2,-911.79 -911.8,-911.79 -503.5,0 -911.8,408.21 -911.8,911.79 0,503.56 408.3,911.79 911.8,911.79 503.6,0 911.8,-408.23 911.8,-911.79"
         transform="translate(0,-2.5e-4)"
         id="path2425" />
    </clipPath>
  </defs>
  <g
     inkscape:label="Layer 1"
     inkscape:groupmode="layer"
     id="layer1"
     transform="translate(-74.877156,-100.01247)">
    <path
       id="path2348"
       d="m 28813.9,7228.16 c 0,-503.57 -408.2,-911.8 -911.8,-911.8 -503.5,0 -911.8,408.23 -911.8,911.8 0,503.56 408.3,911.79 911.8,911.79 503.6,0 911.8,-408.23 911.8,-911.79"
       style="fill:#a59eff;fill-opacity:1;fill-rule:nonzero;stroke:none"
       transform="matrix(0.03527778,0,0,-0.03527778,-877.28071,387.17183)"
       clip-path="url(#clipPath2349)" />
    <path
       id="path2350"
       d="m 27830.6,6493.04 c -13.2,-62.6 -54.9,-121.81 -114.6,-140.61 -59.6,-18.8 -134.3,14.39 -150.2,76.33 -7.7,-28.83 -40.8,-43.97 -69.8,-40.65 -29,3.31 -54.5,20.37 -78.5,37.34 -66.8,47.29 -134.4,101.18 -166.6,177.66 -32.2,76.49 -15.1,180.96 56.9,219.45 -73,101.88 -101.2,236.32 -75.5,360.02 12.5,60.18 38.5,119.46 84,159.52 45.6,40.05 113,57.16 167.6,31.75 -5.3,109.87 1.1,242.96 94.5,296.95 31.1,17.97 67.4,23.57 103,26.22 102.1,7.6 225.2,-21.68 260.3,-120.29 63.1,73 157.1,124.89 251.3,111.71 94.2,-13.17 178.1,-107.16 161,-203.14 62.7,46.66 162.5,13.82 195.6,-58 33.2,-71.82 2.4,-164.69 -61.2,-210.1 74.3,-1.36 132.3,-77.11 137.2,-153.11 5,-76 -31,-148.9 -76,-209.5 51.8,-62.57 54.6,-162.39 6.3,-227.88 -23,-31.19 -55.4,-54.4 -76.3,-87.14 -14.8,-23.24 -23.1,-50.41 -38.7,-73.12 -35.6,-51.95 -110.2,-70.93 -165.4,-42.09 -27.1,-85.27 -139.2,-128.01 -214,-81.67 -37.2,-35.3 -69.6,-44.78 -115.6,-23.01 -45.9,21.78 -102.8,73.5 -100.7,125.42 l -14.6,47.94"
       style="fill:#262b44;fill-opacity:1;fill-rule:nonzero;stroke:none"
       transform="matrix(0.03527778,0,0,-0.03527778,-877.28071,387.17183)"
       clip-path="url(#clipPath2351)" />
    <path
       id="path2352"
       d="m 28340.2,6769.38 c -111.2,54.75 -226,98.52 -232.5,102.22 -11,6.32 14,119.11 0,212.28 l -187.3,-12.9 -187.3,12.9 c -14,-93.17 11,-205.96 0,-212.28 -6.5,-3.7 -121.3,-47.47 -232.5,-102.22 -111.3,-54.75 -195.5,-150.24 -177.6,-247.76 111.6,0.42 283.1,-1.07 598.9,-4.12 v -0.5 c 8.5,0.08 16.9,0.17 25.4,0.25 8.4,-0.08 16.9,-0.17 25.3,-0.25 v 0.5 c 315.8,3.05 413.7,5.49 525.4,5.07 17.8,97.52 -46.5,192.06 -157.8,246.81"
       style="fill:#f0bf85;fill-opacity:1;fill-rule:nonzero;stroke:none"
       transform="matrix(0.03527778,0,0,-0.03527778,-877.28071,387.17183)"
       clip-path="url(#clipPath2353)" />
    <g
       id="g2355"
       transform="matrix(0.26458333,0,0,0.26458333,-877.28071,28.657897)">
      <path
         d="m 27483.7,7086.88 c 73.9,34.98 77.1,51.76 80.6,34.98 17.5,-82.46 194.8,-281.11 356,-281.11 208.6,0 329.7,258.88 349.2,324.13 -241.1,-25.34 -485.4,-50.71 -727.2,-29.39 6.6,-4.61 13.3,-9.21 19.9,-13.82 l -78.5,-34.79"
         style="fill:#d3a06c;fill-opacity:1;fill-rule:nonzero;stroke:none"
         transform="matrix(0.13333333,0,0,-0.13333333,0,1355.0133)"
         clip-path="url(#clipPath2354)"
         id="path2355" />
    </g>
    <path
       id="path2356"
       d="m 28244.5,7204.55 c -1.7,25 -17.6,49.91 -41.6,57.19 -15.7,4.78 -34,-0.31 -45.7,-11.38 7.9,134.54 3.6,343.96 -5.5,344.73 -139.4,11.81 -328.8,40.37 -464.5,6.14 v -3.91 c -26.1,-88.21 -28.4,-224.89 -17.2,-340.07 -10.9,6.07 -24.4,8.13 -36.4,4.49 -24,-7.28 -39.8,-32.19 -41.6,-57.19 -1.8,-25 8.4,-49.6 22.7,-70.16 20.4,-29.27 54.1,-52.86 88.7,-52.56 14.6,-45.4 35.2,-88.64 66.1,-124.7 43.9,-51.35 111.5,-86.08 178.5,-76.98 64.7,8.81 119,56.92 150.6,114.13 15.3,27.55 25.9,57.09 33.9,87.54 34.8,-0.61 68.8,23.11 89.3,52.57 14.4,20.56 24.5,45.16 22.7,70.16"
       style="fill:#f0bf85;fill-opacity:1;fill-rule:nonzero;stroke:none"
       transform="matrix(0.03527778,0,0,-0.03527778,-877.28071,387.17183)"
       clip-path="url(#clipPath2357)" />
    <path
       id="path2358"
       d="m 27812.3,7247.69 c 0,-20.37 -16.2,-36.9 -36.1,-36.9 -19.9,0 -36.1,16.53 -36.1,36.9 0,20.38 16.2,36.91 36.1,36.91 19.9,0 36.1,-16.53 36.1,-36.91"
       style="fill:#1a1a1a;fill-opacity:1;fill-rule:nonzero;stroke:none"
       transform="matrix(0.03527778,0,0,-0.03527778,-877.28071,387.17183)"
       clip-path="url(#clipPath2359)" />
    <path
       id="path2360"
       d="m 28085.7,7253.27 c 0,-20.38 -16.2,-36.9 -36.1,-36.9 -20,0 -36.1,16.52 -36.1,36.9 0,20.38 16.1,36.9 36.1,36.9 19.9,0 36.1,-16.52 36.1,-36.9"
       style="fill:#1a1a1a;fill-opacity:1;fill-rule:nonzero;stroke:none"
       transform="matrix(0.03527778,0,0,-0.03527778,-877.28071,387.17183)"
       clip-path="url(#clipPath2361)" />
    <path
       id="path2362"
       d="m 27868.5,7106.39 c 18.6,-48.95 63.1,-71.24 95.2,-4.92 l -95.2,4.92"
       style="fill:#ffffff;fill-opacity:1;fill-rule:nonzero;stroke:none"
       transform="matrix(0.03527778,0,0,-0.03527778,-877.28071,387.17183)"
       clip-path="url(#clipPath2363)" />
    <path
       id="path2364"
       d="m 27860.5,7104.17 c 6.9,-18.15 17.9,-36.82 35.4,-46.59 16.8,-9.39 35.4,-6.37 50.1,5.51 11,8.92 18.8,21.6 24.9,34.16 2.9,5.81 -0.6,12.24 -7.2,12.58 -27.7,1.43 -55.5,2.87 -83.2,4.3 -4,0.21 -8,0.41 -12,0.62 -10.7,0.55 -10.7,-16.16 0,-16.72 27.8,-1.43 55.5,-2.86 83.2,-4.3 4,-0.2 8,-0.41 12,-0.62 -2.4,4.2 -4.8,8.39 -7.2,12.58 -5.5,-11.26 -12.2,-23.01 -22.4,-30.79 -3.9,-3.01 -7.4,-4.75 -11.7,-5.81 -2.6,-0.63 -1.9,-0.55 -4.6,-0.61 -1.2,-0.03 -2.3,0.01 -3.4,0.11 -1.4,0.12 0.3,-0.14 -1.6,0.26 -7.9,1.72 -14.3,6.25 -20.2,12.71 -7.1,7.71 -12.3,17.31 -16,27.05 -1.6,4.21 -5.6,7.12 -10.3,5.84 -4,-1.11 -7.5,-6.04 -5.8,-10.28"
       style="fill:#a46e4a;fill-opacity:1;fill-rule:nonzero;stroke:none"
       transform="matrix(0.03527778,0,0,-0.03527778,-877.28071,387.17183)"
       clip-path="url(#clipPath2365)" />
    <path
       id="path2366"
       d="m 28151.9,7162.48 c 1.3,2.16 2.7,4.29 4.2,6.34 l 1,1.47 0.7,0.88 0.7,0.85 1.4,1.67 c 3.2,3.76 6.7,7.28 10.4,10.53 0.9,0.79 1.8,1.57 2.7,2.33 l 1.5,1.12 c -1.3,-1 0,0.03 0.3,0.23 2,1.5 4.1,2.93 6.2,4.28 4.3,2.69 8.8,5.03 13.5,7.05 4,1.74 5.2,7.95 3,11.43 -2.7,4.18 -7.1,4.86 -11.5,3 -20.1,-8.72 -37.2,-24.02 -48.5,-42.74 -2.3,-3.75 -1,-9.35 3,-11.44 4,-2.14 9,-0.99 11.4,3"
       style="fill:#a46e4a;fill-opacity:1;fill-rule:nonzero;stroke:none"
       transform="matrix(0.03527778,0,0,-0.03527778,-877.28071,387.17183)"
       clip-path="url(#clipPath2367)" />
    <path
       id="path2368"
       d="m 28163.8,7177.46 2.2,-1.4 0.9,-0.6 c 0.2,-0.09 1.5,-1.16 0.5,-0.29 -1.1,0.85 0.1,-0.15 0.4,-0.33 l 1,-0.86 1.7,-1.62 c 1.3,-1.24 2.5,-2.56 3.6,-3.92 l -0.4,0.43 0.8,-1.07 1.5,-2.22 c 0.9,-1.43 1.7,-2.9 2.4,-4.42 l 0.4,-0.96 c 0.8,-1.65 -0.4,1.28 -0.1,0.28 l 0.9,-2.49 c 0.6,-1.59 1,-3.22 1.3,-4.86 l 0.5,-2.61 c -0.1,0.37 -0.2,1.8 -0.1,0.64 l 0.1,-1.58 c 0.3,-4.36 3.6,-8.57 8.4,-8.36 4.2,0.19 8.6,3.68 8.3,8.36 -1.2,17.37 -10.8,33.45 -25.9,42.31 -3.7,2.22 -9.3,0.99 -11.4,-2.99 -2.1,-4.02 -1,-9.08 3,-11.44"
       style="fill:#a46e4a;fill-opacity:1;fill-rule:nonzero;stroke:none"
       transform="matrix(0.03527778,0,0,-0.03527778,-877.28071,387.17183)"
       clip-path="url(#clipPath2369)" />
    <path
       id="path2370"
       d="m 27636.1,7213.27 c 11.4,-18.96 22.8,-37.92 34.2,-56.88 2.3,-3.87 7.5,-5.3 11.4,-3 3.9,2.27 5.4,7.55 3,11.44 -11.4,18.95 -22.8,37.92 -34.2,56.88 -2.3,3.86 -7.5,5.29 -11.4,2.99 -3.9,-2.26 -5.3,-7.55 -3,-11.43"
       style="fill:#a46e4a;fill-opacity:1;fill-rule:nonzero;stroke:none"
       transform="matrix(0.03527778,0,0,-0.03527778,-877.28071,387.17183)"
       clip-path="url(#clipPath2371)" />
    <path
       id="path2372"
       d="m 27636.6,7159.82 c 7.6,5.68 15.1,11.35 22.7,17.03 1.9,1.35 3.3,2.73 3.9,4.99 0.5,2 0.3,4.67 -0.9,6.44 -1.1,1.79 -2.8,3.36 -4.9,3.84 -2.1,0.47 -4.7,0.48 -6.5,-0.84 -7.6,-5.67 -15.2,-11.35 -22.8,-17.03 -1.8,-1.35 -3.2,-2.73 -3.8,-4.99 -0.6,-2 -0.3,-4.66 0.8,-6.44 1.2,-1.78 2.9,-3.35 5,-3.84 2.1,-0.47 4.7,-0.47 6.5,0.84"
       style="fill:#a46e4a;fill-opacity:1;fill-rule:nonzero;stroke:none"
       transform="matrix(0.03527778,0,0,-0.03527778,-877.28071,387.17183)"
       clip-path="url(#clipPath2373)" />
    <path
       id="path2374"
       d="m 28023.3,7365.19 c 1.7,0.79 3.7,1.56 6.3,2.29 1.3,0.35 2.6,0.65 3.9,0.91 l 1.8,0.3 -0.1,0.01 0.9,0.09 c 5.5,0.45 10.2,0.29 14.6,-0.63 10.2,-2.12 18.3,-6.6 25.2,-14.24 3,-3.36 8.7,-3.07 11.8,0 3.3,3.34 3,8.45 0,11.81 -18.1,20.13 -48.7,25.36 -72.8,13.9 -4.1,-1.94 -5.2,-7.78 -3,-11.44 2.4,-4.17 7.3,-4.94 11.4,-3"
       style="fill:#262b44;fill-opacity:1;fill-rule:nonzero;stroke:none"
       transform="matrix(0.03527778,0,0,-0.03527778,-877.28071,387.17183)"
       clip-path="url(#clipPath2375)" />
    <path
       id="path2376"
       d="m 27759.1,7352.34 c 6.7,8.4 14.7,13.43 24.6,16.03 1.3,0.33 2.5,0.62 3.8,0.87 l 1.8,0.3 h -0.1 l 0.9,0.09 c 2.6,0.22 5.2,0.35 7.9,0.23 l 2.2,-0.14 c 0.2,-0.02 2.1,-0.22 0.8,-0.06 1.3,-0.17 2.6,-0.42 3.9,-0.71 2.7,-0.62 5.3,-1.47 7.9,-2.52 4.2,-1.69 9.2,1.85 10.3,5.84 1.3,4.78 -1.7,8.58 -5.9,10.28 -23.8,9.65 -53.9,1.72 -69.9,-18.39 -2.8,-3.53 -3.5,-8.37 0,-11.82 2.9,-2.91 9,-3.55 11.8,0"
       style="fill:#262b44;fill-opacity:1;fill-rule:nonzero;stroke:none"
       transform="matrix(0.03527778,0,0,-0.03527778,-877.28071,387.17183)"
       clip-path="url(#clipPath2377)" />
    <path
       id="path2378"
       d="m 28236.9,7536.66 c -5.4,25.22 9.5,230.01 -287.4,182.65 -10.1,-1.6 -20.5,-3.7 -30.2,-0.36 -8,2.73 -14.9,8.91 -22.2,13.6 -20.3,12.96 -44.2,14.37 -67,12.06 -80.2,-8.16 -156.8,-61.55 -204,-142.32 l 2.5,0.23 c -7.6,-13.01 -12.8,-27.43 -16.7,-41.9 -20.9,-76.91 -11.5,-157.95 -2,-236.86 2,-16.57 4.3,-33.78 13.7,-47.86 9.4,-14.08 28.3,-23.96 44.8,-18.24 16.5,5.72 22.5,30.96 7.3,39.44 24,6.75 39.8,29.65 44,53.03 4.1,23.38 -1.4,47.28 -8.1,70.13 31.9,-11.09 70.8,-0.1 91.1,25.72 20.2,25.83 20.2,64.34 -0.1,90.14 52.6,-33.19 125.9,-33.87 179.1,-1.68 16.6,-24.01 39,-46.2 68,-54.34 14.2,-3.98 35.3,3.45 54.7,15.1 -1.8,-24.01 11.3,-48.91 33.3,-61.17 -21,-13.58 -33.1,-38.55 -30.4,-62.52 2.7,-23.96 20.2,-45.9 43.8,-54.9 -15.6,-16.09 -27.8,-37.16 -25.2,-58.88 0.1,-1.09 0.3,-2.17 0.5,-3.24 5.8,-27.46 42,-37.48 63.9,-18.7 l 20.5,17.6 c -0.1,0.98 -0.3,1.96 -0.4,2.94 l 1,-2.09 -0.3,-0.58 18.6,15.95 c 0,0 30.7,158.96 7.2,267.05"
       style="fill:#262b44;fill-opacity:1;fill-rule:nonzero;stroke:none"
       transform="matrix(0.03527778,0,0,-0.03527778,-877.28071,387.17183)"
       clip-path="url(#clipPath2379)" />
    <path
       id="path2380"
       d="m 28210.8,7253.13 0.3,0.53 -0.3,-0.27 z"
       style="fill:#262b44;fill-opacity:1;fill-rule:nonzero;stroke:none"
       transform="matrix(0.03527778,0,0,-0.03527778,-877.28071,387.17183)"
       clip-path="url(#clipPath2381)" />
    <path
       id="path2382"
       d="m 27977,7552.33 c -3.8,-18.28 -12.7,-34.9 -26.1,-47.98 -10.8,-10.53 -25.5,-20.97 -41.5,-18.99 -4.6,0.58 -10.9,2.89 -11,8.46 -0.2,4.25 4.4,6.78 8.1,7.83 15.4,4.24 19.9,-12.07 14.9,-23.84 -8.9,-21.4 -35.9,-24.01 -55.9,-25.96 -10.6,-1.03 -10.7,-17.75 0,-16.71 26.1,2.53 57.1,6.97 69.9,33.25 10,20.44 3.2,49.74 -23.3,50.62 -19.9,0.66 -39.7,-19.39 -26,-38.57 13.2,-18.61 41.7,-12.6 58.1,-2.41 24.9,15.47 42.9,41.16 48.9,69.85 2.2,10.5 -13.9,14.99 -16.1,4.45"
       style="fill:#262b44;fill-opacity:1;fill-rule:nonzero;stroke:none"
       transform="matrix(0.03527778,0,0,-0.03527778,-877.28071,387.17183)"
       clip-path="url(#clipPath2383)" />
    <path
       id="path2384"
       d="m 27892.3,7274.42 c 11.4,-20.03 31.4,-31.22 48.4,-45.74 3.9,-3.32 9.3,-7.21 11.3,-12.06 2.3,-5.54 -1.6,-11.34 -4.8,-15.66 -8.4,-11.49 -18.4,-22.09 -27.5,-33 -6.3,-7.53 4.5,-18.45 10.9,-10.87 10.1,12.14 21.4,23.92 30.5,36.91 8.4,12.1 9.3,25.56 -0.6,37.03 -16.4,19.12 -42.1,28.58 -54.9,51.15 -4.9,8.6 -18.2,0.86 -13.3,-7.76"
       style="fill:#a46e4a;fill-opacity:1;fill-rule:nonzero;stroke:none"
       transform="matrix(0.03527778,0,0,-0.03527778,-877.28071,387.17183)"
       clip-path="url(#clipPath2385)" />
    <path
       id="path2386"
       d="m 27680.8,6852.47 c 57.4,-63.72 142.4,-103.08 229.4,-106.24 87,-3.16 174.8,29.92 236.9,89.28 7,6.64 14,13.84 23.3,16.68 9.7,2.96 20.1,0.68 29.9,-1.85 81.8,-21.1 159,-58.94 225,-110.35 23.2,-18.06 45.4,-38.13 60.7,-62.9 24.7,-39.82 29.7,-88.28 28.5,-134.76 -2.3,-91.84 -26.2,-183.31 -16.5,-274.69 -122.2,-25.55 -246.9,-39.96 -371.9,-42.97 -33.9,-0.81 -68.1,-0.76 -101.3,5.95 -26.2,5.3 -51.5,14.71 -77.9,18.96 -56.7,9.1 -114.1,-5.94 -171.3,-9.95 -158.2,-11.06 -308.8,61.98 -445.5,140.2 -5.3,2.99 -10.6,6.11 -14.4,10.8 -4.9,6.29 -6.3,14.54 -7.4,22.39 -12.8,85.6 -23.9,179.42 23.1,252.85 19.6,30.69 48,55.14 78,76.48 78.4,55.88 170.6,93.39 266.5,108.51 l 4.9,1.61"
       style="fill:#8ca3c3;fill-opacity:1;fill-rule:nonzero;stroke:none"
       transform="matrix(0.03527778,0,0,-0.03527778,-877.28071,387.17183)"
       clip-path="url(#clipPath2387)" />
    <path
       id="path2388"
       d="m 27497.9,6762.82 c 32.7,-1.55 65.7,-0.71 98.5,-0.38 36.6,0.37 73.3,1.02 109.9,1.08 6.6,0.01 13.1,0 19.7,-0.13 2.2,-0.04 4.4,-0.09 6.7,-0.19 1.1,-0.06 6.2,-0.62 2.7,-0.11 9.7,-1.43 13.9,13.38 4.1,14.82 -8.6,1.27 -17.5,0.95 -26.1,0.97 -16.3,0.05 -32.7,-0.13 -49,-0.31 -39.5,-0.42 -79.1,-1.05 -118.6,-1.08 -16,-0.01 -32,-0.05 -47.9,0.7 -9.9,0.46 -9.9,-14.91 0,-15.37"
       style="fill:#ffffff;fill-opacity:1;fill-rule:nonzero;stroke:none"
       transform="matrix(0.03527778,0,0,-0.03527778,-877.28071,387.17183)"
       clip-path="url(#clipPath2389)" />
    <path
       id="path2390"
       d="m 28093.3,6757.23 c 44.4,-7.46 89.9,-8.74 134.8,-10.04 43.2,-1.25 86.3,-1.58 129.5,-1.33 8.7,0.05 17.4,0.11 26.1,0.24 9.9,0.16 10,15.52 0,15.37 -72.7,-1.12 -145.7,-0.62 -218.3,3.79 -22.7,1.39 -45.5,3.01 -68,6.79 -9.7,1.63 -13.8,-13.18 -4.1,-14.82"
       style="fill:#ffffff;fill-opacity:1;fill-rule:nonzero;stroke:none"
       transform="matrix(0.03527778,0,0,-0.03527778,-877.28071,387.17183)"
       clip-path="url(#clipPath2391)" />
    <path
       id="path2392"
       d="m 27413.2,6723.18 c 63.2,-8.27 126.9,-12.75 190.4,-17.25 87.3,-6.18 174.7,-11.2 262.2,-15.86 90.5,-4.83 181.1,-9.18 271.7,-13.29 72.9,-3.31 145.9,-6.45 218.8,-9.52 34.6,-1.46 69.1,-3.21 103.7,-4.56 3.2,-0.12 -0.9,0.17 -2.1,0.88 8.5,-5.07 16.2,8.21 7.7,13.27 -2.5,1.53 -6.4,1.28 -9.3,1.43 -5.4,0.29 -10.9,0.53 -16.3,0.77 -20.3,0.92 -40.6,1.76 -60.9,2.62 -69.3,2.92 -138.6,5.86 -207.9,8.96 -90,4.02 -179.9,8.26 -269.8,12.93 -89,4.62 -178,9.6 -266.9,15.6 -68,4.6 -136.1,9.31 -203.8,17.23 -5.8,0.68 -11.6,1.4 -17.5,2.16 -4.1,0.54 -7.6,-3.92 -7.6,-7.68 -0.1,-4.6 3.5,-7.15 7.6,-7.69"
       style="fill:#ffffff;fill-opacity:1;fill-rule:nonzero;stroke:none"
       transform="matrix(0.03527778,0,0,-0.03527778,-877.28071,387.17183)"
       clip-path="url(#clipPath2393)" />
    <path
       id="path2394"
       d="m 27341.1,6617.65 c 144.8,-1.52 289.6,-3.05 434.4,-4.57 144.6,-1.52 289.2,-2.63 433.8,-5.58 81.7,-1.66 163.4,-3.98 245,-7.44 9.9,-0.41 9.9,14.95 0,15.37 -144.6,6.12 -289.3,8.65 -434,10.38 -144.5,1.73 -289.1,3.1 -433.6,4.62 -81.9,0.87 -163.8,1.73 -245.6,2.59 -9.9,0.11 -9.9,-15.26 0,-15.37"
       style="fill:#ffffff;fill-opacity:1;fill-rule:nonzero;stroke:none"
       transform="matrix(0.03527778,0,0,-0.03527778,-877.28071,387.17183)"
       clip-path="url(#clipPath2395)" />
    <path
       id="path2396"
       d="m 27301.5,6515.46 c 78.3,14.92 158.4,12.16 237.7,10.51 78.7,-1.64 157.4,-1.02 236.1,1.1 152.4,4.09 304.5,13.4 456.9,16.89 88.2,2.03 176.5,2.03 264.7,-1.39 9.9,-0.39 9.9,14.98 0,15.36 -155.9,6.06 -311.9,0.91 -467.7,-5.73 -155.3,-6.63 -310.7,-13.82 -466.2,-11.31 -88.7,1.43 -178,6.08 -265.6,-10.61 -9.7,-1.85 -5.6,-16.67 4.1,-14.82"
       style="fill:#ffffff;fill-opacity:1;fill-rule:nonzero;stroke:none"
       transform="matrix(0.03527778,0,0,-0.03527778,-877.28071,387.17183)"
       clip-path="url(#clipPath2397)" />
    <path
       id="path2398"
       d="m 27318.4,6419.05 c 156.8,-2.87 313.6,-5.17 470.4,-6.92 156.9,-1.75 313.7,-2.93 470.5,-3.56 87.8,-0.35 175.6,-0.52 263.4,-0.52 9.9,0 9.9,15.37 0,15.37 -156.8,0 -313.6,0.55 -470.5,1.67 -156.8,1.12 -313.7,2.8 -470.5,5.04 -87.8,1.25 -175.5,2.68 -263.3,4.29 -9.9,0.18 -9.9,-15.19 0,-15.37"
       style="fill:#ffffff;fill-opacity:1;fill-rule:nonzero;stroke:none"
       transform="matrix(0.03527778,0,0,-0.03527778,-877.28071,387.17183)"
       clip-path="url(#clipPath2399)" />
    <path
       id="path2400"
       d="m 27396.1,6340.72 c 151.4,-22.11 304.5,-24.18 457.1,-29.26 76.3,-2.53 152.5,-6.29 228.6,-12.93 76.6,-6.69 152.8,-12.2 229.8,-9.82 86.9,2.68 173.4,12.06 259.9,21.44 9.7,1.06 9.8,16.44 0,15.37 -76.8,-8.33 -153.6,-16.66 -230.7,-20.3 -77,-3.64 -153.4,-0.55 -230.2,6.14 -75.2,6.56 -150.5,11.58 -226,14.37 -76.2,2.82 -152.5,4.41 -228.8,7.75 -85.4,3.75 -170.9,9.69 -255.6,22.05 -9.7,1.42 -13.8,-13.39 -4.1,-14.81"
       style="fill:#ffffff;fill-opacity:1;fill-rule:nonzero;stroke:none"
       transform="matrix(0.03527778,0,0,-0.03527778,-877.28071,387.17183)"
       clip-path="url(#clipPath2401)" />
    <path
       id="path2402"
       d="m 27660,6856.8 c -3,-99.35 -6,-181.99 -9,-281.34 26.4,3.89 122.7,7.32 144.2,6.96 127.2,-2.15 254.5,-4.3 381.7,-6.44 -7.7,-3.27 25.8,286.45 24.4,284.32 24,-9.01 80.3,-30.25 82.9,-33.75 3.1,-4.2 -10.4,-534.3 1.9,-701.53 -50.3,6.91 -638.1,23.29 -728.5,20.73 -13.3,167.74 2.8,518.49 18.3,686.04 l 84.1,25.01"
       style="fill:#db740e;fill-opacity:1;fill-rule:nonzero;stroke:none"
       transform="matrix(0.03527778,0,0,-0.03527778,-877.28071,387.17183)"
       clip-path="url(#clipPath2403)" />
    <path
       id="path2404"
       d="m 27645.5,6533.71 c 0,-15.38 -12.5,-27.85 -27.8,-27.85 -15.4,0 -27.9,12.47 -27.9,27.85 0,15.39 12.5,27.86 27.9,27.86 15.3,0 27.8,-12.47 27.8,-27.86"
       style="fill:#9e520d;fill-opacity:1;fill-rule:nonzero;stroke:none"
       transform="matrix(0.03527778,0,0,-0.03527778,-877.28071,387.17183)"
       clip-path="url(#clipPath2405)" />
    <path
       id="path2406"
       d="m 28247.2,6533.71 c 0,-15.38 -12.4,-27.85 -27.8,-27.85 -15.4,0 -27.9,12.47 -27.9,27.85 0,15.39 12.5,27.86 27.9,27.86 15.4,0 27.8,-12.47 27.8,-27.86"
       style="fill:#9e520d;fill-opacity:1;fill-rule:nonzero;stroke:none"
       transform="matrix(0.03527778,0,0,-0.03527778,-877.28071,387.17183)"
       clip-path="url(#clipPath2407)" />
    <path
       id="path2408"
       d="m 27688.2,6536.46 c 119,0 238,0 357,0 34,0 68,0 102,0 9.9,0 9.9,15.37 0,15.37 -119,0 -238,0 -357,0 -34,0 -68,0 -102,0 -9.9,0 -9.9,-15.37 0,-15.37"
       style="fill:#9e520d;fill-opacity:1;fill-rule:nonzero;stroke:none"
       transform="matrix(0.03527778,0,0,-0.03527778,-877.28071,387.17183)"
       clip-path="url(#clipPath2409)" />
    <path
       id="path2410"
       d="m 27910.2,6241.21 c 164.3,-11.19 207.9,155.69 202.8,201.85 -138.3,7 -276.8,11.4 -415.4,13.18 0,0 -41.5,-197.73 212.6,-215.03"
       style="fill:#9e520d;fill-opacity:1;fill-rule:nonzero;stroke:none"
       transform="matrix(0.03527778,0,0,-0.03527778,-877.28071,387.17183)"
       clip-path="url(#clipPath2411)" />
    <path
       id="path2412"
       d="m 28332,7484.87 c 34.4,47.81 105.4,51.28 156.2,31.93 51.5,-19.62 91.7,-67.81 83.8,-125.09 -3.9,-28.24 -19,-54.78 -44.3,-68.87 -5.8,-3.24 -4.5,-12.3 1.8,-14.04 52.4,-14.53 83.2,-69.36 91.9,-119.86 4.9,-28.51 2.4,-59.42 -13.2,-84.4 -15.1,-24.08 -40.2,-39.74 -65.7,-50.86 -33.7,-14.71 -70.6,-23.47 -107.1,-27.2 -9.7,-1 -9.8,-16.37 0,-15.37 36.5,3.73 72.6,11.97 106.5,25.8 28.1,11.44 55.3,27.19 73.9,51.78 38.5,50.88 24.9,126.64 -7.8,176.91 -17.6,27.08 -42.8,49.26 -74.4,58.02 0.6,-4.68 1.2,-9.36 1.8,-14.05 52.3,29.13 66.1,101.21 39.6,152.23 -30.1,57.87 -101.7,87.73 -164.7,80.37 -35.9,-4.19 -70.1,-19.68 -91.6,-49.55 -5.8,-8.03 7.5,-15.71 13.3,-7.75"
       style="fill:#262b44;fill-opacity:1;fill-rule:nonzero;stroke:none"
       transform="matrix(0.03527778,0,0,-0.03527778,-877.28071,387.17183)"
       clip-path="url(#clipPath2413)" />
    <path
       id="path2414"
       d="m 27589.5,7641.62 c -48.5,-4.07 -90.5,-36.99 -112.1,-79.84 -23.7,-47.14 -27.2,-106.78 -13.7,-157.51 6.7,-25.01 19.7,-48.76 42.3,-62.55 2.6,4.42 5.2,8.85 7.8,13.27 -75.4,41.59 -164.9,17.82 -232.5,-27.6 -16.7,-11.23 -33,-23.67 -45.5,-39.61 -11.9,-15.22 -19.7,-33.17 -23.6,-52.06 -7.8,-37.92 -2.7,-78.53 8,-115.4 12.2,-41.97 34,-81.37 66,-111.38 7.2,-6.75 18.1,4.09 10.9,10.87 -26.3,24.62 -45.4,55.84 -57.3,89.74 -11.8,33.47 -18.3,70.13 -15.2,105.63 1.6,17.76 6.2,35.53 15.1,51.07 9.4,16.38 23.4,29.32 38.6,40.34 31,22.6 65.8,40.83 103.4,49.55 41.5,9.66 86.6,6.41 124.3,-14.42 8.7,-4.78 16.2,8.12 7.8,13.27 -37.7,22.94 -42.9,77.28 -42,116.97 1.1,47.13 16.6,94.57 53.1,126.06 18.1,15.58 40.7,26.23 64.6,28.24 9.8,0.82 9.9,16.19 0,15.36"
       style="fill:#262b44;fill-opacity:1;fill-rule:nonzero;stroke:none"
       transform="matrix(0.03527778,0,0,-0.03527778,-877.28071,387.17183)"
       clip-path="url(#clipPath2415)" />
    <path
       id="path2416"
       d="m 27675.1,6856.22 c 41.1,-62.31 108,-104.48 180.6,-119.91 76.6,-16.26 156.2,-1.3 224.6,35.7 39.1,21.19 74.5,49.4 104.2,82.53 6.6,7.34 -4.2,18.24 -10.9,10.86 -50.3,-56.06 -117.1,-97.61 -191,-113.62 -70.6,-15.27 -145.4,-4.3 -208,31.92 -34.4,19.88 -64.3,47.08 -86.2,80.27 -5.5,8.22 -18.8,0.53 -13.3,-7.75"
       style="fill:#262b44;fill-opacity:1;fill-rule:nonzero;stroke:none"
       transform="matrix(0.03527778,0,0,-0.03527778,-877.28071,387.17183)"
       clip-path="url(#clipPath2417)" />
    <path
       id="path2418"
       d="m 28300,6623.79 c 2.4,-93.97 4.7,-187.94 7.1,-281.92 0.7,-26.78 1.3,-53.57 2,-80.36 0.3,-9.87 15.6,-9.91 15.4,0 -2.4,93.97 -4.7,187.94 -7.1,281.91 -0.6,26.79 -1.3,53.58 -2,80.37 -0.2,9.87 -15.6,9.91 -15.4,0"
       style="fill:#262b44;fill-opacity:1;fill-rule:nonzero;stroke:none"
       transform="matrix(0.03527778,0,0,-0.03527778,-877.28071,387.17183)"
       clip-path="url(#clipPath2419)" />
    <path
       id="path2420"
       d="m 28337.7,6614.21 c -9.7,-24.56 -19.5,-49.12 -29.2,-73.68 -1.5,-3.86 1.7,-8.44 5.4,-9.45 4.3,-1.2 7.9,1.49 9.4,5.37 9.7,24.56 19.5,49.12 29.2,73.68 1.5,3.86 -1.7,8.44 -5.4,9.45 -4.3,1.2 -7.9,-1.49 -9.4,-5.37"
       style="fill:#262b44;fill-opacity:1;fill-rule:nonzero;stroke:none"
       transform="matrix(0.03527778,0,0,-0.03527778,-877.28071,387.17183)"
       clip-path="url(#clipPath2421)" />
    <path
       id="path2422"
       d="m 27494.6,6648.51 c -2.7,-103.43 -5.5,-206.87 -8.2,-310.31 -0.8,-29.37 -1.6,-58.74 -2.4,-88.11 -0.2,-9.9 15.2,-9.89 15.4,0 2.8,103.43 5.5,206.87 8.2,310.31 0.8,29.37 1.6,58.74 2.4,88.11 0.2,9.9 -15.1,9.89 -15.4,0"
       style="fill:#262b44;fill-opacity:1;fill-rule:nonzero;stroke:none"
       transform="matrix(0.03527778,0,0,-0.03527778,-877.28071,387.17183)"
       clip-path="url(#clipPath2423)" />
    <path
       id="path2424"
       d="m 27462.9,6606.68 c 7.2,-19.6 17.8,-37.54 31.6,-53.21 2.8,-3.12 8.1,-2.81 10.9,0 3.1,3.09 2.7,7.74 0,10.86 -6.1,6.88 -11.1,13.75 -16,21.97 -4.8,8.1 -8.6,16.19 -11.7,24.46 -1.4,3.9 -5.2,6.53 -9.4,5.37 -3.8,-1.03 -6.8,-5.54 -5.4,-9.45"
       style="fill:#262b44;fill-opacity:1;fill-rule:nonzero;stroke:none"
       transform="matrix(0.03527778,0,0,-0.03527778,-877.28071,387.17183)"
       clip-path="url(#clipPath2425)" />
  </g>
</svg>
