<?xml version="1.0" encoding="UTF-8" standalone="no"?>
<!-- Created with Inkscape (http://www.inkscape.org/) -->

<svg
   width="64.332558mm"
   height="64.332199mm"
   viewBox="0 0 64.332558 64.332199"
   version="1.1"
   id="svg1"
   inkscape:version="1.3.2 (091e20e, 2023-11-25)"
   sodipodi:docname="mustache-ginger-guy-avatar.svg"
   xmlns:inkscape="http://www.inkscape.org/namespaces/inkscape"
   xmlns:sodipodi="http://sodipodi.sourceforge.net/DTD/sodipodi-0.dtd"
   xmlns="http://www.w3.org/2000/svg"
   xmlns:svg="http://www.w3.org/2000/svg">
  <sodipodi:namedview
     id="namedview1"
     pagecolor="#ffffff"
     bordercolor="#000000"
     borderopacity="0.25"
     inkscape:showpageshadow="2"
     inkscape:pageopacity="0.0"
     inkscape:pagecheckerboard="0"
     inkscape:deskcolor="#d1d1d1"
     inkscape:document-units="mm"
     inkscape:zoom="0.62313529"
     inkscape:cx="458.16696"
     inkscape:cy="199.7961"
     inkscape:window-width="1920"
     inkscape:window-height="1052"
     inkscape:window-x="0"
     inkscape:window-y="28"
     inkscape:window-maximized="0"
     inkscape:current-layer="layer1" />
  <defs
     id="defs1">
    <clipPath
       clipPathUnits="userSpaceOnUse"
       id="clipPath2005">
      <path
         d="m 30983.4,2934.46 c 0,-503.56 -408.3,-911.79 -911.8,-911.79 -503.6,0 -911.8,408.23 -911.8,911.79 0,503.58 408.2,911.8 911.8,911.8 503.5,0 911.8,-408.22 911.8,-911.8"
         transform="translate(0,-2.5e-4)"
         id="path2005" />
    </clipPath>
    <clipPath
       clipPathUnits="userSpaceOnUse"
       id="clipPath2007">
      <path
         d="m 30983.4,2934.46 c 0,-503.56 -408.3,-911.79 -911.8,-911.79 -503.6,0 -911.8,408.23 -911.8,911.79 0,503.58 408.2,911.8 911.8,911.8 503.5,0 911.8,-408.22 911.8,-911.8"
         transform="translate(0,-2.5e-4)"
         id="path2007" />
    </clipPath>
    <clipPath
       clipPathUnits="userSpaceOnUse"
       id="clipPath2008">
      <path
         d="m 30521.5,2266.53 c -84.8,56.72 -187.1,79.45 -287.1,99.53 -6.1,1.22 -12.4,2.55 -17.3,6.38 -8.4,6.55 10.6,227.33 0,323.86 l -142.7,-13.35 -142.7,13.35 c -10.6,-96.53 8.4,-317.31 0,-323.86 -4.9,-3.83 -11.2,-5.16 -17.3,-6.38 -100,-20.08 -202.3,-42.81 -287.1,-99.53 -84.7,-56.74 -148.8,-155.68 -135.2,-256.72 85,0.44 322.5,-1.1 563,-4.26 v -0.53 c 6.4,0.09 12.9,0.18 19.3,0.27 6.4,-0.09 12.9,-0.18 19.3,-0.27 v 0.53 c 240.5,3.16 478,4.7 563,4.26 13.6,101.04 -50.5,199.98 -135.2,256.72"
         transform="translate(0,-2.5e-4)"
         id="path2008" />
    </clipPath>
    <clipPath
       clipPathUnits="userSpaceOnUse"
       id="clipPath2011">
      <path
         d="m 30983.4,2934.46 c 0,-503.56 -408.3,-911.79 -911.8,-911.79 -503.6,0 -911.8,408.23 -911.8,911.79 0,503.58 408.2,911.8 911.8,911.8 503.5,0 911.8,-408.22 911.8,-911.8"
         transform="translate(0,-2.5e-4)"
         id="path2011" />
    </clipPath>
    <clipPath
       clipPathUnits="userSpaceOnUse"
       id="clipPath2013">
      <path
         d="m 30983.4,2934.46 c 0,-503.56 -408.3,-911.79 -911.8,-911.79 -503.6,0 -911.8,408.23 -911.8,911.79 0,503.58 408.2,911.8 911.8,911.8 503.5,0 911.8,-408.22 911.8,-911.8"
         transform="translate(0,-2.5e-4)"
         id="path2013" />
    </clipPath>
    <clipPath
       clipPathUnits="userSpaceOnUse"
       id="clipPath2015">
      <path
         d="m 30983.4,2934.46 c 0,-503.56 -408.3,-911.79 -911.8,-911.79 -503.6,0 -911.8,408.23 -911.8,911.79 0,503.58 408.2,911.8 911.8,911.8 503.5,0 911.8,-408.22 911.8,-911.8"
         transform="translate(0,-2.5e-4)"
         id="path2015" />
    </clipPath>
    <clipPath
       clipPathUnits="userSpaceOnUse"
       id="clipPath2017">
      <path
         d="m 30983.4,2934.46 c 0,-503.56 -408.3,-911.79 -911.8,-911.79 -503.6,0 -911.8,408.23 -911.8,911.79 0,503.58 408.2,911.8 911.8,911.8 503.5,0 911.8,-408.22 911.8,-911.8"
         transform="translate(0,-2.5e-4)"
         id="path2017" />
    </clipPath>
    <clipPath
       clipPathUnits="userSpaceOnUse"
       id="clipPath2019">
      <path
         d="m 30983.4,2934.46 c 0,-503.56 -408.3,-911.79 -911.8,-911.79 -503.6,0 -911.8,408.23 -911.8,911.79 0,503.58 408.2,911.8 911.8,911.8 503.5,0 911.8,-408.22 911.8,-911.8"
         transform="translate(0,-2.5e-4)"
         id="path2019" />
    </clipPath>
    <clipPath
       clipPathUnits="userSpaceOnUse"
       id="clipPath2021">
      <path
         d="m 30983.4,2934.46 c 0,-503.56 -408.3,-911.79 -911.8,-911.79 -503.6,0 -911.8,408.23 -911.8,911.79 0,503.58 408.2,911.8 911.8,911.8 503.5,0 911.8,-408.22 911.8,-911.8"
         transform="translate(0,-2.5e-4)"
         id="path2021" />
    </clipPath>
    <clipPath
       clipPathUnits="userSpaceOnUse"
       id="clipPath2023">
      <path
         d="m 30983.4,2934.46 c 0,-503.56 -408.3,-911.79 -911.8,-911.79 -503.6,0 -911.8,408.23 -911.8,911.79 0,503.58 408.2,911.8 911.8,911.8 503.5,0 911.8,-408.22 911.8,-911.8"
         transform="translate(0,-2.5e-4)"
         id="path2023" />
    </clipPath>
    <clipPath
       clipPathUnits="userSpaceOnUse"
       id="clipPath2025">
      <path
         d="m 30983.4,2934.46 c 0,-503.56 -408.3,-911.79 -911.8,-911.79 -503.6,0 -911.8,408.23 -911.8,911.79 0,503.58 408.2,911.8 911.8,911.8 503.5,0 911.8,-408.22 911.8,-911.8"
         transform="translate(0,-2.5e-4)"
         id="path2025" />
    </clipPath>
    <clipPath
       clipPathUnits="userSpaceOnUse"
       id="clipPath2027">
      <path
         d="m 30983.4,2934.46 c 0,-503.56 -408.3,-911.79 -911.8,-911.79 -503.6,0 -911.8,408.23 -911.8,911.79 0,503.58 408.2,911.8 911.8,911.8 503.5,0 911.8,-408.22 911.8,-911.8"
         transform="translate(0,-2.5e-4)"
         id="path2027" />
    </clipPath>
    <clipPath
       clipPathUnits="userSpaceOnUse"
       id="clipPath2029">
      <path
         d="m 30983.4,2934.46 c 0,-503.56 -408.3,-911.79 -911.8,-911.79 -503.6,0 -911.8,408.23 -911.8,911.79 0,503.58 408.2,911.8 911.8,911.8 503.5,0 911.8,-408.22 911.8,-911.8"
         transform="translate(0,-2.5e-4)"
         id="path2029" />
    </clipPath>
    <clipPath
       clipPathUnits="userSpaceOnUse"
       id="clipPath2031">
      <path
         d="m 30983.4,2934.46 c 0,-503.56 -408.3,-911.79 -911.8,-911.79 -503.6,0 -911.8,408.23 -911.8,911.79 0,503.58 408.2,911.8 911.8,911.8 503.5,0 911.8,-408.22 911.8,-911.8"
         transform="translate(0,-2.5e-4)"
         id="path2031" />
    </clipPath>
    <clipPath
       clipPathUnits="userSpaceOnUse"
       id="clipPath2033">
      <path
         d="m 30983.4,2934.46 c 0,-503.56 -408.3,-911.79 -911.8,-911.79 -503.6,0 -911.8,408.23 -911.8,911.79 0,503.58 408.2,911.8 911.8,911.8 503.5,0 911.8,-408.22 911.8,-911.8"
         transform="translate(0,-2.5e-4)"
         id="path2033" />
    </clipPath>
    <clipPath
       clipPathUnits="userSpaceOnUse"
       id="clipPath2035">
      <path
         d="m 30983.4,2934.46 c 0,-503.56 -408.3,-911.79 -911.8,-911.79 -503.6,0 -911.8,408.23 -911.8,911.79 0,503.58 408.2,911.8 911.8,911.8 503.5,0 911.8,-408.22 911.8,-911.8"
         transform="translate(0,-2.5e-4)"
         id="path2035" />
    </clipPath>
    <clipPath
       clipPathUnits="userSpaceOnUse"
       id="clipPath2037">
      <path
         d="m 30983.4,2934.46 c 0,-503.56 -408.3,-911.79 -911.8,-911.79 -503.6,0 -911.8,408.23 -911.8,911.79 0,503.58 408.2,911.8 911.8,911.8 503.5,0 911.8,-408.22 911.8,-911.8"
         transform="translate(0,-2.5e-4)"
         id="path2037" />
    </clipPath>
    <clipPath
       clipPathUnits="userSpaceOnUse"
       id="clipPath2039">
      <path
         d="m 30983.4,2934.46 c 0,-503.56 -408.3,-911.79 -911.8,-911.79 -503.6,0 -911.8,408.23 -911.8,911.79 0,503.58 408.2,911.8 911.8,911.8 503.5,0 911.8,-408.22 911.8,-911.8"
         transform="translate(0,-2.5e-4)"
         id="path2039" />
    </clipPath>
    <clipPath
       clipPathUnits="userSpaceOnUse"
       id="clipPath2041">
      <path
         d="m 30983.4,2934.46 c 0,-503.56 -408.3,-911.79 -911.8,-911.79 -503.6,0 -911.8,408.23 -911.8,911.79 0,503.58 408.2,911.8 911.8,911.8 503.5,0 911.8,-408.22 911.8,-911.8"
         transform="translate(0,-2.5e-4)"
         id="path2041" />
    </clipPath>
    <clipPath
       clipPathUnits="userSpaceOnUse"
       id="clipPath2043">
      <path
         d="m 30983.4,2934.46 c 0,-503.56 -408.3,-911.79 -911.8,-911.79 -503.6,0 -911.8,408.23 -911.8,911.79 0,503.58 408.2,911.8 911.8,911.8 503.5,0 911.8,-408.22 911.8,-911.8"
         transform="translate(0,-2.5e-4)"
         id="path2043" />
    </clipPath>
    <clipPath
       clipPathUnits="userSpaceOnUse"
       id="clipPath2045">
      <path
         d="m 30983.4,2934.46 c 0,-503.56 -408.3,-911.79 -911.8,-911.79 -503.6,0 -911.8,408.23 -911.8,911.79 0,503.58 408.2,911.8 911.8,911.8 503.5,0 911.8,-408.22 911.8,-911.8"
         transform="translate(0,-2.5e-4)"
         id="path2045" />
    </clipPath>
    <clipPath
       clipPathUnits="userSpaceOnUse"
       id="clipPath2047">
      <path
         d="m 30983.4,2934.46 c 0,-503.56 -408.3,-911.79 -911.8,-911.79 -503.6,0 -911.8,408.23 -911.8,911.79 0,503.58 408.2,911.8 911.8,911.8 503.5,0 911.8,-408.22 911.8,-911.8"
         transform="translate(0,-2.5e-4)"
         id="path2047" />
    </clipPath>
    <clipPath
       clipPathUnits="userSpaceOnUse"
       id="clipPath2049">
      <path
         d="m 30983.4,2934.46 c 0,-503.56 -408.3,-911.79 -911.8,-911.79 -503.6,0 -911.8,408.23 -911.8,911.79 0,503.58 408.2,911.8 911.8,911.8 503.5,0 911.8,-408.22 911.8,-911.8"
         transform="translate(0,-2.5e-4)"
         id="path2049" />
    </clipPath>
    <clipPath
       clipPathUnits="userSpaceOnUse"
       id="clipPath2051">
      <path
         d="m 30983.4,2934.46 c 0,-503.56 -408.3,-911.79 -911.8,-911.79 -503.6,0 -911.8,408.23 -911.8,911.79 0,503.58 408.2,911.8 911.8,911.8 503.5,0 911.8,-408.22 911.8,-911.8"
         transform="translate(0,-2.5e-4)"
         id="path2051" />
    </clipPath>
    <clipPath
       clipPathUnits="userSpaceOnUse"
       id="clipPath2053">
      <path
         d="m 30983.4,2934.46 c 0,-503.56 -408.3,-911.79 -911.8,-911.79 -503.6,0 -911.8,408.23 -911.8,911.79 0,503.58 408.2,911.8 911.8,911.8 503.5,0 911.8,-408.22 911.8,-911.8"
         transform="translate(0,-2.5e-4)"
         id="path2053" />
    </clipPath>
    <clipPath
       clipPathUnits="userSpaceOnUse"
       id="clipPath2055">
      <path
         d="m 30983.4,2934.46 c 0,-503.56 -408.3,-911.79 -911.8,-911.79 -503.6,0 -911.8,408.23 -911.8,911.79 0,503.58 408.2,911.8 911.8,911.8 503.5,0 911.8,-408.22 911.8,-911.8"
         transform="translate(0,-2.5e-4)"
         id="path2055" />
    </clipPath>
    <clipPath
       clipPathUnits="userSpaceOnUse"
       id="clipPath2057">
      <path
         d="m 30983.4,2934.46 c 0,-503.56 -408.3,-911.79 -911.8,-911.79 -503.6,0 -911.8,408.23 -911.8,911.79 0,503.58 408.2,911.8 911.8,911.8 503.5,0 911.8,-408.22 911.8,-911.8"
         transform="translate(0,-2.5e-4)"
         id="path2057" />
    </clipPath>
    <clipPath
       clipPathUnits="userSpaceOnUse"
       id="clipPath2059">
      <path
         d="m 30983.4,2934.46 c 0,-503.56 -408.3,-911.79 -911.8,-911.79 -503.6,0 -911.8,408.23 -911.8,911.79 0,503.58 408.2,911.8 911.8,911.8 503.5,0 911.8,-408.22 911.8,-911.8"
         transform="translate(0,-2.5e-4)"
         id="path2059" />
    </clipPath>
    <clipPath
       clipPathUnits="userSpaceOnUse"
       id="clipPath2061">
      <path
         d="m 30983.4,2934.46 c 0,-503.56 -408.3,-911.79 -911.8,-911.79 -503.6,0 -911.8,408.23 -911.8,911.79 0,503.58 408.2,911.8 911.8,911.8 503.5,0 911.8,-408.22 911.8,-911.8"
         transform="translate(0,-2.5e-4)"
         id="path2061" />
    </clipPath>
    <clipPath
       clipPathUnits="userSpaceOnUse"
       id="clipPath2063">
      <path
         d="m 30983.4,2934.46 c 0,-503.56 -408.3,-911.79 -911.8,-911.79 -503.6,0 -911.8,408.23 -911.8,911.79 0,503.58 408.2,911.8 911.8,911.8 503.5,0 911.8,-408.22 911.8,-911.8"
         transform="translate(0,-2.5e-4)"
         id="path2063" />
    </clipPath>
    <clipPath
       clipPathUnits="userSpaceOnUse"
       id="clipPath2065">
      <path
         d="m 30983.4,2934.46 c 0,-503.56 -408.3,-911.79 -911.8,-911.79 -503.6,0 -911.8,408.23 -911.8,911.79 0,503.58 408.2,911.8 911.8,911.8 503.5,0 911.8,-408.22 911.8,-911.8"
         transform="translate(0,-2.5e-4)"
         id="path2065" />
    </clipPath>
    <clipPath
       clipPathUnits="userSpaceOnUse"
       id="clipPath2067">
      <path
         d="m 30983.4,2934.46 c 0,-503.56 -408.3,-911.79 -911.8,-911.79 -503.6,0 -911.8,408.23 -911.8,911.79 0,503.58 408.2,911.8 911.8,911.8 503.5,0 911.8,-408.22 911.8,-911.8"
         transform="translate(0,-2.5e-4)"
         id="path2067" />
    </clipPath>
    <clipPath
       clipPathUnits="userSpaceOnUse"
       id="clipPath2069">
      <path
         d="m 30983.4,2934.46 c 0,-503.56 -408.3,-911.79 -911.8,-911.79 -503.6,0 -911.8,408.23 -911.8,911.79 0,503.58 408.2,911.8 911.8,911.8 503.5,0 911.8,-408.22 911.8,-911.8"
         transform="translate(0,-2.5e-4)"
         id="path2069" />
    </clipPath>
    <clipPath
       clipPathUnits="userSpaceOnUse"
       id="clipPath2071">
      <path
         d="m 30983.4,2934.46 c 0,-503.56 -408.3,-911.79 -911.8,-911.79 -503.6,0 -911.8,408.23 -911.8,911.79 0,503.58 408.2,911.8 911.8,911.8 503.5,0 911.8,-408.22 911.8,-911.8"
         transform="translate(0,-2.5e-4)"
         id="path2071" />
    </clipPath>
    <clipPath
       clipPathUnits="userSpaceOnUse"
       id="clipPath2073">
      <path
         d="m 30983.4,2934.46 c 0,-503.56 -408.3,-911.79 -911.8,-911.79 -503.6,0 -911.8,408.23 -911.8,911.79 0,503.58 408.2,911.8 911.8,911.8 503.5,0 911.8,-408.22 911.8,-911.8"
         transform="translate(0,-2.5e-4)"
         id="path2073" />
    </clipPath>
    <clipPath
       clipPathUnits="userSpaceOnUse"
       id="clipPath2075">
      <path
         d="m 30983.4,2934.46 c 0,-503.56 -408.3,-911.79 -911.8,-911.79 -503.6,0 -911.8,408.23 -911.8,911.79 0,503.58 408.2,911.8 911.8,911.8 503.5,0 911.8,-408.22 911.8,-911.8"
         transform="translate(0,-2.5e-4)"
         id="path2075" />
    </clipPath>
    <clipPath
       clipPathUnits="userSpaceOnUse"
       id="clipPath2077">
      <path
         d="m 30983.4,2934.46 c 0,-503.56 -408.3,-911.79 -911.8,-911.79 -503.6,0 -911.8,408.23 -911.8,911.79 0,503.58 408.2,911.8 911.8,911.8 503.5,0 911.8,-408.22 911.8,-911.8"
         transform="translate(0,-2.5e-4)"
         id="path2077" />
    </clipPath>
  </defs>
  <g
     inkscape:label="Layer 1"
     inkscape:groupmode="layer"
     id="layer1"
     transform="translate(-69.850109,-110.06665)">
    <path
       id="path2004"
       d="m 30983.4,2022.67 h -1823.6 v 1823.59 h 1823.6 V 2022.67"
       style="fill:#a59eff;fill-opacity:1;fill-rule:nonzero;stroke:none"
       transform="matrix(0.03527778,0,0,-0.03527778,-958.8429,245.75416)"
       clip-path="url(#clipPath2005)" />
    <path
       id="path2006"
       d="m 30521.5,2266.53 c -84.8,56.73 -187.1,79.45 -287.1,99.52 -6.1,1.23 -12.4,2.56 -17.3,6.39 -8.4,6.55 10.6,227.33 0,323.86 l -142.7,-13.36 -142.7,13.36 c -10.6,-96.53 8.4,-317.31 0,-323.86 -4.9,-3.83 -11.2,-5.16 -17.3,-6.39 -100,-20.07 -202.3,-42.79 -287.1,-99.52 -84.7,-56.73 -148.8,-155.68 -135.2,-256.72 85,0.44 322.5,-1.1 563,-4.26 v -0.53 c 6.4,0.09 12.9,0.18 19.3,0.27 6.4,-0.09 12.9,-0.18 19.3,-0.27 v 0.53 c 240.5,3.16 478,4.7 563,4.26 13.6,101.04 -50.5,199.99 -135.2,256.72"
       style="fill:#fbd1b9;fill-opacity:1;fill-rule:nonzero;stroke:none"
       transform="matrix(0.03527778,0,0,-0.03527778,-958.8429,245.75416)"
       clip-path="url(#clipPath2007)" />
    <g
       id="g2009"
       transform="matrix(0.26458333,0,0,0.26458333,-958.8429,-112.75977)">
      <path
         d="m 29741.8,2699.41 c 56.3,36.24 58.7,53.63 61.4,36.24 13.3,-85.44 148.3,-291.26 271.1,-291.26 158.9,0 251.1,268.24 266,335.84 -183.6,-26.25 -369.7,-52.54 -553.9,-30.45 5.1,-4.77 10.1,-9.54 15.2,-14.32 l -59.8,-36.05"
         style="fill:#dba78a;fill-opacity:1;fill-rule:nonzero;stroke:none"
         transform="matrix(0.13333333,0,0,-0.13333333,0,1355.0133)"
         clip-path="url(#clipPath2008)"
         id="path2009" />
    </g>
    <path
       id="path2010"
       d="m 29862.7,3167.72 c -32.8,-110.78 -24.7,-304.89 0,-417.75 l 0.4,-1.82 c 13.4,-60.58 34.8,-121.07 75.1,-168.22 40.3,-47.15 102.4,-79.04 163.9,-70.67 59.4,8.09 109.3,52.25 138.3,104.77 29,52.53 40.2,112.87 48.3,172.33 14.1,103.52 10.4,378.47 0.5,379.31 -128.1,10.84 -301.9,37.06 -426.5,5.64 v -3.59"
       style="fill:#fbd1b9;fill-opacity:1;fill-rule:nonzero;stroke:none"
       transform="matrix(0.03527778,0,0,-0.03527778,-958.8429,245.75416)"
       clip-path="url(#clipPath2011)" />
    <path
       id="path2012"
       d="m 30283.6,2829.24 c 3.1,22.8 30.6,37.05 52.6,30.37 22,-6.69 36.6,-29.56 38.2,-52.51 1.6,-22.96 -7.7,-45.54 -20.8,-64.42 -22,-31.48 -60.6,-55.91 -97.8,-46.18 5.9,47.21 14.4,94.09 25.4,140.38 l 2.4,-7.64"
       style="fill:#fbd1b9;fill-opacity:1;fill-rule:nonzero;stroke:none"
       transform="matrix(0.03527778,0,0,-0.03527778,-958.8429,245.75416)"
       clip-path="url(#clipPath2013)" />
    <path
       id="path2014"
       d="m 29866.1,2829.24 c -3.1,22.8 -30.6,37.05 -52.6,30.37 -22,-6.69 -36.6,-29.56 -38.2,-52.51 -1.7,-22.96 7.7,-45.54 20.8,-64.42 22,-31.48 60.6,-55.91 97.7,-46.18 -5.9,47.21 -14.3,94.09 -25.3,140.38 l -2.4,-7.64"
       style="fill:#fbd1b9;fill-opacity:1;fill-rule:nonzero;stroke:none"
       transform="matrix(0.03527778,0,0,-0.03527778,-958.8429,245.75416)"
       clip-path="url(#clipPath2015)" />
    <path
       id="path2016"
       d="m 29960,2879.85 c 0,-14.41 -11.5,-26.1 -25.6,-26.1 -14.1,0 -25.5,11.69 -25.5,26.1 0,14.42 11.4,26.1 25.5,26.1 14.1,0 25.6,-11.68 25.6,-26.1"
       style="fill:#1a1a1a;fill-opacity:1;fill-rule:nonzero;stroke:none"
       transform="matrix(0.03527778,0,0,-0.03527778,-958.8429,245.75416)"
       clip-path="url(#clipPath2017)" />
    <path
       id="path2018"
       d="m 30220.3,2879.85 c 0,-14.41 -11.4,-26.1 -25.5,-26.1 -14.1,0 -25.5,11.69 -25.5,26.1 0,14.42 11.4,26.1 25.5,26.1 14.1,0 25.5,-11.68 25.5,-26.1"
       style="fill:#1a1a1a;fill-opacity:1;fill-rule:nonzero;stroke:none"
       transform="matrix(0.03527778,0,0,-0.03527778,-958.8429,245.75416)"
       clip-path="url(#clipPath2019)" />
    <path
       id="path2020"
       d="m 30294.3,2848.51 c -9.5,46.02 -26.5,93.08 -36.1,139.09 -1.7,8.37 -3.6,17.06 -8.8,23.82 -9.4,12.15 -26.4,14.54 -41.4,17.55 -63.1,12.58 -120.2,53.04 -153,108.45 -12.5,21.21 -27.2,48.21 -55.2,40.25 -3.8,-1.1 -7.5,-2.89 -10.9,-5.03 -26.1,-16.47 -46.8,-39.88 -68.9,-59.24 -48.4,-42.4 -75.8,-103.83 -76,-168.17 -0.1,-29.5 0.2,-58.72 0.1,-86.49 -16,71.06 -38.9,152.39 -42,225.18 -1.6,37.07 -1.2,75.52 13.9,109.42 19.5,43.78 61.8,74.34 107.4,89.19 44.8,14.59 92.8,15.72 139.9,13.78 38.2,-1.58 76.3,-5.12 114.2,-10.22 57.2,-7.7 123.8,-18.82 158.5,-66.2 24.8,-33.76 -1.2,-288.54 -41.7,-371.38"
       style="fill:#db740e;fill-opacity:1;fill-rule:nonzero;stroke:none"
       transform="matrix(0.03527778,0,0,-0.03527778,-958.8429,245.75416)"
       clip-path="url(#clipPath2021)" />
    <path
       id="path2022"
       d="m 30062.8,2927.81 c 16.5,-57.04 27,-115.61 31.3,-174.84 3.8,2.21 7.7,4.42 11.5,6.63 -17.5,10.12 -35.1,20.24 -52.7,30.36 -8.5,4.94 -16.3,-8.32 -7.7,-13.25 17.6,-10.13 35.1,-20.25 52.7,-30.37 4.7,-2.74 12,0.68 11.5,6.63 -4.3,60.57 -14.9,120.57 -31.8,178.92 -2.7,9.47 -17.5,5.45 -14.8,-4.08"
       style="fill:#a46e4a;fill-opacity:1;fill-rule:nonzero;stroke:none"
       transform="matrix(0.03527778,0,0,-0.03527778,-958.8429,245.75416)"
       clip-path="url(#clipPath2023)" />
    <path
       id="path2024"
       d="m 30000.3,2661.59 c 52.5,-22.32 112.2,-21.52 164,2.45 9,4.14 1.2,17.37 -7.7,13.25 -46.3,-21.4 -101.6,-22.41 -148.6,-2.45 -3.8,1.63 -8.2,1.12 -10.5,-2.75 -1.9,-3.21 -1,-8.89 2.8,-10.5"
       style="fill:#a46e4a;fill-opacity:1;fill-rule:nonzero;stroke:none"
       transform="matrix(0.03527778,0,0,-0.03527778,-958.8429,245.75416)"
       clip-path="url(#clipPath2025)" />
    <path
       id="path2026"
       d="m 30014.2,2732.31 c -14.5,-12.42 -22.6,-30.69 -35.4,-44.83 -12.8,-14.13 -35.1,-23.77 -50.7,-12.87 21.8,-22.57 57.4,-30.67 86.8,-19.8 29.5,10.86 51.3,40.09 53.2,71.44 l -3.4,6.01 c -10.5,15.9 -36,12.47 -50.5,0.05"
       style="fill:#db740e;fill-opacity:1;fill-rule:nonzero;stroke:none"
       transform="matrix(0.03527778,0,0,-0.03527778,-958.8429,245.75416)"
       clip-path="url(#clipPath2027)" />
    <path
       id="path2028"
       d="m 30160.7,2687.48 c -12.8,14.14 -20.9,32.41 -35.4,44.83 -14.5,12.42 -40,15.85 -50.6,-0.05 l -3.4,-6.01 c 2,-31.35 23.8,-60.58 53.2,-71.44 29.5,-10.87 65,-2.77 86.9,19.8 -15.7,-10.9 -37.9,-1.26 -50.7,12.87"
       style="fill:#db740e;fill-opacity:1;fill-rule:nonzero;stroke:none"
       transform="matrix(0.03527778,0,0,-0.03527778,-958.8429,245.75416)"
       clip-path="url(#clipPath2029)" />
    <path
       id="path2030"
       d="m 29992.5,3001.84 c 0.6,-3.02 0.9,-6.13 1.1,-9.15 0.7,-9.2 -5.6,-17.52 -14.7,-19.03 -27.1,-4.49 -54.9,-4.04 -82.1,-7.87 -9.7,-1.36 -18.5,5.33 -20,14.97 l -0.1,0.36 c -1.6,9.54 4.9,18.54 14.4,20.29 l 80.6,14.84 c 9.7,1.79 19.2,-4.65 20.8,-14.41"
       style="fill:#db740e;fill-opacity:1;fill-rule:nonzero;stroke:none"
       transform="matrix(0.03527778,0,0,-0.03527778,-958.8429,245.75416)"
       clip-path="url(#clipPath2031)" />
    <path
       id="path2032"
       d="m 30157.2,2996.73 c -0.5,-3.02 -0.8,-6.14 -1,-9.15 -0.6,-9.21 5.3,-17.52 13.8,-19.03 25.1,-4.49 51,-4.05 76.3,-7.88 9,-1.36 17.2,5.33 18.7,14.97 v 0.36 c 1.5,9.54 -4.5,18.54 -13.4,20.29 l -75,14.84 c -9,1.8 -17.8,-4.64 -19.4,-14.4"
       style="fill:#db740e;fill-opacity:1;fill-rule:nonzero;stroke:none"
       transform="matrix(0.03527778,0,0,-0.03527778,-958.8429,245.75416)"
       clip-path="url(#clipPath2033)" />
    <path
       id="path2034"
       d="m 30297.7,2756.69 c 10.7,19.2 26,34.54 45.2,45.25 3.5,1.96 4.9,7.06 2.7,10.5 -2.3,3.55 -6.7,4.85 -10.5,2.75 -21.1,-11.81 -38.8,-29.58 -50.6,-50.75 -2,-3.51 -1,-8.53 2.7,-10.5 3.7,-1.91 8.5,-0.99 10.5,2.75"
       style="fill:#a46e4a;fill-opacity:1;fill-rule:nonzero;stroke:none"
       transform="matrix(0.03527778,0,0,-0.03527778,-958.8429,245.75416)"
       clip-path="url(#clipPath2035)" />
    <path
       id="path2036"
       d="m 30309,2778.38 c 2.9,-5.74 5.8,-11.48 8.7,-17.22 0.8,-1.66 2.8,-3.05 4.6,-3.53 1.8,-0.5 4.3,-0.27 5.9,0.78 1.6,1.05 3.1,2.63 3.5,4.58 0.5,2.09 0.2,4 -0.7,5.92 -2.9,5.74 -5.8,11.48 -8.7,17.22 -0.8,1.65 -2.9,3.04 -4.6,3.52 -1.8,0.51 -4.3,0.28 -5.9,-0.77 -1.6,-1.06 -3.1,-2.63 -3.5,-4.59 -0.5,-2.08 -0.2,-3.99 0.7,-5.91"
       style="fill:#a46e4a;fill-opacity:1;fill-rule:nonzero;stroke:none"
       transform="matrix(0.03527778,0,0,-0.03527778,-958.8429,245.75416)"
       clip-path="url(#clipPath2037)" />
    <path
       id="path2038"
       d="m 29805.5,2800.08 c 5.2,-2.58 10.2,-5.55 15,-8.92 2.7,-1.88 3.6,-2.52 6.1,-4.62 2.2,-1.88 4.4,-3.84 6.5,-5.89 8.5,-8.31 14.4,-16.4 20,-27.13 1.9,-3.67 7.1,-4.77 10.5,-2.75 3.8,2.18 4.7,6.81 2.8,10.5 -11.7,22.34 -30.6,40.91 -53.2,52.06 -3.7,1.84 -8.3,1 -10.5,-2.75 -2,-3.38 -1,-8.66 2.8,-10.5"
       style="fill:#a46e4a;fill-opacity:1;fill-rule:nonzero;stroke:none"
       transform="matrix(0.03527778,0,0,-0.03527778,-958.8429,245.75416)"
       clip-path="url(#clipPath2039)" />
    <path
       id="path2040"
       d="m 29815.8,2762.25 c 0.9,1 1.9,1.96 2.9,2.89 l 1.6,1.43 0.7,0.61 c 0.1,0.1 1.4,1.08 0.4,0.3 -1,-0.7 -0.1,-0.01 0.1,0.13 l 1,0.7 1.6,1.08 c 1.2,0.79 2.4,1.53 3.7,2.23 1.2,0.65 2.4,1.26 3.6,1.82 l 0.9,0.39 c 0.9,0.4 -1.8,-0.72 -0.3,-0.13 l 1.8,0.67 c 2.7,0.97 5.5,1.7 8.4,2.23 3.9,0.73 6.5,5.73 5.3,9.44 -1.4,4.23 -5.2,6.14 -9.4,5.35 -12.6,-2.32 -24.5,-8.95 -33.2,-18.28 -2.7,-2.94 -3.1,-7.99 0,-10.86 3,-2.73 8,-3.13 10.9,0"
       style="fill:#a46e4a;fill-opacity:1;fill-rule:nonzero;stroke:none"
       transform="matrix(0.03527778,0,0,-0.03527778,-958.8429,245.75416)"
       clip-path="url(#clipPath2041)" />
    <path
       id="path2042"
       d="m 30058.8,2618.6 c -1.6,-0.22 0.9,0.09 1.2,0.12 l 2.6,0.23 c 1.4,0.11 2.9,0.19 4.4,0.24 3.1,0.09 6.3,0.02 9.5,-0.2 1.4,-0.11 2.9,-0.26 4.3,-0.42 1,-0.11 1,-0.12 0.2,-0.01 l 1.1,-0.16 2.5,-0.42 c 3.1,-0.57 6.2,-1.31 9.3,-2.18 3.8,-1.1 8.5,1.35 9.4,5.36 0.9,4.09 -1.2,8.26 -5.4,9.44 -14.1,4.04 -28.7,4.77 -43.2,2.8 -4,-0.55 -6.5,-5.86 -5.3,-9.44 1.4,-4.39 5.1,-5.95 9.4,-5.36"
       style="fill:#a46e4a;fill-opacity:1;fill-rule:nonzero;stroke:none"
       transform="matrix(0.03527778,0,0,-0.03527778,-958.8429,245.75416)"
       clip-path="url(#clipPath2043)" />
    <path
       id="path2044"
       d="m 29940.5,2390.11 c 1.9,-5.38 3.8,-10.73 5.8,-16.05 20,-53.4 47.6,-103.96 81.7,-149.65 8.7,-11.63 19.9,-24.02 34.4,-23.84 10.5,0.13 19.6,6.92 27.6,13.69 46.9,39.79 84.7,90.13 110,146.21 11,24.47 20.4,51.04 40.5,68.77 34.2,30.09 95.2,19.83 117.7,-19.78 2.9,-4.98 5.3,-10.44 9.6,-14.12 7.3,-6.08 17.7,-5.73 27.1,-5.89 91.5,-1.55 162.6,-76.63 222.2,-146.04 22.4,-26.06 45.3,-53.02 56.1,-85.61 19.2,-58.07 -3,-124.12 17.9,-181.64 -184,5.26 -285,-309.08 -468.4,-324.67 -58.6,-4.98 -89.8,19.18 -148.4,15.35 -168.3,-11.01 -447.7,293.28 -615.6,309.19 -11.6,88.95 25.7,179.65 85.6,246.39 59.9,66.74 140.5,111.88 224,144.61 13.6,5.3 27.4,10.43 38.9,19.36 8.5,6.64 15.4,15.16 23.6,22.13 6.5,5.5 13.9,9.88 21.8,13.08 32.8,13.36 70.4,-0.71 87.9,-31.49"
       style="fill:#915f3a;fill-opacity:1;fill-rule:nonzero;stroke:none"
       transform="matrix(0.03527778,0,0,-0.03527778,-958.8429,245.75416)"
       clip-path="url(#clipPath2045)" />
    <path
       id="path2046"
       d="m 29976.9,3224.78 c 11,-37.75 23.3,-77.69 50.7,-107.05 31.1,-33.31 76.2,-39.9 119.6,-41.3 9.9,-0.32 9.9,15.03 0,15.35 -40.1,1.29 -81.6,6.83 -110,38.15 -24.7,27.23 -35.5,64.42 -45.5,98.93 -2.7,9.46 -17.6,5.44 -14.8,-4.08"
       style="fill:#db740e;fill-opacity:1;fill-rule:nonzero;stroke:none"
       transform="matrix(0.03527778,0,0,-0.03527778,-958.8429,245.75416)"
       clip-path="url(#clipPath2047)" />
    <path
       id="path2048"
       d="m 30232.4,3247.08 c 12.3,23.13 12.2,51.46 -0.4,74.46 -4.7,8.67 -18,0.93 -13.2,-7.74 9.9,-18.09 10.1,-40.77 0.4,-58.97 -4.7,-8.72 8.6,-16.48 13.2,-7.75"
       style="fill:#db740e;fill-opacity:1;fill-rule:nonzero;stroke:none"
       transform="matrix(0.03527778,0,0,-0.03527778,-958.8429,245.75416)"
       clip-path="url(#clipPath2049)" />
    <path
       id="path2050"
       d="m 30266.6,3249.36 c 0.6,2.93 1.4,5.75 2.5,8.54 0.5,1.5 -0.4,-0.68 0.3,0.9 l 1,1.99 c 0.6,1.21 1.3,2.39 2,3.55 0.8,1.27 1.6,2.49 2.5,3.69 0.4,0.64 -0.5,-0.51 0.4,0.51 l 1.4,1.7 c 1.9,2.24 4.1,4.32 6.4,6.23 0.2,0.17 1.8,1.45 0.7,0.64 l 1.9,1.3 c 1.1,0.78 2.2,1.51 3.4,2.2 1.2,0.69 2.4,1.34 3.6,1.94 l 2,0.94 c -1.3,-0.57 0.7,0.26 0.9,0.36 2.8,1.04 5.6,1.86 8.6,2.42 l 2.1,0.37 c -1.3,-0.19 0.6,0.04 0.9,0.07 1.5,0.13 3,0.17 4.5,0.17 4.1,-0.01 7.7,3.53 7.7,7.67 0,4.17 -3.5,7.67 -7.7,7.68 -28,0.04 -54.5,-21.19 -59.9,-48.79 -0.8,-4.07 1.2,-8.29 5.4,-9.44 3.7,-1.04 8.6,1.27 9.4,5.36"
       style="fill:#db740e;fill-opacity:1;fill-rule:nonzero;stroke:none"
       transform="matrix(0.03527778,0,0,-0.03527778,-958.8429,245.75416)"
       clip-path="url(#clipPath2051)" />
    <path
       id="path2052"
       d="m 29832.2,2344.51 c 49.5,-63.62 105.9,-121.59 168.2,-172.73 7.6,-6.22 18.5,4.58 10.8,10.85 -62.2,51.14 -118.7,109.12 -168.2,172.73 -6,7.79 -16.8,-3.14 -10.8,-10.85"
       style="fill:#5b371e;fill-opacity:1;fill-rule:nonzero;stroke:none"
       transform="matrix(0.03527778,0,0,-0.03527778,-958.8429,245.75416)"
       clip-path="url(#clipPath2053)" />
    <path
       id="path2054"
       d="m 30128.9,2180.1 c 53.4,54.61 112.2,103.86 175.3,146.9 8.1,5.53 0.5,18.84 -7.7,13.26 -64.2,-43.77 -124.1,-93.78 -178.5,-149.3 -6.9,-7.07 3.9,-17.93 10.9,-10.86"
       style="fill:#5b371e;fill-opacity:1;fill-rule:nonzero;stroke:none"
       transform="matrix(0.03527778,0,0,-0.03527778,-958.8429,245.75416)"
       clip-path="url(#clipPath2055)" />
    <path
       id="path2056"
       d="m 30174.7,2197.99 c 52.6,38.04 105.7,75.27 159.3,111.69 8.2,5.52 0.5,18.82 -7.7,13.26 -53.7,-36.43 -106.8,-73.66 -159.3,-111.69 -7.9,-5.74 -0.3,-19.06 7.7,-13.26"
       style="fill:#5b371e;fill-opacity:1;fill-rule:nonzero;stroke:none"
       transform="matrix(0.03527778,0,0,-0.03527778,-958.8429,245.75416)"
       clip-path="url(#clipPath2057)" />
    <path
       id="path2058"
       d="m 29619,2169.66 c -1.2,-63.97 -2.5,-127.94 -3.8,-191.91 -0.2,-9.88 15.2,-9.88 15.4,0 1.2,63.97 2.5,127.94 3.8,191.91 0.2,9.88 -15.2,9.88 -15.4,0"
       style="fill:#5b371e;fill-opacity:1;fill-rule:nonzero;stroke:none"
       transform="matrix(0.03527778,0,0,-0.03527778,-958.8429,245.75416)"
       clip-path="url(#clipPath2059)" />
    <path
       id="path2060"
       d="m 30499.6,2220.34 c -4.1,-54.8 -3.4,-109.84 2.2,-164.5 1,-9.73 16.3,-9.84 15.3,0 -5.5,54.66 -6.3,109.7 -2.2,164.5 0.8,9.85 -14.6,9.8 -15.3,0"
       style="fill:#5b371e;fill-opacity:1;fill-rule:nonzero;stroke:none"
       transform="matrix(0.03527778,0,0,-0.03527778,-958.8429,245.75416)"
       clip-path="url(#clipPath2061)" />
    <path
       id="path2062"
       d="m 29916,2173.6 c -0.7,-60.11 0.9,-120.21 5,-180.18 0.6,-9.8 16,-9.87 15.3,0 -4,59.97 -5.7,120.07 -4.9,180.18 0.1,9.88 -15.3,9.88 -15.4,0"
       style="fill:#f9e5cb;fill-opacity:1;fill-rule:nonzero;stroke:none"
       transform="matrix(0.03527778,0,0,-0.03527778,-958.8429,245.75416)"
       clip-path="url(#clipPath2063)" />
    <path
       id="path2064"
       d="m 30212.6,2197.03 c 3.3,-58.73 6.6,-117.47 9.9,-176.2 0.6,-9.82 15.9,-9.88 15.4,0 -3.3,58.73 -6.7,117.47 -10,176.2 -0.6,9.82 -15.9,9.88 -15.3,0"
       style="fill:#f9e5cb;fill-opacity:1;fill-rule:nonzero;stroke:none"
       transform="matrix(0.03527778,0,0,-0.03527778,-958.8429,245.75416)"
       clip-path="url(#clipPath2065)" />
    <path
       id="path2066"
       d="m 30040.1,3200.24 c 12.6,23.49 27.4,45.69 44.6,66.09 2.7,3.17 3.1,7.75 0,10.85 -2.7,2.74 -8.2,3.19 -10.9,0 -18,-21.4 -33.8,-44.54 -47,-69.19 -4.6,-8.71 8.6,-16.47 13.3,-7.75"
       style="fill:#aa570c;fill-opacity:1;fill-rule:nonzero;stroke:none"
       transform="matrix(0.03527778,0,0,-0.03527778,-958.8429,245.75416)"
       clip-path="url(#clipPath2067)" />
    <path
       id="path2068"
       d="m 30062.9,3212.39 c 19.8,-31.17 30.2,-67.28 50.3,-98.3 9.1,-14.1 20.1,-27.04 33.5,-37.2 12.6,-9.49 26.7,-14.58 41.7,-18.89 14.3,-4.12 31,-8.08 38.2,-22.43 4.5,-8.81 17.8,-1.05 13.3,7.74 -14,27.6 -49.1,25.92 -73.2,38.91 -30.9,16.62 -47.6,49.71 -61.6,80.29 -8.9,19.59 -17.4,39.42 -29,57.63 -5.3,8.3 -18.6,0.61 -13.2,-7.75"
       style="fill:#aa570c;fill-opacity:1;fill-rule:nonzero;stroke:none"
       transform="matrix(0.03527778,0,0,-0.03527778,-958.8429,245.75416)"
       clip-path="url(#clipPath2069)" />
    <path
       id="path2070"
       d="m 30096.5,3236.19 c 6.1,-77.5 94.6,-99.2 148.6,-134.82 16.7,-11.01 31.5,-24.61 41.1,-42.32 4.7,-8.68 18,-0.95 13.2,7.74 -34.6,63.75 -117,70.57 -164.2,120.83 -12.6,13.42 -21.9,29.95 -23.4,48.57 -0.8,9.78 -16.1,9.87 -15.3,0"
       style="fill:#aa570c;fill-opacity:1;fill-rule:nonzero;stroke:none"
       transform="matrix(0.03527778,0,0,-0.03527778,-958.8429,245.75416)"
       clip-path="url(#clipPath2071)" />
    <path
       id="path2072"
       d="m 30234.4,3178.82 c 23.6,-8.84 42.7,-29.81 49.7,-54.19 2.7,-9.48 17.6,-5.45 14.8,4.08 -8.6,29.86 -31.4,54.05 -60.4,64.91 -3.9,1.45 -8.4,-1.62 -9.5,-5.36 -1.1,-4.3 1.5,-7.99 5.4,-9.44"
       style="fill:#aa570c;fill-opacity:1;fill-rule:nonzero;stroke:none"
       transform="matrix(0.03527778,0,0,-0.03527778,-958.8429,245.75416)"
       clip-path="url(#clipPath2073)" />
    <path
       id="path2074"
       d="m 29945.7,3224.56 c -44.9,-34.37 -98.4,-78.98 -90.9,-142.25 1.1,-9.68 16.5,-9.8 15.3,0 -6.8,57.52 42.6,97.75 83.3,129 7.8,5.93 0.1,19.27 -7.7,13.25"
       style="fill:#aa570c;fill-opacity:1;fill-rule:nonzero;stroke:none"
       transform="matrix(0.03527778,0,0,-0.03527778,-958.8429,245.75416)"
       clip-path="url(#clipPath2075)" />
    <path
       id="path2076"
       d="m 29882.7,3241.16 c -18.1,-23.38 -31.5,-49.91 -39.1,-78.57 -2.5,-9.56 12.3,-13.64 14.8,-4.08 6.9,25.94 18.7,50.57 35.2,71.8 2.5,3.27 3.2,7.66 0,10.85 -2.7,2.64 -8.3,3.29 -10.9,0"
       style="fill:#aa570c;fill-opacity:1;fill-rule:nonzero;stroke:none"
       transform="matrix(0.03527778,0,0,-0.03527778,-958.8429,245.75416)"
       clip-path="url(#clipPath2077)" />
  </g>
</svg>
