<?xml version="1.0" encoding="UTF-8" standalone="no"?>
<!-- Created with Inkscape (http://www.inkscape.org/) -->

<svg
   width="64.329033mm"
   height="67.871292mm"
   viewBox="0 0 64.329033 67.871292"
   version="1.1"
   id="svg1"
   inkscape:version="1.3.2 (091e20e, 2023-11-25)"
   sodipodi:docname="winking-funny-guy-avatar.svg"
   xmlns:inkscape="http://www.inkscape.org/namespaces/inkscape"
   xmlns:sodipodi="http://sodipodi.sourceforge.net/DTD/sodipodi-0.dtd"
   xmlns="http://www.w3.org/2000/svg"
   xmlns:svg="http://www.w3.org/2000/svg">
  <sodipodi:namedview
     id="namedview1"
     pagecolor="#ffffff"
     bordercolor="#000000"
     borderopacity="0.25"
     inkscape:showpageshadow="2"
     inkscape:pageopacity="0.0"
     inkscape:pagecheckerboard="0"
     inkscape:deskcolor="#d1d1d1"
     inkscape:document-units="mm"
     inkscape:zoom="0.96837931"
     inkscape:cx="-36.659189"
     inkscape:cy="312.3776"
     inkscape:window-width="1920"
     inkscape:window-height="1052"
     inkscape:window-x="0"
     inkscape:window-y="28"
     inkscape:window-maximized="0"
     inkscape:current-layer="layer1" />
  <defs
     id="defs1">
    <clipPath
       clipPathUnits="userSpaceOnUse"
       id="clipPath863">
      <path
         d="m 22305.6,5084.48 c 0,-503.57 -408.2,-911.8 -911.8,-911.8 -503.5,0 -911.7,408.23 -911.7,911.8 0,503.57 408.2,911.79 911.7,911.79 503.6,0 911.8,-408.22 911.8,-911.79"
         transform="translate(0,-2.5e-4)"
         id="path863" />
    </clipPath>
    <clipPath
       clipPathUnits="userSpaceOnUse"
       id="clipPath865">
      <path
         d="m 22305.6,5084.48 c 0,-503.57 -408.2,-911.8 -911.8,-911.8 -503.5,0 -911.7,408.23 -911.7,911.8 0,503.57 408.2,911.79 911.7,911.79 503.6,0 911.8,-408.22 911.8,-911.79"
         transform="translate(0,-2.5e-4)"
         id="path865" />
    </clipPath>
    <clipPath
       clipPathUnits="userSpaceOnUse"
       id="clipPath867">
      <path
         d="m 22305.6,5084.48 c 0,-503.57 -408.2,-911.8 -911.8,-911.8 -503.5,0 -911.7,408.23 -911.7,911.8 0,503.57 408.2,911.79 911.7,911.79 503.6,0 911.8,-408.22 911.8,-911.79"
         transform="translate(0,-2.5e-4)"
         id="path867" />
    </clipPath>
    <clipPath
       clipPathUnits="userSpaceOnUse"
       id="clipPath868">
      <path
         d="m 21843.5,4590.45 c -84.9,56.84 -187.5,79.6 -287.6,99.72 -6.1,1.22 -12.5,2.55 -17.4,6.4 -8.4,6.56 10.7,171.39 0,268.1 l -142.9,-13.38 -143,13.38 c -10.7,-96.71 8.4,-261.54 0,-268.1 -4.9,-3.85 -11.3,-5.18 -17.4,-6.4 -100.1,-20.12 -202.7,-42.88 -287.6,-99.72 -84.8,-56.84 -149.1,-376.36 -135.5,-477.6 85.2,0.44 323.1,-11.35 564.1,-14.52 v -0.52 c 6.5,0.09 12.9,0.18 19.4,0.26 6.4,-0.08 12.9,-0.17 19.3,-0.26 v 0.52 c 241,3.17 478.9,14.96 564.1,14.52 13.7,101.24 -50.6,420.76 -135.5,477.6"
         transform="translate(0,-2.5e-4)"
         id="path868" />
    </clipPath>
    <clipPath
       clipPathUnits="userSpaceOnUse"
       id="clipPath871">
      <path
         d="m 22305.6,5084.48 c 0,-503.57 -408.2,-911.8 -911.8,-911.8 -503.5,0 -911.7,408.23 -911.7,911.8 0,503.57 408.2,911.79 911.7,911.79 503.6,0 911.8,-408.22 911.8,-911.79"
         transform="translate(0,-2.5e-4)"
         id="path871" />
    </clipPath>
    <clipPath
       clipPathUnits="userSpaceOnUse"
       id="clipPath873">
      <path
         d="m 22305.6,5084.48 c 0,-503.57 -408.2,-911.8 -911.8,-911.8 -503.5,0 -911.7,408.23 -911.7,911.8 0,503.57 408.2,911.79 911.7,911.79 503.6,0 911.8,-408.22 911.8,-911.79"
         transform="translate(0,-2.5e-4)"
         id="path873" />
    </clipPath>
    <clipPath
       clipPathUnits="userSpaceOnUse"
       id="clipPath875">
      <path
         d="m 22305.6,5084.48 c 0,-503.57 -408.2,-911.8 -911.8,-911.8 -503.5,0 -911.7,408.23 -911.7,911.8 0,503.57 408.2,911.79 911.7,911.79 503.6,0 911.8,-408.22 911.8,-911.79"
         transform="translate(0,-2.5e-4)"
         id="path875" />
    </clipPath>
    <clipPath
       clipPathUnits="userSpaceOnUse"
       id="clipPath877">
      <path
         d="m 22305.6,5084.48 c 0,-503.57 -408.2,-911.8 -911.8,-911.8 -503.5,0 -911.7,408.23 -911.7,911.8 0,503.57 408.2,911.79 911.7,911.79 503.6,0 911.8,-408.22 911.8,-911.79"
         transform="translate(0,-2.5e-4)"
         id="path877" />
    </clipPath>
    <clipPath
       clipPathUnits="userSpaceOnUse"
       id="clipPath879">
      <path
         d="m 22305.6,5084.48 c 0,-503.57 -408.2,-911.8 -911.8,-911.8 -503.5,0 -911.7,408.23 -911.7,911.8 0,503.57 408.2,911.79 911.7,911.79 503.6,0 911.8,-408.22 911.8,-911.79"
         transform="translate(0,-2.5e-4)"
         id="path879" />
    </clipPath>
    <clipPath
       clipPathUnits="userSpaceOnUse"
       id="clipPath881">
      <path
         d="m 22305.6,5084.48 c 0,-503.57 -408.2,-911.8 -911.8,-911.8 -503.5,0 -911.7,408.23 -911.7,911.8 0,503.57 408.2,911.79 911.7,911.79 503.6,0 911.8,-408.22 911.8,-911.79"
         transform="translate(0,-2.5e-4)"
         id="path881" />
    </clipPath>
    <clipPath
       clipPathUnits="userSpaceOnUse"
       id="clipPath883">
      <path
         d="m 22305.6,5084.48 c 0,-503.57 -408.2,-911.8 -911.8,-911.8 -503.5,0 -911.7,408.23 -911.7,911.8 0,503.57 408.2,911.79 911.7,911.79 503.6,0 911.8,-408.22 911.8,-911.79"
         transform="translate(0,-2.5e-4)"
         id="path883" />
    </clipPath>
    <clipPath
       clipPathUnits="userSpaceOnUse"
       id="clipPath885">
      <path
         d="m 22305.6,5084.48 c 0,-503.57 -408.2,-911.8 -911.8,-911.8 -503.5,0 -911.7,408.23 -911.7,911.8 0,503.57 408.2,911.79 911.7,911.79 503.6,0 911.8,-408.22 911.8,-911.79"
         transform="translate(0,-2.5e-4)"
         id="path885" />
    </clipPath>
    <clipPath
       clipPathUnits="userSpaceOnUse"
       id="clipPath887">
      <path
         d="m 22305.6,5084.48 c 0,-503.57 -408.2,-911.8 -911.8,-911.8 -503.5,0 -911.7,408.23 -911.7,911.8 0,503.57 408.2,911.79 911.7,911.79 503.6,0 911.8,-408.22 911.8,-911.79"
         transform="translate(0,-2.5e-4)"
         id="path887" />
    </clipPath>
    <clipPath
       clipPathUnits="userSpaceOnUse"
       id="clipPath889">
      <path
         d="m 22305.6,5084.48 c 0,-503.57 -408.2,-911.8 -911.8,-911.8 -503.5,0 -911.7,408.23 -911.7,911.8 0,503.57 408.2,911.79 911.7,911.79 503.6,0 911.8,-408.22 911.8,-911.79"
         transform="translate(0,-2.5e-4)"
         id="path889" />
    </clipPath>
    <clipPath
       clipPathUnits="userSpaceOnUse"
       id="clipPath891">
      <path
         d="m 22305.6,5084.48 c 0,-503.57 -408.2,-911.8 -911.8,-911.8 -503.5,0 -911.7,408.23 -911.7,911.8 0,503.57 408.2,911.79 911.7,911.79 503.6,0 911.8,-408.22 911.8,-911.79"
         transform="translate(0,-2.5e-4)"
         id="path891" />
    </clipPath>
    <clipPath
       clipPathUnits="userSpaceOnUse"
       id="clipPath893">
      <path
         d="m 22305.6,5084.48 c 0,-503.57 -408.2,-911.8 -911.8,-911.8 -503.5,0 -911.7,408.23 -911.7,911.8 0,503.57 408.2,911.79 911.7,911.79 503.6,0 911.8,-408.22 911.8,-911.79"
         transform="translate(0,-2.5e-4)"
         id="path893" />
    </clipPath>
    <clipPath
       clipPathUnits="userSpaceOnUse"
       id="clipPath895">
      <path
         d="m 22305.6,5084.48 c 0,-503.57 -408.2,-911.8 -911.8,-911.8 -503.5,0 -911.7,408.23 -911.7,911.8 0,503.57 408.2,911.79 911.7,911.79 503.6,0 911.8,-408.22 911.8,-911.79"
         transform="translate(0,-2.5e-4)"
         id="path895" />
    </clipPath>
    <clipPath
       clipPathUnits="userSpaceOnUse"
       id="clipPath897">
      <path
         d="m 22305.6,5084.48 c 0,-503.57 -408.2,-911.8 -911.8,-911.8 -503.5,0 -911.7,408.23 -911.7,911.8 0,503.57 408.2,911.79 911.7,911.79 503.6,0 911.8,-408.22 911.8,-911.79"
         transform="translate(0,-2.5e-4)"
         id="path897" />
    </clipPath>
    <clipPath
       clipPathUnits="userSpaceOnUse"
       id="clipPath899">
      <path
         d="m 22305.6,5084.48 c 0,-503.57 -408.2,-911.8 -911.8,-911.8 -503.5,0 -911.7,408.23 -911.7,911.8 0,503.57 408.2,911.79 911.7,911.79 503.6,0 911.8,-408.22 911.8,-911.79"
         transform="translate(0,-2.5e-4)"
         id="path899" />
    </clipPath>
    <clipPath
       clipPathUnits="userSpaceOnUse"
       id="clipPath901">
      <path
         d="m 22305.6,5084.48 c 0,-503.57 -408.2,-911.8 -911.8,-911.8 -503.5,0 -911.7,408.23 -911.7,911.8 0,503.57 408.2,911.79 911.7,911.79 503.6,0 911.8,-408.22 911.8,-911.79"
         transform="translate(0,-2.5e-4)"
         id="path901" />
    </clipPath>
    <clipPath
       clipPathUnits="userSpaceOnUse"
       id="clipPath903">
      <path
         d="m 22305.6,5084.48 c 0,-503.57 -408.2,-911.8 -911.8,-911.8 -503.5,0 -911.7,408.23 -911.7,911.8 0,503.57 408.2,911.79 911.7,911.79 503.6,0 911.8,-408.22 911.8,-911.79"
         transform="translate(0,-2.5e-4)"
         id="path903" />
    </clipPath>
    <clipPath
       clipPathUnits="userSpaceOnUse"
       id="clipPath905">
      <path
         d="m 22305.6,5084.48 c 0,-503.57 -408.2,-911.8 -911.8,-911.8 -503.5,0 -911.7,408.23 -911.7,911.8 0,503.57 408.2,911.79 911.7,911.79 503.6,0 911.8,-408.22 911.8,-911.79"
         transform="translate(0,-2.5e-4)"
         id="path905" />
    </clipPath>
    <clipPath
       clipPathUnits="userSpaceOnUse"
       id="clipPath907">
      <path
         d="m 22305.6,5084.48 c 0,-503.57 -408.2,-911.8 -911.8,-911.8 -503.5,0 -911.7,408.23 -911.7,911.8 0,503.57 408.2,911.79 911.7,911.79 503.6,0 911.8,-408.22 911.8,-911.79"
         transform="translate(0,-2.5e-4)"
         id="path907" />
    </clipPath>
    <clipPath
       clipPathUnits="userSpaceOnUse"
       id="clipPath909">
      <path
         d="m 22305.6,5084.48 c 0,-503.57 -408.2,-911.8 -911.8,-911.8 -503.5,0 -911.7,408.23 -911.7,911.8 0,503.57 408.2,911.79 911.7,911.79 503.6,0 911.8,-408.22 911.8,-911.79"
         transform="translate(0,-2.5e-4)"
         id="path909" />
    </clipPath>
    <clipPath
       clipPathUnits="userSpaceOnUse"
       id="clipPath911">
      <path
         d="m 22305.6,5084.48 c 0,-503.57 -408.2,-911.8 -911.8,-911.8 -503.5,0 -911.7,408.23 -911.7,911.8 0,503.57 408.2,911.79 911.7,911.79 503.6,0 911.8,-408.22 911.8,-911.79"
         transform="translate(0,-2.5e-4)"
         id="path911" />
    </clipPath>
    <clipPath
       clipPathUnits="userSpaceOnUse"
       id="clipPath913">
      <path
         d="m 22305.6,5084.48 c 0,-503.57 -408.2,-911.8 -911.8,-911.8 -503.5,0 -911.7,408.23 -911.7,911.8 0,503.57 408.2,911.79 911.7,911.79 503.6,0 911.8,-408.22 911.8,-911.79"
         transform="translate(0,-2.5e-4)"
         id="path913" />
    </clipPath>
    <clipPath
       clipPathUnits="userSpaceOnUse"
       id="clipPath915">
      <path
         d="m 22305.6,5084.48 c 0,-503.57 -408.2,-911.8 -911.8,-911.8 -503.5,0 -911.7,408.23 -911.7,911.8 0,503.57 408.2,911.79 911.7,911.79 503.6,0 911.8,-408.22 911.8,-911.79"
         transform="translate(0,-2.5e-4)"
         id="path915" />
    </clipPath>
    <clipPath
       clipPathUnits="userSpaceOnUse"
       id="clipPath917">
      <path
         d="m 22305.6,5084.48 c 0,-503.57 -408.2,-911.8 -911.8,-911.8 -503.5,0 -911.7,408.23 -911.7,911.8 0,503.57 408.2,911.79 911.7,911.79 503.6,0 911.8,-408.22 911.8,-911.79"
         transform="translate(0,-2.5e-4)"
         id="path917" />
    </clipPath>
    <clipPath
       clipPathUnits="userSpaceOnUse"
       id="clipPath919">
      <path
         d="m 22305.6,5084.48 c 0,-503.57 -408.2,-911.8 -911.8,-911.8 -503.5,0 -911.7,408.23 -911.7,911.8 0,503.57 408.2,911.79 911.7,911.79 503.6,0 911.8,-408.22 911.8,-911.79"
         transform="translate(0,-2.5e-4)"
         id="path919" />
    </clipPath>
    <clipPath
       clipPathUnits="userSpaceOnUse"
       id="clipPath921">
      <path
         d="m 22305.6,5084.48 c 0,-503.57 -408.2,-911.8 -911.8,-911.8 -503.5,0 -911.7,408.23 -911.7,911.8 0,503.57 408.2,911.79 911.7,911.79 503.6,0 911.8,-408.22 911.8,-911.79"
         transform="translate(0,-2.5e-4)"
         id="path921" />
    </clipPath>
    <clipPath
       clipPathUnits="userSpaceOnUse"
       id="clipPath922">
      <path
         d="m 21863.8,4592.08 c -51.8,34.71 -110.2,56.88 -170.5,73.52 -13.5,-24.33 -31,-46.34 -52.8,-64.83 -49.3,-41.64 -113.9,-60.64 -177.8,-69.47 -139,-19.2 -295.9,13.56 -384.4,120.68 -44.3,-14.9 -86.9,-33.87 -125.7,-59.9 -86.4,-57.81 -151.8,-379.04 -137.9,-482.02 86.7,0.45 328.7,-11.37 573.8,-14.6 v -0.53 c 6.6,0.09 13.1,0.19 19.7,0.28 6.5,-0.09 13.1,-0.19 19.7,-0.28 v 0.53 c 245.1,3.23 489,-22.64 575.6,-23.1 13.9,102.99 -53.4,461.91 -139.7,519.72"
         transform="translate(0,-2.5e-4)"
         id="path922" />
    </clipPath>
    <clipPath
       clipPathUnits="userSpaceOnUse"
       id="clipPath923">
      <path
         d="m 21863.8,4592.08 c -51.8,34.71 -110.2,56.88 -170.5,73.52 -13.5,-24.33 -31,-46.34 -52.8,-64.83 -49.3,-41.64 -113.9,-60.64 -177.8,-69.47 -139,-19.2 -295.9,13.56 -384.4,120.68 -44.3,-14.9 -86.9,-33.87 -125.7,-59.9 -86.4,-57.81 -151.8,-379.04 -137.9,-482.02 86.7,0.45 328.7,-11.37 573.8,-14.6 v -0.53 c 6.6,0.09 13.1,0.19 19.7,0.28 6.5,-0.09 13.1,-0.19 19.7,-0.28 v 0.53 c 245.1,3.23 489,-22.64 575.6,-23.1 13.9,102.99 -53.4,461.91 -139.7,519.72"
         transform="translate(0,-2.5e-4)"
         id="path923" />
    </clipPath>
    <clipPath
       clipPathUnits="userSpaceOnUse"
       id="clipPath924">
      <path
         d="m 21863.8,4592.08 c -51.8,34.71 -110.2,56.88 -170.5,73.52 -13.5,-24.33 -31,-46.34 -52.8,-64.83 -49.3,-41.64 -113.9,-60.64 -177.8,-69.47 -139,-19.2 -295.9,13.56 -384.4,120.68 -44.3,-14.9 -86.9,-33.87 -125.7,-59.9 -86.4,-57.81 -151.8,-379.04 -137.9,-482.02 86.7,0.45 328.7,-11.37 573.8,-14.6 v -0.53 c 6.6,0.09 13.1,0.19 19.7,0.28 6.5,-0.09 13.1,-0.19 19.7,-0.28 v 0.53 c 245.1,3.23 489,-22.64 575.6,-23.1 13.9,102.99 -53.4,461.91 -139.7,519.72"
         transform="translate(0,-2.5e-4)"
         id="path924" />
    </clipPath>
    <clipPath
       clipPathUnits="userSpaceOnUse"
       id="clipPath925">
      <path
         d="m 21863.8,4592.08 c -51.8,34.71 -110.2,56.88 -170.5,73.52 -13.5,-24.33 -31,-46.34 -52.8,-64.83 -49.3,-41.64 -113.9,-60.64 -177.8,-69.47 -139,-19.2 -295.9,13.56 -384.4,120.68 -44.3,-14.9 -86.9,-33.87 -125.7,-59.9 -86.4,-57.81 -151.8,-379.04 -137.9,-482.02 86.7,0.45 328.7,-11.37 573.8,-14.6 v -0.53 c 6.6,0.09 13.1,0.19 19.7,0.28 6.5,-0.09 13.1,-0.19 19.7,-0.28 v 0.53 c 245.1,3.23 489,-22.64 575.6,-23.1 13.9,102.99 -53.4,461.91 -139.7,519.72"
         transform="translate(0,-2.5e-4)"
         id="path925" />
    </clipPath>
    <clipPath
       clipPathUnits="userSpaceOnUse"
       id="clipPath926">
      <path
         d="m 21863.8,4592.08 c -51.8,34.71 -110.2,56.88 -170.5,73.52 -13.5,-24.33 -31,-46.34 -52.8,-64.83 -49.3,-41.64 -113.9,-60.64 -177.8,-69.47 -139,-19.2 -295.9,13.56 -384.4,120.68 -44.3,-14.9 -86.9,-33.87 -125.7,-59.9 -86.4,-57.81 -151.8,-379.04 -137.9,-482.02 86.7,0.45 328.7,-11.37 573.8,-14.6 v -0.53 c 6.6,0.09 13.1,0.19 19.7,0.28 6.5,-0.09 13.1,-0.19 19.7,-0.28 v 0.53 c 245.1,3.23 489,-22.64 575.6,-23.1 13.9,102.99 -53.4,461.91 -139.7,519.72"
         transform="translate(0,-2.5e-4)"
         id="path926" />
    </clipPath>
    <clipPath
       clipPathUnits="userSpaceOnUse"
       id="clipPath927">
      <path
         d="m 21863.8,4592.08 c -51.8,34.71 -110.2,56.88 -170.5,73.52 -13.5,-24.33 -31,-46.34 -52.8,-64.83 -49.3,-41.64 -113.9,-60.64 -177.8,-69.47 -139,-19.2 -295.9,13.56 -384.4,120.68 -44.3,-14.9 -86.9,-33.87 -125.7,-59.9 -86.4,-57.81 -151.8,-379.04 -137.9,-482.02 86.7,0.45 328.7,-11.37 573.8,-14.6 v -0.53 c 6.6,0.09 13.1,0.19 19.7,0.28 6.5,-0.09 13.1,-0.19 19.7,-0.28 v 0.53 c 245.1,3.23 489,-22.64 575.6,-23.1 13.9,102.99 -53.4,461.91 -139.7,519.72"
         transform="translate(0,-2.5e-4)"
         id="path927" />
    </clipPath>
    <clipPath
       clipPathUnits="userSpaceOnUse"
       id="clipPath928">
      <path
         d="m 21863.8,4592.08 c -51.8,34.71 -110.2,56.88 -170.5,73.52 -13.5,-24.33 -31,-46.34 -52.8,-64.83 -49.3,-41.64 -113.9,-60.64 -177.8,-69.47 -139,-19.2 -295.9,13.56 -384.4,120.68 -44.3,-14.9 -86.9,-33.87 -125.7,-59.9 -86.4,-57.81 -151.8,-379.04 -137.9,-482.02 86.7,0.45 328.7,-11.37 573.8,-14.6 v -0.53 c 6.6,0.09 13.1,0.19 19.7,0.28 6.5,-0.09 13.1,-0.19 19.7,-0.28 v 0.53 c 245.1,3.23 489,-22.64 575.6,-23.1 13.9,102.99 -53.4,461.91 -139.7,519.72"
         transform="translate(0,-2.5e-4)"
         id="path928" />
    </clipPath>
    <clipPath
       clipPathUnits="userSpaceOnUse"
       id="clipPath929">
      <path
         d="m 21863.8,4592.08 c -51.8,34.71 -110.2,56.88 -170.5,73.52 -13.5,-24.33 -31,-46.34 -52.8,-64.83 -49.3,-41.64 -113.9,-60.64 -177.8,-69.47 -139,-19.2 -295.9,13.56 -384.4,120.68 -44.3,-14.9 -86.9,-33.87 -125.7,-59.9 -86.4,-57.81 -151.8,-379.04 -137.9,-482.02 86.7,0.45 328.7,-11.37 573.8,-14.6 v -0.53 c 6.6,0.09 13.1,0.19 19.7,0.28 6.5,-0.09 13.1,-0.19 19.7,-0.28 v 0.53 c 245.1,3.23 489,-22.64 575.6,-23.1 13.9,102.99 -53.4,461.91 -139.7,519.72"
         transform="translate(0,-2.5e-4)"
         id="path929" />
    </clipPath>
    <clipPath
       clipPathUnits="userSpaceOnUse"
       id="clipPath930">
      <path
         d="m 21863.8,4592.08 c -51.8,34.71 -110.2,56.88 -170.5,73.52 -13.5,-24.33 -31,-46.34 -52.8,-64.83 -49.3,-41.64 -113.9,-60.64 -177.8,-69.47 -139,-19.2 -295.9,13.56 -384.4,120.68 -44.3,-14.9 -86.9,-33.87 -125.7,-59.9 -86.4,-57.81 -151.8,-379.04 -137.9,-482.02 86.7,0.45 328.7,-11.37 573.8,-14.6 v -0.53 c 6.6,0.09 13.1,0.19 19.7,0.28 6.5,-0.09 13.1,-0.19 19.7,-0.28 v 0.53 c 245.1,3.23 489,-22.64 575.6,-23.1 13.9,102.99 -53.4,461.91 -139.7,519.72"
         transform="translate(0,-2.5e-4)"
         id="path930" />
    </clipPath>
    <clipPath
       clipPathUnits="userSpaceOnUse"
       id="clipPath931">
      <path
         d="m 21863.8,4592.08 c -51.8,34.71 -110.2,56.88 -170.5,73.52 -13.5,-24.33 -31,-46.34 -52.8,-64.83 -49.3,-41.64 -113.9,-60.64 -177.8,-69.47 -139,-19.2 -295.9,13.56 -384.4,120.68 -44.3,-14.9 -86.9,-33.87 -125.7,-59.9 -86.4,-57.81 -151.8,-379.04 -137.9,-482.02 86.7,0.45 328.7,-11.37 573.8,-14.6 v -0.53 c 6.6,0.09 13.1,0.19 19.7,0.28 6.5,-0.09 13.1,-0.19 19.7,-0.28 v 0.53 c 245.1,3.23 489,-22.64 575.6,-23.1 13.9,102.99 -53.4,461.91 -139.7,519.72"
         transform="translate(0,-2.5e-4)"
         id="path931" />
    </clipPath>
    <clipPath
       clipPathUnits="userSpaceOnUse"
       id="clipPath932">
      <path
         d="m 21863.8,4592.08 c -51.8,34.71 -110.2,56.88 -170.5,73.52 -13.5,-24.33 -31,-46.34 -52.8,-64.83 -49.3,-41.64 -113.9,-60.64 -177.8,-69.47 -139,-19.2 -295.9,13.56 -384.4,120.68 -44.3,-14.9 -86.9,-33.87 -125.7,-59.9 -86.4,-57.81 -151.8,-379.04 -137.9,-482.02 86.7,0.45 328.7,-11.37 573.8,-14.6 v -0.53 c 6.6,0.09 13.1,0.19 19.7,0.28 6.5,-0.09 13.1,-0.19 19.7,-0.28 v 0.53 c 245.1,3.23 489,-22.64 575.6,-23.1 13.9,102.99 -53.4,461.91 -139.7,519.72"
         transform="translate(0,-2.5e-4)"
         id="path932" />
    </clipPath>
    <clipPath
       clipPathUnits="userSpaceOnUse"
       id="clipPath933">
      <path
         d="m 21863.8,4592.08 c -51.8,34.71 -110.2,56.88 -170.5,73.52 -13.5,-24.33 -31,-46.34 -52.8,-64.83 -49.3,-41.64 -113.9,-60.64 -177.8,-69.47 -139,-19.2 -295.9,13.56 -384.4,120.68 -44.3,-14.9 -86.9,-33.87 -125.7,-59.9 -86.4,-57.81 -151.8,-379.04 -137.9,-482.02 86.7,0.45 328.7,-11.37 573.8,-14.6 v -0.53 c 6.6,0.09 13.1,0.19 19.7,0.28 6.5,-0.09 13.1,-0.19 19.7,-0.28 v 0.53 c 245.1,3.23 489,-22.64 575.6,-23.1 13.9,102.99 -53.4,461.91 -139.7,519.72"
         transform="translate(0,-2.5e-4)"
         id="path933" />
    </clipPath>
    <clipPath
       clipPathUnits="userSpaceOnUse"
       id="clipPath934">
      <path
         d="m 21863.8,4592.08 c -51.8,34.71 -110.2,56.88 -170.5,73.52 -13.5,-24.33 -31,-46.34 -52.8,-64.83 -49.3,-41.64 -113.9,-60.64 -177.8,-69.47 -139,-19.2 -295.9,13.56 -384.4,120.68 -44.3,-14.9 -86.9,-33.87 -125.7,-59.9 -86.4,-57.81 -151.8,-379.04 -137.9,-482.02 86.7,0.45 328.7,-11.37 573.8,-14.6 v -0.53 c 6.6,0.09 13.1,0.19 19.7,0.28 6.5,-0.09 13.1,-0.19 19.7,-0.28 v 0.53 c 245.1,3.23 489,-22.64 575.6,-23.1 13.9,102.99 -53.4,461.91 -139.7,519.72"
         transform="translate(0,-2.5e-4)"
         id="path934" />
    </clipPath>
    <clipPath
       clipPathUnits="userSpaceOnUse"
       id="clipPath935">
      <path
         d="m 21863.8,4592.08 c -51.8,34.71 -110.2,56.88 -170.5,73.52 -13.5,-24.33 -31,-46.34 -52.8,-64.83 -49.3,-41.64 -113.9,-60.64 -177.8,-69.47 -139,-19.2 -295.9,13.56 -384.4,120.68 -44.3,-14.9 -86.9,-33.87 -125.7,-59.9 -86.4,-57.81 -151.8,-379.04 -137.9,-482.02 86.7,0.45 328.7,-11.37 573.8,-14.6 v -0.53 c 6.6,0.09 13.1,0.19 19.7,0.28 6.5,-0.09 13.1,-0.19 19.7,-0.28 v 0.53 c 245.1,3.23 489,-22.64 575.6,-23.1 13.9,102.99 -53.4,461.91 -139.7,519.72"
         transform="translate(0,-2.5e-4)"
         id="path935" />
    </clipPath>
    <clipPath
       clipPathUnits="userSpaceOnUse"
       id="clipPath936">
      <path
         d="m 21863.8,4592.08 c -51.8,34.71 -110.2,56.88 -170.5,73.52 -13.5,-24.33 -31,-46.34 -52.8,-64.83 -49.3,-41.64 -113.9,-60.64 -177.8,-69.47 -139,-19.2 -295.9,13.56 -384.4,120.68 -44.3,-14.9 -86.9,-33.87 -125.7,-59.9 -86.4,-57.81 -151.8,-379.04 -137.9,-482.02 86.7,0.45 328.7,-11.37 573.8,-14.6 v -0.53 c 6.6,0.09 13.1,0.19 19.7,0.28 6.5,-0.09 13.1,-0.19 19.7,-0.28 v 0.53 c 245.1,3.23 489,-22.64 575.6,-23.1 13.9,102.99 -53.4,461.91 -139.7,519.72"
         transform="translate(0,-2.5e-4)"
         id="path936" />
    </clipPath>
    <clipPath
       clipPathUnits="userSpaceOnUse"
       id="clipPath937">
      <path
         d="m 21863.8,4592.08 c -51.8,34.71 -110.2,56.88 -170.5,73.52 -13.5,-24.33 -31,-46.34 -52.8,-64.83 -49.3,-41.64 -113.9,-60.64 -177.8,-69.47 -139,-19.2 -295.9,13.56 -384.4,120.68 -44.3,-14.9 -86.9,-33.87 -125.7,-59.9 -86.4,-57.81 -151.8,-379.04 -137.9,-482.02 86.7,0.45 328.7,-11.37 573.8,-14.6 v -0.53 c 6.6,0.09 13.1,0.19 19.7,0.28 6.5,-0.09 13.1,-0.19 19.7,-0.28 v 0.53 c 245.1,3.23 489,-22.64 575.6,-23.1 13.9,102.99 -53.4,461.91 -139.7,519.72"
         transform="translate(0,-2.5e-4)"
         id="path937" />
    </clipPath>
    <clipPath
       clipPathUnits="userSpaceOnUse"
       id="clipPath938">
      <path
         d="m 21863.8,4592.08 c -51.8,34.71 -110.2,56.88 -170.5,73.52 -13.5,-24.33 -31,-46.34 -52.8,-64.83 -49.3,-41.64 -113.9,-60.64 -177.8,-69.47 -139,-19.2 -295.9,13.56 -384.4,120.68 -44.3,-14.9 -86.9,-33.87 -125.7,-59.9 -86.4,-57.81 -151.8,-379.04 -137.9,-482.02 86.7,0.45 328.7,-11.37 573.8,-14.6 v -0.53 c 6.6,0.09 13.1,0.19 19.7,0.28 6.5,-0.09 13.1,-0.19 19.7,-0.28 v 0.53 c 245.1,3.23 489,-22.64 575.6,-23.1 13.9,102.99 -53.4,461.91 -139.7,519.72"
         transform="translate(0,-2.5e-4)"
         id="path938" />
    </clipPath>
    <clipPath
       clipPathUnits="userSpaceOnUse"
       id="clipPath939">
      <path
         d="m 21863.8,4592.08 c -51.8,34.71 -110.2,56.88 -170.5,73.52 -13.5,-24.33 -31,-46.34 -52.8,-64.83 -49.3,-41.64 -113.9,-60.64 -177.8,-69.47 -139,-19.2 -295.9,13.56 -384.4,120.68 -44.3,-14.9 -86.9,-33.87 -125.7,-59.9 -86.4,-57.81 -151.8,-379.04 -137.9,-482.02 86.7,0.45 328.7,-11.37 573.8,-14.6 v -0.53 c 6.6,0.09 13.1,0.19 19.7,0.28 6.5,-0.09 13.1,-0.19 19.7,-0.28 v 0.53 c 245.1,3.23 489,-22.64 575.6,-23.1 13.9,102.99 -53.4,461.91 -139.7,519.72"
         transform="translate(0,-2.5e-4)"
         id="path939" />
    </clipPath>
    <clipPath
       clipPathUnits="userSpaceOnUse"
       id="clipPath940">
      <path
         d="m 21863.8,4592.08 c -51.8,34.71 -110.2,56.88 -170.5,73.52 -13.5,-24.33 -31,-46.34 -52.8,-64.83 -49.3,-41.64 -113.9,-60.64 -177.8,-69.47 -139,-19.2 -295.9,13.56 -384.4,120.68 -44.3,-14.9 -86.9,-33.87 -125.7,-59.9 -86.4,-57.81 -151.8,-379.04 -137.9,-482.02 86.7,0.45 328.7,-11.37 573.8,-14.6 v -0.53 c 6.6,0.09 13.1,0.19 19.7,0.28 6.5,-0.09 13.1,-0.19 19.7,-0.28 v 0.53 c 245.1,3.23 489,-22.64 575.6,-23.1 13.9,102.99 -53.4,461.91 -139.7,519.72"
         transform="translate(0,-2.5e-4)"
         id="path940" />
    </clipPath>
    <clipPath
       clipPathUnits="userSpaceOnUse"
       id="clipPath941">
      <path
         d="m 21863.8,4592.08 c -51.8,34.71 -110.2,56.88 -170.5,73.52 -13.5,-24.33 -31,-46.34 -52.8,-64.83 -49.3,-41.64 -113.9,-60.64 -177.8,-69.47 -139,-19.2 -295.9,13.56 -384.4,120.68 -44.3,-14.9 -86.9,-33.87 -125.7,-59.9 -86.4,-57.81 -151.8,-379.04 -137.9,-482.02 86.7,0.45 328.7,-11.37 573.8,-14.6 v -0.53 c 6.6,0.09 13.1,0.19 19.7,0.28 6.5,-0.09 13.1,-0.19 19.7,-0.28 v 0.53 c 245.1,3.23 489,-22.64 575.6,-23.1 13.9,102.99 -53.4,461.91 -139.7,519.72"
         transform="translate(0,-2.5e-4)"
         id="path941" />
    </clipPath>
    <clipPath
       clipPathUnits="userSpaceOnUse"
       id="clipPath942">
      <path
         d="m 21863.8,4592.08 c -51.8,34.71 -110.2,56.88 -170.5,73.52 -13.5,-24.33 -31,-46.34 -52.8,-64.83 -49.3,-41.64 -113.9,-60.64 -177.8,-69.47 -139,-19.2 -295.9,13.56 -384.4,120.68 -44.3,-14.9 -86.9,-33.87 -125.7,-59.9 -86.4,-57.81 -151.8,-379.04 -137.9,-482.02 86.7,0.45 328.7,-11.37 573.8,-14.6 v -0.53 c 6.6,0.09 13.1,0.19 19.7,0.28 6.5,-0.09 13.1,-0.19 19.7,-0.28 v 0.53 c 245.1,3.23 489,-22.64 575.6,-23.1 13.9,102.99 -53.4,461.91 -139.7,519.72"
         transform="translate(0,-2.5e-4)"
         id="path942" />
    </clipPath>
    <clipPath
       clipPathUnits="userSpaceOnUse"
       id="clipPath943">
      <path
         d="m 21863.8,4592.08 c -51.8,34.71 -110.2,56.88 -170.5,73.52 -13.5,-24.33 -31,-46.34 -52.8,-64.83 -49.3,-41.64 -113.9,-60.64 -177.8,-69.47 -139,-19.2 -295.9,13.56 -384.4,120.68 -44.3,-14.9 -86.9,-33.87 -125.7,-59.9 -86.4,-57.81 -151.8,-379.04 -137.9,-482.02 86.7,0.45 328.7,-11.37 573.8,-14.6 v -0.53 c 6.6,0.09 13.1,0.19 19.7,0.28 6.5,-0.09 13.1,-0.19 19.7,-0.28 v 0.53 c 245.1,3.23 489,-22.64 575.6,-23.1 13.9,102.99 -53.4,461.91 -139.7,519.72"
         transform="translate(0,-2.5e-4)"
         id="path943" />
    </clipPath>
    <clipPath
       clipPathUnits="userSpaceOnUse"
       id="clipPath944">
      <path
         d="m 21863.8,4592.08 c -51.8,34.71 -110.2,56.88 -170.5,73.52 -13.5,-24.33 -31,-46.34 -52.8,-64.83 -49.3,-41.64 -113.9,-60.64 -177.8,-69.47 -139,-19.2 -295.9,13.56 -384.4,120.68 -44.3,-14.9 -86.9,-33.87 -125.7,-59.9 -86.4,-57.81 -151.8,-379.04 -137.9,-482.02 86.7,0.45 328.7,-11.37 573.8,-14.6 v -0.53 c 6.6,0.09 13.1,0.19 19.7,0.28 6.5,-0.09 13.1,-0.19 19.7,-0.28 v 0.53 c 245.1,3.23 489,-22.64 575.6,-23.1 13.9,102.99 -53.4,461.91 -139.7,519.72"
         transform="translate(0,-2.5e-4)"
         id="path944" />
    </clipPath>
  </defs>
  <g
     inkscape:label="Layer 1"
     inkscape:groupmode="layer"
     id="layer1"
     transform="translate(-86.254238,-42.862475)">
    <path
       id="path862"
       d="m 22305.6,4172.69 h -1823.5 v 1823.58 h 1823.5 V 4172.69"
       style="fill:#a59effff;fill-opacity:1;fill-rule:nonzero;stroke:none"
       transform="matrix(0.03527778,0,0,-0.03527778,-636.30878,254.39756)"
       clip-path="url(#clipPath863)" />
    <path
       id="path864"
       d="m 21160,4984.36 c 2.8,-48.59 27.1,-94.54 61.9,-128.55 34.9,-34 79.5,-56.73 126.1,-70.77 29.9,-9 61.3,-14.64 92.3,-10.88 50.2,6.1 95.1,36.87 127.1,76.14 32,39.28 52.4,86.62 69.1,134.41 2.6,7.39 5.1,15.07 4.4,22.86 -1.7,18.71 -20.5,30.48 -37.7,38.12 -44.4,19.75 -92,32.23 -140.4,36.78 -45,4.23 -91.4,1.81 -134.1,16.64 L 21160,4984.36"
       style="fill:#262b44;fill-opacity:1;fill-rule:nonzero;stroke:none"
       transform="matrix(0.03527778,0,0,-0.03527778,-636.30878,254.39756)"
       clip-path="url(#clipPath865)" />
    <path
       id="path866"
       d="m 21843.5,4590.45 c -84.9,56.84 -187.5,79.6 -287.6,99.72 -6.1,1.22 -12.5,2.56 -17.4,6.39 -8.4,6.57 10.7,171.4 0,268.11 l -142.9,-13.39 -143,13.39 c -10.7,-96.71 8.4,-261.54 0,-268.11 -4.9,-3.83 -11.3,-5.17 -17.4,-6.39 -100.1,-20.12 -202.7,-42.88 -287.6,-99.72 -84.8,-56.84 -149.1,-376.36 -135.5,-477.6 85.2,0.44 323.1,-11.35 564.1,-14.52 v -0.52 c 6.5,0.08 12.9,0.17 19.4,0.26 6.4,-0.09 12.9,-0.18 19.3,-0.26 v 0.52 c 241,3.17 478.9,14.96 564.1,14.52 13.7,101.24 -50.6,420.76 -135.5,477.6"
       style="fill:#fbd1b9;fill-opacity:1;fill-rule:nonzero;stroke:none"
       transform="matrix(0.03527778,0,0,-0.03527778,-636.30878,254.39756)"
       clip-path="url(#clipPath867)" />
    <g
       id="g869"
       transform="matrix(0.26458333,0,0,0.26458333,-636.30878,-104.11637)">
      <path
         d="m 21062.3,4967.79 c 56.4,36.31 58.8,53.73 61.5,36.31 13.4,-85.61 148.7,-291.83 271.7,-291.83 159.2,0 251.6,268.76 266.5,336.49 -184,-26.3 -370.4,-52.64 -555,-30.5 5.1,-4.79 10.2,-9.57 15.2,-14.35 l -59.9,-36.12"
         style="fill:#dba78a;fill-opacity:1;fill-rule:nonzero;stroke:none"
         transform="matrix(0.13333333,0,0,-0.13333333,0,1355.0133)"
         clip-path="url(#clipPath868)"
         id="path869" />
    </g>
    <path
       id="path870"
       d="m 21183.5,5436.99 c -32.9,-110.99 -24.8,-305.47 0,-418.55 l 0.4,-1.82 c 13.4,-60.69 34.8,-121.3 75.2,-168.54 40.4,-47.25 102.6,-79.19 164.2,-70.81 59.6,8.1 109.6,52.35 138.6,104.98 29.1,52.62 40.3,113.08 48.4,172.65 14.1,103.72 10.4,379.2 0.4,380.04 -128.2,10.86 -302.4,37.13 -427.2,5.65 v -3.6"
       style="fill:#fbd1b9;fill-opacity:1;fill-rule:nonzero;stroke:none"
       transform="matrix(0.03527778,0,0,-0.03527778,-636.30878,254.39756)"
       clip-path="url(#clipPath871)" />
    <path
       id="path872"
       d="m 21605.1,5097.86 c 3.2,22.85 30.7,37.13 52.8,30.43 22,-6.7 36.6,-29.61 38.2,-52.61 1.7,-23 -7.6,-45.63 -20.8,-64.54 -22,-31.54 -60.7,-56.02 -97.9,-46.27 5.9,47.3 14.3,94.27 25.3,140.65 l 2.4,-7.66"
       style="fill:#fbd1b9;fill-opacity:1;fill-rule:nonzero;stroke:none"
       transform="matrix(0.03527778,0,0,-0.03527778,-636.30878,254.39756)"
       clip-path="url(#clipPath873)" />
    <path
       id="path874"
       d="m 21186.9,5097.86 c -3.2,22.85 -30.7,37.13 -52.7,30.43 -22.1,-6.7 -36.7,-29.61 -38.3,-52.61 -1.7,-23 7.7,-45.63 20.9,-64.54 22,-31.54 60.7,-56.02 97.9,-46.27 -5.9,47.3 -14.4,94.27 -25.4,140.65 l -2.4,-7.66"
       style="fill:#fbd1b9;fill-opacity:1;fill-rule:nonzero;stroke:none"
       transform="matrix(0.03527778,0,0,-0.03527778,-636.30878,254.39756)"
       clip-path="url(#clipPath875)" />
    <path
       id="path876"
       d="m 21307.6,5120.1 c 0,-16.02 -11.8,-29.01 -26.4,-29.01 -14.6,0 -26.5,12.99 -26.5,29.01 0,16.02 11.9,29.01 26.5,29.01 14.6,0 26.4,-12.99 26.4,-29.01"
       style="fill:#1a1a1a;fill-opacity:1;fill-rule:nonzero;stroke:none"
       transform="matrix(0.03527778,0,0,-0.03527778,-636.30878,254.39756)"
       clip-path="url(#clipPath877)" />
    <path
       id="path878"
       d="m 21863.8,4592.08 c -51.8,34.71 -110.1,56.88 -170.5,73.52 -13.5,-24.33 -31,-46.34 -52.8,-64.82 -49.3,-41.65 -113.9,-60.65 -177.8,-69.47 -139,-19.21 -295.9,13.55 -384.4,120.67 -44.3,-14.9 -86.9,-33.87 -125.7,-59.9 -86.4,-57.82 -151.8,-379.04 -137.9,-482.02 86.7,0.45 328.7,-11.37 573.8,-14.6 v -0.53 c 6.6,0.09 13.1,0.18 19.7,0.27 6.6,-0.09 13.1,-0.18 19.7,-0.27 v 0.53 c 245.1,3.23 489,-22.64 575.6,-23.09 13.9,102.98 -53.4,461.89 -139.7,519.71"
       style="fill:#ffb753;fill-opacity:1;fill-rule:nonzero;stroke:none"
       transform="matrix(0.03527778,0,0,-0.03527778,-636.30878,254.39756)"
       clip-path="url(#clipPath879)" />
    <path
       id="path880"
       d="m 21458.2,5114 c 4.2,18.25 21.7,31.99 40.6,30.86 18.6,-1.12 33.4,-17.13 35.9,-34.94 0.6,-4.12 5.9,-6.37 9.5,-5.37 4.4,1.21 6,5.33 5.4,9.45 -3.5,24.81 -26,44.74 -50.8,46.23 -25.4,1.53 -49.7,-17.63 -55.4,-42.14 -2.3,-9.63 12.5,-13.74 14.8,-4.09"
       style="fill:#1a1a1a;fill-opacity:1;fill-rule:nonzero;stroke:none"
       transform="matrix(0.03527778,0,0,-0.03527778,-636.30878,254.39756)"
       clip-path="url(#clipPath881)" />
    <path
       id="path882"
       d="m 21367.6,5129.24 c -5.7,-49.72 -9.2,-99.65 -10.6,-149.67 -0.2,-6.39 6.5,-8.83 11.5,-6.64 20.3,8.83 38.9,20.63 55.8,34.92 7.6,6.4 -3.4,17.23 -10.9,10.87 -15.8,-13.41 -33.6,-24.23 -52.6,-32.51 3.8,-2.22 7.7,-4.43 11.5,-6.64 1.5,50.02 5,99.95 10.7,149.67 1.1,9.81 -14.3,9.73 -15.4,0"
       style="fill:#a46e4a;fill-opacity:1;fill-rule:nonzero;stroke:none"
       transform="matrix(0.03527778,0,0,-0.03527778,-636.30878,254.39756)"
       clip-path="url(#clipPath883)" />
    <path
       id="path884"
       d="m 21607.1,5015.96 c 14.5,19.52 29.1,39.05 43.6,58.57 2.5,3.33 0.5,8.58 -2.8,10.52 -3.9,2.29 -8,0.58 -10.5,-2.76 -14.5,-19.52 -29.1,-39.04 -43.6,-58.57 -2.5,-3.33 -0.5,-8.58 2.8,-10.52 3.9,-2.29 8,-0.58 10.5,2.76"
       style="fill:#a46e4a;fill-opacity:1;fill-rule:nonzero;stroke:none"
       transform="matrix(0.03527778,0,0,-0.03527778,-636.30878,254.39756)"
       clip-path="url(#clipPath885)" />
    <path
       id="path886"
       d="m 21620.6,5040.65 c 7.9,-5.23 15.8,-10.46 23.6,-15.68 3.4,-2.23 8.7,-0.77 10.5,2.76 2.1,3.86 0.9,8.13 -2.7,10.52 -7.9,5.22 -15.7,10.45 -23.6,15.67 -3.3,2.24 -8.6,0.77 -10.5,-2.75 -2,-3.87 -0.8,-8.14 2.7,-10.52"
       style="fill:#a46e4a;fill-opacity:1;fill-rule:nonzero;stroke:none"
       transform="matrix(0.03527778,0,0,-0.03527778,-636.30878,254.39756)"
       clip-path="url(#clipPath887)" />
    <path
       id="path888"
       d="m 21121.1,5077.57 c 18.8,-21.01 36.2,-43.13 52.3,-66.31 2.4,-3.41 6.7,-4.97 10.5,-2.75 3.4,1.97 5.2,7.08 2.8,10.51 -16.8,24.24 -35.1,47.45 -54.8,69.42 -6.6,7.39 -17.4,-3.52 -10.8,-10.87"
       style="fill:#a46e4a;fill-opacity:1;fill-rule:nonzero;stroke:none"
       transform="matrix(0.03527778,0,0,-0.03527778,-636.30878,254.39756)"
       clip-path="url(#clipPath889)" />
    <path
       id="path890"
       d="m 21133.7,5028.37 c 7.9,3.93 15.7,7.85 23.6,11.78 3.6,1.8 4.9,7.19 2.7,10.52 -2.3,3.69 -6.6,4.68 -10.5,2.76 -7.8,-3.93 -15.7,-7.86 -23.5,-11.78 -3.6,-1.81 -4.9,-7.19 -2.8,-10.52 2.4,-3.69 6.7,-4.69 10.5,-2.76"
       style="fill:#a46e4a;fill-opacity:1;fill-rule:nonzero;stroke:none"
       transform="matrix(0.03527778,0,0,-0.03527778,-636.30878,254.39756)"
       clip-path="url(#clipPath891)" />
    <path
       id="path892"
       d="m 21396.6,4939.65 c 28.7,-1.15 54.6,23.95 55.1,52.43 0.1,4.03 -3.6,7.88 -7.7,7.69 -4.2,-0.19 -7.6,-3.37 -7.6,-7.69 l -0.1,-2.32 c -0.1,-0.38 -0.4,-2.78 -0.1,-0.93 -0.2,-1.3 -0.4,-2.6 -0.7,-3.88 -0.4,-1.39 -0.8,-2.76 -1.3,-4.1 -0.1,-0.33 -1,-2.53 -0.3,-0.93 l -0.8,-1.8 c -1.3,-2.59 -2.8,-5.01 -4.5,-7.36 -0.9,-1.33 0.8,0.81 -0.4,-0.54 l -1.3,-1.52 c -1,-1.07 -2,-2.11 -3,-3.1 -1.1,-0.99 -2.2,-1.93 -3.3,-2.83 1.1,0.83 -0.2,-0.11 -0.6,-0.39 l -1.6,-1.12 c -1.2,-0.78 -2.5,-1.51 -3.7,-2.18 l -2.1,-1.03 c -0.3,-0.16 -2.2,-0.87 -0.6,-0.28 -2.7,-1.01 -5.4,-1.86 -8.2,-2.38 -0.4,-0.08 -2.4,-0.32 -0.6,-0.13 l -1.9,-0.18 c -1.6,-0.11 -3.1,-0.11 -4.7,-0.05 -4,0.16 -7.9,-3.65 -7.7,-7.69 0.2,-4.3 3.4,-7.52 7.7,-7.69"
       style="fill:#a46e4a;fill-opacity:1;fill-rule:nonzero;stroke:none"
       transform="matrix(0.03527778,0,0,-0.03527778,-636.30878,254.39756)"
       clip-path="url(#clipPath893)" />
    <path
       id="path894"
       d="m 21205.6,5242.71 c 44.2,9.32 73.2,72.76 54.9,119.8 38.8,-40.61 86.2,-70.11 137,-85.24 29.3,-8.73 61.7,-12.38 89.2,2.95 27.5,15.34 46.7,55.13 34.2,87.02 19.5,-40.25 49.2,-73.69 84.5,-95.11 -17,-49.6 -13.5,-107.7 9.1,-153.57 22.8,19.33 58,14.99 76.3,-9.44 25.3,57.7 8.3,135.04 -37.6,170.73 16.4,26.45 33.2,53.95 38.9,85.71 5.6,31.77 -3.1,69.17 -27.5,84.43 -16.8,10.48 -40.8,11.67 -48.4,31.94 -5.3,14.32 0.9,30.68 2.2,46.31 2.7,33.77 -19.5,64.67 -46.2,77.98 -26.8,13.31 -57.2,12.66 -86.4,10.41 -65.9,-5.07 -131.4,-17.16 -195.5,-36.08 -20.5,-6.03 -41.9,-13.6 -55.9,-31.98 -5.1,-6.76 -9.1,-14.83 -15.2,-20.36 -7.2,-6.44 -16.4,-8.67 -25.1,-11.06 -45.6,-12.37 -91.5,-35.55 -120.3,-78.55 -28.7,-43 -34.9,-109.28 -4.1,-149.45 -27.7,-33.66 -7.9,-130.19 21.5,-160.97 29.5,-30.78 76.4,-30.18 102.5,5.13 0,0 13.6,74.71 11.9,109.4"
       style="fill:#262b44;fill-opacity:1;fill-rule:nonzero;stroke:none"
       transform="matrix(0.03527778,0,0,-0.03527778,-636.30878,254.39756)"
       clip-path="url(#clipPath895)" />
    <path
       id="path896"
       d="m 21240.9,4905.77 c 1.3,-2.62 2.6,-5.24 3.9,-7.86 l 2,-2.15 c 0.7,-0.68 1.6,-1.14 2.6,-1.38 1,-0.32 2,-0.37 3,-0.14 1.1,0.05 2,0.35 2.9,0.92 1.6,1.05 3.1,2.63 3.5,4.59 l 0.3,2.04 c 0,1.39 -0.3,2.69 -1,3.88 -1.3,2.62 -2.7,5.24 -4,7.86 l -1.9,2.15 c -0.8,0.68 -1.7,1.14 -2.7,1.38 -1,0.32 -2,0.37 -3,0.14 -1,-0.05 -2,-0.35 -2.9,-0.92 -1.6,-1.05 -3.1,-2.63 -3.5,-4.59 l -0.3,-2.04 c 0,-1.39 0.4,-2.69 1.1,-3.88"
       style="fill:#1a1a1a;fill-opacity:1;fill-rule:nonzero;stroke:none"
       transform="matrix(0.03527778,0,0,-0.03527778,-636.30878,254.39756)"
       clip-path="url(#clipPath897)" />
    <path
       id="path898"
       d="m 21279.3,4860.49 c 1.4,-3.92 2.7,-7.85 4,-11.77 0.6,-1.9 1.7,-3.57 3.5,-4.6 1.6,-0.96 4.1,-1.37 5.9,-0.77 1.9,0.6 3.7,1.75 4.6,3.53 1,1.77 1.5,3.96 0.8,5.92 -1.3,3.93 -2.6,7.85 -3.9,11.78 -0.7,1.9 -1.8,3.57 -3.6,4.59 -1.6,0.97 -4,1.38 -5.9,0.78 -1.8,-0.6 -3.6,-1.75 -4.6,-3.53 -0.9,-1.78 -1.4,-3.96 -0.8,-5.93"
       style="fill:#1a1a1a;fill-opacity:1;fill-rule:nonzero;stroke:none"
       transform="matrix(0.03527778,0,0,-0.03527778,-636.30878,254.39756)"
       clip-path="url(#clipPath899)" />
    <path
       id="path900"
       d="m 21315.4,4850.8 c 1.4,-2.61 2.7,-5.23 4,-7.85 l 2,-2.15 c 0.7,-0.68 1.6,-1.14 2.6,-1.38 1,-0.32 2,-0.37 3,-0.14 1.1,0.05 2,0.35 2.9,0.91 1.6,1.06 3.1,2.64 3.5,4.6 l 0.3,2.04 c 0,1.39 -0.4,2.69 -1,3.88 -1.4,2.62 -2.7,5.24 -4,7.85 l -2,2.16 c -0.7,0.68 -1.6,1.14 -2.6,1.38 -1,0.32 -2,0.37 -3,0.14 -1.1,-0.05 -2,-0.35 -2.9,-0.92 -1.6,-1.06 -3.1,-2.63 -3.5,-4.59 l -0.3,-2.04 c 0,-1.39 0.4,-2.69 1,-3.89"
       style="fill:#1a1a1a;fill-opacity:1;fill-rule:nonzero;stroke:none"
       transform="matrix(0.03527778,0,0,-0.03527778,-636.30878,254.39756)"
       clip-path="url(#clipPath901)" />
    <path
       id="path902"
       d="m 21369.2,4803.7 h 1.5 l -2,0.27 1.7,-0.48 -1.8,0.77 1.6,-0.93 -1.6,1.21 1.5,-1.46 -1.2,1.55 0.9,-1.58 -0.8,1.84 0.5,-1.76 -0.2,2.04 v -1.51 c -0.1,-1.06 0.1,-2.04 0.6,-2.96 0.3,-0.95 0.9,-1.78 1.6,-2.47 0.7,-0.75 1.5,-1.28 2.5,-1.59 0.9,-0.48 1.9,-0.7 2.9,-0.66 l 2.1,0.27 c 1.3,0.36 2.4,1.02 3.4,1.98 l 1.2,1.55 c 0.7,1.2 1,2.5 1,3.88 0.2,1.19 -0.1,2.39 -0.2,3.56 l -0.4,1.55 c -0.5,1.07 -0.9,2.21 -1.5,3.18 -0.7,0.98 -1.4,1.95 -2.2,2.78 -0.8,0.82 -1.8,1.53 -2.8,2.16 -0.9,0.65 -2.1,1.06 -3.1,1.49 l -1.6,0.41 c -1.2,0.18 -2.4,0.43 -3.6,0.28 -1,0.04 -2,-0.18 -2.9,-0.66 -1,-0.31 -1.8,-0.84 -2.5,-1.59 -0.8,-0.7 -1.3,-1.52 -1.6,-2.47 -0.5,-0.92 -0.7,-1.91 -0.7,-2.96 l 0.3,-2.05 c 0.4,-1.3 1,-2.43 2,-3.39 l 1.5,-1.2 c 1.2,-0.7 2.5,-1.05 3.9,-1.05"
       style="fill:#1a1a1a;fill-opacity:1;fill-rule:nonzero;stroke:none"
       transform="matrix(0.03527778,0,0,-0.03527778,-636.30878,254.39756)"
       clip-path="url(#clipPath903)" />
    <path
       id="path904"
       d="m 21406.3,4835.48 c 2.7,-3.89 5.3,-7.78 8,-11.66 l 2,-2.16 c 0.7,-0.68 1.6,-1.14 2.6,-1.38 1,-0.32 2,-0.36 3.1,-0.13 1,0.04 1.9,0.35 2.8,0.91 1.7,1.06 3.1,2.63 3.6,4.59 0.4,1.94 0.4,4.23 -0.8,5.93 -2.7,3.88 -5.4,7.77 -8,11.66 l -2,2.15 c -0.8,0.68 -1.6,1.14 -2.6,1.38 -1.1,0.32 -2.1,0.37 -3.1,0.14 -1,-0.05 -2,-0.35 -2.9,-0.91 -1.6,-1.06 -3,-2.64 -3.5,-4.6 -0.4,-1.93 -0.4,-4.23 0.8,-5.92"
       style="fill:#1a1a1a;fill-opacity:1;fill-rule:nonzero;stroke:none"
       transform="matrix(0.03527778,0,0,-0.03527778,-636.30878,254.39756)"
       clip-path="url(#clipPath905)" />
    <path
       id="path906"
       d="m 21464.2,4841 c 1.4,-3.89 2.9,-7.78 4.3,-11.66 0.7,-1.92 1.7,-3.54 3.5,-4.6 1.6,-0.96 4.1,-1.37 5.9,-0.77 1.9,0.6 3.7,1.75 4.6,3.53 0.9,1.75 1.5,3.99 0.8,5.92 -1.4,3.89 -2.8,7.78 -4.2,11.67 -0.7,1.91 -1.8,3.54 -3.6,4.59 -1.6,0.97 -4,1.38 -5.9,0.78 -1.9,-0.6 -3.7,-1.76 -4.6,-3.53 -0.9,-1.75 -1.5,-4 -0.8,-5.93"
       style="fill:#1a1a1a;fill-opacity:1;fill-rule:nonzero;stroke:none"
       transform="matrix(0.03527778,0,0,-0.03527778,-636.30878,254.39756)"
       clip-path="url(#clipPath907)" />
    <path
       id="path908"
       d="m 21515.6,4903.89 c 1.2,-3.94 2.5,-7.87 3.8,-11.81 0.6,-1.89 1.8,-3.57 3.5,-4.59 1.7,-0.97 4.1,-1.38 5.9,-0.78 1.9,0.6 3.7,1.76 4.6,3.54 1,1.78 1.4,3.94 0.8,5.92 -1.3,3.94 -2.5,7.87 -3.8,11.81 -0.6,1.89 -1.8,3.57 -3.6,4.59 -1.6,0.97 -4,1.38 -5.9,0.78 -1.8,-0.6 -3.6,-1.76 -4.6,-3.54 -0.9,-1.78 -1.4,-3.94 -0.7,-5.92"
       style="fill:#1a1a1a;fill-opacity:1;fill-rule:nonzero;stroke:none"
       transform="matrix(0.03527778,0,0,-0.03527778,-636.30878,254.39756)"
       clip-path="url(#clipPath909)" />
    <path
       id="path910"
       d="m 21546,4960.68 c 0,-6.54 0,-13.09 0,-19.63 0,-4.02 3.6,-7.87 7.7,-7.69 4.2,0.19 7.7,3.38 7.7,7.69 0,6.54 0,13.09 0,19.63 0,4.02 -3.5,7.87 -7.7,7.69 -4.2,-0.19 -7.7,-3.38 -7.7,-7.69"
       style="fill:#1a1a1a;fill-opacity:1;fill-rule:nonzero;stroke:none"
       transform="matrix(0.03527778,0,0,-0.03527778,-636.30878,254.39756)"
       clip-path="url(#clipPath911)" />
    <path
       id="path912"
       d="m 21498.3,4857.03 c -1.3,-3.93 -2.6,-7.85 -3.9,-11.78 -0.4,-1.02 -0.4,-2.04 -0.2,-3.06 0.1,-1.03 0.4,-1.98 0.9,-2.86 1,-1.6 2.8,-3.12 4.6,-3.54 2,-0.44 4.2,-0.35 6,0.78 1.7,1.12 2.8,2.62 3.5,4.59 1.3,3.93 2.6,7.85 3.9,11.78 0.3,1.02 0.4,2.04 0.2,3.06 -0.1,1.03 -0.4,1.98 -0.9,2.86 -1,1.6 -2.8,3.12 -4.6,3.53 -2,0.45 -4.2,0.36 -6,-0.77 -1.7,-1.12 -2.8,-2.62 -3.5,-4.59"
       style="fill:#1a1a1a;fill-opacity:1;fill-rule:nonzero;stroke:none"
       transform="matrix(0.03527778,0,0,-0.03527778,-636.30878,254.39756)"
       clip-path="url(#clipPath913)" />
    <path
       id="path914"
       d="m 21461.4,4885.67 c -2.2,-0.53 -3.9,-1.66 -5.5,-3.09 l -2,-2.41 -0.7,-1.12 c -0.4,-0.9 -0.9,-1.97 -1.1,-2.99 -0.3,-1.04 -0.4,-2.12 -0.5,-3.19 0,-2.25 0.6,-4.21 1.6,-6.21 l 1.9,-2.15 c 0.8,-0.68 1.7,-1.14 2.7,-1.38 1,-0.32 2,-0.37 3,-0.14 1,0.05 2,0.35 2.9,0.92 l 1.5,1.2 c 1,0.96 1.7,2.09 2,3.39 l 0.3,2.04 c 0,1.39 -0.4,2.68 -1.1,3.88 l -0.1,0.27 0.8,-1.84 -0.3,1.21 0.2,-2.05 v 1.44 l -0.2,-2.04 0.4,1.58 -0.8,-1.84 0.8,1.34 -1.2,-1.56 1,1.02 -1.5,-1.2 1.1,0.63 -1.9,-0.78 0.8,0.25 c 1,0.24 1.8,0.7 2.6,1.37 l 1.9,2.16 c 0.6,0.88 0.9,1.84 1,2.86 0.2,1.02 0.1,2.04 -0.2,3.07 l -0.8,1.83 c -0.6,1.16 -1.6,2.08 -2.7,2.76 l -1.8,0.77 c -1.4,0.37 -2.8,0.37 -4.1,0"
       style="fill:#1a1a1a;fill-opacity:1;fill-rule:nonzero;stroke:none"
       transform="matrix(0.03527778,0,0,-0.03527778,-636.30878,254.39756)"
       clip-path="url(#clipPath915)" />
    <path
       id="path916"
       d="m 21209.3,4968.55 c -1.7,-3.7 -2.8,-7.62 -2.7,-11.76 0.1,-4.11 1.1,-8.04 3,-11.68 0.9,-1.66 2.8,-3.04 4.6,-3.53 1.9,-0.51 4.3,-0.28 5.9,0.77 3.7,2.34 4.8,6.7 2.8,10.52 l -0.7,1.4 0.8,-1.84 c -0.6,1.44 -1,2.94 -1.2,4.48 l 0.3,-2.05 c -0.2,1.55 -0.2,3.09 0,4.64 l -0.3,-2.05 c 0.3,1.55 0.7,3.03 1.3,4.47 l -0.8,-1.84 0.3,0.71 c 0.9,1.89 1.4,3.83 0.8,5.92 -0.5,1.78 -1.9,3.72 -3.5,4.59 -1.8,0.95 -4,1.42 -6,0.78 -1.8,-0.59 -3.7,-1.75 -4.6,-3.53"
       style="fill:#1a1a1a;fill-opacity:1;fill-rule:nonzero;stroke:none"
       transform="matrix(0.03527778,0,0,-0.03527778,-636.30878,254.39756)"
       clip-path="url(#clipPath917)" />
    <path
       id="path918"
       d="m 21445.4,5232.09 c 38.3,-13.18 77.9,-20.37 117.5,-21.37 -25.3,55.07 -89.5,69.94 -127.5,29.55 l 10,-8.18"
       style="fill:#262b44;fill-opacity:1;fill-rule:nonzero;stroke:none"
       transform="matrix(0.03527778,0,0,-0.03527778,-636.30878,254.39756)"
       clip-path="url(#clipPath919)" />
    <path
       id="path920"
       d="m 21233.8,5186.58 c 40,6.68 78.2,19.19 113.5,37.18 -48.4,36.38 -112,18.87 -126.2,-34.77 l 12.7,-2.41"
       style="fill:#262b44;fill-opacity:1;fill-rule:nonzero;stroke:none"
       transform="matrix(0.03527778,0,0,-0.03527778,-636.30878,254.39756)"
       clip-path="url(#clipPath921)" />
    <g
       id="g967"
       transform="matrix(0.26458333,0,0,0.26458333,-636.30878,-104.11637)">
      <path
         d="m 21010,4523.9 -1.3,-0.93 c -7.7,-5.57 -18.4,-3.88 -24,3.78 l -49.1,67.6 c -5.6,7.66 -3.9,18.38 3.8,23.95 l 1.2,0.93 c 7.7,5.57 18.4,3.88 24,-3.78 l 49.2,-67.6 c 5.5,-7.66 3.8,-18.38 -3.8,-23.95"
         style="fill:#ffffff;fill-opacity:1;fill-rule:nonzero;stroke:none"
         transform="matrix(0.13333333,0,0,-0.13333333,0,1355.0133)"
         clip-path="url(#clipPath922)"
         id="path945" />
      <path
         d="m 20875.1,4157.56 -1.2,-0.93 c -7.7,-5.57 -18.4,-3.88 -24,3.78 l -49.2,67.6 c -5.5,7.66 -3.8,18.38 3.8,23.95 l 1.3,0.93 c 7.7,5.57 18.4,3.88 24,-3.78 l 49.1,-67.6 c 5.6,-7.66 3.9,-18.38 -3.8,-23.95"
         style="fill:#ffffff;fill-opacity:1;fill-rule:nonzero;stroke:none"
         transform="matrix(0.13333333,0,0,-0.13333333,0,1355.0133)"
         clip-path="url(#clipPath923)"
         id="path946" />
      <path
         d="m 20808,4417.28 v 1.58 c 0.2,9.47 8,17.01 17.4,16.86 l 83.6,-1.41 c 9.5,-0.16 17,-7.96 16.9,-17.43 l -0.1,-1.58 c -0.1,-9.47 -7.9,-17.02 -17.4,-16.86 l -83.6,1.4 c -9.4,0.16 -17,7.97 -16.8,17.44"
         style="fill:#ffffff;fill-opacity:1;fill-rule:nonzero;stroke:none"
         transform="matrix(0.13333333,0,0,-0.13333333,0,1355.0133)"
         clip-path="url(#clipPath924)"
         id="path947" />
      <path
         d="m 21448.7,4564.43 -1.3,-0.93 c -7.7,-5.57 -18.4,-3.88 -24,3.78 l -49.1,67.6 c -5.6,7.66 -3.9,18.38 3.8,23.95 l 1.2,0.93 c 7.7,5.57 18.4,3.88 24,-3.78 l 49.2,-67.6 c 5.5,-7.66 3.8,-18.38 -3.8,-23.95"
         style="fill:#ffffff;fill-opacity:1;fill-rule:nonzero;stroke:none"
         transform="matrix(0.13333333,0,0,-0.13333333,0,1355.0133)"
         clip-path="url(#clipPath925)"
         id="path948" />
      <path
         d="m 21313.8,4198.09 -1.2,-0.93 c -7.7,-5.57 -18.4,-3.88 -24,3.78 l -49.2,67.6 c -5.5,7.66 -3.8,18.38 3.8,23.95 l 1.3,0.93 c 7.7,5.57 18.4,3.88 24,-3.78 l 49.1,-67.6 c 5.6,-7.66 3.9,-18.38 -3.8,-23.95"
         style="fill:#ffffff;fill-opacity:1;fill-rule:nonzero;stroke:none"
         transform="matrix(0.13333333,0,0,-0.13333333,0,1355.0133)"
         clip-path="url(#clipPath926)"
         id="path949" />
      <path
         d="m 21120.2,4614.98 0.1,1.58 c 0.1,9.47 7.9,17.02 17.4,16.86 l 83.6,-1.4 c 9.5,-0.16 17,-7.97 16.8,-17.43 V 4613 c -0.1,-9.47 -8,-17.01 -17.4,-16.85 l -83.6,1.4 c -9.5,0.16 -17,7.96 -16.9,17.43"
         style="fill:#ffffff;fill-opacity:1;fill-rule:nonzero;stroke:none"
         transform="matrix(0.13333333,0,0,-0.13333333,0,1355.0133)"
         clip-path="url(#clipPath927)"
         id="path950" />
      <path
         d="m 21246.7,4457.81 v 1.58 c 0.2,9.47 8,17.01 17.4,16.86 l 83.6,-1.41 c 9.5,-0.16 17,-7.96 16.9,-17.43 l -0.1,-1.59 c -0.1,-9.46 -7.9,-17.01 -17.4,-16.85 l -83.6,1.4 c -9.4,0.16 -17,7.97 -16.8,17.44"
         style="fill:#ffffff;fill-opacity:1;fill-rule:nonzero;stroke:none"
         transform="matrix(0.13333333,0,0,-0.13333333,0,1355.0133)"
         clip-path="url(#clipPath928)"
         id="path951" />
      <path
         d="m 21073.9,4371.96 v 1.59 c 0.2,9.47 8,17.01 17.5,16.85 l 83.5,-1.4 c 9.5,-0.16 17,-7.96 16.9,-17.43 v -1.59 c -0.2,-9.46 -8,-17.01 -17.5,-16.85 l -83.5,1.4 c -9.5,0.16 -17.1,7.97 -16.9,17.43"
         style="fill:#ffffff;fill-opacity:1;fill-rule:nonzero;stroke:none"
         transform="matrix(0.13333333,0,0,-0.13333333,0,1355.0133)"
         clip-path="url(#clipPath929)"
         id="path952" />
      <path
         d="m 21001,4208.05 v 1.58 c 0.2,9.47 8,17.02 17.5,16.86 l 83.6,-1.4 c 9.4,-0.16 17,-7.97 16.8,-17.44 v -1.58 c -0.2,-9.47 -8,-17.01 -17.4,-16.86 l -83.6,1.41 c -9.5,0.16 -17,7.96 -16.9,17.43"
         style="fill:#ffffff;fill-opacity:1;fill-rule:nonzero;stroke:none"
         transform="matrix(0.13333333,0,0,-0.13333333,0,1355.0133)"
         clip-path="url(#clipPath930)"
         id="path953" />
      <path
         d="m 21972.7,4140.75 -1.3,-0.93 c -7.7,-5.57 -18.4,-3.88 -24,3.78 l -49.1,67.6 c -5.6,7.66 -3.9,18.38 3.7,23.95 l 1.3,0.94 c 7.7,5.57 18.4,3.87 24,-3.79 l 49.1,-67.6 c 5.6,-7.65 3.9,-18.38 -3.7,-23.95"
         style="fill:#ffffff;fill-opacity:1;fill-rule:nonzero;stroke:none"
         transform="matrix(0.13333333,0,0,-0.13333333,0,1355.0133)"
         clip-path="url(#clipPath931)"
         id="path954" />
      <path
         d="m 21644.2,4191.31 0.1,1.58 c 0.1,9.47 7.9,17.02 17.4,16.86 l 83.6,-1.41 c 9.4,-0.16 17,-7.96 16.8,-17.43 v -1.58 c -0.2,-9.47 -8,-17.02 -17.4,-16.86 l -83.6,1.4 c -9.5,0.16 -17,7.97 -16.9,17.44"
         style="fill:#ffffff;fill-opacity:1;fill-rule:nonzero;stroke:none"
         transform="matrix(0.13333333,0,0,-0.13333333,0,1355.0133)"
         clip-path="url(#clipPath932)"
         id="path955" />
      <path
         d="m 21735.4,4313.56 -1.3,-0.93 c -7.7,-5.58 -18.4,-3.88 -24,3.78 l -49.1,67.6 c -5.6,7.65 -3.9,18.38 3.8,23.95 l 1.2,0.93 c 7.7,5.57 18.4,3.88 24,-3.78 l 49.2,-67.6 c 5.5,-7.66 3.8,-18.38 -3.8,-23.95"
         style="fill:#ffffff;fill-opacity:1;fill-rule:nonzero;stroke:none"
         transform="matrix(0.13333333,0,0,-0.13333333,0,1355.0133)"
         clip-path="url(#clipPath933)"
         id="path956" />
      <path
         d="m 21668.2,4573.27 v 1.59 c 0.2,9.47 8,17.01 17.5,16.85 l 83.6,-1.4 c 9.4,-0.16 17,-7.97 16.8,-17.43 v -1.59 c -0.2,-9.47 -8,-17.01 -17.5,-16.85 l -83.5,1.4 c -9.5,0.16 -17,7.96 -16.9,17.43"
         style="fill:#ffffff;fill-opacity:1;fill-rule:nonzero;stroke:none"
         transform="matrix(0.13333333,0,0,-0.13333333,0,1355.0133)"
         clip-path="url(#clipPath934)"
         id="path957" />
      <path
         d="m 21438.9,4120.95 -1,1.23 c -6,7.3 -5,18.1 2.3,24.14 l 64.5,53.22 c 7.3,6.03 18.1,5 24.1,-2.3 l 1,-1.22 c 6,-7.31 5,-18.11 -2.3,-24.14 l -64.4,-53.23 c -7.3,-6.03 -18.2,-5 -24.2,2.3"
         style="fill:#ffffff;fill-opacity:1;fill-rule:nonzero;stroke:none"
         transform="matrix(0.13333333,0,0,-0.13333333,0,1355.0133)"
         clip-path="url(#clipPath935)"
         id="path958" />
      <path
         d="m 21495.4,4487.43 0.1,1.59 c 0.1,9.46 7.9,17.01 17.4,16.85 l 83.6,-1.4 c 9.4,-0.16 17,-7.97 16.8,-17.43 v -1.59 c -0.2,-9.47 -8,-17.01 -17.4,-16.85 l -83.6,1.4 c -9.5,0.16 -17,7.96 -16.9,17.43"
         style="fill:#ffffff;fill-opacity:1;fill-rule:nonzero;stroke:none"
         transform="matrix(0.13333333,0,0,-0.13333333,0,1355.0133)"
         clip-path="url(#clipPath936)"
         id="path959" />
      <path
         d="m 21934.1,4527.96 0.1,1.58 c 0.1,9.47 7.9,17.02 17.4,16.86 l 83.6,-1.4 c 9.4,-0.16 17,-7.97 16.8,-17.44 v -1.58 c -0.2,-9.47 -8,-17.01 -17.4,-16.86 l -83.6,1.41 c -9.5,0.16 -17,7.96 -16.9,17.43"
         style="fill:#ffffff;fill-opacity:1;fill-rule:nonzero;stroke:none"
         transform="matrix(0.13333333,0,0,-0.13333333,0,1355.0133)"
         clip-path="url(#clipPath937)"
         id="path960" />
      <path
         d="m 21861.3,4364.05 v 1.58 c 0.1,9.47 7.9,17.02 17.4,16.86 l 83.6,-1.41 c 9.5,-0.16 17,-7.96 16.8,-17.43 v -1.58 c -0.1,-9.47 -7.9,-17.02 -17.4,-16.86 l -83.6,1.4 c -9.5,0.16 -17,7.97 -16.8,17.44"
         style="fill:#ffffff;fill-opacity:1;fill-rule:nonzero;stroke:none"
         transform="matrix(0.13333333,0,0,-0.13333333,0,1355.0133)"
         clip-path="url(#clipPath938)"
         id="path961" />
      <path
         d="m 21434.1,4360.01 0.9,1.32 c 5.2,7.88 15.9,10.01 23.7,4.77 l 69.6,-46.33 c 7.9,-5.24 10,-15.89 4.8,-23.77 l -0.9,-1.32 c -5.2,-7.88 -15.9,-10.02 -23.8,-4.77 l -69.5,46.32 c -7.9,5.25 -10.1,15.9 -4.8,23.78"
         style="fill:#ffffff;fill-opacity:1;fill-rule:nonzero;stroke:none"
         transform="matrix(0.13333333,0,0,-0.13333333,0,1355.0133)"
         clip-path="url(#clipPath939)"
         id="path962" />
      <path
         d="m 21023.3,4660.61 c 76.5,-132.46 228.1,-217.9 381,-214.69 73,1.54 146.4,22.49 205.9,64.83 59.5,42.33 104.2,106.75 117.3,178.58 -69.5,6.29 -139.2,12.58 -208.9,9.86 -53.6,-2.09 -106.9,-9.51 -160.3,-14.42 -111.7,-10.26 -224.1,-9.57 -336.3,-8.87 l 1.3,-15.29"
         style="fill:#ce7d1d;fill-opacity:1;fill-rule:nonzero;stroke:none"
         transform="matrix(0.13333333,0,0,-0.13333333,0,1355.0133)"
         clip-path="url(#clipPath940)"
         id="path963" />
      <path
         d="m 20996.5,4371.51 c -0.8,-87.39 -1.6,-174.78 -2.4,-262.17 -0.2,-25.15 -0.4,-50.3 -0.6,-75.46 -0.1,-9.89 15.2,-9.9 15.3,0 0.8,87.39 1.6,174.78 2.4,262.17 0.2,25.15 0.4,50.31 0.6,75.46 0.1,9.89 -15.2,9.9 -15.3,0"
         style="fill:#ce7d1d;fill-opacity:1;fill-rule:nonzero;stroke:none"
         transform="matrix(0.13333333,0,0,-0.13333333,0,1355.0133)"
         clip-path="url(#clipPath941)"
         id="path964" />
      <path
         d="m 21799,4391.11 c 4.4,-93 10.4,-185.93 18.1,-278.71 2.2,-26.14 4.6,-52.28 7,-78.4 0.9,-9.77 16.3,-9.86 15.4,0 -8.7,92.7 -15.8,185.55 -21,278.5 -1.5,26.2 -2.9,52.4 -4.1,78.61 -0.5,9.85 -15.8,9.91 -15.4,0"
         style="fill:#ce7d1d;fill-opacity:1;fill-rule:nonzero;stroke:none"
         transform="matrix(0.13333333,0,0,-0.13333333,0,1355.0133)"
         clip-path="url(#clipPath942)"
         id="path965" />
      <path
         d="m 21269.1,4141.05 c 40.6,23.33 82,45.31 124.1,65.83 40.8,19.84 82.2,39.31 125.9,51.65 24.8,6.97 50.1,11.39 75.8,11.95 9.9,0.22 9.9,15.6 0,15.38 -46,-1.02 -90.5,-13.78 -132.9,-30.97 -44,-17.86 -86.8,-39.17 -128.9,-61.17 -24.2,-12.66 -48.1,-25.8 -71.8,-39.39 -8.6,-4.93 -0.9,-18.22 7.8,-13.28"
         style="fill:#ce7d1d;fill-opacity:1;fill-rule:nonzero;stroke:none"
         transform="matrix(0.13333333,0,0,-0.13333333,0,1355.0133)"
         clip-path="url(#clipPath943)"
         id="path966" />
      <path
         d="m 21323.8,4129.73 c 66.8,39.47 138.7,70.17 213.5,91.03 21.1,5.91 42.5,11 64.1,15.35 9.7,1.95 5.6,16.78 -4.1,14.83 -77,-15.55 -151.9,-41.16 -222.3,-75.98 -20.1,-9.91 -39.7,-20.59 -59,-31.96 -8.5,-5.02 -0.8,-18.32 7.8,-13.27"
         style="fill:#ce7d1d;fill-opacity:1;fill-rule:nonzero;stroke:none"
         transform="matrix(0.13333333,0,0,-0.13333333,0,1355.0133)"
         clip-path="url(#clipPath944)"
         id="path967" />
    </g>
  </g>
</svg>
