<?xml version="1.0" encoding="UTF-8" standalone="no"?>
<!-- Created with Inkscape (http://www.inkscape.org/) -->

<svg
   width="64.332558mm"
   height="64.332207mm"
   viewBox="0 0 64.332558 64.332207"
   version="1.1"
   id="svg1"
   inkscape:version="1.3.2 (091e20e, 2023-11-25)"
   sodipodi:docname="afro-big-chin-guy-avatar.svg"
   xmlns:inkscape="http://www.inkscape.org/namespaces/inkscape"
   xmlns:sodipodi="http://sodipodi.sourceforge.net/DTD/sodipodi-0.dtd"
   xmlns="http://www.w3.org/2000/svg"
   xmlns:svg="http://www.w3.org/2000/svg">
  <sodipodi:namedview
     id="namedview1"
     pagecolor="#ffffff"
     bordercolor="#000000"
     borderopacity="0.25"
     inkscape:showpageshadow="2"
     inkscape:pageopacity="0.0"
     inkscape:pagecheckerboard="0"
     inkscape:deskcolor="#d1d1d1"
     inkscape:document-units="mm"
     inkscape:zoom="0.922391"
     inkscape:cx="-116.54494"
     inkscape:cy="94.862157"
     inkscape:window-width="1920"
     inkscape:window-height="1052"
     inkscape:window-x="0"
     inkscape:window-y="28"
     inkscape:window-maximized="0"
     inkscape:current-layer="layer1" />
  <defs
     id="defs1">
    <clipPath
       clipPathUnits="userSpaceOnUse"
       id="clipPath2709">
      <path
         d="m 28813.9,5084.48 c 0,-503.57 -408.2,-911.8 -911.8,-911.8 -503.5,0 -911.8,408.23 -911.8,911.8 0,503.57 408.3,911.79 911.8,911.79 503.6,0 911.8,-408.22 911.8,-911.79"
         transform="translate(0,-2.5e-4)"
         id="path2709" />
    </clipPath>
    <clipPath
       clipPathUnits="userSpaceOnUse"
       id="clipPath2711">
      <path
         d="m 28813.9,5084.48 c 0,-503.57 -408.2,-911.8 -911.8,-911.8 -503.5,0 -911.8,408.23 -911.8,911.8 0,503.57 408.3,911.79 911.8,911.79 503.6,0 911.8,-408.22 911.8,-911.79"
         transform="translate(0,-2.5e-4)"
         id="path2711" />
    </clipPath>
    <clipPath
       clipPathUnits="userSpaceOnUse"
       id="clipPath2713">
      <path
         d="m 28813.9,5084.48 c 0,-503.57 -408.2,-911.8 -911.8,-911.8 -503.5,0 -911.8,408.23 -911.8,911.8 0,503.57 408.3,911.79 911.8,911.79 503.6,0 911.8,-408.22 911.8,-911.79"
         transform="translate(0,-2.5e-4)"
         id="path2713" />
    </clipPath>
    <clipPath
       clipPathUnits="userSpaceOnUse"
       id="clipPath2714">
      <path
         d="m 28412.9,4563.17 c -95.9,56.81 -211.8,79.56 -325,99.66 -6.9,1.23 -14,2.56 -19.6,6.4 -9.5,6.57 12.1,125.19 0,221.85 l -161.5,-13.38 -161.5,13.38 c -12.1,-96.66 9.5,-215.28 0,-221.85 -5.5,-3.84 -12.7,-5.17 -19.6,-6.4 -113.2,-20.1 -229.1,-42.85 -325,-99.66 -95.9,-56.8 -168.5,-412.01 -153.1,-513.18 96.3,0.43 365.1,-1.11 637.3,-4.27 v -0.52 c 7.3,0.08 14.6,0.17 21.9,0.26 7.3,-0.09 14.6,-0.18 21.9,-0.26 v 0.52 c 272.2,3.16 541,4.7 637.3,4.27 15.4,101.17 -57.2,456.38 -153.1,513.18"
         transform="translate(0,-2.5e-4)"
         id="path2714" />
    </clipPath>
    <clipPath
       clipPathUnits="userSpaceOnUse"
       id="clipPath2717">
      <path
         d="m 28813.9,5084.48 c 0,-503.57 -408.2,-911.8 -911.8,-911.8 -503.5,0 -911.8,408.23 -911.8,911.8 0,503.57 408.3,911.79 911.8,911.79 503.6,0 911.8,-408.22 911.8,-911.79"
         transform="translate(0,-2.5e-4)"
         id="path2717" />
    </clipPath>
    <clipPath
       clipPathUnits="userSpaceOnUse"
       id="clipPath2719">
      <path
         d="m 28813.9,5084.48 c 0,-503.57 -408.2,-911.8 -911.8,-911.8 -503.5,0 -911.8,408.23 -911.8,911.8 0,503.57 408.3,911.79 911.8,911.79 503.6,0 911.8,-408.22 911.8,-911.79"
         transform="translate(0,-2.5e-4)"
         id="path2719" />
    </clipPath>
    <clipPath
       clipPathUnits="userSpaceOnUse"
       id="clipPath2721">
      <path
         d="m 28813.9,5084.48 c 0,-503.57 -408.2,-911.8 -911.8,-911.8 -503.5,0 -911.8,408.23 -911.8,911.8 0,503.57 408.3,911.79 911.8,911.79 503.6,0 911.8,-408.22 911.8,-911.79"
         transform="translate(0,-2.5e-4)"
         id="path2721" />
    </clipPath>
    <clipPath
       clipPathUnits="userSpaceOnUse"
       id="clipPath2723">
      <path
         d="m 28813.9,5084.48 c 0,-503.57 -408.2,-911.8 -911.8,-911.8 -503.5,0 -911.8,408.23 -911.8,911.8 0,503.57 408.3,911.79 911.8,911.79 503.6,0 911.8,-408.22 911.8,-911.79"
         transform="translate(0,-2.5e-4)"
         id="path2723" />
    </clipPath>
    <clipPath
       clipPathUnits="userSpaceOnUse"
       id="clipPath2725">
      <path
         d="m 28813.9,5084.48 c 0,-503.57 -408.2,-911.8 -911.8,-911.8 -503.5,0 -911.8,408.23 -911.8,911.8 0,503.57 408.3,911.79 911.8,911.79 503.6,0 911.8,-408.22 911.8,-911.79"
         transform="translate(0,-2.5e-4)"
         id="path2725" />
    </clipPath>
    <clipPath
       clipPathUnits="userSpaceOnUse"
       id="clipPath2727">
      <path
         d="m 28813.9,5084.48 c 0,-503.57 -408.2,-911.8 -911.8,-911.8 -503.5,0 -911.8,408.23 -911.8,911.8 0,503.57 408.3,911.79 911.8,911.79 503.6,0 911.8,-408.22 911.8,-911.79"
         transform="translate(0,-2.5e-4)"
         id="path2727" />
    </clipPath>
    <clipPath
       clipPathUnits="userSpaceOnUse"
       id="clipPath2729">
      <path
         d="m 28813.9,5084.48 c 0,-503.57 -408.2,-911.8 -911.8,-911.8 -503.5,0 -911.8,408.23 -911.8,911.8 0,503.57 408.3,911.79 911.8,911.79 503.6,0 911.8,-408.22 911.8,-911.79"
         transform="translate(0,-2.5e-4)"
         id="path2729" />
    </clipPath>
    <clipPath
       clipPathUnits="userSpaceOnUse"
       id="clipPath2731">
      <path
         d="m 28813.9,5084.48 c 0,-503.57 -408.2,-911.8 -911.8,-911.8 -503.5,0 -911.8,408.23 -911.8,911.8 0,503.57 408.3,911.79 911.8,911.79 503.6,0 911.8,-408.22 911.8,-911.79"
         transform="translate(0,-2.5e-4)"
         id="path2731" />
    </clipPath>
    <clipPath
       clipPathUnits="userSpaceOnUse"
       id="clipPath2733">
      <path
         d="m 28813.9,5084.48 c 0,-503.57 -408.2,-911.8 -911.8,-911.8 -503.5,0 -911.8,408.23 -911.8,911.8 0,503.57 408.3,911.79 911.8,911.79 503.6,0 911.8,-408.22 911.8,-911.79"
         transform="translate(0,-2.5e-4)"
         id="path2733" />
    </clipPath>
    <clipPath
       clipPathUnits="userSpaceOnUse"
       id="clipPath2735">
      <path
         d="m 28813.9,5084.48 c 0,-503.57 -408.2,-911.8 -911.8,-911.8 -503.5,0 -911.8,408.23 -911.8,911.8 0,503.57 408.3,911.79 911.8,911.79 503.6,0 911.8,-408.22 911.8,-911.79"
         transform="translate(0,-2.5e-4)"
         id="path2735" />
    </clipPath>
    <clipPath
       clipPathUnits="userSpaceOnUse"
       id="clipPath2737">
      <path
         d="m 28813.9,5084.48 c 0,-503.57 -408.2,-911.8 -911.8,-911.8 -503.5,0 -911.8,408.23 -911.8,911.8 0,503.57 408.3,911.79 911.8,911.79 503.6,0 911.8,-408.22 911.8,-911.79"
         transform="translate(0,-2.5e-4)"
         id="path2737" />
    </clipPath>
    <clipPath
       clipPathUnits="userSpaceOnUse"
       id="clipPath2739">
      <path
         d="m 28813.9,5084.48 c 0,-503.57 -408.2,-911.8 -911.8,-911.8 -503.5,0 -911.8,408.23 -911.8,911.8 0,503.57 408.3,911.79 911.8,911.79 503.6,0 911.8,-408.22 911.8,-911.79"
         transform="translate(0,-2.5e-4)"
         id="path2739" />
    </clipPath>
    <clipPath
       clipPathUnits="userSpaceOnUse"
       id="clipPath2741">
      <path
         d="m 28813.9,5084.48 c 0,-503.57 -408.2,-911.8 -911.8,-911.8 -503.5,0 -911.8,408.23 -911.8,911.8 0,503.57 408.3,911.79 911.8,911.79 503.6,0 911.8,-408.22 911.8,-911.79"
         transform="translate(0,-2.5e-4)"
         id="path2741" />
    </clipPath>
    <clipPath
       clipPathUnits="userSpaceOnUse"
       id="clipPath2743">
      <path
         d="m 28813.9,5084.48 c 0,-503.57 -408.2,-911.8 -911.8,-911.8 -503.5,0 -911.8,408.23 -911.8,911.8 0,503.57 408.3,911.79 911.8,911.79 503.6,0 911.8,-408.22 911.8,-911.79"
         transform="translate(0,-2.5e-4)"
         id="path2743" />
    </clipPath>
    <clipPath
       clipPathUnits="userSpaceOnUse"
       id="clipPath2745">
      <path
         d="m 28813.9,5084.48 c 0,-503.57 -408.2,-911.8 -911.8,-911.8 -503.5,0 -911.8,408.23 -911.8,911.8 0,503.57 408.3,911.79 911.8,911.79 503.6,0 911.8,-408.22 911.8,-911.79"
         transform="translate(0,-2.5e-4)"
         id="path2745" />
    </clipPath>
    <clipPath
       clipPathUnits="userSpaceOnUse"
       id="clipPath2747">
      <path
         d="m 28813.9,5084.48 c 0,-503.57 -408.2,-911.8 -911.8,-911.8 -503.5,0 -911.8,408.23 -911.8,911.8 0,503.57 408.3,911.79 911.8,911.79 503.6,0 911.8,-408.22 911.8,-911.79"
         transform="translate(0,-2.5e-4)"
         id="path2747" />
    </clipPath>
    <clipPath
       clipPathUnits="userSpaceOnUse"
       id="clipPath2749">
      <path
         d="m 28813.9,5084.48 c 0,-503.57 -408.2,-911.8 -911.8,-911.8 -503.5,0 -911.8,408.23 -911.8,911.8 0,503.57 408.3,911.79 911.8,911.79 503.6,0 911.8,-408.22 911.8,-911.79"
         transform="translate(0,-2.5e-4)"
         id="path2749" />
    </clipPath>
    <clipPath
       clipPathUnits="userSpaceOnUse"
       id="clipPath2751">
      <path
         d="m 28813.9,5084.48 c 0,-503.57 -408.2,-911.8 -911.8,-911.8 -503.5,0 -911.8,408.23 -911.8,911.8 0,503.57 408.3,911.79 911.8,911.79 503.6,0 911.8,-408.22 911.8,-911.79"
         transform="translate(0,-2.5e-4)"
         id="path2751" />
    </clipPath>
    <clipPath
       clipPathUnits="userSpaceOnUse"
       id="clipPath2753">
      <path
         d="m 28813.9,5084.48 c 0,-503.57 -408.2,-911.8 -911.8,-911.8 -503.5,0 -911.8,408.23 -911.8,911.8 0,503.57 408.3,911.79 911.8,911.79 503.6,0 911.8,-408.22 911.8,-911.79"
         transform="translate(0,-2.5e-4)"
         id="path2753" />
    </clipPath>
    <clipPath
       clipPathUnits="userSpaceOnUse"
       id="clipPath2755">
      <path
         d="m 28813.9,5084.48 c 0,-503.57 -408.2,-911.8 -911.8,-911.8 -503.5,0 -911.8,408.23 -911.8,911.8 0,503.57 408.3,911.79 911.8,911.79 503.6,0 911.8,-408.22 911.8,-911.79"
         transform="translate(0,-2.5e-4)"
         id="path2755" />
    </clipPath>
    <clipPath
       clipPathUnits="userSpaceOnUse"
       id="clipPath2757">
      <path
         d="m 28813.9,5084.48 c 0,-503.57 -408.2,-911.8 -911.8,-911.8 -503.5,0 -911.8,408.23 -911.8,911.8 0,503.57 408.3,911.79 911.8,911.79 503.6,0 911.8,-408.22 911.8,-911.79"
         transform="translate(0,-2.5e-4)"
         id="path2757" />
    </clipPath>
    <clipPath
       clipPathUnits="userSpaceOnUse"
       id="clipPath2759">
      <path
         d="m 28813.9,5084.48 c 0,-503.57 -408.2,-911.8 -911.8,-911.8 -503.5,0 -911.8,408.23 -911.8,911.8 0,503.57 408.3,911.79 911.8,911.79 503.6,0 911.8,-408.22 911.8,-911.79"
         transform="translate(0,-2.5e-4)"
         id="path2759" />
    </clipPath>
    <clipPath
       clipPathUnits="userSpaceOnUse"
       id="clipPath2761">
      <path
         d="m 28813.9,5084.48 c 0,-503.57 -408.2,-911.8 -911.8,-911.8 -503.5,0 -911.8,408.23 -911.8,911.8 0,503.57 408.3,911.79 911.8,911.79 503.6,0 911.8,-408.22 911.8,-911.79"
         transform="translate(0,-2.5e-4)"
         id="path2761" />
    </clipPath>
    <clipPath
       clipPathUnits="userSpaceOnUse"
       id="clipPath2763">
      <path
         d="m 28813.9,5084.48 c 0,-503.57 -408.2,-911.8 -911.8,-911.8 -503.5,0 -911.8,408.23 -911.8,911.8 0,503.57 408.3,911.79 911.8,911.79 503.6,0 911.8,-408.22 911.8,-911.79"
         transform="translate(0,-2.5e-4)"
         id="path2763" />
    </clipPath>
    <clipPath
       clipPathUnits="userSpaceOnUse"
       id="clipPath2765">
      <path
         d="m 28813.9,5084.48 c 0,-503.57 -408.2,-911.8 -911.8,-911.8 -503.5,0 -911.8,408.23 -911.8,911.8 0,503.57 408.3,911.79 911.8,911.79 503.6,0 911.8,-408.22 911.8,-911.79"
         transform="translate(0,-2.5e-4)"
         id="path2765" />
    </clipPath>
    <clipPath
       clipPathUnits="userSpaceOnUse"
       id="clipPath2767">
      <path
         d="m 28813.9,5084.48 c 0,-503.57 -408.2,-911.8 -911.8,-911.8 -503.5,0 -911.8,408.23 -911.8,911.8 0,503.57 408.3,911.79 911.8,911.79 503.6,0 911.8,-408.22 911.8,-911.79"
         transform="translate(0,-2.5e-4)"
         id="path2767" />
    </clipPath>
  </defs>
  <g
     inkscape:label="Layer 1"
     inkscape:groupmode="layer"
     id="layer1"
     transform="translate(-64.822996,-107.4208)">
    <path
       id="path2708"
       d="m 28813.9,5084.48 c 0,-503.57 -408.2,-911.8 -911.8,-911.8 -503.5,0 -911.8,408.23 -911.8,911.8 0,503.57 408.3,911.79 911.8,911.79 503.6,0 911.8,-408.22 911.8,-911.79"
       style="fill:#a59eff;fill-opacity:1;fill-rule:nonzero;stroke:none"
       transform="matrix(0.03527778,0,0,-0.03527778,-887.33487,318.95589)"
       clip-path="url(#clipPath2709)" />
    <path
       id="path2710"
       d="m 27641,5084.58 c -8.2,-69.24 -16.1,-141.87 8.9,-206.8 10.9,-28.1 27.4,-53.49 44.5,-78.17 10.5,-15.2 21.3,-30.32 34.4,-43.19 31.6,-30.95 75.1,-46.93 118.5,-52.61 43.5,-5.69 87.6,-1.91 131.2,1.89 19.8,1.71 40.2,3.57 57.9,12.58 20.1,10.12 34.8,28.23 49,45.88 47.1,58.92 95.4,123.02 102.6,198.66 2.2,23.37 0.3,46.91 -1.7,70.28 -2.9,32.72 -6.1,65.4 -9.7,98.05 -1.5,13.83 -3.2,79.33 -10.1,91.38 -8.2,14.43 -22.8,23.9 -37.7,30.71 -44.6,20.34 -95.4,21.41 -144,16.37 -48.6,-5.04 -96.6,-15.84 -145.4,-18.03 l -198.4,-167"
       style="fill:#241e21;fill-opacity:1;fill-rule:nonzero;stroke:none"
       transform="matrix(0.03527778,0,0,-0.03527778,-887.33487,318.95589)"
       clip-path="url(#clipPath2711)" />
    <path
       id="path2712"
       d="m 28412.9,4563.17 c -95.9,56.81 -211.8,79.56 -325,99.66 -6.9,1.23 -14,2.56 -19.6,6.4 -9.5,6.57 12.1,125.19 0,221.85 l -161.5,-13.38 -161.5,13.38 c -12.1,-96.66 9.5,-215.28 0,-221.85 -5.5,-3.84 -12.7,-5.17 -19.6,-6.4 -113.2,-20.1 -229.1,-42.85 -325,-99.66 -95.9,-56.8 -168.5,-412.01 -153.1,-513.18 96.3,0.43 365.1,-1.11 637.3,-4.27 v -0.52 c 7.3,0.08 14.6,0.17 21.9,0.26 7.3,-0.09 14.6,-0.18 21.9,-0.26 v 0.52 c 272.2,3.16 541,4.7 637.3,4.27 15.4,101.17 -57.2,456.38 -153.1,513.18"
       style="fill:#b77456;fill-opacity:1;fill-rule:nonzero;stroke:none"
       transform="matrix(0.03527778,0,0,-0.03527778,-887.33487,318.95589)"
       clip-path="url(#clipPath2713)" />
    <g
       id="g2715"
       transform="matrix(0.26458333,0,0,0.26458333,-887.33487,-39.558037)">
      <path
         d="m 27906.7,4638.83 c -54.3,0 -110.7,31.46 -160.2,74.91 -1.9,28.61 -5,67.88 -5,108.65 0,22.97 1,46.42 3.8,68.69 l 161.5,-13.38 161.5,13.38 c 2.8,-22.27 3.8,-45.72 3.8,-68.69 0,-39.03 -2.9,-76.69 -4.7,-104.93 -44,-45.7 -97.7,-78.63 -160.7,-78.63"
         style="fill:#8d5239;fill-opacity:1;fill-rule:nonzero;stroke:none"
         transform="matrix(0.13333333,0,0,-0.13333333,0,1355.0133)"
         clip-path="url(#clipPath2714)"
         id="path2715" />
    </g>
    <path
       id="path2716"
       d="m 27667.2,5389.34 c -37.1,-106.73 -28,-344.96 0,-453.7 l 0.4,-1.75 c 15.2,-58.36 39.4,-116.64 85.1,-162.07 45.6,-45.42 115.9,-76.14 185.4,-68.09 67.4,7.8 123.8,50.35 156.7,100.95 32.8,50.61 45.4,108.74 54.6,166.02 15.9,99.74 11.8,415.85 0.5,416.67 -144.9,10.44 -341.7,35.7 -482.7,5.43 v -3.46"
       style="fill:#b77456;fill-opacity:1;fill-rule:nonzero;stroke:none"
       transform="matrix(0.03527778,0,0,-0.03527778,-887.33487,318.95589)"
       clip-path="url(#clipPath2717)" />
    <path
       id="path2718"
       d="m 28143.6,5024.2 c 3.5,22.83 34.6,37.11 59.5,30.41 25,-6.7 41.4,-29.59 43.3,-52.58 1.8,-22.98 -8.7,-45.6 -23.6,-64.5 -24.9,-31.52 -68.6,-55.99 -110.6,-46.24 6.7,47.26 16.2,94.21 28.7,140.56 l 2.7,-7.65"
       style="fill:#b77456;fill-opacity:1;fill-rule:nonzero;stroke:none"
       transform="matrix(0.03527778,0,0,-0.03527778,-887.33487,318.95589)"
       clip-path="url(#clipPath2719)" />
    <path
       id="path2720"
       d="m 27671,5024.2 c -3.5,22.83 -34.6,37.11 -59.5,30.41 -25,-6.7 -41.4,-29.59 -43.3,-52.58 -1.8,-22.98 8.7,-45.6 23.6,-64.5 24.9,-31.52 68.6,-55.99 110.6,-46.24 -6.7,47.26 -16.2,94.21 -28.7,140.56 l -2.7,-7.65"
       style="fill:#b77456;fill-opacity:1;fill-rule:nonzero;stroke:none"
       transform="matrix(0.03527778,0,0,-0.03527778,-887.33487,318.95589)"
       clip-path="url(#clipPath2721)" />
    <path
       id="path2722"
       d="m 28156.6,4953.87 c 13.1,13.78 26.1,24.12 42.3,33.63 3.5,2.04 5,7.02 2.7,10.52 -2.2,3.49 -6.8,4.93 -10.5,2.75 -16.7,-9.81 -32,-21.98 -45.3,-36.03 -2.8,-2.92 -3.2,-8.01 0,-10.87 3,-2.75 7.9,-3.11 10.8,0"
       style="fill:#66331f;fill-opacity:1;fill-rule:nonzero;stroke:none"
       transform="matrix(0.03527778,0,0,-0.03527778,-887.33487,318.95589)"
       clip-path="url(#clipPath2723)" />
    <path
       id="path2724"
       d="m 28170.6,4961.24 c 5.3,-6.43 10.7,-12.86 16,-19.3 1.2,-1.43 3.7,-2.25 5.5,-2.25 1.9,0 4.1,0.84 5.4,2.25 1.4,1.47 2.3,3.39 2.3,5.44 -0.1,2.14 -0.9,3.79 -2.3,5.43 -5.4,6.43 -10.7,12.87 -16.1,19.3 -1.2,1.43 -3.6,2.25 -5.4,2.25 -1.9,0 -4.1,-0.84 -5.4,-2.25 -1.4,-1.47 -2.4,-3.39 -2.3,-5.43 0.1,-2.14 0.9,-3.79 2.3,-5.44"
       style="fill:#66331f;fill-opacity:1;fill-rule:nonzero;stroke:none"
       transform="matrix(0.03527778,0,0,-0.03527778,-887.33487,318.95589)"
       clip-path="url(#clipPath2725)" />
    <path
       id="path2726"
       d="m 27603.1,4995.58 c 17.6,-10.25 30.3,-27.21 35.3,-47 1,-4.02 5.5,-6.45 9.5,-5.36 4.1,1.12 6.4,5.41 5.3,9.45 -5.9,23.44 -21.4,44.02 -42.3,56.18 -3.6,2.09 -8.4,0.83 -10.5,-2.75 -2.1,-3.59 -0.9,-8.42 2.7,-10.52"
       style="fill:#66331f;fill-opacity:1;fill-rule:nonzero;stroke:none"
       transform="matrix(0.03527778,0,0,-0.03527778,-887.33487,318.95589)"
       clip-path="url(#clipPath2727)" />
    <path
       id="path2728"
       d="m 27621,4962.53 c 0.6,1.42 1.4,2.74 2.3,3.97 l -1.2,-1.55 c 1.1,1.34 2.3,2.54 3.6,3.59 l -1.5,-1.2 c 1.4,1.09 2.9,1.98 4.5,2.68 l -1.8,-0.78 c 1.5,0.62 3.1,1.05 4.7,1.28 l -2.1,-0.27 0.7,0.08 c 1.1,-0.04 2.1,0.18 3,0.66 0.9,0.31 1.8,0.84 2.5,1.59 1.3,1.34 2.3,3.52 2.2,5.44 -0.1,1.98 -0.7,4.04 -2.2,5.43 -1.5,1.29 -3.5,2.46 -5.5,2.25 -4.7,-0.51 -9.4,-1.88 -13.3,-4.74 -3.9,-2.8 -7.2,-6.28 -9.2,-10.68 -0.5,-0.88 -0.8,-1.83 -0.9,-2.85 -0.2,-1.02 -0.2,-2.04 0.2,-3.07 0.4,-1.78 1.8,-3.71 3.5,-4.59 1.8,-0.94 3.9,-1.41 5.9,-0.77 1.8,0.57 3.8,1.74 4.6,3.53"
       style="fill:#66331f;fill-opacity:1;fill-rule:nonzero;stroke:none"
       transform="matrix(0.03527778,0,0,-0.03527778,-887.33487,318.95589)"
       clip-path="url(#clipPath2729)" />
    <path
       id="path2730"
       d="m 27829.4,5091.12 c 0,-21.76 -17.1,-39.41 -38.1,-39.41 -21.1,0 -38.2,17.65 -38.2,39.41 0,21.76 17.1,39.4 38.2,39.4 21,0 38.1,-17.64 38.1,-39.4"
       style="fill:#1a1a1a;fill-opacity:1;fill-rule:nonzero;stroke:none"
       transform="matrix(0.03527778,0,0,-0.03527778,-887.33487,318.95589)"
       clip-path="url(#clipPath2731)" />
    <path
       id="path2732"
       d="m 28059.5,5086 c 0,-21.77 -17.1,-39.41 -38.1,-39.41 -21.1,0 -38.2,17.64 -38.2,39.41 0,21.76 17.1,39.4 38.2,39.4 21,0 38.1,-17.64 38.1,-39.4"
       style="fill:#1a1a1a;fill-opacity:1;fill-rule:nonzero;stroke:none"
       transform="matrix(0.03527778,0,0,-0.03527778,-887.33487,318.95589)"
       clip-path="url(#clipPath2733)" />
    <path
       id="path2734"
       d="m 28009.3,5191.13 c 2.1,2.64 4.5,4.8 6.8,7.16 1.5,1.49 -2.1,-1.43 -0.4,-0.24 l 2,1.32 c 1.4,0.97 2.9,1.85 4.5,2.65 l 2,1.02 c -0.1,0.12 -2.8,-1.05 -0.4,-0.22 1.6,0.58 3.3,1.13 5,1.55 l 2.3,0.52 c 0.4,0.08 3,0.52 0.8,0.19 -2.2,-0.32 0.4,0.01 0.8,0.04 1,0.07 2,0.11 2.9,0.12 l 4.7,-0.21 c -0.1,-0.19 -3.3,0.58 -0.7,0.08 l 2.3,-0.46 c 1.7,-0.38 3.4,-0.86 5,-1.43 0.4,-0.13 2.9,-0.97 0.9,-0.26 -1.9,0.69 0.4,-0.23 0.8,-0.41 1.6,-0.76 3.1,-1.6 4.6,-2.53 l 1.9,-1.28 c 1.9,-1.24 0.2,0.32 -0.3,0.31 l 3.9,-3.51 c 1.2,-1.24 2.3,-2.56 3.4,-3.92 5.1,-6.31 16.6,-5.66 21.8,0 6.1,6.69 5.3,15 0,21.73 -11.4,14.23 -30.1,22.74 -48.3,22.62 -18.1,-0.11 -36.8,-8.7 -48,-23.1 -2.6,-3.37 -4.5,-6.42 -4.5,-10.87 0,-3.77 1.7,-8.27 4.5,-10.87 5.5,-5.05 16.5,-6.77 21.7,0"
       style="fill:#1a1a1a;fill-opacity:1;fill-rule:nonzero;stroke:none"
       transform="matrix(0.03527778,0,0,-0.03527778,-887.33487,318.95589)"
       clip-path="url(#clipPath2735)" />
    <path
       id="path2736"
       d="m 27763.5,5175.77 c 2,2.64 4.4,4.79 6.7,7.15 1.5,1.49 -2.1,-1.42 -0.3,-0.24 l 1.9,1.33 c 1.4,0.96 2.9,1.84 4.5,2.64 l 2.1,1.02 c -0.2,0.12 -2.9,-1.04 -0.5,-0.21 1.7,0.57 3.3,1.12 5,1.55 l 2.3,0.51 c 0.4,0.08 3,0.53 0.8,0.2 -2.2,-0.33 0.4,0 0.8,0.03 1,0.07 2,0.12 2.9,0.12 l 4.7,-0.21 c -0.1,-0.19 -3.3,0.59 -0.7,0.08 l 2.3,-0.46 c 1.7,-0.38 3.4,-0.86 5,-1.43 0.4,-0.12 2.9,-0.97 0.9,-0.26 -1.9,0.69 0.5,-0.22 0.8,-0.41 1.6,-0.76 3.1,-1.6 4.6,-2.52 l 2,-1.28 c 1.9,-1.25 0.2,0.32 -0.4,0.31 l 3.9,-3.51 c 1.2,-1.25 2.4,-2.57 3.5,-3.93 5,-6.31 16.5,-5.65 21.7,0 6.1,6.69 5.4,15 0,21.73 -11.4,14.23 -30.1,22.74 -48.3,22.63 -18.1,-0.12 -36.7,-8.71 -48,-23.11 -2.6,-3.36 -4.5,-6.41 -4.5,-10.87 0,-3.77 1.7,-8.27 4.5,-10.86 5.5,-5.06 16.5,-6.78 21.8,0"
       style="fill:#1a1a1a;fill-opacity:1;fill-rule:nonzero;stroke:none"
       transform="matrix(0.03527778,0,0,-0.03527778,-887.33487,318.95589)"
       clip-path="url(#clipPath2737)" />
    <path
       id="path2738"
       d="m 27883,5077.97 c 9.6,-9.03 19.1,-18.06 28.6,-27.09 8,-7.57 19.4,-15.39 22.1,-26.69 5.2,-22.61 -16.1,-40.49 -31.2,-53.4 -7.5,-6.44 3.4,-17.26 10.9,-10.87 19.2,16.45 39.8,37.02 35.7,64.73 -2,13.66 -11.2,22.45 -20.8,31.52 -11.4,10.89 -22.9,21.78 -34.4,32.67 -7.2,6.81 -18.1,-4.04 -10.9,-10.87"
       style="fill:#66331f;fill-opacity:1;fill-rule:nonzero;stroke:none"
       transform="matrix(0.03527778,0,0,-0.03527778,-887.33487,318.95589)"
       clip-path="url(#clipPath2739)" />
    <path
       id="path2740"
       d="m 27847.4,4940.64 c 19.1,-16.1 44,-22.92 68.8,-21.29 27.5,1.81 53.2,12.98 76.9,26.49 8.6,4.9 0.9,18.18 -7.7,13.27 -37.4,-21.3 -89.7,-39.12 -127.1,-7.6 -7.6,6.33 -18.5,-4.49 -10.9,-10.87"
       style="fill:#66331f;fill-opacity:1;fill-rule:nonzero;stroke:none"
       transform="matrix(0.03527778,0,0,-0.03527778,-887.33487,318.95589)"
       clip-path="url(#clipPath2741)" />
    <path
       id="path2742"
       d="m 27913.9,4837.26 1.1,-0.41 -1.8,0.77 c 1,-0.47 2,-1.05 2.9,-1.75 l -1.5,1.2 c 1,-0.78 1.8,-1.66 2.6,-2.63 l -1.2,1.55 c 0.9,-1.16 1.6,-2.4 2.2,-3.73 l -0.8,1.84 c 0.7,-1.53 1.1,-3.11 1.3,-4.76 l -0.3,2.05 c 0.2,-1.44 0.2,-2.87 0,-4.31 l 0.3,2.04 c -0.2,-1.24 -0.5,-2.43 -0.9,-3.58 l 0.7,1.83 c -0.4,-1.07 -1,-2.06 -1.7,-3 -1.1,-1.49 -1.2,-4.2 -0.7,-5.92 0.4,-1.78 1.8,-3.71 3.5,-4.59 1.8,-0.94 3.9,-1.41 5.9,-0.77 2,0.65 3.3,1.84 4.6,3.53 4.1,5.51 4.8,13.49 2.7,19.93 -2.3,7.28 -7.5,13.04 -14.8,15.53 -3.8,1.3 -8.5,-1.49 -9.4,-5.37 -1,-4.26 1.3,-8.05 5.3,-9.45"
       style="fill:#66331f;fill-opacity:1;fill-rule:nonzero;stroke:none"
       transform="matrix(0.03527778,0,0,-0.03527778,-887.33487,318.95589)"
       clip-path="url(#clipPath2743)" />
    <path
       id="path2744"
       d="m 27620,5053.08 c 17.2,-5.89 36.7,5.2 45.5,21.13 8.7,15.92 8.8,35.18 6.4,53.19 -3.6,26.37 -12.1,52.06 -25.1,75.31 22.7,-15.55 55.3,8.83 58.2,36.18 2.9,27.36 -12.8,52.82 -28,75.79 14.4,-0.86 29.6,2.32 40.2,12.07 10.6,9.74 14.8,27.03 6.9,39.06 13,-4.19 26.7,-8.42 40.1,-6.02 13.5,2.39 26.4,13.8 25.4,27.43 27.2,-30.21 80.1,-31.82 109.1,-3.32 12.3,-19.06 36.3,-28.03 59,-27.48 22.6,0.54 44.3,9.18 64.8,18.9 15.7,-29.94 56.6,-43.55 87.2,-29.05 3.7,1.78 7.6,4.32 8.6,8.35 1,4.02 -3.1,8.98 -6.9,7.14 3.2,-13.64 11.9,-25.92 23.7,-33.38 -24.2,-29.49 -24,-76.2 0.4,-105.52 -22.2,-25.7 -10.9,-72.02 20.6,-84.67 -14.6,-12.35 -16.4,-36.95 -3.8,-51.32 -12.3,4.92 -21.5,-15.95 -12.8,-25.96 8.6,-10.01 24,-10.1 37.1,-8.51 13.2,1.59 27.7,3.77 38.7,-3.6 9.9,37.66 11.8,77.44 5.3,115.86 15.3,3.19 28.1,15.83 31.5,31 1.9,8.58 1,17.5 1.3,26.29 1,26.44 12.8,51.24 17.1,77.35 4.3,26.11 -2.2,57.77 -26.1,69.16 15.5,0.64 26.6,17.25 26.1,32.72 -0.5,15.47 -9.7,29.32 -20.1,40.81 -2.3,2.55 -4.8,5.9 -3.5,9.07 1.1,2.52 4,3.48 6.6,4.44 24.5,9.12 34,40.74 27.3,66.01 -6.6,25.26 -25,45.49 -42.8,64.62 10.7,1.44 18.5,11.89 20,22.58 1.4,10.7 -2.1,21.46 -6.7,31.26 -13.5,29.36 -36.4,54.36 -64.4,70.54 6.4,29.85 -11.8,63.04 -40.4,73.73 2.2,-2.82 7.3,-0.25 7.7,3.28 0.4,3.53 -2,6.73 -4.4,9.36 -22.7,24.9 -58.9,36.66 -92,29.87 -8.4,-1.72 -16.6,-4.54 -25.2,-4.41 -9.9,0.15 -19.3,4.28 -28.7,7.32 -23.7,7.59 -49.4,8.45 -73.5,2.45 -10.7,-2.66 -23.4,-10.88 -20.2,-21.41 -24.9,11.95 -56,9.9 -79.2,-5.22 -3.7,-2.45 -7.5,-5.62 -8.3,-10.02 -0.8,-4.41 3.5,-9.58 7.7,-7.94 -31.4,17.87 -75,10.55 -98.8,-16.61 -18.1,13.63 -43.5,-0.13 -61.7,-13.69 -24.9,-18.57 -49.8,-37.14 -74.6,-55.71 -7.4,-5.5 -15.1,-11.38 -18.7,-19.83 -3.6,-8.45 -1.3,-20.16 7.1,-23.72 -13.7,-19.2 -27.7,-39.02 -33.3,-61.97 -5.5,-22.94 -0.6,-50.06 18.2,-64.43 -28.6,-27.63 -25.1,-81 6.9,-104.63 -23,-22.55 -48.1,-51.85 -39.6,-82.94 2.1,-7.97 6.5,-15.44 6.9,-23.68 0.7,-11.73 -6.7,-22.71 -6.5,-34.46 0.3,-25.22 32.9,-38.36 39.6,-62.68 4.2,-15.37 0.3,-37.47 15.5,-42.42 -12.4,-6.55 -13.9,-26.93 -2.5,-35.16 -12.5,-4.62 -17.7,-20.52 -14.8,-33.55 2.9,-13.04 11.7,-23.8 20.3,-34.03 8.9,-10.55 17.8,-21.1 26.7,-31.65 l -1.1,6.72"
       style="fill:#241e21;fill-opacity:1;fill-rule:nonzero;stroke:none"
       transform="matrix(0.03527778,0,0,-0.03527778,-887.33487,318.95589)"
       clip-path="url(#clipPath2745)" />
    <path
       id="path2746"
       d="m 27688.1,4667 c 51.7,-72.66 136.5,-136.27 225.6,-140.93 89.1,-4.65 249.6,138.11 255.9,140.93 6.5,2.9 202.2,-61.03 267.2,-124.64 48.6,-47.64 78.9,-111.52 96.4,-177.34 17.5,-65.83 23,-134.14 28.5,-202.02 -93.9,-5.99 -188.3,-5.74 -282.2,0.75 -2.7,-58.67 -5.4,-117.34 -8.1,-176.02 -87.6,-28.91 -181.9,-26.77 -274.1,-24.34 -152.1,4.03 -304.2,8.05 -455.8,20.66 0.8,57.12 -0.6,114.27 -4.3,171.27 -110.2,14.15 -221.5,20.21 -332.7,18.12 8.6,74.22 17.4,149.12 41.8,219.74 24.4,70.62 66,137.6 128.2,179.02 58.2,38.72 313.6,94.8 313.6,94.8"
       style="fill:#87c3a9;fill-opacity:1;fill-rule:nonzero;stroke:none"
       transform="matrix(0.03527778,0,0,-0.03527778,-887.33487,318.95589)"
       clip-path="url(#clipPath2747)" />
    <path
       id="path2748"
       d="m 27534.4,4469.94 c 9.3,-98.4 7.4,-197.65 -5.6,-295.62 -0.5,-4.15 3.9,-7.65 7.7,-7.69 4.6,-0.05 7.1,3.59 7.7,7.69 13,97.97 14.9,197.22 5.6,295.62 -0.9,9.76 -16.3,9.85 -15.4,0"
       style="fill:#ffffff;fill-opacity:1;fill-rule:nonzero;stroke:none"
       transform="matrix(0.03527778,0,0,-0.03527778,-887.33487,318.95589)"
       clip-path="url(#clipPath2749)" />
    <path
       id="path2750"
       d="m 27506.4,4400.74 c 13.2,-18.72 23.7,-39.19 30.8,-60.94 1.3,-3.94 5.3,-6.51 9.5,-5.37 3.8,1.06 6.7,5.49 5.4,9.45 -7.6,22.99 -18.4,44.83 -32.4,64.62 -2.4,3.38 -6.7,4.97 -10.5,2.75 -3.4,-1.96 -5.2,-7.1 -2.8,-10.51"
       style="fill:#ffffff;fill-opacity:1;fill-rule:nonzero;stroke:none"
       transform="matrix(0.03527778,0,0,-0.03527778,-887.33487,318.95589)"
       clip-path="url(#clipPath2751)" />
    <path
       id="path2752"
       d="m 28275.8,4469.85 c 4.2,-94.96 5.7,-190.03 4.6,-285.08 -0.1,-9.89 15.2,-9.9 15.4,0 1.1,95.05 -0.4,190.12 -4.6,285.08 -0.4,9.85 -15.8,9.9 -15.4,0"
       style="fill:#ffffff;fill-opacity:1;fill-rule:nonzero;stroke:none"
       transform="matrix(0.03527778,0,0,-0.03527778,-887.33487,318.95589)"
       clip-path="url(#clipPath2753)" />
    <path
       id="path2754"
       d="m 28310.4,4435.43 c -2.9,-19.15 -10.4,-37.43 -22.4,-52.51 -2.5,-3.25 -3.1,-7.69 0,-10.87 2.7,-2.67 8.3,-3.27 10.9,0 13.7,17.24 23,37.5 26.3,59.3 0.6,4.09 -1,8.26 -5.4,9.45 -3.6,1 -8.8,-1.24 -9.4,-5.37"
       style="fill:#ffffff;fill-opacity:1;fill-rule:nonzero;stroke:none"
       transform="matrix(0.03527778,0,0,-0.03527778,-887.33487,318.95589)"
       clip-path="url(#clipPath2755)" />
    <path
       id="path2756"
       d="m 28300.2,4205.87 c 83.8,0 167.5,0 251.2,0 9.8,0 9.9,15.37 0,15.37 -83.7,0 -167.4,0 -251.2,0 -9.8,0 -9.9,-15.37 0,-15.37"
       style="fill:#ffffff;fill-opacity:1;fill-rule:nonzero;stroke:none"
       transform="matrix(0.03527778,0,0,-0.03527778,-887.33487,318.95589)"
       clip-path="url(#clipPath2757)" />
    <path
       id="path2758"
       d="m 27539.1,4223.86 c -103.8,0 -207.5,0 -311.3,0 -9.9,0 -9.9,-15.37 0,-15.37 103.8,0 207.5,0 311.3,0 9.9,0 9.9,15.37 0,15.37"
       style="fill:#ffffff;fill-opacity:1;fill-rule:nonzero;stroke:none"
       transform="matrix(0.03527778,0,0,-0.03527778,-887.33487,318.95589)"
       clip-path="url(#clipPath2759)" />
    <path
       id="path2760"
       d="m 27640.7,4642.05 c 54.4,-71.21 124.7,-133.31 212.6,-158.09 43.2,-12.21 89.1,-14.65 133.1,-4.66 39.9,9.07 77.2,27.93 110.2,51.91 38.4,27.95 71.6,62.33 101,99.54 6.1,7.68 -4.7,18.63 -10.9,10.87 -48.5,-61.46 -109.7,-119.13 -186.1,-142.63 -84.8,-26.04 -174.6,-0.65 -245,49.7 -39,27.88 -72.6,63.12 -101.6,101.11 -5.9,7.76 -19.3,0.11 -13.3,-7.75"
       style="fill:#ffffff;fill-opacity:1;fill-rule:nonzero;stroke:none"
       transform="matrix(0.03527778,0,0,-0.03527778,-887.33487,318.95589)"
       clip-path="url(#clipPath2761)" />
    <path
       id="path2762"
       d="m 27562,4151.72 c 4.6,16.46 10.8,34.31 24.5,45.51 11.7,9.54 27.9,12.85 40.8,3.85 19.5,-13.6 26.2,-40.32 47.9,-51.49 10.8,-5.53 23.3,-5.6 34.2,-0.27 10.6,5.21 18.1,14.92 25.1,24.12 7.1,9.44 13.7,19.99 23.3,27.29 12.6,9.68 27.6,7.65 40.8,0.31 29.5,-16.29 50.4,-52.17 87.4,-52.71 16.9,-0.25 29.4,9.64 39.8,21.96 10.6,12.5 21.7,23.54 37.1,29.9 13.9,5.73 30.2,7.29 43.8,-0.11 12.3,-6.72 21.2,-18.27 31.4,-27.59 10.2,-9.22 22.3,-16.99 36.5,-16.51 16,0.53 29.1,10.6 39.6,21.8 12.3,13.1 23.2,30.98 41.7,35.84 18.1,4.75 25.4,-13.01 33.2,-25.51 9.1,-14.61 22.6,-24.69 40.6,-22.46 18.9,2.34 35.2,15.04 48.7,27.56 7.3,6.72 -3.6,17.56 -10.8,10.86 -11.4,-10.53 -26.9,-23.67 -43.4,-23.44 -15.5,0.21 -21.7,15.34 -28.6,26.6 -7.8,12.74 -19.3,23.47 -35.3,22.53 -16.8,-0.97 -31.6,-12.26 -42.4,-24.35 -10.2,-11.3 -19.6,-25.88 -34.1,-31.96 -13.5,-5.65 -25.6,1.41 -35.4,10.47 -10.6,9.75 -19.9,21.26 -32.5,28.62 -13.5,7.9 -29.4,9.45 -44.5,6.29 -15.6,-3.25 -30.1,-11.47 -41.9,-21.91 -11.7,-10.33 -20.1,-28.41 -36.2,-32.44 -16.6,-4.16 -34.1,7.58 -46.3,17.58 -13.6,11.24 -25.7,24.27 -41.5,32.75 -14.7,7.87 -31.4,11.09 -47.1,4.09 -11.2,-5.02 -19.5,-14.34 -26.9,-23.87 -11,-14.33 -27.3,-43.96 -49.6,-31.57 -9.8,5.43 -16.3,15.89 -22.7,24.73 -7.2,9.99 -14.7,20.18 -25.3,26.92 -13.4,8.64 -29.9,8.38 -44.2,1.96 -15.7,-7.05 -26.8,-21.03 -33.7,-36.44 -3.7,-8.04 -6.4,-16.36 -8.8,-24.83 -2.8,-9.53 12.1,-13.6 14.8,-4.08"
       style="fill:#498469;fill-opacity:1;fill-rule:nonzero;stroke:none"
       transform="matrix(0.03527778,0,0,-0.03527778,-887.33487,318.95589)"
       clip-path="url(#clipPath2763)" />
    <path
       id="path2764"
       d="m 27681.5,4257.31 c 0.2,-4.85 0.6,-9.64 2.9,-14.01 2.1,-3.99 5.8,-6.59 9.9,-8.2 3.5,-1.4 7.5,-1.38 11.2,-0.69 3.6,0.66 7.3,2.7 9.7,5.44 5.7,6.51 6.2,15.79 2.1,23.28 -1.8,3.3 -4.8,6.36 -8.3,7.93 -4.3,1.97 -8.7,2.42 -13.4,1.49 -4.1,-0.83 -8.2,-3.18 -11.1,-6.2 -1.4,-1.54 -2.8,-3.33 -3.6,-5.29 l -0.9,-2.11 c -0.4,-1.32 -0.3,-2.76 0,-4.08 0.2,-1.23 0.9,-2 1.5,-2.94 0.8,-1.09 1.6,-2.19 2.4,-3.29 1.2,-1.66 2.6,-2.96 4.6,-3.53 1.9,-0.51 4.3,-0.28 5.9,0.77 1.7,1.06 3.1,2.64 3.6,4.6 0.4,1.9 0.4,4.27 -0.8,5.92 -1.1,1.46 -2.1,2.92 -3.2,4.39 0.3,-1.98 0.5,-3.95 0.8,-5.92 l 0.1,0.27 -0.8,-1.84 c 0.5,0.99 1,1.89 1.6,2.75 l -1.2,-1.55 c 0.8,0.91 1.6,1.72 2.5,2.45 l -1.5,-1.21 c 1,0.77 2.1,1.4 3.2,1.9 l -1.8,-0.77 c 1.2,0.48 2.4,0.82 3.7,1 l -2.1,-0.27 c 1.2,0.14 2.3,0.16 3.5,0.02 l -2.1,0.28 c 1.1,-0.15 2.1,-0.42 3.1,-0.83 l -1.9,0.78 2.5,-1.42 -1.6,1.2 2.2,-2.17 -1.2,1.55 c 0.6,-0.9 1.2,-1.86 1.6,-2.89 l -0.7,1.83 c 0.4,-1.13 0.8,-2.29 0.9,-3.5 l -0.2,2.04 c 0.1,-1.2 0.1,-2.4 0,-3.61 l 0.2,2.05 c -0.1,-1.01 -0.4,-1.97 -0.8,-2.91 l 0.8,1.83 -1.2,-2.15 1.2,1.55 -1.9,-1.9 1.5,1.2 -2.3,-1.33 1.9,0.77 c -1,-0.41 -2.1,-0.69 -3.1,-0.85 l 2,0.27 c -1.2,-0.15 -2.3,-0.16 -3.5,-0.02 l 2.1,-0.28 c -1.2,0.16 -2.3,0.46 -3.4,0.91 l 1.9,-0.78 -2.3,1.33 1.5,-1.21 -1.8,1.86 1.2,-1.55 -1.3,2.23 0.8,-1.83 c -0.6,1.4 -0.9,2.85 -1.1,4.35 l 0.2,-2.05 c -0.2,1.65 -0.2,3.29 -0.3,4.94 -0.1,4.02 -3.4,7.88 -7.7,7.69 -4,-0.18 -7.8,-3.38 -7.7,-7.69"
       style="fill:#498469;fill-opacity:1;fill-rule:nonzero;stroke:none"
       transform="matrix(0.03527778,0,0,-0.03527778,-887.33487,318.95589)"
       clip-path="url(#clipPath2765)" />
    <path
       id="path2766"
       d="m 28205.3,4257.92 c 0.5,-9.42 6.8,-16.7 15.4,-19.98 8.1,-3.07 17.5,-0.37 22.8,6.41 2.2,2.86 3.8,6.22 4.4,9.81 0.6,3.94 0.6,8.03 -0.9,11.8 -1.7,4.23 -4.4,7.88 -8.4,10.18 -3.3,1.9 -7.4,2.87 -11.2,2.59 -9,-0.66 -18,-6.34 -20,-15.63 -0.5,-2.02 -0.3,-4.11 0.7,-5.92 1,-1.6 2.8,-3.12 4.6,-3.54 3.9,-0.88 8.6,1.17 9.5,5.37 l 0.6,2.05 -0.7,-1.83 1.4,2.49 -1.2,-1.55 c 0.7,0.91 1.5,1.7 2.5,2.41 l -1.6,-1.2 c 1,0.75 2.1,1.37 3.2,1.87 l -1.8,-0.78 c 1.3,0.52 2.6,0.87 3.9,1.07 l -2,-0.27 c 1.2,0.16 2.5,0.17 3.7,0.03 l -2,0.27 c 1.1,-0.15 2.2,-0.44 3.3,-0.88 l -1.8,0.77 c 0.9,-0.39 1.7,-0.88 2.5,-1.49 l -1.6,1.21 1.9,-1.93 -1.2,1.56 c 0.7,-0.86 1.2,-1.78 1.6,-2.77 l -0.7,1.83 c 0.4,-1.08 0.7,-2.2 0.9,-3.36 l -0.3,2.04 c 0.2,-1.36 0.2,-2.71 0,-4.07 l 0.3,2.04 c -0.2,-1.45 -0.6,-2.86 -1.2,-4.21 l 0.8,1.83 c -0.5,-1.16 -1.1,-2.24 -1.9,-3.25 l 1.2,1.55 -2.3,-2.26 1.6,1.21 c -0.8,-0.61 -1.7,-1.1 -2.6,-1.49 l 1.8,0.77 c -0.9,-0.36 -1.9,-0.61 -2.8,-0.76 l 2,0.27 c -1.2,-0.15 -2.3,-0.14 -3.5,-0.01 l 2,-0.27 c -1.3,0.19 -2.6,0.55 -3.9,1.08 l 1.8,-0.77 c -1.3,0.56 -2.5,1.25 -3.6,2.09 l 1.6,-1.2 c -1.1,0.86 -2.1,1.83 -3,2.93 l 1.3,-1.56 c -0.8,0.95 -1.4,1.95 -1.8,3.04 l 0.7,-1.84 c -0.4,1 -0.7,2.03 -0.8,3.1 l 0.2,-2.04 -0.1,1.19 c -0.1,2.04 -0.7,3.95 -2.2,5.43 -1.4,1.33 -3.5,2.34 -5.5,2.25 -3.9,-0.18 -7.9,-3.39 -7.6,-7.68"
       style="fill:#498469;fill-opacity:1;fill-rule:nonzero;stroke:none"
       transform="matrix(0.03527778,0,0,-0.03527778,-887.33487,318.95589)"
       clip-path="url(#clipPath2767)" />
  </g>
</svg>
