<?xml version="1.0" encoding="UTF-8" standalone="no"?>
<!-- Created with Inkscape (http://www.inkscape.org/) -->

<svg
   width="64.332558mm"
   height="64.332207mm"
   viewBox="0 0 64.332558 64.332207"
   version="1.1"
   id="svg1"
   inkscape:version="1.3.2 (091e20e, 2023-11-25)"
   sodipodi:docname="beard-brown-man-avatar.svg"
   xmlns:inkscape="http://www.inkscape.org/namespaces/inkscape"
   xmlns:sodipodi="http://sodipodi.sourceforge.net/DTD/sodipodi-0.dtd"
   xmlns="http://www.w3.org/2000/svg"
   xmlns:svg="http://www.w3.org/2000/svg">
  <sodipodi:namedview
     id="namedview1"
     pagecolor="#ffffff"
     bordercolor="#000000"
     borderopacity="0.25"
     inkscape:showpageshadow="2"
     inkscape:pageopacity="0.0"
     inkscape:pagecheckerboard="0"
     inkscape:deskcolor="#d1d1d1"
     inkscape:document-units="mm"
     inkscape:zoom="1.0834153"
     inkscape:cx="-5.0765391"
     inkscape:cy="216.44517"
     inkscape:window-width="1920"
     inkscape:window-height="1052"
     inkscape:window-x="0"
     inkscape:window-y="28"
     inkscape:window-maximized="0"
     inkscape:current-layer="layer1" />
  <defs
     id="defs1">
    <clipPath
       clipPathUnits="userSpaceOnUse"
       id="clipPath2141">
      <path
         d="m 35322.2,2934.46 c 0,-503.56 -408.2,-911.79 -911.8,-911.79 -503.5,0 -911.8,408.23 -911.8,911.79 0,503.58 408.3,911.8 911.8,911.8 503.6,0 911.8,-408.22 911.8,-911.8"
         transform="translate(0,-2.5e-4)"
         id="path2141" />
    </clipPath>
    <clipPath
       clipPathUnits="userSpaceOnUse"
       id="clipPath2143">
      <path
         d="m 35322.2,2934.46 c 0,-503.56 -408.2,-911.79 -911.8,-911.79 -503.5,0 -911.8,408.23 -911.8,911.79 0,503.58 408.3,911.8 911.8,911.8 503.6,0 911.8,-408.22 911.8,-911.8"
         transform="translate(0,-2.5e-4)"
         id="path2143" />
    </clipPath>
    <clipPath
       clipPathUnits="userSpaceOnUse"
       id="clipPath2145">
      <path
         d="m 35322.2,2934.46 c 0,-503.56 -408.2,-911.79 -911.8,-911.79 -503.5,0 -911.8,408.23 -911.8,911.79 0,503.58 408.3,911.8 911.8,911.8 503.6,0 911.8,-408.22 911.8,-911.8"
         transform="translate(0,-2.5e-4)"
         id="path2145" />
    </clipPath>
    <clipPath
       clipPathUnits="userSpaceOnUse"
       id="clipPath2146">
      <path
         d="m 34876.9,2271.73 c -84.8,56.73 -187.1,79.45 -287.1,99.53 -6.1,1.23 -12.4,2.56 -17.3,6.38 -8.4,6.56 10.6,227.34 0,323.87 l -142.7,-13.36 -142.7,13.36 c -10.6,-96.53 8.4,-317.31 0,-323.87 -4.9,-3.82 -11.2,-5.15 -17.3,-6.38 -100,-20.08 -202.4,-42.8 -287.1,-99.53 -84.7,-56.73 -148.8,-155.67 -135.2,-256.72 85,0.44 322.5,-1.09 563,-4.26 v -0.52 c 6.4,0.09 12.9,0.18 19.3,0.27 6.4,-0.09 12.9,-0.18 19.3,-0.27 v 0.52 c 240.5,3.17 478,4.7 563,4.26 13.6,101.05 -50.5,199.99 -135.2,256.72"
         transform="translate(0,-2.5e-4)"
         id="path2146" />
    </clipPath>
    <clipPath
       clipPathUnits="userSpaceOnUse"
       id="clipPath2149">
      <path
         d="m 35322.2,2934.46 c 0,-503.56 -408.2,-911.79 -911.8,-911.79 -503.5,0 -911.8,408.23 -911.8,911.79 0,503.58 408.3,911.8 911.8,911.8 503.6,0 911.8,-408.22 911.8,-911.8"
         transform="translate(0,-2.5e-4)"
         id="path2149" />
    </clipPath>
    <clipPath
       clipPathUnits="userSpaceOnUse"
       id="clipPath2151">
      <path
         d="m 35322.2,2934.46 c 0,-503.56 -408.2,-911.79 -911.8,-911.79 -503.5,0 -911.8,408.23 -911.8,911.79 0,503.58 408.3,911.8 911.8,911.8 503.6,0 911.8,-408.22 911.8,-911.8"
         transform="translate(0,-2.5e-4)"
         id="path2151" />
    </clipPath>
    <clipPath
       clipPathUnits="userSpaceOnUse"
       id="clipPath2153">
      <path
         d="m 35322.2,2934.46 c 0,-503.56 -408.2,-911.79 -911.8,-911.79 -503.5,0 -911.8,408.23 -911.8,911.79 0,503.58 408.3,911.8 911.8,911.8 503.6,0 911.8,-408.22 911.8,-911.8"
         transform="translate(0,-2.5e-4)"
         id="path2153" />
    </clipPath>
    <clipPath
       clipPathUnits="userSpaceOnUse"
       id="clipPath2155">
      <path
         d="m 35322.2,2934.46 c 0,-503.56 -408.2,-911.79 -911.8,-911.79 -503.5,0 -911.8,408.23 -911.8,911.79 0,503.58 408.3,911.8 911.8,911.8 503.6,0 911.8,-408.22 911.8,-911.8"
         transform="translate(0,-2.5e-4)"
         id="path2155" />
    </clipPath>
    <clipPath
       clipPathUnits="userSpaceOnUse"
       id="clipPath2157">
      <path
         d="m 35322.2,2934.46 c 0,-503.56 -408.2,-911.79 -911.8,-911.79 -503.5,0 -911.8,408.23 -911.8,911.79 0,503.58 408.3,911.8 911.8,911.8 503.6,0 911.8,-408.22 911.8,-911.8"
         transform="translate(0,-2.5e-4)"
         id="path2157" />
    </clipPath>
    <clipPath
       clipPathUnits="userSpaceOnUse"
       id="clipPath2159">
      <path
         d="m 35322.2,2934.46 c 0,-503.56 -408.2,-911.79 -911.8,-911.79 -503.5,0 -911.8,408.23 -911.8,911.79 0,503.58 408.3,911.8 911.8,911.8 503.6,0 911.8,-408.22 911.8,-911.8"
         transform="translate(0,-2.5e-4)"
         id="path2159" />
    </clipPath>
    <clipPath
       clipPathUnits="userSpaceOnUse"
       id="clipPath2161">
      <path
         d="m 35322.2,2934.46 c 0,-503.56 -408.2,-911.79 -911.8,-911.79 -503.5,0 -911.8,408.23 -911.8,911.79 0,503.58 408.3,911.8 911.8,911.8 503.6,0 911.8,-408.22 911.8,-911.8"
         transform="translate(0,-2.5e-4)"
         id="path2161" />
    </clipPath>
    <clipPath
       clipPathUnits="userSpaceOnUse"
       id="clipPath2163">
      <path
         d="m 35322.2,2934.46 c 0,-503.56 -408.2,-911.79 -911.8,-911.79 -503.5,0 -911.8,408.23 -911.8,911.79 0,503.58 408.3,911.8 911.8,911.8 503.6,0 911.8,-408.22 911.8,-911.8"
         transform="translate(0,-2.5e-4)"
         id="path2163" />
    </clipPath>
    <clipPath
       clipPathUnits="userSpaceOnUse"
       id="clipPath2165">
      <path
         d="m 35322.2,2934.46 c 0,-503.56 -408.2,-911.79 -911.8,-911.79 -503.5,0 -911.8,408.23 -911.8,911.79 0,503.58 408.3,911.8 911.8,911.8 503.6,0 911.8,-408.22 911.8,-911.8"
         transform="translate(0,-2.5e-4)"
         id="path2165" />
    </clipPath>
    <clipPath
       clipPathUnits="userSpaceOnUse"
       id="clipPath2167">
      <path
         d="m 35322.2,2934.46 c 0,-503.56 -408.2,-911.79 -911.8,-911.79 -503.5,0 -911.8,408.23 -911.8,911.79 0,503.58 408.3,911.8 911.8,911.8 503.6,0 911.8,-408.22 911.8,-911.8"
         transform="translate(0,-2.5e-4)"
         id="path2167" />
    </clipPath>
    <clipPath
       clipPathUnits="userSpaceOnUse"
       id="clipPath2169">
      <path
         d="m 35322.2,2934.46 c 0,-503.56 -408.2,-911.79 -911.8,-911.79 -503.5,0 -911.8,408.23 -911.8,911.79 0,503.58 408.3,911.8 911.8,911.8 503.6,0 911.8,-408.22 911.8,-911.8"
         transform="translate(0,-2.5e-4)"
         id="path2169" />
    </clipPath>
    <clipPath
       clipPathUnits="userSpaceOnUse"
       id="clipPath2171">
      <path
         d="m 35322.2,2934.46 c 0,-503.56 -408.2,-911.79 -911.8,-911.79 -503.5,0 -911.8,408.23 -911.8,911.79 0,503.58 408.3,911.8 911.8,911.8 503.6,0 911.8,-408.22 911.8,-911.8"
         transform="translate(0,-2.5e-4)"
         id="path2171" />
    </clipPath>
    <clipPath
       clipPathUnits="userSpaceOnUse"
       id="clipPath2173">
      <path
         d="m 35322.2,2934.46 c 0,-503.56 -408.2,-911.79 -911.8,-911.79 -503.5,0 -911.8,408.23 -911.8,911.79 0,503.58 408.3,911.8 911.8,911.8 503.6,0 911.8,-408.22 911.8,-911.8"
         transform="translate(0,-2.5e-4)"
         id="path2173" />
    </clipPath>
    <clipPath
       clipPathUnits="userSpaceOnUse"
       id="clipPath2175">
      <path
         d="m 35322.2,2934.46 c 0,-503.56 -408.2,-911.79 -911.8,-911.79 -503.5,0 -911.8,408.23 -911.8,911.79 0,503.58 408.3,911.8 911.8,911.8 503.6,0 911.8,-408.22 911.8,-911.8"
         transform="translate(0,-2.5e-4)"
         id="path2175" />
    </clipPath>
    <clipPath
       clipPathUnits="userSpaceOnUse"
       id="clipPath2177">
      <path
         d="m 35322.2,2934.46 c 0,-503.56 -408.2,-911.79 -911.8,-911.79 -503.5,0 -911.8,408.23 -911.8,911.79 0,503.58 408.3,911.8 911.8,911.8 503.6,0 911.8,-408.22 911.8,-911.8"
         transform="translate(0,-2.5e-4)"
         id="path2177" />
    </clipPath>
    <clipPath
       clipPathUnits="userSpaceOnUse"
       id="clipPath2179">
      <path
         d="m 35322.2,2934.46 c 0,-503.56 -408.2,-911.79 -911.8,-911.79 -503.5,0 -911.8,408.23 -911.8,911.79 0,503.58 408.3,911.8 911.8,911.8 503.6,0 911.8,-408.22 911.8,-911.8"
         transform="translate(0,-2.5e-4)"
         id="path2179" />
    </clipPath>
    <clipPath
       clipPathUnits="userSpaceOnUse"
       id="clipPath2181">
      <path
         d="m 35322.2,2934.46 c 0,-503.56 -408.2,-911.79 -911.8,-911.79 -503.5,0 -911.8,408.23 -911.8,911.79 0,503.58 408.3,911.8 911.8,911.8 503.6,0 911.8,-408.22 911.8,-911.8"
         transform="translate(0,-2.5e-4)"
         id="path2181" />
    </clipPath>
    <clipPath
       clipPathUnits="userSpaceOnUse"
       id="clipPath2183">
      <path
         d="m 35322.2,2934.46 c 0,-503.56 -408.2,-911.79 -911.8,-911.79 -503.5,0 -911.8,408.23 -911.8,911.79 0,503.58 408.3,911.8 911.8,911.8 503.6,0 911.8,-408.22 911.8,-911.8"
         transform="translate(0,-2.5e-4)"
         id="path2183" />
    </clipPath>
    <clipPath
       clipPathUnits="userSpaceOnUse"
       id="clipPath2185">
      <path
         d="m 35322.2,2934.46 c 0,-503.56 -408.2,-911.79 -911.8,-911.79 -503.5,0 -911.8,408.23 -911.8,911.79 0,503.58 408.3,911.8 911.8,911.8 503.6,0 911.8,-408.22 911.8,-911.8"
         transform="translate(0,-2.5e-4)"
         id="path2185" />
    </clipPath>
    <clipPath
       clipPathUnits="userSpaceOnUse"
       id="clipPath2187">
      <path
         d="m 35322.2,2934.46 c 0,-503.56 -408.2,-911.79 -911.8,-911.79 -503.5,0 -911.8,408.23 -911.8,911.79 0,503.58 408.3,911.8 911.8,911.8 503.6,0 911.8,-408.22 911.8,-911.8"
         transform="translate(0,-2.5e-4)"
         id="path2187" />
    </clipPath>
    <clipPath
       clipPathUnits="userSpaceOnUse"
       id="clipPath2189">
      <path
         d="m 35322.2,2934.46 c 0,-503.56 -408.2,-911.79 -911.8,-911.79 -503.5,0 -911.8,408.23 -911.8,911.79 0,503.58 408.3,911.8 911.8,911.8 503.6,0 911.8,-408.22 911.8,-911.8"
         transform="translate(0,-2.5e-4)"
         id="path2189" />
    </clipPath>
    <clipPath
       clipPathUnits="userSpaceOnUse"
       id="clipPath2191">
      <path
         d="m 35322.2,2934.46 c 0,-503.56 -408.2,-911.79 -911.8,-911.79 -503.5,0 -911.8,408.23 -911.8,911.79 0,503.58 408.3,911.8 911.8,911.8 503.6,0 911.8,-408.22 911.8,-911.8"
         transform="translate(0,-2.5e-4)"
         id="path2191" />
    </clipPath>
    <clipPath
       clipPathUnits="userSpaceOnUse"
       id="clipPath2193">
      <path
         d="m 35322.2,2934.46 c 0,-503.56 -408.2,-911.79 -911.8,-911.79 -503.5,0 -911.8,408.23 -911.8,911.79 0,503.58 408.3,911.8 911.8,911.8 503.6,0 911.8,-408.22 911.8,-911.8"
         transform="translate(0,-2.5e-4)"
         id="path2193" />
    </clipPath>
    <clipPath
       clipPathUnits="userSpaceOnUse"
       id="clipPath2195">
      <path
         d="m 35322.2,2934.46 c 0,-503.56 -408.2,-911.79 -911.8,-911.79 -503.5,0 -911.8,408.23 -911.8,911.79 0,503.58 408.3,911.8 911.8,911.8 503.6,0 911.8,-408.22 911.8,-911.8"
         transform="translate(0,-2.5e-4)"
         id="path2195" />
    </clipPath>
    <clipPath
       clipPathUnits="userSpaceOnUse"
       id="clipPath2197">
      <path
         d="m 35322.2,2934.46 c 0,-503.56 -408.2,-911.79 -911.8,-911.79 -503.5,0 -911.8,408.23 -911.8,911.79 0,503.58 408.3,911.8 911.8,911.8 503.6,0 911.8,-408.22 911.8,-911.8"
         transform="translate(0,-2.5e-4)"
         id="path2197" />
    </clipPath>
    <clipPath
       clipPathUnits="userSpaceOnUse"
       id="clipPath2199">
      <path
         d="m 35322.2,2934.46 c 0,-503.56 -408.2,-911.79 -911.8,-911.79 -503.5,0 -911.8,408.23 -911.8,911.79 0,503.58 408.3,911.8 911.8,911.8 503.6,0 911.8,-408.22 911.8,-911.8"
         transform="translate(0,-2.5e-4)"
         id="path2199" />
    </clipPath>
  </defs>
  <g
     inkscape:label="Layer 1"
     inkscape:groupmode="layer"
     id="layer1"
     transform="translate(-65.881341,-111.38956)">
    <path
       id="path2140"
       d="m 35322.2,2022.67 h -1823.6 v 1823.59 h 1823.6 V 2022.67"
       style="fill:#a59eff;fill-opacity:1;fill-rule:nonzero;stroke:none"
       transform="matrix(0.03527778,0,0,-0.03527778,-1115.8749,247.07707)"
       clip-path="url(#clipPath2141)" />
    <path
       id="path2142"
       d="m 34708.1,3188.32 c -14.8,-100.39 -12.1,-203.29 -21.1,-304.67 -9.1,-101.38 -31.9,-205.61 -88.8,-281.15 -56.9,-75.54 -144.3,-89.89 -229.6,-64.82 -204.9,60.26 -245.2,367.21 -245.8,433.47 -0.7,79.06 67.2,129.97 126.3,164.56 37.5,21.95 75,43.91 112.5,65.86 l 346.5,-13.25"
       style="fill:#724328;fill-opacity:1;fill-rule:nonzero;stroke:none"
       transform="matrix(0.03527778,0,0,-0.03527778,-1115.8749,247.07707)"
       clip-path="url(#clipPath2143)" />
    <path
       id="path2144"
       d="m 34876.9,2271.73 c -84.8,56.73 -187.1,79.45 -287.1,99.53 -6.1,1.22 -12.4,2.55 -17.3,6.38 -8.4,6.56 10.6,227.34 0,323.87 l -142.7,-13.36 -142.7,13.36 c -10.6,-96.53 8.4,-317.31 0,-323.87 -4.9,-3.83 -11.2,-5.16 -17.3,-6.38 -100,-20.08 -202.4,-42.8 -287.1,-99.53 -84.7,-56.73 -148.8,-155.67 -135.2,-256.72 85,0.44 322.5,-1.1 563,-4.26 v -0.52 c 6.4,0.09 12.9,0.18 19.3,0.26 6.4,-0.08 12.9,-0.17 19.3,-0.26 v 0.52 c 240.5,3.16 478,4.7 563,4.26 13.6,101.05 -50.5,199.99 -135.2,256.72"
       style="fill:#fbd1b9;fill-opacity:1;fill-rule:nonzero;stroke:none"
       transform="matrix(0.03527778,0,0,-0.03527778,-1115.8749,247.07707)"
       clip-path="url(#clipPath2145)" />
    <g
       id="g2147"
       transform="matrix(0.26458333,0,0,0.26458333,-1115.8749,-111.43686)">
      <path
         d="m 34097.2,2704.62 c 56.3,36.24 58.7,53.63 61.4,36.24 13.3,-85.44 148.3,-291.27 271.1,-291.27 158.9,0 251.1,268.24 266,335.85 -183.7,-26.25 -369.7,-52.54 -553.9,-30.45 5.1,-4.77 10.1,-9.55 15.2,-14.32 l -59.8,-36.05"
         style="fill:#dba78a;fill-opacity:1;fill-rule:nonzero;stroke:none"
         transform="matrix(0.13333333,0,0,-0.13333333,0,1355.0133)"
         clip-path="url(#clipPath2146)"
         id="path2147" />
    </g>
    <path
       id="path2148"
       d="m 34218.1,3172.92 c -32.8,-110.78 -24.7,-304.88 0,-417.75 l 0.4,-1.81 c 13.4,-60.58 34.8,-121.07 75.1,-168.23 40.3,-47.15 102.4,-79.03 163.9,-70.67 59.4,8.09 109.3,52.25 138.3,104.78 29,52.53 40.2,112.87 48.3,172.32 14.1,103.53 10.4,378.47 0.5,379.32 -128.1,10.83 -301.9,37.06 -426.5,5.64 v -3.6"
       style="fill:#fbd1b9;fill-opacity:1;fill-rule:nonzero;stroke:none"
       transform="matrix(0.03527778,0,0,-0.03527778,-1115.8749,247.07707)"
       clip-path="url(#clipPath2149)" />
    <path
       id="path2150"
       d="m 34639,2834.44 c 3.1,22.8 30.6,37.06 52.6,30.37 22,-6.69 36.5,-29.55 38.2,-52.51 1.6,-22.95 -7.7,-45.54 -20.8,-64.41 -22,-31.48 -60.6,-55.92 -97.8,-46.18 5.9,47.2 14.4,94.09 25.4,140.37 l 2.4,-7.64"
       style="fill:#fbd1b9;fill-opacity:1;fill-rule:nonzero;stroke:none"
       transform="matrix(0.03527778,0,0,-0.03527778,-1115.8749,247.07707)"
       clip-path="url(#clipPath2151)" />
    <path
       id="path2152"
       d="m 34221.5,2834.44 c -3.1,22.8 -30.6,37.06 -52.6,30.37 -22,-6.69 -36.6,-29.55 -38.2,-52.51 -1.7,-22.95 7.7,-45.54 20.8,-64.41 22,-31.48 60.6,-55.92 97.7,-46.18 -5.9,47.2 -14.3,94.09 -25.3,140.37 l -2.4,-7.64"
       style="fill:#fbd1b9;fill-opacity:1;fill-rule:nonzero;stroke:none"
       transform="matrix(0.03527778,0,0,-0.03527778,-1115.8749,247.07707)"
       clip-path="url(#clipPath2153)" />
    <path
       id="path2154"
       d="m 34325,2884.06 c 0,-15.99 -11.8,-28.95 -26.4,-28.95 -14.6,0 -26.4,12.96 -26.4,28.95 0,15.99 11.8,28.95 26.4,28.95 14.6,0 26.4,-12.96 26.4,-28.95"
       style="fill:#1a1a1a;fill-opacity:1;fill-rule:nonzero;stroke:none"
       transform="matrix(0.03527778,0,0,-0.03527778,-1115.8749,247.07707)"
       clip-path="url(#clipPath2155)" />
    <path
       id="path2156"
       d="m 34586.8,2884.06 c 0,-15.99 -11.8,-28.95 -26.4,-28.95 -14.6,0 -26.4,12.96 -26.4,28.95 0,15.99 11.8,28.95 26.4,28.95 14.6,0 26.4,-12.96 26.4,-28.95"
       style="fill:#1a1a1a;fill-opacity:1;fill-rule:nonzero;stroke:none"
       transform="matrix(0.03527778,0,0,-0.03527778,-1115.8749,247.07707)"
       clip-path="url(#clipPath2157)" />
    <path
       id="path2158"
       d="m 34412.1,2976.56 c 5.4,-30.01 9.2,-62.65 29.4,-86.81 16.1,-19.21 40.2,-30.5 65.1,-31.07 -2.2,3.85 -4.4,7.7 -6.6,11.55 -14.1,-29.53 -33.4,-55.92 -57.3,-78.23 -7.2,-6.75 3.6,-17.59 10.8,-10.85 24.8,23.11 45.2,50.74 59.7,81.33 2.5,5.22 -0.4,11.41 -6.6,11.55 -21.6,0.49 -41.9,10.92 -55.3,27.9 -6.9,8.7 -11.5,18.87 -14.2,29.58 -4,16.23 -7.3,32.68 -10.2,49.13 -1.8,9.7 -16.6,5.59 -14.8,-4.08"
       style="fill:#a46e4a;fill-opacity:1;fill-rule:nonzero;stroke:none"
       transform="matrix(0.03527778,0,0,-0.03527778,-1115.8749,247.07707)"
       clip-path="url(#clipPath2159)" />
    <path
       id="path2160"
       d="m 34514.5,2976.25 c 14.8,21.4 46.7,27.37 68.6,13.87 8.4,-5.21 16.1,8.06 7.7,13.25 -29.3,18.12 -70.2,8.75 -89.5,-19.38 -2.4,-3.42 -0.7,-8.51 2.7,-10.5 3.8,-2.22 8.2,-0.67 10.5,2.76"
       style="fill:#a46e4a;fill-opacity:1;fill-rule:nonzero;stroke:none"
       transform="matrix(0.03527778,0,0,-0.03527778,-1115.8749,247.07707)"
       clip-path="url(#clipPath2161)" />
    <path
       id="path2162"
       d="m 34260.5,2978.62 c 41.7,-7.78 85.2,4.61 116.2,33.48 7.3,6.73 -3.6,17.56 -10.8,10.85 -26.8,-24.91 -65.3,-36.26 -101.3,-29.53 -9.7,1.81 -13.8,-12.98 -4.1,-14.8"
       style="fill:#a46e4a;fill-opacity:1;fill-rule:nonzero;stroke:none"
       transform="matrix(0.03527778,0,0,-0.03527778,-1115.8749,247.07707)"
       clip-path="url(#clipPath2163)" />
    <path
       id="path2164"
       d="m 34652.6,2764.04 c 3.2,4.22 6.8,8.2 10.6,11.89 4,3.82 7.7,6.83 11.9,9.72 9,6.22 17.9,10.55 28,13.63 3.9,1.21 6.5,5.36 5.3,9.44 -1,3.92 -5.4,6.57 -9.4,5.36 -22.5,-6.87 -42.9,-20.56 -57.3,-39.19 -2.5,-3.28 -3.2,-7.66 0,-10.85 2.7,-2.65 8.3,-3.3 10.9,0"
       style="fill:#a46e4a;fill-opacity:1;fill-rule:nonzero;stroke:none"
       transform="matrix(0.03527778,0,0,-0.03527778,-1115.8749,247.07707)"
       clip-path="url(#clipPath2165)" />
    <path
       id="path2166"
       d="m 34669.1,2789.3 c 1.1,-2.56 1.9,-5.2 2.3,-7.94 l 0.2,-1.09 c -0.1,1.13 -0.1,1.26 0,0.4 l 0.1,-2.21 c 0.1,-1.38 0.1,-2.77 0,-4.15 l -0.2,-1.93 c 0.2,1.13 0.2,1.26 0,0.4 l -0.1,-1.09 c -0.3,-1.36 -0.6,-2.71 -1,-4.03 l -0.7,-1.83 -0.3,-1.04 c 0.4,0.98 0.4,1.08 0.1,0.31 -0.7,-1.34 -1.3,-2.64 -2.1,-3.91 -2.1,-3.45 -0.9,-8.58 2.8,-10.5 3.7,-1.96 8.3,-0.92 10.5,2.75 7,11.79 8.5,27.18 3.2,39.94 -0.8,1.93 -1.7,3.48 -3.5,4.58 -1.7,0.97 -4.1,1.37 -5.9,0.78 -3.6,-1.15 -7.1,-5.48 -5.4,-9.44"
       style="fill:#a46e4a;fill-opacity:1;fill-rule:nonzero;stroke:none"
       transform="matrix(0.03527778,0,0,-0.03527778,-1115.8749,247.07707)"
       clip-path="url(#clipPath2167)" />
    <path
       id="path2168"
       d="m 34162.1,2803.93 c 18.2,-13.09 30.9,-34.53 33.7,-56.41 0.5,-4.11 3.2,-7.67 7.7,-7.67 3.7,0 8.2,3.53 7.7,7.67 -3.6,28.08 -18.4,53.09 -41.4,69.66 -3.3,2.42 -8.5,0.58 -10.5,-2.75 -2.2,-3.87 -0.6,-8.07 2.8,-10.5"
       style="fill:#a46e4a;fill-opacity:1;fill-rule:nonzero;stroke:none"
       transform="matrix(0.03527778,0,0,-0.03527778,-1115.8749,247.07707)"
       clip-path="url(#clipPath2169)" />
    <path
       id="path2170"
       d="m 34175.3,2794.38 c -7.9,-13.59 -9.6,-30.67 -4.1,-45.44 1.4,-3.75 5.2,-6.71 9.4,-5.36 3.7,1.19 6.9,5.41 5.4,9.44 -1.2,3.06 -2,6.21 -2.5,9.43 0.3,-1.95 0,0.84 0,1.19 l -0.2,2.6 c 0,1.52 0.1,3.04 0.2,4.55 0,0.36 0.4,3.14 0.1,1.2 l 0.3,1.92 c 0.3,1.71 0.7,3.39 1.2,5.05 l 0.6,1.85 c 0.1,0.31 1.2,2.86 0.5,1.19 0.7,1.59 1.4,3.13 2.3,4.64 2,3.48 0.9,8.55 -2.7,10.5 -3.7,1.93 -8.4,0.96 -10.5,-2.76"
       style="fill:#a46e4a;fill-opacity:1;fill-rule:nonzero;stroke:none"
       transform="matrix(0.03527778,0,0,-0.03527778,-1115.8749,247.07707)"
       clip-path="url(#clipPath2171)" />
    <path
       id="path2172"
       d="m 34201.6,2878.12 c 8.4,75.47 16.8,150.94 25.1,226.4 125.4,-35.51 263.6,-23.86 381.2,32.15 -15.4,-40.47 20.7,-80.74 32.2,-122.52 14.4,-52.73 -11.3,-110.6 4.5,-162.95 31.2,76.09 52.5,156.29 63,237.88 5.1,39.28 7.6,79.76 -2.7,118.01 -10.3,38.24 -35.3,74.28 -72,89.13 -59.5,24.05 -135.9,-10.55 -187.5,27.5 -15.9,11.69 -26.9,28.86 -41.9,41.72 -14.9,12.86 -37.4,20.95 -54.2,10.56 -25.2,-15.63 -15.5,-54.05 -2.6,-80.77 -42.4,15.29 -86.8,30.82 -131.6,25.74 -44.8,-5.09 -90,-37.55 -93.7,-82.52 -2.5,-30.5 14.6,-60.07 37.9,-79.85 -64.6,-85.67 -46.5,-221.95 38.1,-287.88 l 4.2,7.4"
       style="fill:#724328;fill-opacity:1;fill-rule:nonzero;stroke:none"
       transform="matrix(0.03527778,0,0,-0.03527778,-1115.8749,247.07707)"
       clip-path="url(#clipPath2173)" />
    <path
       id="path2174"
       d="m 34196.3,2918.02 c 9.2,-41.19 22.6,-81.45 39.8,-119.98 18.7,-41.66 66.9,-60.12 109.5,-43.89 48,18.25 101.6,22.18 151.7,11.11 39.1,-8.67 79.3,10.18 96.4,46.47 16.7,35.43 37.7,68.81 62.5,99.13 -15.7,-43.88 -20.8,-91.52 -14.7,-137.72 4,-29.62 12.4,-58.63 14.2,-88.45 5.9,-96.18 -64.8,-189.64 -157.4,-216.42 -92.6,-26.79 -198.5,11.01 -258.7,86.24 -19.9,24.84 -35.5,54.04 -39.4,85.61 -4.3,34.45 5.4,68.9 9,103.42 5.9,56.76 -4.9,113.77 -15.6,169.81 l 2.7,4.67"
       style="fill:#724328;fill-opacity:1;fill-rule:nonzero;stroke:none"
       transform="matrix(0.03527778,0,0,-0.03527778,-1115.8749,247.07707)"
       clip-path="url(#clipPath2175)" />
    <path
       id="path2176"
       d="m 34392.3,2682.31 c 10.7,-13.95 28.5,-23.92 45.7,-20.34 12.4,2.56 22.6,11.64 29.3,22.29 6.7,10.65 10.5,15.24 14.2,27.29 -33.9,-6.71 -68.6,-1.65 -103,0 l 13.8,-29.24"
       style="fill:#ffffff;fill-opacity:1;fill-rule:nonzero;stroke:none"
       transform="matrix(0.03527778,0,0,-0.03527778,-1115.8749,247.07707)"
       clip-path="url(#clipPath2177)" />
    <path
       id="path2178"
       d="m 34386.9,2676.88 c 14.7,-18.57 39.7,-29.43 62.4,-19.13 10.4,4.72 18.5,13.21 24.6,22.64 6.1,9.34 11.6,18.42 15,29.12 1.9,5.98 -4,10.48 -9.4,9.44 -33.4,-6.38 -67.5,-1.39 -101,0.27 -6.3,0.31 -9,-6.63 -6.7,-11.54 4.7,-9.75 9.3,-19.5 13.9,-29.24 4.2,-8.93 17.4,-1.15 13.2,7.74 -4.6,9.75 -9.2,19.5 -13.8,29.24 -2.2,-3.85 -4.4,-7.69 -6.6,-11.54 35.1,-1.75 70.2,-6.4 105,0.27 -3.1,3.15 -6.3,6.29 -9.4,9.44 -2.6,-8.05 -6.6,-14.84 -11.1,-21.9 -5,-7.74 -10.4,-14.82 -18.6,-19.31 -17.2,-9.3 -35.9,1.67 -46.7,15.35 -2.5,3.28 -8.1,2.66 -10.8,0 -3.3,-3.17 -2.6,-7.61 0,-10.85"
       style="fill:#a46e4a;fill-opacity:1;fill-rule:nonzero;stroke:none"
       transform="matrix(0.03527778,0,0,-0.03527778,-1115.8749,247.07707)"
       clip-path="url(#clipPath2179)" />
    <path
       id="path2180"
       d="m 34262.9,2391.73 c 66.4,-86.56 110.5,-182.56 175.4,-275.72 48.2,76.15 162,268.42 173,274.76 17.1,9.8 243.6,-75.95 321.2,-135.93 77.7,-59.99 95.2,-149.95 103.4,-247.73 l -1222.8,1.53 c 0,0 -13,181.24 138.3,274.7 151.4,93.46 311.5,108.39 311.5,108.39"
       style="fill:#ffb753;fill-opacity:1;fill-rule:nonzero;stroke:none"
       transform="matrix(0.03527778,0,0,-0.03527778,-1115.8749,247.07707)"
       clip-path="url(#clipPath2181)" />
    <path
       id="path2182"
       d="m 34283.3,2450.99 c -44,0.98 -85.5,-28.08 -105.4,-67.28 -19.8,-39.19 -19.7,-86.56 -5.9,-128.28 13.8,-41.71 40.3,-78.27 70.9,-109.76 -0.7,22.27 -0.1,47.79 16.8,62.22 13.4,11.34 33.4,11.82 49.8,5.72 16.4,-6.09 30,-17.71 43.3,-29.1 32.1,-27.48 55.1,-39.94 87.1,-67.42 -26.6,41.78 -44.3,68.55 -70.9,110.34 -43.5,68.25 -88.8,143.09 -82,223.75 l -3.7,-0.19"
       style="fill:#ce7d1d;fill-opacity:1;fill-rule:nonzero;stroke:none"
       transform="matrix(0.03527778,0,0,-0.03527778,-1115.8749,247.07707)"
       clip-path="url(#clipPath2183)" />
    <path
       id="path2184"
       d="m 34583.7,2450.99 c 43.9,0.98 85.5,-28.08 105.3,-67.28 19.9,-39.19 19.8,-86.56 6,-128.28 -13.8,-41.71 -40.3,-78.27 -71,-109.76 0.8,22.27 0.2,47.79 -16.8,62.22 -13.3,11.34 -33.3,11.82 -49.7,5.72 -16.4,-6.09 -30.1,-17.71 -43.4,-29.1 -32,-27.48 -42.1,-39.94 -74.2,-67.42 26.7,41.78 133,255.77 133,332.5 l 10.8,1.4"
       style="fill:#ce7d1d;fill-opacity:1;fill-rule:nonzero;stroke:none"
       transform="matrix(0.03527778,0,0,-0.03527778,-1115.8749,247.07707)"
       clip-path="url(#clipPath2185)" />
    <path
       id="path2186"
       d="m 34426.2,2102.35 c -1.3,-27.27 -2.6,-54.54 -4,-81.82 -0.4,-9.87 14.9,-9.85 15.4,0 1.3,27.28 2.7,54.55 4,81.82 0.5,9.88 -14.9,9.85 -15.4,0"
       style="fill:#ce7d1d;fill-opacity:1;fill-rule:nonzero;stroke:none"
       transform="matrix(0.03527778,0,0,-0.03527778,-1115.8749,247.07707)"
       clip-path="url(#clipPath2187)" />
    <path
       id="path2188"
       d="m 34826,2135.54 c 2.5,-20.76 5.2,-41.5 7.5,-62.28 2.4,-20.7 1.1,-40.69 -1.3,-61.31 -1.1,-9.79 14.2,-9.71 15.4,0 2.4,20.62 3.6,40.62 1.3,61.31 -2.4,20.78 -5,41.52 -7.5,62.28 -1.2,9.68 -16.5,9.8 -15.4,0"
       style="fill:#ce7d1d;fill-opacity:1;fill-rule:nonzero;stroke:none"
       transform="matrix(0.03527778,0,0,-0.03527778,-1115.8749,247.07707)"
       clip-path="url(#clipPath2189)" />
    <path
       id="path2190"
       d="m 34010.2,2151.2 c -2.4,-38.28 -4.5,-76.59 -6.1,-114.91 -0.5,-9.87 14.9,-9.85 15.3,0 1.7,38.32 3.7,76.63 6.1,114.91 0.6,9.87 -14.7,9.83 -15.3,0"
       style="fill:#ce7d1d;fill-opacity:1;fill-rule:nonzero;stroke:none"
       transform="matrix(0.03527778,0,0,-0.03527778,-1115.8749,247.07707)"
       clip-path="url(#clipPath2191)" />
    <path
       id="path2192"
       d="m 34657.3,3259.3 c 19.5,17.99 33.1,42.3 37.9,68.36 0.8,4.07 -1.1,8.28 -5.4,9.44 -3.7,1.03 -8.6,-1.26 -9.4,-5.36 -4.4,-23.7 -16.2,-45.22 -33.9,-61.59 -7.3,-6.71 3.6,-17.54 10.8,-10.85"
       style="fill:#724328;fill-opacity:1;fill-rule:nonzero;stroke:none"
       transform="matrix(0.03527778,0,0,-0.03527778,-1115.8749,247.07707)"
       clip-path="url(#clipPath2193)" />
    <path
       id="path2194"
       d="m 34675.3,3235.88 c 14.9,15.94 33.5,27.93 54.1,34.61 4,1.27 6.5,5.31 5.4,9.43 -1.1,3.87 -5.5,6.65 -9.5,5.36 -23.1,-7.5 -44.2,-20.74 -60.8,-38.55 -2.8,-3.03 -3,-7.85 0,-10.85 2.8,-2.86 8,-3.05 10.8,0"
       style="fill:#724328;fill-opacity:1;fill-rule:nonzero;stroke:none"
       transform="matrix(0.03527778,0,0,-0.03527778,-1115.8749,247.07707)"
       clip-path="url(#clipPath2195)" />
    <path
       id="path2196"
       d="m 34199.8,3182.3 c 90.8,-69.9 213,-74.08 319.9,-45.98 32.9,8.64 64.9,20.16 96.2,33.36 3.9,1.62 6.6,5.05 5.4,9.43 -0.9,3.61 -5.6,6.97 -9.4,5.36 -102.3,-43.07 -218,-68.61 -326,-31.1 -28.2,9.79 -54.7,23.97 -78.3,42.18 -3.3,2.55 -8.6,0.48 -10.5,-2.76 -2.4,-3.93 -0.5,-7.98 2.7,-10.49"
       style="fill:#a46e4a;fill-opacity:1;fill-rule:nonzero;stroke:none"
       transform="matrix(0.03527778,0,0,-0.03527778,-1115.8749,247.07707)"
       clip-path="url(#clipPath2197)" />
    <path
       id="path2198"
       d="m 34275.6,3196.15 c 71,-28.41 152.4,-29.37 224.5,-3.86 20.3,7.19 39.8,16.41 58.2,27.59 8.4,5.12 0.7,18.4 -7.7,13.25 -62.6,-37.98 -138.9,-52.07 -210.9,-39.34 -20.6,3.63 -40.7,9.41 -60,17.16 -9.2,3.67 -13.2,-11.17 -4.1,-14.8"
       style="fill:#a46e4a;fill-opacity:1;fill-rule:nonzero;stroke:none"
       transform="matrix(0.03527778,0,0,-0.03527778,-1115.8749,247.07707)"
       clip-path="url(#clipPath2199)" />
  </g>
</svg>
