<?xml version="1.0" encoding="UTF-8" standalone="no"?>
<!-- Created with Inkscape (http://www.inkscape.org/) -->

<svg
   width="64.329033mm"
   height="67.405617mm"
   viewBox="0 0 64.329033 67.405617"
   version="1.1"
   id="svg1"
   inkscape:version="1.3.2 (091e20e, 2023-11-25)"
   sodipodi:docname="black-striped-shirt-boy-avatar.svg"
   xmlns:inkscape="http://www.inkscape.org/namespaces/inkscape"
   xmlns:sodipodi="http://sodipodi.sourceforge.net/DTD/sodipodi-0.dtd"
   xmlns="http://www.w3.org/2000/svg"
   xmlns:svg="http://www.w3.org/2000/svg">
  <sodipodi:namedview
     id="namedview1"
     pagecolor="#ffffff"
     bordercolor="#000000"
     borderopacity="0.25"
     inkscape:showpageshadow="2"
     inkscape:pageopacity="0.0"
     inkscape:pagecheckerboard="0"
     inkscape:deskcolor="#d1d1d1"
     inkscape:document-units="mm"
     inkscape:zoom="0.2102413"
     inkscape:cx="159.34072"
     inkscape:cy="149.82784"
     inkscape:window-width="1920"
     inkscape:window-height="1052"
     inkscape:window-x="0"
     inkscape:window-y="28"
     inkscape:window-maximized="0"
     inkscape:current-layer="layer1" />
  <defs
     id="defs1">
    <clipPath
       clipPathUnits="userSpaceOnUse"
       id="clipPath1693">
      <path
         d="m 37491.6,5084.48 c 0,-503.57 -408.2,-911.8 -911.7,-911.8 -503.6,0 -911.8,408.23 -911.8,911.8 0,503.57 408.2,911.79 911.8,911.79 503.5,0 911.7,-408.22 911.7,-911.79"
         transform="translate(0,-2.5e-4)"
         id="path1693" />
    </clipPath>
    <clipPath
       clipPathUnits="userSpaceOnUse"
       id="clipPath1695">
      <path
         d="m 37491.6,5084.48 c 0,-503.57 -408.2,-911.8 -911.7,-911.8 -503.6,0 -911.8,408.23 -911.8,911.8 0,503.57 408.2,911.79 911.8,911.79 503.5,0 911.7,-408.22 911.7,-911.79"
         transform="translate(0,-2.5e-4)"
         id="path1695" />
    </clipPath>
    <clipPath
       clipPathUnits="userSpaceOnUse"
       id="clipPath1697">
      <path
         d="m 37491.6,5084.48 c 0,-503.57 -408.2,-911.8 -911.7,-911.8 -503.6,0 -911.8,408.23 -911.8,911.8 0,503.57 408.2,911.79 911.8,911.79 503.5,0 911.7,-408.22 911.7,-911.79"
         transform="translate(0,-2.5e-4)"
         id="path1697" />
    </clipPath>
    <clipPath
       clipPathUnits="userSpaceOnUse"
       id="clipPath1698">
      <path
         d="m 37093.3,4377.21 c -94.3,63.15 -208.3,88.44 -319.6,110.79 -6.7,1.37 -13.8,2.85 -19.3,7.11 -9.3,7.3 11.9,253.1 0,360.56 l -158.8,-14.87 -158.9,14.87 c -11.8,-107.46 9.4,-353.26 0,-360.56 -5.4,-4.26 -12.5,-5.74 -19.3,-7.11 -111.2,-22.35 -225.2,-47.64 -319.5,-110.79 -94.3,-63.17 -165.8,-173.32 -150.6,-285.82 94.7,0.49 359,-1.22 626.8,-4.74 v -0.58 c 7.2,0.1 14.3,0.2 21.5,0.29 7.2,-0.09 14.3,-0.19 21.5,-0.29 v 0.58 c 267.8,3.52 532.1,5.23 626.8,4.74 15.2,112.5 -56.3,222.65 -150.6,285.82"
         transform="translate(0,-2.5e-4)"
         id="path1698" />
    </clipPath>
    <clipPath
       clipPathUnits="userSpaceOnUse"
       id="clipPath1701">
      <path
         d="m 37491.6,5084.48 c 0,-503.57 -408.2,-911.8 -911.7,-911.8 -503.6,0 -911.8,408.23 -911.8,911.8 0,503.57 408.2,911.79 911.8,911.79 503.5,0 911.7,-408.22 911.7,-911.79"
         transform="translate(0,-2.5e-4)"
         id="path1701" />
    </clipPath>
    <clipPath
       clipPathUnits="userSpaceOnUse"
       id="clipPath1703">
      <path
         d="m 37491.6,5084.48 c 0,-503.57 -408.2,-911.8 -911.7,-911.8 -503.6,0 -911.8,408.23 -911.8,911.8 0,503.57 408.2,911.79 911.8,911.79 503.5,0 911.7,-408.22 911.7,-911.79"
         transform="translate(0,-2.5e-4)"
         id="path1703" />
    </clipPath>
    <clipPath
       clipPathUnits="userSpaceOnUse"
       id="clipPath1705">
      <path
         d="m 37491.6,5084.48 c 0,-503.57 -408.2,-911.8 -911.7,-911.8 -503.6,0 -911.8,408.23 -911.8,911.8 0,503.57 408.2,911.79 911.8,911.79 503.5,0 911.7,-408.22 911.7,-911.79"
         transform="translate(0,-2.5e-4)"
         id="path1705" />
    </clipPath>
    <clipPath
       clipPathUnits="userSpaceOnUse"
       id="clipPath1707">
      <path
         d="m 37491.6,5084.48 c 0,-503.57 -408.2,-911.8 -911.7,-911.8 -503.6,0 -911.8,408.23 -911.8,911.8 0,503.57 408.2,911.79 911.8,911.79 503.5,0 911.7,-408.22 911.7,-911.79"
         transform="translate(0,-2.5e-4)"
         id="path1707" />
    </clipPath>
    <clipPath
       clipPathUnits="userSpaceOnUse"
       id="clipPath1709">
      <path
         d="m 37491.6,5084.48 c 0,-503.57 -408.2,-911.8 -911.7,-911.8 -503.6,0 -911.8,408.23 -911.8,911.8 0,503.57 408.2,911.79 911.8,911.79 503.5,0 911.7,-408.22 911.7,-911.79"
         transform="translate(0,-2.5e-4)"
         id="path1709" />
    </clipPath>
    <clipPath
       clipPathUnits="userSpaceOnUse"
       id="clipPath1711">
      <path
         d="m 37491.6,5084.48 c 0,-503.57 -408.2,-911.8 -911.7,-911.8 -503.6,0 -911.8,408.23 -911.8,911.8 0,503.57 408.2,911.79 911.8,911.79 503.5,0 911.7,-408.22 911.7,-911.79"
         transform="translate(0,-2.5e-4)"
         id="path1711" />
    </clipPath>
    <clipPath
       clipPathUnits="userSpaceOnUse"
       id="clipPath1713">
      <path
         d="m 37491.6,5084.48 c 0,-503.57 -408.2,-911.8 -911.7,-911.8 -503.6,0 -911.8,408.23 -911.8,911.8 0,503.57 408.2,911.79 911.8,911.79 503.5,0 911.7,-408.22 911.7,-911.79"
         transform="translate(0,-2.5e-4)"
         id="path1713" />
    </clipPath>
    <clipPath
       clipPathUnits="userSpaceOnUse"
       id="clipPath1715">
      <path
         d="m 37491.6,5084.48 c 0,-503.57 -408.2,-911.8 -911.7,-911.8 -503.6,0 -911.8,408.23 -911.8,911.8 0,503.57 408.2,911.79 911.8,911.79 503.5,0 911.7,-408.22 911.7,-911.79"
         transform="translate(0,-2.5e-4)"
         id="path1715" />
    </clipPath>
    <clipPath
       clipPathUnits="userSpaceOnUse"
       id="clipPath1717">
      <path
         d="m 37491.6,5084.48 c 0,-503.57 -408.2,-911.8 -911.7,-911.8 -503.6,0 -911.8,408.23 -911.8,911.8 0,503.57 408.2,911.79 911.8,911.79 503.5,0 911.7,-408.22 911.7,-911.79"
         transform="translate(0,-2.5e-4)"
         id="path1717" />
    </clipPath>
    <clipPath
       clipPathUnits="userSpaceOnUse"
       id="clipPath1719">
      <path
         d="m 37491.6,5084.48 c 0,-503.57 -408.2,-911.8 -911.7,-911.8 -503.6,0 -911.8,408.23 -911.8,911.8 0,503.57 408.2,911.79 911.8,911.79 503.5,0 911.7,-408.22 911.7,-911.79"
         transform="translate(0,-2.5e-4)"
         id="path1719" />
    </clipPath>
    <clipPath
       clipPathUnits="userSpaceOnUse"
       id="clipPath1721">
      <path
         d="m 37491.6,5084.48 c 0,-503.57 -408.2,-911.8 -911.7,-911.8 -503.6,0 -911.8,408.23 -911.8,911.8 0,503.57 408.2,911.79 911.8,911.79 503.5,0 911.7,-408.22 911.7,-911.79"
         transform="translate(0,-2.5e-4)"
         id="path1721" />
    </clipPath>
    <clipPath
       clipPathUnits="userSpaceOnUse"
       id="clipPath1723">
      <path
         d="m 37491.6,5084.48 c 0,-503.57 -408.2,-911.8 -911.7,-911.8 -503.6,0 -911.8,408.23 -911.8,911.8 0,503.57 408.2,911.79 911.8,911.79 503.5,0 911.7,-408.22 911.7,-911.79"
         transform="translate(0,-2.5e-4)"
         id="path1723" />
    </clipPath>
    <clipPath
       clipPathUnits="userSpaceOnUse"
       id="clipPath1725">
      <path
         d="m 37491.6,5084.48 c 0,-503.57 -408.2,-911.8 -911.7,-911.8 -503.6,0 -911.8,408.23 -911.8,911.8 0,503.57 408.2,911.79 911.8,911.79 503.5,0 911.7,-408.22 911.7,-911.79"
         transform="translate(0,-2.5e-4)"
         id="path1725" />
    </clipPath>
    <clipPath
       clipPathUnits="userSpaceOnUse"
       id="clipPath1727">
      <path
         d="m 37491.6,5084.48 c 0,-503.57 -408.2,-911.8 -911.7,-911.8 -503.6,0 -911.8,408.23 -911.8,911.8 0,503.57 408.2,911.79 911.8,911.79 503.5,0 911.7,-408.22 911.7,-911.79"
         transform="translate(0,-2.5e-4)"
         id="path1727" />
    </clipPath>
    <clipPath
       clipPathUnits="userSpaceOnUse"
       id="clipPath1729">
      <path
         d="m 37491.6,5084.48 c 0,-503.57 -408.2,-911.8 -911.7,-911.8 -503.6,0 -911.8,408.23 -911.8,911.8 0,503.57 408.2,911.79 911.8,911.79 503.5,0 911.7,-408.22 911.7,-911.79"
         transform="translate(0,-2.5e-4)"
         id="path1729" />
    </clipPath>
    <clipPath
       clipPathUnits="userSpaceOnUse"
       id="clipPath1731">
      <path
         d="m 37491.6,5084.48 c 0,-503.57 -408.2,-911.8 -911.7,-911.8 -503.6,0 -911.8,408.23 -911.8,911.8 0,503.57 408.2,911.79 911.8,911.79 503.5,0 911.7,-408.22 911.7,-911.79"
         transform="translate(0,-2.5e-4)"
         id="path1731" />
    </clipPath>
    <clipPath
       clipPathUnits="userSpaceOnUse"
       id="clipPath1733">
      <path
         d="m 37491.6,5084.48 c 0,-503.57 -408.2,-911.8 -911.7,-911.8 -503.6,0 -911.8,408.23 -911.8,911.8 0,503.57 408.2,911.79 911.8,911.79 503.5,0 911.7,-408.22 911.7,-911.79"
         transform="translate(0,-2.5e-4)"
         id="path1733" />
    </clipPath>
    <clipPath
       clipPathUnits="userSpaceOnUse"
       id="clipPath1735">
      <path
         d="m 37491.6,5084.48 c 0,-503.57 -408.2,-911.8 -911.7,-911.8 -503.6,0 -911.8,408.23 -911.8,911.8 0,503.57 408.2,911.79 911.8,911.79 503.5,0 911.7,-408.22 911.7,-911.79"
         transform="translate(0,-2.5e-4)"
         id="path1735" />
    </clipPath>
    <clipPath
       clipPathUnits="userSpaceOnUse"
       id="clipPath1737">
      <path
         d="m 37491.6,5084.48 c 0,-503.57 -408.2,-911.8 -911.7,-911.8 -503.6,0 -911.8,408.23 -911.8,911.8 0,503.57 408.2,911.79 911.8,911.79 503.5,0 911.7,-408.22 911.7,-911.79"
         transform="translate(0,-2.5e-4)"
         id="path1737" />
    </clipPath>
    <clipPath
       clipPathUnits="userSpaceOnUse"
       id="clipPath1738">
      <path
         d="m 36912.8,4477.25 c -73.9,-101.2 -182.4,-139.79 -308.2,-135.51 v 0.81 c -2.9,-0.16 -5.7,-0.31 -8.5,-0.46 -2.9,0.15 -5.7,0.3 -8.5,0.46 v -0.81 c -125.9,-4.28 -228.7,34.31 -302.5,135.51 0,0 -385,-74.04 -345.1,-384.57 0.2,-2.12 319,-4.81 647.6,-7.01 v -0.11 c 2.8,0.01 5.6,0.03 8.5,0.05 2.8,-0.02 5.6,-0.04 8.5,-0.05 v 0.11 c 328.5,2.2 647.4,4.88 647.6,7.01 31.8,304.83 -339.4,384.57 -339.4,384.57"
         transform="translate(0,-2.5e-4)"
         id="path1738" />
    </clipPath>
    <clipPath
       clipPathUnits="userSpaceOnUse"
       id="clipPath1739">
      <path
         d="m 36912.8,4477.25 c -73.9,-101.2 -182.4,-139.79 -308.2,-135.51 v 0.81 c -2.9,-0.16 -5.7,-0.31 -8.5,-0.46 -2.9,0.15 -5.7,0.3 -8.5,0.46 v -0.81 c -125.9,-4.28 -228.7,34.31 -302.5,135.51 0,0 -385,-74.04 -345.1,-384.57 0.2,-2.12 319,-4.81 647.6,-7.01 v -0.11 c 2.8,0.01 5.6,0.03 8.5,0.05 2.8,-0.02 5.6,-0.04 8.5,-0.05 v 0.11 c 328.5,2.2 647.4,4.88 647.6,7.01 31.8,304.83 -339.4,384.57 -339.4,384.57"
         transform="translate(0,-2.5e-4)"
         id="path1739" />
    </clipPath>
    <clipPath
       clipPathUnits="userSpaceOnUse"
       id="clipPath1740">
      <path
         d="m 36912.8,4477.25 c -73.9,-101.2 -182.4,-139.79 -308.2,-135.51 v 0.81 c -2.9,-0.16 -5.7,-0.31 -8.5,-0.46 -2.9,0.15 -5.7,0.3 -8.5,0.46 v -0.81 c -125.9,-4.28 -228.7,34.31 -302.5,135.51 0,0 -385,-74.04 -345.1,-384.57 0.2,-2.12 319,-4.81 647.6,-7.01 v -0.11 c 2.8,0.01 5.6,0.03 8.5,0.05 2.8,-0.02 5.6,-0.04 8.5,-0.05 v 0.11 c 328.5,2.2 647.4,4.88 647.6,7.01 31.8,304.83 -339.4,384.57 -339.4,384.57"
         transform="translate(0,-2.5e-4)"
         id="path1740" />
    </clipPath>
    <clipPath
       clipPathUnits="userSpaceOnUse"
       id="clipPath1741">
      <path
         d="m 36912.8,4477.25 c -73.9,-101.2 -182.4,-139.79 -308.2,-135.51 v 0.81 c -2.9,-0.16 -5.7,-0.31 -8.5,-0.46 -2.9,0.15 -5.7,0.3 -8.5,0.46 v -0.81 c -125.9,-4.28 -228.7,34.31 -302.5,135.51 0,0 -385,-74.04 -345.1,-384.57 0.2,-2.12 319,-4.81 647.6,-7.01 v -0.11 c 2.8,0.01 5.6,0.03 8.5,0.05 2.8,-0.02 5.6,-0.04 8.5,-0.05 v 0.11 c 328.5,2.2 647.4,4.88 647.6,7.01 31.8,304.83 -339.4,384.57 -339.4,384.57"
         transform="translate(0,-2.5e-4)"
         id="path1741" />
    </clipPath>
    <clipPath
       clipPathUnits="userSpaceOnUse"
       id="clipPath1742">
      <path
         d="m 36912.8,4477.25 c -73.9,-101.2 -182.4,-139.79 -308.2,-135.51 v 0.81 c -2.9,-0.16 -5.7,-0.31 -8.5,-0.46 -2.9,0.15 -5.7,0.3 -8.5,0.46 v -0.81 c -125.9,-4.28 -228.7,34.31 -302.5,135.51 0,0 -385,-74.04 -345.1,-384.57 0.2,-2.12 319,-4.81 647.6,-7.01 v -0.11 c 2.8,0.01 5.6,0.03 8.5,0.05 2.8,-0.02 5.6,-0.04 8.5,-0.05 v 0.11 c 328.5,2.2 647.4,4.88 647.6,7.01 31.8,304.83 -339.4,384.57 -339.4,384.57"
         transform="translate(0,-2.5e-4)"
         id="path1742" />
    </clipPath>
    <clipPath
       clipPathUnits="userSpaceOnUse"
       id="clipPath1743">
      <path
         d="m 36912.8,4477.25 c -73.9,-101.2 -182.4,-139.79 -308.2,-135.51 v 0.81 c -2.9,-0.16 -5.7,-0.31 -8.5,-0.46 -2.9,0.15 -5.7,0.3 -8.5,0.46 v -0.81 c -125.9,-4.28 -228.7,34.31 -302.5,135.51 0,0 -385,-74.04 -345.1,-384.57 0.2,-2.12 319,-4.81 647.6,-7.01 v -0.11 c 2.8,0.01 5.6,0.03 8.5,0.05 2.8,-0.02 5.6,-0.04 8.5,-0.05 v 0.11 c 328.5,2.2 647.4,4.88 647.6,7.01 31.8,304.83 -339.4,384.57 -339.4,384.57"
         transform="translate(0,-2.5e-4)"
         id="path1743" />
    </clipPath>
    <clipPath
       clipPathUnits="userSpaceOnUse"
       id="clipPath1744">
      <path
         d="m 36912.8,4477.25 c -73.9,-101.2 -182.4,-139.79 -308.2,-135.51 v 0.81 c -2.9,-0.16 -5.7,-0.31 -8.5,-0.46 -2.9,0.15 -5.7,0.3 -8.5,0.46 v -0.81 c -125.9,-4.28 -228.7,34.31 -302.5,135.51 0,0 -385,-74.04 -345.1,-384.57 0.2,-2.12 319,-4.81 647.6,-7.01 v -0.11 c 2.8,0.01 5.6,0.03 8.5,0.05 2.8,-0.02 5.6,-0.04 8.5,-0.05 v 0.11 c 328.5,2.2 647.4,4.88 647.6,7.01 31.8,304.83 -339.4,384.57 -339.4,384.57"
         transform="translate(0,-2.5e-4)"
         id="path1744" />
    </clipPath>
    <clipPath
       clipPathUnits="userSpaceOnUse"
       id="clipPath1745">
      <path
         d="m 36912.8,4477.25 c -73.9,-101.2 -182.4,-139.79 -308.2,-135.51 v 0.81 c -2.9,-0.16 -5.7,-0.31 -8.5,-0.46 -2.9,0.15 -5.7,0.3 -8.5,0.46 v -0.81 c -125.9,-4.28 -228.7,34.31 -302.5,135.51 0,0 -385,-74.04 -345.1,-384.57 0.2,-2.12 319,-4.81 647.6,-7.01 v -0.11 c 2.8,0.01 5.6,0.03 8.5,0.05 2.8,-0.02 5.6,-0.04 8.5,-0.05 v 0.11 c 328.5,2.2 647.4,4.88 647.6,7.01 31.8,304.83 -339.4,384.57 -339.4,384.57"
         transform="translate(0,-2.5e-4)"
         id="path1745" />
    </clipPath>
    <clipPath
       clipPathUnits="userSpaceOnUse"
       id="clipPath1746">
      <path
         d="m 36912.8,4477.25 c -73.9,-101.2 -182.4,-139.79 -308.2,-135.51 v 0.81 c -2.9,-0.16 -5.7,-0.31 -8.5,-0.46 -2.9,0.15 -5.7,0.3 -8.5,0.46 v -0.81 c -125.9,-4.28 -228.7,34.31 -302.5,135.51 0,0 -385,-74.04 -345.1,-384.57 0.2,-2.12 319,-4.81 647.6,-7.01 v -0.11 c 2.8,0.01 5.6,0.03 8.5,0.05 2.8,-0.02 5.6,-0.04 8.5,-0.05 v 0.11 c 328.5,2.2 647.4,4.88 647.6,7.01 31.8,304.83 -339.4,384.57 -339.4,384.57"
         transform="translate(0,-2.5e-4)"
         id="path1746" />
    </clipPath>
  </defs>
  <g
     inkscape:label="Layer 1"
     inkscape:groupmode="layer"
     id="layer1"
     transform="translate(-63.500085,-108.47914)">
    <path
       id="path1692"
       d="m 37491.6,4172.69 h -1823.5 v 1823.58 h 1823.5 V 4172.69"
       style="fill:#a59eff;fill-opacity:1;fill-rule:nonzero;stroke:none"
       transform="matrix(0.03527778,0,0,-0.03527778,-1194.7913,320.01423)"
       clip-path="url(#clipPath1693)" />
    <path
       id="path1694"
       d="m 36869.5,5007.6 c 17.2,-8.45 39.3,0.38 48.3,19.29 9,18.9 3.7,45.22 -11.7,57.47 19.8,1.49 33.4,26.93 31.8,49.83 -1.7,22.91 -14.4,42.73 -28.4,59.05 20.6,4.15 34.1,29.68 34.1,53.84 -0.1,24.16 -10.6,46.63 -22.9,66.22 32.9,22.37 34.6,86.11 3.1,110.83 15.2,1.73 24.4,21.69 23.7,39.3 -0.8,17.6 -8.5,33.63 -14.2,49.98 -10,28.55 -14.4,59.73 -27.2,86.73 -12.8,27 -38.1,49.97 -64.3,44.05 -1.8,-0.41 -3.9,-1.41 -4.1,-3.54 -0.2,-2.14 3.5,-2.6 3,-0.54 -11.9,31.55 -40.5,53.65 -70.3,54.18 -12.3,0.22 -27.9,-7.58 -26.7,-21.77 -14.2,46.48 -72.7,64.64 -105.2,32.64 -27.9,30.87 -78.3,28.08 -103.6,-5.74 -48.6,33.89 -119.3,14.76 -149.9,-40.56 -23.2,11.41 -46.5,-14.87 -61.5,-38.25 -3.8,-5.97 -7.9,-13.11 -6.2,-20.28 1.7,-7.17 12.8,-9.17 13.8,-1.82 -38.5,-10.16 -59,-70.43 -36.9,-108.19 -24.1,-32.59 -26.9,-83.81 -6.5,-119.61 -12,-17.1 -22.8,-36.17 -26.2,-57.79 -3.5,-21.62 1.8,-46.27 17.2,-59.32 -24.9,-24.33 -26.7,-73.68 -3.8,-100.39 -17.8,-26.57 -12.4,-69.84 11.2,-89.48 -8,-8.68 -2.5,-25.09 6.6,-32.29 9.1,-7.2 20.5,-9.43 29.6,-16.52 9.4,-7.26 15.5,-18.98 24.5,-26.79 15.8,-13.77 40.2,-12.23 54.7,3.44 1.9,-23.32 16.3,-44.65 35.4,-52.58 19.1,-7.93 41.9,-2.05 56.3,14.49 7.1,-25.89 33.5,-39.83 56.8,-36.61 23.4,3.21 43.8,19.83 60.7,38.7 1.5,-19.41 22.6,-27.26 39.5,-27.02 29.3,0.41 58.4,11.15 82.5,30.41 32.4,-26.59 83.8,-13.16 103.3,27 6.5,-13.96 25,-17.85 35.4,-7.48 10.4,10.37 9.8,32.01 -1.1,41.59 l -0.8,-12.47"
       style="fill:#7f4e33;fill-opacity:1;fill-rule:nonzero;stroke:none"
       transform="matrix(0.03527778,0,0,-0.03527778,-1194.7913,320.01423)"
       clip-path="url(#clipPath1695)" />
    <path
       id="path1696"
       d="m 37093.3,4377.2 c -94.3,63.16 -208.3,88.45 -319.5,110.81 -6.8,1.36 -13.9,2.84 -19.4,7.1 -9.3,7.3 11.9,253.1 0,360.56 l -158.8,-14.87 -158.9,14.87 c -11.8,-107.46 9.4,-353.26 0,-360.56 -5.4,-4.26 -12.5,-5.74 -19.3,-7.1 -111.2,-22.36 -225.2,-47.65 -319.5,-110.81 -94.3,-63.16 -165.8,-173.31 -150.6,-285.81 94.7,0.49 359,-1.22 626.8,-4.74 v -0.58 c 7.2,0.1 14.3,0.19 21.5,0.29 7.2,-0.1 14.3,-0.19 21.5,-0.29 v 0.58 c 267.8,3.52 532.1,5.23 626.8,4.74 15.2,112.5 -56.3,222.65 -150.6,285.81"
       style="fill:#fbd1b9;fill-opacity:1;fill-rule:nonzero;stroke:none"
       transform="matrix(0.03527778,0,0,-0.03527778,-1194.7913,320.01423)"
       clip-path="url(#clipPath1697)" />
    <g
       id="g1699"
       transform="matrix(0.26458333,0,0,0.26458333,-1194.7913,-38.499703)">
      <path
         d="m 36225.3,4859.14 c 62.7,40.34 65.3,59.7 68.4,40.34 14.8,-95.12 165.1,-324.26 301.8,-324.26 176.9,0 279.6,298.63 296.1,373.89 -204.4,-29.22 -411.6,-58.49 -616.6,-33.9 5.6,-5.31 11.2,-10.62 16.9,-15.94 l -66.6,-40.13"
         style="fill:#dba78a;fill-opacity:1;fill-rule:nonzero;stroke:none"
         transform="matrix(0.13333333,0,0,-0.13333333,0,1355.0133)"
         clip-path="url(#clipPath1698)"
         id="path1699" />
    </g>
    <path
       id="path1700"
       d="m 36342.1,5424.84 c -36.6,-123.33 -4,-383.77 23.5,-509.42 l 0.5,-2.02 c 14.9,-67.44 38.7,-134.79 83.6,-187.28 44.9,-52.5 114,-88 182.4,-78.69 66.2,9.01 121.8,58.18 154.1,116.65 32.3,58.48 44.7,125.66 53.7,191.85 15.7,115.26 19.7,457.74 8.6,458.68 -142.6,12.07 -342.2,34.98 -480.9,0 l -25.5,10.23"
       style="fill:#fbd1b9;fill-opacity:1;fill-rule:nonzero;stroke:none"
       transform="matrix(0.03527778,0,0,-0.03527778,-1194.7913,320.01423)"
       clip-path="url(#clipPath1701)" />
    <path
       id="path1702"
       d="m 36834.2,5003.67 c 3.5,25.39 34.1,41.26 58.6,33.81 24.5,-7.44 40.7,-32.9 42.5,-58.46 1.8,-25.55 -8.5,-50.7 -23.2,-71.71 -24.4,-35.05 -67.4,-62.25 -108.8,-51.41 6.6,52.55 16,104.75 28.2,156.28 l 2.7,-8.51"
       style="fill:#fbd1b9;fill-opacity:1;fill-rule:nonzero;stroke:none"
       transform="matrix(0.03527778,0,0,-0.03527778,-1194.7913,320.01423)"
       clip-path="url(#clipPath1703)" />
    <path
       id="path1704"
       d="m 36369.4,5003.67 c -3.5,25.39 -34,41.26 -58.6,33.81 -24.5,-7.44 -40.7,-32.9 -42.5,-58.46 -1.8,-25.55 8.6,-50.7 23.2,-71.71 24.5,-35.05 67.5,-62.25 108.8,-51.41 -6.6,52.55 -16,104.75 -28.2,156.28 l -2.7,-8.51"
       style="fill:#fbd1b9;fill-opacity:1;fill-rule:nonzero;stroke:none"
       transform="matrix(0.03527778,0,0,-0.03527778,-1194.7913,320.01423)"
       clip-path="url(#clipPath1705)" />
    <path
       id="path1706"
       d="m 36857.3,4928.29 c 12.3,23.6 28.6,44.68 48.3,62.55 3.1,2.79 2.9,8.03 0,10.86 -3,3.05 -7.7,2.79 -10.8,0 -20.6,-18.67 -37.9,-41.02 -50.8,-65.67 -1.9,-3.67 -0.9,-8.33 2.8,-10.49 3.4,-2.02 8.6,-0.94 10.5,2.75"
       style="fill:#a46e4a;fill-opacity:1;fill-rule:nonzero;stroke:none"
       transform="matrix(0.03527778,0,0,-0.03527778,-1194.7913,320.01423)"
       clip-path="url(#clipPath1707)" />
    <path
       id="path1708"
       d="m 36873.8,4967.95 c 3.7,-16.52 7.4,-33.04 11.1,-49.56 0.9,-3.92 5.6,-6.59 9.5,-5.35 4.1,1.33 6.3,5.23 5.3,9.43 -3.7,16.52 -7.4,33.04 -11.1,49.56 -0.9,3.92 -5.6,6.59 -9.4,5.36 -4.2,-1.34 -6.3,-5.24 -5.4,-9.44"
       style="fill:#a46e4a;fill-opacity:1;fill-rule:nonzero;stroke:none"
       transform="matrix(0.03527778,0,0,-0.03527778,-1194.7913,320.01423)"
       clip-path="url(#clipPath1709)" />
    <path
       id="path1710"
       d="m 36299.6,4976.5 c 17.7,-21.86 35.5,-43.72 53.3,-65.59 2.6,-3.21 8.1,-2.71 10.8,0 3.2,3.19 2.6,7.63 0,10.86 -17.7,21.86 -35.5,43.72 -53.3,65.58 -2.6,3.22 -8.1,2.72 -10.8,0 -3.2,-3.18 -2.6,-7.63 0,-10.85"
       style="fill:#a46e4a;fill-opacity:1;fill-rule:nonzero;stroke:none"
       transform="matrix(0.03527778,0,0,-0.03527778,-1194.7913,320.01423)"
       clip-path="url(#clipPath1711)" />
    <path
       id="path1712"
       d="m 36314,4919.54 c 7.7,4.05 15.3,8.11 23,12.16 3.6,1.87 4.9,7.11 2.8,10.49 -2.4,3.62 -6.7,4.77 -10.5,2.76 -7.7,-4.05 -15.4,-8.11 -23,-12.16 -3.6,-1.88 -5,-7.11 -2.8,-10.5 2.3,-3.61 6.7,-4.76 10.5,-2.75"
       style="fill:#a46e4a;fill-opacity:1;fill-rule:nonzero;stroke:none"
       transform="matrix(0.03527778,0,0,-0.03527778,-1194.7913,320.01423)"
       clip-path="url(#clipPath1713)" />
    <path
       id="path1714"
       d="m 36485.1,5048.65 c 0,-20.85 -12.2,-37.76 -27.3,-37.76 -15.1,0 -27.4,16.91 -27.4,37.76 0,20.86 12.3,37.76 27.4,37.76 15.1,0 27.3,-16.9 27.3,-37.76"
       style="fill:#1a1a1a;fill-opacity:1;fill-rule:nonzero;stroke:none"
       transform="matrix(0.03527778,0,0,-0.03527778,-1194.7913,320.01423)"
       clip-path="url(#clipPath1715)" />
    <path
       id="path1716"
       d="m 36760.7,5048.65 c 0,-20.85 -12.3,-37.76 -27.4,-37.76 -15.1,0 -27.3,16.91 -27.3,37.76 0,20.86 12.2,37.76 27.3,37.76 15.1,0 27.4,-16.9 27.4,-37.76"
       style="fill:#1a1a1a;fill-opacity:1;fill-rule:nonzero;stroke:none"
       transform="matrix(0.03527778,0,0,-0.03527778,-1194.7913,320.01423)"
       clip-path="url(#clipPath1717)" />
    <path
       id="path1718"
       d="m 36497.4,5260.79 c 7.4,-7.63 3.8,-21.24 -4.5,-27.9 -8.2,-6.67 -19.3,-8.25 -29.8,-9.59 -16.2,-2.05 -32.3,-4.1 -48.5,-6.15 21.3,24.32 46.7,50.6 79,50.88 l 3.8,-7.24"
       style="fill:#7f4e33;fill-opacity:1;fill-rule:nonzero;stroke:none"
       transform="matrix(0.03527778,0,0,-0.03527778,-1194.7913,320.01423)"
       clip-path="url(#clipPath1719)" />
    <path
       id="path1720"
       d="m 36687.6,5251.27 c -7.9,-8.62 -3.3,-21.93 6.2,-27.64 9.5,-5.7 22.1,-5.91 33.9,-5.95 18.2,-0.06 36.4,-0.12 54.6,-0.18 -24.9,21.92 -54.4,45.32 -90.7,41.56 l -4,-7.79"
       style="fill:#7f4e33;fill-opacity:1;fill-rule:nonzero;stroke:none"
       transform="matrix(0.03527778,0,0,-0.03527778,-1194.7913,320.01423)"
       clip-path="url(#clipPath1721)" />
    <path
       id="path1722"
       d="m 36920.4,5386.31 c -16.5,31.36 -36.8,62.01 -66.5,81.36 -29.7,19.35 -70.4,25.05 -100.3,6.15 -17.8,13.93 -36.4,28.29 -58.5,32.71 -22.1,4.42 -48.6,-4.56 -56.5,-25.65 -0.5,28.49 -36.8,44.89 -64.1,36.51 -27.2,-8.39 -46.3,-32.25 -63.6,-54.86 4.4,26.02 -33.6,39.76 -57.6,28.85 -24,-10.91 -40.4,-34.23 -63.9,-46.38 -19,18.77 -49.9,24.24 -74.2,13.13 -24.4,-11.1 15.8,-38.05 17.5,-64.74 -22.1,-2.77 -41.5,-20.94 -45.6,-42.86 -4.2,-21.93 7.2,-45.91 26.8,-56.57 -23.1,-31.29 -36.1,-70.03 -36.4,-108.95 -0.1,-18.66 13.2,-43.8 29.9,-35.53 -9.8,-51.24 -27,-106.67 24.6,-114.51 l -11.5,-3.73 c 6.3,-1.73 12.5,-0.88 18,1.66 1.5,-12.2 4.4,-24.95 13.1,-33.67 8.7,-8.88 25.1,-11.14 33.1,-1.6 -14.3,6 -23.9,21.88 -22.4,37.37 0.6,7.35 3.5,14.47 3.3,21.84 -0.1,3.7 -1.5,7.6 -3.7,10.55 0.2,1.45 0.2,2.89 0.2,4.33 -0.5,22.46 -14.6,42.05 -28,60.03 21.6,17.4 23.3,54.28 3.4,73.62 30,29.32 31.2,82.9 2.6,113.57 34.4,13.77 42.1,68.08 13,90.88 5.2,-3.17 10.6,-1.42 14.6,2.42 2.3,-3.33 5.3,-6.05 9.1,-7.58 12.4,-5.07 28.5,4.6 29.8,18.02 2,-17.25 18.5,-31.56 35.9,-30.98 12.7,0.43 24.4,8.81 30.1,20.08 1.6,-15.93 22.1,-31.22 39.9,-27.07 18.2,4.25 31,19.11 41.5,35.21 -2.2,-15.78 14.1,-36.11 32.6,-35.6 15.5,0.42 28.6,8.88 40.1,19.79 3.4,-5.14 8.9,-9.31 14.4,-12.16 20.8,-10.62 46.3,-9.39 67.1,0.9 -0.1,-3.23 0.3,-6.46 1.5,-9.51 6.9,-17.52 28.4,-25.48 47.1,-22.85 18.6,2.63 35,13.32 50.6,23.74 -5.4,-11.11 1.5,-26.34 13.4,-29.6 1.2,-0.33 2.4,-0.49 3.7,-0.57 -11,-21.83 -5,-54.56 19.4,-62.85 -27.3,-21.83 -22.9,-71.61 7.8,-88.34 -12.7,-24.68 -7.4,-57.26 12.4,-76.68 -19.8,-10.76 -26.5,-37.4 -19.1,-58.11 -5.9,-6.76 -9.3,-16.21 -10.4,-25.32 -1.7,-14.05 0.4,-28.41 -1.9,-42.37 -2.3,-13.97 -10.9,-28.53 -24.8,-31.13 19.9,2.43 37.2,16.22 47.2,33.64 10.2,0.26 20.3,2.36 28.6,8.14 17.9,12.51 21.2,37.22 22.9,59.01 2.6,31.99 5.1,63.99 7.6,95.98 0.5,5.67 0.9,11.35 1.4,17.02 3.5,43.89 6.7,89.64 -9.8,130.49 14.9,0.37 26.1,15.6 27,30.46 1,14.86 -5.5,29.11 -12.4,42.31"
       style="fill:#7f4e33;fill-opacity:1;fill-rule:nonzero;stroke:none"
       transform="matrix(0.03527778,0,0,-0.03527778,-1194.7913,320.01423)"
       clip-path="url(#clipPath1723)" />
    <path
       id="path1724"
       d="m 36710.2,4959.23 v 2.61 c 0,1.05 -0.2,2.04 -0.7,2.95 -0.3,0.95 -0.8,1.78 -1.5,2.47 -0.7,0.75 -1.6,1.28 -2.5,1.59 -0.9,0.48 -1.9,0.7 -3,0.66 l -2,-0.27 c -1.3,-0.37 -2.4,-1.03 -3.4,-1.98 l -1.2,-1.55 c -0.7,-1.2 -1,-2.49 -1,-3.87 v -2.61 c -0.1,-1.06 0.1,-2.05 0.6,-2.96 0.3,-0.95 0.9,-1.78 1.6,-2.47 0.7,-0.75 1.5,-1.28 2.5,-1.59 0.9,-0.48 1.9,-0.7 2.9,-0.66 l 2.1,0.28 c 1.3,0.36 2.4,1.02 3.4,1.97 l 1.2,1.55 c 0.6,1.2 1,2.49 1,3.88"
       style="fill:#7f4e33;fill-opacity:1;fill-rule:nonzero;stroke:none"
       transform="matrix(0.03527778,0,0,-0.03527778,-1194.7913,320.01423)"
       clip-path="url(#clipPath1725)" />
    <path
       id="path1726"
       d="m 36757.4,4956.78 h 2.6 c 1.1,-0.04 2,0.18 3,0.66 0.9,0.31 1.7,0.84 2.4,1.58 0.8,0.7 1.3,1.52 1.6,2.47 0.5,0.92 0.7,1.9 0.7,2.96 l -0.3,2.04 c -0.4,1.3 -1,2.43 -2,3.38 l -1.5,1.2 c -1.2,0.7 -2.5,1.05 -3.9,1.05 h -2.6 c -1.1,0.04 -2.1,-0.18 -3,-0.66 -0.9,-0.31 -1.7,-0.84 -2.4,-1.59 -0.8,-0.69 -1.3,-1.51 -1.6,-2.47 -0.5,-0.91 -0.7,-1.89 -0.7,-2.95 l 0.3,-2.04 c 0.4,-1.3 1,-2.43 2,-3.39 l 1.5,-1.2 c 1.2,-0.69 2.5,-1.04 3.9,-1.04"
       style="fill:#7f4e33;fill-opacity:1;fill-rule:nonzero;stroke:none"
       transform="matrix(0.03527778,0,0,-0.03527778,-1194.7913,320.01423)"
       clip-path="url(#clipPath1727)" />
    <path
       id="path1728"
       d="m 36470,4964.61 h 2.7 c 1,-0.04 2,0.18 2.9,0.66 1,0.31 1.8,0.84 2.5,1.59 0.7,0.69 1.3,1.52 1.6,2.47 0.5,0.91 0.7,1.9 0.6,2.96 l -0.2,2.04 c -0.4,1.29 -1.1,2.42 -2,3.38 l -1.6,1.2 c -1.2,0.7 -2.5,1.04 -3.8,1.05 h -2.7 c -1,0.04 -2,-0.18 -2.9,-0.66 -1,-0.31 -1.8,-0.84 -2.5,-1.59 -0.7,-0.69 -1.3,-1.52 -1.6,-2.47 -0.4,-0.91 -0.7,-1.9 -0.6,-2.95 l 0.2,-2.04 c 0.4,-1.3 1.1,-2.43 2,-3.39 l 1.6,-1.2 c 1.2,-0.69 2.5,-1.04 3.8,-1.05"
       style="fill:#7f4e33;fill-opacity:1;fill-rule:nonzero;stroke:none"
       transform="matrix(0.03527778,0,0,-0.03527778,-1194.7913,320.01423)"
       clip-path="url(#clipPath1729)" />
    <path
       id="path1730"
       d="m 36441.3,4917.59 h 2.6 c 1.1,-0.04 2.1,0.18 3,0.66 0.9,0.31 1.8,0.84 2.5,1.59 0.7,0.7 1.2,1.52 1.5,2.47 0.5,0.91 0.7,1.9 0.7,2.96 l -0.3,2.04 c -0.3,1.3 -1,2.43 -1.9,3.38 l -1.6,1.2 c -1.2,0.7 -2.5,1.05 -3.9,1.05 h -2.6 c -1,0.04 -2,-0.18 -2.9,-0.66 -1,-0.31 -1.8,-0.84 -2.5,-1.59 -0.8,-0.69 -1.3,-1.52 -1.6,-2.47 -0.5,-0.91 -0.7,-1.9 -0.7,-2.95 l 0.3,-2.04 c 0.4,-1.3 1,-2.43 2,-3.39 l 1.5,-1.2 c 1.2,-0.69 2.5,-1.04 3.9,-1.05"
       style="fill:#7f4e33;fill-opacity:1;fill-rule:nonzero;stroke:none"
       transform="matrix(0.03527778,0,0,-0.03527778,-1194.7913,320.01423)"
       clip-path="url(#clipPath1731)" />
    <path
       id="path1732"
       d="m 36594.6,5111.58 c -30.5,-22.68 -49.9,-56.83 -57.7,-93.75 -9.3,-44.25 -2.3,-89.99 10.3,-132.85 0.8,-2.91 4,-6.04 7.4,-5.63 16.2,1.99 32.5,3.97 48.8,5.96 9.7,1.18 9.8,16.54 0,15.35 -16.3,-1.99 -32.6,-3.98 -48.8,-5.97 2.4,-1.87 4.9,-3.75 7.4,-5.63 -11.6,39.48 -18.8,81.85 -10.7,122.74 6.7,33.42 23.3,65.87 51,86.53 7.9,5.83 0.2,19.16 -7.7,13.25"
       style="fill:#a46e4a;fill-opacity:1;fill-rule:nonzero;stroke:none"
       transform="matrix(0.03527778,0,0,-0.03527778,-1194.7913,320.01423)"
       clip-path="url(#clipPath1733)" />
    <path
       id="path1734"
       d="m 36509,4854.53 c 38.9,-34.71 102,-34.18 140.1,1.43 7.3,6.76 -3.6,17.59 -10.8,10.85 -31.8,-29.7 -85.9,-30.46 -118.4,-1.42 -7.4,6.56 -18.3,-4.26 -10.9,-10.86"
       style="fill:#a46e4a;fill-opacity:1;fill-rule:nonzero;stroke:none"
       transform="matrix(0.03527778,0,0,-0.03527778,-1194.7913,320.01423)"
       clip-path="url(#clipPath1735)" />
    <path
       id="path1736"
       d="m 36912.8,4477.25 c -73.9,-101.2 -182.4,-139.8 -308.2,-135.5 v 0.8 c -2.9,-0.16 -5.7,-0.31 -8.5,-0.46 -2.9,0.15 -5.7,0.3 -8.5,0.46 v -0.8 c -125.9,-4.3 -228.7,34.3 -302.5,135.5 0,0 -385,-74.04 -345.1,-384.57 0.2,-2.12 319,-4.8 647.6,-7.01 v -0.11 c 2.8,0.01 5.6,0.03 8.5,0.05 2.8,-0.02 5.6,-0.04 8.5,-0.05 v 0.11 c 328.5,2.21 647.4,4.89 647.6,7.01 31.8,304.84 -339.4,384.57 -339.4,384.57"
       style="fill:#241e21;fill-opacity:1;fill-rule:nonzero;stroke:none"
       transform="matrix(0.03527778,0,0,-0.03527778,-1194.7913,320.01423)"
       clip-path="url(#clipPath1737)" />
    <g
       id="g1755"
       transform="matrix(0.26458333,0,0,0.26458333,-1194.7913,-38.499703)">
      <path
         d="m 36051.6,4398.58 c 80.2,-14.98 160.5,-29.97 241.3,-41.23 80.1,-11.15 160.6,-17.89 241.4,-20.04 162,-4.31 324.8,3.64 486,19.71 90,8.96 179.7,20.84 269,35.52 9.7,1.6 5.6,16.39 -4.1,14.8 -158.7,-26.11 -318.8,-43.09 -479.4,-50.83 -160.7,-7.74 -322.3,-8.28 -482.1,12.08 -89.9,11.45 -179,28.16 -268,44.79 -9.7,1.8 -13.8,-12.99 -4.1,-14.8"
         style="fill:#241e21;fill-opacity:1;fill-rule:nonzero;stroke:none"
         transform="matrix(0.13333333,0,0,-0.13333333,0,1355.0133)"
         clip-path="url(#clipPath1738)"
         id="path1747" />
      <path
         d="m 35953.8,4300.74 c 186.2,-32.28 375.5,-41.16 564.3,-39.24 189.5,1.93 378.7,14.01 567.9,24.39 108.1,5.92 216.1,11.85 324.2,17.78 9.8,0.54 9.9,15.89 0,15.35 -191.1,-10.49 -382.3,-21.56 -573.5,-31.28 -187.3,-9.53 -375.2,-16.04 -562.7,-6.43 -105.9,5.44 -211.6,16.11 -316.1,34.23 -9.7,1.68 -13.9,-13.11 -4.1,-14.8"
         style="fill:#241e21;fill-opacity:1;fill-rule:nonzero;stroke:none"
         transform="matrix(0.13333333,0,0,-0.13333333,0,1355.0133)"
         clip-path="url(#clipPath1739)"
         id="path1748" />
      <path
         d="m 35901.8,4172.05 c 41.4,-18.77 86.1,-26.34 131.2,-29.43 48.8,-3.34 98,-2.99 147,-3.51 102.3,-1.07 204.6,-0.84 306.8,0.7 102.3,1.54 204.6,4.39 306.8,8.55 102.2,4.16 204.3,9.63 306.4,16.41 102,6.78 204,14.86 305.8,24.25 12.7,1.17 25.4,2.36 38,3.57 9.8,0.92 9.9,16.28 0,15.34 -202.6,-19.31 -405.7,-33.49 -609,-42.47 -202.4,-8.94 -405,-12.74 -607.5,-11.41 -55.6,0.37 -111.2,0.43 -166.8,2.5 -51.3,1.9 -103.6,7.3 -150.9,28.75 -8.9,4.05 -16.7,-9.17 -7.8,-13.25"
         style="fill:#241e21;fill-opacity:1;fill-rule:nonzero;stroke:none"
         transform="matrix(0.13333333,0,0,-0.13333333,0,1355.0133)"
         clip-path="url(#clipPath1740)"
         id="path1749" />
      <path
         d="m 36207.4,4505.3 c 72.8,-143.77 234.1,-239.28 397,-235.04 162.8,4.24 318.8,108 383.8,255.34 -256.6,-32.73 -507.2,-36.86 -774.8,-9.09 l -6,-11.21"
         style="fill:#241e21;fill-opacity:1;fill-rule:nonzero;stroke:none"
         transform="matrix(0.13333333,0,0,-0.13333333,0,1355.0133)"
         clip-path="url(#clipPath1741)"
         id="path1750" />
      <path
         d="m 37039,4269.44 c 8.1,-84.96 3.5,-170.81 -14,-254.35 -2,-9.64 12.8,-13.76 14.8,-4.08 17.7,84.87 22.8,172.11 14.6,258.43 -0.9,9.75 -16.3,9.85 -15.4,0"
         style="fill:#241e21;fill-opacity:1;fill-rule:nonzero;stroke:none"
         transform="matrix(0.13333333,0,0,-0.13333333,0,1355.0133)"
         clip-path="url(#clipPath1742)"
         id="path1751" />
      <path
         d="m 36116.7,4265 c 2.6,-87.2 25.3,-173.32 65.8,-250.6 11.4,-21.92 24.4,-43.03 38.6,-63.28 5.6,-8.02 18.9,-0.36 13.2,7.75 -48.8,69.57 -81.6,149.67 -95.4,233.56 -3.9,24.01 -6.1,48.26 -6.9,72.57 -0.3,9.85 -15.6,9.9 -15.3,0"
         style="fill:#241e21;fill-opacity:1;fill-rule:nonzero;stroke:none"
         transform="matrix(0.13333333,0,0,-0.13333333,0,1355.0133)"
         clip-path="url(#clipPath1743)"
         id="path1752" />
      <path
         d="m 37255.8,4208.8 c -178.7,-36.81 -362.5,-25.06 -542.6,-5.75 -91.2,9.78 -182.2,21.41 -273.5,30.51 -92.9,9.26 -186,16.57 -279.2,21.92 -104.4,6 -208.9,9.53 -313.5,10.63 -9.8,0.11 -9.8,-15.24 0,-15.34 93.9,-1 187.7,-3.93 281.3,-8.86 93.3,-4.91 186.4,-11.77 279.3,-20.58 92,-8.73 183.7,-20.11 275.6,-30.35 90.5,-10.09 181.4,-18.78 272.5,-21.01 90.5,-2.22 181.4,2.13 270.8,17.67 11.1,1.94 22.3,4.07 33.4,6.36 9.6,1.99 5.6,16.79 -4.1,14.8"
         style="fill:#ffffff;fill-opacity:1;fill-rule:nonzero;stroke:none"
         transform="matrix(0.13333333,0,0,-0.13333333,0,1355.0133)"
         clip-path="url(#clipPath1744)"
         id="path1753" />
      <path
         d="m 35918.2,4377.23 c 90.7,-24.56 182.5,-45.07 275.1,-61.43 92.3,-16.31 185.4,-28.55 278.8,-36.69 94.1,-8.2 188.5,-12.22 283,-12.04 94,0.17 187.9,4.5 281.5,13 93.4,8.48 186.4,21.08 278.7,37.82 11.5,2.08 23,4.24 34.5,6.45 9.7,1.86 5.6,16.66 -4.1,14.8 -92.1,-17.73 -184.9,-31.37 -278.2,-40.76 -92.6,-9.33 -185.6,-14.57 -278.7,-15.73 -93.5,-1.16 -187.1,1.79 -280.4,8.85 -93,7.04 -185.8,18.16 -277.8,33.41 -92.3,15.29 -183.9,34.67 -274.4,58.13 -11.4,2.93 -22.7,5.93 -33.9,8.99 -9.6,2.58 -13.7,-12.22 -4.1,-14.8"
         style="fill:#ffffff;fill-opacity:1;fill-rule:nonzero;stroke:none"
         transform="matrix(0.13333333,0,0,-0.13333333,0,1355.0133)"
         clip-path="url(#clipPath1745)"
         id="path1754" />
      <path
         d="m 37121.1,4423.04 c -150.5,-1.02 -301,-2.05 -451.5,-3.07 -74.8,-0.51 -149.6,-1.02 -224.5,-1.53 -74.8,-0.5 -150,-2.75 -224.7,2.41 -40.8,2.82 -81,8.97 -121.2,16.65 -40.3,7.72 -80.5,16.08 -121.3,21.21 -9.8,1.23 -9.7,-14.12 0,-15.34 73,-9.19 144.2,-28.81 217.5,-35.81 73.6,-7.03 147.8,-5.16 221.7,-4.65 150.5,1.02 301,2.04 451.5,3.07 84.1,0.57 168.3,1.14 252.5,1.71 9.8,0.07 9.9,15.42 0,15.35"
         style="fill:#ffffff;fill-opacity:1;fill-rule:nonzero;stroke:none"
         transform="matrix(0.13333333,0,0,-0.13333333,0,1355.0133)"
         clip-path="url(#clipPath1746)"
         id="path1755" />
    </g>
  </g>
</svg>
