<?xml version="1.0" encoding="UTF-8" standalone="no"?>
<!-- Created with Inkscape (http://www.inkscape.org/) -->

<svg
   width="64.332558mm"
   height="64.332207mm"
   viewBox="0 0 64.332558 64.332207"
   version="1.1"
   id="svg1"
   inkscape:version="1.3.2 (091e20e, 2023-11-25)"
   sodipodi:docname="blonde-librarian.svg"
   xmlns:inkscape="http://www.inkscape.org/namespaces/inkscape"
   xmlns:sodipodi="http://sodipodi.sourceforge.net/DTD/sodipodi-0.dtd"
   xmlns="http://www.w3.org/2000/svg"
   xmlns:svg="http://www.w3.org/2000/svg">
  <sodipodi:namedview
     id="namedview1"
     pagecolor="#ffffff"
     bordercolor="#000000"
     borderopacity="0.25"
     inkscape:showpageshadow="2"
     inkscape:pageopacity="0.0"
     inkscape:pagecheckerboard="0"
     inkscape:deskcolor="#d1d1d1"
     inkscape:document-units="mm"
     inkscape:zoom="1.0984445"
     inkscape:cx="89.672256"
     inkscape:cy="173.42705"
     inkscape:window-width="1920"
     inkscape:window-height="1052"
     inkscape:window-x="0"
     inkscape:window-y="28"
     inkscape:window-maximized="0"
     inkscape:current-layer="layer1" />
  <defs
     id="defs1">
    <clipPath
       clipPathUnits="userSpaceOnUse"
       id="clipPath2493">
      <path
         d="m 35322.2,5084.48 c 0,-503.57 -408.2,-911.8 -911.8,-911.8 -503.5,0 -911.8,408.23 -911.8,911.8 0,503.57 408.3,911.79 911.8,911.79 503.6,0 911.8,-408.22 911.8,-911.79"
         transform="translate(0,-2.5e-4)"
         id="path2493" />
    </clipPath>
    <clipPath
       clipPathUnits="userSpaceOnUse"
       id="clipPath2495">
      <path
         d="m 35322.2,5084.48 c 0,-503.57 -408.2,-911.8 -911.8,-911.8 -503.5,0 -911.8,408.23 -911.8,911.8 0,503.57 408.3,911.79 911.8,911.79 503.6,0 911.8,-408.22 911.8,-911.79"
         transform="translate(0,-2.5e-4)"
         id="path2495" />
    </clipPath>
    <clipPath
       clipPathUnits="userSpaceOnUse"
       id="clipPath2497">
      <path
         d="m 35322.2,5084.48 c 0,-503.57 -408.2,-911.8 -911.8,-911.8 -503.5,0 -911.8,408.23 -911.8,911.8 0,503.57 408.3,911.79 911.8,911.79 503.6,0 911.8,-408.22 911.8,-911.79"
         transform="translate(0,-2.5e-4)"
         id="path2497" />
    </clipPath>
    <clipPath
       clipPathUnits="userSpaceOnUse"
       id="clipPath2499">
      <path
         d="m 35322.2,5084.48 c 0,-503.57 -408.2,-911.8 -911.8,-911.8 -503.5,0 -911.8,408.23 -911.8,911.8 0,503.57 408.3,911.79 911.8,911.79 503.6,0 911.8,-408.22 911.8,-911.79"
         transform="translate(0,-2.5e-4)"
         id="path2499" />
    </clipPath>
    <clipPath
       clipPathUnits="userSpaceOnUse"
       id="clipPath2501">
      <path
         d="m 35322.2,5084.48 c 0,-503.57 -408.2,-911.8 -911.8,-911.8 -503.5,0 -911.8,408.23 -911.8,911.8 0,503.57 408.3,911.79 911.8,911.79 503.6,0 911.8,-408.22 911.8,-911.79"
         transform="translate(0,-2.5e-4)"
         id="path2501" />
    </clipPath>
    <clipPath
       clipPathUnits="userSpaceOnUse"
       id="clipPath2503">
      <path
         d="m 35322.2,5084.48 c 0,-503.57 -408.2,-911.8 -911.8,-911.8 -503.5,0 -911.8,408.23 -911.8,911.8 0,503.57 408.3,911.79 911.8,911.79 503.6,0 911.8,-408.22 911.8,-911.79"
         transform="translate(0,-2.5e-4)"
         id="path2503" />
    </clipPath>
    <clipPath
       clipPathUnits="userSpaceOnUse"
       id="clipPath2504">
      <path
         d="m 33961.4,4553.37 c 84.8,56.81 187.3,79.56 287.4,99.66 6.1,1.24 12.5,2.57 17.4,6.4 8.4,6.56 -10.7,171.3 0,267.95 l 142.9,-13.37 142.8,13.37 c 10.7,-96.65 -8.4,-261.39 0,-267.95 4.9,-3.83 11.3,-5.16 17.4,-6.4 100.1,-20.1 202.6,-42.85 287.4,-99.66 84.9,-56.8 149.1,-376.15 135.5,-477.33 -85.2,0.45 -323,219.16 -563.8,216 v -0.52 c -6.4,0.09 -12.9,0.17 -19.3,0.26 -6.5,-0.09 -12.9,-0.17 -19.4,-0.26 v 0.52 c -240.8,3.16 -478.6,-215.55 -563.8,-216 -13.6,101.18 50.6,420.53 135.5,477.33"
         transform="translate(0,-2.5e-4)"
         id="path2504" />
    </clipPath>
    <clipPath
       clipPathUnits="userSpaceOnUse"
       id="clipPath2507">
      <path
         d="m 35322.2,5084.48 c 0,-503.57 -408.2,-911.8 -911.8,-911.8 -503.5,0 -911.8,408.23 -911.8,911.8 0,503.57 408.3,911.79 911.8,911.79 503.6,0 911.8,-408.22 911.8,-911.79"
         transform="translate(0,-2.5e-4)"
         id="path2507" />
    </clipPath>
    <clipPath
       clipPathUnits="userSpaceOnUse"
       id="clipPath2509">
      <path
         d="m 35322.2,5084.48 c 0,-503.57 -408.2,-911.8 -911.8,-911.8 -503.5,0 -911.8,408.23 -911.8,911.8 0,503.57 408.3,911.79 911.8,911.79 503.6,0 911.8,-408.22 911.8,-911.79"
         transform="translate(0,-2.5e-4)"
         id="path2509" />
    </clipPath>
    <clipPath
       clipPathUnits="userSpaceOnUse"
       id="clipPath2511">
      <path
         d="m 35322.2,5084.48 c 0,-503.57 -408.2,-911.8 -911.8,-911.8 -503.5,0 -911.8,408.23 -911.8,911.8 0,503.57 408.3,911.79 911.8,911.79 503.6,0 911.8,-408.22 911.8,-911.79"
         transform="translate(0,-2.5e-4)"
         id="path2511" />
    </clipPath>
    <clipPath
       clipPathUnits="userSpaceOnUse"
       id="clipPath2513">
      <path
         d="m 35322.2,5084.48 c 0,-503.57 -408.2,-911.8 -911.8,-911.8 -503.5,0 -911.8,408.23 -911.8,911.8 0,503.57 408.3,911.79 911.8,911.79 503.6,0 911.8,-408.22 911.8,-911.79"
         transform="translate(0,-2.5e-4)"
         id="path2513" />
    </clipPath>
    <clipPath
       clipPathUnits="userSpaceOnUse"
       id="clipPath2515">
      <path
         d="m 35322.2,5084.48 c 0,-503.57 -408.2,-911.8 -911.8,-911.8 -503.5,0 -911.8,408.23 -911.8,911.8 0,503.57 408.3,911.79 911.8,911.79 503.6,0 911.8,-408.22 911.8,-911.79"
         transform="translate(0,-2.5e-4)"
         id="path2515" />
    </clipPath>
    <clipPath
       clipPathUnits="userSpaceOnUse"
       id="clipPath2517">
      <path
         d="m 35322.2,5084.48 c 0,-503.57 -408.2,-911.8 -911.8,-911.8 -503.5,0 -911.8,408.23 -911.8,911.8 0,503.57 408.3,911.79 911.8,911.79 503.6,0 911.8,-408.22 911.8,-911.79"
         transform="translate(0,-2.5e-4)"
         id="path2517" />
    </clipPath>
    <clipPath
       clipPathUnits="userSpaceOnUse"
       id="clipPath2519">
      <path
         d="m 35322.2,5084.48 c 0,-503.57 -408.2,-911.8 -911.8,-911.8 -503.5,0 -911.8,408.23 -911.8,911.8 0,503.57 408.3,911.79 911.8,911.79 503.6,0 911.8,-408.22 911.8,-911.79"
         transform="translate(0,-2.5e-4)"
         id="path2519" />
    </clipPath>
    <clipPath
       clipPathUnits="userSpaceOnUse"
       id="clipPath2521">
      <path
         d="m 35322.2,5084.48 c 0,-503.57 -408.2,-911.8 -911.8,-911.8 -503.5,0 -911.8,408.23 -911.8,911.8 0,503.57 408.3,911.79 911.8,911.79 503.6,0 911.8,-408.22 911.8,-911.79"
         transform="translate(0,-2.5e-4)"
         id="path2521" />
    </clipPath>
    <clipPath
       clipPathUnits="userSpaceOnUse"
       id="clipPath2523">
      <path
         d="m 35322.2,5084.48 c 0,-503.57 -408.2,-911.8 -911.8,-911.8 -503.5,0 -911.8,408.23 -911.8,911.8 0,503.57 408.3,911.79 911.8,911.79 503.6,0 911.8,-408.22 911.8,-911.79"
         transform="translate(0,-2.5e-4)"
         id="path2523" />
    </clipPath>
    <clipPath
       clipPathUnits="userSpaceOnUse"
       id="clipPath2525">
      <path
         d="m 35322.2,5084.48 c 0,-503.57 -408.2,-911.8 -911.8,-911.8 -503.5,0 -911.8,408.23 -911.8,911.8 0,503.57 408.3,911.79 911.8,911.79 503.6,0 911.8,-408.22 911.8,-911.79"
         transform="translate(0,-2.5e-4)"
         id="path2525" />
    </clipPath>
    <clipPath
       clipPathUnits="userSpaceOnUse"
       id="clipPath2527">
      <path
         d="m 35322.2,5084.48 c 0,-503.57 -408.2,-911.8 -911.8,-911.8 -503.5,0 -911.8,408.23 -911.8,911.8 0,503.57 408.3,911.79 911.8,911.79 503.6,0 911.8,-408.22 911.8,-911.79"
         transform="translate(0,-2.5e-4)"
         id="path2527" />
    </clipPath>
    <clipPath
       clipPathUnits="userSpaceOnUse"
       id="clipPath2529">
      <path
         d="m 35322.2,5084.48 c 0,-503.57 -408.2,-911.8 -911.8,-911.8 -503.5,0 -911.8,408.23 -911.8,911.8 0,503.57 408.3,911.79 911.8,911.79 503.6,0 911.8,-408.22 911.8,-911.79"
         transform="translate(0,-2.5e-4)"
         id="path2529" />
    </clipPath>
    <clipPath
       clipPathUnits="userSpaceOnUse"
       id="clipPath2531">
      <path
         d="m 35322.2,5084.48 c 0,-503.57 -408.2,-911.8 -911.8,-911.8 -503.5,0 -911.8,408.23 -911.8,911.8 0,503.57 408.3,911.79 911.8,911.79 503.6,0 911.8,-408.22 911.8,-911.79"
         transform="translate(0,-2.5e-4)"
         id="path2531" />
    </clipPath>
    <clipPath
       clipPathUnits="userSpaceOnUse"
       id="clipPath2533">
      <path
         d="m 35322.2,5084.48 c 0,-503.57 -408.2,-911.8 -911.8,-911.8 -503.5,0 -911.8,408.23 -911.8,911.8 0,503.57 408.3,911.79 911.8,911.79 503.6,0 911.8,-408.22 911.8,-911.79"
         transform="translate(0,-2.5e-4)"
         id="path2533" />
    </clipPath>
    <clipPath
       clipPathUnits="userSpaceOnUse"
       id="clipPath2535">
      <path
         d="m 35322.2,5084.48 c 0,-503.57 -408.2,-911.8 -911.8,-911.8 -503.5,0 -911.8,408.23 -911.8,911.8 0,503.57 408.3,911.79 911.8,911.79 503.6,0 911.8,-408.22 911.8,-911.79"
         transform="translate(0,-2.5e-4)"
         id="path2535" />
    </clipPath>
    <clipPath
       clipPathUnits="userSpaceOnUse"
       id="clipPath2537">
      <path
         d="m 35322.2,5084.48 c 0,-503.57 -408.2,-911.8 -911.8,-911.8 -503.5,0 -911.8,408.23 -911.8,911.8 0,503.57 408.3,911.79 911.8,911.79 503.6,0 911.8,-408.22 911.8,-911.79"
         transform="translate(0,-2.5e-4)"
         id="path2537" />
    </clipPath>
    <clipPath
       clipPathUnits="userSpaceOnUse"
       id="clipPath2539">
      <path
         d="m 35322.2,5084.48 c 0,-503.57 -408.2,-911.8 -911.8,-911.8 -503.5,0 -911.8,408.23 -911.8,911.8 0,503.57 408.3,911.79 911.8,911.79 503.6,0 911.8,-408.22 911.8,-911.79"
         transform="translate(0,-2.5e-4)"
         id="path2539" />
    </clipPath>
    <clipPath
       clipPathUnits="userSpaceOnUse"
       id="clipPath2541">
      <path
         d="m 35322.2,5084.48 c 0,-503.57 -408.2,-911.8 -911.8,-911.8 -503.5,0 -911.8,408.23 -911.8,911.8 0,503.57 408.3,911.79 911.8,911.79 503.6,0 911.8,-408.22 911.8,-911.79"
         transform="translate(0,-2.5e-4)"
         id="path2541" />
    </clipPath>
    <clipPath
       clipPathUnits="userSpaceOnUse"
       id="clipPath2543">
      <path
         d="m 35322.2,5084.48 c 0,-503.57 -408.2,-911.8 -911.8,-911.8 -503.5,0 -911.8,408.23 -911.8,911.8 0,503.57 408.3,911.79 911.8,911.79 503.6,0 911.8,-408.22 911.8,-911.79"
         transform="translate(0,-2.5e-4)"
         id="path2543" />
    </clipPath>
    <clipPath
       clipPathUnits="userSpaceOnUse"
       id="clipPath2545">
      <path
         d="m 35322.2,5084.48 c 0,-503.57 -408.2,-911.8 -911.8,-911.8 -503.5,0 -911.8,408.23 -911.8,911.8 0,503.57 408.3,911.79 911.8,911.79 503.6,0 911.8,-408.22 911.8,-911.79"
         transform="translate(0,-2.5e-4)"
         id="path2545" />
    </clipPath>
    <clipPath
       clipPathUnits="userSpaceOnUse"
       id="clipPath2547">
      <path
         d="m 35322.2,5084.48 c 0,-503.57 -408.2,-911.8 -911.8,-911.8 -503.5,0 -911.8,408.23 -911.8,911.8 0,503.57 408.3,911.79 911.8,911.79 503.6,0 911.8,-408.22 911.8,-911.79"
         transform="translate(0,-2.5e-4)"
         id="path2547" />
    </clipPath>
    <clipPath
       clipPathUnits="userSpaceOnUse"
       id="clipPath2549">
      <path
         d="m 35322.2,5084.48 c 0,-503.57 -408.2,-911.8 -911.8,-911.8 -503.5,0 -911.8,408.23 -911.8,911.8 0,503.57 408.3,911.79 911.8,911.79 503.6,0 911.8,-408.22 911.8,-911.79"
         transform="translate(0,-2.5e-4)"
         id="path2549" />
    </clipPath>
    <clipPath
       clipPathUnits="userSpaceOnUse"
       id="clipPath2551">
      <path
         d="m 35322.2,5084.48 c 0,-503.57 -408.2,-911.8 -911.8,-911.8 -503.5,0 -911.8,408.23 -911.8,911.8 0,503.57 408.3,911.79 911.8,911.79 503.6,0 911.8,-408.22 911.8,-911.79"
         transform="translate(0,-2.5e-4)"
         id="path2551" />
    </clipPath>
    <clipPath
       clipPathUnits="userSpaceOnUse"
       id="clipPath2553">
      <path
         d="m 35322.2,5084.48 c 0,-503.57 -408.2,-911.8 -911.8,-911.8 -503.5,0 -911.8,408.23 -911.8,911.8 0,503.57 408.3,911.79 911.8,911.79 503.6,0 911.8,-408.22 911.8,-911.79"
         transform="translate(0,-2.5e-4)"
         id="path2553" />
    </clipPath>
    <clipPath
       clipPathUnits="userSpaceOnUse"
       id="clipPath2555">
      <path
         d="m 35322.2,5084.48 c 0,-503.57 -408.2,-911.8 -911.8,-911.8 -503.5,0 -911.8,408.23 -911.8,911.8 0,503.57 408.3,911.79 911.8,911.79 503.6,0 911.8,-408.22 911.8,-911.79"
         transform="translate(0,-2.5e-4)"
         id="path2555" />
    </clipPath>
    <clipPath
       clipPathUnits="userSpaceOnUse"
       id="clipPath2557">
      <path
         d="m 35322.2,5084.48 c 0,-503.57 -408.2,-911.8 -911.8,-911.8 -503.5,0 -911.8,408.23 -911.8,911.8 0,503.57 408.3,911.79 911.8,911.79 503.6,0 911.8,-408.22 911.8,-911.79"
         transform="translate(0,-2.5e-4)"
         id="path2557" />
    </clipPath>
    <clipPath
       clipPathUnits="userSpaceOnUse"
       id="clipPath2559">
      <path
         d="m 35322.2,5084.48 c 0,-503.57 -408.2,-911.8 -911.8,-911.8 -503.5,0 -911.8,408.23 -911.8,911.8 0,503.57 408.3,911.79 911.8,911.79 503.6,0 911.8,-408.22 911.8,-911.79"
         transform="translate(0,-2.5e-4)"
         id="path2559" />
    </clipPath>
    <clipPath
       clipPathUnits="userSpaceOnUse"
       id="clipPath2561">
      <path
         d="m 35322.2,5084.48 c 0,-503.57 -408.2,-911.8 -911.8,-911.8 -503.5,0 -911.8,408.23 -911.8,911.8 0,503.57 408.3,911.79 911.8,911.79 503.6,0 911.8,-408.22 911.8,-911.79"
         transform="translate(0,-2.5e-4)"
         id="path2561" />
    </clipPath>
    <clipPath
       clipPathUnits="userSpaceOnUse"
       id="clipPath2563">
      <path
         d="m 35322.2,5084.48 c 0,-503.57 -408.2,-911.8 -911.8,-911.8 -503.5,0 -911.8,408.23 -911.8,911.8 0,503.57 408.3,911.79 911.8,911.79 503.6,0 911.8,-408.22 911.8,-911.79"
         transform="translate(0,-2.5e-4)"
         id="path2563" />
    </clipPath>
    <clipPath
       clipPathUnits="userSpaceOnUse"
       id="clipPath2565">
      <path
         d="m 35322.2,5084.48 c 0,-503.57 -408.2,-911.8 -911.8,-911.8 -503.5,0 -911.8,408.23 -911.8,911.8 0,503.57 408.3,911.79 911.8,911.79 503.6,0 911.8,-408.22 911.8,-911.79"
         transform="translate(0,-2.5e-4)"
         id="path2565" />
    </clipPath>
    <clipPath
       clipPathUnits="userSpaceOnUse"
       id="clipPath2567">
      <path
         d="m 35322.2,5084.48 c 0,-503.57 -408.2,-911.8 -911.8,-911.8 -503.5,0 -911.8,408.23 -911.8,911.8 0,503.57 408.3,911.79 911.8,911.79 503.6,0 911.8,-408.22 911.8,-911.79"
         transform="translate(0,-2.5e-4)"
         id="path2567" />
    </clipPath>
    <clipPath
       clipPathUnits="userSpaceOnUse"
       id="clipPath2569">
      <path
         d="m 35322.2,5084.48 c 0,-503.57 -408.2,-911.8 -911.8,-911.8 -503.5,0 -911.8,408.23 -911.8,911.8 0,503.57 408.3,911.79 911.8,911.79 503.6,0 911.8,-408.22 911.8,-911.79"
         transform="translate(0,-2.5e-4)"
         id="path2569" />
    </clipPath>
    <clipPath
       clipPathUnits="userSpaceOnUse"
       id="clipPath2571">
      <path
         d="m 35322.2,5084.48 c 0,-503.57 -408.2,-911.8 -911.8,-911.8 -503.5,0 -911.8,408.23 -911.8,911.8 0,503.57 408.3,911.79 911.8,911.79 503.6,0 911.8,-408.22 911.8,-911.79"
         transform="translate(0,-2.5e-4)"
         id="path2571" />
    </clipPath>
    <clipPath
       clipPathUnits="userSpaceOnUse"
       id="clipPath2573">
      <path
         d="m 35322.2,5084.48 c 0,-503.57 -408.2,-911.8 -911.8,-911.8 -503.5,0 -911.8,408.23 -911.8,911.8 0,503.57 408.3,911.79 911.8,911.79 503.6,0 911.8,-408.22 911.8,-911.79"
         transform="translate(0,-2.5e-4)"
         id="path2573" />
    </clipPath>
    <clipPath
       clipPathUnits="userSpaceOnUse"
       id="clipPath2575">
      <path
         d="m 35322.2,5084.48 c 0,-503.57 -408.2,-911.8 -911.8,-911.8 -503.5,0 -911.8,408.23 -911.8,911.8 0,503.57 408.3,911.79 911.8,911.79 503.6,0 911.8,-408.22 911.8,-911.79"
         transform="translate(0,-2.5e-4)"
         id="path2575" />
    </clipPath>
    <clipPath
       clipPathUnits="userSpaceOnUse"
       id="clipPath2577">
      <path
         d="m 35322.2,5084.48 c 0,-503.57 -408.2,-911.8 -911.8,-911.8 -503.5,0 -911.8,408.23 -911.8,911.8 0,503.57 408.3,911.79 911.8,911.79 503.6,0 911.8,-408.22 911.8,-911.79"
         transform="translate(0,-2.5e-4)"
         id="path2577" />
    </clipPath>
    <clipPath
       clipPathUnits="userSpaceOnUse"
       id="clipPath2579">
      <path
         d="m 35322.2,5084.48 c 0,-503.57 -408.2,-911.8 -911.8,-911.8 -503.5,0 -911.8,408.23 -911.8,911.8 0,503.57 408.3,911.79 911.8,911.79 503.6,0 911.8,-408.22 911.8,-911.79"
         transform="translate(0,-2.5e-4)"
         id="path2579" />
    </clipPath>
    <clipPath
       clipPathUnits="userSpaceOnUse"
       id="clipPath2581">
      <path
         d="m 35322.2,5084.48 c 0,-503.57 -408.2,-911.8 -911.8,-911.8 -503.5,0 -911.8,408.23 -911.8,911.8 0,503.57 408.3,911.79 911.8,911.79 503.6,0 911.8,-408.22 911.8,-911.79"
         transform="translate(0,-2.5e-4)"
         id="path2581" />
    </clipPath>
    <clipPath
       clipPathUnits="userSpaceOnUse"
       id="clipPath2583">
      <path
         d="m 35322.2,5084.48 c 0,-503.57 -408.2,-911.8 -911.8,-911.8 -503.5,0 -911.8,408.23 -911.8,911.8 0,503.57 408.3,911.79 911.8,911.79 503.6,0 911.8,-408.22 911.8,-911.79"
         transform="translate(0,-2.5e-4)"
         id="path2583" />
    </clipPath>
    <clipPath
       clipPathUnits="userSpaceOnUse"
       id="clipPath2585">
      <path
         d="m 35322.2,5084.48 c 0,-503.57 -408.2,-911.8 -911.8,-911.8 -503.5,0 -911.8,408.23 -911.8,911.8 0,503.57 408.3,911.79 911.8,911.79 503.6,0 911.8,-408.22 911.8,-911.79"
         transform="translate(0,-2.5e-4)"
         id="path2585" />
    </clipPath>
    <clipPath
       clipPathUnits="userSpaceOnUse"
       id="clipPath2587">
      <path
         d="m 35322.2,5084.48 c 0,-503.57 -408.2,-911.8 -911.8,-911.8 -503.5,0 -911.8,408.23 -911.8,911.8 0,503.57 408.3,911.79 911.8,911.79 503.6,0 911.8,-408.22 911.8,-911.79"
         transform="translate(0,-2.5e-4)"
         id="path2587" />
    </clipPath>
    <clipPath
       clipPathUnits="userSpaceOnUse"
       id="clipPath2589">
      <path
         d="m 35322.2,5084.48 c 0,-503.57 -408.2,-911.8 -911.8,-911.8 -503.5,0 -911.8,408.23 -911.8,911.8 0,503.57 408.3,911.79 911.8,911.79 503.6,0 911.8,-408.22 911.8,-911.79"
         transform="translate(0,-2.5e-4)"
         id="path2589" />
    </clipPath>
    <clipPath
       clipPathUnits="userSpaceOnUse"
       id="clipPath2591">
      <path
         d="m 35322.2,5084.48 c 0,-503.57 -408.2,-911.8 -911.8,-911.8 -503.5,0 -911.8,408.23 -911.8,911.8 0,503.57 408.3,911.79 911.8,911.79 503.6,0 911.8,-408.22 911.8,-911.79"
         transform="translate(0,-2.5e-4)"
         id="path2591" />
    </clipPath>
    <clipPath
       clipPathUnits="userSpaceOnUse"
       id="clipPath2593">
      <path
         d="m 35322.2,5084.48 c 0,-503.57 -408.2,-911.8 -911.8,-911.8 -503.5,0 -911.8,408.23 -911.8,911.8 0,503.57 408.3,911.79 911.8,911.79 503.6,0 911.8,-408.22 911.8,-911.79"
         transform="translate(0,-2.5e-4)"
         id="path2593" />
    </clipPath>
    <clipPath
       clipPathUnits="userSpaceOnUse"
       id="clipPath2595">
      <path
         d="m 35322.2,5084.48 c 0,-503.57 -408.2,-911.8 -911.8,-911.8 -503.5,0 -911.8,408.23 -911.8,911.8 0,503.57 408.3,911.79 911.8,911.79 503.6,0 911.8,-408.22 911.8,-911.79"
         transform="translate(0,-2.5e-4)"
         id="path2595" />
    </clipPath>
    <clipPath
       clipPathUnits="userSpaceOnUse"
       id="clipPath2597">
      <path
         d="m 35322.2,5084.48 c 0,-503.57 -408.2,-911.8 -911.8,-911.8 -503.5,0 -911.8,408.23 -911.8,911.8 0,503.57 408.3,911.79 911.8,911.79 503.6,0 911.8,-408.22 911.8,-911.79"
         transform="translate(0,-2.5e-4)"
         id="path2597" />
    </clipPath>
    <clipPath
       clipPathUnits="userSpaceOnUse"
       id="clipPath2599">
      <path
         d="m 35322.2,5084.48 c 0,-503.57 -408.2,-911.8 -911.8,-911.8 -503.5,0 -911.8,408.23 -911.8,911.8 0,503.57 408.3,911.79 911.8,911.79 503.6,0 911.8,-408.22 911.8,-911.79"
         transform="translate(0,-2.5e-4)"
         id="path2599" />
    </clipPath>
    <clipPath
       clipPathUnits="userSpaceOnUse"
       id="clipPath2601">
      <path
         d="m 35322.2,5084.48 c 0,-503.57 -408.2,-911.8 -911.8,-911.8 -503.5,0 -911.8,408.23 -911.8,911.8 0,503.57 408.3,911.79 911.8,911.79 503.6,0 911.8,-408.22 911.8,-911.79"
         transform="translate(0,-2.5e-4)"
         id="path2601" />
    </clipPath>
    <clipPath
       clipPathUnits="userSpaceOnUse"
       id="clipPath2603">
      <path
         d="m 35322.2,5084.48 c 0,-503.57 -408.2,-911.8 -911.8,-911.8 -503.5,0 -911.8,408.23 -911.8,911.8 0,503.57 408.3,911.79 911.8,911.79 503.6,0 911.8,-408.22 911.8,-911.79"
         transform="translate(0,-2.5e-4)"
         id="path2603" />
    </clipPath>
    <clipPath
       clipPathUnits="userSpaceOnUse"
       id="clipPath2605">
      <path
         d="m 35322.2,5084.48 c 0,-503.57 -408.2,-911.8 -911.8,-911.8 -503.5,0 -911.8,408.23 -911.8,911.8 0,503.57 408.3,911.79 911.8,911.79 503.6,0 911.8,-408.22 911.8,-911.79"
         transform="translate(0,-2.5e-4)"
         id="path2605" />
    </clipPath>
    <clipPath
       clipPathUnits="userSpaceOnUse"
       id="clipPath2607">
      <path
         d="m 35322.2,5084.48 c 0,-503.57 -408.2,-911.8 -911.8,-911.8 -503.5,0 -911.8,408.23 -911.8,911.8 0,503.57 408.3,911.79 911.8,911.79 503.6,0 911.8,-408.22 911.8,-911.79"
         transform="translate(0,-2.5e-4)"
         id="path2607" />
    </clipPath>
    <clipPath
       clipPathUnits="userSpaceOnUse"
       id="clipPath2609">
      <path
         d="m 35322.2,5084.48 c 0,-503.57 -408.2,-911.8 -911.8,-911.8 -503.5,0 -911.8,408.23 -911.8,911.8 0,503.57 408.3,911.79 911.8,911.79 503.6,0 911.8,-408.22 911.8,-911.79"
         transform="translate(0,-2.5e-4)"
         id="path2609" />
    </clipPath>
    <clipPath
       clipPathUnits="userSpaceOnUse"
       id="clipPath2611">
      <path
         d="m 35322.2,5084.48 c 0,-503.57 -408.2,-911.8 -911.8,-911.8 -503.5,0 -911.8,408.23 -911.8,911.8 0,503.57 408.3,911.79 911.8,911.79 503.6,0 911.8,-408.22 911.8,-911.79"
         transform="translate(0,-2.5e-4)"
         id="path2611" />
    </clipPath>
    <clipPath
       clipPathUnits="userSpaceOnUse"
       id="clipPath2613">
      <path
         d="m 35322.2,5084.48 c 0,-503.57 -408.2,-911.8 -911.8,-911.8 -503.5,0 -911.8,408.23 -911.8,911.8 0,503.57 408.3,911.79 911.8,911.79 503.6,0 911.8,-408.22 911.8,-911.79"
         transform="translate(0,-2.5e-4)"
         id="path2613" />
    </clipPath>
    <clipPath
       clipPathUnits="userSpaceOnUse"
       id="clipPath2615">
      <path
         d="m 35322.2,5084.48 c 0,-503.57 -408.2,-911.8 -911.8,-911.8 -503.5,0 -911.8,408.23 -911.8,911.8 0,503.57 408.3,911.79 911.8,911.79 503.6,0 911.8,-408.22 911.8,-911.79"
         transform="translate(0,-2.5e-4)"
         id="path2615" />
    </clipPath>
    <clipPath
       clipPathUnits="userSpaceOnUse"
       id="clipPath2617">
      <path
         d="m 35322.2,5084.48 c 0,-503.57 -408.2,-911.8 -911.8,-911.8 -503.5,0 -911.8,408.23 -911.8,911.8 0,503.57 408.3,911.79 911.8,911.79 503.6,0 911.8,-408.22 911.8,-911.79"
         transform="translate(0,-2.5e-4)"
         id="path2617" />
    </clipPath>
    <clipPath
       clipPathUnits="userSpaceOnUse"
       id="clipPath2619">
      <path
         d="m 35322.2,5084.48 c 0,-503.57 -408.2,-911.8 -911.8,-911.8 -503.5,0 -911.8,408.23 -911.8,911.8 0,503.57 408.3,911.79 911.8,911.79 503.6,0 911.8,-408.22 911.8,-911.79"
         transform="translate(0,-2.5e-4)"
         id="path2619" />
    </clipPath>
    <clipPath
       clipPathUnits="userSpaceOnUse"
       id="clipPath2621">
      <path
         d="m 35322.2,5084.48 c 0,-503.57 -408.2,-911.8 -911.8,-911.8 -503.5,0 -911.8,408.23 -911.8,911.8 0,503.57 408.3,911.79 911.8,911.79 503.6,0 911.8,-408.22 911.8,-911.79"
         transform="translate(0,-2.5e-4)"
         id="path2621" />
    </clipPath>
    <clipPath
       clipPathUnits="userSpaceOnUse"
       id="clipPath2623">
      <path
         d="m 35322.2,5084.48 c 0,-503.57 -408.2,-911.8 -911.8,-911.8 -503.5,0 -911.8,408.23 -911.8,911.8 0,503.57 408.3,911.79 911.8,911.79 503.6,0 911.8,-408.22 911.8,-911.79"
         transform="translate(0,-2.5e-4)"
         id="path2623" />
    </clipPath>
    <clipPath
       clipPathUnits="userSpaceOnUse"
       id="clipPath2625">
      <path
         d="m 35322.2,5084.48 c 0,-503.57 -408.2,-911.8 -911.8,-911.8 -503.5,0 -911.8,408.23 -911.8,911.8 0,503.57 408.3,911.79 911.8,911.79 503.6,0 911.8,-408.22 911.8,-911.79"
         transform="translate(0,-2.5e-4)"
         id="path2625" />
    </clipPath>
    <clipPath
       clipPathUnits="userSpaceOnUse"
       id="clipPath2627">
      <path
         d="m 35322.2,5084.48 c 0,-503.57 -408.2,-911.8 -911.8,-911.8 -503.5,0 -911.8,408.23 -911.8,911.8 0,503.57 408.3,911.79 911.8,911.79 503.6,0 911.8,-408.22 911.8,-911.79"
         transform="translate(0,-2.5e-4)"
         id="path2627" />
    </clipPath>
    <clipPath
       clipPathUnits="userSpaceOnUse"
       id="clipPath2629">
      <path
         d="m 35322.2,5084.48 c 0,-503.57 -408.2,-911.8 -911.8,-911.8 -503.5,0 -911.8,408.23 -911.8,911.8 0,503.57 408.3,911.79 911.8,911.79 503.6,0 911.8,-408.22 911.8,-911.79"
         transform="translate(0,-2.5e-4)"
         id="path2629" />
    </clipPath>
  </defs>
  <g
     inkscape:label="Layer 1"
     inkscape:groupmode="layer"
     id="layer1"
     transform="translate(-65.881341,-111.38955)">
    <path
       id="path2492"
       d="m 35322.2,5084.48 c 0,-503.57 -408.2,-911.79 -911.8,-911.79 -503.5,0 -911.8,408.22 -911.8,911.79 0,503.57 408.3,911.79 911.8,911.79 503.6,0 911.8,-408.22 911.8,-911.79"
       style="fill:#a59eff;fill-opacity:1;fill-rule:nonzero;stroke:none"
       transform="matrix(0.03527778,0,0,-0.03527778,-1115.8749,322.92464)"
       clip-path="url(#clipPath2493)" />
    <path
       id="path2494"
       d="m 33961.4,4553.37 c 84.8,56.81 187.3,79.56 287.4,99.67 6.1,1.22 12.5,2.55 17.4,6.39 8.4,6.56 -10.7,171.3 0,267.96 l 142.9,-13.38 142.8,13.38 c 10.7,-96.66 -8.4,-261.4 0,-267.96 4.9,-3.84 11.3,-5.17 17.4,-6.39 100.1,-20.11 202.6,-42.86 287.4,-99.67 84.9,-56.8 149.1,-376.15 135.5,-477.33 -85.2,0.44 -322.9,219.16 -563.8,216 v -0.53 c -6.4,0.09 -12.9,0.18 -19.3,0.27 -6.5,-0.09 -12.9,-0.18 -19.4,-0.27 v 0.53 c -240.8,3.16 -478.6,-215.56 -563.8,-216 -13.6,101.18 50.7,420.53 135.5,477.33"
       style="fill:#fbd1b9;fill-opacity:1;fill-rule:nonzero;stroke:none"
       transform="matrix(0.03527778,0,0,-0.03527778,-1115.8749,322.92464)"
       clip-path="url(#clipPath2495)" />
    <path
       id="path2496"
       d="m 34159.3,4614.76 c 63.8,-75.6 160.4,-122.51 259.3,-125.91 98.8,-3.4 198.4,36.77 267.2,107.81 -17.2,-153.63 -34.4,-308.15 -25.6,-462.49 -155.1,5.51 -311,-11.11 -461.4,-49.19 12.7,136.98 -4.2,276.64 -49.4,406.59 l 9.9,123.19"
       style="fill:#8ca3c3;fill-opacity:1;fill-rule:nonzero;stroke:none"
       transform="matrix(0.03527778,0,0,-0.03527778,-1115.8749,322.92464)"
       clip-path="url(#clipPath2497)" />
    <path
       id="path2498"
       d="m 34218.3,4662.59 c 40.6,-200.02 81.1,-400.04 121.6,-600.06 -160.6,-65.46 -327.1,-116.17 -496.9,-151.27 -80.9,148.14 -38.4,331.8 20.4,490.02 25.1,67.61 54.8,137.01 110.1,183.36 63.7,53.46 150.8,67.63 233.6,76.42 l 11.2,1.53"
       style="fill:#915f3a;fill-opacity:1;fill-rule:nonzero;stroke:none"
       transform="matrix(0.03527778,0,0,-0.03527778,-1115.8749,322.92464)"
       clip-path="url(#clipPath2499)" />
    <path
       id="path2500"
       d="m 34622.4,4662.59 c -37.6,-200.02 -75.2,-400.04 -112.8,-600.06 149,-65.46 303.6,-116.17 461.2,-151.27 75.1,148.14 35.7,331.8 -18.9,490.02 -23.3,67.61 -50.9,137.01 -102.2,183.36 -59.2,53.46 -140.1,67.63 -216.9,76.42 l -10.4,1.53"
       style="fill:#915f3a;fill-opacity:1;fill-rule:nonzero;stroke:none"
       transform="matrix(0.03527778,0,0,-0.03527778,-1115.8749,322.92464)"
       clip-path="url(#clipPath2501)" />
    <path
       id="path2502"
       d="m 34145.8,5037.76 c -44.6,109.71 -89.3,233.96 -42.8,342.87 28.6,66.88 88.9,116.72 156.1,144.5 67.2,27.78 141.1,35.48 213.8,35.91 80,0.47 169.4,-12.26 219.2,-74.84 36.2,6.75 73.7,-10.64 98.9,-37.44 25.2,-26.8 39.8,-61.82 50.5,-97 76.5,-251.1 -40,-547.42 -267,-679.25 -47.4,80.7 -33.1,182.5 -10.5,273.33 22.7,90.82 52.3,185.03 30.9,276.15 l -449.1,-184.23"
       style="fill:#f59f18;fill-opacity:1;fill-rule:nonzero;stroke:none"
       transform="matrix(0.03527778,0,0,-0.03527778,-1115.8749,322.92464)"
       clip-path="url(#clipPath2503)" />
    <g
       id="g2505"
       transform="matrix(0.26458333,0,0,0.26458333,-1115.8749,-35.589287)">
      <path
         d="m 34742.1,4930.5 c -56.3,36.29 -58.8,53.7 -61.5,36.29 -13.3,-85.55 -148.5,-291.66 -271.5,-291.66 -159.1,0 -251.4,268.61 -266.3,336.3 183.9,-26.28 370.2,-52.61 554.6,-30.49 -5,-4.78 -10.1,-9.56 -15.2,-14.34 l 59.9,-36.1"
         style="fill:#dba78a;fill-opacity:1;fill-rule:nonzero;stroke:none"
         transform="matrix(0.13333333,0,0,-0.13333333,0,1355.0133)"
         clip-path="url(#clipPath2504)"
         id="path2505" />
    </g>
    <path
       id="path2506"
       d="m 34621,5399.44 c 32.9,-110.93 24.8,-305.3 0,-418.31 l -0.4,-1.82 c -13.4,-60.66 -34.8,-121.24 -75.2,-168.45 -40.4,-47.22 -102.5,-79.15 -164.1,-70.77 -59.5,8.1 -109.5,52.32 -138.5,104.92 -29.1,52.6 -40.2,113.02 -48.3,172.56 -14.2,103.66 -10.5,378.98 -0.5,379.82 128.2,10.86 302.3,37.12 427,5.65 v -3.6"
       style="fill:#fbd1b9;fill-opacity:1;fill-rule:nonzero;stroke:none"
       transform="matrix(0.03527778,0,0,-0.03527778,-1115.8749,322.92464)"
       clip-path="url(#clipPath2507)" />
    <path
       id="path2508"
       d="m 34199.6,5060.51 c -3.2,22.82 -30.6,37.1 -52.7,30.4 -22.1,-6.69 -36.6,-29.59 -38.3,-52.58 -1.6,-22.98 7.7,-45.6 20.9,-64.5 22,-31.52 60.7,-55.99 97.9,-46.24 -5.9,47.27 -14.4,94.21 -25.4,140.56 l -2.4,-7.64"
       style="fill:#fbd1b9;fill-opacity:1;fill-rule:nonzero;stroke:none"
       transform="matrix(0.03527778,0,0,-0.03527778,-1115.8749,322.92464)"
       clip-path="url(#clipPath2509)" />
    <path
       id="path2510"
       d="m 34617.6,5060.51 c 3.2,22.82 30.7,37.1 52.7,30.4 22.1,-6.69 36.6,-29.59 38.3,-52.58 1.6,-22.98 -7.7,-45.6 -20.9,-64.5 -22,-31.52 -60.7,-55.99 -97.8,-46.24 5.9,47.27 14.3,94.21 25.3,140.56 l 2.4,-7.64"
       style="fill:#fbd1b9;fill-opacity:1;fill-rule:nonzero;stroke:none"
       transform="matrix(0.03527778,0,0,-0.03527778,-1115.8749,322.92464)"
       clip-path="url(#clipPath2511)" />
    <path
       id="path2512"
       d="m 34230.6,5054.56 c 0,-16.01 11.8,-28.99 26.4,-28.99 14.6,0 26.4,12.98 26.4,28.99 0,16.01 -11.8,28.99 -26.4,28.99 -14.6,0 -26.4,-12.98 -26.4,-28.99"
       style="fill:#1a1a1a;fill-opacity:1;fill-rule:nonzero;stroke:none"
       transform="matrix(0.03527778,0,0,-0.03527778,-1115.8749,322.92464)"
       clip-path="url(#clipPath2513)" />
    <path
       id="path2514"
       d="m 34517.4,5054.56 c 0,-16.01 11.9,-28.99 26.5,-28.99 14.6,0 26.4,12.98 26.4,28.99 0,16.01 -11.8,28.99 -26.4,28.99 -14.6,0 -26.5,-12.98 -26.5,-28.99"
       style="fill:#1a1a1a;fill-opacity:1;fill-rule:nonzero;stroke:none"
       transform="matrix(0.03527778,0,0,-0.03527778,-1115.8749,322.92464)"
       clip-path="url(#clipPath2515)" />
    <path
       id="path2516"
       d="m 34641.1,5084.8 c -72.6,84.46 -121,189.35 -138.4,299.31 -76.1,-12.63 -149.8,-43.73 -208.1,-94.33 -58.2,-50.59 -100,-121.29 -110.2,-197.76 -29.2,59.71 -47.4,124.7 -53.7,190.84 -4,42.27 -2.1,88.11 23,122.38 27.6,37.71 76.3,52.42 122.1,61.82 94.3,19.35 191.2,26.07 287.3,19.93 26.4,-1.69 54.1,-4.83 75.7,-20.1 28,-19.78 39.6,-55.45 45.4,-89.21 16.2,-93.1 1.4,-191.31 -41.5,-275.51 l -1.6,-17.37"
       style="fill:#f59f18;fill-opacity:1;fill-rule:nonzero;stroke:none"
       transform="matrix(0.03527778,0,0,-0.03527778,-1115.8749,322.92464)"
       clip-path="url(#clipPath2517)" />
    <path
       id="path2518"
       d="m 34802.7,4958.35 c -11.1,-11.55 -9.2,-29.88 -7.2,-45.76 4.6,-36.34 6,-73.86 -4.2,-109.04 -10.2,-35.18 -33.6,-67.96 -67.4,-82.29 -11.4,-4.88 -24.9,-8.39 -31.3,-19.13 -3.6,-6.09 -4.2,-13.5 -4,-20.58 0.7,-35.09 16.8,-69.8 10.1,-104.23 -5.5,-27.96 -26.9,-52.21 -54,-61.07 -27.1,-8.85 -58.7,-1.95 -79.6,17.38 -14.4,13.3 -23.5,31.41 -30.1,49.85 -7.4,20.51 -12.1,43.41 -4.5,63.85 5.4,14.66 16.6,26.69 21.5,41.54 6,18.04 1.8,37.67 2.6,56.65 1.7,42.44 28.7,80.63 62.6,106.14 34,25.51 74.6,40.38 114.5,54.9 l 71,51.79"
       style="fill:#f59f18;fill-opacity:1;fill-rule:nonzero;stroke:none"
       transform="matrix(0.03527778,0,0,-0.03527778,-1115.8749,322.92464)"
       clip-path="url(#clipPath2519)" />
    <path
       id="path2520"
       d="m 34605,4506.35 c 18.1,-4.62 27.2,-27.18 22.5,-45.36 -4.7,-18.18 -19.3,-32.11 -34.8,-42.68 -11.7,-7.93 -24.5,-14.79 -33.4,-25.74 -8.8,-10.94 -12.7,-27.68 -4.3,-39.03 -16.8,25.83 -33.9,52.43 -40.2,82.56 -6.3,30.14 0.5,65.05 24.6,84.16 24.2,19.11 66.6,13.5 78.4,-14.93 l -12.8,1.02"
       style="fill:#f59f18;fill-opacity:1;fill-rule:nonzero;stroke:none"
       transform="matrix(0.03527778,0,0,-0.03527778,-1115.8749,322.92464)"
       clip-path="url(#clipPath2521)" />
    <path
       id="path2522"
       d="m 34640.8,5484.62 c -53.4,-10.37 -103.2,-33.87 -145.7,-67.76 -7.7,-6.17 3.2,-16.98 10.9,-10.86 40.3,32.22 88.3,53.96 138.9,63.8 9.7,1.88 5.6,16.7 -4.1,14.82"
       style="fill:#ce7d1d;fill-opacity:1;fill-rule:nonzero;stroke:none"
       transform="matrix(0.03527778,0,0,-0.03527778,-1115.8749,322.92464)"
       clip-path="url(#clipPath2523)" />
    <path
       id="path2524"
       d="m 34539.3,5387.17 c 13,-65.67 39.3,-128.46 77,-183.76 5.5,-8.12 18.8,-0.44 13.2,7.76 -37,54.33 -62.6,115.56 -75.3,180.08 -2,9.7 -16.8,5.59 -14.9,-4.08"
       style="fill:#ce7d1d;fill-opacity:1;fill-rule:nonzero;stroke:none"
       transform="matrix(0.03527778,0,0,-0.03527778,-1115.8749,322.92464)"
       clip-path="url(#clipPath2525)" />
    <path
       id="path2526"
       d="m 34591.3,5366.21 c 9.2,-51.3 30.2,-100.19 61,-142.21 5.8,-7.89 19.2,-0.23 13.3,7.76 -30.2,41.1 -50.5,88.35 -59.5,138.53 -1.8,9.72 -16.6,5.6 -14.8,-4.08"
       style="fill:#ce7d1d;fill-opacity:1;fill-rule:nonzero;stroke:none"
       transform="matrix(0.03527778,0,0,-0.03527778,-1115.8749,322.92464)"
       clip-path="url(#clipPath2527)" />
    <path
       id="path2528"
       d="m 34459.4,5418.92 c -93.8,-9.39 -183,-52.81 -248.7,-120.33 -18.7,-19.15 -35.4,-40.24 -49.8,-62.77 -5.3,-8.36 8,-16.08 13.3,-7.76 48.6,75.99 124.7,133.2 210.7,160.14 24.3,7.6 49.2,12.82 74.5,15.35 9.8,0.98 9.9,16.36 0,15.37"
       style="fill:#ce7d1d;fill-opacity:1;fill-rule:nonzero;stroke:none"
       transform="matrix(0.03527778,0,0,-0.03527778,-1115.8749,322.92464)"
       clip-path="url(#clipPath2529)" />
    <path
       id="path2530"
       d="m 34421.2,5458.08 c -80.5,-19.69 -154.9,-61.55 -213.6,-120.04 -7,-6.99 3.8,-17.86 10.8,-10.86 57,56.7 128.9,97 206.9,116.08 9.6,2.35 5.6,17.17 -4.1,14.82"
       style="fill:#ce7d1d;fill-opacity:1;fill-rule:nonzero;stroke:none"
       transform="matrix(0.03527778,0,0,-0.03527778,-1115.8749,322.92464)"
       clip-path="url(#clipPath2531)" />
    <path
       id="path2532"
       d="m 34289.3,5472.52 c -50.5,-25.12 -94,-62.84 -126.3,-108.99 -5.7,-8.11 7.6,-15.8 13.2,-7.75 30.9,44.01 72.7,79.55 120.8,103.47 8.9,4.4 1.1,17.66 -7.7,13.27"
       style="fill:#ce7d1d;fill-opacity:1;fill-rule:nonzero;stroke:none"
       transform="matrix(0.03527778,0,0,-0.03527778,-1115.8749,322.92464)"
       clip-path="url(#clipPath2533)" />
    <path
       id="path2534"
       d="m 34753.4,4871.62 c -0.4,-41.9 -30.6,-80.79 -71.1,-91.7 -9.5,-2.58 -5.5,-17.41 4.1,-14.82 47,12.69 81.9,57.87 82.4,106.52 0.1,9.89 -15.2,9.9 -15.4,0"
       style="fill:#ce7d1d;fill-opacity:1;fill-rule:nonzero;stroke:none"
       transform="matrix(0.03527778,0,0,-0.03527778,-1115.8749,322.92464)"
       clip-path="url(#clipPath2535)" />
    <path
       id="path2536"
       d="m 34707.3,4832.02 c -0.4,-2.36 -1,-4.68 -1.8,-6.93 -0.1,-0.22 -0.8,-2.03 -0.4,-0.95 0.4,1.07 -0.3,-0.71 -0.4,-0.92 -0.5,-1.04 -1,-2.06 -1.6,-3.06 -0.6,-1.09 -1.3,-2.15 -2,-3.18 l -0.9,-1.41 c -0.9,-1.31 0.9,1.05 -0.2,-0.27 -1.5,-1.78 -3.1,-3.49 -4.7,-5.07 l -2.7,-2.27 c -1.5,-1.25 1.4,0.93 -0.2,-0.21 l -1.4,-1 c -1.9,-1.3 -3.9,-2.46 -6,-3.48 l -1.5,-0.72 c -1.6,-0.74 1.2,0.42 -0.3,-0.11 -1.1,-0.38 -2.2,-0.79 -3.3,-1.12 -1.2,-0.35 -2.4,-0.66 -3.6,-0.91 l -1.7,-0.32 c -2.1,-0.34 1.1,0.1 -0.5,-0.07 -4,-0.44 -7.9,-3.22 -7.7,-7.69 0.2,-3.78 3.4,-8.15 7.7,-7.68 23.1,2.54 43.7,20.08 48.1,43.28 0.7,3.94 -1.1,8.48 -5.4,9.45 -3.8,0.87 -8.7,-1.14 -9.5,-5.36"
       style="fill:#ce7d1d;fill-opacity:1;fill-rule:nonzero;stroke:none"
       transform="matrix(0.03527778,0,0,-0.03527778,-1115.8749,322.92464)"
       clip-path="url(#clipPath2537)" />
    <path
       id="path2538"
       d="m 34651,4847.48 -0.7,-1.73 c 0.7,1.74 -0.1,-0.17 -0.2,-0.42 -0.5,-1.03 -1,-2.04 -1.5,-3.03 -1.1,-1.99 -2.3,-3.92 -3.6,-5.77 l -0.9,-1.25 c -1,-1.44 0.8,0.86 -0.3,-0.39 -0.8,-0.95 -1.5,-1.89 -2.4,-2.8 -1.5,-1.67 -3.1,-3.25 -4.8,-4.73 l -1.2,-0.99 -0.9,-0.74 -0.7,-0.5 -1.6,-1.06 c -1.8,-1.26 -3.8,-2.41 -5.8,-3.44 -1.1,-0.57 -2.2,-1.08 -3.3,-1.59 0.9,0.43 0.6,0.25 -0.2,-0.05 l -1.4,-0.54 c -2.4,-0.84 -4.7,-1.5 -7.1,-2.03 -4,-0.86 -6.6,-5.65 -5.4,-9.45 1.3,-4.13 5.2,-6.29 9.4,-5.37 21.8,4.77 39.7,21.1 47.4,41.79 1.4,3.78 -1.6,8.59 -5.4,9.46 -4.3,0.99 -7.9,-1.33 -9.4,-5.37"
       style="fill:#ce7d1d;fill-opacity:1;fill-rule:nonzero;stroke:none"
       transform="matrix(0.03527778,0,0,-0.03527778,-1115.8749,322.92464)"
       clip-path="url(#clipPath2539)" />
    <path
       id="path2540"
       d="m 34648.5,4691.25 c 14.6,-22.24 17.5,-51.87 5.3,-75.94 -11.1,-22.06 -33.4,-38.25 -58.1,-41.35 -9.6,-1.22 -9.8,-16.61 0,-15.37 30,3.78 57.6,21.68 71.4,48.97 14.6,28.83 12.3,64.49 -5.4,91.45 -5.4,8.23 -18.7,0.54 -13.2,-7.76"
       style="fill:#ce7d1d;fill-opacity:1;fill-rule:nonzero;stroke:none"
       transform="matrix(0.03527778,0,0,-0.03527778,-1115.8749,322.92464)"
       clip-path="url(#clipPath2541)" />
    <path
       id="path2542"
       d="m 34607.8,4659.94 c 0.4,-1.06 0.7,-2.13 0.9,-3.21 l 0.4,-1.63 c 0,-0.35 0.2,-1.92 0,-0.26 0.3,-2.21 0.4,-4.42 0.3,-6.64 -0.1,-0.99 -0.2,-1.99 -0.3,-2.98 0,-0.93 0.3,1.21 0,-0.27 l -0.3,-1.63 c -0.5,-2.18 -1.1,-4.32 -1.9,-6.4 -0.1,-0.3 -0.8,-1.72 -0.1,-0.33 l -0.6,-1.21 c -0.5,-1.01 -1,-2 -1.5,-2.96 -0.6,-0.96 -1.2,-1.9 -1.8,-2.82 l -1,-1.36 c -0.7,-0.98 1.2,1.32 -0.2,-0.27 -1.5,-1.68 -3,-3.29 -4.7,-4.74 l -1,-0.85 c 1.2,0.94 -0.1,-0.02 -0.3,-0.2 -1,-0.7 -2,-1.35 -3.1,-1.96 -3.5,-2.01 -5,-7.04 -2.8,-10.51 2.3,-3.52 6.8,-4.91 10.6,-2.76 19.2,11.11 29,35.84 22.3,57.08 -1.2,3.82 -5.4,6.68 -9.5,5.36 -3.8,-1.24 -6.7,-5.35 -5.4,-9.45"
       style="fill:#ce7d1d;fill-opacity:1;fill-rule:nonzero;stroke:none"
       transform="matrix(0.03527778,0,0,-0.03527778,-1115.8749,322.92464)"
       clip-path="url(#clipPath2543)" />
    <path
       id="path2544"
       d="m 34581.1,4699.01 c 0,-0.97 -0.1,-1.93 -0.2,-2.89 l 0.2,2.04 c -0.3,-2.14 -0.8,-4.2 -1.7,-6.2 l 0.8,1.84 c -0.9,-2.09 -2,-4.04 -3.4,-5.85 l 1.2,1.56 c -1.3,-1.7 -2.9,-3.22 -4.6,-4.55 l 1.6,1.2 c -1.2,-0.91 -2.5,-1.71 -3.8,-2.4 -3.6,-1.83 -4.9,-7.16 -2.8,-10.51 2.4,-3.67 6.7,-4.72 10.5,-2.76 10.5,5.36 17.3,16.82 17.6,28.52 0,4.02 -3.6,7.87 -7.7,7.69 -4.3,-0.19 -7.6,-3.38 -7.7,-7.69"
       style="fill:#ce7d1d;fill-opacity:1;fill-rule:nonzero;stroke:none"
       transform="matrix(0.03527778,0,0,-0.03527778,-1115.8749,322.92464)"
       clip-path="url(#clipPath2545)" />
    <path
       id="path2546"
       d="m 34582.8,4477.21 c 0.2,-1.45 -0.1,1.2 0,0.21 l 0.1,-1.05 0.1,-2.38 -0.1,-2.63 -0.1,-1.06 c 0,-0.27 -0.2,-1.82 0,-0.55 0.2,1.31 -0.1,-0.42 -0.1,-0.55 l -0.2,-1.03 -0.6,-2.31 -0.7,-2.28 -0.5,-1.24 c -0.3,-0.77 -0.7,-0.84 0.1,0.12 l -1,-2.14 -1.2,-2.08 -1.3,-1.99 -0.8,-1.07 0.2,0.31 c -1,-1.28 -2.2,-2.5 -3.4,-3.64 l -1.8,-1.54 0.3,0.25 -1.3,-0.9 c -3.4,-2.2 -5.1,-6.89 -2.8,-10.51 2.2,-3.34 6.9,-5.12 10.5,-2.76 14.9,9.79 22.3,27.45 19.4,44.91 -0.7,3.97 -5.8,6.55 -9.5,5.36 -4.3,-1.39 -6,-5.19 -5.3,-9.45"
       style="fill:#ce7d1d;fill-opacity:1;fill-rule:nonzero;stroke:none"
       transform="matrix(0.03527778,0,0,-0.03527778,-1115.8749,322.92464)"
       clip-path="url(#clipPath2547)" />
    <path
       id="path2548"
       d="m 34563.1,4493.34 c -5.2,-6.98 -10.5,-13.97 -15.7,-20.95 -1.1,-1.5 -1.2,-4.21 -0.7,-5.93 0.4,-1.78 1.8,-3.71 3.5,-4.59 1.8,-0.94 3.9,-1.41 5.9,-0.77 2,0.65 3.3,1.84 4.6,3.53 5.2,6.98 10.4,13.97 15.7,20.96 1.1,1.49 1.2,4.21 0.7,5.92 -0.5,1.78 -1.8,3.71 -3.5,4.59 -1.8,0.94 -3.9,1.41 -5.9,0.77 -2,-0.65 -3.4,-1.84 -4.6,-3.53"
       style="fill:#ce7d1d;fill-opacity:1;fill-rule:nonzero;stroke:none"
       transform="matrix(0.03527778,0,0,-0.03527778,-1115.8749,322.92464)"
       clip-path="url(#clipPath2549)" />
    <path
       id="path2550"
       d="m 34809.1,5288.58 c 28.5,-75.34 17.5,-162.5 -29,-228.32 -5.7,-8.09 7.6,-15.78 13.3,-7.75 48.6,68.77 60.3,161.42 30.5,240.15 -3.5,9.16 -18.3,5.19 -14.8,-4.08"
       style="fill:#ce7d1d;fill-opacity:1;fill-rule:nonzero;stroke:none"
       transform="matrix(0.03527778,0,0,-0.03527778,-1115.8749,322.92464)"
       clip-path="url(#clipPath2551)" />
    <path
       id="path2552"
       d="m 34778.5,5216.98 c -1.3,-44.41 -10.5,-88.08 -26.7,-129.42 -3.6,-9.21 11.2,-13.2 14.8,-4.09 16.7,42.58 25.9,87.79 27.3,133.51 0.3,9.89 -15.1,9.88 -15.4,0"
       style="fill:#ce7d1d;fill-opacity:1;fill-rule:nonzero;stroke:none"
       transform="matrix(0.03527778,0,0,-0.03527778,-1115.8749,322.92464)"
       clip-path="url(#clipPath2553)" />
    <path
       id="path2554"
       d="m 34636.4,4523.1 c -23.9,14.09 -50.1,22.81 -77.6,26.25 -4.1,0.52 -7.6,-3.9 -7.6,-7.68 0,-4.58 3.5,-7.16 7.6,-7.68 24.7,-3.1 48.5,-11.54 69.8,-24.16 8.5,-5.05 16.3,8.23 7.8,13.27"
       style="fill:#ef6a55;fill-opacity:1;fill-rule:nonzero;stroke:none"
       transform="matrix(0.03527778,0,0,-0.03527778,-1115.8749,322.92464)"
       clip-path="url(#clipPath2555)" />
    <path
       id="path2556"
       d="m 34637,4499.75 c -23.2,20.65 -52.3,33.08 -83.2,35.77 -4.2,0.36 -7.7,-3.79 -7.7,-7.68 0,-4.46 3.5,-7.33 7.7,-7.69 26.6,-2.31 52.3,-13.5 72.3,-31.27 7.4,-6.55 18.3,4.28 10.9,10.87"
       style="fill:#ef6a55;fill-opacity:1;fill-rule:nonzero;stroke:none"
       transform="matrix(0.03527778,0,0,-0.03527778,-1115.8749,322.92464)"
       clip-path="url(#clipPath2557)" />
    <path
       id="path2558"
       d="m 34353.2,5054.92 c -4.4,-39.97 -3.5,-80.3 2.5,-120.05 1.2,-7.82 3.1,-15.79 10,-20.54 6.5,-4.4 14.6,-4.41 22,-3.62 18.9,1.98 36.9,7.6 53.6,16.44 8.7,4.62 1,17.88 -7.8,13.27 -13.9,-7.34 -29,-12.34 -44.6,-14.22 -5.4,-0.63 -14,-2.4 -16.5,3.76 -2.9,7.15 -3,16.46 -3.8,24.06 -3.8,33.52 -3.7,67.37 -0.1,100.9 1.1,9.81 -14.3,9.74 -15.3,0"
       style="fill:#a46e4a;fill-opacity:1;fill-rule:nonzero;stroke:none"
       transform="matrix(0.03527778,0,0,-0.03527778,-1115.8749,322.92464)"
       clip-path="url(#clipPath2559)" />
    <path
       id="path2560"
       d="m 34396.1,4858.93 c 21.6,-11.37 51.5,-2.53 62.2,19.81 1.8,3.73 1,8.3 -2.8,10.51 -3.3,1.96 -8.7,1 -10.5,-2.76 -0.5,-1.1 -1.1,-2.18 -1.7,-3.22 l -0.9,-1.39 c -0.1,-0.16 -1.4,-1.86 -0.4,-0.56 -1.4,-1.71 -2.9,-3.3 -4.6,-4.73 -0.1,-0.12 -1.8,-1.44 -0.5,-0.45 l -1.3,-0.96 c -1,-0.69 -2.1,-1.32 -3.2,-1.91 -0.9,-0.54 -1.9,-1.02 -2.9,-1.49 1.5,0.72 -0.5,-0.17 -0.7,-0.24 l -1.5,-0.55 c -2.2,-0.74 -4.5,-1.27 -6.8,-1.63 1.1,0.17 0.4,0.05 -0.3,0 l -1.7,-0.12 c -1.2,-0.06 -2.4,-0.06 -3.6,-0.01 l -1.6,0.11 c -2.2,0.09 1.5,-0.33 -0.6,0.06 -1.1,0.2 -2.2,0.4 -3.2,0.68 -1.1,0.28 -2.1,0.65 -3.2,0.98 -2,0.63 1.2,-0.68 -0.6,0.25 l -1.8,0.89 c -3.7,1.94 -8.4,0.94 -10.5,-2.75 -2,-3.47 -0.9,-8.57 2.7,-10.52"
       style="fill:#a46e4a;fill-opacity:1;fill-rule:nonzero;stroke:none"
       transform="matrix(0.03527778,0,0,-0.03527778,-1115.8749,322.92464)"
       clip-path="url(#clipPath2561)" />
    <path
       id="path2562"
       d="m 34294.7,5185.36 c 10.8,-6.29 10.9,-23 3.4,-33.02 -7.5,-10.02 -19.8,-14.99 -31.4,-19.48 -19.8,-7.61 -39.5,-15.22 -59.2,-22.82 10.2,35.77 38.8,65.77 74,77.72 l 13.2,-2.4"
       style="fill:#ce7d1d;fill-opacity:1;fill-rule:nonzero;stroke:none"
       transform="matrix(0.03527778,0,0,-0.03527778,-1115.8749,322.92464)"
       clip-path="url(#clipPath2563)" />
    <path
       id="path2564"
       d="m 34498.6,5190.88 c -11.9,-7.5 -12,-27.43 -3.7,-39.38 8.3,-11.95 21.9,-17.87 34.8,-23.24 21.9,-9.07 43.8,-18.14 65.7,-27.21 -11.3,42.66 -43,78.44 -82.1,92.7 l -14.7,-2.87"
       style="fill:#ce7d1d;fill-opacity:1;fill-rule:nonzero;stroke:none"
       transform="matrix(0.03527778,0,0,-0.03527778,-1115.8749,322.92464)"
       clip-path="url(#clipPath2565)" />
    <path
       id="path2566"
       d="m 34808.5,5347.55 c 52.9,-50.3 87.8,-117.75 99.3,-189.77 11.4,-70.93 -2.5,-144.58 -36.9,-207.47 -19.4,-35.55 -45,-67.26 -75.8,-93.57 -2,-1.62 -2.9,-5.12 -2,-7.47 15.2,-40.43 9.8,-87.01 -15.3,-122.34 -23.8,-33.46 -64.5,-53.57 -105.3,-53.75 -9.9,-0.05 -9.9,-15.41 0,-15.37 35.7,0.16 70.5,13.76 97.2,37.42 27.6,24.5 43.9,59.37 46.9,96.01 1.7,20.99 -1.3,42.4 -8.7,62.11 -0.7,-2.49 -1.3,-4.98 -2,-7.47 56.8,48.45 96.9,115.89 113,188.71 16.5,74.16 7,151.92 -25.2,220.59 -18.1,38.62 -43.4,73.85 -74.3,103.24 -7.2,6.81 -18.1,-4.04 -10.9,-10.87"
       style="fill:#f59f18;fill-opacity:1;fill-rule:nonzero;stroke:none"
       transform="matrix(0.03527778,0,0,-0.03527778,-1115.8749,322.92464)"
       clip-path="url(#clipPath2567)" />
    <path
       id="path2568"
       d="m 34224.3,5506.04 c -61.1,-21.69 -110.9,-68.79 -139.4,-126.69 -28.8,-58.53 -36.4,-128.75 -12.2,-190.25 14.2,-36.03 38.7,-68.56 74.1,-85.88 8.8,-4.33 16.6,8.92 7.7,13.27 -58,28.46 -82.9,97.81 -80.9,159.13 2.1,59.85 28.5,118.22 70.3,160.85 23.7,24.23 52.5,43.39 84.5,54.75 9.3,3.29 5.3,18.14 -4.1,14.82"
       style="fill:#f59f18;fill-opacity:1;fill-rule:nonzero;stroke:none"
       transform="matrix(0.03527778,0,0,-0.03527778,-1115.8749,322.92464)"
       clip-path="url(#clipPath2569)" />
    <path
       id="path2570"
       d="m 34636.2,4996.9 c 3.4,3.92 6.9,7.67 10.7,11.19 3.8,3.53 7.7,6.78 11.4,9.46 4.2,3.03 8.6,5.83 13.1,8.37 2.2,1.27 4.5,2.47 6.8,3.61 2.2,1.06 5,2.32 6.5,2.93 3.8,1.59 6.5,5.1 5.3,9.46 -1,3.62 -5.6,6.96 -9.4,5.36 -21.2,-8.77 -40.3,-22.05 -55.3,-39.52 -2.7,-3.14 -3.1,-7.77 0,-10.86 2.8,-2.77 8.2,-3.17 10.9,0"
       style="fill:#a46e4a;fill-opacity:1;fill-rule:nonzero;stroke:none"
       transform="matrix(0.03527778,0,0,-0.03527778,-1115.8749,322.92464)"
       clip-path="url(#clipPath2571)" />
    <path
       id="path2572"
       d="m 34651.3,5012.59 2,-2.21 0.5,-0.66 c -0.7,0.95 -0.9,1.18 -0.5,0.72 l 0.8,-1.21 c 1.1,-1.58 2.1,-3.24 2.9,-4.96 l 0.6,-1.35 c -1,1.78 -0.3,0.9 -0.1,0.27 0.4,-0.93 0.7,-1.87 1,-2.82 0.6,-1.9 1,-3.84 1.3,-5.8 l -0.3,2.04 c 0.2,-1.54 0.3,-3.1 0.3,-4.66 0.1,-4.01 3.5,-7.87 7.7,-7.68 4.1,0.19 7.8,3.38 7.7,7.68 -0.2,11.74 -4.9,23.07 -13,31.51 -2.8,2.9 -8.1,3.02 -10.9,0 -2.9,-3.11 -3,-7.78 0,-10.87"
       style="fill:#a46e4a;fill-opacity:1;fill-rule:nonzero;stroke:none"
       transform="matrix(0.03527778,0,0,-0.03527778,-1115.8749,322.92464)"
       clip-path="url(#clipPath2573)" />
    <path
       id="path2574"
       d="m 34134.1,5039.54 c 12,-10.67 24,-21.34 36.1,-32 3,-2.67 7.9,-3.19 10.8,0 2.7,2.91 3.2,8.02 0,10.86 -12,10.67 -24,21.34 -36,32 -3.1,2.67 -8,3.19 -10.9,0 -2.7,-2.91 -3.2,-8.02 0,-10.86"
       style="fill:#a46e4a;fill-opacity:1;fill-rule:nonzero;stroke:none"
       transform="matrix(0.03527778,0,0,-0.03527778,-1115.8749,322.92464)"
       clip-path="url(#clipPath2575)" />
    <path
       id="path2576"
       d="m 34144.8,5033.25 c -17.9,-21.14 -8.5,-56.55 17.7,-65.78 4,-1.37 8.4,1.57 9.5,5.37 1.2,4.24 -1.4,8.07 -5.4,9.45 -0.6,0.23 -1.7,0.69 -0.5,0.14 l -1.6,0.8 c -1.1,0.58 -2.1,1.26 -3.2,1.93 -1.6,1.05 1.1,-1.02 -0.3,0.28 l -1.4,1.22 c -0.9,0.85 -1.7,1.77 -2.5,2.67 -1.1,1.18 0.6,-1.05 -0.3,0.39 l -1.1,1.53 c -0.6,0.95 -1.2,1.93 -1.7,2.94 l -0.8,1.67 c -0.3,0.42 0.4,-1.07 -0.2,0.46 -0.4,1.18 -0.8,2.35 -1.1,3.56 -0.3,1.1 -0.6,2.22 -0.8,3.34 -0.1,0.77 -0.2,1.77 -0.1,0.42 l -0.1,1.86 c -0.1,1.24 -0.1,2.48 -0.1,3.71 l 0.2,1.85 c 0.1,2 -0.4,-1.57 0,0.39 0.3,1.2 0.5,2.4 0.9,3.58 l 0.5,1.74 c 0.2,0.41 0.9,2.06 0.2,0.43 0.4,1.01 0.9,2.01 1.5,2.98 l 1,1.55 c 1.1,1.62 -0.4,-0.5 0.6,0.65 2.6,3.17 3.1,7.76 0,10.87 -2.8,2.75 -8.2,3.18 -10.9,0"
       style="fill:#a46e4a;fill-opacity:1;fill-rule:nonzero;stroke:none"
       transform="matrix(0.03527778,0,0,-0.03527778,-1115.8749,322.92464)"
       clip-path="url(#clipPath2577)" />
    <path
       id="path2578"
       d="m 34512.8,4971.03 c 0,1.74 0,3.48 0,5.23 0,1.06 -0.2,2.04 -0.7,2.96 -0.3,0.95 -0.8,1.77 -1.6,2.47 -0.7,0.75 -1.5,1.28 -2.4,1.59 -1,0.48 -1.9,0.7 -3,0.66 l -2,-0.27 c -1.3,-0.37 -2.5,-1.03 -3.4,-1.98 l -1.2,-1.55 c -0.7,-1.2 -1.1,-2.49 -1.1,-3.88 0,-1.75 0,-3.49 0,-5.23 0,-1.06 0.2,-2.05 0.7,-2.96 0.3,-0.96 0.8,-1.78 1.6,-2.48 0.7,-0.75 1.5,-1.28 2.4,-1.59 1,-0.48 1.9,-0.7 3,-0.66 l 2,0.28 c 1.3,0.36 2.5,1.02 3.4,1.97 l 1.2,1.56 c 0.7,1.2 1.1,2.49 1.1,3.88"
       style="fill:#ce7d1d;fill-opacity:1;fill-rule:nonzero;stroke:none"
       transform="matrix(0.03527778,0,0,-0.03527778,-1115.8749,322.92464)"
       clip-path="url(#clipPath2579)" />
    <path
       id="path2580"
       d="m 34264.2,4949.9 c 1.8,-1.75 3.5,-3.49 5.3,-5.23 0.7,-0.75 1.5,-1.28 2.5,-1.59 0.9,-0.48 1.9,-0.7 2.9,-0.66 1.1,-0.04 2.1,0.18 3,0.66 0.9,0.31 1.8,0.84 2.4,1.59 l 1.2,1.55 c 0.7,1.2 1.1,2.49 1.1,3.88 l -0.3,2.04 c -0.3,1.3 -1,2.43 -2,3.39 -1.7,1.75 -3.4,3.49 -5.2,5.23 -0.7,0.75 -1.5,1.28 -2.5,1.59 -0.9,0.48 -1.9,0.71 -2.9,0.67 -1.1,0.04 -2.1,-0.19 -3,-0.67 -0.9,-0.31 -1.8,-0.84 -2.5,-1.59 l -1.2,-1.55 c -0.6,-1.2 -1,-2.49 -1,-3.88 l 0.3,-2.04 c 0.3,-1.3 1,-2.43 1.9,-3.39"
       style="fill:#ce7d1d;fill-opacity:1;fill-rule:nonzero;stroke:none"
       transform="matrix(0.03527778,0,0,-0.03527778,-1115.8749,322.92464)"
       clip-path="url(#clipPath2581)" />
    <path
       id="path2582"
       d="m 34937.8,4352.61 c 1.6,0.8 3.2,1.59 4.9,2.34 0.9,0.43 1.8,0.84 2.8,1.26 1.5,0.7 -0.5,-0.17 1,0.43 3.4,1.41 6.9,2.72 10.4,3.89 7,2.31 14.1,4.11 21.3,5.44 4,0.74 6.6,5.74 5.4,9.46 -1.4,4.24 -5.2,6.15 -9.5,5.36 -15.3,-2.83 -30.1,-7.95 -44.1,-14.91 -3.6,-1.8 -4.9,-7.18 -2.7,-10.52 2.4,-3.68 6.6,-4.68 10.5,-2.75"
       style="fill:#915f3a;fill-opacity:1;fill-rule:nonzero;stroke:none"
       transform="matrix(0.03527778,0,0,-0.03527778,-1115.8749,322.92464)"
       clip-path="url(#clipPath2583)" />
    <path
       id="path2584"
       d="m 34957,4330.69 c 15.8,3.27 31.5,6.54 47.2,9.82 4,0.81 6.6,5.67 5.4,9.45 -1.3,4.17 -5.2,6.24 -9.4,5.36 -15.8,-3.27 -31.5,-6.54 -47.3,-9.81 -3.9,-0.82 -6.5,-5.68 -5.3,-9.45 1.3,-4.17 5.2,-6.25 9.4,-5.37"
       style="fill:#915f3a;fill-opacity:1;fill-rule:nonzero;stroke:none"
       transform="matrix(0.03527778,0,0,-0.03527778,-1115.8749,322.92464)"
       clip-path="url(#clipPath2585)" />
    <path
       id="path2586"
       d="m 33913.9,4573.46 c 9.9,-8.73 21.8,-15.04 34.6,-17.81 4,-0.84 8.5,1.16 9.5,5.37 0.9,3.87 -1.2,8.54 -5.4,9.45 -2.8,0.6 -5.5,1.36 -8.2,2.31 l -2,0.71 -1,0.39 c -0.2,0.08 -1.3,0.54 -0.2,0.11 1,-0.44 -0.1,0.03 -0.3,0.13 l -1,0.43 -2.1,1.02 c -2.5,1.26 -4.9,2.66 -7.2,4.21 l -1.7,1.19 -1,0.77 -0.3,0.19 -0.2,0.2 -0.8,0.66 -1.8,1.54 c -3,2.67 -7.9,3.18 -10.9,0 -2.6,-2.92 -3.2,-8.02 0,-10.87"
       style="fill:#915f3a;fill-opacity:1;fill-rule:nonzero;stroke:none"
       transform="matrix(0.03527778,0,0,-0.03527778,-1115.8749,322.92464)"
       clip-path="url(#clipPath2587)" />
    <path
       id="path2588"
       d="m 33950.5,4599.5 c 10.4,-8.73 20.9,-17.46 31.3,-26.19 1.6,-1.34 3.3,-2.25 5.4,-2.25 1.9,0 4.2,0.83 5.5,2.25 2.6,2.84 3.3,8.11 0,10.86 -10.5,8.73 -20.9,17.46 -31.4,26.2 -1.6,1.33 -3.3,2.25 -5.4,2.25 -1.9,0 -4.2,-0.84 -5.4,-2.25 -2.7,-2.85 -3.3,-8.12 0,-10.87"
       style="fill:#915f3a;fill-opacity:1;fill-rule:nonzero;stroke:none"
       transform="matrix(0.03527778,0,0,-0.03527778,-1115.8749,322.92464)"
       clip-path="url(#clipPath2589)" />
    <path
       id="path2590"
       d="m 34154.3,4624.08 c 25.9,-131.89 51.9,-263.78 77.8,-395.68 7.4,-37.56 14.7,-75.13 22.1,-112.69 1.9,-9.7 16.8,-5.59 14.9,4.08 -26,131.9 -51.9,263.79 -77.8,395.68 -7.4,37.57 -14.8,75.13 -22.2,112.7 -1.9,9.69 -16.7,5.59 -14.8,-4.09"
       style="fill:#5b371e;fill-opacity:1;fill-rule:nonzero;stroke:none"
       transform="matrix(0.03527778,0,0,-0.03527778,-1115.8749,322.92464)"
       clip-path="url(#clipPath2591)" />
    <path
       id="path2592"
       d="m 34619.1,4428.78 c -16.4,-84.43 -34.2,-168.59 -53.5,-252.43 -5.5,-23.83 -11,-47.64 -16.7,-71.42 -2.4,-9.61 12.5,-13.71 14.8,-4.09 20,83.65 38.7,167.63 55.9,251.91 4.9,23.96 9.7,47.94 14.3,71.95 1.9,9.66 -12.9,13.8 -14.8,4.08"
       style="fill:#5b371e;fill-opacity:1;fill-rule:nonzero;stroke:none"
       transform="matrix(0.03527778,0,0,-0.03527778,-1115.8749,322.92464)"
       clip-path="url(#clipPath2593)" />
    <path
       id="path2594"
       d="m 33949,4346.54 c 13.6,-92.84 23.6,-186.21 30,-279.82 1.8,-26.4 3.3,-52.82 4.5,-79.26 0.5,-9.84 15.9,-9.9 15.4,0 -4.5,94.84 -12.5,189.49 -24.3,283.7 -3.3,26.53 -6.9,53.02 -10.7,79.47 -1.5,9.74 -16.3,5.6 -14.9,-4.09"
       style="fill:#5b371e;fill-opacity:1;fill-rule:nonzero;stroke:none"
       transform="matrix(0.03527778,0,0,-0.03527778,-1115.8749,322.92464)"
       clip-path="url(#clipPath2595)" />
    <path
       id="path2596"
       d="m 34844.5,4374.8 c 8.1,-97.57 16.1,-195.14 24.1,-292.7 2.3,-28 4.6,-56 7,-84 0.8,-9.78 16.1,-9.87 15.3,0 -8,97.57 -16,195.14 -24.1,292.7 -2.3,28 -4.6,56 -6.9,84 -0.8,9.78 -16.2,9.87 -15.4,0"
       style="fill:#5b371e;fill-opacity:1;fill-rule:nonzero;stroke:none"
       transform="matrix(0.03527778,0,0,-0.03527778,-1115.8749,322.92464)"
       clip-path="url(#clipPath2597)" />
    <path
       id="path2598"
       d="m 34095.8,4325.73 c 3.2,-14.02 6.4,-28.03 9.6,-42.04 0.9,-3.92 5.6,-6.61 9.5,-5.37 4.1,1.33 6.3,5.25 5.3,9.45 -3.2,14.02 -6.4,28.03 -9.6,42.04 -0.9,3.93 -5.6,6.61 -9.4,5.37 -4.1,-1.33 -6.4,-5.25 -5.4,-9.45"
       style="fill:#5b371e;fill-opacity:1;fill-rule:nonzero;stroke:none"
       transform="matrix(0.03527778,0,0,-0.03527778,-1115.8749,322.92464)"
       clip-path="url(#clipPath2599)" />
    <path
       id="path2600"
       d="m 34079.7,4466.95 c 4.9,-14.08 9.7,-28.15 14.6,-42.22 1.3,-3.79 5.4,-6.7 9.5,-5.37 3.7,1.22 6.8,5.39 5.4,9.45 -4.9,14.08 -9.8,28.15 -14.7,42.22 -1.3,3.79 -5.3,6.7 -9.4,5.37 -3.8,-1.22 -6.8,-5.39 -5.4,-9.45"
       style="fill:#5b371e;fill-opacity:1;fill-rule:nonzero;stroke:none"
       transform="matrix(0.03527778,0,0,-0.03527778,-1115.8749,322.92464)"
       clip-path="url(#clipPath2601)" />
    <path
       id="path2602"
       d="m 34033.3,4430.46 c 2.8,-10.64 5.6,-21.28 8.4,-31.92 1.1,-3.88 5.6,-6.63 9.5,-5.36 4,1.29 6.5,5.29 5.4,9.45 -2.9,10.64 -5.7,21.28 -8.5,31.92 -1,3.88 -5.5,6.63 -9.5,5.36 -4,-1.29 -6.4,-5.29 -5.3,-9.45"
       style="fill:#5b371e;fill-opacity:1;fill-rule:nonzero;stroke:none"
       transform="matrix(0.03527778,0,0,-0.03527778,-1115.8749,322.92464)"
       clip-path="url(#clipPath2603)" />
    <path
       id="path2604"
       d="m 34064,4315.16 c 2.9,-14.06 5.9,-28.12 8.9,-42.18 0.8,-3.94 5.6,-6.59 9.4,-5.37 4.2,1.35 6.3,5.23 5.4,9.45 -3,14.06 -5.9,28.12 -8.9,42.19 -0.8,3.94 -5.7,6.59 -9.4,5.36 -4.2,-1.34 -6.3,-5.23 -5.4,-9.45"
       style="fill:#5b371e;fill-opacity:1;fill-rule:nonzero;stroke:none"
       transform="matrix(0.03527778,0,0,-0.03527778,-1115.8749,322.92464)"
       clip-path="url(#clipPath2605)" />
    <path
       id="path2606"
       d="m 34727.1,4455.46 c -5.4,-13.88 -10.8,-27.76 -16.2,-41.65 -1.5,-3.75 1.6,-8.59 5.3,-9.45 4.4,-1 7.9,1.35 9.5,5.37 5.4,13.88 10.8,27.77 16.2,41.65 1.5,3.75 -1.6,8.59 -5.4,9.45 -4.4,1 -7.9,-1.35 -9.4,-5.37"
       style="fill:#5b371e;fill-opacity:1;fill-rule:nonzero;stroke:none"
       transform="matrix(0.03527778,0,0,-0.03527778,-1115.8749,322.92464)"
       clip-path="url(#clipPath2607)" />
    <path
       id="path2608"
       d="m 34744.6,4394.09 c -7.4,-16.03 -11.6,-33.15 -12.1,-50.82 -0.2,-4.03 3.6,-7.87 7.6,-7.69 4.3,0.19 7.6,3.38 7.7,7.69 0.3,8.17 1,14.11 2.9,21.99 0.9,3.74 1.9,7.43 3.2,11.06 1.3,3.83 2.5,6.85 4,10.01 1.7,3.64 1.1,8.45 -2.8,10.52 -3.4,1.79 -8.7,1.13 -10.5,-2.76"
       style="fill:#5b371e;fill-opacity:1;fill-rule:nonzero;stroke:none"
       transform="matrix(0.03527778,0,0,-0.03527778,-1115.8749,322.92464)"
       clip-path="url(#clipPath2609)" />
    <path
       id="path2610"
       d="m 34790.5,4529.52 c -0.2,1.49 0.2,-1.46 0.2,-1.73 l 0.2,-2.28 c 0.1,-1.77 0.1,-3.54 0.1,-5.32 0,-3.3 -0.2,-6.59 -0.6,-9.87 0.2,1.51 -0.1,-0.9 -0.1,-0.97 l -0.5,-2.62 c -0.3,-1.62 -0.7,-3.22 -1.1,-4.82 -0.9,-3.44 -2,-6.8 -3.4,-10.1 -1.5,-3.73 1.7,-8.6 5.4,-9.45 4.4,-1.01 7.8,1.37 9.4,5.37 6,14.6 7.4,30.36 5.2,45.88 -0.5,4 -5.8,6.53 -9.4,5.37 -4.4,-1.42 -6,-5.17 -5.4,-9.46"
       style="fill:#5b371e;fill-opacity:1;fill-rule:nonzero;stroke:none"
       transform="matrix(0.03527778,0,0,-0.03527778,-1115.8749,322.92464)"
       clip-path="url(#clipPath2611)" />
    <path
       id="path2612"
       d="m 34748.3,4583.34 c -9.5,-15.43 -14.4,-33.58 -14,-51.71 0.1,-4.02 3.5,-7.87 7.7,-7.68 4.1,0.18 7.8,3.37 7.7,7.68 -0.4,15.62 3.6,30.53 11.9,43.96 2.1,3.42 0.8,8.6 -2.8,10.51 -3.7,1.98 -8.2,0.9 -10.5,-2.76"
       style="fill:#5b371e;fill-opacity:1;fill-rule:nonzero;stroke:none"
       transform="matrix(0.03527778,0,0,-0.03527778,-1115.8749,322.92464)"
       clip-path="url(#clipPath2613)" />
    <path
       id="path2614"
       d="m 34707.8,4247.72 c -6.1,-13.53 -8.1,-27.83 -5.9,-42.5 0.6,-3.99 5.8,-6.53 9.4,-5.37 4.4,1.42 6,5.18 5.4,9.46 -0.1,0.89 -0.1,0.86 0,-0.09 l -0.1,1.3 -0.2,1.97 c -0.1,1.53 -0.2,3.06 -0.1,4.59 0,1.32 0,2.63 0.1,3.94 l 0.2,2.62 c 0,0.41 0.2,2.37 0.1,0.56 0.1,2.77 1,5.69 1.7,8.35 0.4,1.48 0.9,2.94 1.4,4.38 l 0.7,1.85 v -0.02 l 0.5,1.21 c 1.7,3.65 1.2,8.43 -2.7,10.51 -3.4,1.77 -8.8,1.16 -10.5,-2.76"
       style="fill:#5b371e;fill-opacity:1;fill-rule:nonzero;stroke:none"
       transform="matrix(0.03527778,0,0,-0.03527778,-1115.8749,322.92464)"
       clip-path="url(#clipPath2615)" />
    <path
       id="path2616"
       d="m 34759,4243.86 c 0,-12.21 0,-24.41 0,-36.62 0,-4.02 3.5,-7.87 7.7,-7.69 4.1,0.19 7.7,3.38 7.7,7.69 0,12.21 0,24.41 0,36.62 0,4.02 -3.6,7.87 -7.7,7.68 -4.2,-0.18 -7.7,-3.37 -7.7,-7.68"
       style="fill:#5b371e;fill-opacity:1;fill-rule:nonzero;stroke:none"
       transform="matrix(0.03527778,0,0,-0.03527778,-1115.8749,322.92464)"
       clip-path="url(#clipPath2617)" />
    <path
       id="path2618"
       d="m 34649.9,4258.39 c -6.5,-9.13 -8.4,-21.42 -5.4,-32.18 1,-3.88 5.5,-6.65 9.4,-5.37 4,1.28 6.5,5.3 5.4,9.45 -0.4,1.37 -0.7,2.75 -0.9,4.15 l 0.3,-2.04 c -0.3,2.68 -0.3,5.36 0,8.04 l -0.3,-2.04 c 0.4,2.46 0.9,4.87 1.8,7.18 0.1,0.26 0.5,1.23 0,0.07 -0.4,-1.16 0,-0.19 0.1,0.05 l 0.8,1.71 c 0.6,1.12 1.3,2.19 2.1,3.23 1.1,1.53 1.2,4.17 0.8,5.92 -0.5,1.78 -1.9,3.71 -3.6,4.59 -3.9,2.09 -8,0.74 -10.5,-2.76"
       style="fill:#5b371e;fill-opacity:1;fill-rule:nonzero;stroke:none"
       transform="matrix(0.03527778,0,0,-0.03527778,-1115.8749,322.92464)"
       clip-path="url(#clipPath2619)" />
    <path
       id="path2620"
       d="m 33959.3,4470.73 c -3.1,-10.73 -1.3,-23.06 5.2,-32.2 1.2,-1.66 2.6,-2.97 4.6,-3.53 1.9,-0.5 4.3,-0.27 5.9,0.78 3.3,2.09 5.3,7.01 2.8,10.51 -0.7,0.98 -1.4,1.99 -1.9,3.05 l -0.8,1.51 -0.4,0.77 c -0.3,0.81 0.8,-1.89 0.2,-0.46 -0.8,2.27 -1.4,4.57 -1.7,6.97 l 0.2,-2.04 c -0.3,2.68 -0.3,5.36 0,8.04 l -0.3,-2.05 c 0.2,1.55 0.5,3.07 1,4.57 1.1,3.86 -1.4,8.54 -5.4,9.45 -4.1,0.93 -8.3,-1.23 -9.4,-5.37"
       style="fill:#5b371e;fill-opacity:1;fill-rule:nonzero;stroke:none"
       transform="matrix(0.03527778,0,0,-0.03527778,-1115.8749,322.92464)"
       clip-path="url(#clipPath2621)" />
    <path
       id="path2622"
       d="m 34011,4527.03 c 3.5,-5.16 7.1,-10.33 10.7,-15.49 1.2,-1.67 2.6,-2.98 4.6,-3.53 1.9,-0.51 4.3,-0.28 5.9,0.77 1.7,1.06 3.1,2.64 3.6,4.6 0.4,1.92 0.4,4.23 -0.8,5.92 -3.6,5.16 -7.2,10.32 -10.8,15.49 -1.1,1.66 -2.5,2.97 -4.6,3.53 -1.8,0.5 -4.3,0.27 -5.9,-0.78 -1.6,-1.06 -3.1,-2.63 -3.5,-4.59 -0.5,-1.92 -0.4,-4.24 0.8,-5.92"
       style="fill:#5b371e;fill-opacity:1;fill-rule:nonzero;stroke:none"
       transform="matrix(0.03527778,0,0,-0.03527778,-1115.8749,322.92464)"
       clip-path="url(#clipPath2623)" />
    <path
       id="path2624"
       d="m 34266.8,5141.65 c -50.6,0 -91.8,-41.19 -91.8,-91.83 0,-50.63 41.2,-91.82 91.8,-91.82 50.6,0 91.8,41.19 91.8,91.82 0,50.64 -41.2,91.83 -91.8,91.83 z m 0,-193.9 c -56.3,0 -102.1,45.79 -102.1,102.07 0,56.29 45.8,102.07 102.1,102.07 56.3,0 102.1,-45.78 102.1,-102.07 0,-56.28 -45.8,-102.07 -102.1,-102.07"
       style="fill:#262b44;fill-opacity:1;fill-rule:nonzero;stroke:none"
       transform="matrix(0.03527778,0,0,-0.03527778,-1115.8749,322.92464)"
       clip-path="url(#clipPath2625)" />
    <path
       id="path2626"
       d="m 34534.8,5141.65 c -50.6,0 -91.8,-41.19 -91.8,-91.83 0,-50.63 41.2,-91.82 91.8,-91.82 50.7,0 91.9,41.19 91.9,91.82 0,50.64 -41.2,91.83 -91.9,91.83 z m 0,-193.9 c -56.2,0 -102,45.79 -102,102.07 0,56.29 45.8,102.07 102,102.07 56.3,0 102.1,-45.78 102.1,-102.07 0,-56.28 -45.8,-102.07 -102.1,-102.07"
       style="fill:#262b44;fill-opacity:1;fill-rule:nonzero;stroke:none"
       transform="matrix(0.03527778,0,0,-0.03527778,-1115.8749,322.92464)"
       clip-path="url(#clipPath2627)" />
    <path
       id="path2628"
       d="m 34373.7,5046.26 c 7.3,7.99 17.9,12.24 28.7,10.97 9.7,-1.14 19,-7.37 24.2,-15.98 5.1,-8.46 18.4,-0.74 13.3,7.76 -7.9,13.05 -21.4,21.71 -36.5,23.48 -15,1.75 -30.5,-4.37 -40.6,-15.36 -2.8,-3.05 -3,-7.85 0,-10.87 2.8,-2.84 8,-3.06 10.9,0"
       style="fill:#262b44;fill-opacity:1;fill-rule:nonzero;stroke:none"
       transform="matrix(0.03527778,0,0,-0.03527778,-1115.8749,322.92464)"
       clip-path="url(#clipPath2629)" />
  </g>
</svg>
