<?xml version="1.0" encoding="UTF-8" standalone="no"?>
<!-- Created with Inkscape (http://www.inkscape.org/) -->

<svg
   width="64.332558mm"
   height="64.332207mm"
   viewBox="0 0 64.332558 64.332207"
   version="1.1"
   id="svg1"
   inkscape:version="1.3.2 (091e20e, 2023-11-25)"
   sodipodi:docname="bold-old-man-avatar.svg"
   xmlns:inkscape="http://www.inkscape.org/namespaces/inkscape"
   xmlns:sodipodi="http://sodipodi.sourceforge.net/DTD/sodipodi-0.dtd"
   xmlns="http://www.w3.org/2000/svg"
   xmlns:svg="http://www.w3.org/2000/svg">
  <sodipodi:namedview
     id="namedview1"
     pagecolor="#ffffff"
     bordercolor="#000000"
     borderopacity="0.25"
     inkscape:showpageshadow="2"
     inkscape:pageopacity="0.0"
     inkscape:pagecheckerboard="0"
     inkscape:deskcolor="#d1d1d1"
     inkscape:document-units="mm"
     inkscape:zoom="0.8665764"
     inkscape:cx="144.82278"
     inkscape:cy="79.046695"
     inkscape:window-width="1920"
     inkscape:window-height="1052"
     inkscape:window-x="0"
     inkscape:window-y="28"
     inkscape:window-maximized="0"
     inkscape:current-layer="layer1" />
  <defs
     id="defs1">
    <clipPath
       clipPathUnits="userSpaceOnUse"
       id="clipPath1053">
      <path
         d="m 26644.5,5084.48 c 0,-503.57 -408.2,-911.8 -911.8,-911.8 -503.6,0 -911.8,408.23 -911.8,911.8 0,503.57 408.2,911.79 911.8,911.79 503.6,0 911.8,-408.22 911.8,-911.79"
         transform="translate(0,-2.5e-4)"
         id="path1053" />
    </clipPath>
    <clipPath
       clipPathUnits="userSpaceOnUse"
       id="clipPath1055">
      <path
         d="m 26644.5,5084.48 c 0,-503.57 -408.2,-911.8 -911.8,-911.8 -503.6,0 -911.8,408.23 -911.8,911.8 0,503.57 408.2,911.79 911.8,911.79 503.6,0 911.8,-408.22 911.8,-911.79"
         transform="translate(0,-2.5e-4)"
         id="path1055" />
    </clipPath>
    <clipPath
       clipPathUnits="userSpaceOnUse"
       id="clipPath1056">
      <path
         d="m 26216.8,4549.26 c -92.6,61.99 -204.5,86.83 -313.7,108.76 -6.7,1.34 -13.6,2.79 -19,6.98 -9.1,7.16 11.7,248.42 0,353.91 l -155.9,-14.6 -155.9,14.6 c -11.6,-105.49 9.2,-346.75 0,-353.91 -5.3,-4.19 -12.3,-5.64 -19,-6.98 -109.2,-21.93 -221,-46.77 -313.6,-108.76 -92.6,-61.99 -162.7,-170.1 -147.8,-280.53 92.9,0.49 352.4,-1.2 615.2,-4.65 v -0.57 c 7.1,0.1 14.1,0.2 21.1,0.28 7.1,-0.08 14.1,-0.18 21.1,-0.28 v 0.57 c 262.9,3.45 522.3,5.14 615.3,4.65 14.8,110.43 -55.3,218.54 -147.8,280.53"
         transform="translate(0,-2.5e-4)"
         id="path1056" />
    </clipPath>
    <clipPath
       clipPathUnits="userSpaceOnUse"
       id="clipPath1059">
      <path
         d="m 26644.5,5084.48 c 0,-503.57 -408.2,-911.8 -911.8,-911.8 -503.6,0 -911.8,408.23 -911.8,911.8 0,503.57 408.2,911.79 911.8,911.79 503.6,0 911.8,-408.22 911.8,-911.79"
         transform="translate(0,-2.5e-4)"
         id="path1059" />
    </clipPath>
    <clipPath
       clipPathUnits="userSpaceOnUse"
       id="clipPath1061">
      <path
         d="m 26644.5,5084.48 c 0,-503.57 -408.2,-911.8 -911.8,-911.8 -503.6,0 -911.8,408.23 -911.8,911.8 0,503.57 408.2,911.79 911.8,911.79 503.6,0 911.8,-408.22 911.8,-911.79"
         transform="translate(0,-2.5e-4)"
         id="path1061" />
    </clipPath>
    <clipPath
       clipPathUnits="userSpaceOnUse"
       id="clipPath1063">
      <path
         d="m 26644.5,5084.48 c 0,-503.57 -408.2,-911.8 -911.8,-911.8 -503.6,0 -911.8,408.23 -911.8,911.8 0,503.57 408.2,911.79 911.8,911.79 503.6,0 911.8,-408.22 911.8,-911.79"
         transform="translate(0,-2.5e-4)"
         id="path1063" />
    </clipPath>
    <clipPath
       clipPathUnits="userSpaceOnUse"
       id="clipPath1065">
      <path
         d="m 26644.5,5084.48 c 0,-503.57 -408.2,-911.8 -911.8,-911.8 -503.6,0 -911.8,408.23 -911.8,911.8 0,503.57 408.2,911.79 911.8,911.79 503.6,0 911.8,-408.22 911.8,-911.79"
         transform="translate(0,-2.5e-4)"
         id="path1065" />
    </clipPath>
    <clipPath
       clipPathUnits="userSpaceOnUse"
       id="clipPath1067">
      <path
         d="m 26644.5,5084.48 c 0,-503.57 -408.2,-911.8 -911.8,-911.8 -503.6,0 -911.8,408.23 -911.8,911.8 0,503.57 408.2,911.79 911.8,911.79 503.6,0 911.8,-408.22 911.8,-911.79"
         transform="translate(0,-2.5e-4)"
         id="path1067" />
    </clipPath>
    <clipPath
       clipPathUnits="userSpaceOnUse"
       id="clipPath1069">
      <path
         d="m 26644.5,5084.48 c 0,-503.57 -408.2,-911.8 -911.8,-911.8 -503.6,0 -911.8,408.23 -911.8,911.8 0,503.57 408.2,911.79 911.8,911.79 503.6,0 911.8,-408.22 911.8,-911.79"
         transform="translate(0,-2.5e-4)"
         id="path1069" />
    </clipPath>
    <clipPath
       clipPathUnits="userSpaceOnUse"
       id="clipPath1071">
      <path
         d="m 26644.5,5084.48 c 0,-503.57 -408.2,-911.8 -911.8,-911.8 -503.6,0 -911.8,408.23 -911.8,911.8 0,503.57 408.2,911.79 911.8,911.79 503.6,0 911.8,-408.22 911.8,-911.79"
         transform="translate(0,-2.5e-4)"
         id="path1071" />
    </clipPath>
    <clipPath
       clipPathUnits="userSpaceOnUse"
       id="clipPath1073">
      <path
         d="m 26644.5,5084.48 c 0,-503.57 -408.2,-911.8 -911.8,-911.8 -503.6,0 -911.8,408.23 -911.8,911.8 0,503.57 408.2,911.79 911.8,911.79 503.6,0 911.8,-408.22 911.8,-911.79"
         transform="translate(0,-2.5e-4)"
         id="path1073" />
    </clipPath>
    <clipPath
       clipPathUnits="userSpaceOnUse"
       id="clipPath1075">
      <path
         d="m 26644.5,5084.48 c 0,-503.57 -408.2,-911.8 -911.8,-911.8 -503.6,0 -911.8,408.23 -911.8,911.8 0,503.57 408.2,911.79 911.8,911.79 503.6,0 911.8,-408.22 911.8,-911.79"
         transform="translate(0,-2.5e-4)"
         id="path1075" />
    </clipPath>
    <clipPath
       clipPathUnits="userSpaceOnUse"
       id="clipPath1077">
      <path
         d="m 26644.5,5084.48 c 0,-503.57 -408.2,-911.8 -911.8,-911.8 -503.6,0 -911.8,408.23 -911.8,911.8 0,503.57 408.2,911.79 911.8,911.79 503.6,0 911.8,-408.22 911.8,-911.79"
         transform="translate(0,-2.5e-4)"
         id="path1077" />
    </clipPath>
    <clipPath
       clipPathUnits="userSpaceOnUse"
       id="clipPath1079">
      <path
         d="m 26644.5,5084.48 c 0,-503.57 -408.2,-911.8 -911.8,-911.8 -503.6,0 -911.8,408.23 -911.8,911.8 0,503.57 408.2,911.79 911.8,911.79 503.6,0 911.8,-408.22 911.8,-911.79"
         transform="translate(0,-2.5e-4)"
         id="path1079" />
    </clipPath>
    <clipPath
       clipPathUnits="userSpaceOnUse"
       id="clipPath1081">
      <path
         d="m 26644.5,5084.48 c 0,-503.57 -408.2,-911.8 -911.8,-911.8 -503.6,0 -911.8,408.23 -911.8,911.8 0,503.57 408.2,911.79 911.8,911.79 503.6,0 911.8,-408.22 911.8,-911.79"
         transform="translate(0,-2.5e-4)"
         id="path1081" />
    </clipPath>
    <clipPath
       clipPathUnits="userSpaceOnUse"
       id="clipPath1083">
      <path
         d="m 26644.5,5084.48 c 0,-503.57 -408.2,-911.8 -911.8,-911.8 -503.6,0 -911.8,408.23 -911.8,911.8 0,503.57 408.2,911.79 911.8,911.79 503.6,0 911.8,-408.22 911.8,-911.79"
         transform="translate(0,-2.5e-4)"
         id="path1083" />
    </clipPath>
    <clipPath
       clipPathUnits="userSpaceOnUse"
       id="clipPath1085">
      <path
         d="m 26644.5,5084.48 c 0,-503.57 -408.2,-911.8 -911.8,-911.8 -503.6,0 -911.8,408.23 -911.8,911.8 0,503.57 408.2,911.79 911.8,911.79 503.6,0 911.8,-408.22 911.8,-911.79"
         transform="translate(0,-2.5e-4)"
         id="path1085" />
    </clipPath>
    <clipPath
       clipPathUnits="userSpaceOnUse"
       id="clipPath1087">
      <path
         d="m 26644.5,5084.48 c 0,-503.57 -408.2,-911.8 -911.8,-911.8 -503.6,0 -911.8,408.23 -911.8,911.8 0,503.57 408.2,911.79 911.8,911.79 503.6,0 911.8,-408.22 911.8,-911.79"
         transform="translate(0,-2.5e-4)"
         id="path1087" />
    </clipPath>
    <clipPath
       clipPathUnits="userSpaceOnUse"
       id="clipPath1089">
      <path
         d="m 26644.5,5084.48 c 0,-503.57 -408.2,-911.8 -911.8,-911.8 -503.6,0 -911.8,408.23 -911.8,911.8 0,503.57 408.2,911.79 911.8,911.79 503.6,0 911.8,-408.22 911.8,-911.79"
         transform="translate(0,-2.5e-4)"
         id="path1089" />
    </clipPath>
    <clipPath
       clipPathUnits="userSpaceOnUse"
       id="clipPath1091">
      <path
         d="m 26644.5,5084.48 c 0,-503.57 -408.2,-911.8 -911.8,-911.8 -503.6,0 -911.8,408.23 -911.8,911.8 0,503.57 408.2,911.79 911.8,911.79 503.6,0 911.8,-408.22 911.8,-911.79"
         transform="translate(0,-2.5e-4)"
         id="path1091" />
    </clipPath>
    <clipPath
       clipPathUnits="userSpaceOnUse"
       id="clipPath1093">
      <path
         d="m 26644.5,5084.48 c 0,-503.57 -408.2,-911.8 -911.8,-911.8 -503.6,0 -911.8,408.23 -911.8,911.8 0,503.57 408.2,911.79 911.8,911.79 503.6,0 911.8,-408.22 911.8,-911.79"
         transform="translate(0,-2.5e-4)"
         id="path1093" />
    </clipPath>
    <clipPath
       clipPathUnits="userSpaceOnUse"
       id="clipPath1095">
      <path
         d="m 26644.5,5084.48 c 0,-503.57 -408.2,-911.8 -911.8,-911.8 -503.6,0 -911.8,408.23 -911.8,911.8 0,503.57 408.2,911.79 911.8,911.79 503.6,0 911.8,-408.22 911.8,-911.79"
         transform="translate(0,-2.5e-4)"
         id="path1095" />
    </clipPath>
    <clipPath
       clipPathUnits="userSpaceOnUse"
       id="clipPath1097">
      <path
         d="m 26644.5,5084.48 c 0,-503.57 -408.2,-911.8 -911.8,-911.8 -503.6,0 -911.8,408.23 -911.8,911.8 0,503.57 408.2,911.79 911.8,911.79 503.6,0 911.8,-408.22 911.8,-911.79"
         transform="translate(0,-2.5e-4)"
         id="path1097" />
    </clipPath>
    <clipPath
       clipPathUnits="userSpaceOnUse"
       id="clipPath1099">
      <path
         d="m 26644.5,5084.48 c 0,-503.57 -408.2,-911.8 -911.8,-911.8 -503.6,0 -911.8,408.23 -911.8,911.8 0,503.57 408.2,911.79 911.8,911.79 503.6,0 911.8,-408.22 911.8,-911.79"
         transform="translate(0,-2.5e-4)"
         id="path1099" />
    </clipPath>
    <clipPath
       clipPathUnits="userSpaceOnUse"
       id="clipPath1101">
      <path
         d="m 26644.5,5084.48 c 0,-503.57 -408.2,-911.8 -911.8,-911.8 -503.6,0 -911.8,408.23 -911.8,911.8 0,503.57 408.2,911.79 911.8,911.79 503.6,0 911.8,-408.22 911.8,-911.79"
         transform="translate(0,-2.5e-4)"
         id="path1101" />
    </clipPath>
    <clipPath
       clipPathUnits="userSpaceOnUse"
       id="clipPath1103">
      <path
         d="m 26644.5,5084.48 c 0,-503.57 -408.2,-911.8 -911.8,-911.8 -503.6,0 -911.8,408.23 -911.8,911.8 0,503.57 408.2,911.79 911.8,911.79 503.6,0 911.8,-408.22 911.8,-911.79"
         transform="translate(0,-2.5e-4)"
         id="path1103" />
    </clipPath>
    <clipPath
       clipPathUnits="userSpaceOnUse"
       id="clipPath1105">
      <path
         d="m 26644.5,5084.48 c 0,-503.57 -408.2,-911.8 -911.8,-911.8 -503.6,0 -911.8,408.23 -911.8,911.8 0,503.57 408.2,911.79 911.8,911.79 503.6,0 911.8,-408.22 911.8,-911.79"
         transform="translate(0,-2.5e-4)"
         id="path1105" />
    </clipPath>
    <clipPath
       clipPathUnits="userSpaceOnUse"
       id="clipPath1107">
      <path
         d="m 26644.5,5084.48 c 0,-503.57 -408.2,-911.8 -911.8,-911.8 -503.6,0 -911.8,408.23 -911.8,911.8 0,503.57 408.2,911.79 911.8,911.79 503.6,0 911.8,-408.22 911.8,-911.79"
         transform="translate(0,-2.5e-4)"
         id="path1107" />
    </clipPath>
    <clipPath
       clipPathUnits="userSpaceOnUse"
       id="clipPath1109">
      <path
         d="m 26644.5,5084.48 c 0,-503.57 -408.2,-911.8 -911.8,-911.8 -503.6,0 -911.8,408.23 -911.8,911.8 0,503.57 408.2,911.79 911.8,911.79 503.6,0 911.8,-408.22 911.8,-911.79"
         transform="translate(0,-2.5e-4)"
         id="path1109" />
    </clipPath>
    <clipPath
       clipPathUnits="userSpaceOnUse"
       id="clipPath1111">
      <path
         d="m 26644.5,5084.48 c 0,-503.57 -408.2,-911.8 -911.8,-911.8 -503.6,0 -911.8,408.23 -911.8,911.8 0,503.57 408.2,911.79 911.8,911.79 503.6,0 911.8,-408.22 911.8,-911.79"
         transform="translate(0,-2.5e-4)"
         id="path1111" />
    </clipPath>
    <clipPath
       clipPathUnits="userSpaceOnUse"
       id="clipPath1113">
      <path
         d="m 26644.5,5084.48 c 0,-503.57 -408.2,-911.8 -911.8,-911.8 -503.6,0 -911.8,408.23 -911.8,911.8 0,503.57 408.2,911.79 911.8,911.79 503.6,0 911.8,-408.22 911.8,-911.79"
         transform="translate(0,-2.5e-4)"
         id="path1113" />
    </clipPath>
    <clipPath
       clipPathUnits="userSpaceOnUse"
       id="clipPath1115">
      <path
         d="m 26644.5,5084.48 c 0,-503.57 -408.2,-911.8 -911.8,-911.8 -503.6,0 -911.8,408.23 -911.8,911.8 0,503.57 408.2,911.79 911.8,911.79 503.6,0 911.8,-408.22 911.8,-911.79"
         transform="translate(0,-2.5e-4)"
         id="path1115" />
    </clipPath>
    <clipPath
       clipPathUnits="userSpaceOnUse"
       id="clipPath1117">
      <path
         d="m 26644.5,5084.48 c 0,-503.57 -408.2,-911.8 -911.8,-911.8 -503.6,0 -911.8,408.23 -911.8,911.8 0,503.57 408.2,911.79 911.8,911.79 503.6,0 911.8,-408.22 911.8,-911.79"
         transform="translate(0,-2.5e-4)"
         id="path1117" />
    </clipPath>
    <clipPath
       clipPathUnits="userSpaceOnUse"
       id="clipPath1119">
      <path
         d="m 26644.5,5084.48 c 0,-503.57 -408.2,-911.8 -911.8,-911.8 -503.6,0 -911.8,408.23 -911.8,911.8 0,503.57 408.2,911.79 911.8,911.79 503.6,0 911.8,-408.22 911.8,-911.79"
         transform="translate(0,-2.5e-4)"
         id="path1119" />
    </clipPath>
    <clipPath
       clipPathUnits="userSpaceOnUse"
       id="clipPath1121">
      <path
         d="m 26644.5,5084.48 c 0,-503.57 -408.2,-911.8 -911.8,-911.8 -503.6,0 -911.8,408.23 -911.8,911.8 0,503.57 408.2,911.79 911.8,911.79 503.6,0 911.8,-408.22 911.8,-911.79"
         transform="translate(0,-2.5e-4)"
         id="path1121" />
    </clipPath>
    <clipPath
       clipPathUnits="userSpaceOnUse"
       id="clipPath1123">
      <path
         d="m 26644.5,5084.48 c 0,-503.57 -408.2,-911.8 -911.8,-911.8 -503.6,0 -911.8,408.23 -911.8,911.8 0,503.57 408.2,911.79 911.8,911.79 503.6,0 911.8,-408.22 911.8,-911.79"
         transform="translate(0,-2.5e-4)"
         id="path1123" />
    </clipPath>
    <clipPath
       clipPathUnits="userSpaceOnUse"
       id="clipPath1125">
      <path
         d="m 26644.5,5084.48 c 0,-503.57 -408.2,-911.8 -911.8,-911.8 -503.6,0 -911.8,408.23 -911.8,911.8 0,503.57 408.2,911.79 911.8,911.79 503.6,0 911.8,-408.22 911.8,-911.79"
         transform="translate(0,-2.5e-4)"
         id="path1125" />
    </clipPath>
    <clipPath
       clipPathUnits="userSpaceOnUse"
       id="clipPath1127">
      <path
         d="m 26644.5,5084.48 c 0,-503.57 -408.2,-911.8 -911.8,-911.8 -503.6,0 -911.8,408.23 -911.8,911.8 0,503.57 408.2,911.79 911.8,911.79 503.6,0 911.8,-408.22 911.8,-911.79"
         transform="translate(0,-2.5e-4)"
         id="path1127" />
    </clipPath>
    <clipPath
       clipPathUnits="userSpaceOnUse"
       id="clipPath1129">
      <path
         d="m 26644.5,5084.48 c 0,-503.57 -408.2,-911.8 -911.8,-911.8 -503.6,0 -911.8,408.23 -911.8,911.8 0,503.57 408.2,911.79 911.8,911.79 503.6,0 911.8,-408.22 911.8,-911.79"
         transform="translate(0,-2.5e-4)"
         id="path1129" />
    </clipPath>
    <clipPath
       clipPathUnits="userSpaceOnUse"
       id="clipPath1131">
      <path
         d="m 26644.5,5084.48 c 0,-503.57 -408.2,-911.8 -911.8,-911.8 -503.6,0 -911.8,408.23 -911.8,911.8 0,503.57 408.2,911.79 911.8,911.79 503.6,0 911.8,-408.22 911.8,-911.79"
         transform="translate(0,-2.5e-4)"
         id="path1131" />
    </clipPath>
    <clipPath
       clipPathUnits="userSpaceOnUse"
       id="clipPath1133">
      <path
         d="m 26644.5,5084.48 c 0,-503.57 -408.2,-911.8 -911.8,-911.8 -503.6,0 -911.8,408.23 -911.8,911.8 0,503.57 408.2,911.79 911.8,911.79 503.6,0 911.8,-408.22 911.8,-911.79"
         transform="translate(0,-2.5e-4)"
         id="path1133" />
    </clipPath>
    <clipPath
       clipPathUnits="userSpaceOnUse"
       id="clipPath1135">
      <path
         d="m 26644.5,5084.48 c 0,-503.57 -408.2,-911.8 -911.8,-911.8 -503.6,0 -911.8,408.23 -911.8,911.8 0,503.57 408.2,911.79 911.8,911.79 503.6,0 911.8,-408.22 911.8,-911.79"
         transform="translate(0,-2.5e-4)"
         id="path1135" />
    </clipPath>
    <clipPath
       clipPathUnits="userSpaceOnUse"
       id="clipPath1137">
      <path
         d="m 26644.5,5084.48 c 0,-503.57 -408.2,-911.8 -911.8,-911.8 -503.6,0 -911.8,408.23 -911.8,911.8 0,503.57 408.2,911.79 911.8,911.79 503.6,0 911.8,-408.22 911.8,-911.79"
         transform="translate(0,-2.5e-4)"
         id="path1137" />
    </clipPath>
    <clipPath
       clipPathUnits="userSpaceOnUse"
       id="clipPath1139">
      <path
         d="m 26644.5,5084.48 c 0,-503.57 -408.2,-911.8 -911.8,-911.8 -503.6,0 -911.8,408.23 -911.8,911.8 0,503.57 408.2,911.79 911.8,911.79 503.6,0 911.8,-408.22 911.8,-911.79"
         transform="translate(0,-2.5e-4)"
         id="path1139" />
    </clipPath>
  </defs>
  <g
     inkscape:label="Layer 1"
     inkscape:groupmode="layer"
     id="layer1"
     transform="translate(-70.90839,-107.4208)">
    <path
       id="path1052"
       d="m 26644.5,4172.69 h -1823.6 v 1823.58 h 1823.6 V 4172.69"
       style="fill:#a59effff;fill-opacity:1;fill-rule:nonzero;stroke:none"
       transform="matrix(0.03527778,0,0,-0.03527778,-804.71786,318.95589)"
       clip-path="url(#clipPath1053)" />
    <path
       id="path1054"
       d="m 26216.8,4549.27 c -92.6,61.99 -204.5,86.81 -313.7,108.75 -6.7,1.34 -13.6,2.8 -19,6.98 -9.1,7.16 11.7,248.42 0,353.9 l -155.9,-14.6 -155.9,14.6 c -11.6,-105.48 9.2,-346.74 0,-353.9 -5.3,-4.18 -12.3,-5.64 -18.9,-6.98 -109.3,-21.94 -221.1,-46.76 -313.7,-108.75 -92.6,-62 -162.7,-170.12 -147.8,-280.53 92.9,0.48 352.4,-1.21 615.2,-4.66 v -0.57 c 7,0.1 14.1,0.19 21.1,0.29 7.1,-0.1 14.1,-0.19 21.1,-0.29 v 0.57 c 262.9,3.45 522.3,5.14 615.3,4.66 14.8,110.41 -55.3,218.53 -147.8,280.53"
       style="fill:#fbd1b9;fill-opacity:1;fill-rule:nonzero;stroke:none"
       transform="matrix(0.03527778,0,0,-0.03527778,-804.71786,318.95589)"
       clip-path="url(#clipPath1055)" />
    <g
       id="g1057"
       transform="matrix(0.26458333,0,0,0.26458333,-804.71786,-39.558037)">
      <path
         d="m 25364.8,5022.3 c 61.5,39.6 64.1,58.6 67.1,39.6 14.5,-93.36 162.1,-318.28 296.2,-318.28 173.7,0 274.4,293.12 290.7,367 -200.7,-28.69 -404,-57.42 -605.3,-33.28 5.6,-5.21 11.1,-10.43 16.6,-15.65 l -65.3,-39.39"
         style="fill:#dba78a;fill-opacity:1;fill-rule:nonzero;stroke:none"
         transform="matrix(0.13333333,0,0,-0.13333333,0,1355.0133)"
         clip-path="url(#clipPath1056)"
         id="path1057" />
    </g>
    <path
       id="path1058"
       d="m 25496.9,5077.55 0.4,-1.99 c 14.7,-66.19 38.1,-132.3 82.1,-183.82 44.1,-51.53 111.9,-86.37 179.1,-77.23 65,8.84 119.5,57.1 151.2,114.5 31.7,57.39 43.8,123.33 52.7,188.3 7.5,55.09 20,182.66 30.9,299.05 11.3,120.19 -163.3,311.09 -411.7,188.47 -44.1,-21.78 -69,-48.72 -89.7,-93.37 -47.6,-102.63 -14,-347.25 5,-433.91"
       style="fill:#fbd1b9;fill-opacity:1;fill-rule:nonzero;stroke:none"
       transform="matrix(0.03527778,0,0,-0.03527778,-804.71786,318.95589)"
       clip-path="url(#clipPath1059)" />
    <path
       id="path1060"
       d="m 25956.8,5164.17 c 3.4,24.91 33.4,40.49 57.5,33.18 24.1,-7.3 39.9,-32.29 41.7,-57.37 1.8,-25.09 -8.3,-49.77 -22.7,-70.4 -24,-34.39 -66.2,-61.1 -106.8,-50.46 6.4,51.58 15.7,102.82 27.7,153.4 l 2.6,-8.35"
       style="fill:#fbd1b9;fill-opacity:1;fill-rule:nonzero;stroke:none"
       transform="matrix(0.03527778,0,0,-0.03527778,-804.71786,318.95589)"
       clip-path="url(#clipPath1061)" />
    <path
       id="path1062"
       d="m 25500.6,5164.17 c -3.4,24.91 -33.4,40.49 -57.5,33.18 -24.1,-7.3 -39.9,-32.29 -41.7,-57.37 -1.8,-25.09 8.4,-49.77 22.7,-70.4 24,-34.39 66.2,-61.1 106.8,-50.46 -6.4,51.58 -15.7,102.82 -27.7,153.4 l -2.6,-8.35"
       style="fill:#fbd1b9;fill-opacity:1;fill-rule:nonzero;stroke:none"
       transform="matrix(0.03527778,0,0,-0.03527778,-804.71786,318.95589)"
       clip-path="url(#clipPath1063)" />
    <path
       id="path1064"
       d="m 25608.8,5191.53 c 0,-15.75 -12.5,-28.52 -27.9,-28.52 -15.4,0 -27.9,12.77 -27.9,28.52 0,15.75 12.5,28.52 27.9,28.52 15.4,0 27.9,-12.77 27.9,-28.52"
       style="fill:#1a1a1a;fill-opacity:1;fill-rule:nonzero;stroke:none"
       transform="matrix(0.03527778,0,0,-0.03527778,-804.71786,318.95589)"
       clip-path="url(#clipPath1065)" />
    <path
       id="path1066"
       d="m 25893.3,5191.53 c 0,-15.75 -12.5,-28.52 -27.9,-28.52 -15.4,0 -27.9,12.77 -27.9,28.52 0,15.75 12.5,28.52 27.9,28.52 15.4,0 27.9,-12.77 27.9,-28.52"
       style="fill:#1a1a1a;fill-opacity:1;fill-rule:nonzero;stroke:none"
       transform="matrix(0.03527778,0,0,-0.03527778,-804.71786,318.95589)"
       clip-path="url(#clipPath1067)" />
    <path
       id="path1068"
       d="m 25721.2,5316.61 c 18,-62.34 29.5,-126.34 34.1,-191.06 4.2,2.41 8.4,4.82 12.6,7.24 -19.2,11.06 -38.3,22.11 -57.5,33.17 -9.4,5.4 -17.9,-9.09 -8.5,-14.48 19.2,-11.06 38.4,-22.12 57.6,-33.17 5.2,-3 13.1,0.73 12.6,7.24 -4.8,66.18 -16.4,131.75 -34.8,195.52 -2.9,10.34 -19.1,5.94 -16.1,-4.46"
       style="fill:#a46e4a;fill-opacity:1;fill-rule:nonzero;stroke:none"
       transform="matrix(0.03527778,0,0,-0.03527778,-804.71786,318.95589)"
       clip-path="url(#clipPath1069)" />
    <path
       id="path1070"
       d="m 25647.2,4980.97 c 57.4,-24.39 122.6,-23.51 179.3,2.68 9.8,4.52 1.3,18.98 -8.5,14.48 -50.6,-23.39 -111,-24.49 -162.3,-2.68 -4.2,1.78 -9,1.22 -11.5,-3.01 -2.1,-3.5 -1.1,-9.7 3,-11.47"
       style="fill:#a46e4a;fill-opacity:1;fill-rule:nonzero;stroke:none"
       transform="matrix(0.03527778,0,0,-0.03527778,-804.71786,318.95589)"
       clip-path="url(#clipPath1071)" />
    <path
       id="path1072"
       d="m 25673.6,5058.24 c -15.8,-13.57 -24.7,-33.52 -38.7,-48.97 -14,-15.45 -38.3,-25.99 -55.4,-14.07 23.9,-24.66 62.7,-33.52 94.9,-21.64 32.2,11.87 56,43.81 58.2,78.07 l -3.8,6.56 c -11.5,17.38 -39.4,13.63 -55.2,0.05"
       style="fill:#7c7a79;fill-opacity:1;fill-rule:nonzero;stroke:none"
       transform="matrix(0.03527778,0,0,-0.03527778,-804.71786,318.95589)"
       clip-path="url(#clipPath1073)" />
    <path
       id="path1074"
       d="m 25833.7,5009.27 c -14,15.45 -22.9,35.4 -38.7,48.97 -15.8,13.58 -43.7,17.33 -55.2,-0.05 l -3.8,-6.56 c 2.2,-34.26 26,-66.2 58.2,-78.07 32.2,-11.88 71,-3.02 94.9,21.64 -17.1,-11.92 -41.4,-1.38 -55.4,14.07"
       style="fill:#7c7a79;fill-opacity:1;fill-rule:nonzero;stroke:none"
       transform="matrix(0.03527778,0,0,-0.03527778,-804.71786,318.95589)"
       clip-path="url(#clipPath1075)" />
    <path
       id="path1076"
       d="m 25638.8,5352.78 c 0.5,-3.3 0.9,-6.7 1.2,-10 0.7,-10.06 -6.2,-19.14 -16.2,-20.79 -29.5,-4.91 -60,-4.42 -89.6,-8.61 -10.6,-1.48 -20.3,5.83 -22,16.36 v 0.4 c -1.7,10.42 5.3,20.25 15.7,22.17 l 88.1,16.22 c 10.6,1.95 21,-5.08 22.8,-15.75"
       style="fill:#7c7a79;fill-opacity:1;fill-rule:nonzero;stroke:none"
       transform="matrix(0.03527778,0,0,-0.03527778,-804.71786,318.95589)"
       clip-path="url(#clipPath1077)" />
    <path
       id="path1078"
       d="m 25809,5295.87 c -0.6,-3.68 -1.1,-7.48 -1.3,-11.16 -0.7,-11.22 6.5,-21.35 17,-23.19 31.1,-5.48 63,-4.93 94.3,-9.6 11.1,-1.66 21.3,6.49 23,18.25 l 0.1,0.44 c 1.8,11.62 -5.6,22.59 -16.6,24.73 l -92.6,18.09 c -11.2,2.19 -22.1,-5.66 -23.9,-17.56"
       style="fill:#7c7a79;fill-opacity:1;fill-rule:nonzero;stroke:none"
       transform="matrix(0.03527778,0,0,-0.03527778,-804.71786,318.95589)"
       clip-path="url(#clipPath1079)" />
    <path
       id="path1080"
       d="m 25972.3,5084.9 c 11.6,20.97 28.4,37.74 49.3,49.44 3.8,2.14 5.4,7.72 3,11.47 -2.5,3.88 -7.4,5.3 -11.5,3.01 -23.1,-12.91 -42.4,-32.32 -55.3,-55.46 -2.1,-3.83 -1.1,-9.33 3,-11.47 4,-2.09 9.2,-1.09 11.5,3.01"
       style="fill:#a46e4a;fill-opacity:1;fill-rule:nonzero;stroke:none"
       transform="matrix(0.03527778,0,0,-0.03527778,-804.71786,318.95589)"
       clip-path="url(#clipPath1081)" />
    <path
       id="path1082"
       d="m 25984.6,5108.59 c 3.2,-6.27 6.3,-12.54 9.5,-18.81 0.9,-1.81 3.1,-3.33 5,-3.86 2,-0.55 4.7,-0.3 6.5,0.85 1.7,1.15 3.3,2.87 3.8,5.01 0.5,2.28 0.2,4.36 -0.8,6.46 -3.2,6.27 -6.3,12.55 -9.5,18.82 -0.9,1.81 -3.1,3.33 -5,3.85 -2,0.55 -4.7,0.3 -6.5,-0.85 -1.8,-1.15 -3.3,-2.87 -3.8,-5.01 -0.5,-2.27 -0.2,-4.36 0.8,-6.46"
       style="fill:#a46e4a;fill-opacity:1;fill-rule:nonzero;stroke:none"
       transform="matrix(0.03527778,0,0,-0.03527778,-804.71786,318.95589)"
       clip-path="url(#clipPath1083)" />
    <path
       id="path1084"
       d="m 25434.3,5132.31 c 5.8,-2.83 11.3,-6.07 16.5,-9.75 2.9,-2.05 3.9,-2.76 6.6,-5.05 2.4,-2.05 4.8,-4.2 7.1,-6.43 9.3,-9.09 15.8,-17.93 21.9,-29.65 2.1,-4.02 7.7,-5.22 11.5,-3.01 4.1,2.38 5.1,7.44 3,11.47 -12.7,24.42 -33.4,44.71 -58.1,56.9 -4.1,2 -9.1,1.09 -11.5,-3.01 -2.1,-3.7 -1,-9.46 3,-11.47"
       style="fill:#a46e4a;fill-opacity:1;fill-rule:nonzero;stroke:none"
       transform="matrix(0.03527778,0,0,-0.03527778,-804.71786,318.95589)"
       clip-path="url(#clipPath1085)" />
    <path
       id="path1086"
       d="m 25445.6,5090.97 c 1,1.09 2.1,2.14 3.2,3.15 l 1.7,1.57 0.8,0.67 c 0.2,0.1 1.5,1.17 0.4,0.32 -1,-0.77 0,-0.01 0.2,0.14 l 1.1,0.77 1.7,1.18 c 1.3,0.87 2.7,1.68 4,2.43 1.3,0.72 2.7,1.38 4,1.99 l 1,0.43 c 1,0.44 -2,-0.78 -0.3,-0.14 l 1.9,0.74 c 3,1.05 6,1.85 9.1,2.42 4.4,0.8 7.2,6.27 5.9,10.32 -1.5,4.63 -5.7,6.71 -10.3,5.85 -13.8,-2.54 -26.7,-9.78 -36.2,-19.98 -3,-3.21 -3.5,-8.72 0,-11.86 3.2,-2.98 8.6,-3.42 11.8,0"
       style="fill:#a46e4a;fill-opacity:1;fill-rule:nonzero;stroke:none"
       transform="matrix(0.03527778,0,0,-0.03527778,-804.71786,318.95589)"
       clip-path="url(#clipPath1087)" />
    <path
       id="path1088"
       d="m 25711.2,4933.99 c -1.8,-0.24 1,0.1 1.3,0.14 0.9,0.09 1.9,0.18 2.8,0.25 1.6,0.12 3.2,0.21 4.8,0.25 3.5,0.11 6.9,0.04 10.4,-0.21 1.6,-0.12 3.2,-0.29 4.8,-0.46 1,-0.12 1,-0.13 0.1,-0.01 l 1.2,-0.17 c 0.9,-0.14 1.8,-0.3 2.8,-0.46 3.4,-0.63 6.8,-1.43 10.1,-2.38 4.2,-1.21 9.3,1.47 10.3,5.85 1,4.47 -1.3,9.03 -5.9,10.32 -15.4,4.41 -31.3,5.21 -47.2,3.05 -4.4,-0.59 -7.1,-6.4 -5.8,-10.31 1.5,-4.8 5.6,-6.5 10.3,-5.86"
       style="fill:#a46e4a;fill-opacity:1;fill-rule:nonzero;stroke:none"
       transform="matrix(0.03527778,0,0,-0.03527778,-804.71786,318.95589)"
       clip-path="url(#clipPath1089)" />
    <path
       id="path1090"
       d="m 25568.4,5616.07 c 8.2,-10.05 5.9,-25.4 -1.1,-36.3 -7,-10.89 -17.7,-18.73 -27.1,-27.57 -33.4,-31.23 -51.3,-76.15 -58.1,-121.33 -6.8,-45.19 -3.5,-91.21 -0.1,-136.78 2.4,-32.93 4.8,-65.87 7.3,-98.8 -7.8,-5.67 -19.5,-2.09 -25.7,5.23 -6.3,7.32 -8.4,17.2 -10.1,26.66 -17.9,99.91 -11.6,204.07 18.2,301.1 12.1,39.51 31.8,81.67 70.1,97.16 8,3.21 17.6,4.91 24.7,0.06 7.1,-4.85 7.1,-18.32 -1.2,-20.38 l 3.1,10.95"
       style="fill:#7c7a79;fill-opacity:1;fill-rule:nonzero;stroke:none"
       transform="matrix(0.03527778,0,0,-0.03527778,-804.71786,318.95589)"
       clip-path="url(#clipPath1091)" />
    <path
       id="path1092"
       d="m 25879.2,5616.07 c -8.2,-10.05 -5.9,-25.4 1.1,-36.3 6.9,-10.89 17.7,-18.73 27.1,-27.57 33.4,-31.23 51.3,-76.15 58.1,-121.33 6.8,-45.19 3.5,-91.21 0.1,-136.78 -2.4,-32.93 -4.9,-65.87 -7.3,-98.8 7.8,-5.67 19.5,-2.09 25.7,5.23 6.2,7.32 8.4,17.2 10.1,26.66 17.9,99.91 11.6,204.07 -18.2,301.1 -12.2,39.51 -31.8,81.67 -70.1,97.16 -8,3.21 -17.6,4.91 -24.7,0.06 -7.1,-4.85 -7.1,-18.32 1.2,-20.38 l -3.1,10.95"
       style="fill:#7c7a79;fill-opacity:1;fill-rule:nonzero;stroke:none"
       transform="matrix(0.03527778,0,0,-0.03527778,-804.71786,318.95589)"
       clip-path="url(#clipPath1093)" />
    <path
       id="path1094"
       d="m 25830,5140.64 c 8.3,-9.45 19.2,-16.39 31.1,-20.28 3.9,-1.25 8.6,1.45 9.5,5.37 1,4.22 -1.3,8.12 -5.4,9.45 -1.3,0.42 -2.6,0.88 -3.8,1.39 l -0.9,0.34 c 2,-0.76 0.9,-0.35 0.4,-0.15 l -1.9,0.87 c -2.4,1.19 -4.8,2.54 -7.1,4.05 -1.1,0.71 -2.1,1.47 -3.1,2.22 -0.8,0.55 1.3,-1.08 0.3,-0.23 l -0.8,0.57 -1.5,1.32 c -2.1,1.85 -4.1,3.84 -6,5.95 -2.6,3.02 -8.2,2.92 -10.8,0 -3,-3.23 -2.9,-7.64 0,-10.87"
       style="fill:#a46e4a;fill-opacity:1;fill-rule:nonzero;stroke:none"
       transform="matrix(0.03527778,0,0,-0.03527778,-804.71786,318.95589)"
       clip-path="url(#clipPath1095)" />
    <path
       id="path1096"
       d="m 25613.8,5155.49 c -0.4,-0.5 -1.7,-1.82 0,-0.02 l -1,-1.23 -2.2,-2.34 c -1.4,-1.42 -2.9,-2.64 -4.4,-3.97 1.8,1.65 0.5,0.36 0,0 l -1.3,-0.91 -2.4,-1.48 c -1.8,-1.08 -3.7,-2.02 -5.6,-2.85 l 1.8,0.78 c -1.8,-0.77 -3.7,-1.42 -5.6,-1.95 -3.9,-1.08 -6.7,-5.49 -5.4,-9.45 1.3,-3.95 5.3,-6.52 9.5,-5.37 12.1,3.39 22.4,10.9 29.8,21.04 1.1,1.51 1.3,4.19 0.8,5.92 -0.5,1.78 -1.9,3.71 -3.5,4.59 -1.8,0.94 -4,1.41 -5.9,0.77 -2.1,-0.65 -3.4,-1.83 -4.6,-3.53"
       style="fill:#a46e4a;fill-opacity:1;fill-rule:nonzero;stroke:none"
       transform="matrix(0.03527778,0,0,-0.03527778,-804.71786,318.95589)"
       clip-path="url(#clipPath1097)" />
    <path
       id="path1098"
       d="m 25575.1,5429.48 c 92.3,0.6 184.6,3.04 276.8,7.32 9.9,0.46 9.9,15.83 0,15.37 -92.2,-4.28 -184.5,-6.72 -276.8,-7.32 -9.8,-0.07 -9.9,-15.44 0,-15.37"
       style="fill:#a46e4a;fill-opacity:1;fill-rule:nonzero;stroke:none"
       transform="matrix(0.03527778,0,0,-0.03527778,-804.71786,318.95589)"
       clip-path="url(#clipPath1099)" />
    <path
       id="path1100"
       d="m 25628.4,5470.28 c 60.3,8.47 121.8,7.64 181.8,-2.33 9.7,-1.61 13.9,13.2 4.1,14.82 -62.9,10.46 -126.8,11.21 -190,2.33 -9.7,-1.37 -5.6,-16.18 4.1,-14.82"
       style="fill:#a46e4a;fill-opacity:1;fill-rule:nonzero;stroke:none"
       transform="matrix(0.03527778,0,0,-0.03527778,-804.71786,318.95589)"
       clip-path="url(#clipPath1101)" />
    <path
       id="path1102"
       d="m 25575.6,4645.14 c 32.6,-49.7 99.9,-67.17 158.5,-57.09 58.6,10.07 110.6,42.46 160.4,74.96 -39.8,-80.08 -91.5,-154.24 -152.9,-219.29 -5.7,-5.99 -12.5,-12.36 -20.7,-11.89 -6.2,0.37 -11.4,4.56 -16,8.65 -61.9,54.54 -109.5,125.1 -137,202.88 l 7.7,1.78"
       style="fill:#dba871;fill-opacity:1;fill-rule:nonzero;stroke:none"
       transform="matrix(0.03527778,0,0,-0.03527778,-804.71786,318.95589)"
       clip-path="url(#clipPath1103)" />
    <path
       id="path1104"
       d="m 25677.5,4503.24 c 9.5,-12.71 21.8,-26.25 37.6,-26.05 11.5,0.15 21.4,7.56 30.1,14.96 51.3,43.48 118.7,156.65 146.3,217.93 12,26.74 364.6,-110.23 429.7,-186.08 24.5,-28.47 49.5,-57.93 61.3,-93.55 21.1,-63.45 -3.2,-135.63 19.6,-198.48 -201.1,5.75 -311.5,-337.76 -511.9,-354.79 -63.9,-5.43 -98,20.97 -162.1,16.78 -183.9,-12.03 -489.2,320.48 -672.6,337.87 -12.7,97.19 28,196.3 93.5,269.23 65.5,72.94 399.1,220.3 418.3,186.66 0,0 72.9,-134.54 110.2,-184.48"
       style="fill:#915f3a;fill-opacity:1;fill-rule:nonzero;stroke:none"
       transform="matrix(0.03527778,0,0,-0.03527778,-804.71786,318.95589)"
       clip-path="url(#clipPath1105)" />
    <path
       id="path1106"
       d="m 25230.6,4443.42 c -1.4,-69.91 -2.8,-139.81 -4.2,-209.72 -0.2,-10.8 16.6,-10.79 16.8,0 1.4,69.91 2.8,139.81 4.2,209.72 0.2,10.79 -16.6,10.79 -16.8,0"
       style="fill:#5b371e;fill-opacity:1;fill-rule:nonzero;stroke:none"
       transform="matrix(0.03527778,0,0,-0.03527778,-804.71786,318.95589)"
       clip-path="url(#clipPath1107)" />
    <path
       id="path1108"
       d="m 26192.9,4498.8 c -4.5,-59.88 -3.7,-120.03 2.4,-179.77 1,-10.63 17.8,-10.74 16.7,0 -6,59.74 -6.9,119.89 -2.4,179.77 0.8,10.76 -15.9,10.71 -16.7,0"
       style="fill:#5b371e;fill-opacity:1;fill-rule:nonzero;stroke:none"
       transform="matrix(0.03527778,0,0,-0.03527778,-804.71786,318.95589)"
       clip-path="url(#clipPath1109)" />
    <path
       id="path1110"
       d="m 25530.2,4659.35 c 44.2,-78.09 94.8,-152.48 151.1,-222.35 6.9,-8.58 13.8,-17.17 21,-25.55 6.1,-7.16 13.9,-13.06 23.8,-10.93 9.5,2.02 15.9,9.83 21.5,17.05 7,9.05 14.1,18.15 21,27.3 27.6,36.41 54.2,73.62 79.6,111.56 28.7,42.59 55.9,86.12 81.7,130.47 5,8.56 -8.3,16.3 -13.3,7.75 -43.4,-74.48 -90.7,-146.64 -141.8,-216.02 -13,-17.54 -26.1,-34.96 -39.6,-52.09 -2.6,-3.36 -5.4,-7.15 -9,-9.51 -4.3,-2.78 -7.3,-1 -10.5,2.41 -7.1,7.47 -13.4,15.86 -19.9,23.84 -26.6,32.83 -51.9,66.74 -75.9,101.57 -27.3,39.6 -52.7,80.41 -76.4,122.25 -4.9,8.61 -18.2,0.87 -13.3,-7.75"
       style="fill:#5b371e;fill-opacity:1;fill-rule:nonzero;stroke:none"
       transform="matrix(0.03527778,0,0,-0.03527778,-804.71786,318.95589)"
       clip-path="url(#clipPath1111)" />
    <path
       id="path1112"
       d="m 26035.5,4377.78 c 0.4,-13.32 3.7,-26.23 9.6,-38.15 1.8,-3.61 7.2,-4.9 10.5,-2.76 3.7,2.38 4.7,6.66 2.8,10.52 -0.6,1.24 -1.5,2.6 -1.8,3.96 0.4,-1.75 -0.2,0.37 -0.3,0.76 l -0.8,2.04 c -1,2.64 -1.8,5.34 -2.5,8.06 -0.7,2.68 -1.4,5.52 -1.6,8.28 0.1,-1.9 0,0 -0.1,0.44 l -0.2,2.48 c -0.1,1.46 -0.2,2.91 -0.2,4.37 -0.2,4.01 -3.5,7.87 -7.7,7.68 -4.1,-0.18 -7.8,-3.38 -7.7,-7.68"
       style="fill:#5b371e;fill-opacity:1;fill-rule:nonzero;stroke:none"
       transform="matrix(0.03527778,0,0,-0.03527778,-804.71786,318.95589)"
       clip-path="url(#clipPath1113)" />
    <path
       id="path1114"
       d="m 26077.9,4383.43 c 1.7,-15.24 3.4,-30.49 5.1,-45.73 0.4,-3.98 3.2,-7.89 7.7,-7.69 3.8,0.17 8.1,3.41 7.7,7.69 -1.7,15.24 -3.5,30.49 -5.2,45.73 -0.4,3.98 -3.2,7.89 -7.7,7.69 -3.7,-0.17 -8.1,-3.41 -7.6,-7.69"
       style="fill:#5b371e;fill-opacity:1;fill-rule:nonzero;stroke:none"
       transform="matrix(0.03527778,0,0,-0.03527778,-804.71786,318.95589)"
       clip-path="url(#clipPath1115)" />
    <path
       id="path1116"
       d="m 26090.2,4469.97 c 0.9,-2.37 1.8,-4.82 2.3,-7.33 l 0.4,-2.16 0.2,-1.09 -0.1,0.95 0.2,-2.2 0.1,-1.92 c 0,-1.29 -0.1,-2.57 -0.1,-3.86 l -0.2,-1.92 c -0.2,-1.61 0.3,1.63 -0.1,-0.41 -0.4,-2.63 -1.2,-5.19 -2.1,-7.69 -1.4,-3.77 1.6,-8.59 5.4,-9.45 4.3,-0.99 7.9,1.32 9.4,5.36 4.2,11.33 4.1,24.65 -0.6,35.8 -0.8,1.94 -1.7,3.49 -3.6,4.6 -1.6,0.96 -4,1.37 -5.9,0.77 -1.8,-0.6 -3.6,-1.75 -4.6,-3.53 -0.9,-1.69 -1.5,-4.07 -0.7,-5.92"
       style="fill:#5b371e;fill-opacity:1;fill-rule:nonzero;stroke:none"
       transform="matrix(0.03527778,0,0,-0.03527778,-804.71786,318.95589)"
       clip-path="url(#clipPath1117)" />
    <path
       id="path1118"
       d="m 26035,4491.91 c 0.9,-9.52 1.8,-19.04 2.7,-28.56 0.2,-2.08 0.7,-3.91 2.3,-5.44 1.3,-1.33 3.5,-2.33 5.4,-2.25 3.8,0.18 8.1,3.4 7.7,7.69 -0.9,9.52 -1.8,19.04 -2.7,28.56 -0.2,2.08 -0.7,3.91 -2.3,5.43 -1.3,1.33 -3.5,2.34 -5.4,2.25 -3.8,-0.17 -8.1,-3.4 -7.7,-7.68"
       style="fill:#5b371e;fill-opacity:1;fill-rule:nonzero;stroke:none"
       transform="matrix(0.03527778,0,0,-0.03527778,-804.71786,318.95589)"
       clip-path="url(#clipPath1119)" />
    <path
       id="path1120"
       d="m 25329.5,4460.67 c -1.3,-13.08 -0.6,-26.24 1.9,-39.14 0.8,-3.96 5.7,-6.58 9.4,-5.37 4.3,1.36 6.2,5.21 5.4,9.45 -0.3,1.53 -0.6,3.06 -0.8,4.59 0,0.32 -0.4,2.81 -0.2,1.15 l -0.2,2.13 c -0.4,2.97 -0.6,5.95 -0.7,8.94 -0.3,6.09 0,12.19 0.6,18.25 0.4,4.01 -3.8,7.85 -7.7,7.68 -4.5,-0.2 -7.2,-3.39 -7.7,-7.68"
       style="fill:#5b371e;fill-opacity:1;fill-rule:nonzero;stroke:none"
       transform="matrix(0.03527778,0,0,-0.03527778,-804.71786,318.95589)"
       clip-path="url(#clipPath1121)" />
    <path
       id="path1122"
       d="m 25379.1,4457.7 c -1.3,-16.06 0.7,-32.47 5.9,-47.73 1.2,-3.8 5.3,-6.7 9.4,-5.37 3.8,1.22 6.8,5.38 5.4,9.45 -1.3,3.73 -2.4,7.51 -3.2,11.35 -0.4,1.65 -0.8,3.3 -1,4.96 -0.2,1.1 -0.4,2.21 -0.6,3.32 -0.2,1.49 0,-0.32 -0.2,1.3 -0.8,7.56 -1,15.14 -0.3,22.72 0.3,4.02 -3.8,7.86 -7.7,7.68 -4.5,-0.2 -7.3,-3.38 -7.7,-7.68"
       style="fill:#5b371e;fill-opacity:1;fill-rule:nonzero;stroke:none"
       transform="matrix(0.03527778,0,0,-0.03527778,-804.71786,318.95589)"
       clip-path="url(#clipPath1123)" />
    <path
       id="path1124"
       d="m 25364.7,4329.26 c -0.5,-13.24 1.5,-26.69 6.2,-39.11 1.4,-3.75 5.2,-6.72 9.4,-5.37 3.7,1.19 6.9,5.42 5.4,9.46 -2.2,5.79 -3.8,11.78 -4.8,17.89 l -0.3,2.04 c 0.3,-1.77 -0.1,0.68 -0.1,1.02 -0.1,1.48 -0.3,2.97 -0.4,4.45 -0.1,3.21 -0.1,6.41 0,9.62 0.2,4.02 -3.7,7.86 -7.7,7.68 -4.3,-0.19 -7.5,-3.37 -7.7,-7.68"
       style="fill:#5b371e;fill-opacity:1;fill-rule:nonzero;stroke:none"
       transform="matrix(0.03527778,0,0,-0.03527778,-804.71786,318.95589)"
       clip-path="url(#clipPath1125)" />
    <path
       id="path1126"
       d="m 26125.2,4612.67 c 18.3,18.83 36.6,37.66 54.8,56.49 6.9,7.1 -3.9,17.98 -10.8,10.87 -18.3,-18.84 -36.6,-37.67 -54.9,-56.5 -6.9,-7.1 4,-17.98 10.9,-10.86"
       style="fill:#915f3a;fill-opacity:1;fill-rule:nonzero;stroke:none"
       transform="matrix(0.03527778,0,0,-0.03527778,-804.71786,318.95589)"
       clip-path="url(#clipPath1127)" />
    <path
       id="path1128"
       d="m 26173.2,4595.79 c 19.3,11.77 37.7,25.06 54.9,39.61 3.2,2.68 2.8,8.11 0,10.87 -3.1,3.15 -7.7,2.68 -10.8,0 -16.3,-13.72 -33.6,-26.12 -51.8,-37.22 -3.5,-2.16 -4.9,-6.88 -2.8,-10.51 2.1,-3.54 7,-4.93 10.5,-2.75"
       style="fill:#915f3a;fill-opacity:1;fill-rule:nonzero;stroke:none"
       transform="matrix(0.03527778,0,0,-0.03527778,-804.71786,318.95589)"
       clip-path="url(#clipPath1129)" />
    <path
       id="path1130"
       d="m 25354.2,4664.92 c 2.1,-1.36 4.1,-2.77 6.2,-4.23 1,-0.73 2,-1.47 3,-2.23 l 1.2,-0.91 c -1,0.81 0.9,-0.64 0.9,-0.65 3.8,-3.04 7.5,-6.26 11.1,-9.63 3.5,-3.38 6.9,-6.91 10.2,-10.59 1.6,-1.89 3.2,-3.81 4.8,-5.77 l 1,-1.18 c 1.4,-1.89 -0.5,0.57 0.4,-0.53 0.8,-1.11 1.6,-2.22 2.4,-3.34 2.4,-3.24 6.8,-5.15 10.5,-2.75 3.3,2.07 5.3,7.03 2.8,10.51 -12.8,17.63 -28.5,32.71 -46.8,44.57 -3.4,2.19 -8.6,0.8 -10.5,-2.75 -2,-3.83 -0.8,-8.18 2.8,-10.52"
       style="fill:#915f3a;fill-opacity:1;fill-rule:nonzero;stroke:none"
       transform="matrix(0.03527778,0,0,-0.03527778,-804.71786,318.95589)"
       clip-path="url(#clipPath1131)" />
    <path
       id="path1132"
       d="m 25338.2,4649.61 c 9,-14.62 20.5,-27.15 34.1,-37.56 1.5,-1.13 4.2,-1.24 5.9,-0.78 1.8,0.49 3.7,1.87 4.6,3.53 1,1.79 1.4,3.95 0.8,5.92 -0.7,2.04 -1.9,3.31 -3.5,4.6 l -0.1,0.08 -1.2,0.93 -2.1,1.71 c -1.4,1.22 -2.8,2.47 -4.2,3.75 -2.9,2.63 -5.6,5.39 -8.2,8.27 -1.2,1.4 -2.5,2.84 -3.7,4.29 l -1.7,2.09 v 0.1 l -0.9,1.19 c -2.3,3.11 -4.5,6.33 -6.5,9.64 -2.1,3.42 -7,5.03 -10.5,2.75 -3.5,-2.22 -5,-6.84 -2.8,-10.51"
       style="fill:#915f3a;fill-opacity:1;fill-rule:nonzero;stroke:none"
       transform="matrix(0.03527778,0,0,-0.03527778,-804.71786,318.95589)"
       clip-path="url(#clipPath1133)" />
    <path
       id="path1134"
       d="m 25098.5,4507.71 c 22.8,-1.19 45.6,-2.38 68.4,-3.57 4.2,-0.22 7.7,3.69 7.7,7.68 0,4.34 -3.5,7.47 -7.7,7.69 -22.8,1.19 -45.6,2.38 -68.4,3.57 -4.2,0.21 -7.7,-3.69 -7.7,-7.69 0,-4.34 3.5,-7.46 7.7,-7.68"
       style="fill:#915f3a;fill-opacity:1;fill-rule:nonzero;stroke:none"
       transform="matrix(0.03527778,0,0,-0.03527778,-804.71786,318.95589)"
       clip-path="url(#clipPath1135)" />
    <path
       id="path1136"
       d="m 25106.2,4470.29 c 20.9,4.94 41.8,9.88 62.6,14.82 4.1,0.96 6.5,5.56 5.4,9.45 -1.1,4.14 -5.4,6.33 -9.4,5.37 -20.9,-4.94 -41.8,-9.88 -62.7,-14.82 -4,-0.95 -6.4,-5.55 -5.4,-9.45 1.2,-4.13 5.4,-6.32 9.5,-5.37"
       style="fill:#915f3a;fill-opacity:1;fill-rule:nonzero;stroke:none"
       transform="matrix(0.03527778,0,0,-0.03527778,-804.71786,318.95589)"
       clip-path="url(#clipPath1137)" />
    <path
       id="path1138"
       d="m 25668.7,4895.5 c 41.3,23.82 98.1,16.54 132.1,-16.92 43.3,29.72 79,70.63 102.4,117.66 12.2,24.43 22.2,51.76 44.2,67.91 22.3,-130.47 -196.4,-370.13 -222.6,-362.92 -8.1,2.21 -151.3,156.76 -167.3,187.63 -30.8,59.07 -50.3,123.98 -57.2,190.22 28.2,-31.25 44.2,-71.34 66.5,-107.01 22.4,-35.68 55.3,-69.3 97.2,-73.51 l 4.7,-3.06"
       style="fill:#7c7a79;fill-opacity:1;fill-rule:nonzero;stroke:none"
       transform="matrix(0.03527778,0,0,-0.03527778,-804.71786,318.95589)"
       clip-path="url(#clipPath1139)" />
  </g>
</svg>
