<?xml version="1.0" encoding="UTF-8" standalone="no"?>
<!-- Created with Inkscape (http://www.inkscape.org/) -->

<svg
   width="64.332558mm"
   height="64.332207mm"
   viewBox="0 0 64.332558 64.332207"
   version="1.1"
   id="svg1"
   inkscape:version="1.3.2 (091e20e, 2023-11-25)"
   sodipodi:docname="emerald-jacket-girl.svg"
   xmlns:inkscape="http://www.inkscape.org/namespaces/inkscape"
   xmlns:sodipodi="http://sodipodi.sourceforge.net/DTD/sodipodi-0.dtd"
   xmlns="http://www.w3.org/2000/svg"
   xmlns:svg="http://www.w3.org/2000/svg">
  <sodipodi:namedview
     id="namedview1"
     pagecolor="#ffffff"
     bordercolor="#000000"
     borderopacity="0.25"
     inkscape:showpageshadow="2"
     inkscape:pageopacity="0.0"
     inkscape:pagecheckerboard="0"
     inkscape:deskcolor="#d1d1d1"
     inkscape:document-units="mm"
     inkscape:zoom="1.6292349"
     inkscape:cx="111.40198"
     inkscape:cy="229.24871"
     inkscape:window-width="1920"
     inkscape:window-height="1052"
     inkscape:window-x="0"
     inkscape:window-y="28"
     inkscape:window-maximized="0"
     inkscape:current-layer="layer1" />
  <defs
     id="defs1">
    <clipPath
       clipPathUnits="userSpaceOnUse"
       id="clipPath1501">
      <path
         d="m 26644.5,2934.46 c 0,-503.56 -408.2,-911.79 -911.8,-911.79 -503.6,0 -911.8,408.23 -911.8,911.79 0,503.58 408.2,911.8 911.8,911.8 503.6,0 911.8,-408.22 911.8,-911.8"
         transform="translate(0,-2.5e-4)"
         id="path1501" />
    </clipPath>
    <clipPath
       clipPathUnits="userSpaceOnUse"
       id="clipPath1503">
      <path
         d="m 26644.5,2934.46 c 0,-503.56 -408.2,-911.79 -911.8,-911.79 -503.6,0 -911.8,408.23 -911.8,911.79 0,503.58 408.2,911.8 911.8,911.8 503.6,0 911.8,-408.22 911.8,-911.8"
         transform="translate(0,-2.5e-4)"
         id="path1503" />
    </clipPath>
    <clipPath
       clipPathUnits="userSpaceOnUse"
       id="clipPath1505">
      <path
         d="m 26644.5,2934.46 c 0,-503.56 -408.2,-911.79 -911.8,-911.79 -503.6,0 -911.8,408.23 -911.8,911.79 0,503.58 408.2,911.8 911.8,911.8 503.6,0 911.8,-408.22 911.8,-911.8"
         transform="translate(0,-2.5e-4)"
         id="path1505" />
    </clipPath>
    <clipPath
       clipPathUnits="userSpaceOnUse"
       id="clipPath1506">
      <path
         d="m 26192.6,2340.03 c -85.1,56.98 -187.9,79.81 -288.3,99.98 -6.2,1.23 -12.5,2.56 -17.5,6.4 -8.4,6.59 10.7,228.35 0,325.31 l -143.3,-13.42 -143.3,13.42 c -10.7,-96.96 8.4,-318.72 0,-325.31 -4.9,-3.84 -11.3,-5.17 -17.4,-6.4 -100.4,-20.17 -203.2,-43 -288.3,-99.98 -85.1,-56.98 -149.6,-156.36 -135.9,-257.85 85.4,0.43 323.9,-1.12 565.5,-4.29 v -0.52 c 6.5,0.08 13,0.17 19.4,0.26 6.5,-0.09 13,-0.18 19.4,-0.26 v 0.52 c 241.6,3.17 480.1,4.72 565.6,4.29 13.6,101.49 -50.8,200.87 -135.9,257.85"
         transform="translate(0,-2.5e-4)"
         id="path1506" />
    </clipPath>
    <clipPath
       clipPathUnits="userSpaceOnUse"
       id="clipPath1509">
      <path
         d="m 26644.5,2934.46 c 0,-503.56 -408.2,-911.79 -911.8,-911.79 -503.6,0 -911.8,408.23 -911.8,911.79 0,503.58 408.2,911.8 911.8,911.8 503.6,0 911.8,-408.22 911.8,-911.8"
         transform="translate(0,-2.5e-4)"
         id="path1509" />
    </clipPath>
    <clipPath
       clipPathUnits="userSpaceOnUse"
       id="clipPath1511">
      <path
         d="m 26644.5,2934.46 c 0,-503.56 -408.2,-911.79 -911.8,-911.79 -503.6,0 -911.8,408.23 -911.8,911.79 0,503.58 408.2,911.8 911.8,911.8 503.6,0 911.8,-408.22 911.8,-911.8"
         transform="translate(0,-2.5e-4)"
         id="path1511" />
    </clipPath>
    <clipPath
       clipPathUnits="userSpaceOnUse"
       id="clipPath1513">
      <path
         d="m 26644.5,2934.46 c 0,-503.56 -408.2,-911.79 -911.8,-911.79 -503.6,0 -911.8,408.23 -911.8,911.79 0,503.58 408.2,911.8 911.8,911.8 503.6,0 911.8,-408.22 911.8,-911.8"
         transform="translate(0,-2.5e-4)"
         id="path1513" />
    </clipPath>
    <clipPath
       clipPathUnits="userSpaceOnUse"
       id="clipPath1515">
      <path
         d="m 26644.5,2934.46 c 0,-503.56 -408.2,-911.79 -911.8,-911.79 -503.6,0 -911.8,408.23 -911.8,911.79 0,503.58 408.2,911.8 911.8,911.8 503.6,0 911.8,-408.22 911.8,-911.8"
         transform="translate(0,-2.5e-4)"
         id="path1515" />
    </clipPath>
    <clipPath
       clipPathUnits="userSpaceOnUse"
       id="clipPath1517">
      <path
         d="m 26644.5,2934.46 c 0,-503.56 -408.2,-911.79 -911.8,-911.79 -503.6,0 -911.8,408.23 -911.8,911.79 0,503.58 408.2,911.8 911.8,911.8 503.6,0 911.8,-408.22 911.8,-911.8"
         transform="translate(0,-2.5e-4)"
         id="path1517" />
    </clipPath>
    <clipPath
       clipPathUnits="userSpaceOnUse"
       id="clipPath1519">
      <path
         d="m 26644.5,2934.46 c 0,-503.56 -408.2,-911.79 -911.8,-911.79 -503.6,0 -911.8,408.23 -911.8,911.79 0,503.58 408.2,911.8 911.8,911.8 503.6,0 911.8,-408.22 911.8,-911.8"
         transform="translate(0,-2.5e-4)"
         id="path1519" />
    </clipPath>
    <clipPath
       clipPathUnits="userSpaceOnUse"
       id="clipPath1521">
      <path
         d="m 26644.5,2934.46 c 0,-503.56 -408.2,-911.79 -911.8,-911.79 -503.6,0 -911.8,408.23 -911.8,911.79 0,503.58 408.2,911.8 911.8,911.8 503.6,0 911.8,-408.22 911.8,-911.8"
         transform="translate(0,-2.5e-4)"
         id="path1521" />
    </clipPath>
    <clipPath
       clipPathUnits="userSpaceOnUse"
       id="clipPath1523">
      <path
         d="m 26644.5,2934.46 c 0,-503.56 -408.2,-911.79 -911.8,-911.79 -503.6,0 -911.8,408.23 -911.8,911.79 0,503.58 408.2,911.8 911.8,911.8 503.6,0 911.8,-408.22 911.8,-911.8"
         transform="translate(0,-2.5e-4)"
         id="path1523" />
    </clipPath>
    <clipPath
       clipPathUnits="userSpaceOnUse"
       id="clipPath1525">
      <path
         d="m 26644.5,2934.46 c 0,-503.56 -408.2,-911.79 -911.8,-911.79 -503.6,0 -911.8,408.23 -911.8,911.79 0,503.58 408.2,911.8 911.8,911.8 503.6,0 911.8,-408.22 911.8,-911.8"
         transform="translate(0,-2.5e-4)"
         id="path1525" />
    </clipPath>
    <clipPath
       clipPathUnits="userSpaceOnUse"
       id="clipPath1527">
      <path
         d="m 26644.5,2934.46 c 0,-503.56 -408.2,-911.79 -911.8,-911.79 -503.6,0 -911.8,408.23 -911.8,911.79 0,503.58 408.2,911.8 911.8,911.8 503.6,0 911.8,-408.22 911.8,-911.8"
         transform="translate(0,-2.5e-4)"
         id="path1527" />
    </clipPath>
    <clipPath
       clipPathUnits="userSpaceOnUse"
       id="clipPath1529">
      <path
         d="m 26644.5,2934.46 c 0,-503.56 -408.2,-911.79 -911.8,-911.79 -503.6,0 -911.8,408.23 -911.8,911.79 0,503.58 408.2,911.8 911.8,911.8 503.6,0 911.8,-408.22 911.8,-911.8"
         transform="translate(0,-2.5e-4)"
         id="path1529" />
    </clipPath>
    <clipPath
       clipPathUnits="userSpaceOnUse"
       id="clipPath1531">
      <path
         d="m 26644.5,2934.46 c 0,-503.56 -408.2,-911.79 -911.8,-911.79 -503.6,0 -911.8,408.23 -911.8,911.79 0,503.58 408.2,911.8 911.8,911.8 503.6,0 911.8,-408.22 911.8,-911.8"
         transform="translate(0,-2.5e-4)"
         id="path1531" />
    </clipPath>
    <clipPath
       clipPathUnits="userSpaceOnUse"
       id="clipPath1533">
      <path
         d="m 26644.5,2934.46 c 0,-503.56 -408.2,-911.79 -911.8,-911.79 -503.6,0 -911.8,408.23 -911.8,911.79 0,503.58 408.2,911.8 911.8,911.8 503.6,0 911.8,-408.22 911.8,-911.8"
         transform="translate(0,-2.5e-4)"
         id="path1533" />
    </clipPath>
    <clipPath
       clipPathUnits="userSpaceOnUse"
       id="clipPath1535">
      <path
         d="m 26644.5,2934.46 c 0,-503.56 -408.2,-911.79 -911.8,-911.79 -503.6,0 -911.8,408.23 -911.8,911.79 0,503.58 408.2,911.8 911.8,911.8 503.6,0 911.8,-408.22 911.8,-911.8"
         transform="translate(0,-2.5e-4)"
         id="path1535" />
    </clipPath>
    <clipPath
       clipPathUnits="userSpaceOnUse"
       id="clipPath1537">
      <path
         d="m 26644.5,2934.46 c 0,-503.56 -408.2,-911.79 -911.8,-911.79 -503.6,0 -911.8,408.23 -911.8,911.79 0,503.58 408.2,911.8 911.8,911.8 503.6,0 911.8,-408.22 911.8,-911.8"
         transform="translate(0,-2.5e-4)"
         id="path1537" />
    </clipPath>
    <clipPath
       clipPathUnits="userSpaceOnUse"
       id="clipPath1539">
      <path
         d="m 26644.5,2934.46 c 0,-503.56 -408.2,-911.79 -911.8,-911.79 -503.6,0 -911.8,408.23 -911.8,911.79 0,503.58 408.2,911.8 911.8,911.8 503.6,0 911.8,-408.22 911.8,-911.8"
         transform="translate(0,-2.5e-4)"
         id="path1539" />
    </clipPath>
    <clipPath
       clipPathUnits="userSpaceOnUse"
       id="clipPath1541">
      <path
         d="m 26644.5,2934.46 c 0,-503.56 -408.2,-911.79 -911.8,-911.79 -503.6,0 -911.8,408.23 -911.8,911.79 0,503.58 408.2,911.8 911.8,911.8 503.6,0 911.8,-408.22 911.8,-911.8"
         transform="translate(0,-2.5e-4)"
         id="path1541" />
    </clipPath>
    <clipPath
       clipPathUnits="userSpaceOnUse"
       id="clipPath1543">
      <path
         d="m 26644.5,2934.46 c 0,-503.56 -408.2,-911.79 -911.8,-911.79 -503.6,0 -911.8,408.23 -911.8,911.79 0,503.58 408.2,911.8 911.8,911.8 503.6,0 911.8,-408.22 911.8,-911.8"
         transform="translate(0,-2.5e-4)"
         id="path1543" />
    </clipPath>
    <clipPath
       clipPathUnits="userSpaceOnUse"
       id="clipPath1545">
      <path
         d="m 26644.5,2934.46 c 0,-503.56 -408.2,-911.79 -911.8,-911.79 -503.6,0 -911.8,408.23 -911.8,911.79 0,503.58 408.2,911.8 911.8,911.8 503.6,0 911.8,-408.22 911.8,-911.8"
         transform="translate(0,-2.5e-4)"
         id="path1545" />
    </clipPath>
    <clipPath
       clipPathUnits="userSpaceOnUse"
       id="clipPath1547">
      <path
         d="m 26644.5,2934.46 c 0,-503.56 -408.2,-911.79 -911.8,-911.79 -503.6,0 -911.8,408.23 -911.8,911.79 0,503.58 408.2,911.8 911.8,911.8 503.6,0 911.8,-408.22 911.8,-911.8"
         transform="translate(0,-2.5e-4)"
         id="path1547" />
    </clipPath>
    <clipPath
       clipPathUnits="userSpaceOnUse"
       id="clipPath1549">
      <path
         d="m 26644.5,2934.46 c 0,-503.56 -408.2,-911.79 -911.8,-911.79 -503.6,0 -911.8,408.23 -911.8,911.79 0,503.58 408.2,911.8 911.8,911.8 503.6,0 911.8,-408.22 911.8,-911.8"
         transform="translate(0,-2.5e-4)"
         id="path1549" />
    </clipPath>
    <clipPath
       clipPathUnits="userSpaceOnUse"
       id="clipPath1551">
      <path
         d="m 26644.5,2934.46 c 0,-503.56 -408.2,-911.79 -911.8,-911.79 -503.6,0 -911.8,408.23 -911.8,911.79 0,503.58 408.2,911.8 911.8,911.8 503.6,0 911.8,-408.22 911.8,-911.8"
         transform="translate(0,-2.5e-4)"
         id="path1551" />
    </clipPath>
    <clipPath
       clipPathUnits="userSpaceOnUse"
       id="clipPath1553">
      <path
         d="m 26644.5,2934.46 c 0,-503.56 -408.2,-911.79 -911.8,-911.79 -503.6,0 -911.8,408.23 -911.8,911.79 0,503.58 408.2,911.8 911.8,911.8 503.6,0 911.8,-408.22 911.8,-911.8"
         transform="translate(0,-2.5e-4)"
         id="path1553" />
    </clipPath>
    <clipPath
       clipPathUnits="userSpaceOnUse"
       id="clipPath1555">
      <path
         d="m 26644.5,2934.46 c 0,-503.56 -408.2,-911.79 -911.8,-911.79 -503.6,0 -911.8,408.23 -911.8,911.79 0,503.58 408.2,911.8 911.8,911.8 503.6,0 911.8,-408.22 911.8,-911.8"
         transform="translate(0,-2.5e-4)"
         id="path1555" />
    </clipPath>
    <clipPath
       clipPathUnits="userSpaceOnUse"
       id="clipPath1557">
      <path
         d="m 26644.5,2934.46 c 0,-503.56 -408.2,-911.79 -911.8,-911.79 -503.6,0 -911.8,408.23 -911.8,911.79 0,503.58 408.2,911.8 911.8,911.8 503.6,0 911.8,-408.22 911.8,-911.8"
         transform="translate(0,-2.5e-4)"
         id="path1557" />
    </clipPath>
    <clipPath
       clipPathUnits="userSpaceOnUse"
       id="clipPath1559">
      <path
         d="m 26644.5,2934.46 c 0,-503.56 -408.2,-911.79 -911.8,-911.79 -503.6,0 -911.8,408.23 -911.8,911.79 0,503.58 408.2,911.8 911.8,911.8 503.6,0 911.8,-408.22 911.8,-911.8"
         transform="translate(0,-2.5e-4)"
         id="path1559" />
    </clipPath>
    <clipPath
       clipPathUnits="userSpaceOnUse"
       id="clipPath1561">
      <path
         d="m 26644.5,2934.46 c 0,-503.56 -408.2,-911.79 -911.8,-911.79 -503.6,0 -911.8,408.23 -911.8,911.79 0,503.58 408.2,911.8 911.8,911.8 503.6,0 911.8,-408.22 911.8,-911.8"
         transform="translate(0,-2.5e-4)"
         id="path1561" />
    </clipPath>
    <clipPath
       clipPathUnits="userSpaceOnUse"
       id="clipPath1563">
      <path
         d="m 26644.5,2934.46 c 0,-503.56 -408.2,-911.79 -911.8,-911.79 -503.6,0 -911.8,408.23 -911.8,911.79 0,503.58 408.2,911.8 911.8,911.8 503.6,0 911.8,-408.22 911.8,-911.8"
         transform="translate(0,-2.5e-4)"
         id="path1563" />
    </clipPath>
    <clipPath
       clipPathUnits="userSpaceOnUse"
       id="clipPath1565">
      <path
         d="m 26644.5,2934.46 c 0,-503.56 -408.2,-911.79 -911.8,-911.79 -503.6,0 -911.8,408.23 -911.8,911.79 0,503.58 408.2,911.8 911.8,911.8 503.6,0 911.8,-408.22 911.8,-911.8"
         transform="translate(0,-2.5e-4)"
         id="path1565" />
    </clipPath>
    <clipPath
       clipPathUnits="userSpaceOnUse"
       id="clipPath1567">
      <path
         d="m 26644.5,2934.46 c 0,-503.56 -408.2,-911.79 -911.8,-911.79 -503.6,0 -911.8,408.23 -911.8,911.79 0,503.58 408.2,911.8 911.8,911.8 503.6,0 911.8,-408.22 911.8,-911.8"
         transform="translate(0,-2.5e-4)"
         id="path1567" />
    </clipPath>
    <clipPath
       clipPathUnits="userSpaceOnUse"
       id="clipPath1569">
      <path
         d="m 26644.5,2934.46 c 0,-503.56 -408.2,-911.79 -911.8,-911.79 -503.6,0 -911.8,408.23 -911.8,911.79 0,503.58 408.2,911.8 911.8,911.8 503.6,0 911.8,-408.22 911.8,-911.8"
         transform="translate(0,-2.5e-4)"
         id="path1569" />
    </clipPath>
    <clipPath
       clipPathUnits="userSpaceOnUse"
       id="clipPath1571">
      <path
         d="m 26644.5,2934.46 c 0,-503.56 -408.2,-911.79 -911.8,-911.79 -503.6,0 -911.8,408.23 -911.8,911.79 0,503.58 408.2,911.8 911.8,911.8 503.6,0 911.8,-408.22 911.8,-911.8"
         transform="translate(0,-2.5e-4)"
         id="path1571" />
    </clipPath>
    <clipPath
       clipPathUnits="userSpaceOnUse"
       id="clipPath1573">
      <path
         d="m 26644.5,2934.46 c 0,-503.56 -408.2,-911.79 -911.8,-911.79 -503.6,0 -911.8,408.23 -911.8,911.79 0,503.58 408.2,911.8 911.8,911.8 503.6,0 911.8,-408.22 911.8,-911.8"
         transform="translate(0,-2.5e-4)"
         id="path1573" />
    </clipPath>
    <clipPath
       clipPathUnits="userSpaceOnUse"
       id="clipPath1575">
      <path
         d="m 26644.5,2934.46 c 0,-503.56 -408.2,-911.79 -911.8,-911.79 -503.6,0 -911.8,408.23 -911.8,911.79 0,503.58 408.2,911.8 911.8,911.8 503.6,0 911.8,-408.22 911.8,-911.8"
         transform="translate(0,-2.5e-4)"
         id="path1575" />
    </clipPath>
    <clipPath
       clipPathUnits="userSpaceOnUse"
       id="clipPath1577">
      <path
         d="m 26644.5,2934.46 c 0,-503.56 -408.2,-911.79 -911.8,-911.79 -503.6,0 -911.8,408.23 -911.8,911.79 0,503.58 408.2,911.8 911.8,911.8 503.6,0 911.8,-408.22 911.8,-911.8"
         transform="translate(0,-2.5e-4)"
         id="path1577" />
    </clipPath>
    <clipPath
       clipPathUnits="userSpaceOnUse"
       id="clipPath1579">
      <path
         d="m 26644.5,2934.46 c 0,-503.56 -408.2,-911.79 -911.8,-911.79 -503.6,0 -911.8,408.23 -911.8,911.79 0,503.58 408.2,911.8 911.8,911.8 503.6,0 911.8,-408.22 911.8,-911.8"
         transform="translate(0,-2.5e-4)"
         id="path1579" />
    </clipPath>
    <clipPath
       clipPathUnits="userSpaceOnUse"
       id="clipPath1581">
      <path
         d="m 26644.5,2934.46 c 0,-503.56 -408.2,-911.79 -911.8,-911.79 -503.6,0 -911.8,408.23 -911.8,911.79 0,503.58 408.2,911.8 911.8,911.8 503.6,0 911.8,-408.22 911.8,-911.8"
         transform="translate(0,-2.5e-4)"
         id="path1581" />
    </clipPath>
    <clipPath
       clipPathUnits="userSpaceOnUse"
       id="clipPath1583">
      <path
         d="m 26644.5,2934.46 c 0,-503.56 -408.2,-911.79 -911.8,-911.79 -503.6,0 -911.8,408.23 -911.8,911.79 0,503.58 408.2,911.8 911.8,911.8 503.6,0 911.8,-408.22 911.8,-911.8"
         transform="translate(0,-2.5e-4)"
         id="path1583" />
    </clipPath>
    <clipPath
       clipPathUnits="userSpaceOnUse"
       id="clipPath1585">
      <path
         d="m 26644.5,2934.46 c 0,-503.56 -408.2,-911.79 -911.8,-911.79 -503.6,0 -911.8,408.23 -911.8,911.79 0,503.58 408.2,911.8 911.8,911.8 503.6,0 911.8,-408.22 911.8,-911.8"
         transform="translate(0,-2.5e-4)"
         id="path1585" />
    </clipPath>
    <clipPath
       clipPathUnits="userSpaceOnUse"
       id="clipPath1587">
      <path
         d="m 26644.5,2934.46 c 0,-503.56 -408.2,-911.79 -911.8,-911.79 -503.6,0 -911.8,408.23 -911.8,911.79 0,503.58 408.2,911.8 911.8,911.8 503.6,0 911.8,-408.22 911.8,-911.8"
         transform="translate(0,-2.5e-4)"
         id="path1587" />
    </clipPath>
    <clipPath
       clipPathUnits="userSpaceOnUse"
       id="clipPath1589">
      <path
         d="m 26644.5,2934.46 c 0,-503.56 -408.2,-911.79 -911.8,-911.79 -503.6,0 -911.8,408.23 -911.8,911.79 0,503.58 408.2,911.8 911.8,911.8 503.6,0 911.8,-408.22 911.8,-911.8"
         transform="translate(0,-2.5e-4)"
         id="path1589" />
    </clipPath>
    <clipPath
       clipPathUnits="userSpaceOnUse"
       id="clipPath1591">
      <path
         d="m 26644.5,2934.46 c 0,-503.56 -408.2,-911.79 -911.8,-911.79 -503.6,0 -911.8,408.23 -911.8,911.79 0,503.58 408.2,911.8 911.8,911.8 503.6,0 911.8,-408.22 911.8,-911.8"
         transform="translate(0,-2.5e-4)"
         id="path1591" />
    </clipPath>
  </defs>
  <g
     inkscape:label="Layer 1"
     inkscape:groupmode="layer"
     id="layer1"
     transform="translate(-63.50006,-106.36248)">
    <path
       id="path1500"
       d="m 26644.5,2022.67 h -1823.6 v 1823.59 h 1823.6 V 2022.67"
       style="fill:#a59eff;fill-opacity:1;fill-rule:nonzero;stroke:none"
       transform="matrix(0.03527778,0,0,-0.03527778,-812.12619,242.04999)"
       clip-path="url(#clipPath1501)" />
    <path
       id="path1502"
       d="m 25476.2,2852.67 c -77,184.98 -69.3,340.34 -40.2,399.59 38.9,79.48 132.4,114.7 219.2,132.34 80.8,16.44 337.9,-18.54 388.8,-92.61 56.5,-82.21 59.1,-280.03 -23.5,-414.59 -8.7,-14.15 -22.5,-25.19 -37.8,-31.73 -10.3,-4.44 -21.7,-5.88 -32.9,-7.01 -43.3,-4.39 -87.1,-4.86 -130.5,-1.4 l -343.1,15.41"
       style="fill:#a46e4a;fill-opacity:1;fill-rule:nonzero;stroke:none"
       transform="matrix(0.03527778,0,0,-0.03527778,-812.12619,242.04999)"
       clip-path="url(#clipPath1503)" />
    <path
       id="path1504"
       d="m 26192.6,2340.03 c -85.1,56.99 -187.9,79.81 -288.3,99.97 -6.2,1.24 -12.5,2.57 -17.5,6.42 -8.4,6.58 10.7,228.34 0,325.3 l -143.3,-13.42 -143.3,13.42 c -10.7,-96.96 8.4,-318.72 0,-325.3 -4.9,-3.85 -11.3,-5.18 -17.4,-6.42 -100.4,-20.16 -203.2,-42.98 -288.3,-99.97 -85.1,-56.98 -149.6,-156.36 -135.9,-257.86 85.4,0.44 323.9,-1.1 565.5,-4.28 v -0.52 c 6.5,0.09 13,0.17 19.4,0.26 6.5,-0.09 13,-0.17 19.4,-0.26 v 0.52 c 241.6,3.18 480.1,4.72 565.6,4.28 13.6,101.5 -50.8,200.88 -135.9,257.86"
       style="fill:#fbd1b9;fill-opacity:1;fill-rule:nonzero;stroke:none"
       transform="matrix(0.03527778,0,0,-0.03527778,-812.12619,242.04999)"
       clip-path="url(#clipPath1505)" />
    <g
       id="g1507"
       transform="matrix(0.26458333,0,0,0.26458333,-812.12619,-116.46394)">
      <path
         d="m 25409.5,2774.85 c 56.5,36.4 58.9,53.87 61.6,36.4 13.4,-85.82 149,-292.56 272.3,-292.56 159.7,0 252.3,269.43 267.2,337.34 -184.5,-26.37 -371.3,-52.78 -556.3,-30.59 5,-4.79 10.1,-9.59 15.2,-14.38 l -60,-36.21"
         style="fill:#dba78a;fill-opacity:1;fill-rule:nonzero;stroke:none"
         transform="matrix(0.13333333,0,0,-0.13333333,0,1355.0133)"
         clip-path="url(#clipPath1506)"
         id="path1507" />
    </g>
    <path
       id="path1508"
       d="m 25530.9,3245.24 c -33,-111.27 -24.8,-306.25 0,-419.61 l 0.4,-1.83 c 13.5,-60.84 35,-121.61 75.4,-168.97 40.5,-47.36 102.9,-79.38 164.6,-70.98 59.8,8.12 109.9,52.48 139,105.24 29.1,52.76 40.3,113.37 48.5,173.09 14.1,103.98 10.4,380.16 0.4,381 -128.6,10.89 -303.2,37.23 -428.3,5.67 v -3.61"
       style="fill:#fbd1b9;fill-opacity:1;fill-rule:nonzero;stroke:none"
       transform="matrix(0.03527778,0,0,-0.03527778,-812.12619,242.04999)"
       clip-path="url(#clipPath1509)" />
    <path
       id="path1510"
       d="m 25953.6,2905.25 c 3.2,22.9 30.8,37.22 52.9,30.5 22.1,-6.71 36.7,-29.68 38.4,-52.74 1.6,-23.05 -7.7,-45.74 -21,-64.7 -22,-31.62 -60.8,-56.16 -98.1,-46.38 5.9,47.41 14.4,94.5 25.4,140.99 l 2.4,-7.67"
       style="fill:#fbd1b9;fill-opacity:1;fill-rule:nonzero;stroke:none"
       transform="matrix(0.03527778,0,0,-0.03527778,-812.12619,242.04999)"
       clip-path="url(#clipPath1511)" />
    <path
       id="path1512"
       d="m 25534.3,2905.25 c -3.2,22.9 -30.7,37.22 -52.8,30.5 -22.2,-6.71 -36.8,-29.68 -38.4,-52.74 -1.7,-23.05 7.7,-45.74 20.9,-64.7 22.1,-31.62 60.9,-56.16 98.2,-46.38 -6,47.41 -14.5,94.5 -25.5,140.99 l -2.4,-7.67"
       style="fill:#fbd1b9;fill-opacity:1;fill-rule:nonzero;stroke:none"
       transform="matrix(0.03527778,0,0,-0.03527778,-812.12619,242.04999)"
       clip-path="url(#clipPath1513)" />
    <path
       id="path1514"
       d="m 25436.8,3081.56 c 66.2,-2.87 132.4,-5.74 198.6,-8.61 -0.1,30.54 7.1,61.09 21,88.3 2.4,-24.33 4.8,-68.67 20.2,-87.63 0,0 66.8,0 68.2,0.84 -0.5,27.9 7.9,55.88 23.5,79 0.8,2.37 21.7,-79.38 21.4,-84.98 -0.7,-11.97 155.4,-4.4 203.2,-1.81 6.8,45.12 7.7,89.09 3.9,133.56 -2,23.61 -6,48.38 -21,66.78 -20.2,24.91 -54.8,31.83 -86.6,36 -111.5,14.63 -224.8,15.58 -336.5,2.82 -14.8,-1.69 -30.4,-3.99 -41.6,-13.59 -8.5,-7.21 -13.4,-17.65 -17.8,-27.87 -24.2,-55.89 -40.2,-115.27 -47.4,-175.7 l -9.1,-7.11"
       style="fill:#a46e4a;fill-opacity:1;fill-rule:nonzero;stroke:none"
       transform="matrix(0.03527778,0,0,-0.03527778,-812.12619,242.04999)"
       clip-path="url(#clipPath1515)" />
    <path
       id="path1516"
       d="m 25981.7,3312.78 c 2.5,32.21 8,67.41 32.4,88.67 31.6,27.67 83.6,18.44 114.8,-9.77 31.1,-28.22 45.9,-69.97 56.9,-110.56 3.9,-14.71 7.6,-30.02 5.1,-45.05 -5.2,-31.66 -38.2,-53.92 -70.3,-53.39 -32.1,0.53 -61.6,19.88 -81.5,45.07 l -57.4,85.03"
       style="fill:#a46e4a;fill-opacity:1;fill-rule:nonzero;stroke:none"
       transform="matrix(0.03527778,0,0,-0.03527778,-812.12619,242.04999)"
       clip-path="url(#clipPath1517)" />
    <path
       id="path1518"
       d="m 25451.7,3270.7 c -5.4,28.99 -28.1,54.06 -56.4,62.18 -28.4,8.13 -60.9,-1.08 -80.8,-22.84 -34.4,-37.66 -25.4,-97.01 -8.9,-145.27 4.6,-13.43 9.8,-26.98 18.6,-38.09 19.4,-24.35 55.2,-32.71 84.6,-22.56 29.4,10.14 51.7,36.72 60.1,66.67 l -17.2,99.91"
       style="fill:#a46e4a;fill-opacity:1;fill-rule:nonzero;stroke:none"
       transform="matrix(0.03527778,0,0,-0.03527778,-812.12619,242.04999)"
       clip-path="url(#clipPath1519)" />
    <path
       id="path1520"
       d="m 25449.5,3293.97 c -16.8,-65.89 -30.7,-132.47 -41.8,-199.55 -1.6,-9.7 13.2,-13.88 14.8,-4.1 11.1,67.08 25.1,133.66 41.8,199.55 2.5,9.62 -12.4,13.72 -14.8,4.1"
       style="fill:#87c3a9;fill-opacity:1;fill-rule:nonzero;stroke:none"
       transform="matrix(0.03527778,0,0,-0.03527778,-812.12619,242.04999)"
       clip-path="url(#clipPath1521)" />
    <path
       id="path1522"
       d="m 25950.8,3343.98 c 47.9,-51.76 91.3,-107.42 129.9,-166.45 5.4,-8.28 18.7,-0.56 13.3,7.78 -39.3,60.1 -83.5,116.87 -132.3,169.57 -6.7,7.3 -17.6,-3.62 -10.9,-10.9"
       style="fill:#87c3a9;fill-opacity:1;fill-rule:nonzero;stroke:none"
       transform="matrix(0.03527778,0,0,-0.03527778,-812.12619,242.04999)"
       clip-path="url(#clipPath1523)" />
    <path
       id="path1524"
       d="m 25335.2,3291.65 c -4.5,-34.19 -1.2,-69.15 9.2,-102 3,-9.42 17.9,-5.4 14.9,4.1 -10.1,31.69 -13,64.92 -8.7,97.9 0.5,4.13 -3.9,7.7 -7.7,7.7 -4.6,0 -7.2,-3.56 -7.7,-7.7"
       style="fill:#5b371e;fill-opacity:1;fill-rule:nonzero;stroke:none"
       transform="matrix(0.03527778,0,0,-0.03527778,-812.12619,242.04999)"
       clip-path="url(#clipPath1525)" />
    <path
       id="path1526"
       d="m 25375,3273.36 c -6.7,-21.96 -6.1,-46.1 1.9,-67.63 1.5,-3.9 5.2,-6.56 9.5,-5.39 3.7,1.03 6.8,5.57 5.4,9.48 -7.2,19.18 -7.9,39.86 -1.9,59.44 2.9,9.5 -11.9,13.56 -14.9,4.1"
       style="fill:#5b371e;fill-opacity:1;fill-rule:nonzero;stroke:none"
       transform="matrix(0.03527778,0,0,-0.03527778,-812.12619,242.04999)"
       clip-path="url(#clipPath1527)" />
    <path
       id="path1528"
       d="m 26051.7,3368.4 c 23.3,-13.65 38.8,-39.11 39.9,-66.14 0.4,-9.88 15.9,-9.93 15.4,0 -1.3,32.46 -19.4,63 -47.5,79.45 -8.6,5.03 -16.3,-8.29 -7.8,-13.31"
       style="fill:#5b371e;fill-opacity:1;fill-rule:nonzero;stroke:none"
       transform="matrix(0.03527778,0,0,-0.03527778,-812.12619,242.04999)"
       clip-path="url(#clipPath1529)" />
    <path
       id="path1530"
       d="m 26115,3346.66 c 11.7,-29.33 19.9,-60.14 23.8,-91.52 0.5,-4.13 3.2,-7.7 7.7,-7.7 3.8,0 8.2,3.54 7.7,7.7 -4.1,32.84 -12.1,64.89 -24.4,95.62 -1.5,3.86 -5.1,6.58 -9.5,5.38 -3.6,-1 -6.9,-5.59 -5.3,-9.48"
       style="fill:#5b371e;fill-opacity:1;fill-rule:nonzero;stroke:none"
       transform="matrix(0.03527778,0,0,-0.03527778,-812.12619,242.04999)"
       clip-path="url(#clipPath1531)" />
    <path
       id="path1532"
       d="m 25711.3,3373.33 c 5,-22.82 12,-45.14 17,-67.97 0.9,-4.07 5.6,-6.44 9.5,-5.38 4.2,1.15 6.3,5.4 5.4,9.48 -5,22.82 -12,45.15 -17,67.97 -0.9,4.07 -5.6,6.45 -9.5,5.39 -4.2,-1.16 -6.2,-5.41 -5.4,-9.49"
       style="fill:#5b371e;fill-opacity:1;fill-rule:nonzero;stroke:none"
       transform="matrix(0.03527778,0,0,-0.03527778,-812.12619,242.04999)"
       clip-path="url(#clipPath1533)" />
    <path
       id="path1534"
       d="m 25507.6,3134.79 c 30,66.05 87.4,118.57 155.8,142.82 70.8,25.11 149.9,17.26 215.7,-18.57 18.2,-9.92 35.3,-21.82 50.7,-35.69 18,-16.24 32.8,-35.12 47.2,-54.59 5.9,-7.89 19.2,-0.21 13.3,7.78 -13.3,18.08 -26.9,36.03 -43.1,51.66 -14.2,13.67 -30,25.82 -46.7,36.21 -33.5,20.79 -71.5,34.75 -110.6,40.39 -77.8,11.25 -155.7,-11.45 -216.7,-60.79 -33.6,-27.18 -61,-62.08 -78.9,-101.44 -4,-8.97 9.3,-16.81 13.3,-7.78"
       style="fill:#5b371e;fill-opacity:1;fill-rule:nonzero;stroke:none"
       transform="matrix(0.03527778,0,0,-0.03527778,-812.12619,242.04999)"
       clip-path="url(#clipPath1535)" />
    <path
       id="path1536"
       d="m 25587.7,3197.18 c -2.1,-29.71 -4.2,-59.42 -6.3,-89.13 -0.7,-9.9 14.7,-9.86 15.4,0 2.1,29.71 4.2,59.42 6.3,89.13 0.8,9.9 -14.7,9.85 -15.4,0"
       style="fill:#5b371e;fill-opacity:1;fill-rule:nonzero;stroke:none"
       transform="matrix(0.03527778,0,0,-0.03527778,-812.12619,242.04999)"
       clip-path="url(#clipPath1537)" />
    <path
       id="path1538"
       d="m 25826,3191.05 c 12.2,-35.18 18.1,-71.99 17.2,-109.22 -0.2,-9.93 15.2,-9.92 15.5,0 0.8,38.48 -5.2,76.96 -17.8,113.32 -3.2,9.32 -18.1,5.31 -14.9,-4.1"
       style="fill:#5b371e;fill-opacity:1;fill-rule:nonzero;stroke:none"
       transform="matrix(0.03527778,0,0,-0.03527778,-812.12619,242.04999)"
       clip-path="url(#clipPath1539)" />
    <path
       id="path1540"
       d="m 25864.8,3150.05 c 2.1,-24.45 4.3,-48.9 6.5,-73.36 0.3,-4.14 3.2,-7.7 7.7,-7.7 3.9,0 8,3.53 7.7,7.7 -2.2,24.46 -4.3,48.91 -6.5,73.36 -0.4,4.15 -3.3,7.71 -7.7,7.71 -3.9,0 -8.1,-3.54 -7.7,-7.71"
       style="fill:#5b371e;fill-opacity:1;fill-rule:nonzero;stroke:none"
       transform="matrix(0.03527778,0,0,-0.03527778,-812.12619,242.04999)"
       clip-path="url(#clipPath1541)" />
    <path
       id="path1542"
       d="m 25921.4,3136.73 c -5.6,-18.51 -6.6,-37.85 -3.6,-56.9 0.6,-4.11 5.8,-6.39 9.5,-5.38 4.3,1.21 6,5.35 5.3,9.48 -2.5,16.11 -1.1,32.95 3.6,48.7 1.2,3.98 -1.4,8.39 -5.3,9.48 -4.1,1.13 -8.3,-1.39 -9.5,-5.38"
       style="fill:#5b371e;fill-opacity:1;fill-rule:nonzero;stroke:none"
       transform="matrix(0.03527778,0,0,-0.03527778,-812.12619,242.04999)"
       clip-path="url(#clipPath1543)" />
    <path
       id="path1544"
       d="m 25685.1,3212.94 c 2.2,-33.21 4.4,-66.42 6.6,-99.62 0.6,-9.85 16,-9.92 15.4,0 -2.2,33.2 -4.4,66.41 -6.6,99.62 -0.6,9.84 -16,9.92 -15.4,0"
       style="fill:#5b371e;fill-opacity:1;fill-rule:nonzero;stroke:none"
       transform="matrix(0.03527778,0,0,-0.03527778,-812.12619,242.04999)"
       clip-path="url(#clipPath1545)" />
    <path
       id="path1546"
       d="m 25712.3,3192 c 2.2,-17.44 4.3,-34.88 6.5,-52.33 0.5,-4.13 3.1,-7.7 7.7,-7.7 3.7,0 8.2,3.54 7.7,7.7 -2.2,17.45 -4.3,34.89 -6.4,52.33 -0.5,4.14 -3.2,7.71 -7.7,7.71 -3.8,0 -8.3,-3.54 -7.8,-7.71"
       style="fill:#5b371e;fill-opacity:1;fill-rule:nonzero;stroke:none"
       transform="matrix(0.03527778,0,0,-0.03527778,-812.12619,242.04999)"
       clip-path="url(#clipPath1547)" />
    <path
       id="path1548"
       d="m 26037.6,3393.24 c 34.4,16.22 75.1,5.43 104.5,-16.2 27.9,-20.51 56.5,-52.66 46.5,-89.9 -4.9,-18.08 -17.2,-33.16 -34.1,-41.31 -8.9,-4.32 -1.1,-17.61 7.8,-13.31 37.2,17.99 53.2,63.72 37.1,101.24 -8.6,19.96 -24.1,36.22 -40.7,49.76 -17,13.76 -36.2,24.44 -57.5,29.57 -24.1,5.77 -48.9,4.06 -71.3,-6.54 -9,-4.23 -1.2,-17.52 7.7,-13.31"
       style="fill:#a46e4a;fill-opacity:1;fill-rule:nonzero;stroke:none"
       transform="matrix(0.03527778,0,0,-0.03527778,-812.12619,242.04999)"
       clip-path="url(#clipPath1549)" />
    <path
       id="path1550"
       d="m 25337.3,3327.36 c -19.8,0.27 -38.4,-9.7 -50.8,-24.96 -13.8,-17.05 -19.4,-38.99 -20,-60.6 -1.2,-39.55 14.4,-83.44 51.4,-102.53 19,-9.81 41.8,-12.66 62,-4.45 9,3.7 5.1,18.61 -4.1,14.86 -31,-12.64 -64.4,4.71 -80.3,32.33 -16.6,29.06 -19.8,71.97 -3.1,101.7 9.1,16.34 25.7,28.5 44.9,28.23 10,-0.14 10,15.28 0,15.42"
       style="fill:#a46e4a;fill-opacity:1;fill-rule:nonzero;stroke:none"
       transform="matrix(0.03527778,0,0,-0.03527778,-812.12619,242.04999)"
       clip-path="url(#clipPath1551)" />
    <path
       id="path1552"
       d="m 25963.2,3086.09 c 25.8,-63.87 -5.3,-134.91 -12.4,-203.44 -4.3,-42.76 1,-86.48 15.6,-126.92 9.6,-26.55 23.1,-51.8 29.5,-79.29 6.4,-27.49 4.5,-58.97 -13.9,-80.39 27.9,22.31 34.3,62.89 28.1,98.05 -6.1,35.15 -22.4,67.64 -32.4,101.93 -21.1,72.82 -11.8,153.94 25.2,220.11 l -39.7,69.95"
       style="fill:#a46e4a;fill-opacity:1;fill-rule:nonzero;stroke:none"
       transform="matrix(0.03527778,0,0,-0.03527778,-812.12619,242.04999)"
       clip-path="url(#clipPath1553)" />
    <path
       id="path1554"
       d="m 25506.5,3097.47 c -7.1,-67.26 -1,-135.89 17.8,-200.86 8.3,-28.67 19,-56.69 24.7,-85.97 14.2,-72.57 -4.6,-150.94 -50.3,-209.11 28.1,78.53 53.3,164.77 26.8,243.84 -12.4,37.07 -35.5,70.03 -46.1,107.65 -12.7,45.07 -6.4,93.38 -15.1,139.4 l 42.2,5.05"
       style="fill:#a46e4a;fill-opacity:1;fill-rule:nonzero;stroke:none"
       transform="matrix(0.03527778,0,0,-0.03527778,-812.12619,242.04999)"
       clip-path="url(#clipPath1555)" />
    <path
       id="path1556"
       d="m 25619.1,2898.92 c 0,-14.19 -10.5,-25.69 -23.5,-25.69 -13,0 -23.5,11.5 -23.5,25.69 0,14.19 10.5,25.69 23.5,25.69 13,0 23.5,-11.5 23.5,-25.69"
       style="fill:#1a1a1a;fill-opacity:1;fill-rule:nonzero;stroke:none"
       transform="matrix(0.03527778,0,0,-0.03527778,-812.12619,242.04999)"
       clip-path="url(#clipPath1557)" />
    <path
       id="path1558"
       d="m 25894.9,2898.92 c 0,-14.19 -10.6,-25.69 -23.5,-25.69 -13,0 -23.6,11.5 -23.6,25.69 0,14.19 10.6,25.69 23.6,25.69 12.9,0 23.5,-11.5 23.5,-25.69"
       style="fill:#1a1a1a;fill-opacity:1;fill-rule:nonzero;stroke:none"
       transform="matrix(0.03527778,0,0,-0.03527778,-812.12619,242.04999)"
       clip-path="url(#clipPath1559)" />
    <path
       id="path1560"
       d="m 25717.3,2948.03 c -34.3,-37.83 -48.1,-91.43 -36.1,-141.13 0.9,-3.84 5.6,-6.76 9.5,-5.39 14,5.04 28.1,10.07 42.2,15.11 9.3,3.31 5.3,18.21 -4.1,14.86 -14.1,-5.03 -28.2,-10.07 -42.2,-15.1 3.1,-1.8 6.3,-3.59 9.4,-5.39 -10.6,44.19 1.7,92.47 32.2,126.14 6.7,7.33 -4.2,18.26 -10.9,10.9"
       style="fill:#a46e4a;fill-opacity:1;fill-rule:nonzero;stroke:none"
       transform="matrix(0.03527778,0,0,-0.03527778,-812.12619,242.04999)"
       clip-path="url(#clipPath1561)" />
    <path
       id="path1562"
       d="m 25706.5,2756.23 c 32.3,-19.76 77.9,-8.73 98.2,23.11 5.3,8.4 -8,16.14 -13.3,7.78 -15.9,-24.9 -52.1,-32.87 -77.1,-17.58 -8.5,5.18 -16.3,-8.14 -7.8,-13.31"
       style="fill:#a46e4a;fill-opacity:1;fill-rule:nonzero;stroke:none"
       transform="matrix(0.03527778,0,0,-0.03527778,-812.12619,242.04999)"
       clip-path="url(#clipPath1563)" />
    <path
       id="path1564"
       d="m 25563.3,3008.79 c 14.2,4.37 29.2,6.24 44,5.5 9.5,-0.49 19.5,-2.26 26.9,-8.28 7.4,-6.03 11.2,-17.39 6.1,-25.48 -5.1,-8.14 -16.3,-9.74 -25.9,-8.88 -22.1,2 -43.4,13.05 -57.7,30.08 l 6.6,7.06"
       style="fill:#a46e4a;fill-opacity:1;fill-rule:nonzero;stroke:none"
       transform="matrix(0.03527778,0,0,-0.03527778,-812.12619,242.04999)"
       clip-path="url(#clipPath1565)" />
    <path
       id="path1566"
       d="m 25928.9,2997.66 c -14.2,-4.38 -29.2,-6.25 -44,-5.5 -9.6,0.48 -19.5,2.25 -26.9,8.28 -7.4,6.02 -11.2,17.38 -6.1,25.47 5.1,8.15 16.3,9.74 25.8,8.88 22.2,-2 43.4,-13.05 57.8,-30.07 l -6.6,-7.06"
       style="fill:#a46e4a;fill-opacity:1;fill-rule:nonzero;stroke:none"
       transform="matrix(0.03527778,0,0,-0.03527778,-812.12619,242.04999)"
       clip-path="url(#clipPath1567)" />
    <path
       id="path1568"
       d="m 25957.9,2834.69 c 19.7,14.72 41.5,26.76 64.6,35.35 3.9,1.45 6.6,5.22 5.4,9.48 -1,3.75 -5.6,6.85 -9.5,5.39 -24.4,-9.08 -47.4,-21.36 -68.3,-36.91 -3.4,-2.48 -5.1,-6.67 -2.8,-10.54 1.9,-3.29 7.2,-5.26 10.6,-2.77"
       style="fill:#a46e4a;fill-opacity:1;fill-rule:nonzero;stroke:none"
       transform="matrix(0.03527778,0,0,-0.03527778,-812.12619,242.04999)"
       clip-path="url(#clipPath1569)" />
    <path
       id="path1570"
       d="m 25981,2853.3 c 2.1,-1.77 4,-3.75 5.7,-5.91 l -1.2,1.56 c 2.1,-2.78 3.9,-5.79 5.2,-9.01 l -0.7,1.84 c 1.1,-2.77 2,-5.64 2.5,-8.59 0.3,-1.8 2,-3.72 3.5,-4.61 1.7,-0.96 4.1,-1.37 6,-0.77 1.8,0.6 3.6,1.76 4.6,3.54 1,1.93 1.1,3.79 0.7,5.94 -1.8,10.27 -7.5,20.16 -15.4,26.92 -1.6,1.34 -3.3,2.25 -5.5,2.25 -1.9,0 -4.1,-0.84 -5.4,-2.25 -2.7,-2.88 -3.3,-8.12 0,-10.91"
       style="fill:#a46e4a;fill-opacity:1;fill-rule:nonzero;stroke:none"
       transform="matrix(0.03527778,0,0,-0.03527778,-812.12619,242.04999)"
       clip-path="url(#clipPath1571)" />
    <path
       id="path1572"
       d="m 25470,2879.51 c 8.9,-5.65 17.3,-14.14 23.5,-22.54 7.1,-9.5 13,-19.75 18.9,-30 2.1,-3.61 7,-4.86 10.6,-2.77 3.6,2.12 4.8,6.92 2.7,10.55 -12.5,21.89 -26.1,44.3 -48,58.07 -3.5,2.21 -8.4,0.74 -10.5,-2.77 -2.2,-3.7 -0.8,-8.32 2.8,-10.54"
       style="fill:#a46e4a;fill-opacity:1;fill-rule:nonzero;stroke:none"
       transform="matrix(0.03527778,0,0,-0.03527778,-812.12619,242.04999)"
       clip-path="url(#clipPath1573)" />
    <path
       id="path1574"
       d="m 25482.9,2836.31 c 1.6,1.61 3.2,3.1 5,4.48 l -1.6,-1.2 c 3.4,2.55 7,4.67 10.8,6.3 l -1.8,-0.78 2.6,0.99 c 1.9,0.68 3.5,1.74 4.6,3.54 0.9,1.65 1.4,4.09 0.8,5.94 -0.6,1.86 -1.8,3.66 -3.6,4.6 -1.7,0.94 -4,1.47 -5.9,0.78 -8.2,-2.91 -15.7,-7.5 -21.8,-13.75 -1.4,-1.43 -2.3,-3.45 -2.3,-5.45 0,-1.89 0.9,-4.15 2.3,-5.45 3,-2.8 7.9,-3.08 10.9,0"
       style="fill:#a46e4a;fill-opacity:1;fill-rule:nonzero;stroke:none"
       transform="matrix(0.03527778,0,0,-0.03527778,-812.12619,242.04999)"
       clip-path="url(#clipPath1575)" />
    <path
       id="path1576"
       d="m 25531.7,2440.2 c 4.7,-56.61 17.4,-112.54 37.7,-165.62 21.1,-55.37 54.4,-111.32 109.2,-133.81 74.9,-30.73 163.6,14.93 208.4,82.37 44.7,67.43 56.2,130.34 66.6,210.63 29.9,-14.48 61.3,-5.6 93.4,-14.28 -15,-118.95 -1.3,-396.64 30.4,-512.26 -231.4,-30.62 -432,-97.17 -662.8,-61.65 24.8,98.69 -2.5,458.64 -4.6,560.39 36.3,15.13 75.2,24.15 114.4,26.55 l 7.3,7.68"
       style="fill:#ef6a55;fill-opacity:1;fill-rule:nonzero;stroke:none"
       transform="matrix(0.03527778,0,0,-0.03527778,-812.12619,242.04999)"
       clip-path="url(#clipPath1577)" />
    <path
       id="path1578"
       d="m 26270.1,2290.79 c 51.3,-86.65 88.1,-188.41 57.9,-284.47 -129.8,-22.97 -263.6,-23.09 -393.4,-0.35 17.6,151.18 35.3,286.95 53,438.14 0,0 231.2,-66.66 282.5,-153.32"
       style="fill:#87c3a9;fill-opacity:1;fill-rule:nonzero;stroke:none"
       transform="matrix(0.03527778,0,0,-0.03527778,-812.12619,242.04999)"
       clip-path="url(#clipPath1579)" />
    <path
       id="path1580"
       d="m 25205,2308.36 c -59.8,-83.36 -105,-182.7 -78.2,-280.45 137.3,-30.9 280.3,-39.22 420.2,-24.48 -10.2,152.03 -21.3,288.66 -31.5,440.68 0,0 -250.8,-52.38 -310.5,-135.75"
       style="fill:#87c3a9;fill-opacity:1;fill-rule:nonzero;stroke:none"
       transform="matrix(0.03527778,0,0,-0.03527778,-812.12619,242.04999)"
       clip-path="url(#clipPath1581)" />
    <path
       id="path1582"
       d="m 25300.7,2233 c 1.1,-64.28 2.3,-128.57 3.4,-192.86 0.2,-9.9 15.6,-9.94 15.4,0 -1.1,64.29 -2.3,128.58 -3.4,192.86 -0.2,9.91 -15.6,9.94 -15.4,0"
       style="fill:#498469;fill-opacity:1;fill-rule:nonzero;stroke:none"
       transform="matrix(0.03527778,0,0,-0.03527778,-812.12619,242.04999)"
       clip-path="url(#clipPath1583)" />
    <path
       id="path1584"
       d="m 26167.9,2217.25 c -7.2,-58.73 -9.8,-117.93 -7.9,-177.07 0.3,-9.89 15.7,-9.94 15.4,0 -1.9,59.14 0.7,118.34 7.9,177.07 1.2,9.82 -14.2,9.73 -15.4,0"
       style="fill:#498469;fill-opacity:1;fill-rule:nonzero;stroke:none"
       transform="matrix(0.03527778,0,0,-0.03527778,-812.12619,242.04999)"
       clip-path="url(#clipPath1585)" />
    <path
       id="path1586"
       d="m 26037.7,2405.13 c 13.8,-26.46 28,-54.16 28.2,-84.69 0.2,-26.94 -10.1,-52.47 -24.3,-74.94 -14.7,-23.27 -33.7,-42.49 -53.2,-61.71 -10.1,-9.98 -16.2,-21.58 -14.2,-36.09 1.8,-14.12 9.4,-26.55 15.6,-39.12 15.1,-30.89 25.4,-64.01 31,-97.92 1.7,-9.76 16.5,-5.62 14.9,4.1 -5,29.91 -13.7,58.95 -25.8,86.76 -6,13.93 -14.9,27.26 -19.1,41.87 -1.9,6.26 -2.6,12.88 0.2,18.98 3,6.53 9.2,11.4 14.3,16.27 38.2,36.66 75.4,84.32 76,139.75 0.4,34.09 -14.9,64.99 -30.3,94.52 -4.5,8.81 -17.8,1.03 -13.3,-7.78"
       style="fill:#498469;fill-opacity:1;fill-rule:nonzero;stroke:none"
       transform="matrix(0.03527778,0,0,-0.03527778,-812.12619,242.04999)"
       clip-path="url(#clipPath1587)" />
    <path
       id="path1588"
       d="m 25472.1,2425.86 c -19.6,-28.65 -39.3,-57.29 -59,-85.94 -9.5,-13.84 -19.1,-27.63 -28.5,-41.55 -8,-11.9 -14.9,-24.93 -12.5,-39.74 4.2,-26.15 31.6,-41.21 49.2,-57.83 11.6,-10.88 22.3,-22.77 31.6,-35.59 3.9,-5.22 8.3,-10.75 11,-16.65 3.9,-8.26 -2.3,-14.48 -7,-20.95 -22.5,-31.72 -45.1,-63.43 -67.7,-95.15 -5.8,-8.1 7.6,-15.8 13.3,-7.78 20.1,28.27 40.3,56.54 60.4,84.81 8,11.18 20.9,24.1 17.4,39.09 -1.7,7.01 -6.1,13.08 -10.1,18.9 -4.7,6.72 -9.6,13.24 -14.8,19.54 -9.6,11.6 -20.2,22.4 -31.5,32.24 -9.8,8.47 -20.8,16.07 -29,26.25 -9.2,11.45 -9.8,23.45 -2.6,36.18 7.9,13.9 17.9,26.8 27,39.97 22,32.14 44.1,64.28 66.1,96.42 5.7,8.2 -7.7,15.92 -13.3,7.78"
       style="fill:#498469;fill-opacity:1;fill-rule:nonzero;stroke:none"
       transform="matrix(0.03527778,0,0,-0.03527778,-812.12619,242.04999)"
       clip-path="url(#clipPath1589)" />
    <path
       id="path1590"
       d="m 25585.1,2165.83 c 54.4,-67.64 148.8,-93.59 230.1,-62.83 23.1,8.75 44.3,21.38 62.9,37.57 7.6,6.51 -3.4,17.37 -10.9,10.9 -30.4,-26.42 -69.6,-42.72 -109.8,-45.73 -39.3,-2.95 -78.5,6.93 -112.1,27.44 -18.9,11.54 -35.5,26.32 -49.3,43.55 -6.3,7.73 -17.1,-3.24 -10.9,-10.9"
       style="fill:#a3362b;fill-opacity:1;fill-rule:nonzero;stroke:none"
       transform="matrix(0.03527778,0,0,-0.03527778,-812.12619,242.04999)"
       clip-path="url(#clipPath1591)" />
  </g>
</svg>
