<?xml version="1.0" encoding="UTF-8" standalone="no"?>
<!-- Created with Inkscape (http://www.inkscape.org/) -->

<svg
   width="64.332558mm"
   height="64.331856mm"
   viewBox="0 0 64.332558 64.331856"
   version="1.1"
   id="svg1"
   inkscape:version="1.3.2 (091e20e, 2023-11-25)"
   sodipodi:docname="old-fermer-avatar.svg"
   xmlns:inkscape="http://www.inkscape.org/namespaces/inkscape"
   xmlns:sodipodi="http://sodipodi.sourceforge.net/DTD/sodipodi-0.dtd"
   xmlns="http://www.w3.org/2000/svg"
   xmlns:svg="http://www.w3.org/2000/svg">
  <sodipodi:namedview
     id="namedview1"
     pagecolor="#ffffff"
     bordercolor="#000000"
     borderopacity="0.25"
     inkscape:showpageshadow="2"
     inkscape:pageopacity="0.0"
     inkscape:pagecheckerboard="0"
     inkscape:deskcolor="#d1d1d1"
     inkscape:document-units="mm"
     inkscape:zoom="1.5688122"
     inkscape:cx="307.55752"
     inkscape:cy="228.51683"
     inkscape:window-width="1920"
     inkscape:window-height="1052"
     inkscape:window-x="0"
     inkscape:window-y="28"
     inkscape:window-maximized="0"
     inkscape:current-layer="layer1" />
  <defs
     id="defs1">
    <clipPath
       clipPathUnits="userSpaceOnUse"
       id="clipPath593">
      <path
         d="m 26644.5,7228.16 c 0,-503.58 -408.2,-911.79 -911.8,-911.79 -503.6,0 -911.8,408.21 -911.8,911.79 0,503.56 408.2,911.79 911.8,911.79 503.6,0 911.8,-408.23 911.8,-911.79"
         transform="translate(0,-2.5e-4)"
         id="path593" />
    </clipPath>
    <clipPath
       clipPathUnits="userSpaceOnUse"
       id="clipPath595">
      <path
         d="m 26644.5,7228.16 c 0,-503.58 -408.2,-911.79 -911.8,-911.79 -503.6,0 -911.8,408.21 -911.8,911.79 0,503.56 408.2,911.79 911.8,911.79 503.6,0 911.8,-408.23 911.8,-911.79"
         transform="translate(0,-2.5e-4)"
         id="path595" />
    </clipPath>
    <clipPath
       clipPathUnits="userSpaceOnUse"
       id="clipPath597">
      <path
         d="m 26644.5,7228.16 c 0,-503.58 -408.2,-911.79 -911.8,-911.79 -503.6,0 -911.8,408.21 -911.8,911.79 0,503.56 408.2,911.79 911.8,911.79 503.6,0 911.8,-408.23 911.8,-911.79"
         transform="translate(0,-2.5e-4)"
         id="path597" />
    </clipPath>
    <clipPath
       clipPathUnits="userSpaceOnUse"
       id="clipPath599">
      <path
         d="m 26644.5,7228.16 c 0,-503.58 -408.2,-911.79 -911.8,-911.79 -503.6,0 -911.8,408.21 -911.8,911.79 0,503.56 408.2,911.79 911.8,911.79 503.6,0 911.8,-408.23 911.8,-911.79"
         transform="translate(0,-2.5e-4)"
         id="path599" />
    </clipPath>
    <clipPath
       clipPathUnits="userSpaceOnUse"
       id="clipPath601">
      <path
         d="m 26644.5,7228.16 c 0,-503.58 -408.2,-911.79 -911.8,-911.79 -503.6,0 -911.8,408.21 -911.8,911.79 0,503.56 408.2,911.79 911.8,911.79 503.6,0 911.8,-408.23 911.8,-911.79"
         transform="translate(0,-2.5e-4)"
         id="path601" />
    </clipPath>
    <clipPath
       clipPathUnits="userSpaceOnUse"
       id="clipPath603">
      <path
         d="m 26644.5,7228.16 c 0,-503.58 -408.2,-911.79 -911.8,-911.79 -503.6,0 -911.8,408.21 -911.8,911.79 0,503.56 408.2,911.79 911.8,911.79 503.6,0 911.8,-408.23 911.8,-911.79"
         transform="translate(0,-2.5e-4)"
         id="path603" />
    </clipPath>
    <clipPath
       clipPathUnits="userSpaceOnUse"
       id="clipPath605">
      <path
         d="m 26644.5,7228.16 c 0,-503.58 -408.2,-911.79 -911.8,-911.79 -503.6,0 -911.8,408.21 -911.8,911.79 0,503.56 408.2,911.79 911.8,911.79 503.6,0 911.8,-408.23 911.8,-911.79"
         transform="translate(0,-2.5e-4)"
         id="path605" />
    </clipPath>
    <clipPath
       clipPathUnits="userSpaceOnUse"
       id="clipPath606">
      <path
         d="m 26180.8,6719.03 c -84.8,56.82 -187.3,79.57 -287.4,99.67 -6.1,1.22 -12.5,2.55 -17.4,6.39 -8.4,6.56 10.7,171.3 0,267.96 l -142.9,-13.38 -142.8,13.38 c -10.7,-96.66 8.4,-261.4 0,-267.96 -4.9,-3.84 -11.3,-5.17 -17.4,-6.39 -100.1,-20.1 -202.6,-42.85 -287.4,-99.67 -84.9,-56.8 -149.1,-376.14 -135.5,-477.33 85.2,0.44 323,-11.35 563.8,-14.51 v -0.52 c 6.4,0.08 12.9,0.17 19.3,0.26 6.5,-0.09 12.9,-0.18 19.4,-0.26 v 0.52 c 240.8,3.16 478.6,14.95 563.8,14.51 13.6,101.19 -50.7,420.53 -135.5,477.33"
         transform="translate(0,-2.5e-4)"
         id="path606" />
    </clipPath>
    <clipPath
       clipPathUnits="userSpaceOnUse"
       id="clipPath609">
      <path
         d="m 26644.5,7228.16 c 0,-503.58 -408.2,-911.79 -911.8,-911.79 -503.6,0 -911.8,408.21 -911.8,911.79 0,503.56 408.2,911.79 911.8,911.79 503.6,0 911.8,-408.23 911.8,-911.79"
         transform="translate(0,-2.5e-4)"
         id="path609" />
    </clipPath>
    <clipPath
       clipPathUnits="userSpaceOnUse"
       id="clipPath611">
      <path
         d="m 26644.5,7228.16 c 0,-503.58 -408.2,-911.79 -911.8,-911.79 -503.6,0 -911.8,408.21 -911.8,911.79 0,503.56 408.2,911.79 911.8,911.79 503.6,0 911.8,-408.23 911.8,-911.79"
         transform="translate(0,-2.5e-4)"
         id="path611" />
    </clipPath>
    <clipPath
       clipPathUnits="userSpaceOnUse"
       id="clipPath613">
      <path
         d="m 26644.5,7228.16 c 0,-503.58 -408.2,-911.79 -911.8,-911.79 -503.6,0 -911.8,408.21 -911.8,911.79 0,503.56 408.2,911.79 911.8,911.79 503.6,0 911.8,-408.23 911.8,-911.79"
         transform="translate(0,-2.5e-4)"
         id="path613" />
    </clipPath>
    <clipPath
       clipPathUnits="userSpaceOnUse"
       id="clipPath615">
      <path
         d="m 26644.5,7228.16 c 0,-503.58 -408.2,-911.79 -911.8,-911.79 -503.6,0 -911.8,408.21 -911.8,911.79 0,503.56 408.2,911.79 911.8,911.79 503.6,0 911.8,-408.23 911.8,-911.79"
         transform="translate(0,-2.5e-4)"
         id="path615" />
    </clipPath>
    <clipPath
       clipPathUnits="userSpaceOnUse"
       id="clipPath617">
      <path
         d="m 26644.5,7228.16 c 0,-503.58 -408.2,-911.79 -911.8,-911.79 -503.6,0 -911.8,408.21 -911.8,911.79 0,503.56 408.2,911.79 911.8,911.79 503.6,0 911.8,-408.23 911.8,-911.79"
         transform="translate(0,-2.5e-4)"
         id="path617" />
    </clipPath>
    <clipPath
       clipPathUnits="userSpaceOnUse"
       id="clipPath619">
      <path
         d="m 26644.5,7228.16 c 0,-503.58 -408.2,-911.79 -911.8,-911.79 -503.6,0 -911.8,408.21 -911.8,911.79 0,503.56 408.2,911.79 911.8,911.79 503.6,0 911.8,-408.23 911.8,-911.79"
         transform="translate(0,-2.5e-4)"
         id="path619" />
    </clipPath>
    <clipPath
       clipPathUnits="userSpaceOnUse"
       id="clipPath621">
      <path
         d="m 26644.5,7228.16 c 0,-503.58 -408.2,-911.79 -911.8,-911.79 -503.6,0 -911.8,408.21 -911.8,911.79 0,503.56 408.2,911.79 911.8,911.79 503.6,0 911.8,-408.23 911.8,-911.79"
         transform="translate(0,-2.5e-4)"
         id="path621" />
    </clipPath>
    <clipPath
       clipPathUnits="userSpaceOnUse"
       id="clipPath623">
      <path
         d="m 26644.5,7228.16 c 0,-503.58 -408.2,-911.79 -911.8,-911.79 -503.6,0 -911.8,408.21 -911.8,911.79 0,503.56 408.2,911.79 911.8,911.79 503.6,0 911.8,-408.23 911.8,-911.79"
         transform="translate(0,-2.5e-4)"
         id="path623" />
    </clipPath>
    <clipPath
       clipPathUnits="userSpaceOnUse"
       id="clipPath625">
      <path
         d="m 26644.5,7228.16 c 0,-503.58 -408.2,-911.79 -911.8,-911.79 -503.6,0 -911.8,408.21 -911.8,911.79 0,503.56 408.2,911.79 911.8,911.79 503.6,0 911.8,-408.23 911.8,-911.79"
         transform="translate(0,-2.5e-4)"
         id="path625" />
    </clipPath>
    <clipPath
       clipPathUnits="userSpaceOnUse"
       id="clipPath627">
      <path
         d="m 26644.5,7228.16 c 0,-503.58 -408.2,-911.79 -911.8,-911.79 -503.6,0 -911.8,408.21 -911.8,911.79 0,503.56 408.2,911.79 911.8,911.79 503.6,0 911.8,-408.23 911.8,-911.79"
         transform="translate(0,-2.5e-4)"
         id="path627" />
    </clipPath>
    <clipPath
       clipPathUnits="userSpaceOnUse"
       id="clipPath629">
      <path
         d="m 26644.5,7228.16 c 0,-503.58 -408.2,-911.79 -911.8,-911.79 -503.6,0 -911.8,408.21 -911.8,911.79 0,503.56 408.2,911.79 911.8,911.79 503.6,0 911.8,-408.23 911.8,-911.79"
         transform="translate(0,-2.5e-4)"
         id="path629" />
    </clipPath>
    <clipPath
       clipPathUnits="userSpaceOnUse"
       id="clipPath631">
      <path
         d="m 26644.5,7228.16 c 0,-503.58 -408.2,-911.79 -911.8,-911.79 -503.6,0 -911.8,408.21 -911.8,911.79 0,503.56 408.2,911.79 911.8,911.79 503.6,0 911.8,-408.23 911.8,-911.79"
         transform="translate(0,-2.5e-4)"
         id="path631" />
    </clipPath>
    <clipPath
       clipPathUnits="userSpaceOnUse"
       id="clipPath633">
      <path
         d="m 26644.5,7228.16 c 0,-503.58 -408.2,-911.79 -911.8,-911.79 -503.6,0 -911.8,408.21 -911.8,911.79 0,503.56 408.2,911.79 911.8,911.79 503.6,0 911.8,-408.23 911.8,-911.79"
         transform="translate(0,-2.5e-4)"
         id="path633" />
    </clipPath>
    <clipPath
       clipPathUnits="userSpaceOnUse"
       id="clipPath635">
      <path
         d="m 26644.5,7228.16 c 0,-503.58 -408.2,-911.79 -911.8,-911.79 -503.6,0 -911.8,408.21 -911.8,911.79 0,503.56 408.2,911.79 911.8,911.79 503.6,0 911.8,-408.23 911.8,-911.79"
         transform="translate(0,-2.5e-4)"
         id="path635" />
    </clipPath>
    <clipPath
       clipPathUnits="userSpaceOnUse"
       id="clipPath637">
      <path
         d="m 26644.5,7228.16 c 0,-503.58 -408.2,-911.79 -911.8,-911.79 -503.6,0 -911.8,408.21 -911.8,911.79 0,503.56 408.2,911.79 911.8,911.79 503.6,0 911.8,-408.23 911.8,-911.79"
         transform="translate(0,-2.5e-4)"
         id="path637" />
    </clipPath>
    <clipPath
       clipPathUnits="userSpaceOnUse"
       id="clipPath639">
      <path
         d="m 26644.5,7228.16 c 0,-503.58 -408.2,-911.79 -911.8,-911.79 -503.6,0 -911.8,408.21 -911.8,911.79 0,503.56 408.2,911.79 911.8,911.79 503.6,0 911.8,-408.23 911.8,-911.79"
         transform="translate(0,-2.5e-4)"
         id="path639" />
    </clipPath>
    <clipPath
       clipPathUnits="userSpaceOnUse"
       id="clipPath640">
      <path
         d="m 26187.6,6725.78 c -51.8,34.7 -110.1,56.86 -170.4,73.49 -9.6,-17.28 -151.5,-123.21 -232.7,-183.03 -33.4,-24.58 -79.2,-23.06 -110.9,3.66 -52.4,44.18 -131.3,114.57 -185.9,180.67 -44.3,-14.89 -172,-48.76 -210.8,-74.79 -86.3,-57.78 -151.7,-378.82 -137.8,-481.74 86.6,0.45 328.5,-11.37 573.5,-14.58 v -0.54 c 6.5,0.09 13.1,0.18 19.6,0.27 6.6,-0.09 13.2,-0.18 19.7,-0.27 v 0.54 c 245,3.21 488.7,-22.64 575.4,-23.09 13.8,102.92 -53.4,461.63 -139.7,519.41"
         transform="translate(0,-2.5e-4)"
         id="path640" />
    </clipPath>
    <clipPath
       clipPathUnits="userSpaceOnUse"
       id="clipPath641">
      <path
         d="m 26187.6,6725.78 c -51.8,34.7 -110.1,56.86 -170.4,73.49 -9.6,-17.28 -151.5,-123.21 -232.7,-183.03 -33.4,-24.58 -79.2,-23.06 -110.9,3.66 -52.4,44.18 -131.3,114.57 -185.9,180.67 -44.3,-14.89 -172,-48.76 -210.8,-74.79 -86.3,-57.78 -151.7,-378.82 -137.8,-481.74 86.6,0.45 328.5,-11.37 573.5,-14.58 v -0.54 c 6.5,0.09 13.1,0.18 19.6,0.27 6.6,-0.09 13.2,-0.18 19.7,-0.27 v 0.54 c 245,3.21 488.7,-22.64 575.4,-23.09 13.8,102.92 -53.4,461.63 -139.7,519.41"
         transform="translate(0,-2.5e-4)"
         id="path641" />
    </clipPath>
    <clipPath
       clipPathUnits="userSpaceOnUse"
       id="clipPath642">
      <path
         d="m 26187.6,6725.78 c -51.8,34.7 -110.1,56.86 -170.4,73.49 -9.6,-17.28 -151.5,-123.21 -232.7,-183.03 -33.4,-24.58 -79.2,-23.06 -110.9,3.66 -52.4,44.18 -131.3,114.57 -185.9,180.67 -44.3,-14.89 -172,-48.76 -210.8,-74.79 -86.3,-57.78 -151.7,-378.82 -137.8,-481.74 86.6,0.45 328.5,-11.37 573.5,-14.58 v -0.54 c 6.5,0.09 13.1,0.18 19.6,0.27 6.6,-0.09 13.2,-0.18 19.7,-0.27 v 0.54 c 245,3.21 488.7,-22.64 575.4,-23.09 13.8,102.92 -53.4,461.63 -139.7,519.41"
         transform="translate(0,-2.5e-4)"
         id="path642" />
    </clipPath>
    <clipPath
       clipPathUnits="userSpaceOnUse"
       id="clipPath643">
      <path
         d="m 26187.6,6725.78 c -51.8,34.7 -110.1,56.86 -170.4,73.49 -9.6,-17.28 -151.5,-123.21 -232.7,-183.03 -33.4,-24.58 -79.2,-23.06 -110.9,3.66 -52.4,44.18 -131.3,114.57 -185.9,180.67 -44.3,-14.89 -172,-48.76 -210.8,-74.79 -86.3,-57.78 -151.7,-378.82 -137.8,-481.74 86.6,0.45 328.5,-11.37 573.5,-14.58 v -0.54 c 6.5,0.09 13.1,0.18 19.6,0.27 6.6,-0.09 13.2,-0.18 19.7,-0.27 v 0.54 c 245,3.21 488.7,-22.64 575.4,-23.09 13.8,102.92 -53.4,461.63 -139.7,519.41"
         transform="translate(0,-2.5e-4)"
         id="path643" />
    </clipPath>
    <clipPath
       clipPathUnits="userSpaceOnUse"
       id="clipPath644">
      <path
         d="m 26187.6,6725.78 c -51.8,34.7 -110.1,56.86 -170.4,73.49 -9.6,-17.28 -151.5,-123.21 -232.7,-183.03 -33.4,-24.58 -79.2,-23.06 -110.9,3.66 -52.4,44.18 -131.3,114.57 -185.9,180.67 -44.3,-14.89 -172,-48.76 -210.8,-74.79 -86.3,-57.78 -151.7,-378.82 -137.8,-481.74 86.6,0.45 328.5,-11.37 573.5,-14.58 v -0.54 c 6.5,0.09 13.1,0.18 19.6,0.27 6.6,-0.09 13.2,-0.18 19.7,-0.27 v 0.54 c 245,3.21 488.7,-22.64 575.4,-23.09 13.8,102.92 -53.4,461.63 -139.7,519.41"
         transform="translate(0,-2.5e-4)"
         id="path644" />
    </clipPath>
    <clipPath
       clipPathUnits="userSpaceOnUse"
       id="clipPath645">
      <path
         d="m 26187.6,6725.78 c -51.8,34.7 -110.1,56.86 -170.4,73.49 -9.6,-17.28 -151.5,-123.21 -232.7,-183.03 -33.4,-24.58 -79.2,-23.06 -110.9,3.66 -52.4,44.18 -131.3,114.57 -185.9,180.67 -44.3,-14.89 -172,-48.76 -210.8,-74.79 -86.3,-57.78 -151.7,-378.82 -137.8,-481.74 86.6,0.45 328.5,-11.37 573.5,-14.58 v -0.54 c 6.5,0.09 13.1,0.18 19.6,0.27 6.6,-0.09 13.2,-0.18 19.7,-0.27 v 0.54 c 245,3.21 488.7,-22.64 575.4,-23.09 13.8,102.92 -53.4,461.63 -139.7,519.41"
         transform="translate(0,-2.5e-4)"
         id="path645" />
    </clipPath>
    <clipPath
       clipPathUnits="userSpaceOnUse"
       id="clipPath646">
      <path
         d="m 26187.6,6725.78 c -51.8,34.7 -110.1,56.86 -170.4,73.49 -9.6,-17.28 -151.5,-123.21 -232.7,-183.03 -33.4,-24.58 -79.2,-23.06 -110.9,3.66 -52.4,44.18 -131.3,114.57 -185.9,180.67 -44.3,-14.89 -172,-48.76 -210.8,-74.79 -86.3,-57.78 -151.7,-378.82 -137.8,-481.74 86.6,0.45 328.5,-11.37 573.5,-14.58 v -0.54 c 6.5,0.09 13.1,0.18 19.6,0.27 6.6,-0.09 13.2,-0.18 19.7,-0.27 v 0.54 c 245,3.21 488.7,-22.64 575.4,-23.09 13.8,102.92 -53.4,461.63 -139.7,519.41"
         transform="translate(0,-2.5e-4)"
         id="path646" />
    </clipPath>
    <clipPath
       clipPathUnits="userSpaceOnUse"
       id="clipPath647">
      <path
         d="m 26187.6,6725.78 c -51.8,34.7 -110.1,56.86 -170.4,73.49 -9.6,-17.28 -151.5,-123.21 -232.7,-183.03 -33.4,-24.58 -79.2,-23.06 -110.9,3.66 -52.4,44.18 -131.3,114.57 -185.9,180.67 -44.3,-14.89 -172,-48.76 -210.8,-74.79 -86.3,-57.78 -151.7,-378.82 -137.8,-481.74 86.6,0.45 328.5,-11.37 573.5,-14.58 v -0.54 c 6.5,0.09 13.1,0.18 19.6,0.27 6.6,-0.09 13.2,-0.18 19.7,-0.27 v 0.54 c 245,3.21 488.7,-22.64 575.4,-23.09 13.8,102.92 -53.4,461.63 -139.7,519.41"
         transform="translate(0,-2.5e-4)"
         id="path647" />
    </clipPath>
    <clipPath
       clipPathUnits="userSpaceOnUse"
       id="clipPath648">
      <path
         d="m 26187.6,6725.78 c -51.8,34.7 -110.1,56.86 -170.4,73.49 -9.6,-17.28 -151.5,-123.21 -232.7,-183.03 -33.4,-24.58 -79.2,-23.06 -110.9,3.66 -52.4,44.18 -131.3,114.57 -185.9,180.67 -44.3,-14.89 -172,-48.76 -210.8,-74.79 -86.3,-57.78 -151.7,-378.82 -137.8,-481.74 86.6,0.45 328.5,-11.37 573.5,-14.58 v -0.54 c 6.5,0.09 13.1,0.18 19.6,0.27 6.6,-0.09 13.2,-0.18 19.7,-0.27 v 0.54 c 245,3.21 488.7,-22.64 575.4,-23.09 13.8,102.92 -53.4,461.63 -139.7,519.41"
         transform="translate(0,-2.5e-4)"
         id="path648" />
    </clipPath>
    <clipPath
       clipPathUnits="userSpaceOnUse"
       id="clipPath649">
      <path
         d="m 26187.6,6725.78 c -51.8,34.7 -110.1,56.86 -170.4,73.49 -9.6,-17.28 -151.5,-123.21 -232.7,-183.03 -33.4,-24.58 -79.2,-23.06 -110.9,3.66 -52.4,44.18 -131.3,114.57 -185.9,180.67 -44.3,-14.89 -172,-48.76 -210.8,-74.79 -86.3,-57.78 -151.7,-378.82 -137.8,-481.74 86.6,0.45 328.5,-11.37 573.5,-14.58 v -0.54 c 6.5,0.09 13.1,0.18 19.6,0.27 6.6,-0.09 13.2,-0.18 19.7,-0.27 v 0.54 c 245,3.21 488.7,-22.64 575.4,-23.09 13.8,102.92 -53.4,461.63 -139.7,519.41"
         transform="translate(0,-2.5e-4)"
         id="path649" />
    </clipPath>
    <clipPath
       clipPathUnits="userSpaceOnUse"
       id="clipPath650">
      <path
         d="m 26187.6,6725.78 c -51.8,34.7 -110.1,56.86 -170.4,73.49 -9.6,-17.28 -151.5,-123.21 -232.7,-183.03 -33.4,-24.58 -79.2,-23.06 -110.9,3.66 -52.4,44.18 -131.3,114.57 -185.9,180.67 -44.3,-14.89 -172,-48.76 -210.8,-74.79 -86.3,-57.78 -151.7,-378.82 -137.8,-481.74 86.6,0.45 328.5,-11.37 573.5,-14.58 v -0.54 c 6.5,0.09 13.1,0.18 19.6,0.27 6.6,-0.09 13.2,-0.18 19.7,-0.27 v 0.54 c 245,3.21 488.7,-22.64 575.4,-23.09 13.8,102.92 -53.4,461.63 -139.7,519.41"
         transform="translate(0,-2.5e-4)"
         id="path650" />
    </clipPath>
    <clipPath
       clipPathUnits="userSpaceOnUse"
       id="clipPath651">
      <path
         d="m 26187.6,6725.78 c -51.8,34.7 -110.1,56.86 -170.4,73.49 -9.6,-17.28 -151.5,-123.21 -232.7,-183.03 -33.4,-24.58 -79.2,-23.06 -110.9,3.66 -52.4,44.18 -131.3,114.57 -185.9,180.67 -44.3,-14.89 -172,-48.76 -210.8,-74.79 -86.3,-57.78 -151.7,-378.82 -137.8,-481.74 86.6,0.45 328.5,-11.37 573.5,-14.58 v -0.54 c 6.5,0.09 13.1,0.18 19.6,0.27 6.6,-0.09 13.2,-0.18 19.7,-0.27 v 0.54 c 245,3.21 488.7,-22.64 575.4,-23.09 13.8,102.92 -53.4,461.63 -139.7,519.41"
         transform="translate(0,-2.5e-4)"
         id="path651" />
    </clipPath>
    <clipPath
       clipPathUnits="userSpaceOnUse"
       id="clipPath665">
      <path
         d="m 26644.5,7228.16 c 0,-503.58 -408.2,-911.79 -911.8,-911.79 -503.6,0 -911.8,408.21 -911.8,911.79 0,503.56 408.2,911.79 911.8,911.79 503.6,0 911.8,-408.23 911.8,-911.79"
         transform="translate(0,-2.5e-4)"
         id="path665" />
    </clipPath>
    <clipPath
       clipPathUnits="userSpaceOnUse"
       id="clipPath667">
      <path
         d="m 26644.5,7228.16 c 0,-503.58 -408.2,-911.79 -911.8,-911.79 -503.6,0 -911.8,408.21 -911.8,911.79 0,503.56 408.2,911.79 911.8,911.79 503.6,0 911.8,-408.23 911.8,-911.79"
         transform="translate(0,-2.5e-4)"
         id="path667" />
    </clipPath>
    <clipPath
       clipPathUnits="userSpaceOnUse"
       id="clipPath669">
      <path
         d="m 26644.5,7228.16 c 0,-503.58 -408.2,-911.79 -911.8,-911.79 -503.6,0 -911.8,408.21 -911.8,911.79 0,503.56 408.2,911.79 911.8,911.79 503.6,0 911.8,-408.23 911.8,-911.79"
         transform="translate(0,-2.5e-4)"
         id="path669" />
    </clipPath>
    <clipPath
       clipPathUnits="userSpaceOnUse"
       id="clipPath671">
      <path
         d="m 26644.5,7228.16 c 0,-503.58 -408.2,-911.79 -911.8,-911.79 -503.6,0 -911.8,408.21 -911.8,911.79 0,503.56 408.2,911.79 911.8,911.79 503.6,0 911.8,-408.23 911.8,-911.79"
         transform="translate(0,-2.5e-4)"
         id="path671" />
    </clipPath>
    <clipPath
       clipPathUnits="userSpaceOnUse"
       id="clipPath673">
      <path
         d="m 26644.5,7228.16 c 0,-503.58 -408.2,-911.79 -911.8,-911.79 -503.6,0 -911.8,408.21 -911.8,911.79 0,503.56 408.2,911.79 911.8,911.79 503.6,0 911.8,-408.23 911.8,-911.79"
         transform="translate(0,-2.5e-4)"
         id="path673" />
    </clipPath>
    <clipPath
       clipPathUnits="userSpaceOnUse"
       id="clipPath675">
      <path
         d="m 26644.5,7228.16 c 0,-503.58 -408.2,-911.79 -911.8,-911.79 -503.6,0 -911.8,408.21 -911.8,911.79 0,503.56 408.2,911.79 911.8,911.79 503.6,0 911.8,-408.23 911.8,-911.79"
         transform="translate(0,-2.5e-4)"
         id="path675" />
    </clipPath>
    <clipPath
       clipPathUnits="userSpaceOnUse"
       id="clipPath677">
      <path
         d="m 26644.5,7228.16 c 0,-503.58 -408.2,-911.79 -911.8,-911.79 -503.6,0 -911.8,408.21 -911.8,911.79 0,503.56 408.2,911.79 911.8,911.79 503.6,0 911.8,-408.23 911.8,-911.79"
         transform="translate(0,-2.5e-4)"
         id="path677" />
    </clipPath>
  </defs>
  <g
     inkscape:label="Layer 1"
     inkscape:groupmode="layer"
     id="layer1"
     transform="translate(-60.85423,-91.810394)">
    <path
       id="path592"
       d="m 26644.5,6316.36 h -1823.6 v 1823.59 h 1823.6 V 6316.36"
       style="fill:#a59eff;fill-opacity:1;fill-rule:nonzero;stroke:none"
       transform="matrix(0.03527778,0,0,-0.03527778,-814.77202,378.96975)"
       clip-path="url(#clipPath593)" />
    <path
       id="path594"
       d="m 25537.5,7690.62 c 36.7,66.58 78.2,135.23 144.3,172.7 41,23.22 103.3,26.84 125.9,-14.46 12,-21.72 14.1,-55.24 38.5,-59.55 9,-1.59 18.1,2.04 26.6,5.36 62.3,24.19 143.7,29.9 186.1,-21.81 29.1,-35.46 29.4,-85.95 24.9,-131.58 -5.3,-53.07 -15.1,-105.69 -29.4,-157.07 -33.4,38.63 -83.6,57.51 -131.6,74.91 -60.9,22.07 -121.8,44.14 -182.7,66.2 -47.2,17.11 -99.1,34.32 -146.5,17.81 l -56.1,47.49"
       style="fill:#ffb753;fill-opacity:1;fill-rule:nonzero;stroke:none"
       transform="matrix(0.03527778,0,0,-0.03527778,-814.77202,378.96975)"
       clip-path="url(#clipPath595)" />
    <path
       id="path596"
       d="m 25563.9,7736.78 c 164.7,25.8 339.1,-18.24 471.9,-119.11 24.4,-18.53 49.7,-49.41 35.1,-76.34 -57.8,38.47 -116.3,77.32 -181.8,100.63 -35,12.5 -71.6,20.34 -108.2,27.16 -80.2,14.95 -161.3,25.19 -242.7,30.65 6,12.73 14.9,24.11 25.7,33.08 v 3.93"
       style="fill:#4f657f;fill-opacity:1;fill-rule:nonzero;stroke:none"
       transform="matrix(0.03527778,0,0,-0.03527778,-814.77202,378.96975)"
       clip-path="url(#clipPath597)" />
    <path
       id="path598"
       d="m 25477.4,7190.55 c -110.8,46.64 -198.1,145.64 -230.6,261.36 -8.2,29.11 -13.1,59.73 -8.5,89.62 9.7,63.38 61.4,114.26 120.4,139.24 59.1,24.99 124.9,28.16 189,27.76 134.6,-0.83 271.9,-16.6 394.1,-73.19 122.1,-56.59 228.2,-158.82 264.7,-288.41 10.8,-38.16 15,-80.82 -3.2,-116.05 -8.3,-16.02 -20.7,-29.54 -34.3,-41.41 -62.8,-55.01 -149.9,-75.77 -233.5,-73.85 -83.5,1.92 -165,24.37 -245.6,46.67 l -212.5,28.26"
       style="fill:#ffb753;fill-opacity:1;fill-rule:nonzero;stroke:none"
       transform="matrix(0.03527778,0,0,-0.03527778,-814.77202,378.96975)"
       clip-path="url(#clipPath599)" />
    <path
       id="path600"
       d="m 26180.8,6719.03 c -84.8,56.81 -187.3,79.56 -287.4,99.67 -6.1,1.23 -12.5,2.56 -17.4,6.39 -8.4,6.56 10.7,171.3 0,267.96 l -142.9,-13.38 -142.8,13.38 c -10.7,-96.66 8.4,-261.4 0,-267.96 -4.9,-3.83 -11.3,-5.16 -17.4,-6.39 -100.1,-20.11 -202.6,-42.86 -287.4,-99.67 -84.9,-56.8 -149.1,-376.15 -135.5,-477.33 85.2,0.44 323,-11.34 563.8,-14.51 v -0.52 c 6.4,0.09 12.9,0.17 19.3,0.26 6.5,-0.09 12.9,-0.17 19.4,-0.26 v 0.52 c 240.8,3.17 478.6,14.95 563.8,14.51 13.6,101.18 -50.7,420.53 -135.5,477.33"
       style="fill:#f0bf85;fill-opacity:1;fill-rule:nonzero;stroke:none"
       transform="matrix(0.03527778,0,0,-0.03527778,-814.77202,378.96975)"
       clip-path="url(#clipPath601)" />
    <path
       id="path602"
       d="m 25458.3,7351.19 c -37.3,31.12 -72.6,74.37 -72.9,122.94 -0.5,100.64 43.1,102.32 65,111.47 37.5,15.6 77.6,27.88 118,24.64 -50.3,-71.2 -86.2,-152.54 -104.9,-237.7 l -5.2,-21.35"
       style="fill:#ce7d1d;fill-opacity:1;fill-rule:nonzero;stroke:none"
       transform="matrix(0.03527778,0,0,-0.03527778,-814.77202,378.96975)"
       clip-path="url(#clipPath603)" />
    <path
       id="path604"
       d="m 25779.5,7577.97 c 60.6,-19.73 119.7,-47.02 168,-88.57 48.4,-41.55 85.3,-98.57 94.1,-161.71 3.9,-28.39 1.7,-59.02 -14.2,-82.89 -14.7,-22.07 -39.4,-35.86 -65,-42.6 -25.6,-6.74 -52.4,-7.17 -78.9,-7.55 -13.2,120.58 -46.6,238.93 -98.6,348.54 l -5.4,34.78"
       style="fill:#ce7d1d;fill-opacity:1;fill-rule:nonzero;stroke:none"
       transform="matrix(0.03527778,0,0,-0.03527778,-814.77202,378.96975)"
       clip-path="url(#clipPath605)" />
    <g
       id="g607"
       transform="matrix(0.26458333,0,0,0.26458333,-814.77202,20.455814)">
      <path
         d="m 25400.1,7096.16 c 56.3,36.29 58.8,53.71 61.5,36.29 13.3,-85.55 148.5,-291.66 271.5,-291.66 159.1,0 251.4,268.61 266.3,336.3 -183.9,-26.28 -370.2,-52.61 -554.6,-30.49 5,-4.78 10.1,-9.56 15.2,-14.34 l -59.9,-36.1"
         style="fill:#d3a06c;fill-opacity:1;fill-rule:nonzero;stroke:none"
         transform="matrix(0.13333333,0,0,-0.13333333,0,1355.0133)"
         clip-path="url(#clipPath606)"
         id="path607" />
    </g>
    <path
       id="path608"
       d="m 25523.5,7565.11 c -32.9,-110.93 -24.7,-305.31 0,-418.32 l 0.4,-1.82 c 13.4,-60.66 34.8,-121.24 75.2,-168.45 40.4,-47.22 102.5,-79.14 164.1,-70.77 59.5,8.1 109.5,52.32 138.5,104.92 29.1,52.6 40.3,113.02 48.4,172.56 14.1,103.66 10.4,378.98 0.4,379.83 -128.2,10.85 -302.2,37.11 -427,5.64 v -3.59"
       style="fill:#f0bf85;fill-opacity:1;fill-rule:nonzero;stroke:none"
       transform="matrix(0.03527778,0,0,-0.03527778,-814.77202,378.96975)"
       clip-path="url(#clipPath609)" />
    <path
       id="path610"
       d="m 25944.9,7226.17 c 3.2,22.83 30.7,37.1 52.7,30.41 22.1,-6.7 36.6,-29.6 38.3,-52.58 1.6,-22.99 -7.7,-45.61 -20.9,-64.51 -22,-31.52 -60.7,-55.99 -97.8,-46.24 5.9,47.27 14.3,94.22 25.3,140.57 l 2.4,-7.65"
       style="fill:#f0bf85;fill-opacity:1;fill-rule:nonzero;stroke:none"
       transform="matrix(0.03527778,0,0,-0.03527778,-814.77202,378.96975)"
       clip-path="url(#clipPath611)" />
    <path
       id="path612"
       d="m 25526.9,7226.17 c -3.2,22.83 -30.6,37.1 -52.7,30.41 -22,-6.7 -36.6,-29.6 -38.2,-52.58 -1.7,-22.99 7.6,-45.61 20.8,-64.51 22,-31.52 60.7,-55.99 97.9,-46.24 -5.9,47.27 -14.4,94.22 -25.4,140.57 l -2.4,-7.65"
       style="fill:#f0bf85;fill-opacity:1;fill-rule:nonzero;stroke:none"
       transform="matrix(0.03527778,0,0,-0.03527778,-814.77202,378.96975)"
       clip-path="url(#clipPath613)" />
    <path
       id="path614"
       d="m 25873,7253.52 c 0,-16.02 -11.9,-28.99 -26.5,-28.99 -14.6,0 -26.4,12.97 -26.4,28.99 0,16.01 11.8,28.99 26.4,28.99 14.6,0 26.5,-12.98 26.5,-28.99"
       style="fill:#1a1a1a;fill-opacity:1;fill-rule:nonzero;stroke:none"
       transform="matrix(0.03527778,0,0,-0.03527778,-814.77202,378.96975)"
       clip-path="url(#clipPath615)" />
    <path
       id="path616"
       d="m 25662.9,7253.52 c 0,-16.02 -11.8,-28.99 -26.4,-28.99 -14.6,0 -26.4,12.97 -26.4,28.99 0,16.01 11.8,28.99 26.4,28.99 14.6,0 26.4,-12.98 26.4,-28.99"
       style="fill:#1a1a1a;fill-opacity:1;fill-rule:nonzero;stroke:none"
       transform="matrix(0.03527778,0,0,-0.03527778,-814.77202,378.96975)"
       clip-path="url(#clipPath617)" />
    <path
       id="path618"
       d="m 25948.2,7158.07 c 14,13.95 27.9,27.9 41.9,41.85 2.8,2.84 3,8.06 0,10.86 -3.1,2.82 -7.9,3.04 -10.9,0 -13.9,-13.95 -27.9,-27.9 -41.8,-41.85 -2.9,-2.84 -3.1,-8.06 0,-10.86 3,-2.82 7.8,-3.04 10.8,0"
       style="fill:#a46e4a;fill-opacity:1;fill-rule:nonzero;stroke:none"
       transform="matrix(0.03527778,0,0,-0.03527778,-814.77202,378.96975)"
       clip-path="url(#clipPath619)" />
    <path
       id="path620"
       d="m 25958.3,7173.74 c 10.4,-8.72 20.9,-17.44 31.4,-26.15 1.6,-1.34 3.2,-2.25 5.4,-2.25 1.9,0 4.1,0.83 5.4,2.25 2.6,2.83 3.3,8.12 0,10.86 -10.4,8.72 -20.9,17.44 -31.4,26.15 -1.6,1.34 -3.3,2.25 -5.4,2.25 -1.9,0 -4.1,-0.83 -5.4,-2.25 -2.6,-2.83 -3.3,-8.12 0,-10.86"
       style="fill:#a46e4a;fill-opacity:1;fill-rule:nonzero;stroke:none"
       transform="matrix(0.03527778,0,0,-0.03527778,-814.77202,378.96975)"
       clip-path="url(#clipPath621)" />
    <path
       id="path622"
       d="m 25461.4,7194.74 c 15.7,-19.17 31.4,-38.33 47.1,-57.5 2.6,-3.21 8.1,-2.73 10.9,0 3.1,3.18 2.6,7.65 0,10.87 -15.7,19.16 -31.5,38.33 -47.2,57.49 -2.6,3.21 -8.1,2.73 -10.8,0 -3.2,-3.17 -2.7,-7.64 0,-10.86"
       style="fill:#a46e4a;fill-opacity:1;fill-rule:nonzero;stroke:none"
       transform="matrix(0.03527778,0,0,-0.03527778,-814.77202,378.96975)"
       clip-path="url(#clipPath623)" />
    <path
       id="path624"
       d="m 25481.1,7151.63 c 5.2,3.49 10.4,6.98 15.7,10.47 1.6,1.11 2.9,2.61 3.5,4.59 0.5,1.84 0.3,4.29 -0.8,5.92 -1,1.64 -2.6,3.08 -4.6,3.53 -1.9,0.44 -4.2,0.37 -5.9,-0.77 -5.2,-3.49 -10.5,-6.98 -15.7,-10.47 -1.7,-1.11 -3,-2.61 -3.5,-4.59 -0.5,-1.84 -0.3,-4.29 0.8,-5.92 1,-1.64 2.6,-3.08 4.5,-3.53 2,-0.45 4.2,-0.37 6,0.77"
       style="fill:#a46e4a;fill-opacity:1;fill-rule:nonzero;stroke:none"
       transform="matrix(0.03527778,0,0,-0.03527778,-814.77202,378.96975)"
       clip-path="url(#clipPath625)" />
    <path
       id="path626"
       d="m 25628.6,7068.57 c -1.6,-4.77 -3.1,-9.55 -4.6,-14.32 8.2,7.51 22.5,6.97 30.1,-1.14 5.7,5.51 13.2,9.16 21.1,10.28 -0.6,-7.47 1.5,-15.11 5.8,-21.26 6.8,8.71 17.3,14.47 28.3,15.56 3.4,-4.93 6.7,-9.86 10,-14.78 2.6,14.72 23.9,21.89 34.9,11.77 5.4,-5 11.9,-13.55 17.8,-9.16 2.9,2.11 3.2,6.26 5.4,9.04 10.2,12.81 31.8,-18.54 43.8,-7.45 -0.2,8.67 1.3,17.38 4.4,25.5 13.3,-12.1 31.1,-19.15 49.1,-19.46 -17,49.17 -66.5,86.26 -118.5,86.24 -120.3,-0.03 -127.6,-70.82 -127.6,-70.82"
       style="fill:#7c7a79;fill-opacity:1;fill-rule:nonzero;stroke:none"
       transform="matrix(0.03527778,0,0,-0.03527778,-814.77202,378.96975)"
       clip-path="url(#clipPath627)" />
    <path
       id="path628"
       d="m 25738.4,7301.16 c 23.7,-53.09 41.2,-108.78 52.5,-165.78 2.5,3.25 5,6.49 7.4,9.73 -19.5,-1.24 -37.7,6.48 -50.4,21.3 -6.5,7.51 -17.3,-3.4 -10.9,-10.87 15.1,-17.6 38.2,-27.27 61.3,-25.8 5.3,0.33 8.5,4.63 7.4,9.73 -11.6,58.36 -29.8,115.11 -54,169.45 -4,9.01 -17.3,1.21 -13.3,-7.76"
       style="fill:#a46e4a;fill-opacity:1;fill-rule:nonzero;stroke:none"
       transform="matrix(0.03527778,0,0,-0.03527778,-814.77202,378.96975)"
       clip-path="url(#clipPath629)" />
    <path
       id="path630"
       d="m 25689.2,7408.16 c 6,-13.78 11.8,-30.13 4.2,-43.08 -5.6,-9.68 -17,-14.13 -27.6,-17.9 -33.6,-12.04 -67.3,-24.08 -100.9,-36.12 8.2,50.39 54.8,91.8 105.8,94.04 l 18.5,3.06"
       style="fill:#7c7a79;fill-opacity:1;fill-rule:nonzero;stroke:none"
       transform="matrix(0.03527778,0,0,-0.03527778,-814.77202,378.96975)"
       clip-path="url(#clipPath631)" />
    <path
       id="path632"
       d="m 25822.4,7405.02 c -5.3,-17.7 -10.4,-38.7 -3.7,-55.33 5,-12.43 15,-18.14 24.3,-22.99 29.7,-15.46 59.4,-30.91 89.1,-46.37 -7.2,64.71 -48.3,117.88 -93.4,120.76 l -16.3,3.93"
       style="fill:#7c7a79;fill-opacity:1;fill-rule:nonzero;stroke:none"
       transform="matrix(0.03527778,0,0,-0.03527778,-814.77202,378.96975)"
       clip-path="url(#clipPath633)" />
    <path
       id="path634"
       d="m 25727.8,7021.82 c 14.9,-18.62 49.1,-14.37 59.2,7.11 1.7,3.63 1.2,8.46 -2.7,10.52 -3.4,1.8 -8.7,1.12 -10.5,-2.76 -0.5,-0.98 -1,-1.94 -1.6,-2.85 l -0.9,-1.32 c 1.1,1.62 0.2,0.27 -0.1,-0.09 l -2.3,-2.22 c -0.7,-0.64 -1.1,-0.77 -0.1,-0.12 l -1.3,-0.9 c -0.9,-0.58 -1.9,-1.11 -2.8,-1.58 -0.9,-0.43 -1.3,-0.55 -0.1,-0.11 l -1.6,-0.57 c -1,-0.36 -2,-0.66 -3.1,-0.91 l -1.6,-0.34 -1,-0.18 c 1,0.13 1.3,0.17 0.7,0.1 -2.2,-0.01 -4.3,-0.19 -6.5,-0.06 -1.8,0.11 0.5,-0.18 -0.1,0 l -1.6,0.31 c -1,0.23 -2.1,0.51 -3.1,0.86 -0.2,0.07 -2,0.71 -0.8,0.27 1.1,-0.43 -0.5,0.27 -0.8,0.39 -0.9,0.48 -1.8,1.05 -2.7,1.61 -1.4,0.87 0.3,-0.36 -0.2,0.06 l -1.2,1.06 c -0.8,0.8 -1.6,1.67 -2.3,2.59 -2.6,3.15 -8.3,2.83 -10.9,0 -3.1,-3.35 -2.7,-7.5 0,-10.87"
       style="fill:#a46e4a;fill-opacity:1;fill-rule:nonzero;stroke:none"
       transform="matrix(0.03527778,0,0,-0.03527778,-814.77202,378.96975)"
       clip-path="url(#clipPath635)" />
    <path
       id="path636"
       d="m 25587.7,6829.85 c 87.5,-32.14 186.2,-64.05 270.9,-25.02 12,5.53 23.5,12.45 36.5,15.04 14.6,2.94 29.8,0.03 44.3,-3.65 41.1,-10.44 80.6,-27.23 116.7,-49.6 -37.2,-62.27 -81.4,-123.72 -144.8,-159 -85,-47.31 -188.7,-39.66 -285.6,-30.69 -48.5,4.5 -96.9,8.99 -145.4,13.48 -16.5,1.53 -33.7,3.32 -47.5,12.49 -12,7.96 -19.9,20.58 -27.2,32.96 -22.7,38.53 -42.8,78.58 -60.1,119.81 79.8,24.91 160.6,46.47 242.3,64.6 l -0.1,9.58"
       style="fill:#ffffff;fill-opacity:1;fill-rule:nonzero;stroke:none"
       transform="matrix(0.03527778,0,0,-0.03527778,-814.77202,378.96975)"
       clip-path="url(#clipPath637)" />
    <path
       id="path638"
       d="m 26187.6,6725.79 c -51.8,34.69 -110.1,56.85 -170.4,73.48 -9.6,-17.29 -151.5,-123.21 -232.7,-183.03 -33.4,-24.58 -79.2,-23.06 -110.9,3.66 -52.4,44.18 -131.3,114.57 -185.9,180.67 -44.3,-14.89 -172,-48.76 -210.8,-74.78 -86.3,-57.79 -151.7,-378.83 -137.8,-481.75 86.6,0.44 328.5,-11.37 573.5,-14.59 v -0.53 c 6.5,0.09 13.1,0.18 19.6,0.27 6.6,-0.09 13.2,-0.18 19.7,-0.27 v 0.53 c 245,3.22 488.7,-22.63 575.4,-23.08 13.8,102.92 -53.4,461.63 -139.7,519.42"
       style="fill:#8ca3c3;fill-opacity:1;fill-rule:nonzero;stroke:none"
       transform="matrix(0.03527778,0,0,-0.03527778,-814.77202,378.96975)"
       clip-path="url(#clipPath639)" />
    <g
       id="g663"
       transform="matrix(0.26458333,0,0,0.26458333,-814.77202,20.455814)">
      <path
         d="m 25433.4,6795.87 c 74.7,-83.17 158.6,-158.12 249.6,-223.07 11.1,-7.93 22.6,-15.84 35.7,-19.56 17.1,-4.82 35.3,-2.16 52.3,2.61 78.7,22.05 137.9,85.32 192.8,145.85 30.5,33.69 61.1,67.39 91.6,101.08 -17.2,13.81 -42.6,13.22 -63,4.77 -20.5,-8.45 -37.4,-23.5 -54.5,-37.52 -46.5,-38.04 -97.8,-70.24 -152.2,-95.61 -14.8,-6.88 -30.5,-13.39 -46.7,-12.38 -30.9,1.91 -53.1,29.28 -71.3,54.3 -19.2,26.47 -38.4,52.94 -57.6,79.4 -24.8,34.12 -61.2,72.53 -101.5,60.28 l -75.2,-60.15"
         style="fill:#4f657f;fill-opacity:1;fill-rule:nonzero;stroke:none"
         transform="matrix(0.13333333,0,0,-0.13333333,0,1355.0133)"
         clip-path="url(#clipPath640)"
         id="path652" />
      <path
         d="m 26082.3,6476.22 c 14.8,-89.41 22,-180.03 21.6,-270.65 -0.1,-25.96 -0.8,-51.92 -2.1,-77.85 -0.6,-9.89 14.8,-9.86 15.3,0 4.7,92.02 1.7,184.4 -9.1,275.91 -3,25.64 -6.6,51.2 -10.8,76.68 -1.6,9.73 -16.4,5.6 -14.9,-4.09"
         style="fill:#4f657f;fill-opacity:1;fill-rule:nonzero;stroke:none"
         transform="matrix(0.13333333,0,0,-0.13333333,0,1355.0133)"
         clip-path="url(#clipPath641)"
         id="path653" />
      <path
         d="m 25331.1,6504.62 c 9.5,-97.43 13.4,-195.38 11.7,-293.25 -0.5,-27.85 -1.5,-55.68 -2.9,-83.49 -0.5,-9.88 14.9,-9.86 15.4,0 4.9,97.77 4.3,195.79 -2.1,293.48 -1.8,27.79 -4,55.54 -6.7,83.26 -1,9.75 -16.4,9.85 -15.4,0"
         style="fill:#4f657f;fill-opacity:1;fill-rule:nonzero;stroke:none"
         transform="matrix(0.13333333,0,0,-0.13333333,0,1355.0133)"
         clip-path="url(#clipPath642)"
         id="path654" />
      <path
         d="m 25574.7,6284.06 c 77.4,52.88 169.7,81.97 263.5,82.72 9.8,0.08 9.9,15.45 0,15.37 -74.8,-0.6 -149,-18.6 -215.9,-52.12 -19.2,-9.63 -37.7,-20.58 -55.4,-32.7 -8.1,-5.54 -0.4,-18.87 7.8,-13.27"
         style="fill:#4f657f;fill-opacity:1;fill-rule:nonzero;stroke:none"
         transform="matrix(0.13333333,0,0,-0.13333333,0,1355.0133)"
         clip-path="url(#clipPath643)"
         id="path655" />
      <path
         d="m 25674.6,6272.8 c 34.6,17.17 71,30.24 108.5,39.21 9.6,2.3 5.5,17.12 -4.1,14.82 -38.8,-9.27 -76.4,-23.01 -112.1,-40.76 -8.9,-4.4 -1.1,-17.66 7.7,-13.27"
         style="fill:#4f657f;fill-opacity:1;fill-rule:nonzero;stroke:none"
         transform="matrix(0.13333333,0,0,-0.13333333,0,1355.0133)"
         clip-path="url(#clipPath644)"
         id="path656" />
      <path
         d="m 26187.3,6544.45 c 7.2,-19.62 10.4,-40.17 9.4,-61.04 -0.2,-4.15 3.7,-7.68 7.7,-7.68 4.3,0 7.5,3.52 7.7,7.68 1,22.08 -2.4,44.37 -10,65.12 -1.4,3.9 -5.2,6.54 -9.4,5.37 -3.8,-1.03 -6.8,-5.53 -5.4,-9.45"
         style="fill:#4f657f;fill-opacity:1;fill-rule:nonzero;stroke:none"
         transform="matrix(0.13333333,0,0,-0.13333333,0,1355.0133)"
         clip-path="url(#clipPath645)"
         id="path657" />
      <path
         d="m 26229.4,6502.62 c 3.2,-10.57 6.3,-21.14 9.4,-31.71 1.1,-3.85 5.4,-6.66 9.4,-5.37 3.9,1.26 6.6,5.32 5.4,9.45 -3.1,10.57 -6.2,21.15 -9.3,31.72 -1.2,3.85 -5.5,6.66 -9.5,5.37 -3.9,-1.27 -6.6,-5.33 -5.4,-9.46"
         style="fill:#4f657f;fill-opacity:1;fill-rule:nonzero;stroke:none"
         transform="matrix(0.13333333,0,0,-0.13333333,0,1355.0133)"
         clip-path="url(#clipPath646)"
         id="path658" />
      <path
         d="m 26266.1,6397.97 c 2.9,-10.63 5.8,-21.25 8.6,-31.87 1.1,-3.88 5.6,-6.65 9.5,-5.37 4,1.29 6.5,5.3 5.4,9.45 -2.9,10.63 -5.8,21.25 -8.7,31.87 -1.1,3.88 -5.5,6.65 -9.5,5.37 -3.9,-1.28 -6.5,-5.3 -5.3,-9.45"
         style="fill:#4f657f;fill-opacity:1;fill-rule:nonzero;stroke:none"
         transform="matrix(0.13333333,0,0,-0.13333333,0,1355.0133)"
         clip-path="url(#clipPath647)"
         id="path659" />
      <path
         d="m 26211.6,6376.58 c 2.1,-13.89 4.2,-27.78 6.4,-41.67 0.6,-3.99 5.8,-6.54 9.4,-5.37 4.4,1.41 6,5.18 5.4,9.45 -2.1,13.89 -4.3,27.79 -6.4,41.68 -0.6,3.98 -5.8,6.54 -9.5,5.36 -4.3,-1.4 -6,-5.18 -5.3,-9.45"
         style="fill:#4f657f;fill-opacity:1;fill-rule:nonzero;stroke:none"
         transform="matrix(0.13333333,0,0,-0.13333333,0,1355.0133)"
         clip-path="url(#clipPath648)"
         id="path660" />
      <path
         d="m 25186.8,6376.67 c 2.6,-19.61 1.4,-39.77 -3.2,-58.99 -2.3,-9.62 12.5,-13.72 14.8,-4.09 5.3,22.11 6.2,44.67 3.2,67.17 -0.6,4.12 -5.8,6.36 -9.5,5.37 -4.4,-1.23 -5.9,-5.33 -5.3,-9.46"
         style="fill:#4f657f;fill-opacity:1;fill-rule:nonzero;stroke:none"
         transform="matrix(0.13333333,0,0,-0.13333333,0,1355.0133)"
         clip-path="url(#clipPath649)"
         id="path661" />
      <path
         d="m 25224.7,6417.32 c -1.8,-12.19 -3.7,-24.38 -5.5,-36.57 -0.6,-3.96 1,-8.46 5.4,-9.45 3.6,-0.84 8.8,1.12 9.4,5.37 1.9,12.19 3.7,24.38 5.6,36.57 0.6,3.95 -1,8.45 -5.4,9.45 -3.7,0.83 -8.8,-1.12 -9.5,-5.37"
         style="fill:#4f657f;fill-opacity:1;fill-rule:nonzero;stroke:none"
         transform="matrix(0.13333333,0,0,-0.13333333,0,1355.0133)"
         clip-path="url(#clipPath650)"
         id="path662" />
      <path
         d="m 25222.6,6522.39 c -3,-12.33 -5.9,-24.67 -8.9,-37 -0.9,-3.9 1.3,-8.51 5.4,-9.45 3.9,-0.9 8.4,1.18 9.4,5.36 3,12.34 6,24.67 8.9,37.01 0.9,3.9 -1.2,8.51 -5.4,9.45 -3.9,0.9 -8.4,-1.19 -9.4,-5.37"
         style="fill:#4f657f;fill-opacity:1;fill-rule:nonzero;stroke:none"
         transform="matrix(0.13333333,0,0,-0.13333333,0,1355.0133)"
         clip-path="url(#clipPath651)"
         id="path663" />
    </g>
    <path
       id="path664"
       d="m 25758.4,6779.03 c -41.5,-19.38 -74.2,-56.85 -87.8,-100.64 -25.6,21.65 -50.7,44.5 -68.7,72.7 -18.1,28.21 -28.4,62.69 -21.8,95.5 86.4,-66.23 215.7,-69.51 305.4,-7.74 11.1,-48.81 1.4,-102.01 -26.2,-143.78 -31.7,34.15 -71.2,60.97 -114.6,77.76 l 13.7,6.2"
       style="fill:#8ca3c3;fill-opacity:1;fill-rule:nonzero;stroke:none"
       transform="matrix(0.03527778,0,0,-0.03527778,-814.77202,378.96975)"
       clip-path="url(#clipPath665)" />
    <path
       id="path666"
       d="m 25735.1,6732.27 c 5,-34.91 10,-69.83 15,-104.74 0.5,-4.14 5.8,-6.32 9.4,-5.36 4.4,1.17 6,5.36 5.4,9.45 -5,34.91 -10,69.82 -15,104.73 -0.6,4.14 -5.8,6.33 -9.5,5.37 -4.4,-1.17 -5.9,-5.37 -5.3,-9.45"
       style="fill:#8ca3c3;fill-opacity:1;fill-rule:nonzero;stroke:none"
       transform="matrix(0.03527778,0,0,-0.03527778,-814.77202,378.96975)"
       clip-path="url(#clipPath667)" />
    <path
       id="path668"
       d="m 25766.4,7557.73 c -25.6,1.91 -44,-22.68 -49.4,-45.08 -5.4,-22.66 -0.8,-49.62 18.7,-64.37 16.5,-12.5 41.9,-13.79 58.1,-0.25 8.2,6.75 14.4,18.17 10.8,28.83 -3,9.17 -12.5,13.72 -21.6,14.02 -10.9,0.36 -21.3,-5.27 -26.4,-15.03 -7.2,-13.83 -4.4,-29.95 -1.3,-44.49 2.1,-9.66 16.9,-5.57 14.8,4.09 -2.5,11.66 -7.8,37.07 9.6,39.89 3.2,0.52 9.1,0.32 10.5,-3.42 2.1,-5.73 -5.9,-12.54 -10.2,-14.87 -11.2,-5.99 -26.5,-3.72 -36.1,4.21 -12.7,10.47 -15.7,29.35 -12.6,44.74 3.4,16.76 15.3,37.84 35.1,36.37 9.8,-0.74 9.8,14.63 0,15.36"
       style="fill:#7c7a79;fill-opacity:1;fill-rule:nonzero;stroke:none"
       transform="matrix(0.03527778,0,0,-0.03527778,-814.77202,378.96975)"
       clip-path="url(#clipPath669)" />
    <path
       id="path670"
       d="m 25617.1,7177.79 c 10.4,6.98 20.9,13.95 31.4,20.93 3.3,2.22 5.1,6.88 2.7,10.51 -2.1,3.33 -6.9,5.14 -10.5,2.76 -10.4,-6.98 -20.9,-13.95 -31.4,-20.93 -3.3,-2.23 -5.1,-6.88 -2.7,-10.51 2.1,-3.33 6.9,-5.14 10.5,-2.76"
       style="fill:#a46e4a;fill-opacity:1;fill-rule:nonzero;stroke:none"
       transform="matrix(0.03527778,0,0,-0.03527778,-814.77202,378.96975)"
       clip-path="url(#clipPath671)" />
    <path
       id="path672"
       d="m 25820.6,7198.91 c 8.7,-1.83 17.4,-3.66 26.1,-5.49 3.9,-0.83 8.5,1.15 9.5,5.36 0.9,3.86 -1.2,8.57 -5.4,9.45 -8.7,1.84 -17.4,3.67 -26.1,5.5 -3.9,0.82 -8.5,-1.15 -9.4,-5.37 -0.9,-3.85 1.1,-8.57 5.3,-9.45"
       style="fill:#a46e4a;fill-opacity:1;fill-rule:nonzero;stroke:none"
       transform="matrix(0.03527778,0,0,-0.03527778,-814.77202,378.96975)"
       clip-path="url(#clipPath673)" />
    <path
       id="path674"
       d="m 26051.8,7429.44 c -9.4,43.53 -52.2,108.23 -113.6,151.81 -71.8,50.85 -154.3,108.09 -243.1,116.76 -10.4,1.02 -20.9,-1.92 -28.7,-8.53 l -0.2,-0.1 c -63.6,40.49 -163.4,11.57 -192.1,-55.68 -3.7,-8.78 -6.4,-18.04 -11.7,-26.07 -7.9,-11.98 -20.8,-20.11 -31.1,-30.34 -38.5,-38.31 -31.3,-108.68 14.3,-139.3 -29.6,-27.08 -26.6,-79.06 6,-102.86 -4.2,-28.37 12.4,-58.42 39.4,-71.45 l -8.8,-12.72 c 40.5,-0.89 70.1,41.08 68.9,79.39 -1.3,38.31 -24.1,72.63 -46.1,104.83 44.3,-4.78 82.8,46.75 63.2,84.57 21.9,-6.97 45.1,-14.02 67.7,-9.51 22.7,4.5 43.4,25.27 38,46.51 27,-42.73 98.1,-52.17 136.5,-18.14 3.2,-32.62 45.5,-55.71 77,-42.04 -25.3,-14.31 -35.7,-48.18 -22.3,-73.02 13.4,-24.84 48.5,-36.84 75.6,-25.88 -21.4,-31.38 -13.1,-77.69 18.1,-100.65 -15,-8.15 -6.2,-33.47 10.8,-35.9 17.1,-2.44 32.7,11.99 36.8,27.81 4.1,15.81 -0.3,32.36 -4.6,48.13 40.2,3.72 65.3,54.66 42.5,86.14 2.6,1.95 5.1,4.06 7.5,6.24"
       style="fill:#7c7a79;fill-opacity:1;fill-rule:nonzero;stroke:none"
       transform="matrix(0.03527778,0,0,-0.03527778,-814.77202,378.96975)"
       clip-path="url(#clipPath675)" />
    <path
       id="path676"
       d="m 25384.9,7523.55 c 51.3,87.08 132.4,121.6 210.8,114.74 78.5,-6.87 158.2,-28.15 226.5,-69.29 228.7,-137.66 260.4,-261.74 259.4,-342.56 21.7,110.69 21.4,241.67 -52,325.7 -73.4,84.02 -175.3,135.61 -280,162.06 -154.9,39.15 -367.4,30.86 -472.2,-93.33 l 107.5,-97.32"
       style="fill:#ffb753;fill-opacity:1;fill-rule:nonzero;stroke:none"
       transform="matrix(0.03527778,0,0,-0.03527778,-814.77202,378.96975)"
       clip-path="url(#clipPath677)" />
  </g>
</svg>
