<?xml version="1.0" encoding="UTF-8" standalone="no"?>
<!-- Created with Inkscape (http://www.inkscape.org/) -->

<svg
   width="64.332558mm"
   height="64.331856mm"
   viewBox="0 0 64.332558 64.331856"
   version="1.1"
   id="svg1"
   inkscape:version="1.3.2 (091e20e, 2023-11-25)"
   sodipodi:docname="yellow-kid-avatar.svg"
   xmlns:inkscape="http://www.inkscape.org/namespaces/inkscape"
   xmlns:sodipodi="http://sodipodi.sourceforge.net/DTD/sodipodi-0.dtd"
   xmlns="http://www.w3.org/2000/svg"
   xmlns:svg="http://www.w3.org/2000/svg">
  <sodipodi:namedview
     id="namedview1"
     pagecolor="#ffffff"
     bordercolor="#000000"
     borderopacity="0.25"
     inkscape:showpageshadow="2"
     inkscape:pageopacity="0.0"
     inkscape:pagecheckerboard="0"
     inkscape:deskcolor="#d1d1d1"
     inkscape:document-units="mm"
     inkscape:zoom="0.48061286"
     inkscape:cx="100.91282"
     inkscape:cy="369.32012"
     inkscape:window-width="1920"
     inkscape:window-height="1052"
     inkscape:window-x="0"
     inkscape:window-y="28"
     inkscape:window-maximized="0"
     inkscape:current-layer="layer1" />
  <defs
     id="defs1">
    <clipPath
       clipPathUnits="userSpaceOnUse"
       id="clipPath2427">
      <path
         d="m 35322.2,7228.16 c 0,-503.58 -408.2,-911.79 -911.8,-911.79 -503.5,0 -911.8,408.21 -911.8,911.79 0,503.56 408.3,911.79 911.8,911.79 503.6,0 911.8,-408.23 911.8,-911.79"
         transform="translate(0,-2.5e-4)"
         id="path2427" />
    </clipPath>
    <clipPath
       clipPathUnits="userSpaceOnUse"
       id="clipPath2429">
      <path
         d="m 35322.2,7228.16 c 0,-503.58 -408.2,-911.79 -911.8,-911.79 -503.5,0 -911.8,408.21 -911.8,911.79 0,503.56 408.3,911.79 911.8,911.79 503.6,0 911.8,-408.23 911.8,-911.79"
         transform="translate(0,-2.5e-4)"
         id="path2429" />
    </clipPath>
    <clipPath
       clipPathUnits="userSpaceOnUse"
       id="clipPath2431">
      <path
         d="m 35322.2,7228.16 c 0,-503.58 -408.2,-911.79 -911.8,-911.79 -503.5,0 -911.8,408.21 -911.8,911.79 0,503.56 408.3,911.79 911.8,911.79 503.6,0 911.8,-408.23 911.8,-911.79"
         transform="translate(0,-2.5e-4)"
         id="path2431" />
    </clipPath>
    <clipPath
       clipPathUnits="userSpaceOnUse"
       id="clipPath2432">
      <path
         d="m 34870.7,6740.2 c -89.4,59.87 -197.4,83.84 -302.9,105.03 -6.4,1.29 -13.1,2.69 -18.3,6.73 -8.8,6.92 11.3,83.35 0,185.23 l -150.5,-14.11 -150.6,14.11 c -11.3,-101.88 8.8,-178.31 0,-185.23 -5.2,-4.04 -11.9,-5.44 -18.3,-6.73 -105.5,-21.19 -213.5,-45.16 -302.9,-105.03 -89.4,-59.87 -157.1,-396.42 -142.8,-503.05 89.8,0.47 340.3,-11.95 594.2,-15.3 v -0.55 c 6.8,0.1 13.6,0.19 20.4,0.28 6.8,-0.09 13.5,-0.18 20.3,-0.28 v 0.55 c 253.9,3.35 504.4,15.77 594.2,15.3 14.4,106.63 -53.4,443.18 -142.8,503.05"
         transform="translate(0,-2.5e-4)"
         id="path2432" />
    </clipPath>
    <clipPath
       clipPathUnits="userSpaceOnUse"
       id="clipPath2435">
      <path
         d="m 35322.2,7228.16 c 0,-503.58 -408.2,-911.79 -911.8,-911.79 -503.5,0 -911.8,408.21 -911.8,911.79 0,503.56 408.3,911.79 911.8,911.79 503.6,0 911.8,-408.23 911.8,-911.79"
         transform="translate(0,-2.5e-4)"
         id="path2435" />
    </clipPath>
    <clipPath
       clipPathUnits="userSpaceOnUse"
       id="clipPath2437">
      <path
         d="m 35322.2,7228.16 c 0,-503.58 -408.2,-911.79 -911.8,-911.79 -503.5,0 -911.8,408.21 -911.8,911.79 0,503.56 408.3,911.79 911.8,911.79 503.6,0 911.8,-408.23 911.8,-911.79"
         transform="translate(0,-2.5e-4)"
         id="path2437" />
    </clipPath>
    <clipPath
       clipPathUnits="userSpaceOnUse"
       id="clipPath2439">
      <path
         d="m 35322.2,7228.16 c 0,-503.58 -408.2,-911.79 -911.8,-911.79 -503.5,0 -911.8,408.21 -911.8,911.79 0,503.56 408.3,911.79 911.8,911.79 503.6,0 911.8,-408.23 911.8,-911.79"
         transform="translate(0,-2.5e-4)"
         id="path2439" />
    </clipPath>
    <clipPath
       clipPathUnits="userSpaceOnUse"
       id="clipPath2441">
      <path
         d="m 35322.2,7228.16 c 0,-503.58 -408.2,-911.79 -911.8,-911.79 -503.5,0 -911.8,408.21 -911.8,911.79 0,503.56 408.3,911.79 911.8,911.79 503.6,0 911.8,-408.23 911.8,-911.79"
         transform="translate(0,-2.5e-4)"
         id="path2441" />
    </clipPath>
    <clipPath
       clipPathUnits="userSpaceOnUse"
       id="clipPath2443">
      <path
         d="m 35322.2,7228.16 c 0,-503.58 -408.2,-911.79 -911.8,-911.79 -503.5,0 -911.8,408.21 -911.8,911.79 0,503.56 408.3,911.79 911.8,911.79 503.6,0 911.8,-408.23 911.8,-911.79"
         transform="translate(0,-2.5e-4)"
         id="path2443" />
    </clipPath>
    <clipPath
       clipPathUnits="userSpaceOnUse"
       id="clipPath2445">
      <path
         d="m 35322.2,7228.16 c 0,-503.58 -408.2,-911.79 -911.8,-911.79 -503.5,0 -911.8,408.21 -911.8,911.79 0,503.56 408.3,911.79 911.8,911.79 503.6,0 911.8,-408.23 911.8,-911.79"
         transform="translate(0,-2.5e-4)"
         id="path2445" />
    </clipPath>
    <clipPath
       clipPathUnits="userSpaceOnUse"
       id="clipPath2447">
      <path
         d="m 35322.2,7228.16 c 0,-503.58 -408.2,-911.79 -911.8,-911.79 -503.5,0 -911.8,408.21 -911.8,911.79 0,503.56 408.3,911.79 911.8,911.79 503.6,0 911.8,-408.23 911.8,-911.79"
         transform="translate(0,-2.5e-4)"
         id="path2447" />
    </clipPath>
    <clipPath
       clipPathUnits="userSpaceOnUse"
       id="clipPath2449">
      <path
         d="m 35322.2,7228.16 c 0,-503.58 -408.2,-911.79 -911.8,-911.79 -503.5,0 -911.8,408.21 -911.8,911.79 0,503.56 408.3,911.79 911.8,911.79 503.6,0 911.8,-408.23 911.8,-911.79"
         transform="translate(0,-2.5e-4)"
         id="path2449" />
    </clipPath>
    <clipPath
       clipPathUnits="userSpaceOnUse"
       id="clipPath2451">
      <path
         d="m 35322.2,7228.16 c 0,-503.58 -408.2,-911.79 -911.8,-911.79 -503.5,0 -911.8,408.21 -911.8,911.79 0,503.56 408.3,911.79 911.8,911.79 503.6,0 911.8,-408.23 911.8,-911.79"
         transform="translate(0,-2.5e-4)"
         id="path2451" />
    </clipPath>
    <clipPath
       clipPathUnits="userSpaceOnUse"
       id="clipPath2453">
      <path
         d="m 35322.2,7228.16 c 0,-503.58 -408.2,-911.79 -911.8,-911.79 -503.5,0 -911.8,408.21 -911.8,911.79 0,503.56 408.3,911.79 911.8,911.79 503.6,0 911.8,-408.23 911.8,-911.79"
         transform="translate(0,-2.5e-4)"
         id="path2453" />
    </clipPath>
    <clipPath
       clipPathUnits="userSpaceOnUse"
       id="clipPath2455">
      <path
         d="m 35322.2,7228.16 c 0,-503.58 -408.2,-911.79 -911.8,-911.79 -503.5,0 -911.8,408.21 -911.8,911.79 0,503.56 408.3,911.79 911.8,911.79 503.6,0 911.8,-408.23 911.8,-911.79"
         transform="translate(0,-2.5e-4)"
         id="path2455" />
    </clipPath>
    <clipPath
       clipPathUnits="userSpaceOnUse"
       id="clipPath2457">
      <path
         d="m 35322.2,7228.16 c 0,-503.58 -408.2,-911.79 -911.8,-911.79 -503.5,0 -911.8,408.21 -911.8,911.79 0,503.56 408.3,911.79 911.8,911.79 503.6,0 911.8,-408.23 911.8,-911.79"
         transform="translate(0,-2.5e-4)"
         id="path2457" />
    </clipPath>
    <clipPath
       clipPathUnits="userSpaceOnUse"
       id="clipPath2459">
      <path
         d="m 35322.2,7228.16 c 0,-503.58 -408.2,-911.79 -911.8,-911.79 -503.5,0 -911.8,408.21 -911.8,911.79 0,503.56 408.3,911.79 911.8,911.79 503.6,0 911.8,-408.23 911.8,-911.79"
         transform="translate(0,-2.5e-4)"
         id="path2459" />
    </clipPath>
    <clipPath
       clipPathUnits="userSpaceOnUse"
       id="clipPath2461">
      <path
         d="m 35322.2,7228.16 c 0,-503.58 -408.2,-911.79 -911.8,-911.79 -503.5,0 -911.8,408.21 -911.8,911.79 0,503.56 408.3,911.79 911.8,911.79 503.6,0 911.8,-408.23 911.8,-911.79"
         transform="translate(0,-2.5e-4)"
         id="path2461" />
    </clipPath>
    <clipPath
       clipPathUnits="userSpaceOnUse"
       id="clipPath2463">
      <path
         d="m 35322.2,7228.16 c 0,-503.58 -408.2,-911.79 -911.8,-911.79 -503.5,0 -911.8,408.21 -911.8,911.79 0,503.56 408.3,911.79 911.8,911.79 503.6,0 911.8,-408.23 911.8,-911.79"
         transform="translate(0,-2.5e-4)"
         id="path2463" />
    </clipPath>
    <clipPath
       clipPathUnits="userSpaceOnUse"
       id="clipPath2465">
      <path
         d="m 35322.2,7228.16 c 0,-503.58 -408.2,-911.79 -911.8,-911.79 -503.5,0 -911.8,408.21 -911.8,911.79 0,503.56 408.3,911.79 911.8,911.79 503.6,0 911.8,-408.23 911.8,-911.79"
         transform="translate(0,-2.5e-4)"
         id="path2465" />
    </clipPath>
    <clipPath
       clipPathUnits="userSpaceOnUse"
       id="clipPath2467">
      <path
         d="m 35322.2,7228.16 c 0,-503.58 -408.2,-911.79 -911.8,-911.79 -503.5,0 -911.8,408.21 -911.8,911.79 0,503.56 408.3,911.79 911.8,911.79 503.6,0 911.8,-408.23 911.8,-911.79"
         transform="translate(0,-2.5e-4)"
         id="path2467" />
    </clipPath>
    <clipPath
       clipPathUnits="userSpaceOnUse"
       id="clipPath2469">
      <path
         d="m 35322.2,7228.16 c 0,-503.58 -408.2,-911.79 -911.8,-911.79 -503.5,0 -911.8,408.21 -911.8,911.79 0,503.56 408.3,911.79 911.8,911.79 503.6,0 911.8,-408.23 911.8,-911.79"
         transform="translate(0,-2.5e-4)"
         id="path2469" />
    </clipPath>
    <clipPath
       clipPathUnits="userSpaceOnUse"
       id="clipPath2471">
      <path
         d="m 35322.2,7228.16 c 0,-503.58 -408.2,-911.79 -911.8,-911.79 -503.5,0 -911.8,408.21 -911.8,911.79 0,503.56 408.3,911.79 911.8,911.79 503.6,0 911.8,-408.23 911.8,-911.79"
         transform="translate(0,-2.5e-4)"
         id="path2471" />
    </clipPath>
    <clipPath
       clipPathUnits="userSpaceOnUse"
       id="clipPath2473">
      <path
         d="m 35322.2,7228.16 c 0,-503.58 -408.2,-911.79 -911.8,-911.79 -503.5,0 -911.8,408.21 -911.8,911.79 0,503.56 408.3,911.79 911.8,911.79 503.6,0 911.8,-408.23 911.8,-911.79"
         transform="translate(0,-2.5e-4)"
         id="path2473" />
    </clipPath>
    <clipPath
       clipPathUnits="userSpaceOnUse"
       id="clipPath2475">
      <path
         d="m 35322.2,7228.16 c 0,-503.58 -408.2,-911.79 -911.8,-911.79 -503.5,0 -911.8,408.21 -911.8,911.79 0,503.56 408.3,911.79 911.8,911.79 503.6,0 911.8,-408.23 911.8,-911.79"
         transform="translate(0,-2.5e-4)"
         id="path2475" />
    </clipPath>
    <clipPath
       clipPathUnits="userSpaceOnUse"
       id="clipPath2477">
      <path
         d="m 35322.2,7228.16 c 0,-503.58 -408.2,-911.79 -911.8,-911.79 -503.5,0 -911.8,408.21 -911.8,911.79 0,503.56 408.3,911.79 911.8,911.79 503.6,0 911.8,-408.23 911.8,-911.79"
         transform="translate(0,-2.5e-4)"
         id="path2477" />
    </clipPath>
    <clipPath
       clipPathUnits="userSpaceOnUse"
       id="clipPath2479">
      <path
         d="m 35322.2,7228.16 c 0,-503.58 -408.2,-911.79 -911.8,-911.79 -503.5,0 -911.8,408.21 -911.8,911.79 0,503.56 408.3,911.79 911.8,911.79 503.6,0 911.8,-408.23 911.8,-911.79"
         transform="translate(0,-2.5e-4)"
         id="path2479" />
    </clipPath>
    <clipPath
       clipPathUnits="userSpaceOnUse"
       id="clipPath2481">
      <path
         d="m 35322.2,7228.16 c 0,-503.58 -408.2,-911.79 -911.8,-911.79 -503.5,0 -911.8,408.21 -911.8,911.79 0,503.56 408.3,911.79 911.8,911.79 503.6,0 911.8,-408.23 911.8,-911.79"
         transform="translate(0,-2.5e-4)"
         id="path2481" />
    </clipPath>
    <clipPath
       clipPathUnits="userSpaceOnUse"
       id="clipPath2483">
      <path
         d="m 35322.2,7228.16 c 0,-503.58 -408.2,-911.79 -911.8,-911.79 -503.5,0 -911.8,408.21 -911.8,911.79 0,503.56 408.3,911.79 911.8,911.79 503.6,0 911.8,-408.23 911.8,-911.79"
         transform="translate(0,-2.5e-4)"
         id="path2483" />
    </clipPath>
    <clipPath
       clipPathUnits="userSpaceOnUse"
       id="clipPath2485">
      <path
         d="m 35322.2,7228.16 c 0,-503.58 -408.2,-911.79 -911.8,-911.79 -503.5,0 -911.8,408.21 -911.8,911.79 0,503.56 408.3,911.79 911.8,911.79 503.6,0 911.8,-408.23 911.8,-911.79"
         transform="translate(0,-2.5e-4)"
         id="path2485" />
    </clipPath>
    <clipPath
       clipPathUnits="userSpaceOnUse"
       id="clipPath2487">
      <path
         d="m 35322.2,7228.16 c 0,-503.58 -408.2,-911.79 -911.8,-911.79 -503.5,0 -911.8,408.21 -911.8,911.79 0,503.56 408.3,911.79 911.8,911.79 503.6,0 911.8,-408.23 911.8,-911.79"
         transform="translate(0,-2.5e-4)"
         id="path2487" />
    </clipPath>
    <clipPath
       clipPathUnits="userSpaceOnUse"
       id="clipPath2489">
      <path
         d="m 35322.2,7228.16 c 0,-503.58 -408.2,-911.79 -911.8,-911.79 -503.5,0 -911.8,408.21 -911.8,911.79 0,503.56 408.3,911.79 911.8,911.79 503.6,0 911.8,-408.23 911.8,-911.79"
         transform="translate(0,-2.5e-4)"
         id="path2489" />
    </clipPath>
    <clipPath
       clipPathUnits="userSpaceOnUse"
       id="clipPath2491">
      <path
         d="m 35322.2,7228.16 c 0,-503.58 -408.2,-911.79 -911.8,-911.79 -503.5,0 -911.8,408.21 -911.8,911.79 0,503.56 408.3,911.79 911.8,911.79 503.6,0 911.8,-408.23 911.8,-911.79"
         transform="translate(0,-2.5e-4)"
         id="path2491" />
    </clipPath>
  </defs>
  <g
     inkscape:label="Layer 1"
     inkscape:groupmode="layer"
     id="layer1"
     transform="translate(-68.527241,-102.39372)">
    <path
       id="path2426"
       d="m 35322.2,7228.15 c 0,-503.57 -408.2,-911.79 -911.8,-911.79 -503.5,0 -911.8,408.22 -911.8,911.79 0,503.57 408.3,911.8 911.8,911.8 503.6,0 911.8,-408.23 911.8,-911.8"
       style="fill:#a59eff;fill-opacity:1;fill-rule:nonzero;stroke:none"
       transform="matrix(0.03527778,0,0,-0.03527778,-1113.229,389.55308)"
       clip-path="url(#clipPath2427)" />
    <path
       id="path2428"
       d="m 34394.8,7868.11 c 2.2,12.91 15.3,22.97 28.3,21.74 13.1,-1.24 24.1,-13.59 23.8,-26.67 -16.3,-0.08 -32.5,-0.17 -48.7,-0.25 l -3.4,5.18"
       style="fill:#c17e2f;fill-opacity:1;fill-rule:nonzero;stroke:none"
       transform="matrix(0.03527778,0,0,-0.03527778,-1113.229,389.55308)"
       clip-path="url(#clipPath2429)" />
    <path
       id="path2430"
       d="m 34870.7,6740.2 c -89.4,59.86 -197.4,83.84 -302.9,105.03 -6.4,1.29 -13.1,2.69 -18.3,6.74 -8.8,6.91 11.3,83.35 0,185.22 l -150.5,-14.1 -150.6,14.1 c -11.3,-101.87 8.8,-178.31 0,-185.22 -5.2,-4.05 -11.9,-5.45 -18.3,-6.74 -105.5,-21.19 -213.5,-45.17 -302.9,-105.03 -89.4,-59.87 -157.1,-396.42 -142.8,-503.05 89.8,0.46 340.3,-11.96 594.2,-15.29 v -0.56 c 6.8,0.1 13.6,0.19 20.4,0.28 6.8,-0.09 13.5,-0.18 20.3,-0.28 v 0.56 c 253.9,3.33 504.4,15.75 594.2,15.29 14.4,106.63 -53.4,443.18 -142.8,503.05"
       style="fill:#fbd1b9;fill-opacity:1;fill-rule:nonzero;stroke:none"
       transform="matrix(0.03527778,0,0,-0.03527778,-1113.229,389.55308)"
       clip-path="url(#clipPath2431)" />
    <g
       id="g2433"
       transform="matrix(0.26458333,0,0,0.26458333,-1113.229,31.039147)">
      <path
         d="m 34048,7040.47 c 59.4,38.25 61.9,56.6 64.8,38.25 14,-90.17 156.5,-307.38 286.1,-307.38 167.7,0 265,283.08 280.7,354.42 -193.8,-27.7 -390.2,-55.45 -584.5,-32.13 5.3,-5.04 10.6,-10.08 16,-15.12 l -63.1,-38.04"
         style="fill:#dba78a;fill-opacity:1;fill-rule:nonzero;stroke:none"
         transform="matrix(0.13333333,0,0,-0.13333333,0,1355.0133)"
         clip-path="url(#clipPath2432)"
         id="path2433" />
    </g>
    <path
       id="path2434"
       d="m 34126.5,7540.07 c -40.8,-116.9 -30.7,-321.75 0,-440.85 l 0.5,-1.92 c 16.7,-63.92 43.3,-127.76 93.5,-177.52 50.1,-49.76 127.4,-83.41 203.8,-74.58 74,8.53 136,55.14 172.1,110.57 36.1,55.43 50,119.11 60.1,181.85 17.5,109.25 12.9,399.4 0.5,400.29 -159.2,11.44 -375.5,39.11 -530.5,5.95 v -3.79"
       style="fill:#fbd1b9;fill-opacity:1;fill-rule:nonzero;stroke:none"
       transform="matrix(0.03527778,0,0,-0.03527778,-1113.229,389.55308)"
       clip-path="url(#clipPath2435)" />
    <path
       id="path2436"
       d="m 34650.1,7182.87 c 3.9,24.06 38.1,39.11 65.5,32.05 27.4,-7.06 45.4,-31.18 47.5,-55.41 2,-24.22 -9.6,-48.06 -25.9,-67.98 -27.4,-33.22 -75.4,-59.01 -121.6,-48.73 7.3,49.81 17.9,99.29 31.5,148.13 l 3,-8.06"
       style="fill:#fbd1b9;fill-opacity:1;fill-rule:nonzero;stroke:none"
       transform="matrix(0.03527778,0,0,-0.03527778,-1113.229,389.55308)"
       clip-path="url(#clipPath2437)" />
    <path
       id="path2438"
       d="m 34130.8,7182.87 c -3.9,24.06 -38.1,39.11 -65.5,32.05 -27.4,-7.06 -45.5,-31.18 -47.5,-55.41 -2.1,-24.22 9.5,-48.06 25.9,-67.98 27.3,-33.22 75.4,-59.01 121.6,-48.73 -7.4,49.81 -17.9,99.29 -31.5,148.13 l -3,-8.06"
       style="fill:#fbd1b9;fill-opacity:1;fill-rule:nonzero;stroke:none"
       transform="matrix(0.03527778,0,0,-0.03527778,-1113.229,389.55308)"
       clip-path="url(#clipPath2439)" />
    <path
       id="path2440"
       d="m 34306.3,7211.7 c 0,-16.88 -12.4,-30.56 -27.8,-30.56 -15.4,0 -27.9,13.68 -27.9,30.56 0,16.87 12.5,30.55 27.9,30.55 15.4,0 27.8,-13.68 27.8,-30.55"
       style="fill:#1a1a1a;fill-opacity:1;fill-rule:nonzero;stroke:none"
       transform="matrix(0.03527778,0,0,-0.03527778,-1113.229,389.55308)"
       clip-path="url(#clipPath2441)" />
    <path
       id="path2442"
       d="m 34538.5,7211.7 c 0,-16.88 -12.5,-30.56 -27.9,-30.56 -15.4,0 -27.9,13.68 -27.9,30.56 0,16.87 12.5,30.55 27.9,30.55 15.4,0 27.9,-13.68 27.9,-30.55"
       style="fill:#1a1a1a;fill-opacity:1;fill-rule:nonzero;stroke:none"
       transform="matrix(0.03527778,0,0,-0.03527778,-1113.229,389.55308)"
       clip-path="url(#clipPath2443)" />
    <path
       id="path2444"
       d="m 34892.1,6741.91 c -54.5,36.56 -116,59.91 -179.6,77.44 -14.2,-25.62 -32.6,-48.81 -55.6,-68.27 -51.8,-43.87 -119.9,-63.88 -187.2,-73.18 -146.4,-20.23 -311.7,14.27 -404.9,127.11 -46.7,-15.69 -91.5,-35.67 -132.4,-63.1 -91,-60.89 -159.9,-399.23 -145.3,-507.7 91.3,0.47 346.2,-11.98 604.4,-15.37 v -0.56 c 6.9,0.1 13.8,0.19 20.8,0.28 6.9,-0.09 13.8,-0.18 20.7,-0.28 v 0.56 c 258.2,3.39 515,-23.86 606.3,-24.33 14.6,108.47 -56.2,486.51 -147.2,547.4"
       style="fill:#ffb753;fill-opacity:1;fill-rule:nonzero;stroke:none"
       transform="matrix(0.03527778,0,0,-0.03527778,-1113.229,389.55308)"
       clip-path="url(#clipPath2445)" />
    <path
       id="path2446"
       d="m 34451.4,7318.85 c 40.4,-13.88 82.1,-21.45 123.8,-22.5 -26.6,58 -94.3,73.66 -134.3,31.11 l 10.5,-8.61"
       style="fill:#262b44;fill-opacity:1;fill-rule:nonzero;stroke:none"
       transform="matrix(0.03527778,0,0,-0.03527778,-1113.229,389.55308)"
       clip-path="url(#clipPath2447)" />
    <path
       id="path2448"
       d="m 34228.6,7270.92 c 42.1,7.03 82.3,20.21 119.5,39.17 -51,38.31 -117.9,19.87 -132.9,-36.63 l 13.4,-2.54"
       style="fill:#262b44;fill-opacity:1;fill-rule:nonzero;stroke:none"
       transform="matrix(0.03527778,0,0,-0.03527778,-1113.229,389.55308)"
       clip-path="url(#clipPath2449)" />
    <path
       id="path2450"
       d="m 34748.4,7450.83 c 9.5,7.58 13.1,21.64 14.4,34.8 5,50.36 -16.6,102.98 -53.8,130.76 14,-3.08 -8.7,-2.75 -4.8,12.87 3.8,15.62 -8.7,34.84 -16.2,48.59 -27.2,49.39 -41.3,69.84 -92.5,68.32 -12.1,-0.36 -24.6,-1.27 -36,-5.74 -3.2,8.48 -8,16.11 -14.4,21.89 -16.7,15.28 -42.3,16.28 -59.9,2.34 -6.6,27.14 -32.1,44.49 -56.8,44.51 -24.7,0.02 -47.9,-14.29 -66.4,-32.96 -7.6,44.38 -59.5,65.64 -94.8,45.03 -28.4,-16.61 -44.7,-52.2 -47.8,-88.93 -29,-2.14 -56.7,-20.31 -79,-42.47 -11,-10.85 -21.8,-24.59 -21.8,-41.13 0,-6.61 2.9,-13.01 7,-17.71 -1.3,-0.61 -2.7,-1.28 -3.9,-2.03 -39.1,-23.81 -66.6,-70.73 -71,-121.02 l 2,-0.65 c -12.6,-22.93 -23.6,-48.49 -23,-75.52 0.7,-27.42 16.7,-56.03 40.5,-60.03 -19.4,-23.62 -19.3,-64.59 0.2,-88.11 -11,-15.32 -6,-39.83 6.6,-53.42 l 0.4,-0.4 c 18.3,-19.34 51,-11.19 59.5,14.05 20.5,60.31 59.6,184.29 63.9,260.04 9.7,-24.89 35.1,-40.5 58.6,-36.13 23.6,4.37 43.3,28.32 45.7,55.45 3.5,-28.26 36.8,-34.89 61.6,-30.97 31,4.91 61.3,15.23 89.6,30.48 -25.7,-14.9 -32.1,-58.41 -15.3,-85.09 16.9,-26.68 50.8,-34.95 77.8,-23.38 14.9,6.39 27.8,17.83 38.8,31.05 9.6,-7.42 22.8,-7.31 32.9,-0.99 -14.1,-16.89 -20.3,-42.34 -14.9,-64.96 6.5,-27.08 29.2,-48.03 53.8,-49.63 -9.8,-8.62 -2.2,-45.29 14.8,-79.12 13,-26.04 52.4,-15.77 51,13.33 l -0.6,12.23 c -0.5,8.61 -0.7,18.08 4,24.85 5.1,7.35 14.1,8.93 21.8,12.17 24.5,10.27 39.1,41.82 37.3,71.48 -1.4,23.67 -11.6,45.61 -26,62.96 5.5,-1.55 11.9,-0.58 16.7,3.19"
       style="fill:#262b44;fill-opacity:1;fill-rule:nonzero;stroke:none"
       transform="matrix(0.03527778,0,0,-0.03527778,-1113.229,389.55308)"
       clip-path="url(#clipPath2451)" />
    <path
       id="path2452"
       d="m 34361.6,7108.88 c 5.8,10.35 12.6,20.02 20.7,28.78 6.9,7.55 16.5,18.84 27.4,20.08 5.8,0.66 10.7,-3.26 15.2,-6.45 5.2,-3.7 10.3,-7.52 15.2,-11.48 10.5,-8.28 20.5,-17.08 30.1,-26.3 7.1,-6.85 18,4 10.8,10.87 -11.2,10.76 -22.9,20.89 -35.2,30.39 -11,8.45 -23.1,19.93 -38,18.11 -13.6,-1.67 -24.5,-11.96 -33.6,-21.4 -10.1,-10.43 -18.8,-22.21 -25.9,-34.85 -4.8,-8.63 8.4,-16.38 13.3,-7.75"
       style="fill:#a46e4a;fill-opacity:1;fill-rule:nonzero;stroke:none"
       transform="matrix(0.03527778,0,0,-0.03527778,-1113.229,389.55308)"
       clip-path="url(#clipPath2453)" />
    <path
       id="path2454"
       d="m 34372.9,7035.24 c 7.3,-12.87 22.5,-21.23 37.4,-19.53 15.3,1.76 28.1,12.24 33.1,26.8 1.3,3.93 -1.6,8.4 -5.4,9.45 -4.2,1.16 -8.1,-1.42 -9.5,-5.37 -0.6,-1.87 -1.6,-3.81 -3.2,-6.12 l -0.3,-0.38 -1.3,-1.53 c -1,-0.98 -1.9,-1.92 -3,-2.78 -1.1,-0.89 1.4,0.83 -0.7,-0.51 l -1.4,-0.89 c -1.1,-0.71 -2.3,-1.37 -3.6,-1.91 0.9,0.39 -0.6,-0.22 -0.8,-0.28 l -1.9,-0.6 -2,-0.46 c -0.2,-0.04 -1.9,-0.25 -0.8,-0.14 -9.6,-0.91 -18.6,3.7 -23.3,12.01 -2.1,3.6 -7,4.84 -10.6,2.76 -3.6,-2.12 -4.8,-6.9 -2.7,-10.52"
       style="fill:#a46e4a;fill-opacity:1;fill-rule:nonzero;stroke:none"
       transform="matrix(0.03527778,0,0,-0.03527778,-1113.229,389.55308)"
       clip-path="url(#clipPath2455)" />
    <path
       id="path2456"
       d="m 34670.2,7108.48 c 16,16.8 34.1,30.98 54.3,42.37 3.6,2.04 4.8,6.97 2.7,10.51 -2.1,3.64 -6.9,4.81 -10.5,2.76 -21.2,-11.97 -40.6,-27.12 -57.3,-44.77 -2.9,-3.01 -3,-7.88 0,-10.87 2.9,-2.88 8,-3.02 10.8,0"
       style="fill:#a46e4a;fill-opacity:1;fill-rule:nonzero;stroke:none"
       transform="matrix(0.03527778,0,0,-0.03527778,-1113.229,389.55308)"
       clip-path="url(#clipPath2457)" />
    <path
       id="path2458"
       d="m 34688,7133.1 c 2,-8.24 3.9,-16.49 5.9,-24.73 0.9,-3.92 5.6,-6.61 9.4,-5.37 4.1,1.32 6.4,5.26 5.4,9.45 -2,8.25 -3.9,16.49 -5.9,24.74 -0.9,3.91 -5.6,6.61 -9.4,5.36 -4.1,-1.32 -6.4,-5.25 -5.4,-9.45"
       style="fill:#a46e4a;fill-opacity:1;fill-rule:nonzero;stroke:none"
       transform="matrix(0.03527778,0,0,-0.03527778,-1113.229,389.55308)"
       clip-path="url(#clipPath2459)" />
    <path
       id="path2460"
       d="m 34065.4,7171.78 c 14.7,-16.57 29.3,-33.13 44,-49.7 2.8,-3.11 8.1,-2.81 10.9,0 3.1,3.08 2.7,7.75 0,10.86 -14.7,16.57 -29.4,33.14 -44,49.71 -2.8,3.11 -8.1,2.81 -10.9,0 -3.1,-3.09 -2.8,-7.75 0,-10.87"
       style="fill:#a46e4a;fill-opacity:1;fill-rule:nonzero;stroke:none"
       transform="matrix(0.03527778,0,0,-0.03527778,-1113.229,389.55308)"
       clip-path="url(#clipPath2461)" />
    <path
       id="path2462"
       d="m 34085.4,7128.01 c 7.1,4.08 14.2,8.17 21.3,12.25 3.5,2 5,7.04 2.8,10.51 -2.3,3.52 -6.8,4.9 -10.5,2.76 -7.1,-4.08 -14.2,-8.17 -21.4,-12.25 -3.4,-2 -5,-7.05 -2.7,-10.51 2.3,-3.52 6.8,-4.9 10.5,-2.76"
       style="fill:#a46e4a;fill-opacity:1;fill-rule:nonzero;stroke:none"
       transform="matrix(0.03527778,0,0,-0.03527778,-1113.229,389.55308)"
       clip-path="url(#clipPath2463)" />
    <path
       id="path2464"
       d="m 34290.7,7113.79 c 0.9,0 1.8,0 2.7,0 1.1,-0.04 2.1,0.18 3,0.66 0.9,0.31 1.8,0.84 2.5,1.59 0.7,0.69 1.2,1.52 1.5,2.47 0.5,0.91 0.8,1.9 0.7,2.96 l -0.3,2.04 c -0.3,1.3 -1,2.43 -1.9,3.39 l -1.6,1.2 c -1.2,0.7 -2.5,1.05 -3.9,1.05 -0.9,0 -1.8,0 -2.7,0 -1.1,0.04 -2.1,-0.18 -3,-0.66 -0.9,-0.31 -1.8,-0.84 -2.5,-1.59 -0.7,-0.69 -1.2,-1.52 -1.6,-2.47 -0.4,-0.92 -0.7,-1.9 -0.6,-2.96 l 0.3,-2.04 c 0.3,-1.31 1,-2.44 1.9,-3.39 l 1.6,-1.21 c 1.2,-0.69 2.5,-1.04 3.9,-1.04"
       style="fill:#a46e4a;fill-opacity:1;fill-rule:nonzero;stroke:none"
       transform="matrix(0.03527778,0,0,-0.03527778,-1113.229,389.55308)"
       clip-path="url(#clipPath2465)" />
    <path
       id="path2466"
       d="m 34244.4,7071.85 c 0,-0.92 0,-1.84 0,-2.76 0,-1.05 0.2,-2.04 0.7,-2.96 0.3,-0.95 0.8,-1.77 1.5,-2.47 0.7,-0.75 1.6,-1.28 2.5,-1.59 0.9,-0.48 1.9,-0.7 3,-0.66 l 2,0.27 c 1.3,0.37 2.5,1.03 3.4,1.98 l 1.2,1.56 c 0.7,1.19 1.1,2.49 1.1,3.87 0,0.92 0,1.84 0,2.76 0,1.06 -0.2,2.04 -0.7,2.96 -0.3,0.95 -0.8,1.78 -1.6,2.47 -0.7,0.75 -1.5,1.28 -2.5,1.59 -0.9,0.48 -1.9,0.7 -2.9,0.66 l -2.1,-0.27 c -1.3,-0.37 -2.4,-1.02 -3.4,-1.98 l -1.2,-1.55 c -0.7,-1.2 -1,-2.49 -1,-3.88"
       style="fill:#a46e4a;fill-opacity:1;fill-rule:nonzero;stroke:none"
       transform="matrix(0.03527778,0,0,-0.03527778,-1113.229,389.55308)"
       clip-path="url(#clipPath2467)" />
    <path
       id="path2468"
       d="m 34520.7,6386.48 c -6.7,-13.17 -20.2,-21.6 -34.2,-26.53 -37.5,-13.26 -78.8,-5.27 -117.8,2.84 -4.1,0.87 -8.5,1.88 -11.4,4.96 -3.7,3.84 -3.8,9.68 -3.9,14.95 -0.1,33.2 -2,66.4 -5.8,99.38 l 9.2,0.25 c 39,7.7 80.2,2.95 116.4,-13.38 16.2,-7.32 31.8,-17.31 41.9,-31.96 10.1,-14.65 13.7,-34.66 5.6,-50.51 z m 54.1,112.63 c -33.8,36.27 -83.3,54.19 -132.2,62.14 -45.9,7.46 -93,7.24 -138.8,-0.65 -12.4,-2.13 -25.9,-5.64 -32.7,-16.14 -3.8,-5.83 -4.9,-12.95 -5.8,-19.83 -18.1,-128.4 -29.6,-257.71 -34.6,-387.28 l 2.1,-16.42 c 27.6,-6.65 56.2,-9.37 84.6,-8.05 -0.7,43.17 3.3,86.42 11.8,128.74 15.6,-1.03 31.2,-2.06 46.8,-3.09 8.7,-44.47 12.8,-89.85 12.1,-135.17 55.6,3.32 111.2,6.63 166.8,9.94 -19.6,63.5 -50.7,123.43 -91.4,176.02 51.4,11.41 108.7,26.99 134.7,72.74 24.5,43.11 10.5,100.78 -23.4,137.05"
       style="fill:#ffffff;fill-opacity:1;fill-rule:nonzero;stroke:none"
       transform="matrix(0.03527778,0,0,-0.03527778,-1113.229,389.55308)"
       clip-path="url(#clipPath2469)" />
    <path
       id="path2470"
       d="m 34759.1,6542.78 c 11.7,-117.74 28.6,-234.95 50.9,-351.14 6.2,-32.77 13,-65.46 20.1,-98.06 2.1,-9.65 16.9,-5.57 14.8,4.09 -24.9,114.24 -44.8,229.59 -59.3,345.63 -4.1,33.11 -7.8,66.27 -11.1,99.48 -1,9.75 -16.3,9.85 -15.4,0"
       style="fill:#c17e2f;fill-opacity:1;fill-rule:nonzero;stroke:none"
       transform="matrix(0.03527778,0,0,-0.03527778,-1113.229,389.55308)"
       clip-path="url(#clipPath2471)" />
    <path
       id="path2472"
       d="m 34798.8,6506.02 c -6.3,-34.63 -17.5,-68.21 -23.8,-102.85 -1.7,-9.67 13.1,-13.81 14.8,-4.08 6.3,34.63 17.5,68.21 23.8,102.85 1.7,9.67 -13.1,13.82 -14.8,4.08"
       style="fill:#c17e2f;fill-opacity:1;fill-rule:nonzero;stroke:none"
       transform="matrix(0.03527778,0,0,-0.03527778,-1113.229,389.55308)"
       clip-path="url(#clipPath2473)" />
    <path
       id="path2474"
       d="m 34000.6,6647.74 c 12.9,-135.35 18.6,-271.35 17,-407.3 -0.4,-38 -1.4,-75.99 -3,-113.96 -0.4,-9.89 15,-9.87 15.4,0 5.6,135.85 4,271.97 -4.9,407.63 -2.5,37.92 -5.6,75.8 -9.2,113.63 -0.9,9.76 -16.3,9.86 -15.3,0"
       style="fill:#c17e2f;fill-opacity:1;fill-rule:nonzero;stroke:none"
       transform="matrix(0.03527778,0,0,-0.03527778,-1113.229,389.55308)"
       clip-path="url(#clipPath2475)" />
    <path
       id="path2476"
       d="m 33982.5,6587.19 c 11.8,-13.91 23.6,-27.83 35.4,-41.75 2.6,-3.08 8.2,-2.88 10.8,0 3,3.28 2.8,7.58 0,10.87 -11.7,13.91 -23.5,27.83 -35.3,41.75 -2.6,3.08 -8.2,2.88 -10.9,0 -3,-3.28 -2.8,-7.58 0,-10.87"
       style="fill:#c17e2f;fill-opacity:1;fill-rule:nonzero;stroke:none"
       transform="matrix(0.03527778,0,0,-0.03527778,-1113.229,389.55308)"
       clip-path="url(#clipPath2477)" />
    <path
       id="path2478"
       d="m 34034.3,6774.09 c 78.5,-76.15 179.6,-128.39 287.1,-148.89 108.5,-20.68 221.2,-7.8 322.8,35.21 57.3,24.29 110.4,57.93 156.8,99.59 7.3,6.63 -3.6,17.47 -10.9,10.87 -80.2,-72.12 -181.8,-119 -288.5,-134.68 -105.1,-15.47 -214.1,1.95 -310,47.49 -54,25.6 -103.6,59.71 -146.5,101.27 -7.1,6.89 -18,-3.97 -10.8,-10.86"
       style="fill:#ffffff;fill-opacity:1;fill-rule:nonzero;stroke:none"
       transform="matrix(0.03527778,0,0,-0.03527778,-1113.229,389.55308)"
       clip-path="url(#clipPath2479)" />
    <path
       id="path2480"
       d="m 34048.3,7542.06 c 218.6,-47.76 403.7,-97.16 720.6,38.62 11.1,-63 4.2,305 -398.5,285.11 -268.2,-13.24 -322.1,-323.73 -322.1,-323.73"
       style="fill:#ffb753;fill-opacity:1;fill-rule:nonzero;stroke:none"
       transform="matrix(0.03527778,0,0,-0.03527778,-1113.229,389.55308)"
       clip-path="url(#clipPath2481)" />
    <path
       id="path2482"
       d="m 34482.6,7432.85 c 85.7,-13.45 174,-26.94 260,-14.77 42.2,5.96 82.9,18.1 119.2,35.55 8.2,3.92 16.3,8.28 21.5,14.51 5.3,6.46 6.8,14.36 6.5,21.98 -1.4,34.91 -38.3,73.59 -120.9,106.75 -219.7,-103.19 -728.1,-55.06 -720.6,-55.54 0,0 295.7,-86.72 434.3,-108.48"
       style="fill:#c17e2f;fill-opacity:1;fill-rule:nonzero;stroke:none"
       transform="matrix(0.03527778,0,0,-0.03527778,-1113.229,389.55308)"
       clip-path="url(#clipPath2483)" />
    <path
       id="path2484"
       d="m 34419,7871.63 c 112.2,-43 201.1,-139.74 239.3,-253.09 10.9,-32.36 17.7,-65.98 19.8,-100.06 0.6,-9.83 16,-9.9 15.4,0 -3.9,62.59 -22.6,123.63 -53.4,178.24 -30.7,54.56 -73.1,102.37 -123.7,139.21 -28.8,20.9 -60.1,37.8 -93.3,50.51 -9.2,3.55 -13.2,-11.3 -4.1,-14.81"
       style="fill:#c17e2f;fill-opacity:1;fill-rule:nonzero;stroke:none"
       transform="matrix(0.03527778,0,0,-0.03527778,-1113.229,389.55308)"
       clip-path="url(#clipPath2485)" />
    <path
       id="path2486"
       d="m 34412.2,7869.67 c 44.7,-90.06 55.7,-191.76 57.7,-291.01 0.5,-28.4 0.4,-56.8 0,-85.19 -0.2,-9.89 15.2,-9.9 15.3,0 1.4,101.62 0.5,205.61 -28.5,303.9 -8.1,27.53 -18.5,54.35 -31.2,80.06 -4.4,8.86 -17.7,1.08 -13.3,-7.76"
       style="fill:#c17e2f;fill-opacity:1;fill-rule:nonzero;stroke:none"
       transform="matrix(0.03527778,0,0,-0.03527778,-1113.229,389.55308)"
       clip-path="url(#clipPath2487)" />
    <path
       id="path2488"
       d="m 34415.6,7881.26 c -60.8,-78.74 -97.5,-174.96 -106.1,-273.93 -2.4,-27.78 -2.5,-55.71 -0.4,-83.51 0.8,-9.79 16.2,-9.88 15.4,0 -7.5,96.8 13.4,195.09 59.4,280.56 13.1,24.23 28.1,47.33 45,69.12 2.5,3.31 0.4,8.58 -2.8,10.52 -3.9,2.36 -8,0.51 -10.5,-2.76"
       style="fill:#c17e2f;fill-opacity:1;fill-rule:nonzero;stroke:none"
       transform="matrix(0.03527778,0,0,-0.03527778,-1113.229,389.55308)"
       clip-path="url(#clipPath2489)" />
    <path
       id="path2490"
       d="m 34418.9,7877.57 c -117.8,-44.34 -221.9,-128.45 -271.8,-246.17 -13.9,-32.73 -23.1,-67 -27.2,-102.31 -1.2,-9.8 14.2,-9.72 15.3,0 14.4,121.51 93.5,225.41 195.8,288.62 29.1,18 60,32.99 92,45.04 9.2,3.45 5.2,18.32 -4.1,14.82"
       style="fill:#c17e2f;fill-opacity:1;fill-rule:nonzero;stroke:none"
       transform="matrix(0.03527778,0,0,-0.03527778,-1113.229,389.55308)"
       clip-path="url(#clipPath2491)" />
  </g>
</svg>
