<?xml version="1.0" encoding="UTF-8"?>
<!DOCTYPE svg PUBLIC "-//W3C//DTD SVG 1.1//EN" "http://www.w3.org/Graphics/SVG/1.1/DTD/svg11.dtd">
<svg xmlns="http://www.w3.org/2000/svg" version="1.1" width="128px" height="128px" style="shape-rendering:geometricPrecision; text-rendering:geometricPrecision; image-rendering:optimizeQuality; fill-rule:evenodd; clip-rule:evenodd" xmlns:xlink="http://www.w3.org/1999/xlink">
<g><path style="opacity:0.944" fill="#fefffe" d="M 57.5,7.5 C 65.1869,5.996 71.6869,7.996 77,13.5C 91,41.5 105,69.5 119,97.5C 121.649,107.36 118.482,114.527 109.5,119C 78.8333,119.667 48.1667,119.667 17.5,119C 7.61392,113.866 4.78059,106.032 9,95.5C 22.6667,68.1667 36.3333,40.8333 50,13.5C 52.4784,11.3606 54.9784,9.36056 57.5,7.5 Z M 61.5,20.5 C 63.7224,20.178 65.5557,20.8446 67,22.5C 80.3721,49.411 93.8721,76.2443 107.5,103C 106.929,104.205 106.262,105.372 105.5,106.5C 77.8756,107.658 50.209,107.824 22.5,107C 21.5,106 20.5,105 19.5,104C 33.1141,75.9383 47.1141,48.1049 61.5,20.5 Z"/></g>
</svg>
