<?xml version="1.0" encoding="UTF-8"?>
<!DOCTYPE svg PUBLIC "-//W3C//DTD SVG 1.1//EN" "http://www.w3.org/Graphics/SVG/1.1/DTD/svg11.dtd">
<svg xmlns="http://www.w3.org/2000/svg" version="1.1" width="128px" height="128px" style="shape-rendering:geometricPrecision; text-rendering:geometricPrecision; image-rendering:optimizeQuality; fill-rule:evenodd; clip-rule:evenodd" xmlns:xlink="http://www.w3.org/1999/xlink">
<g><path style="opacity:0.942" fill="#fefffe" d="M 53.5,9.5 C 84.5706,6.44002 104.404,19.7734 113,49.5C 118.096,72.7882 111.93,92.2882 94.5,108C 81.8779,116.986 67.8779,119.986 52.5,117C 31.913,111.413 19.0797,98.2461 14,77.5C 8.73069,52.6645 15.8974,32.4978 35.5,17C 41.3281,13.7883 47.3281,11.2883 53.5,9.5 Z M 54.5,22.5 C 75.3621,19.6762 90.1954,27.6762 99,46.5C 104.249,64.6857 99.4157,79.519 84.5,91C 66.406,101.173 49.906,99.0066 35,84.5C 21.0836,64.1564 23.2503,45.6564 41.5,29C 45.6467,26.2599 49.98,24.0933 54.5,22.5 Z"/></g>
<g><path style="opacity:0.973" fill="#fefffe" d="M 55.5,27.5 C 73.3593,24.8439 86.1927,31.5106 94,47.5C 99.4469,68.4387 92.2802,82.9387 72.5,91C 54.2547,94.4602 41.088,87.9602 33,71.5C 27.5803,50.0025 35.0803,35.3359 55.5,27.5 Z"/></g>
</svg>
