<?xml version="1.0" encoding="UTF-8" standalone="no"?>
<!-- Created with Inkscape (http://www.inkscape.org/) -->

<svg
   width="64.332558mm"
   height="64.332207mm"
   viewBox="0 0 64.332558 64.332207"
   version="1.1"
   id="svg1"
   inkscape:version="1.3.2 (091e20e, 2023-11-25)"
   sodipodi:docname="blushed-winter-closed-young-guy-avatar.svg"
   xmlns:inkscape="http://www.inkscape.org/namespaces/inkscape"
   xmlns:sodipodi="http://sodipodi.sourceforge.net/DTD/sodipodi-0.dtd"
   xmlns="http://www.w3.org/2000/svg"
   xmlns:svg="http://www.w3.org/2000/svg">
  <sodipodi:namedview
     id="namedview1"
     pagecolor="#ffffff"
     bordercolor="#000000"
     borderopacity="0.25"
     inkscape:showpageshadow="2"
     inkscape:pageopacity="0.0"
     inkscape:pagecheckerboard="0"
     inkscape:deskcolor="#d1d1d1"
     inkscape:document-units="mm"
     inkscape:zoom="0.78941301"
     inkscape:cx="164.04594"
     inkscape:cy="265.38706"
     inkscape:window-width="1920"
     inkscape:window-height="1052"
     inkscape:window-x="0"
     inkscape:window-y="28"
     inkscape:window-maximized="0"
     inkscape:current-layer="layer1" />
  <defs
     id="defs1">
    <clipPath
       clipPathUnits="userSpaceOnUse"
       id="clipPath2631">
      <path
         d="m 28813.9,2934.46 c 0,-503.56 -408.2,-911.79 -911.8,-911.79 -503.5,0 -911.8,408.23 -911.8,911.79 0,503.58 408.3,911.8 911.8,911.8 503.6,0 911.8,-408.22 911.8,-911.8"
         transform="translate(0,-2.5e-4)"
         id="path2631" />
    </clipPath>
    <clipPath
       clipPathUnits="userSpaceOnUse"
       id="clipPath2633">
      <path
         d="m 28813.9,2934.46 c 0,-503.56 -408.2,-911.79 -911.8,-911.79 -503.5,0 -911.8,408.23 -911.8,911.79 0,503.58 408.3,911.8 911.8,911.8 503.6,0 911.8,-408.22 911.8,-911.8"
         transform="translate(0,-2.5e-4)"
         id="path2633" />
    </clipPath>
    <clipPath
       clipPathUnits="userSpaceOnUse"
       id="clipPath2634">
      <path
         d="m 28495.5,2331.2 c -108.5,56.8 -239.7,79.56 -367.9,99.67 -7.8,1.22 -15.9,2.55 -22.2,6.39 -10.7,6.56 13.7,227.64 0,324.3 l -182.9,-13.38 -182.8,13.38 c -13.7,-96.66 10.7,-317.74 0,-324.3 -6.3,-3.84 -14.4,-5.17 -22.2,-6.39 -128.2,-20.11 -259.4,-42.87 -367.9,-99.67 -108.6,-56.8 -190.9,-155.88 -173.4,-257.07 109,0.45 413.3,-1.1 721.6,-4.27 v -0.52 c 8.2,0.09 16.5,0.18 24.7,0.27 8.3,-0.09 16.5,-0.18 24.8,-0.27 v 0.52 c 308.3,3.17 612.6,4.72 721.6,4.27 17.5,101.19 -64.8,200.27 -173.4,257.07"
         transform="translate(0,-2.5e-4)"
         id="path2634" />
    </clipPath>
    <clipPath
       clipPathUnits="userSpaceOnUse"
       id="clipPath2637">
      <path
         d="m 28813.9,2934.46 c 0,-503.56 -408.2,-911.79 -911.8,-911.79 -503.5,0 -911.8,408.23 -911.8,911.79 0,503.58 408.3,911.8 911.8,911.8 503.6,0 911.8,-408.22 911.8,-911.8"
         transform="translate(0,-2.5e-4)"
         id="path2637" />
    </clipPath>
    <clipPath
       clipPathUnits="userSpaceOnUse"
       id="clipPath2639">
      <path
         d="m 28813.9,2934.46 c 0,-503.56 -408.2,-911.79 -911.8,-911.79 -503.5,0 -911.8,408.23 -911.8,911.79 0,503.58 408.3,911.8 911.8,911.8 503.6,0 911.8,-408.22 911.8,-911.8"
         transform="translate(0,-2.5e-4)"
         id="path2639" />
    </clipPath>
    <clipPath
       clipPathUnits="userSpaceOnUse"
       id="clipPath2641">
      <path
         d="m 28813.9,2934.46 c 0,-503.56 -408.2,-911.79 -911.8,-911.79 -503.5,0 -911.8,408.23 -911.8,911.79 0,503.58 408.3,911.8 911.8,911.8 503.6,0 911.8,-408.22 911.8,-911.8"
         transform="translate(0,-2.5e-4)"
         id="path2641" />
    </clipPath>
    <clipPath
       clipPathUnits="userSpaceOnUse"
       id="clipPath2643">
      <path
         d="m 28813.9,2934.46 c 0,-503.56 -408.2,-911.79 -911.8,-911.79 -503.5,0 -911.8,408.23 -911.8,911.79 0,503.58 408.3,911.8 911.8,911.8 503.6,0 911.8,-408.22 911.8,-911.8"
         transform="translate(0,-2.5e-4)"
         id="path2643" />
    </clipPath>
    <clipPath
       clipPathUnits="userSpaceOnUse"
       id="clipPath2645">
      <path
         d="m 28813.9,2934.46 c 0,-503.56 -408.2,-911.79 -911.8,-911.79 -503.5,0 -911.8,408.23 -911.8,911.79 0,503.58 408.3,911.8 911.8,911.8 503.6,0 911.8,-408.22 911.8,-911.8"
         transform="translate(0,-2.5e-4)"
         id="path2645" />
    </clipPath>
    <clipPath
       clipPathUnits="userSpaceOnUse"
       id="clipPath2647">
      <path
         d="m 28813.9,2934.46 c 0,-503.56 -408.2,-911.79 -911.8,-911.79 -503.5,0 -911.8,408.23 -911.8,911.79 0,503.58 408.3,911.8 911.8,911.8 503.6,0 911.8,-408.22 911.8,-911.8"
         transform="translate(0,-2.5e-4)"
         id="path2647" />
    </clipPath>
    <clipPath
       clipPathUnits="userSpaceOnUse"
       id="clipPath2649">
      <path
         d="m 28813.9,2934.46 c 0,-503.56 -408.2,-911.79 -911.8,-911.79 -503.5,0 -911.8,408.23 -911.8,911.79 0,503.58 408.3,911.8 911.8,911.8 503.6,0 911.8,-408.22 911.8,-911.8"
         transform="translate(0,-2.5e-4)"
         id="path2649" />
    </clipPath>
    <clipPath
       clipPathUnits="userSpaceOnUse"
       id="clipPath2651">
      <path
         d="m 28813.9,2934.46 c 0,-503.56 -408.2,-911.79 -911.8,-911.79 -503.5,0 -911.8,408.23 -911.8,911.79 0,503.58 408.3,911.8 911.8,911.8 503.6,0 911.8,-408.22 911.8,-911.8"
         transform="translate(0,-2.5e-4)"
         id="path2651" />
    </clipPath>
    <clipPath
       clipPathUnits="userSpaceOnUse"
       id="clipPath2653">
      <path
         d="m 28813.9,2934.46 c 0,-503.56 -408.2,-911.79 -911.8,-911.79 -503.5,0 -911.8,408.23 -911.8,911.79 0,503.58 408.3,911.8 911.8,911.8 503.6,0 911.8,-408.22 911.8,-911.8"
         transform="translate(0,-2.5e-4)"
         id="path2653" />
    </clipPath>
    <clipPath
       clipPathUnits="userSpaceOnUse"
       id="clipPath2655">
      <path
         d="m 28813.9,2934.46 c 0,-503.56 -408.2,-911.79 -911.8,-911.79 -503.5,0 -911.8,408.23 -911.8,911.79 0,503.58 408.3,911.8 911.8,911.8 503.6,0 911.8,-408.22 911.8,-911.8"
         transform="translate(0,-2.5e-4)"
         id="path2655" />
    </clipPath>
    <clipPath
       clipPathUnits="userSpaceOnUse"
       id="clipPath2657">
      <path
         d="m 28813.9,2934.46 c 0,-503.56 -408.2,-911.79 -911.8,-911.79 -503.5,0 -911.8,408.23 -911.8,911.79 0,503.58 408.3,911.8 911.8,911.8 503.6,0 911.8,-408.22 911.8,-911.8"
         transform="translate(0,-2.5e-4)"
         id="path2657" />
    </clipPath>
    <clipPath
       clipPathUnits="userSpaceOnUse"
       id="clipPath2659">
      <path
         d="m 28813.9,2934.46 c 0,-503.56 -408.2,-911.79 -911.8,-911.79 -503.5,0 -911.8,408.23 -911.8,911.79 0,503.58 408.3,911.8 911.8,911.8 503.6,0 911.8,-408.22 911.8,-911.8"
         transform="translate(0,-2.5e-4)"
         id="path2659" />
    </clipPath>
    <clipPath
       clipPathUnits="userSpaceOnUse"
       id="clipPath2661">
      <path
         d="m 28813.9,2934.46 c 0,-503.56 -408.2,-911.79 -911.8,-911.79 -503.5,0 -911.8,408.23 -911.8,911.79 0,503.58 408.3,911.8 911.8,911.8 503.6,0 911.8,-408.22 911.8,-911.8"
         transform="translate(0,-2.5e-4)"
         id="path2661" />
    </clipPath>
    <clipPath
       clipPathUnits="userSpaceOnUse"
       id="clipPath2663">
      <path
         d="m 28813.9,2934.46 c 0,-503.56 -408.2,-911.79 -911.8,-911.79 -503.5,0 -911.8,408.23 -911.8,911.79 0,503.58 408.3,911.8 911.8,911.8 503.6,0 911.8,-408.22 911.8,-911.8"
         transform="translate(0,-2.5e-4)"
         id="path2663" />
    </clipPath>
    <clipPath
       clipPathUnits="userSpaceOnUse"
       id="clipPath2665">
      <path
         d="m 28813.9,2934.46 c 0,-503.56 -408.2,-911.79 -911.8,-911.79 -503.5,0 -911.8,408.23 -911.8,911.79 0,503.58 408.3,911.8 911.8,911.8 503.6,0 911.8,-408.22 911.8,-911.8"
         transform="translate(0,-2.5e-4)"
         id="path2665" />
    </clipPath>
    <clipPath
       clipPathUnits="userSpaceOnUse"
       id="clipPath2667">
      <path
         d="m 28813.9,2934.46 c 0,-503.56 -408.2,-911.79 -911.8,-911.79 -503.5,0 -911.8,408.23 -911.8,911.79 0,503.58 408.3,911.8 911.8,911.8 503.6,0 911.8,-408.22 911.8,-911.8"
         transform="translate(0,-2.5e-4)"
         id="path2667" />
    </clipPath>
    <clipPath
       clipPathUnits="userSpaceOnUse"
       id="clipPath2668">
      <path
         d="m 27627.7,3264.14 c 20.3,114.68 153,255.7 312.4,255.7 230.1,0 312.3,-173.86 309.6,-251.46 l -622,-4.24"
         transform="translate(0,-2.5e-4)"
         id="path2668" />
    </clipPath>
    <clipPath
       clipPathUnits="userSpaceOnUse"
       id="clipPath2669">
      <path
         d="m 27627.7,3264.14 c 20.3,114.68 153,255.7 312.4,255.7 230.1,0 312.3,-173.86 309.6,-251.46 l -622,-4.24"
         transform="translate(0,-2.5e-4)"
         id="path2669" />
    </clipPath>
    <clipPath
       clipPathUnits="userSpaceOnUse"
       id="clipPath2670">
      <path
         d="m 27627.7,3264.14 c 20.3,114.68 153,255.7 312.4,255.7 230.1,0 312.3,-173.86 309.6,-251.46 l -622,-4.24"
         transform="translate(0,-2.5e-4)"
         id="path2670" />
    </clipPath>
    <clipPath
       clipPathUnits="userSpaceOnUse"
       id="clipPath2671">
      <path
         d="m 27627.7,3264.14 c 20.3,114.68 153,255.7 312.4,255.7 230.1,0 312.3,-173.86 309.6,-251.46 l -622,-4.24"
         transform="translate(0,-2.5e-4)"
         id="path2671" />
    </clipPath>
    <clipPath
       clipPathUnits="userSpaceOnUse"
       id="clipPath2672">
      <path
         d="m 27627.7,3264.14 c 20.3,114.68 153,255.7 312.4,255.7 230.1,0 312.3,-173.86 309.6,-251.46 l -622,-4.24"
         transform="translate(0,-2.5e-4)"
         id="path2672" />
    </clipPath>
    <clipPath
       clipPathUnits="userSpaceOnUse"
       id="clipPath2673">
      <path
         d="m 27627.7,3264.14 c 20.3,114.68 153,255.7 312.4,255.7 230.1,0 312.3,-173.86 309.6,-251.46 l -622,-4.24"
         transform="translate(0,-2.5e-4)"
         id="path2673" />
    </clipPath>
    <clipPath
       clipPathUnits="userSpaceOnUse"
       id="clipPath2681">
      <path
         d="m 28813.9,2934.46 c 0,-503.56 -408.2,-911.79 -911.8,-911.79 -503.5,0 -911.8,408.23 -911.8,911.79 0,503.58 408.3,911.8 911.8,911.8 503.6,0 911.8,-408.22 911.8,-911.8"
         transform="translate(0,-2.5e-4)"
         id="path2681" />
    </clipPath>
    <clipPath
       clipPathUnits="userSpaceOnUse"
       id="clipPath2683">
      <path
         d="m 28813.9,2934.46 c 0,-503.56 -408.2,-911.79 -911.8,-911.79 -503.5,0 -911.8,408.23 -911.8,911.79 0,503.58 408.3,911.8 911.8,911.8 503.6,0 911.8,-408.22 911.8,-911.8"
         transform="translate(0,-2.5e-4)"
         id="path2683" />
    </clipPath>
    <clipPath
       clipPathUnits="userSpaceOnUse"
       id="clipPath2685">
      <path
         d="m 28813.9,2934.46 c 0,-503.56 -408.2,-911.79 -911.8,-911.79 -503.5,0 -911.8,408.23 -911.8,911.79 0,503.58 408.3,911.8 911.8,911.8 503.6,0 911.8,-408.22 911.8,-911.8"
         transform="translate(0,-2.5e-4)"
         id="path2685" />
    </clipPath>
    <clipPath
       clipPathUnits="userSpaceOnUse"
       id="clipPath2687">
      <path
         d="m 28813.9,2934.46 c 0,-503.56 -408.2,-911.79 -911.8,-911.79 -503.5,0 -911.8,408.23 -911.8,911.79 0,503.58 408.3,911.8 911.8,911.8 503.6,0 911.8,-408.22 911.8,-911.8"
         transform="translate(0,-2.5e-4)"
         id="path2687" />
    </clipPath>
    <clipPath
       clipPathUnits="userSpaceOnUse"
       id="clipPath2689">
      <path
         d="m 28813.9,2934.46 c 0,-503.56 -408.2,-911.79 -911.8,-911.79 -503.5,0 -911.8,408.23 -911.8,911.79 0,503.58 408.3,911.8 911.8,911.8 503.6,0 911.8,-408.22 911.8,-911.8"
         transform="translate(0,-2.5e-4)"
         id="path2689" />
    </clipPath>
    <clipPath
       clipPathUnits="userSpaceOnUse"
       id="clipPath2691">
      <path
         d="m 28813.9,2934.46 c 0,-503.56 -408.2,-911.79 -911.8,-911.79 -503.5,0 -911.8,408.23 -911.8,911.79 0,503.58 408.3,911.8 911.8,911.8 503.6,0 911.8,-408.22 911.8,-911.8"
         transform="translate(0,-2.5e-4)"
         id="path2691" />
    </clipPath>
    <clipPath
       clipPathUnits="userSpaceOnUse"
       id="clipPath2693">
      <path
         d="m 28813.9,2934.46 c 0,-503.56 -408.2,-911.79 -911.8,-911.79 -503.5,0 -911.8,408.23 -911.8,911.79 0,503.58 408.3,911.8 911.8,911.8 503.6,0 911.8,-408.22 911.8,-911.8"
         transform="translate(0,-2.5e-4)"
         id="path2693" />
    </clipPath>
    <clipPath
       clipPathUnits="userSpaceOnUse"
       id="clipPath2695">
      <path
         d="m 28813.9,2934.46 c 0,-503.56 -408.2,-911.79 -911.8,-911.79 -503.5,0 -911.8,408.23 -911.8,911.79 0,503.58 408.3,911.8 911.8,911.8 503.6,0 911.8,-408.22 911.8,-911.8"
         transform="translate(0,-2.5e-4)"
         id="path2695" />
    </clipPath>
    <clipPath
       clipPathUnits="userSpaceOnUse"
       id="clipPath2697">
      <path
         d="m 28813.9,2934.46 c 0,-503.56 -408.2,-911.79 -911.8,-911.79 -503.5,0 -911.8,408.23 -911.8,911.79 0,503.58 408.3,911.8 911.8,911.8 503.6,0 911.8,-408.22 911.8,-911.8"
         transform="translate(0,-2.5e-4)"
         id="path2697" />
    </clipPath>
    <clipPath
       clipPathUnits="userSpaceOnUse"
       id="clipPath2699">
      <path
         d="m 28813.9,2934.46 c 0,-503.56 -408.2,-911.79 -911.8,-911.79 -503.5,0 -911.8,408.23 -911.8,911.79 0,503.58 408.3,911.8 911.8,911.8 503.6,0 911.8,-408.22 911.8,-911.8"
         transform="translate(0,-2.5e-4)"
         id="path2699" />
    </clipPath>
    <clipPath
       clipPathUnits="userSpaceOnUse"
       id="clipPath2701">
      <path
         d="m 28813.9,2934.46 c 0,-503.56 -408.2,-911.79 -911.8,-911.79 -503.5,0 -911.8,408.23 -911.8,911.79 0,503.58 408.3,911.8 911.8,911.8 503.6,0 911.8,-408.22 911.8,-911.8"
         transform="translate(0,-2.5e-4)"
         id="path2701" />
    </clipPath>
    <clipPath
       clipPathUnits="userSpaceOnUse"
       id="clipPath2703">
      <path
         d="m 28813.9,2934.46 c 0,-503.56 -408.2,-911.79 -911.8,-911.79 -503.5,0 -911.8,408.23 -911.8,911.79 0,503.58 408.3,911.8 911.8,911.8 503.6,0 911.8,-408.22 911.8,-911.8"
         transform="translate(0,-2.5e-4)"
         id="path2703" />
    </clipPath>
    <clipPath
       clipPathUnits="userSpaceOnUse"
       id="clipPath2705">
      <path
         d="m 28813.9,2934.46 c 0,-503.56 -408.2,-911.79 -911.8,-911.79 -503.5,0 -911.8,408.23 -911.8,911.79 0,503.58 408.3,911.8 911.8,911.8 503.6,0 911.8,-408.22 911.8,-911.8"
         transform="translate(0,-2.5e-4)"
         id="path2705" />
    </clipPath>
    <clipPath
       clipPathUnits="userSpaceOnUse"
       id="clipPath2707">
      <path
         d="m 28813.9,2934.46 c 0,-503.56 -408.2,-911.79 -911.8,-911.79 -503.5,0 -911.8,408.23 -911.8,911.79 0,503.58 408.3,911.8 911.8,911.8 503.6,0 911.8,-408.22 911.8,-911.8"
         transform="translate(0,-2.5e-4)"
         id="path2707" />
    </clipPath>
  </defs>
  <g
     inkscape:label="Layer 1"
     inkscape:groupmode="layer"
     id="layer1"
     transform="translate(-67.204246,-112.4479)">
    <path
       id="path2630"
       d="m 28813.9,2934.46 c 0,-503.56 -408.2,-911.79 -911.8,-911.79 -503.5,0 -911.8,408.23 -911.8,911.79 0,503.58 408.3,911.8 911.8,911.8 503.6,0 911.8,-408.22 911.8,-911.8"
       style="fill:#a59eff;fill-opacity:1;fill-rule:nonzero;stroke:none"
       transform="matrix(0.03527778,0,0,-0.03527778,-884.95362,248.13541)"
       clip-path="url(#clipPath2631)" />
    <path
       id="path2632"
       d="m 28495.5,2331.2 c -108.5,56.81 -239.7,79.56 -367.9,99.66 -7.8,1.23 -15.9,2.56 -22.2,6.4 -10.7,6.56 13.7,227.64 0,324.3 l -182.9,-13.38 -182.8,13.38 c -13.7,-96.66 10.7,-317.74 0,-324.3 -6.3,-3.84 -14.4,-5.17 -22.3,-6.4 -128.1,-20.1 -259.3,-42.85 -367.8,-99.66 -108.6,-56.81 -190.9,-155.89 -173.4,-257.07 109,0.44 413.3,-1.1 721.6,-4.27 v -0.52 c 8.2,0.09 16.5,0.18 24.7,0.27 8.3,-0.09 16.6,-0.18 24.8,-0.27 v 0.52 c 308.3,3.17 612.6,4.71 721.6,4.27 17.5,101.18 -64.8,200.26 -173.4,257.07"
       style="fill:#fbd1b9;fill-opacity:1;fill-rule:nonzero;stroke:none"
       transform="matrix(0.03527778,0,0,-0.03527778,-884.95362,248.13541)"
       clip-path="url(#clipPath2633)" />
    <g
       id="g2635"
       transform="matrix(0.26458333,0,0,0.26458333,-884.95362,-110.37852)">
      <path
         d="m 27496.3,2764.67 c 72.1,36.3 75.2,53.71 78.6,36.3 17.1,-85.56 190.2,-291.67 347.5,-291.67 203.7,0 321.9,268.61 341,336.3 -235.4,-26.28 -473.9,-52.61 -709.9,-30.48 6.4,-4.79 12.9,-9.57 19.4,-14.35 l -76.6,-36.1"
         style="fill:#dba78a;fill-opacity:1;fill-rule:nonzero;stroke:none"
         transform="matrix(0.13333333,0,0,-0.13333333,0,1355.0133)"
         clip-path="url(#clipPath2634)"
         id="path2635" />
    </g>
    <path
       id="path2636"
       d="m 27651.2,3233.61 c -42,-110.92 -31.6,-305.3 0,-418.31 l 0.5,-1.82 c 17.2,-60.66 44.6,-121.24 96.3,-168.45 51.7,-47.21 131.2,-79.14 210,-70.77 76.2,8.1 140.2,52.32 177.3,104.92 37.2,52.6 51.5,113.03 61.9,172.56 18.1,103.66 13.4,378.99 0.6,379.82 -164.1,10.86 -386.9,37.12 -546.6,5.65 v -3.6"
       style="fill:#fbd1b9;fill-opacity:1;fill-rule:nonzero;stroke:none"
       transform="matrix(0.03527778,0,0,-0.03527778,-884.95362,248.13541)"
       clip-path="url(#clipPath2637)" />
    <path
       id="path2638"
       d="m 28190.6,2894.68 c 4.1,22.83 39.3,37.1 67.5,30.41 28.2,-6.7 46.8,-29.6 48.9,-52.58 2.2,-22.99 -9.8,-45.6 -26.7,-64.51 -28.1,-31.52 -77.6,-55.99 -125.2,-46.24 7.6,47.27 18.4,94.22 32.5,140.56 l 3,-7.64"
       style="fill:#fbd1b9;fill-opacity:1;fill-rule:nonzero;stroke:none"
       transform="matrix(0.03527778,0,0,-0.03527778,-884.95362,248.13541)"
       clip-path="url(#clipPath2639)" />
    <path
       id="path2640"
       d="m 27655.6,2894.68 c -4.1,22.83 -39.2,37.1 -67.5,30.41 -28.2,-6.7 -46.8,-29.6 -48.9,-52.58 -2.1,-22.99 9.8,-45.6 26.7,-64.51 28.1,-31.52 77.6,-55.99 125.2,-46.24 -7.5,47.27 -18.4,94.22 -32.4,140.56 l -3.1,-7.64"
       style="fill:#fbd1b9;fill-opacity:1;fill-rule:nonzero;stroke:none"
       transform="matrix(0.03527778,0,0,-0.03527778,-884.95362,248.13541)"
       clip-path="url(#clipPath2641)" />
    <path
       id="path2642"
       d="m 27825.7,2973.48 c 0,-20.44 -16.2,-37.01 -36.2,-37.01 -20,0 -36.2,16.57 -36.2,37.01 0,20.44 16.2,37.01 36.2,37.01 20,0 36.2,-16.57 36.2,-37.01"
       style="fill:#1a1a1a;fill-opacity:1;fill-rule:nonzero;stroke:none"
       transform="matrix(0.03527778,0,0,-0.03527778,-884.95362,248.13541)"
       clip-path="url(#clipPath2643)" />
    <path
       id="path2644"
       d="m 28107.8,2973.48 c 0,-20.44 -16.2,-37.01 -36.2,-37.01 -20,0 -36.2,16.57 -36.2,37.01 0,20.44 16.2,37.01 36.2,37.01 20,0 36.2,-16.57 36.2,-37.01"
       style="fill:#1a1a1a;fill-opacity:1;fill-rule:nonzero;stroke:none"
       transform="matrix(0.03527778,0,0,-0.03527778,-884.95362,248.13541)"
       clip-path="url(#clipPath2645)" />
    <path
       id="path2646"
       d="m 27861.1,2825.8 c 28,-51.12 95.1,-74.4 143.5,-5.13 l -143.5,5.13"
       style="fill:#ffffff;fill-opacity:1;fill-rule:nonzero;stroke:none"
       transform="matrix(0.03527778,0,0,-0.03527778,-884.95362,248.13541)"
       clip-path="url(#clipPath2647)" />
    <path
       id="path2648"
       d="m 27854.5,2821.93 c 14.7,-26.42 40.1,-47.69 70.7,-51.52 36.1,-4.53 66.1,18.32 86,46.38 3.6,5 -1.3,11.37 -6.6,11.56 -42,1.5 -83.9,3 -125.9,4.51 -5.8,0.21 -11.7,0.42 -17.6,0.63 -9.9,0.35 -9.8,-15.01 0,-15.37 42,-1.5 83.9,-3 125.9,-4.51 5.8,-0.21 11.7,-0.42 17.6,-0.63 -2.2,3.86 -4.4,7.71 -6.6,11.56 -16.6,-23.33 -42,-43.12 -72.1,-38.84 -25.5,3.6 -46,22.19 -58.1,43.98 -4.8,8.65 -18.1,0.91 -13.3,-7.75"
       style="fill:#a46e4a;fill-opacity:1;fill-rule:nonzero;stroke:none"
       transform="matrix(0.03527778,0,0,-0.03527778,-884.95362,248.13541)"
       clip-path="url(#clipPath2649)" />
    <path
       id="path2650"
       d="m 28266.5,2412.93 c -82.1,-89.54 -202.8,-123.69 -342.9,-119.89 v 0.72 c -3.1,-0.15 -6.3,-0.28 -9.4,-0.42 -3.1,0.14 -6.3,0.27 -9.4,0.42 v -0.72 c -140.1,-3.8 -254.4,30.35 -336.6,119.89 0,0 -428.3,-65.51 -384,-340.25 0.3,-1.87 649.5,-196.93 648,-199.14 -117.7,-174.49 165.3,-355.53 177.4,-342.63 l -38,191.47 c 365.5,1.95 672.4,348.42 672.6,350.3 29,269.71 -377.7,340.25 -377.7,340.25"
       style="fill:#ce7d1d;fill-opacity:1;fill-rule:nonzero;stroke:none"
       transform="matrix(0.03527778,0,0,-0.03527778,-884.95362,248.13541)"
       clip-path="url(#clipPath2651)" />
    <path
       id="path2652"
       d="m 27909.9,2936.97 c 14.2,4.48 25.4,14.22 39,19.89 8.8,3.66 22.8,5.99 29.5,-2.76 7.6,-9.88 1.9,-26.07 -1.2,-36.52 -4.6,-14.94 -10.9,-29.12 -18.9,-42.56 -5,-8.53 8.3,-16.27 13.3,-7.75 7.3,12.37 13.4,25.46 18.1,39.04 4,11.84 8.2,25 7.5,37.69 -0.8,12.6 -7.1,23.86 -19.1,28.75 -10.3,4.19 -22.5,3.07 -32.7,-0.86 -13.9,-5.34 -25.4,-15.62 -39.6,-20.1 -9.4,-2.96 -5.4,-17.8 4.1,-14.82"
       style="fill:#a46e4a;fill-opacity:1;fill-rule:nonzero;stroke:none"
       transform="matrix(0.03527778,0,0,-0.03527778,-884.95362,248.13541)"
       clip-path="url(#clipPath2653)" />
    <path
       id="path2654"
       d="m 28014.4,3106.12 c 1.2,-8.42 2.3,-16.84 3.4,-25.26 0.5,-3.21 1,-6.55 2.7,-9.25 4.1,-6.05 12.6,-6.47 19.8,-6.62 34.5,-0.7 68.8,-9.51 99.4,-25.51 -1.1,15.69 -9.9,30.13 -21.7,40.51 -11.8,10.38 -26.4,17.12 -41.2,22.35 -19.1,6.72 -40.2,11.14 -59.3,4.49 l -3.1,-0.71"
       style="fill:#1a1a1a;fill-opacity:1;fill-rule:nonzero;stroke:none"
       transform="matrix(0.03527778,0,0,-0.03527778,-884.95362,248.13541)"
       clip-path="url(#clipPath2655)" />
    <path
       id="path2656"
       d="m 27830,3126.61 c -1.1,-8.42 -2.2,-16.84 -3.3,-25.26 -0.4,-3.21 -0.9,-6.55 -2.6,-9.25 -3.9,-6.05 -12.2,-6.47 -19.3,-6.62 -33.5,-0.7 -66.8,-9.51 -96.6,-25.51 1.1,15.69 9.7,30.12 21.2,40.51 11.4,10.38 25.6,17.12 40,22.35 18.5,6.72 39.1,11.14 57.6,4.49 l 3,-0.71"
       style="fill:#1a1a1a;fill-opacity:1;fill-rule:nonzero;stroke:none"
       transform="matrix(0.03527778,0,0,-0.03527778,-884.95362,248.13541)"
       clip-path="url(#clipPath2657)" />
    <path
       id="path2658"
       d="m 27628.9,3269.99 c 28.6,-55.31 81.3,-97.57 141.6,-113.39 13.2,-3.48 29.3,-4.96 38.6,5.04 8.3,8.87 7.3,22.73 4.9,34.61 -5.2,25.37 -14.8,49.84 -28.2,72.03 26.1,-55.85 72.7,-101.85 128.8,-127.23 22.6,-10.18 54.5,-14.44 67.3,6.7 8.4,13.99 3.5,31.91 -1.7,47.44 -5.2,15.64 -10.4,31.28 -15.7,46.92 18.3,-42.73 53.2,-78.1 95.6,-96.96 8.9,-3.95 19.2,-7.21 28.2,-3.59 20.1,8.03 15.1,37.53 6.6,57.37 5.3,-26.11 15,-51.31 28.7,-74.21 5.3,-8.96 11.5,-17.89 20.7,-22.85 9.2,-4.97 21.9,-4.73 28.8,3.12 6.8,7.84 3,23.12 -7.3,24.44 -1.5,-35.43 13.3,-71.23 39.3,-95.23 13.7,11.66 14.1,32.19 13.5,50.1 -1.8,50.09 -3.6,100.19 -5.4,150.28 -0.2,7.2 -0.5,14.63 -3.7,21.1 -4.1,8.51 -12.4,14.09 -20.7,18.69 -47,26.13 -101.7,33.75 -155.2,39.06 -110,10.91 -220.7,14.02 -331.1,9.3 -16.6,-0.71 -34,-1.86 -48,-10.8 -14,-8.94 -22.7,-28.4 -14.3,-42.72 l -11.3,0.78"
       style="fill:#1a1a1a;fill-opacity:1;fill-rule:nonzero;stroke:none"
       transform="matrix(0.03527778,0,0,-0.03527778,-884.95362,248.13541)"
       clip-path="url(#clipPath2659)" />
    <path
       id="path2660"
       d="m 27638.7,3293.25 c -29.8,-119.28 -42.1,-242.91 -36.4,-365.72 0.4,-8.74 0.9,-17.75 4.8,-25.61 8.7,-17.88 37.6,75.34 38.1,136.07 0.7,73.25 3.3,152.21 47.8,210.38 l -54.3,44.88"
       style="fill:#1a1a1a;fill-opacity:1;fill-rule:nonzero;stroke:none"
       transform="matrix(0.03527778,0,0,-0.03527778,-884.95362,248.13541)"
       clip-path="url(#clipPath2661)" />
    <path
       id="path2662"
       d="m 28181.1,3112.12 c 14.9,-80.36 22.3,-162.1 22.1,-243.83 5.6,0.94 11.1,1.89 16.7,2.83 7.2,83.4 14.3,166.8 21.5,250.21 3,35.18 5.9,71.7 -6.3,104.83 -12.2,33.13 -44.1,61.83 -79.3,58.32 l 25.3,-172.36"
       style="fill:#1a1a1a;fill-opacity:1;fill-rule:nonzero;stroke:none"
       transform="matrix(0.03527778,0,0,-0.03527778,-884.95362,248.13541)"
       clip-path="url(#clipPath2663)" />
    <path
       id="path2664"
       d="m 27894.6,3492.72 c 1.8,32.21 26.9,60.36 54.7,61.37 27.8,1.01 54.4,-25.27 57.9,-57.29 -35.8,2.9 -71.9,0.85 -107.3,-6.11 l -5.3,2.03"
       style="fill:#724328;fill-opacity:1;fill-rule:nonzero;stroke:none"
       transform="matrix(0.03527778,0,0,-0.03527778,-884.95362,248.13541)"
       clip-path="url(#clipPath2665)" />
    <path
       id="path2666"
       d="m 27627.7,3264.14 c 20.3,114.68 153,255.7 312.4,255.7 230.1,0 312.3,-173.86 309.6,-251.46 l -622,-4.24"
       style="fill:#a8734f;fill-opacity:1;fill-rule:nonzero;stroke:none"
       transform="matrix(0.03527778,0,0,-0.03527778,-884.95362,248.13541)"
       clip-path="url(#clipPath2667)" />
    <g
       id="g2679"
       transform="matrix(0.26458333,0,0,0.26458333,-884.95362,-110.37852)">
      <path
         d="m 27674.9,3248.93 c 20.5,98.87 66.3,197.19 152.7,254.68 22.8,15.14 47.6,26.79 73.9,34.17 5.3,1.48 3.1,9.7 -2.2,8.22 -99.7,-27.93 -170.1,-112.08 -206.7,-205.66 -11.2,-28.88 -19.6,-58.8 -25.9,-89.14 -1.1,-5.35 7.1,-7.64 8.2,-2.27"
         style="fill:#724328;fill-opacity:1;fill-rule:nonzero;stroke:none"
         transform="matrix(0.13333333,0,0,-0.13333333,0,1355.0133)"
         clip-path="url(#clipPath2668)"
         id="path2674" />
      <path
         d="m 27892.8,3538.29 c -34.2,-23.78 -57,-59.77 -73.8,-97.22 -18.4,-40.8 -29.9,-84.53 -34.1,-129.08 -2.4,-26.12 -2.2,-52.4 0.5,-78.48 0.5,-5.4 9,-5.46 8.5,0 -8.7,84.67 9.3,175.4 56.1,247.26 12.6,19.38 28.1,36.93 47.1,50.16 4.5,3.11 0.2,10.49 -4.3,7.36"
         style="fill:#724328;fill-opacity:1;fill-rule:nonzero;stroke:none"
         transform="matrix(0.13333333,0,0,-0.13333333,0,1355.0133)"
         clip-path="url(#clipPath2669)"
         id="path2675" />
      <path
         d="m 27924.1,3554 c -30.8,-18.32 -31.7,-61.62 -34.4,-93.11 -4.1,-46.3 -4.6,-92.93 -1.3,-139.31 1.8,-25.64 4.8,-51.17 8.7,-76.56 0.9,-5.4 9.1,-3.11 8.2,2.26 -8.5,54.66 -11.9,110.08 -10.1,165.38 0.9,26.85 2.7,53.91 6.5,80.52 2.8,19.89 8.2,42.44 26.7,53.47 4.7,2.8 0.4,10.17 -4.3,7.35"
         style="fill:#724328;fill-opacity:1;fill-rule:nonzero;stroke:none"
         transform="matrix(0.13333333,0,0,-0.13333333,0,1355.0133)"
         clip-path="url(#clipPath2670)"
         id="path2676" />
      <path
         d="m 27907.1,3544.75 c 53,-59.97 74.8,-139.06 88.5,-216.17 4,-22.2 7.3,-44.51 10.5,-66.82 0.8,-5.4 9,-3.1 8.2,2.27 -11.4,79.01 -23.8,160.82 -62.6,231.8 -10.8,19.69 -23.7,38.12 -38.6,54.94 -3.6,4.11 -9.6,-1.93 -6,-6.02"
         style="fill:#724328;fill-opacity:1;fill-rule:nonzero;stroke:none"
         transform="matrix(0.13333333,0,0,-0.13333333,0,1355.0133)"
         clip-path="url(#clipPath2671)"
         id="path2677" />
      <path
         d="m 27934.6,3537.87 c 83.9,-38.25 150.3,-111.43 181.7,-198 9,-24.63 15.1,-50.25 18.1,-76.29 0.6,-5.38 9.1,-5.44 8.5,0 -10.7,94.25 -61.2,182.21 -136,240.37 -21,16.34 -43.8,30.23 -68,41.28 -4.9,2.25 -9.3,-5.08 -4.3,-7.36"
         style="fill:#724328;fill-opacity:1;fill-rule:nonzero;stroke:none"
         transform="matrix(0.13333333,0,0,-0.13333333,0,1355.0133)"
         clip-path="url(#clipPath2672)"
         id="path2678" />
      <path
         d="m 27938.8,3540.13 c 28.9,3.39 56,-7.45 80.8,-21.33 23.5,-13.18 46.4,-28.15 68.4,-43.67 21.6,-15.2 42.3,-31.96 60,-51.69 18.5,-20.66 32.5,-44.65 42.8,-70.33 11.7,-29.22 19.3,-59.88 26.7,-90.39 1.3,-5.32 9.6,-3.07 8.2,2.26 -13.5,55.15 -28.1,111.58 -64.8,156.44 -34.9,42.7 -84.3,74.12 -131.5,101.61 -27.5,15.98 -58.1,29.42 -90.6,25.61 -5.4,-0.62 -5.4,-9.15 0,-8.51"
         style="fill:#724328;fill-opacity:1;fill-rule:nonzero;stroke:none"
         transform="matrix(0.13333333,0,0,-0.13333333,0,1355.0133)"
         clip-path="url(#clipPath2673)"
         id="path2679" />
    </g>
    <path
       id="path2680"
       d="m 27626,3272.78 c -5,-2.14 -8.5,-7.7 -10.7,-15.05 -8.6,-28.23 9.9,-56.98 32.1,-51.9 192.2,43.85 389.4,37.79 577.5,-17.73 16.9,-4.97 33.7,10.43 36.7,33.48 l 2.3,17.55 c 2.6,19.84 -6,38.78 -20.2,44.26 -78.4,30.15 -332.9,108.68 -617.7,-10.61"
       style="fill:#724328;fill-opacity:1;fill-rule:nonzero;stroke:none"
       transform="matrix(0.03527778,0,0,-0.03527778,-884.95362,248.13541)"
       clip-path="url(#clipPath2681)" />
    <path
       id="path2682"
       d="m 27583.5,2881.08 c 19.3,-17.79 36.2,-37.97 50.1,-60.22 5.3,-8.36 18.6,-0.65 13.3,7.76 -14.6,23.31 -32.3,44.69 -52.5,63.32 -7.3,6.69 -18.2,-4.15 -10.9,-10.86"
       style="fill:#a46e4a;fill-opacity:1;fill-rule:nonzero;stroke:none"
       transform="matrix(0.03527778,0,0,-0.03527778,-884.95362,248.13541)"
       clip-path="url(#clipPath2683)" />
    <path
       id="path2684"
       d="m 27605.9,2838.22 1.4,2.06 -1.2,-1.56 c 1.9,2.34 4,4.43 6.3,6.24 l -1.6,-1.2 c 2.3,1.74 4.8,3.19 7.5,4.33 l -1.9,-0.78 0.7,0.29 c 1,0.24 1.9,0.69 2.6,1.37 l 2,2.16 c 1,1.65 1.4,4.07 0.8,5.92 -0.6,1.86 -1.8,3.65 -3.5,4.59 -1.7,0.91 -4.1,1.53 -6,0.78 -2.1,-0.88 -4.3,-1.81 -6.3,-2.99 -2.1,-1.21 -4,-2.65 -5.9,-4.15 -3.2,-2.62 -5.9,-5.85 -8.2,-9.31 -1.1,-1.6 -1.3,-4.1 -0.8,-5.92 0.5,-1.78 1.9,-3.71 3.6,-4.59 1.7,-0.94 3.9,-1.41 5.9,-0.77 1.9,0.63 3.4,1.79 4.6,3.53"
       style="fill:#a46e4a;fill-opacity:1;fill-rule:nonzero;stroke:none"
       transform="matrix(0.03527778,0,0,-0.03527778,-884.95362,248.13541)"
       clip-path="url(#clipPath2685)" />
    <path
       id="path2686"
       d="m 28223.4,2827.59 c 1.6,2.06 2.7,3.49 4.6,5.8 1.8,2.19 3.6,4.35 5.5,6.47 3.6,4.12 7.5,8.11 11.4,11.95 4,3.83 8.1,7.51 12.4,11.03 4.3,3.52 7.8,6.22 12.7,9.58 3.3,2.37 4.9,6.72 2.7,10.51 -2,3.36 -7.1,5.14 -10.5,2.76 -20,-13.96 -37.4,-30.86 -52.1,-50.34 -2.4,-3.23 -0.6,-8.73 2.8,-10.51 4,-2.14 7.9,-0.69 10.5,2.75"
       style="fill:#a46e4a;fill-opacity:1;fill-rule:nonzero;stroke:none"
       transform="matrix(0.03527778,0,0,-0.03527778,-884.95362,248.13541)"
       clip-path="url(#clipPath2687)" />
    <path
       id="path2688"
       d="m 28237.7,2852.58 c 0.8,-0.86 1.6,-1.75 2.3,-2.65 l -0.4,0.52 0.7,-0.88 1,-1.44 c 1.3,-2 2.5,-4.1 3.6,-6.27 l 0.7,-1.6 c -0.1,0.25 -0.7,1.61 -0.3,0.63 l 0.3,-0.82 c 0.5,-1.09 0.9,-2.19 1.2,-3.31 0.7,-2.38 1.3,-4.8 1.6,-7.26 0.3,-1.77 2.1,-3.73 3.6,-4.59 1.6,-0.97 4,-1.37 5.9,-0.78 1.8,0.61 3.6,1.76 4.6,3.53 1,1.95 1.1,3.77 0.8,5.93 -1.7,11.14 -7.1,21.6 -14.7,29.85 -2.8,2.96 -8.2,2.98 -10.9,0 -2.9,-3.17 -2.9,-7.71 0,-10.86"
       style="fill:#a46e4a;fill-opacity:1;fill-rule:nonzero;stroke:none"
       transform="matrix(0.03527778,0,0,-0.03527778,-884.95362,248.13541)"
       clip-path="url(#clipPath2689)" />
    <path
       id="path2690"
       d="m 27626.6,2021.65 c 51.9,66.85 136.9,97.14 218.7,105.75 89.4,9.43 187.5,-4.3 255.3,-68.23 32.9,-31 56.3,-71.4 62.4,-116.51 0.5,-4.15 5.8,-6.32 9.4,-5.37 4.5,1.17 6,5.36 5.4,9.45 -11.8,87.68 -84.1,154.33 -165.1,181.27 -47.5,15.81 -98.5,19.79 -148.2,16.42 -44.7,-3.02 -89.3,-11.45 -131.1,-27.84 -45.5,-17.88 -87.5,-45.18 -117.7,-84.07 -6,-7.72 4.8,-18.67 10.9,-10.87"
       style="fill:#724328;fill-opacity:1;fill-rule:nonzero;stroke:none"
       transform="matrix(0.03527778,0,0,-0.03527778,-884.95362,248.13541)"
       clip-path="url(#clipPath2691)" />
    <path
       id="path2692"
       d="m 27709.1,1994.51 c 19.1,22.88 46.1,36 74.5,43.34 30.4,7.83 62.3,9.99 93.6,7.73 61.9,-4.48 121.9,-29.11 166.8,-72.38 23.3,-22.42 42.3,-49.37 54.7,-79.28 3.8,-9 18.6,-5.06 14.8,4.09 -23.6,57.03 -68.1,104 -123,132.01 -61.3,31.24 -134,39.33 -201.1,24.96 -34.2,-7.33 -68.3,-22.21 -91.1,-49.61 -6.3,-7.54 4.5,-18.47 10.8,-10.86"
       style="fill:#724328;fill-opacity:1;fill-rule:nonzero;stroke:none"
       transform="matrix(0.03527778,0,0,-0.03527778,-884.95362,248.13541)"
       clip-path="url(#clipPath2693)" />
    <path
       id="path2694"
       d="m 28296.2,2281.58 c -15.7,-97.21 -28.9,-194.82 -39.6,-292.72 -3,-27.66 -5.7,-55.33 -8.3,-83.03 -0.9,-9.84 14.4,-9.78 15.3,0 9.1,96.67 20.6,193.12 34.7,289.19 4,27.52 8.3,55.01 12.7,82.47 1.6,9.68 -13.2,13.84 -14.8,4.09"
       style="fill:#724328;fill-opacity:1;fill-rule:nonzero;stroke:none"
       transform="matrix(0.03527778,0,0,-0.03527778,-884.95362,248.13541)"
       clip-path="url(#clipPath2695)" />
    <path
       id="path2696"
       d="m 28316.5,2210.76 c -11,-16.74 -22.1,-33.48 -33.2,-50.22 -2.3,-3.47 -0.7,-8.5 2.8,-10.52 3.7,-2.19 8.2,-0.71 10.5,2.76 11.1,16.74 22.1,33.48 33.2,50.23 2.3,3.46 0.7,8.5 -2.8,10.51 -3.7,2.2 -8.2,0.71 -10.5,-2.76"
       style="fill:#724328;fill-opacity:1;fill-rule:nonzero;stroke:none"
       transform="matrix(0.03527778,0,0,-0.03527778,-884.95362,248.13541)"
       clip-path="url(#clipPath2697)" />
    <path
       id="path2698"
       d="m 27489.9,2295.47 c 11.2,-99.8 -13.5,-198.24 -28.5,-296.24 -1.5,-9.67 13.3,-13.84 14.8,-4.08 15.2,99.27 40.4,199.23 29.1,300.32 -1.1,9.72 -16.5,9.83 -15.4,0"
       style="fill:#724328;fill-opacity:1;fill-rule:nonzero;stroke:none"
       transform="matrix(0.03527778,0,0,-0.03527778,-884.95362,248.13541)"
       clip-path="url(#clipPath2699)" />
    <path
       id="path2700"
       d="m 27451.5,2252.25 c 9.4,-14.94 18.8,-29.88 28.2,-44.82 2.2,-3.4 7,-5.06 10.6,-2.76 3.4,2.2 5,6.88 2.7,10.52 -9.4,14.94 -18.8,29.88 -28.2,44.82 -2.1,3.4 -6.9,5.05 -10.5,2.75 -3.4,-2.19 -5.1,-6.87 -2.8,-10.51"
       style="fill:#724328;fill-opacity:1;fill-rule:nonzero;stroke:none"
       transform="matrix(0.03527778,0,0,-0.03527778,-884.95362,248.13541)"
       clip-path="url(#clipPath2701)" />
    <path
       id="path2702"
       d="m 27741.5,2797.12 c -38.2,0 -69.1,30.95 -69.1,69.14 0,38.19 30.9,69.16 69.1,69.16 38.2,0 69.2,-30.97 69.2,-69.16 0,-38.19 -31,-69.14 -69.2,-69.14"
       style="fill:#e4b79c;fill-opacity:1;fill-rule:nonzero;stroke:none"
       transform="matrix(0.03527778,0,0,-0.03527778,-884.95362,248.13541)"
       clip-path="url(#clipPath2703)" />
    <path
       id="path2704"
       d="m 28105.2,2781.75 c -38.2,0 -69.1,30.95 -69.1,69.14 0,38.19 30.9,69.16 69.1,69.16 37,0 67.1,-28.98 69.1,-65.44 -3.2,-12.55 -6.2,-25.14 -8.9,-37.77 -11.9,-20.96 -34.4,-35.09 -60.2,-35.09"
       style="fill:#e4b79c;fill-opacity:1;fill-rule:nonzero;stroke:none"
       transform="matrix(0.03527778,0,0,-0.03527778,-884.95362,248.13541)"
       clip-path="url(#clipPath2705)" />
    <path
       id="path2706"
       d="m 28165.4,2816.84 c 2.7,12.63 5.7,25.22 8.9,37.77 0,-1.23 0.1,-2.47 0.1,-3.72 0,-12.38 -3.3,-24 -9,-34.05"
       style="fill:#e4b79c;fill-opacity:1;fill-rule:nonzero;stroke:none"
       transform="matrix(0.03527778,0,0,-0.03527778,-884.95362,248.13541)"
       clip-path="url(#clipPath2707)" />
  </g>
</svg>
