<?xml version="1.0" encoding="UTF-8" standalone="no"?>
<!-- Created with Inkscape (http://www.inkscape.org/) -->

<svg
   width="64.332558mm"
   height="64.332207mm"
   viewBox="0 0 64.332558 64.332207"
   version="1.1"
   id="svg1"
   inkscape:version="1.3.2 (091e20e, 2023-11-25)"
   sodipodi:docname="french-girl-avatar.svg"
   xmlns:inkscape="http://www.inkscape.org/namespaces/inkscape"
   xmlns:sodipodi="http://sodipodi.sourceforge.net/DTD/sodipodi-0.dtd"
   xmlns="http://www.w3.org/2000/svg"
   xmlns:svg="http://www.w3.org/2000/svg">
  <sodipodi:namedview
     id="namedview1"
     pagecolor="#ffffff"
     bordercolor="#000000"
     borderopacity="0.25"
     inkscape:showpageshadow="2"
     inkscape:pageopacity="0.0"
     inkscape:pagecheckerboard="0"
     inkscape:deskcolor="#d1d1d1"
     inkscape:document-units="mm"
     inkscape:zoom="0.78519972"
     inkscape:cx="-83.418268"
     inkscape:cy="299.9237"
     inkscape:window-width="1920"
     inkscape:window-height="1052"
     inkscape:window-x="0"
     inkscape:window-y="28"
     inkscape:window-maximized="0"
     inkscape:current-layer="layer1" />
  <defs
     id="defs1">
    <clipPath
       clipPathUnits="userSpaceOnUse"
       id="clipPath2079">
      <path
         d="m 33152.8,2934.46 c 0,-503.56 -408.2,-911.79 -911.8,-911.79 -503.6,0 -911.8,408.23 -911.8,911.79 0,503.58 408.2,911.8 911.8,911.8 503.6,0 911.8,-408.22 911.8,-911.8"
         transform="translate(0,-2.5e-4)"
         id="path2079" />
    </clipPath>
    <clipPath
       clipPathUnits="userSpaceOnUse"
       id="clipPath2081">
      <path
         d="m 33152.8,2934.46 c 0,-503.56 -408.2,-911.79 -911.8,-911.79 -503.6,0 -911.8,408.23 -911.8,911.79 0,503.58 408.2,911.8 911.8,911.8 503.6,0 911.8,-408.22 911.8,-911.8"
         transform="translate(0,-2.5e-4)"
         id="path2081" />
    </clipPath>
    <clipPath
       clipPathUnits="userSpaceOnUse"
       id="clipPath2083">
      <path
         d="m 33152.8,2934.46 c 0,-503.56 -408.2,-911.79 -911.8,-911.79 -503.6,0 -911.8,408.23 -911.8,911.79 0,503.58 408.2,911.8 911.8,911.8 503.6,0 911.8,-408.22 911.8,-911.8"
         transform="translate(0,-2.5e-4)"
         id="path2083" />
    </clipPath>
    <clipPath
       clipPathUnits="userSpaceOnUse"
       id="clipPath2084">
      <path
         d="m 32711.9,2242.48 c -84.7,56.74 -187,79.45 -287,99.53 -6.1,1.23 -12.4,2.56 -17.3,6.38 -8.4,6.56 10.6,227.34 0,323.87 l -142.7,-13.36 -142.7,13.36 c -10.6,-96.53 8.4,-317.31 0,-323.87 -4.9,-3.82 -11.2,-5.15 -17.3,-6.38 -100,-20.08 -202.4,-42.79 -287.1,-99.53 -84.7,-56.72 -148.9,-155.67 -135.3,-256.72 85.1,0.45 343,-1.09 583.5,-4.26 v -0.52 c 6.5,0.09 12.9,0.18 19.3,0.27 6.5,-0.09 12.9,-0.18 19.4,-0.27 v 0.52 c 240.5,3.17 457.5,4.71 542.5,4.26 13.6,101.05 -50.5,200 -135.3,256.72"
         transform="translate(0,-2.5e-4)"
         id="path2084" />
    </clipPath>
    <clipPath
       clipPathUnits="userSpaceOnUse"
       id="clipPath2087">
      <path
         d="m 33152.8,2934.46 c 0,-503.56 -408.2,-911.79 -911.8,-911.79 -503.6,0 -911.8,408.23 -911.8,911.79 0,503.58 408.2,911.8 911.8,911.8 503.6,0 911.8,-408.22 911.8,-911.8"
         transform="translate(0,-2.5e-4)"
         id="path2087" />
    </clipPath>
    <clipPath
       clipPathUnits="userSpaceOnUse"
       id="clipPath2089">
      <path
         d="m 33152.8,2934.46 c 0,-503.56 -408.2,-911.79 -911.8,-911.79 -503.6,0 -911.8,408.23 -911.8,911.79 0,503.58 408.2,911.8 911.8,911.8 503.6,0 911.8,-408.22 911.8,-911.8"
         transform="translate(0,-2.5e-4)"
         id="path2089" />
    </clipPath>
    <clipPath
       clipPathUnits="userSpaceOnUse"
       id="clipPath2091">
      <path
         d="m 33152.8,2934.46 c 0,-503.56 -408.2,-911.79 -911.8,-911.79 -503.6,0 -911.8,408.23 -911.8,911.79 0,503.58 408.2,911.8 911.8,911.8 503.6,0 911.8,-408.22 911.8,-911.8"
         transform="translate(0,-2.5e-4)"
         id="path2091" />
    </clipPath>
    <clipPath
       clipPathUnits="userSpaceOnUse"
       id="clipPath2093">
      <path
         d="m 33152.8,2934.46 c 0,-503.56 -408.2,-911.79 -911.8,-911.79 -503.6,0 -911.8,408.23 -911.8,911.79 0,503.58 408.2,911.8 911.8,911.8 503.6,0 911.8,-408.22 911.8,-911.8"
         transform="translate(0,-2.5e-4)"
         id="path2093" />
    </clipPath>
    <clipPath
       clipPathUnits="userSpaceOnUse"
       id="clipPath2095">
      <path
         d="m 33152.8,2934.46 c 0,-503.56 -408.2,-911.79 -911.8,-911.79 -503.6,0 -911.8,408.23 -911.8,911.79 0,503.58 408.2,911.8 911.8,911.8 503.6,0 911.8,-408.22 911.8,-911.8"
         transform="translate(0,-2.5e-4)"
         id="path2095" />
    </clipPath>
    <clipPath
       clipPathUnits="userSpaceOnUse"
       id="clipPath2097">
      <path
         d="m 33152.8,2934.46 c 0,-503.56 -408.2,-911.79 -911.8,-911.79 -503.6,0 -911.8,408.23 -911.8,911.79 0,503.58 408.2,911.8 911.8,911.8 503.6,0 911.8,-408.22 911.8,-911.8"
         transform="translate(0,-2.5e-4)"
         id="path2097" />
    </clipPath>
    <clipPath
       clipPathUnits="userSpaceOnUse"
       id="clipPath2099">
      <path
         d="m 33152.8,2934.46 c 0,-503.56 -408.2,-911.79 -911.8,-911.79 -503.6,0 -911.8,408.23 -911.8,911.79 0,503.58 408.2,911.8 911.8,911.8 503.6,0 911.8,-408.22 911.8,-911.8"
         transform="translate(0,-2.5e-4)"
         id="path2099" />
    </clipPath>
    <clipPath
       clipPathUnits="userSpaceOnUse"
       id="clipPath2101">
      <path
         d="m 33152.8,2934.46 c 0,-503.56 -408.2,-911.79 -911.8,-911.79 -503.6,0 -911.8,408.23 -911.8,911.79 0,503.58 408.2,911.8 911.8,911.8 503.6,0 911.8,-408.22 911.8,-911.8"
         transform="translate(0,-2.5e-4)"
         id="path2101" />
    </clipPath>
    <clipPath
       clipPathUnits="userSpaceOnUse"
       id="clipPath2103">
      <path
         d="m 33152.8,2934.46 c 0,-503.56 -408.2,-911.79 -911.8,-911.79 -503.6,0 -911.8,408.23 -911.8,911.79 0,503.58 408.2,911.8 911.8,911.8 503.6,0 911.8,-408.22 911.8,-911.8"
         transform="translate(0,-2.5e-4)"
         id="path2103" />
    </clipPath>
    <clipPath
       clipPathUnits="userSpaceOnUse"
       id="clipPath2105">
      <path
         d="m 33152.8,2934.46 c 0,-503.56 -408.2,-911.79 -911.8,-911.79 -503.6,0 -911.8,408.23 -911.8,911.79 0,503.58 408.2,911.8 911.8,911.8 503.6,0 911.8,-408.22 911.8,-911.8"
         transform="translate(0,-2.5e-4)"
         id="path2105" />
    </clipPath>
    <clipPath
       clipPathUnits="userSpaceOnUse"
       id="clipPath2107">
      <path
         d="m 33152.8,2934.46 c 0,-503.56 -408.2,-911.79 -911.8,-911.79 -503.6,0 -911.8,408.23 -911.8,911.79 0,503.58 408.2,911.8 911.8,911.8 503.6,0 911.8,-408.22 911.8,-911.8"
         transform="translate(0,-2.5e-4)"
         id="path2107" />
    </clipPath>
    <clipPath
       clipPathUnits="userSpaceOnUse"
       id="clipPath2109">
      <path
         d="m 33152.8,2934.46 c 0,-503.56 -408.2,-911.79 -911.8,-911.79 -503.6,0 -911.8,408.23 -911.8,911.79 0,503.58 408.2,911.8 911.8,911.8 503.6,0 911.8,-408.22 911.8,-911.8"
         transform="translate(0,-2.5e-4)"
         id="path2109" />
    </clipPath>
    <clipPath
       clipPathUnits="userSpaceOnUse"
       id="clipPath2111">
      <path
         d="m 33152.8,2934.46 c 0,-503.56 -408.2,-911.79 -911.8,-911.79 -503.6,0 -911.8,408.23 -911.8,911.79 0,503.58 408.2,911.8 911.8,911.8 503.6,0 911.8,-408.22 911.8,-911.8"
         transform="translate(0,-2.5e-4)"
         id="path2111" />
    </clipPath>
    <clipPath
       clipPathUnits="userSpaceOnUse"
       id="clipPath2113">
      <path
         d="m 33152.8,2934.46 c 0,-503.56 -408.2,-911.79 -911.8,-911.79 -503.6,0 -911.8,408.23 -911.8,911.79 0,503.58 408.2,911.8 911.8,911.8 503.6,0 911.8,-408.22 911.8,-911.8"
         transform="translate(0,-2.5e-4)"
         id="path2113" />
    </clipPath>
    <clipPath
       clipPathUnits="userSpaceOnUse"
       id="clipPath2115">
      <path
         d="m 33152.8,2934.46 c 0,-503.56 -408.2,-911.79 -911.8,-911.79 -503.6,0 -911.8,408.23 -911.8,911.79 0,503.58 408.2,911.8 911.8,911.8 503.6,0 911.8,-408.22 911.8,-911.8"
         transform="translate(0,-2.5e-4)"
         id="path2115" />
    </clipPath>
    <clipPath
       clipPathUnits="userSpaceOnUse"
       id="clipPath2117">
      <path
         d="m 33152.8,2934.46 c 0,-503.56 -408.2,-911.79 -911.8,-911.79 -503.6,0 -911.8,408.23 -911.8,911.79 0,503.58 408.2,911.8 911.8,911.8 503.6,0 911.8,-408.22 911.8,-911.8"
         transform="translate(0,-2.5e-4)"
         id="path2117" />
    </clipPath>
    <clipPath
       clipPathUnits="userSpaceOnUse"
       id="clipPath2119">
      <path
         d="m 33152.8,2934.46 c 0,-503.56 -408.2,-911.79 -911.8,-911.79 -503.6,0 -911.8,408.23 -911.8,911.79 0,503.58 408.2,911.8 911.8,911.8 503.6,0 911.8,-408.22 911.8,-911.8"
         transform="translate(0,-2.5e-4)"
         id="path2119" />
    </clipPath>
    <clipPath
       clipPathUnits="userSpaceOnUse"
       id="clipPath2121">
      <path
         d="m 33152.8,2934.46 c 0,-503.56 -408.2,-911.79 -911.8,-911.79 -503.6,0 -911.8,408.23 -911.8,911.79 0,503.58 408.2,911.8 911.8,911.8 503.6,0 911.8,-408.22 911.8,-911.8"
         transform="translate(0,-2.5e-4)"
         id="path2121" />
    </clipPath>
    <clipPath
       clipPathUnits="userSpaceOnUse"
       id="clipPath2123">
      <path
         d="m 33152.8,2934.46 c 0,-503.56 -408.2,-911.79 -911.8,-911.79 -503.6,0 -911.8,408.23 -911.8,911.79 0,503.58 408.2,911.8 911.8,911.8 503.6,0 911.8,-408.22 911.8,-911.8"
         transform="translate(0,-2.5e-4)"
         id="path2123" />
    </clipPath>
    <clipPath
       clipPathUnits="userSpaceOnUse"
       id="clipPath2125">
      <path
         d="m 33152.8,2934.46 c 0,-503.56 -408.2,-911.79 -911.8,-911.79 -503.6,0 -911.8,408.23 -911.8,911.79 0,503.58 408.2,911.8 911.8,911.8 503.6,0 911.8,-408.22 911.8,-911.8"
         transform="translate(0,-2.5e-4)"
         id="path2125" />
    </clipPath>
    <clipPath
       clipPathUnits="userSpaceOnUse"
       id="clipPath2127">
      <path
         d="m 33152.8,2934.46 c 0,-503.56 -408.2,-911.79 -911.8,-911.79 -503.6,0 -911.8,408.23 -911.8,911.79 0,503.58 408.2,911.8 911.8,911.8 503.6,0 911.8,-408.22 911.8,-911.8"
         transform="translate(0,-2.5e-4)"
         id="path2127" />
    </clipPath>
    <clipPath
       clipPathUnits="userSpaceOnUse"
       id="clipPath2129">
      <path
         d="m 33152.8,2934.46 c 0,-503.56 -408.2,-911.79 -911.8,-911.79 -503.6,0 -911.8,408.23 -911.8,911.79 0,503.58 408.2,911.8 911.8,911.8 503.6,0 911.8,-408.22 911.8,-911.8"
         transform="translate(0,-2.5e-4)"
         id="path2129" />
    </clipPath>
    <clipPath
       clipPathUnits="userSpaceOnUse"
       id="clipPath2131">
      <path
         d="m 33152.8,2934.46 c 0,-503.56 -408.2,-911.79 -911.8,-911.79 -503.6,0 -911.8,408.23 -911.8,911.79 0,503.58 408.2,911.8 911.8,911.8 503.6,0 911.8,-408.22 911.8,-911.8"
         transform="translate(0,-2.5e-4)"
         id="path2131" />
    </clipPath>
    <clipPath
       clipPathUnits="userSpaceOnUse"
       id="clipPath2133">
      <path
         d="m 33152.8,2934.46 c 0,-503.56 -408.2,-911.79 -911.8,-911.79 -503.6,0 -911.8,408.23 -911.8,911.79 0,503.58 408.2,911.8 911.8,911.8 503.6,0 911.8,-408.22 911.8,-911.8"
         transform="translate(0,-2.5e-4)"
         id="path2133" />
    </clipPath>
    <clipPath
       clipPathUnits="userSpaceOnUse"
       id="clipPath2135">
      <path
         d="m 33152.8,2934.46 c 0,-503.56 -408.2,-911.79 -911.8,-911.79 -503.6,0 -911.8,408.23 -911.8,911.79 0,503.58 408.2,911.8 911.8,911.8 503.6,0 911.8,-408.22 911.8,-911.8"
         transform="translate(0,-2.5e-4)"
         id="path2135" />
    </clipPath>
    <clipPath
       clipPathUnits="userSpaceOnUse"
       id="clipPath2137">
      <path
         d="m 33152.8,2934.46 c 0,-503.56 -408.2,-911.79 -911.8,-911.79 -503.6,0 -911.8,408.23 -911.8,911.79 0,503.58 408.2,911.8 911.8,911.8 503.6,0 911.8,-408.22 911.8,-911.8"
         transform="translate(0,-2.5e-4)"
         id="path2137" />
    </clipPath>
    <clipPath
       clipPathUnits="userSpaceOnUse"
       id="clipPath2139">
      <path
         d="m 33152.8,2934.46 c 0,-503.56 -408.2,-911.79 -911.8,-911.79 -503.6,0 -911.8,408.23 -911.8,911.79 0,503.58 408.2,911.8 911.8,911.8 503.6,0 911.8,-408.22 911.8,-911.8"
         transform="translate(0,-2.5e-4)"
         id="path2139" />
    </clipPath>
  </defs>
  <g
     inkscape:label="Layer 1"
     inkscape:groupmode="layer"
     id="layer1"
     transform="translate(-68.527225,-113.77081)">
    <path
       id="path2078"
       d="m 33152.8,2022.67 h -1823.6 v 1823.59 h 1823.6 V 2022.67"
       style="fill:#a59eff;fill-opacity:1;fill-rule:nonzero;stroke:none"
       transform="matrix(0.03527778,0,0,-0.03527778,-1036.6974,249.45832)"
       clip-path="url(#clipPath2079)" />
    <path
       id="path2080"
       d="m 32197.6,2114.51 c -10.4,-45.38 -43.2,-88.31 -90.2,-101.93 -47,-13.63 -105.8,10.43 -118.3,55.33 -6.1,-20.9 -32.2,-31.87 -55,-29.47 -22.9,2.4 -43,14.77 -61.9,27.08 -52.6,34.27 -105.8,73.34 -131.2,128.79 -25.3,55.45 -11.9,131.18 44.8,159.08 -57.5,73.87 -79.7,171.32 -59.4,261 9.8,43.63 30.3,86.61 66.2,115.65 35.8,29.03 88.9,41.44 131.9,23.01 -4.1,79.65 0.9,176.14 74.5,215.28 24.4,13.02 53.1,17.09 81.1,19.01 80.4,5.5 177.3,-15.72 205,-87.21 49.7,52.92 123.7,90.54 197.9,80.98 74.2,-9.55 140.3,-77.68 126.8,-147.26 49.4,33.82 128,10.02 154.1,-42.05 26.1,-52.07 1.9,-119.39 -48.2,-152.31 58.5,-0.99 104.2,-55.9 108.1,-111 3.9,-55.09 -24.5,-107.94 -59.9,-151.88 40.8,-45.35 43,-117.72 5,-165.19 -18.1,-22.62 -43.7,-39.44 -60.1,-63.17 -11.7,-16.86 -18.3,-36.55 -30.5,-53.01 -28.1,-37.67 -86.8,-51.42 -130.3,-30.52 -21.4,-61.81 -109.6,-92.8 -168.6,-59.21 -29.2,-25.58 -54.7,-32.46 -91,-16.67 -36.2,15.78 -80.9,53.28 -79.3,90.92 l -11.5,34.75"
       style="fill:#262b44;fill-opacity:1;fill-rule:nonzero;stroke:none"
       transform="matrix(0.03527778,0,0,-0.03527778,-1036.6974,249.45832)"
       clip-path="url(#clipPath2081)" />
    <path
       id="path2082"
       d="m 32712,2242.48 c -84.8,56.73 -187.1,79.45 -287.1,99.53 -6.1,1.23 -12.4,2.55 -17.3,6.39 -8.4,6.55 10.6,227.33 0,323.86 l -142.7,-13.36 -142.7,13.36 c -10.6,-96.53 8.4,-317.31 0,-323.86 -4.9,-3.84 -11.2,-5.16 -17.3,-6.39 -100,-20.08 -202.4,-42.8 -287.1,-99.53 -84.7,-56.73 -148.9,-155.67 -135.2,-256.71 85,0.44 342.9,-1.1 583.4,-4.27 v -0.52 c 6.5,0.09 12.9,0.18 19.4,0.27 6.4,-0.09 12.8,-0.18 19.3,-0.27 v 0.52 c 240.5,3.17 457.5,4.71 542.5,4.27 13.6,101.04 -50.5,199.98 -135.2,256.71"
       style="fill:#f0bf85;fill-opacity:1;fill-rule:nonzero;stroke:none"
       transform="matrix(0.03527778,0,0,-0.03527778,-1036.6974,249.45832)"
       clip-path="url(#clipPath2083)" />
    <g
       id="g2085"
       transform="matrix(0.26458333,0,0,0.26458333,-1036.6974,-109.05561)">
      <path
         d="m 31932.3,2675.37 c 56.3,36.24 58.7,53.63 61.4,36.24 13.3,-85.44 148.3,-291.26 271.1,-291.26 158.9,0 251.1,268.24 266,335.84 -183.7,-26.25 -369.7,-52.54 -553.9,-30.45 5.1,-4.77 10.1,-9.55 15.2,-14.32 l -59.8,-36.05"
         style="fill:#d3a06c;fill-opacity:1;fill-rule:nonzero;stroke:none"
         transform="matrix(0.13333333,0,0,-0.13333333,0,1355.0133)"
         clip-path="url(#clipPath2084)"
         id="path2085" />
    </g>
    <path
       id="path2086"
       d="m 32564.9,2783.06 c -1.7,22.95 -16.2,45.82 -38.2,52.5 -14.5,4.4 -31.2,-0.28 -42,-10.45 7.2,123.53 3.3,315.81 -5,316.52 -128.1,10.84 -301.9,37.06 -426.5,5.64 v -3.6 c -24,-80.98 -26.1,-206.48 -15.8,-312.23 -10,5.58 -22.4,7.47 -33.4,4.12 -22,-6.68 -36.6,-29.55 -38.2,-52.5 -1.7,-22.96 7.6,-45.55 20.8,-64.42 18.8,-26.88 49.7,-48.54 81.4,-48.26 13.4,-41.68 32.4,-81.38 60.7,-114.49 40.3,-47.15 102.4,-79.04 163.9,-70.68 59.4,8.09 109.3,52.26 138.3,104.78 14,25.3 23.8,52.43 31.1,80.38 32,-0.56 63.2,21.22 82,48.27 13.2,18.87 22.5,41.46 20.9,64.42"
       style="fill:#f0bf85;fill-opacity:1;fill-rule:nonzero;stroke:none"
       transform="matrix(0.03527778,0,0,-0.03527778,-1036.6974,249.45832)"
       clip-path="url(#clipPath2087)" />
    <path
       id="path2088"
       d="m 32152.8,2840.47 c 0,-14.42 -11.4,-26.1 -25.5,-26.1 -14.1,0 -25.6,11.68 -25.6,26.1 0,14.41 11.5,26.1 25.6,26.1 14.1,0 25.5,-11.69 25.5,-26.1"
       style="fill:#1a1a1a;fill-opacity:1;fill-rule:nonzero;stroke:none"
       transform="matrix(0.03527778,0,0,-0.03527778,-1036.6974,249.45832)"
       clip-path="url(#clipPath2089)" />
    <path
       id="path2090"
       d="m 32413.2,2840.47 c 0,-14.42 -11.5,-26.1 -25.6,-26.1 -14.1,0 -25.5,11.68 -25.5,26.1 0,14.41 11.4,26.1 25.5,26.1 14.1,0 25.6,-11.69 25.6,-26.1"
       style="fill:#1a1a1a;fill-opacity:1;fill-rule:nonzero;stroke:none"
       transform="matrix(0.03527778,0,0,-0.03527778,-1036.6974,249.45832)"
       clip-path="url(#clipPath2091)" />
    <path
       id="path2092"
       d="m 32214.5,2692.93 c 17.1,-44.95 58,-65.41 87.4,-4.52 l -87.4,4.52"
       style="fill:#ffffff;fill-opacity:1;fill-rule:nonzero;stroke:none"
       transform="matrix(0.03527778,0,0,-0.03527778,-1036.6974,249.45832)"
       clip-path="url(#clipPath2093)" />
    <path
       id="path2094"
       d="m 32207.1,2690.89 c 6.4,-16.66 16.5,-33.8 32.5,-42.77 15.5,-8.63 32.5,-5.86 46,5.06 10.1,8.18 17.3,19.82 23,31.36 2.6,5.33 -0.6,11.23 -6.7,11.55 -25.4,1.31 -50.9,2.63 -76.4,3.95 -3.6,0.19 -7.3,0.37 -11,0.56 -9.8,0.52 -9.8,-14.83 0,-15.34 25.5,-1.32 51,-2.63 76.4,-3.95 3.7,-0.19 7.4,-0.38 11,-0.57 -2.2,3.85 -4.4,7.7 -6.6,11.55 -5.1,-10.34 -11.2,-21.13 -20.5,-28.27 -3.7,-2.77 -6.8,-4.36 -10.8,-5.34 -2.4,-0.58 -1.8,-0.5 -4.3,-0.56 -1,-0.02 -2,0.02 -3.1,0.1 -1.3,0.12 0.3,-0.13 -1.4,0.24 -7.2,1.58 -13.1,5.74 -18.5,11.67 -6.5,7.08 -11.3,15.89 -14.8,24.84 -1.5,3.87 -5.1,6.54 -9.4,5.36 -3.7,-1.01 -6.9,-5.55 -5.4,-9.44"
       style="fill:#a46e4a;fill-opacity:1;fill-rule:nonzero;stroke:none"
       transform="matrix(0.03527778,0,0,-0.03527778,-1036.6974,249.45832)"
       clip-path="url(#clipPath2095)" />
    <path
       id="path2096"
       d="m 32479.8,2744.43 c 1.2,1.99 2.5,3.93 3.8,5.83 l 1,1.34 0.6,0.8 0.7,0.79 1.2,1.53 c 3,3.45 6.2,6.69 9.6,9.67 l 2.5,2.14 1.3,1.03 c -1.1,-0.92 0.1,0.03 0.3,0.21 1.9,1.38 3.8,2.69 5.8,3.93 3.9,2.47 8.1,4.62 12.3,6.47 3.7,1.6 4.8,7.3 2.8,10.5 -2.5,3.83 -6.6,4.46 -10.5,2.75 -18.5,-8 -34.2,-22.06 -44.6,-39.25 -2.1,-3.43 -0.9,-8.58 2.7,-10.49 3.7,-1.97 8.3,-0.92 10.5,2.75"
       style="fill:#a46e4a;fill-opacity:1;fill-rule:nonzero;stroke:none"
       transform="matrix(0.03527778,0,0,-0.03527778,-1036.6974,249.45832)"
       clip-path="url(#clipPath2097)" />
    <path
       id="path2098"
       d="m 32490.7,2758.18 2.1,-1.28 0.8,-0.55 c 0.1,-0.09 1.4,-1.07 0.4,-0.27 -0.9,0.78 0.2,-0.13 0.4,-0.3 l 0.9,-0.79 1.6,-1.49 c 1.2,-1.14 2.3,-2.35 3.3,-3.6 l -0.3,0.4 0.7,-0.99 1.3,-2.03 c 0.9,-1.31 1.6,-2.67 2.3,-4.06 l 0.4,-0.89 c 0.7,-1.51 -0.5,1.18 -0.1,0.26 l 0.8,-2.28 c 0.5,-1.47 0.9,-2.96 1.2,-4.47 l 0.4,-2.39 c -0.1,0.34 -0.2,1.65 -0.1,0.59 l 0.1,-1.46 c 0.3,-4 3.4,-7.87 7.7,-7.67 3.9,0.17 8,3.38 7.7,7.67 -1.1,15.95 -9.9,30.72 -23.8,38.85 -3.5,2.04 -8.6,0.91 -10.5,-2.75 -2,-3.68 -0.9,-8.33 2.7,-10.5"
       style="fill:#a46e4a;fill-opacity:1;fill-rule:nonzero;stroke:none"
       transform="matrix(0.03527778,0,0,-0.03527778,-1036.6974,249.45832)"
       clip-path="url(#clipPath2099)" />
    <path
       id="path2100"
       d="m 32006.3,2791.06 c 10.4,-17.41 20.9,-34.82 31.3,-52.22 2.2,-3.55 6.9,-4.87 10.5,-2.76 3.6,2.08 4.9,6.94 2.8,10.5 -10.5,17.41 -20.9,34.82 -31.4,52.23 -2.1,3.54 -6.9,4.86 -10.5,2.75 -3.5,-2.08 -4.9,-6.93 -2.7,-10.5"
       style="fill:#a46e4a;fill-opacity:1;fill-rule:nonzero;stroke:none"
       transform="matrix(0.03527778,0,0,-0.03527778,-1036.6974,249.45832)"
       clip-path="url(#clipPath2101)" />
    <path
       id="path2102"
       d="m 32006.7,2741.99 c 6.9,5.21 13.9,10.42 20.9,15.63 1.7,1.24 2.9,2.51 3.5,4.59 0.5,1.83 0.3,4.28 -0.8,5.91 -1,1.64 -2.6,3.08 -4.5,3.53 -1.9,0.43 -4.3,0.43 -6,-0.78 -6.9,-5.21 -13.9,-10.42 -20.9,-15.63 -1.6,-1.24 -2.9,-2.51 -3.5,-4.58 -0.5,-1.84 -0.3,-4.29 0.8,-5.92 1,-1.64 2.6,-3.08 4.6,-3.52 1.8,-0.43 4.2,-0.44 5.9,0.77"
       style="fill:#a46e4a;fill-opacity:1;fill-rule:nonzero;stroke:none"
       transform="matrix(0.03527778,0,0,-0.03527778,-1036.6974,249.45832)"
       clip-path="url(#clipPath2103)" />
    <path
       id="path2104"
       d="m 32361.8,2930.55 c 1.5,0.72 3.3,1.42 5.8,2.1 1.1,0.32 2.3,0.6 3.5,0.83 l 1.6,0.28 v 0.01 l 0.8,0.08 c 5.1,0.42 9.4,0.27 13.4,-0.57 9.4,-1.96 16.8,-6.07 23.1,-13.09 2.8,-3.08 8,-2.82 10.9,0 3,3.07 2.7,7.76 0,10.86 -16.6,18.48 -44.7,23.27 -66.9,12.75 -3.7,-1.78 -4.7,-7.14 -2.7,-10.5 2.2,-3.83 6.7,-4.53 10.5,-2.75"
       style="fill:#262b44;fill-opacity:1;fill-rule:nonzero;stroke:none"
       transform="matrix(0.03527778,0,0,-0.03527778,-1036.6974,249.45832)"
       clip-path="url(#clipPath2105)" />
    <path
       id="path2106"
       d="m 32119.2,2918.75 c 6.1,7.71 13.5,12.33 22.5,14.71 1.2,0.31 2.4,0.58 3.6,0.8 l 1.6,0.28 h -0.1 l 0.8,0.09 c 2.5,0.2 4.9,0.31 7.3,0.2 l 2,-0.13 c 0.2,-0.02 1.9,-0.2 0.7,-0.04 1.2,-0.16 2.4,-0.4 3.6,-0.66 2.5,-0.57 4.9,-1.35 7.3,-2.31 3.8,-1.56 8.4,1.69 9.4,5.36 1.2,4.38 -1.5,7.88 -5.3,9.44 -21.9,8.85 -49.6,1.58 -64.3,-16.89 -2.6,-3.24 -3.1,-7.69 0,-10.85 2.7,-2.68 8.3,-3.26 10.9,0"
       style="fill:#262b44;fill-opacity:1;fill-rule:nonzero;stroke:none"
       transform="matrix(0.03527778,0,0,-0.03527778,-1036.6974,249.45832)"
       clip-path="url(#clipPath2107)" />
    <path
       id="path2108"
       d="m 31884.2,2282.23 c 50.6,-43.26 385.7,-214.85 385.7,-214.85 0,0 332.8,162.27 384,209.74 166.4,-28.62 191.3,-225.22 197.9,-284.7 -367.2,-44.77 -653.5,-267.78 -1159,-24.01 -7.7,3.74 -17.9,1.69 -24.1,7.36 -9,8.15 -8.4,22.04 -5.9,33.68 50.2,239.05 221.4,272.78 221.4,272.78"
       style="fill:#8ca3c3;fill-opacity:1;fill-rule:nonzero;stroke:none"
       transform="matrix(0.03527778,0,0,-0.03527778,-1036.6974,249.45832)"
       clip-path="url(#clipPath2109)" />
    <path
       id="path2110"
       d="m 32096.9,2344.69 c 38.3,-43.25 83.4,-93.53 144.1,-100.91 50.2,-6.09 101.9,13.89 141.8,43.29 24,17.74 44.9,39.65 60.5,65.15 2.6,4.22 -4,8.08 -6.6,3.88 -26.7,-43.45 -69.5,-77.32 -117.4,-94.47 -22.5,-8.04 -46.5,-12.47 -70.4,-10.91 -25.2,1.65 -47.8,11.25 -68.5,25.36 -29.8,20.21 -54.3,47.26 -78.1,74.04 -3.2,3.7 -8.7,-1.74 -5.4,-5.43"
       style="fill:#ef6a55;fill-opacity:1;fill-rule:nonzero;stroke:none"
       transform="matrix(0.03527778,0,0,-0.03527778,-1036.6974,249.45832)"
       clip-path="url(#clipPath2111)" />
    <path
       id="path2112"
       d="m 32264.8,2730.26 c 26.1,17.95 51.2,37.43 74.9,58.36 4.2,3.62 2.2,11.84 -3.3,12.83 -28.8,5.07 -57.7,10.14 -86.5,15.22 1.9,-2.47 3.8,-4.93 5.7,-7.4 -0.4,27.23 -0.7,54.47 -1,81.7 -0.1,9.87 -15.5,9.89 -15.4,0 0.4,-27.23 0.7,-54.47 1,-81.7 0.1,-3.11 2.4,-6.82 5.7,-7.4 28.8,-5.07 57.6,-10.15 86.4,-15.22 -1.1,4.27 -2.3,8.55 -3.4,12.82 -22.8,-20.07 -46.8,-38.74 -71.8,-55.96 -8.1,-5.56 -0.4,-18.86 7.7,-13.25"
       style="fill:#a46e4a;fill-opacity:1;fill-rule:nonzero;stroke:none"
       transform="matrix(0.03527778,0,0,-0.03527778,-1036.6974,249.45832)"
       clip-path="url(#clipPath2113)" />
    <path
       id="path2114"
       d="m 32709.9,2817.14 c 34.7,-13.88 61.1,-48.47 64.4,-85.8 3.4,-38.4 -16,-77.07 -48.6,-97.47 -7.5,-4.68 -2.6,-15.87 5.9,-14.03 42.1,9.13 80.7,-25.33 97.5,-60.93 20,-42.58 -1.6,-87.7 -35.5,-115.71 -19.7,-16.25 -43.2,-27.62 -66.6,-37.42 -3.8,-1.61 -6.5,-5.06 -5.3,-9.44 0.9,-3.61 5.6,-6.96 9.4,-5.36 46.5,19.44 93.7,46 113.5,95 9.5,23.37 10.6,49.25 1.1,72.81 -9.1,22.73 -24.3,42.76 -43.9,57.45 -21.4,15.99 -47.8,24.13 -74.3,18.4 2,-4.68 4,-9.35 5.9,-14.03 29.2,18.23 49.9,49.25 55.1,83.33 5.3,34.37 -5.3,68.6 -27.8,94.93 -12.6,14.75 -28.7,25.87 -46.7,33.07 -9.1,3.67 -13.1,-11.17 -4.1,-14.8"
       style="fill:#262b44;fill-opacity:1;fill-rule:nonzero;stroke:none"
       transform="matrix(0.03527778,0,0,-0.03527778,-1036.6974,249.45832)"
       clip-path="url(#clipPath2115)" />
    <path
       id="path2116"
       d="m 31957.6,2932.67 c -48.4,-25.25 -75.6,-81.97 -66.4,-135.54 3.2,3.14 6.3,6.29 9.5,9.44 -53.1,8.87 -108.2,-7.78 -148.4,-43.35 -41.5,-36.68 -61.4,-92.57 -55.5,-147.33 3.3,-31.37 14.3,-61.69 33.4,-86.99 0.9,3.5 1.8,7 2.7,10.5 -33.3,-22.63 -53.5,-61.54 -53.8,-101.78 -0.4,-41.17 22.2,-78.79 56.6,-100.7 19.2,-12.2 41.5,-18.98 64.2,-19.09 9.9,-0.05 9.9,15.3 0,15.35 -35.2,0.17 -69.2,19.15 -88.7,48.44 -19.7,29.49 -21.7,67.12 -7.5,99.38 7.9,18.09 20.6,34.03 37,45.15 3.1,2.12 5.3,7 2.7,10.5 -30.6,40.7 -40,94.97 -25.9,143.83 13.7,47.87 51.1,85.74 97.6,102.89 26,9.56 54.1,12.97 81.5,8.4 6,-1.01 10.5,3.36 9.4,9.44 -8,46.95 17.4,96.34 59.4,118.21 8.8,4.56 1,17.81 -7.8,13.25"
       style="fill:#262b44;fill-opacity:1;fill-rule:nonzero;stroke:none"
       transform="matrix(0.03527778,0,0,-0.03527778,-1036.6974,249.45832)"
       clip-path="url(#clipPath2117)" />
    <path
       id="path2118"
       d="m 32557.9,3087.98 c -5,23.16 8.7,211.18 -263.9,167.7 -9.2,-1.47 -18.8,-3.4 -27.8,-0.33 -7.3,2.5 -13.6,8.18 -20.3,12.49 -18.7,11.89 -40.6,13.19 -61.5,11.06 -73.7,-7.49 -144,-56.5 -187.3,-130.66 l 2.3,0.21 c -7,-11.94 -11.8,-25.18 -15.4,-38.47 -19.1,-70.62 -10.5,-145.02 -1.8,-217.47 1.9,-15.22 3.9,-31.02 12.6,-43.95 8.6,-12.93 26,-21.99 41.1,-16.74 15.2,5.25 20.6,28.43 6.7,36.21 22,6.2 36.6,27.22 40.4,48.69 3.8,21.47 -1.3,43.41 -7.4,64.39 29.2,-10.19 65,-0.1 83.6,23.61 18.6,23.71 18.6,59.07 -0.1,82.76 48.3,-30.47 115.6,-31.1 164.5,-1.54 15.2,-22.05 35.7,-42.41 62.4,-49.89 13,-3.66 32.4,3.17 50.3,13.87 -1.7,-22.05 10.3,-44.91 30.5,-56.17 -19.3,-12.46 -30.4,-35.39 -27.9,-57.4 2.5,-22 18.5,-42.14 40.2,-50.41 -14.3,-14.77 -25.6,-34.12 -23.2,-54.06 0.1,-1 0.3,-1.99 0.5,-2.97 5.3,-25.22 38.6,-34.41 58.7,-17.17 l 18.8,16.16 c -0.1,0.9 -0.2,1.8 -0.4,2.7 l 1,-1.92 -0.3,-0.54 17.1,14.65 c 0,0 28.2,145.95 6.6,245.19"
       style="fill:#262b44;fill-opacity:1;fill-rule:nonzero;stroke:none"
       transform="matrix(0.03527778,0,0,-0.03527778,-1036.6974,249.45832)"
       clip-path="url(#clipPath2119)" />
    <path
       id="path2120"
       d="m 32533.9,2827.66 0.3,0.48 -0.3,-0.24 z"
       style="fill:#262b44;fill-opacity:1;fill-rule:nonzero;stroke:none"
       transform="matrix(0.03527778,0,0,-0.03527778,-1036.6974,249.45832)"
       clip-path="url(#clipPath2121)" />
    <path
       id="path2122"
       d="m 31866.3,2291.54 c -17.9,-6.59 -22.6,-29.63 -22.1,-48.71 2,-67.34 36.7,-132.96 91.3,-172.42 54.6,-39.44 127.9,-51.83 192.4,-32.52 33.2,9.94 95.3,27.81 129.9,29.88 45.5,2.73 56.9,-22.03 101.3,-32.01 60.9,-13.7 124.7,0.89 183.5,21.92 51.8,18.5 104.4,44.19 134.6,90.09 30.3,45.89 28.4,116.6 -16.8,147.89 l -400.7,-228.28 -393.4,224.16"
       style="fill:#4f657f;fill-opacity:1;fill-rule:nonzero;stroke:none"
       transform="matrix(0.03527778,0,0,-0.03527778,-1036.6974,249.45832)"
       clip-path="url(#clipPath2123)" />
    <path
       id="path2124"
       d="m 31874.6,2078.48 c 0,-27.43 0,-54.85 0,-82.28 0,-9.88 15.3,-9.89 15.3,0 0,27.43 0,54.85 0,82.28 0,9.88 -15.3,9.89 -15.3,0"
       style="fill:#4f657f;fill-opacity:1;fill-rule:nonzero;stroke:none"
       transform="matrix(0.03527778,0,0,-0.03527778,-1036.6974,249.45832)"
       clip-path="url(#clipPath2125)" />
    <path
       id="path2126"
       d="m 32643.4,2088.25 c -5.5,-30.33 -6.4,-61.18 -2.5,-91.75 0.5,-4.11 3.1,-7.68 7.7,-7.68 3.7,0 8.2,3.54 7.6,7.68 -3.7,29.14 -3.2,58.74 2,87.67 0.7,4.07 -1.1,8.27 -5.4,9.44 -3.7,1.02 -8.7,-1.26 -9.4,-5.36"
       style="fill:#4f657f;fill-opacity:1;fill-rule:nonzero;stroke:none"
       transform="matrix(0.03527778,0,0,-0.03527778,-1036.6974,249.45832)"
       clip-path="url(#clipPath2127)" />
    <path
       id="path2128"
       d="m 32319.2,3102.37 c -3.5,-16.79 -11.7,-32.04 -23.9,-44.05 -9.9,-9.68 -23.5,-19.26 -38.1,-17.44 -4.2,0.53 -10,2.65 -10.2,7.77 -0.1,3.9 4.1,6.22 7.6,7.18 14,3.89 18.1,-11.08 13.6,-21.88 -8.2,-19.65 -32.9,-22.05 -51.3,-23.83 -9.8,-0.95 -9.9,-16.3 0,-15.35 23.9,2.32 52.4,6.4 64.2,30.53 9.2,18.77 2.9,45.67 -21.4,46.47 -18.3,0.61 -36.5,-17.8 -23.9,-35.41 12.1,-17.09 38.3,-11.56 53.4,-2.21 22.8,14.2 39.3,37.79 44.8,64.14 2,9.63 -12.8,13.75 -14.8,4.08"
       style="fill:#262b44;fill-opacity:1;fill-rule:nonzero;stroke:none"
       transform="matrix(0.03527778,0,0,-0.03527778,-1036.6974,249.45832)"
       clip-path="url(#clipPath2129)" />
    <path
       id="path2130"
       d="m 32013.5,3183.4 c 72.6,41.07 161.8,46.39 242.8,26.63 81,-19.77 154.7,-62.84 220.9,-113.53 27.4,-20.97 56.6,-44.42 91.1,-45.29 56.4,-1.42 97,62.66 90.7,118.76 -6.3,56.11 -45,102.88 -85.3,142.41 -41.4,40.56 -87,77.93 -139.9,101.43 -86.1,38.2 -184.2,36.85 -278,28.04 -18.8,-1.77 -38.2,-3.99 -54.7,-13.26 -17,-9.54 -29.3,-25.66 -39.6,-42.2 -22.4,-36.08 -38,-76.45 -45.5,-118.28 l -2.5,-84.71"
       style="fill:#ef6a55;fill-opacity:1;fill-rule:nonzero;stroke:none"
       transform="matrix(0.03527778,0,0,-0.03527778,-1036.6974,249.45832)"
       clip-path="url(#clipPath2131)" />
    <path
       id="path2132"
       d="m 32424.8,3387.28 c 7.3,21.87 18.7,55.55 46.5,54.95 9,-0.2 19.4,-4.14 22.9,-12.52 1.9,-4.51 0.6,-11.25 -2.1,-16.54 -3.5,-6.63 -8,-12.64 -13.2,-17.99 -11.7,-12.08 -26.6,-20.39 -42.9,-24.23 -9.6,-2.26 -5.6,-17.06 4,-14.8 18,4.21 34.7,13.43 47.9,26.31 12.5,12.18 26.1,30.48 21.8,48.94 -3.2,14.02 -17,23.07 -30.5,25.36 -15.7,2.67 -30.3,-2.17 -41.7,-13.23 -14.5,-13.87 -21.3,-33.64 -27.5,-52.17 -3.1,-9.4 11.7,-13.43 14.8,-4.08"
       style="fill:#ef6a55;fill-opacity:1;fill-rule:nonzero;stroke:none"
       transform="matrix(0.03527778,0,0,-0.03527778,-1036.6974,249.45832)"
       clip-path="url(#clipPath2133)" />
    <path
       id="path2134"
       d="m 32026.5,3242.1 c 41.9,-0.52 84,-0.15 125.9,-2.65 37.5,-2.23 75.4,-7.33 110.6,-20.81 19.7,-7.5 38.3,-18.04 54.5,-31.52 7.5,-6.28 18.5,4.53 10.9,10.86 -62,51.61 -145.8,57.15 -223,58.46 -26.3,0.44 -52.6,0.68 -78.9,1 -9.9,0.13 -9.9,-15.22 0,-15.34"
       style="fill:#a3362b;fill-opacity:1;fill-rule:nonzero;stroke:none"
       transform="matrix(0.03527778,0,0,-0.03527778,-1036.6974,249.45832)"
       clip-path="url(#clipPath2135)" />
    <path
       id="path2136"
       d="m 32136,3416.91 c -33.2,-0.57 -61.9,-27.98 -65,-60.88 -0.4,-4.13 3.8,-7.67 7.7,-7.67 4.5,0 7.3,3.53 7.7,7.67 0.2,2.17 0.9,5.77 1.8,9 1.1,3.46 1.6,4.66 3.3,7.79 3.2,6.18 6.3,10.22 11.5,14.98 8.9,8.32 21.1,13.56 33,13.76 4.2,0.07 7.7,3.48 7.7,7.68 0,4.1 -3.5,7.74 -7.7,7.67"
       style="fill:#a3362b;fill-opacity:1;fill-rule:nonzero;stroke:none"
       transform="matrix(0.03527778,0,0,-0.03527778,-1036.6974,249.45832)"
       clip-path="url(#clipPath2137)" />
    <path
       id="path2138"
       d="m 32594.6,3234.42 c 23.2,-19.23 34.1,-51.1 26.5,-80.45 -2.5,-9.57 12.3,-13.65 14.8,-4.08 8.8,34.26 -3.1,72.74 -30.5,95.38 -3.2,2.64 -7.7,3.13 -10.8,0 -2.8,-2.72 -3.2,-8.2 0,-10.85"
       style="fill:#a3362b;fill-opacity:1;fill-rule:nonzero;stroke:none"
       transform="matrix(0.03527778,0,0,-0.03527778,-1036.6974,249.45832)"
       clip-path="url(#clipPath2139)" />
  </g>
</svg>
