<?xml version="1.0" encoding="UTF-8" standalone="no"?>
<!-- Created with Inkscape (http://www.inkscape.org/) -->

<svg
   width="64.332558mm"
   height="64.332199mm"
   viewBox="0 0 64.332558 64.332199"
   version="1.1"
   id="svg1"
   inkscape:version="1.3.2 (091e20e, 2023-11-25)"
   sodipodi:docname="grand.svg"
   xmlns:inkscape="http://www.inkscape.org/namespaces/inkscape"
   xmlns:sodipodi="http://sodipodi.sourceforge.net/DTD/sodipodi-0.dtd"
   xmlns="http://www.w3.org/2000/svg"
   xmlns:svg="http://www.w3.org/2000/svg">
  <sodipodi:namedview
     id="namedview1"
     pagecolor="#ffffff"
     bordercolor="#000000"
     borderopacity="0.25"
     inkscape:showpageshadow="2"
     inkscape:pageopacity="0.0"
     inkscape:pagecheckerboard="0"
     inkscape:deskcolor="#d1d1d1"
     inkscape:document-units="mm"
     inkscape:zoom="1.1656662"
     inkscape:cx="201.17252"
     inkscape:cy="33.886202"
     inkscape:window-width="1920"
     inkscape:window-height="1052"
     inkscape:window-x="0"
     inkscape:window-y="28"
     inkscape:window-maximized="0"
     inkscape:current-layer="layer1" />
  <defs
     id="defs1">
    <clipPath
       clipPathUnits="userSpaceOnUse"
       id="clipPath1219">
      <path
         d="m 20136.2,2934.46 c 0,-503.56 -408.2,-911.79 -911.8,-911.79 -503.6,0 -911.8,408.23 -911.8,911.79 0,503.58 408.2,911.8 911.8,911.8 503.6,0 911.8,-408.22 911.8,-911.8"
         transform="translate(0,-2.5e-4)"
         id="path1219" />
    </clipPath>
    <clipPath
       clipPathUnits="userSpaceOnUse"
       id="clipPath1221">
      <path
         d="m 20136.2,2934.46 c 0,-503.56 -408.2,-911.79 -911.8,-911.79 -503.6,0 -911.8,408.23 -911.8,911.79 0,503.58 408.2,911.8 911.8,911.8 503.6,0 911.8,-408.22 911.8,-911.8"
         transform="translate(0,-2.5e-4)"
         id="path1221" />
    </clipPath>
    <clipPath
       clipPathUnits="userSpaceOnUse"
       id="clipPath1223">
      <path
         d="m 20136.2,2934.46 c 0,-503.56 -408.2,-911.79 -911.8,-911.79 -503.6,0 -911.8,408.23 -911.8,911.79 0,503.58 408.2,911.8 911.8,911.8 503.6,0 911.8,-408.22 911.8,-911.8"
         transform="translate(0,-2.5e-4)"
         id="path1223" />
    </clipPath>
    <clipPath
       clipPathUnits="userSpaceOnUse"
       id="clipPath1224">
      <path
         d="m 19706.9,2548.15 c -84.9,56.85 -187.4,79.61 -287.6,99.72 -6.1,1.23 -12.5,2.56 -17.4,6.4 -8.4,6.56 10.7,171.4 0,268.11 l -142.9,-13.39 -143,13.39 c -10.7,-96.71 8.4,-261.55 0,-268.11 -4.9,-3.84 -11.2,-5.17 -17.4,-6.4 -100.1,-20.11 -202.7,-42.87 -287.5,-99.72 -84.9,-56.83 -149.2,-376.36 -135.6,-477.6 85.2,0.45 323.1,-11.34 564.1,-14.52 v -0.52 c 6.5,0.09 12.9,0.18 19.4,0.27 6.4,-0.09 12.9,-0.18 19.3,-0.27 v 0.52 c 241,3.18 478.9,14.97 564.1,14.52 13.7,101.24 -50.6,420.77 -135.5,477.6"
         transform="translate(0,-2.5e-4)"
         id="path1224" />
    </clipPath>
    <clipPath
       clipPathUnits="userSpaceOnUse"
       id="clipPath1227">
      <path
         d="m 20136.2,2934.46 c 0,-503.56 -408.2,-911.79 -911.8,-911.79 -503.6,0 -911.8,408.23 -911.8,911.79 0,503.58 408.2,911.8 911.8,911.8 503.6,0 911.8,-408.22 911.8,-911.8"
         transform="translate(0,-2.5e-4)"
         id="path1227" />
    </clipPath>
    <clipPath
       clipPathUnits="userSpaceOnUse"
       id="clipPath1229">
      <path
         d="m 20136.2,2934.46 c 0,-503.56 -408.2,-911.79 -911.8,-911.79 -503.6,0 -911.8,408.23 -911.8,911.79 0,503.58 408.2,911.8 911.8,911.8 503.6,0 911.8,-408.22 911.8,-911.8"
         transform="translate(0,-2.5e-4)"
         id="path1229" />
    </clipPath>
    <clipPath
       clipPathUnits="userSpaceOnUse"
       id="clipPath1231">
      <path
         d="m 20136.2,2934.46 c 0,-503.56 -408.2,-911.79 -911.8,-911.79 -503.6,0 -911.8,408.23 -911.8,911.79 0,503.58 408.2,911.8 911.8,911.8 503.6,0 911.8,-408.22 911.8,-911.8"
         transform="translate(0,-2.5e-4)"
         id="path1231" />
    </clipPath>
    <clipPath
       clipPathUnits="userSpaceOnUse"
       id="clipPath1233">
      <path
         d="m 20136.2,2934.46 c 0,-503.56 -408.2,-911.79 -911.8,-911.79 -503.6,0 -911.8,408.23 -911.8,911.79 0,503.58 408.2,911.8 911.8,911.8 503.6,0 911.8,-408.22 911.8,-911.8"
         transform="translate(0,-2.5e-4)"
         id="path1233" />
    </clipPath>
    <clipPath
       clipPathUnits="userSpaceOnUse"
       id="clipPath1235">
      <path
         d="m 20136.2,2934.46 c 0,-503.56 -408.2,-911.79 -911.8,-911.79 -503.6,0 -911.8,408.23 -911.8,911.79 0,503.58 408.2,911.8 911.8,911.8 503.6,0 911.8,-408.22 911.8,-911.8"
         transform="translate(0,-2.5e-4)"
         id="path1235" />
    </clipPath>
    <clipPath
       clipPathUnits="userSpaceOnUse"
       id="clipPath1237">
      <path
         d="m 20136.2,2934.46 c 0,-503.56 -408.2,-911.79 -911.8,-911.79 -503.6,0 -911.8,408.23 -911.8,911.79 0,503.58 408.2,911.8 911.8,911.8 503.6,0 911.8,-408.22 911.8,-911.8"
         transform="translate(0,-2.5e-4)"
         id="path1237" />
    </clipPath>
    <clipPath
       clipPathUnits="userSpaceOnUse"
       id="clipPath1239">
      <path
         d="m 20136.2,2934.46 c 0,-503.56 -408.2,-911.79 -911.8,-911.79 -503.6,0 -911.8,408.23 -911.8,911.79 0,503.58 408.2,911.8 911.8,911.8 503.6,0 911.8,-408.22 911.8,-911.8"
         transform="translate(0,-2.5e-4)"
         id="path1239" />
    </clipPath>
    <clipPath
       clipPathUnits="userSpaceOnUse"
       id="clipPath1241">
      <path
         d="m 20136.2,2934.46 c 0,-503.56 -408.2,-911.79 -911.8,-911.79 -503.6,0 -911.8,408.23 -911.8,911.79 0,503.58 408.2,911.8 911.8,911.8 503.6,0 911.8,-408.22 911.8,-911.8"
         transform="translate(0,-2.5e-4)"
         id="path1241" />
    </clipPath>
    <clipPath
       clipPathUnits="userSpaceOnUse"
       id="clipPath1243">
      <path
         d="m 20136.2,2934.46 c 0,-503.56 -408.2,-911.79 -911.8,-911.79 -503.6,0 -911.8,408.23 -911.8,911.79 0,503.58 408.2,911.8 911.8,911.8 503.6,0 911.8,-408.22 911.8,-911.8"
         transform="translate(0,-2.5e-4)"
         id="path1243" />
    </clipPath>
    <clipPath
       clipPathUnits="userSpaceOnUse"
       id="clipPath1245">
      <path
         d="m 20136.2,2934.46 c 0,-503.56 -408.2,-911.79 -911.8,-911.79 -503.6,0 -911.8,408.23 -911.8,911.79 0,503.58 408.2,911.8 911.8,911.8 503.6,0 911.8,-408.22 911.8,-911.8"
         transform="translate(0,-2.5e-4)"
         id="path1245" />
    </clipPath>
    <clipPath
       clipPathUnits="userSpaceOnUse"
       id="clipPath1247">
      <path
         d="m 20136.2,2934.46 c 0,-503.56 -408.2,-911.79 -911.8,-911.79 -503.6,0 -911.8,408.23 -911.8,911.79 0,503.58 408.2,911.8 911.8,911.8 503.6,0 911.8,-408.22 911.8,-911.8"
         transform="translate(0,-2.5e-4)"
         id="path1247" />
    </clipPath>
    <clipPath
       clipPathUnits="userSpaceOnUse"
       id="clipPath1249">
      <path
         d="m 20136.2,2934.46 c 0,-503.56 -408.2,-911.79 -911.8,-911.79 -503.6,0 -911.8,408.23 -911.8,911.79 0,503.58 408.2,911.8 911.8,911.8 503.6,0 911.8,-408.22 911.8,-911.8"
         transform="translate(0,-2.5e-4)"
         id="path1249" />
    </clipPath>
    <clipPath
       clipPathUnits="userSpaceOnUse"
       id="clipPath1251">
      <path
         d="m 20136.2,2934.46 c 0,-503.56 -408.2,-911.79 -911.8,-911.79 -503.6,0 -911.8,408.23 -911.8,911.79 0,503.58 408.2,911.8 911.8,911.8 503.6,0 911.8,-408.22 911.8,-911.8"
         transform="translate(0,-2.5e-4)"
         id="path1251" />
    </clipPath>
    <clipPath
       clipPathUnits="userSpaceOnUse"
       id="clipPath1253">
      <path
         d="m 20136.2,2934.46 c 0,-503.56 -408.2,-911.79 -911.8,-911.79 -503.6,0 -911.8,408.23 -911.8,911.79 0,503.58 408.2,911.8 911.8,911.8 503.6,0 911.8,-408.22 911.8,-911.8"
         transform="translate(0,-2.5e-4)"
         id="path1253" />
    </clipPath>
    <clipPath
       clipPathUnits="userSpaceOnUse"
       id="clipPath1255">
      <path
         d="m 20136.2,2934.46 c 0,-503.56 -408.2,-911.79 -911.8,-911.79 -503.6,0 -911.8,408.23 -911.8,911.79 0,503.58 408.2,911.8 911.8,911.8 503.6,0 911.8,-408.22 911.8,-911.8"
         transform="translate(0,-2.5e-4)"
         id="path1255" />
    </clipPath>
    <clipPath
       clipPathUnits="userSpaceOnUse"
       id="clipPath1257">
      <path
         d="m 20136.2,2934.46 c 0,-503.56 -408.2,-911.79 -911.8,-911.79 -503.6,0 -911.8,408.23 -911.8,911.79 0,503.58 408.2,911.8 911.8,911.8 503.6,0 911.8,-408.22 911.8,-911.8"
         transform="translate(0,-2.5e-4)"
         id="path1257" />
    </clipPath>
    <clipPath
       clipPathUnits="userSpaceOnUse"
       id="clipPath1259">
      <path
         d="m 20136.2,2934.46 c 0,-503.56 -408.2,-911.79 -911.8,-911.79 -503.6,0 -911.8,408.23 -911.8,911.79 0,503.58 408.2,911.8 911.8,911.8 503.6,0 911.8,-408.22 911.8,-911.8"
         transform="translate(0,-2.5e-4)"
         id="path1259" />
    </clipPath>
    <clipPath
       clipPathUnits="userSpaceOnUse"
       id="clipPath1261">
      <path
         d="m 20136.2,2934.46 c 0,-503.56 -408.2,-911.79 -911.8,-911.79 -503.6,0 -911.8,408.23 -911.8,911.79 0,503.58 408.2,911.8 911.8,911.8 503.6,0 911.8,-408.22 911.8,-911.8"
         transform="translate(0,-2.5e-4)"
         id="path1261" />
    </clipPath>
    <clipPath
       clipPathUnits="userSpaceOnUse"
       id="clipPath1263">
      <path
         d="m 20136.2,2934.46 c 0,-503.56 -408.2,-911.79 -911.8,-911.79 -503.6,0 -911.8,408.23 -911.8,911.79 0,503.58 408.2,911.8 911.8,911.8 503.6,0 911.8,-408.22 911.8,-911.8"
         transform="translate(0,-2.5e-4)"
         id="path1263" />
    </clipPath>
    <clipPath
       clipPathUnits="userSpaceOnUse"
       id="clipPath1265">
      <path
         d="m 20136.2,2934.46 c 0,-503.56 -408.2,-911.79 -911.8,-911.79 -503.6,0 -911.8,408.23 -911.8,911.79 0,503.58 408.2,911.8 911.8,911.8 503.6,0 911.8,-408.22 911.8,-911.8"
         transform="translate(0,-2.5e-4)"
         id="path1265" />
    </clipPath>
    <clipPath
       clipPathUnits="userSpaceOnUse"
       id="clipPath1267">
      <path
         d="m 20136.2,2934.46 c 0,-503.56 -408.2,-911.79 -911.8,-911.79 -503.6,0 -911.8,408.23 -911.8,911.79 0,503.58 408.2,911.8 911.8,911.8 503.6,0 911.8,-408.22 911.8,-911.8"
         transform="translate(0,-2.5e-4)"
         id="path1267" />
    </clipPath>
    <clipPath
       clipPathUnits="userSpaceOnUse"
       id="clipPath1269">
      <path
         d="m 20136.2,2934.46 c 0,-503.56 -408.2,-911.79 -911.8,-911.79 -503.6,0 -911.8,408.23 -911.8,911.79 0,503.58 408.2,911.8 911.8,911.8 503.6,0 911.8,-408.22 911.8,-911.8"
         transform="translate(0,-2.5e-4)"
         id="path1269" />
    </clipPath>
    <clipPath
       clipPathUnits="userSpaceOnUse"
       id="clipPath1271">
      <path
         d="m 20136.2,2934.46 c 0,-503.56 -408.2,-911.79 -911.8,-911.79 -503.6,0 -911.8,408.23 -911.8,911.79 0,503.58 408.2,911.8 911.8,911.8 503.6,0 911.8,-408.22 911.8,-911.8"
         transform="translate(0,-2.5e-4)"
         id="path1271" />
    </clipPath>
    <clipPath
       clipPathUnits="userSpaceOnUse"
       id="clipPath1273">
      <path
         d="m 20136.2,2934.46 c 0,-503.56 -408.2,-911.79 -911.8,-911.79 -503.6,0 -911.8,408.23 -911.8,911.79 0,503.58 408.2,911.8 911.8,911.8 503.6,0 911.8,-408.22 911.8,-911.8"
         transform="translate(0,-2.5e-4)"
         id="path1273" />
    </clipPath>
    <clipPath
       clipPathUnits="userSpaceOnUse"
       id="clipPath1275">
      <path
         d="m 20136.2,2934.46 c 0,-503.56 -408.2,-911.79 -911.8,-911.79 -503.6,0 -911.8,408.23 -911.8,911.79 0,503.58 408.2,911.8 911.8,911.8 503.6,0 911.8,-408.22 911.8,-911.8"
         transform="translate(0,-2.5e-4)"
         id="path1275" />
    </clipPath>
    <clipPath
       clipPathUnits="userSpaceOnUse"
       id="clipPath1277">
      <path
         d="m 20136.2,2934.46 c 0,-503.56 -408.2,-911.79 -911.8,-911.79 -503.6,0 -911.8,408.23 -911.8,911.79 0,503.58 408.2,911.8 911.8,911.8 503.6,0 911.8,-408.22 911.8,-911.8"
         transform="translate(0,-2.5e-4)"
         id="path1277" />
    </clipPath>
    <clipPath
       clipPathUnits="userSpaceOnUse"
       id="clipPath1279">
      <path
         d="m 20136.2,2934.46 c 0,-503.56 -408.2,-911.79 -911.8,-911.79 -503.6,0 -911.8,408.23 -911.8,911.79 0,503.58 408.2,911.8 911.8,911.8 503.6,0 911.8,-408.22 911.8,-911.8"
         transform="translate(0,-2.5e-4)"
         id="path1279" />
    </clipPath>
    <clipPath
       clipPathUnits="userSpaceOnUse"
       id="clipPath1281">
      <path
         d="m 20136.2,2934.46 c 0,-503.56 -408.2,-911.79 -911.8,-911.79 -503.6,0 -911.8,408.23 -911.8,911.79 0,503.58 408.2,911.8 911.8,911.8 503.6,0 911.8,-408.22 911.8,-911.8"
         transform="translate(0,-2.5e-4)"
         id="path1281" />
    </clipPath>
    <clipPath
       clipPathUnits="userSpaceOnUse"
       id="clipPath1283">
      <path
         d="m 20136.2,2934.46 c 0,-503.56 -408.2,-911.79 -911.8,-911.79 -503.6,0 -911.8,408.23 -911.8,911.79 0,503.58 408.2,911.8 911.8,911.8 503.6,0 911.8,-408.22 911.8,-911.8"
         transform="translate(0,-2.5e-4)"
         id="path1283" />
    </clipPath>
    <clipPath
       clipPathUnits="userSpaceOnUse"
       id="clipPath1285">
      <path
         d="m 20136.2,2934.46 c 0,-503.56 -408.2,-911.79 -911.8,-911.79 -503.6,0 -911.8,408.23 -911.8,911.79 0,503.58 408.2,911.8 911.8,911.8 503.6,0 911.8,-408.22 911.8,-911.8"
         transform="translate(0,-2.5e-4)"
         id="path1285" />
    </clipPath>
    <clipPath
       clipPathUnits="userSpaceOnUse"
       id="clipPath1287">
      <path
         d="m 20136.2,2934.46 c 0,-503.56 -408.2,-911.79 -911.8,-911.79 -503.6,0 -911.8,408.23 -911.8,911.79 0,503.58 408.2,911.8 911.8,911.8 503.6,0 911.8,-408.22 911.8,-911.8"
         transform="translate(0,-2.5e-4)"
         id="path1287" />
    </clipPath>
    <clipPath
       clipPathUnits="userSpaceOnUse"
       id="clipPath1289">
      <path
         d="m 20136.2,2934.46 c 0,-503.56 -408.2,-911.79 -911.8,-911.79 -503.6,0 -911.8,408.23 -911.8,911.79 0,503.58 408.2,911.8 911.8,911.8 503.6,0 911.8,-408.22 911.8,-911.8"
         transform="translate(0,-2.5e-4)"
         id="path1289" />
    </clipPath>
    <clipPath
       clipPathUnits="userSpaceOnUse"
       id="clipPath1291">
      <path
         d="m 20136.2,2934.46 c 0,-503.56 -408.2,-911.79 -911.8,-911.79 -503.6,0 -911.8,408.23 -911.8,911.79 0,503.58 408.2,911.8 911.8,911.8 503.6,0 911.8,-408.22 911.8,-911.8"
         transform="translate(0,-2.5e-4)"
         id="path1291" />
    </clipPath>
    <clipPath
       clipPathUnits="userSpaceOnUse"
       id="clipPath1293">
      <path
         d="m 20136.2,2934.46 c 0,-503.56 -408.2,-911.79 -911.8,-911.79 -503.6,0 -911.8,408.23 -911.8,911.79 0,503.58 408.2,911.8 911.8,911.8 503.6,0 911.8,-408.22 911.8,-911.8"
         transform="translate(0,-2.5e-4)"
         id="path1293" />
    </clipPath>
    <clipPath
       clipPathUnits="userSpaceOnUse"
       id="clipPath1295">
      <path
         d="m 20136.2,2934.46 c 0,-503.56 -408.2,-911.79 -911.8,-911.79 -503.6,0 -911.8,408.23 -911.8,911.79 0,503.58 408.2,911.8 911.8,911.8 503.6,0 911.8,-408.22 911.8,-911.8"
         transform="translate(0,-2.5e-4)"
         id="path1295" />
    </clipPath>
    <clipPath
       clipPathUnits="userSpaceOnUse"
       id="clipPath1297">
      <path
         d="m 20136.2,2934.46 c 0,-503.56 -408.2,-911.79 -911.8,-911.79 -503.6,0 -911.8,408.23 -911.8,911.79 0,503.58 408.2,911.8 911.8,911.8 503.6,0 911.8,-408.22 911.8,-911.8"
         transform="translate(0,-2.5e-4)"
         id="path1297" />
    </clipPath>
    <clipPath
       clipPathUnits="userSpaceOnUse"
       id="clipPath1299">
      <path
         d="m 20136.2,2934.46 c 0,-503.56 -408.2,-911.79 -911.8,-911.79 -503.6,0 -911.8,408.23 -911.8,911.79 0,503.58 408.2,911.8 911.8,911.8 503.6,0 911.8,-408.22 911.8,-911.8"
         transform="translate(0,-2.5e-4)"
         id="path1299" />
    </clipPath>
    <clipPath
       clipPathUnits="userSpaceOnUse"
       id="clipPath1301">
      <path
         d="m 20136.2,2934.46 c 0,-503.56 -408.2,-911.79 -911.8,-911.79 -503.6,0 -911.8,408.23 -911.8,911.79 0,503.58 408.2,911.8 911.8,911.8 503.6,0 911.8,-408.22 911.8,-911.8"
         transform="translate(0,-2.5e-4)"
         id="path1301" />
    </clipPath>
    <clipPath
       clipPathUnits="userSpaceOnUse"
       id="clipPath1303">
      <path
         d="m 20136.2,2934.46 c 0,-503.56 -408.2,-911.79 -911.8,-911.79 -503.6,0 -911.8,408.23 -911.8,911.79 0,503.58 408.2,911.8 911.8,911.8 503.6,0 911.8,-408.22 911.8,-911.8"
         transform="translate(0,-2.5e-4)"
         id="path1303" />
    </clipPath>
    <clipPath
       clipPathUnits="userSpaceOnUse"
       id="clipPath1305">
      <path
         d="m 20136.2,2934.46 c 0,-503.56 -408.2,-911.79 -911.8,-911.79 -503.6,0 -911.8,408.23 -911.8,911.79 0,503.58 408.2,911.8 911.8,911.8 503.6,0 911.8,-408.22 911.8,-911.8"
         transform="translate(0,-2.5e-4)"
         id="path1305" />
    </clipPath>
    <clipPath
       clipPathUnits="userSpaceOnUse"
       id="clipPath1307">
      <path
         d="m 20136.2,2934.46 c 0,-503.56 -408.2,-911.79 -911.8,-911.79 -503.6,0 -911.8,408.23 -911.8,911.79 0,503.58 408.2,911.8 911.8,911.8 503.6,0 911.8,-408.22 911.8,-911.8"
         transform="translate(0,-2.5e-4)"
         id="path1307" />
    </clipPath>
    <clipPath
       clipPathUnits="userSpaceOnUse"
       id="clipPath1309">
      <path
         d="m 20136.2,2934.46 c 0,-503.56 -408.2,-911.79 -911.8,-911.79 -503.6,0 -911.8,408.23 -911.8,911.79 0,503.58 408.2,911.8 911.8,911.8 503.6,0 911.8,-408.22 911.8,-911.8"
         transform="translate(0,-2.5e-4)"
         id="path1309" />
    </clipPath>
    <clipPath
       clipPathUnits="userSpaceOnUse"
       id="clipPath1311">
      <path
         d="m 20136.2,2934.46 c 0,-503.56 -408.2,-911.79 -911.8,-911.79 -503.6,0 -911.8,408.23 -911.8,911.79 0,503.58 408.2,911.8 911.8,911.8 503.6,0 911.8,-408.22 911.8,-911.8"
         transform="translate(0,-2.5e-4)"
         id="path1311" />
    </clipPath>
    <clipPath
       clipPathUnits="userSpaceOnUse"
       id="clipPath1313">
      <path
         d="m 20136.2,2934.46 c 0,-503.56 -408.2,-911.79 -911.8,-911.79 -503.6,0 -911.8,408.23 -911.8,911.79 0,503.58 408.2,911.8 911.8,911.8 503.6,0 911.8,-408.22 911.8,-911.8"
         transform="translate(0,-2.5e-4)"
         id="path1313" />
    </clipPath>
    <clipPath
       clipPathUnits="userSpaceOnUse"
       id="clipPath1315">
      <path
         d="m 20136.2,2934.46 c 0,-503.56 -408.2,-911.79 -911.8,-911.79 -503.6,0 -911.8,408.23 -911.8,911.79 0,503.58 408.2,911.8 911.8,911.8 503.6,0 911.8,-408.22 911.8,-911.8"
         transform="translate(0,-2.5e-4)"
         id="path1315" />
    </clipPath>
    <clipPath
       clipPathUnits="userSpaceOnUse"
       id="clipPath1317">
      <path
         d="m 20136.2,2934.46 c 0,-503.56 -408.2,-911.79 -911.8,-911.79 -503.6,0 -911.8,408.23 -911.8,911.79 0,503.58 408.2,911.8 911.8,911.8 503.6,0 911.8,-408.22 911.8,-911.8"
         transform="translate(0,-2.5e-4)"
         id="path1317" />
    </clipPath>
    <clipPath
       clipPathUnits="userSpaceOnUse"
       id="clipPath1319">
      <path
         d="m 20136.2,2934.46 c 0,-503.56 -408.2,-911.79 -911.8,-911.79 -503.6,0 -911.8,408.23 -911.8,911.79 0,503.58 408.2,911.8 911.8,911.8 503.6,0 911.8,-408.22 911.8,-911.8"
         transform="translate(0,-2.5e-4)"
         id="path1319" />
    </clipPath>
    <clipPath
       clipPathUnits="userSpaceOnUse"
       id="clipPath1321">
      <path
         d="m 20136.2,2934.46 c 0,-503.56 -408.2,-911.79 -911.8,-911.79 -503.6,0 -911.8,408.23 -911.8,911.79 0,503.58 408.2,911.8 911.8,911.8 503.6,0 911.8,-408.22 911.8,-911.8"
         transform="translate(0,-2.5e-4)"
         id="path1321" />
    </clipPath>
    <clipPath
       clipPathUnits="userSpaceOnUse"
       id="clipPath1323">
      <path
         d="m 20136.2,2934.46 c 0,-503.56 -408.2,-911.79 -911.8,-911.79 -503.6,0 -911.8,408.23 -911.8,911.79 0,503.58 408.2,911.8 911.8,911.8 503.6,0 911.8,-408.22 911.8,-911.8"
         transform="translate(0,-2.5e-4)"
         id="path1323" />
    </clipPath>
    <clipPath
       clipPathUnits="userSpaceOnUse"
       id="clipPath1325">
      <path
         d="m 20136.2,2934.46 c 0,-503.56 -408.2,-911.79 -911.8,-911.79 -503.6,0 -911.8,408.23 -911.8,911.79 0,503.58 408.2,911.8 911.8,911.8 503.6,0 911.8,-408.22 911.8,-911.8"
         transform="translate(0,-2.5e-4)"
         id="path1325" />
    </clipPath>
    <clipPath
       clipPathUnits="userSpaceOnUse"
       id="clipPath1327">
      <path
         d="m 20136.2,2934.46 c 0,-503.56 -408.2,-911.79 -911.8,-911.79 -503.6,0 -911.8,408.23 -911.8,911.79 0,503.58 408.2,911.8 911.8,911.8 503.6,0 911.8,-408.22 911.8,-911.8"
         transform="translate(0,-2.5e-4)"
         id="path1327" />
    </clipPath>
    <clipPath
       clipPathUnits="userSpaceOnUse"
       id="clipPath1329">
      <path
         d="m 20136.2,2934.46 c 0,-503.56 -408.2,-911.79 -911.8,-911.79 -503.6,0 -911.8,408.23 -911.8,911.79 0,503.58 408.2,911.8 911.8,911.8 503.6,0 911.8,-408.22 911.8,-911.8"
         transform="translate(0,-2.5e-4)"
         id="path1329" />
    </clipPath>
    <clipPath
       clipPathUnits="userSpaceOnUse"
       id="clipPath1331">
      <path
         d="m 20136.2,2934.46 c 0,-503.56 -408.2,-911.79 -911.8,-911.79 -503.6,0 -911.8,408.23 -911.8,911.79 0,503.58 408.2,911.8 911.8,911.8 503.6,0 911.8,-408.22 911.8,-911.8"
         transform="translate(0,-2.5e-4)"
         id="path1331" />
    </clipPath>
    <clipPath
       clipPathUnits="userSpaceOnUse"
       id="clipPath1333">
      <path
         d="m 20136.2,2934.46 c 0,-503.56 -408.2,-911.79 -911.8,-911.79 -503.6,0 -911.8,408.23 -911.8,911.79 0,503.58 408.2,911.8 911.8,911.8 503.6,0 911.8,-408.22 911.8,-911.8"
         transform="translate(0,-2.5e-4)"
         id="path1333" />
    </clipPath>
    <clipPath
       clipPathUnits="userSpaceOnUse"
       id="clipPath1335">
      <path
         d="m 20136.2,2934.46 c 0,-503.56 -408.2,-911.79 -911.8,-911.79 -503.6,0 -911.8,408.23 -911.8,911.79 0,503.58 408.2,911.8 911.8,911.8 503.6,0 911.8,-408.22 911.8,-911.8"
         transform="translate(0,-2.5e-4)"
         id="path1335" />
    </clipPath>
  </defs>
  <g
     inkscape:label="Layer 1"
     inkscape:groupmode="layer"
     id="layer1"
     transform="translate(-74.877144,-112.4479)">
    <path
       id="path1218"
       d="m 20136.2,2022.67 h -1823.6 v 1823.59 h 1823.6 V 2022.67"
       style="fill:#a59eff;fill-opacity:1;fill-rule:nonzero;stroke:none"
       transform="matrix(0.03527778,0,0,-0.03527778,-571.15073,248.13541)"
       clip-path="url(#clipPath1219)" />
    <path
       id="path1220"
       d="m 19131.5,2805.9 c 1.5,-28.36 -28.3,-54.38 -58.3,-50.92 -30,3.47 -52.2,35.5 -43.5,62.69 -31.8,-48.36 -124.1,-40.09 -145.6,13.04 -50.4,-45.38 -150.3,-15.02 -163,49.53 -24.8,-8.53 -55.3,1.2 -69.4,22.19 -14.2,20.98 -10.5,51.04 8.3,68.46 -25.9,7.17 -44,33.64 -40.2,58.79 3.8,25.14 29,45.82 56.1,45.91 -5.3,31.2 26.7,62.84 60.1,59.42 -4.6,27.25 -5.8,56.53 7.7,81.01 13.6,24.48 46.2,41.39 73.2,30.54 29.1,29.03 58.3,58.06 87.5,87.09 26.9,26.79 53.9,53.67 84,77.25 29.7,23.19 62.3,43.09 96.9,59.14 70.1,32.5 148,48.9 226.1,52.15 75.5,3.15 159,-9.31 208.8,-62.87 31.4,-33.84 44.6,-78.96 67.2,-118.56 40,-70.13 110.6,-124.6 135.5,-200.64 36.5,-5.46 65,-40.73 60.8,-75.33 35.7,-13.36 51.1,-60.43 29.5,-90.31 33.4,-20.79 16.7,-80.63 -23.3,-83.21 11.8,-37 -36.4,-76.68 -73.9,-60.73 -18.8,-40.51 -82.7,-54.19 -118.3,-25.32 -20.4,-42.07 -100.6,-34.87 -112.1,10.06 8.6,-11.09 -1.8,-27.88 -15.8,-31.88 -13.9,-4 -28.9,0.59 -42.6,5.15 -34.2,11.32 -68.4,22.65 -102.7,33.98 l -193,-16.63"
       style="fill:#7c7a79;fill-opacity:1;fill-rule:nonzero;stroke:none"
       transform="matrix(0.03527778,0,0,-0.03527778,-571.15073,248.13541)"
       clip-path="url(#clipPath1221)" />
    <path
       id="path1222"
       d="m 19713.2,2486.22 c -84.9,56.84 -193.7,141.54 -293.9,161.65 -6.1,1.23 -12.5,2.56 -17.4,6.4 -8.4,6.56 10.7,171.39 0,268.1 l -142.9,-13.38 -143,13.38 c -10.7,-96.71 8.4,-261.54 0,-268.1 -4.9,-3.84 -11.2,-5.17 -17.4,-6.4 -100.1,-20.11 -202.7,-42.88 -287.5,-99.72 -84.9,-56.83 -149.2,-376.36 -135.6,-477.6 85.2,0.44 323.1,-11.35 564.1,-14.52 v -0.52 c 6.5,0.09 12.9,0.18 19.4,0.27 6.4,-0.09 12.9,-0.18 19.3,-0.27 v 0.52 c 241,3.17 478.9,14.96 564.1,14.52 13.7,101.24 -44.3,358.84 -129.2,415.67"
       style="fill:#fbd1b9;fill-opacity:1;fill-rule:nonzero;stroke:none"
       transform="matrix(0.03527778,0,0,-0.03527778,-571.15073,248.13541)"
       clip-path="url(#clipPath1223)" />
    <g
       id="g1225"
       transform="matrix(0.26458333,0,0,0.26458333,-571.15073,-110.37852)">
      <path
         d="m 18925.7,2925.49 c 56.4,36.31 58.8,53.74 61.5,36.31 13.4,-85.6 148.7,-291.82 271.7,-291.82 159.2,0 251.6,268.75 266.5,336.49 -184,-26.3 -370.4,-52.64 -554.9,-30.51 5,-4.78 10.1,-9.56 15.1,-14.35 l -59.9,-36.12"
         style="fill:#dba78a;fill-opacity:1;fill-rule:nonzero;stroke:none"
         transform="matrix(0.13333333,0,0,-0.13333333,0,1355.0133)"
         clip-path="url(#clipPath1224)"
         id="path1225" />
    </g>
    <path
       id="path1226"
       d="m 19046.9,3394.7 c -32.9,-110.99 -24.8,-305.48 0,-418.56 l 0.4,-1.82 c 13.4,-60.69 34.8,-121.3 75.2,-168.54 40.4,-47.24 102.6,-79.19 164.2,-70.81 59.6,8.11 109.6,52.35 138.6,104.98 29.1,52.63 40.3,113.09 48.4,172.66 14.1,103.72 10.4,379.19 0.4,380.04 -128.2,10.85 -302.4,37.13 -427.2,5.65 v -3.6"
       style="fill:#fbd1b9;fill-opacity:1;fill-rule:nonzero;stroke:none"
       transform="matrix(0.03527778,0,0,-0.03527778,-571.15073,248.13541)"
       clip-path="url(#clipPath1227)" />
    <path
       id="path1228"
       d="m 19468.6,3055.57 c 3.1,22.84 30.6,37.12 52.7,30.42 22,-6.7 36.6,-29.6 38.2,-52.6 1.7,-23 -7.6,-45.63 -20.8,-64.55 -22,-31.53 -60.7,-56.02 -97.9,-46.26 5.9,47.29 14.3,94.27 25.3,140.64 l 2.5,-7.65"
       style="fill:#fbd1b9;fill-opacity:1;fill-rule:nonzero;stroke:none"
       transform="matrix(0.03527778,0,0,-0.03527778,-571.15073,248.13541)"
       clip-path="url(#clipPath1229)" />
    <path
       id="path1230"
       d="m 19050.3,3055.57 c -3.2,22.84 -30.7,37.12 -52.7,30.42 -22.1,-6.7 -36.7,-29.6 -38.3,-52.6 -1.7,-23 7.7,-45.63 20.9,-64.55 22,-31.53 60.7,-56.02 97.9,-46.26 -5.9,47.29 -14.4,94.27 -25.4,140.64 l -2.4,-7.65"
       style="fill:#fbd1b9;fill-opacity:1;fill-rule:nonzero;stroke:none"
       transform="matrix(0.03527778,0,0,-0.03527778,-571.15073,248.13541)"
       clip-path="url(#clipPath1231)" />
    <path
       id="path1232"
       d="m 19251.2,3130.15 c 0.3,-32.59 0.6,-65.19 0.8,-97.79 0.1,-6.64 8.4,-10.18 13.1,-5.44 12.2,12.14 35.6,0.16 37.7,-15.53 2.7,-21.16 -24.2,-33.93 -41.6,-28.98 -9.6,2.71 -13.6,-12.12 -4.1,-14.82 28.8,-8.18 66.5,15.18 60.5,47.89 -5,27 -42.9,42.69 -63.3,22.32 4.4,-1.82 8.7,-3.63 13.1,-5.44 -0.3,32.6 -0.5,65.2 -0.8,97.79 -0.1,9.89 -15.5,9.92 -15.4,0"
       style="fill:#a46e4a;fill-opacity:1;fill-rule:nonzero;stroke:none"
       transform="matrix(0.03527778,0,0,-0.03527778,-571.15073,248.13541)"
       clip-path="url(#clipPath1233)" />
    <path
       id="path1234"
       d="m 19459.6,2987.08 c 15.6,16.31 35,28.47 56.5,35.14 9.5,2.93 5.4,17.78 -4.1,14.83 -24,-7.45 -45.9,-20.91 -63.2,-39.1 -6.9,-7.15 4,-18.04 10.8,-10.87"
       style="fill:#a46e4a;fill-opacity:1;fill-rule:nonzero;stroke:none"
       transform="matrix(0.03527778,0,0,-0.03527778,-571.15073,248.13541)"
       clip-path="url(#clipPath1235)" />
    <path
       id="path1236"
       d="m 19464.4,2998 c 12,-5.77 23.9,-11.54 35.9,-17.31 3.6,-1.74 8.5,-1.11 10.5,2.76 1.8,3.44 1.1,8.65 -2.7,10.52 -12,5.77 -24,11.54 -35.9,17.31 -3.6,1.74 -8.5,1.11 -10.5,-2.76 -1.8,-3.44 -1.1,-8.65 2.7,-10.52"
       style="fill:#a46e4a;fill-opacity:1;fill-rule:nonzero;stroke:none"
       transform="matrix(0.03527778,0,0,-0.03527778,-571.15073,248.13541)"
       clip-path="url(#clipPath1237)" />
    <path
       id="path1238"
       d="m 18991.8,3035.81 c 16,-15.36 32.1,-30.72 48.1,-46.08 2.9,-2.78 8,-3.1 10.9,0 2.7,3.02 3.1,7.91 0,10.88 -16.1,15.35 -32.1,30.71 -48.1,46.07 -2.9,2.79 -8.1,3.11 -10.9,0 -2.8,-3.01 -3.1,-7.9 0,-10.87"
       style="fill:#a46e4a;fill-opacity:1;fill-rule:nonzero;stroke:none"
       transform="matrix(0.03527778,0,0,-0.03527778,-571.15073,248.13541)"
       clip-path="url(#clipPath1239)" />
    <path
       id="path1240"
       d="m 19001.3,2992.19 c 8.7,5.26 17.5,10.52 26.2,15.77 3.4,2.08 5,7 2.7,10.52 -2.2,3.46 -6.8,4.98 -10.5,2.76 -8.7,-5.25 -17.4,-10.51 -26.1,-15.77 -3.5,-2.08 -5.1,-6.99 -2.8,-10.52 2.2,-3.46 6.8,-4.98 10.5,-2.76"
       style="fill:#a46e4a;fill-opacity:1;fill-rule:nonzero;stroke:none"
       transform="matrix(0.03527778,0,0,-0.03527778,-571.15073,248.13541)"
       clip-path="url(#clipPath1241)" />
    <path
       id="path1242"
       d="m 19016.5,3086.76 c 43.9,92.48 65.7,195.81 63,298.57 24.6,-16.73 50,-33.84 79,-39.35 29,-5.52 62.8,3.57 78.1,29.42 16.8,-28.08 51,-42.24 83.1,-39.9 32.1,2.34 61.9,19.13 85.8,41.21 1.8,-103.35 24.3,-206.27 65.8,-300.52 7.1,8.58 14.7,17.47 24.9,21.76 10.2,4.3 23.8,2.33 29.4,-7.36 6.8,106.53 -4.1,215.56 -32.8,318.19 -2.8,10.12 -6.5,19.45 -14.4,26.28 -7,6.12 -16.5,8.16 -25.5,9.86 -106.8,19.97 -216,20.13 -324.5,20.24 -28.6,0.02 -59.1,-0.44 -83.3,-16.1 -35.5,-22.91 -46.2,-70.22 -51.1,-112.88 -9.1,-80.32 -8.4,-161.81 2.3,-241.93 l 20.2,-7.49"
       style="fill:#7c7a79;fill-opacity:1;fill-rule:nonzero;stroke:none"
       transform="matrix(0.03527778,0,0,-0.03527778,-571.15073,248.13541)"
       clip-path="url(#clipPath1243)" />
    <path
       id="path1244"
       d="m 19404.9,3073.78 c 0,-16.02 -11.8,-29.01 -26.4,-29.01 -14.6,0 -26.5,12.99 -26.5,29.01 0,16.02 11.9,29.01 26.5,29.01 14.6,0 26.4,-12.99 26.4,-29.01"
       style="fill:#1a1a1a;fill-opacity:1;fill-rule:nonzero;stroke:none"
       transform="matrix(0.03527778,0,0,-0.03527778,-571.15073,248.13541)"
       clip-path="url(#clipPath1245)" />
    <path
       id="path1246"
       d="m 19158.9,3073.78 c 0,-16.02 -11.9,-29.01 -26.5,-29.01 -14.6,0 -26.4,12.99 -26.4,29.01 0,16.02 11.8,29.01 26.4,29.01 14.6,0 26.5,-12.99 26.5,-29.01"
       style="fill:#1a1a1a;fill-opacity:1;fill-rule:nonzero;stroke:none"
       transform="matrix(0.03527778,0,0,-0.03527778,-571.15073,248.13541)"
       clip-path="url(#clipPath1247)" />
    <path
       id="path1248"
       d="m 19337.4,3202.89 c 0.3,-13.56 0.6,-27.12 0.8,-40.68 22.7,6.32 47.4,6.97 70.4,1.87 -7.6,24.57 -36.8,42.38 -65.6,39.94 l -5.6,-1.13"
       style="fill:#7c7a79;fill-opacity:1;fill-rule:nonzero;stroke:none"
       transform="matrix(0.03527778,0,0,-0.03527778,-571.15073,248.13541)"
       clip-path="url(#clipPath1249)" />
    <path
       id="path1250"
       d="m 19189.2,3205.67 c -0.3,-12.72 -0.5,-25.44 -0.8,-38.16 -20.5,5.92 -42.7,6.53 -63.6,1.75 6.9,23.04 33.3,39.76 59.3,37.47 l 5.1,-1.06"
       style="fill:#7c7a79;fill-opacity:1;fill-rule:nonzero;stroke:none"
       transform="matrix(0.03527778,0,0,-0.03527778,-571.15073,248.13541)"
       clip-path="url(#clipPath1251)" />
    <path
       id="path1252"
       d="m 19225.5,2913.7 c 23.4,-4.95 48,-1.13 68.6,11.05 8.5,5.03 0.8,18.32 -7.8,13.27 -17,-10.03 -37.4,-13.59 -56.7,-9.49 -4.1,0.86 -8.3,-1.2 -9.5,-5.37 -1,-3.82 1.3,-8.59 5.4,-9.46"
       style="fill:#a46e4a;fill-opacity:1;fill-rule:nonzero;stroke:none"
       transform="matrix(0.03527778,0,0,-0.03527778,-571.15073,248.13541)"
       clip-path="url(#clipPath1253)" />
    <path
       id="path1254"
       d="m 19351,3028.69 c 2.4,-7.2 7.3,-13.24 13.8,-17.16 6.6,-4 14.2,-5.24 21.8,-3.97 1.7,0.3 3.7,2.03 4.6,3.53 0.9,1.65 1.3,4.08 0.7,5.93 -0.6,1.86 -1.7,3.65 -3.5,4.59 -1.9,1.02 -3.8,1.13 -5.9,0.77 l -0.7,-0.11 2,0.28 c -1.9,-0.26 -3.8,-0.26 -5.7,-0.03 l 2,-0.27 c -1,0.14 -2,0.33 -3,0.59 l -1.5,0.46 c -0.4,0.14 -2.1,0.83 -0.8,0.26 1.4,-0.58 -0.4,0.2 -0.7,0.37 l -1.3,0.69 -1.3,0.87 c -0.6,0.37 -2,1.62 -0.1,-0.03 l -2.3,2.05 -1,1.19 -0.5,0.56 0.6,-0.7 c -0.7,0.89 -1.2,1.78 -1.7,2.74 l -0.7,1.29 c 0.2,-0.26 0.8,-1.87 0.3,-0.67 l -0.3,0.86 c -1.2,3.81 -5.3,6.69 -9.4,5.37 -3.8,-1.23 -6.7,-5.37 -5.4,-9.46"
       style="fill:#a46e4a;fill-opacity:1;fill-rule:nonzero;stroke:none"
       transform="matrix(0.03527778,0,0,-0.03527778,-571.15073,248.13541)"
       clip-path="url(#clipPath1255)" />
    <path
       id="path1256"
       d="m 19217.1,3257.77 c 29.6,2.28 59.2,4.57 88.8,6.86 9.8,0.76 9.9,16.14 0,15.38 -29.6,-2.29 -59.2,-4.58 -88.8,-6.87 -9.8,-0.76 -9.9,-16.14 0,-15.37"
       style="fill:#a46e4a;fill-opacity:1;fill-rule:nonzero;stroke:none"
       transform="matrix(0.03527778,0,0,-0.03527778,-571.15073,248.13541)"
       clip-path="url(#clipPath1257)" />
    <path
       id="path1258"
       d="m 18977.1,3241.49 c 35.6,106.51 173.9,150.69 290.2,162.16 116.3,11.48 174.2,-20.5 261.4,-107.72 -48.1,83.13 -143.7,187.07 -261.4,179.48 -158.9,-10.25 -267.9,-121.7 -292.2,-235.77 l 2,1.85"
       style="fill:#ef6a55;fill-opacity:1;fill-rule:nonzero;stroke:none"
       transform="matrix(0.03527778,0,0,-0.03527778,-571.15073,248.13541)"
       clip-path="url(#clipPath1259)" />
    <path
       id="path1260"
       d="m 19125.4,3006.97 c 14.6,0.24 29.1,9.14 35.1,22.63 0.9,1.95 1.4,3.78 0.8,5.92 -0.5,1.78 -1.9,3.72 -3.6,4.59 -3.3,1.77 -8.7,1.17 -10.5,-2.75 -0.6,-1.33 -1.2,-2.61 -2,-3.84 l -1.2,-1.71 c -0.7,-1.07 0.3,0.03 0.4,0.4 l -0.8,-0.95 c -0.9,-1.04 -1.9,-2.03 -2.9,-2.95 l -1.6,-1.32 c 1.8,1.67 -0.1,0.01 -0.6,-0.38 -1.2,-0.76 -2.4,-1.45 -3.6,-2.06 l -1,-0.44 c -1.3,-0.68 1.8,0.66 0.4,0.12 l -2,-0.69 c -1.3,-0.42 -2.6,-0.76 -4,-1 -0.6,-0.12 -1.9,-0.08 0.4,0.02 l -1,-0.11 -2.3,-0.11 c -4,-0.06 -7.9,-3.49 -7.7,-7.68 0.2,-4.11 3.4,-7.76 7.7,-7.69"
       style="fill:#a46e4a;fill-opacity:1;fill-rule:nonzero;stroke:none"
       transform="matrix(0.03527778,0,0,-0.03527778,-571.15073,248.13541)"
       clip-path="url(#clipPath1261)" />
    <path
       id="path1262"
       d="m 19054.6,2934.69 c 0,-8.49 -6.9,-15.38 -15.4,-15.38 -8.5,0 -15.4,6.89 -15.4,15.38 0,8.49 6.9,15.37 15.4,15.37 8.5,0 15.4,-6.88 15.4,-15.37"
       style="fill:#4f657f;fill-opacity:1;fill-rule:nonzero;stroke:none"
       transform="matrix(0.03527778,0,0,-0.03527778,-571.15073,248.13541)"
       clip-path="url(#clipPath1263)" />
    <path
       id="path1264"
       d="m 19492.8,2932.13 c 0,-8.5 -6.9,-15.38 -15.4,-15.38 -8.5,0 -15.4,6.88 -15.4,15.38 0,8.49 6.9,15.37 15.4,15.37 8.5,0 15.4,-6.88 15.4,-15.37"
       style="fill:#4f657f;fill-opacity:1;fill-rule:nonzero;stroke:none"
       transform="matrix(0.03527778,0,0,-0.03527778,-571.15073,248.13541)"
       clip-path="url(#clipPath1265)" />
    <path
       id="path1266"
       d="m 18975.1,2650.23 c 41.9,15.46 61.5,15.38 125.8,25.29 0.4,13.14 3.3,26.28 5.1,39.42 1.3,9.41 84.4,-95.46 307.1,13.4 2.8,1.33 7.9,-47.3 7.7,-47.17 64.4,-0.66 124.5,-7.53 157,-64.41 9.4,-16.37 14.5,-34.82 16.2,-53.6 17.2,-193.82 32.3,-387.82 45.4,-581.96 -262.4,0.27 -524.8,-11.58 -786,-35.51 20.2,173.03 40.5,346.05 60.8,519.07 l 60.9,185.47"
       style="fill:#f9e5cb;fill-opacity:1;fill-rule:nonzero;stroke:none"
       transform="matrix(0.03527778,0,0,-0.03527778,-571.15073,248.13541)"
       clip-path="url(#clipPath1267)" />
    <path
       id="path1268"
       d="m 19451.8,2680.99 c 136.3,1.52 264.9,-93.06 342.8,-200.31 78,-107.24 113.4,-631.85 90.3,-760.69 -133.8,-4.58 -287.7,-8.93 -421.5,-13.51 -6.2,317.8 -11.6,974.51 -11.6,974.51"
       style="fill:#87c3a9;fill-opacity:1;fill-rule:nonzero;stroke:none"
       transform="matrix(0.03527778,0,0,-0.03527778,-571.15073,248.13541)"
       clip-path="url(#clipPath1269)" />
    <path
       id="path1270"
       d="m 19071.8,2680.99 c -136.3,1.52 -264.9,-93.06 -342.8,-200.31 -78,-107.24 -113.4,-631.85 -90.3,-760.69 133.8,-4.58 287.7,-8.93 421.5,-13.51 6.2,317.8 11.6,974.51 11.6,974.51"
       style="fill:#87c3a9;fill-opacity:1;fill-rule:nonzero;stroke:none"
       transform="matrix(0.03527778,0,0,-0.03527778,-571.15073,248.13541)"
       clip-path="url(#clipPath1271)" />
    <path
       id="path1272"
       d="m 19125.9,2635.66 c 73.5,-30.2 158.8,-26.63 230,8.5 8.9,4.38 1.1,17.65 -7.8,13.28 -67.7,-33.41 -148.4,-35.57 -218.2,-6.96 -9.1,3.76 -13.1,-11.11 -4,-14.82"
       style="fill:#f4d1a6;fill-opacity:1;fill-rule:nonzero;stroke:none"
       transform="matrix(0.03527778,0,0,-0.03527778,-571.15073,248.13541)"
       clip-path="url(#clipPath1273)" />
    <path
       id="path1274"
       d="m 19204.1,2381.65 c 0,-26.17 0,-52.35 0,-78.52 0,-9.89 15.4,-9.91 15.4,0 0,26.17 0,52.35 0,78.52 0,9.89 -15.4,9.91 -15.4,0"
       style="fill:#f4d1a6;fill-opacity:1;fill-rule:nonzero;stroke:none"
       transform="matrix(0.03527778,0,0,-0.03527778,-571.15073,248.13541)"
       clip-path="url(#clipPath1275)" />
    <path
       id="path1276"
       d="m 19252.4,2335.99 c 0.7,-1.03 1.3,-2.08 1.9,-3.18 l 0.7,-1.56 c 0.2,-0.24 0.6,-1.23 0.1,-0.08 -0.6,1.26 0,-0.11 0.1,-0.3 0.8,-2.31 1.4,-4.71 1.8,-7.15 l -0.3,2.04 c 0.4,-3.03 0.4,-6.07 0,-9.11 l 0.3,2.05 c -0.1,-1.01 -0.3,-2.01 -0.5,-3 -0.9,-3.91 1.2,-8.5 5.3,-9.46 3.9,-0.88 8.5,1.18 9.5,5.37 2.5,10.93 0.6,22.76 -5.6,32.14 -2.3,3.34 -6.9,5.1 -10.6,2.76 -3.3,-2.15 -5.1,-6.94 -2.7,-10.52"
       style="fill:#f4d1a6;fill-opacity:1;fill-rule:nonzero;stroke:none"
       transform="matrix(0.03527778,0,0,-0.03527778,-571.15073,248.13541)"
       clip-path="url(#clipPath1277)" />
    <path
       id="path1278"
       d="m 19287.8,2465.4 c 0,-17.45 0,-34.9 0,-52.35 0,-4.15 3.6,-7.69 7.7,-7.69 4.2,0 7.7,3.52 7.7,7.69 0,17.45 0,34.9 0,52.35 0,4.15 -3.5,7.68 -7.7,7.68 -4.1,0 -7.7,-3.51 -7.7,-7.68"
       style="fill:#f4d1a6;fill-opacity:1;fill-rule:nonzero;stroke:none"
       transform="matrix(0.03527778,0,0,-0.03527778,-571.15073,248.13541)"
       clip-path="url(#clipPath1279)" />
    <path
       id="path1280"
       d="m 19209.3,2486.33 c 0,-13.95 0,-27.91 0,-41.87 0,-4.02 3.6,-7.87 7.7,-7.69 4.2,0.19 7.7,3.38 7.7,7.69 0,13.96 0,27.92 0,41.87 0,4.03 -3.5,7.88 -7.7,7.69 -4.2,-0.18 -7.7,-3.38 -7.7,-7.69"
       style="fill:#f4d1a6;fill-opacity:1;fill-rule:nonzero;stroke:none"
       transform="matrix(0.03527778,0,0,-0.03527778,-571.15073,248.13541)"
       clip-path="url(#clipPath1281)" />
    <path
       id="path1282"
       d="m 19328.9,2242.74 c -5.7,-16.58 -6.8,-34.28 -3.8,-51.5 0.7,-3.98 5.8,-6.57 9.5,-5.37 4.3,1.38 6.1,5.2 5.4,9.45 -0.4,2.27 -0.6,3.19 -0.7,4.89 -0.2,1.74 -0.3,3.48 -0.4,5.23 -0.2,3.93 -0.1,7.87 0.2,11.79 0.5,6.7 2.2,14.27 4.6,21.42 1.4,3.81 -1.5,8.58 -5.3,9.46 -4.3,0.97 -8.1,-1.3 -9.5,-5.37"
       style="fill:#f4d1a6;fill-opacity:1;fill-rule:nonzero;stroke:none"
       transform="matrix(0.03527778,0,0,-0.03527778,-571.15073,248.13541)"
       clip-path="url(#clipPath1283)" />
    <path
       id="path1284"
       d="m 19372.3,2268.46 c -2.2,-12.14 -4.3,-24.28 -6.5,-36.41 -0.7,-3.95 1,-8.48 5.3,-9.46 3.8,-0.86 8.7,1.14 9.5,5.37 2.2,12.14 4.4,24.27 6.5,36.41 0.7,3.94 -1,8.48 -5.3,9.46 -3.8,0.85 -8.7,-1.14 -9.5,-5.37"
       style="fill:#f4d1a6;fill-opacity:1;fill-rule:nonzero;stroke:none"
       transform="matrix(0.03527778,0,0,-0.03527778,-571.15073,248.13541)"
       clip-path="url(#clipPath1285)" />
    <path
       id="path1286"
       d="m 19356,2360.7 c -1.9,-13.84 0.7,-27.76 6.3,-40.44 1.7,-3.69 7.3,-4.84 10.5,-2.76 3.8,2.46 4.6,6.57 2.8,10.52 l -0.5,1.2 v -0.02 l -0.7,1.85 c -0.5,1.44 -1,2.9 -1.4,4.37 -0.8,2.86 -1.4,5.74 -1.8,8.67 v -0.42 l -0.1,1.31 -0.2,1.96 c -0.1,1.53 -0.2,3.06 -0.2,4.59 0,3.07 0.2,6.13 0.7,9.17 0.5,4 -4,7.85 -7.7,7.68 -4.7,-0.2 -7.2,-3.39 -7.7,-7.68"
       style="fill:#f4d1a6;fill-opacity:1;fill-rule:nonzero;stroke:none"
       transform="matrix(0.03527778,0,0,-0.03527778,-571.15073,248.13541)"
       clip-path="url(#clipPath1287)" />
    <path
       id="path1288"
       d="m 19323.6,2331.74 c -1.8,-5.23 -3.5,-10.46 -5.3,-15.7 -0.6,-1.83 -0.2,-4.29 0.8,-5.92 0.9,-1.59 2.8,-3.12 4.6,-3.53 2,-0.45 4.2,-0.35 5.9,0.77 1.8,1.12 2.9,2.62 3.5,4.6 1.8,5.23 3.6,10.46 5.3,15.69 0.6,1.83 0.2,4.3 -0.8,5.93 -0.9,1.59 -2.7,3.11 -4.6,3.53 -1.9,0.45 -4.1,0.35 -5.9,-0.77 -1.7,-1.12 -2.9,-2.62 -3.5,-4.6"
       style="fill:#f4d1a6;fill-opacity:1;fill-rule:nonzero;stroke:none"
       transform="matrix(0.03527778,0,0,-0.03527778,-571.15073,248.13541)"
       clip-path="url(#clipPath1289)" />
    <path
       id="path1290"
       d="m 19495.1,2585.92 c 4.8,-110.19 8.3,-220.45 10.4,-330.74 2.1,-110.28 2.8,-220.59 2.1,-330.89 -0.5,-62.18 -1.3,-124.35 -2.6,-186.52 -0.2,-9.9 15.2,-9.9 15.4,0 2.3,110.28 3.2,220.59 2.7,330.89 -0.5,110.31 -2.4,220.6 -5.7,330.86 -1.9,62.15 -4.2,124.28 -7,186.4 -0.4,9.86 -15.8,9.91 -15.3,0"
       style="fill:#498469;fill-opacity:1;fill-rule:nonzero;stroke:none"
       transform="matrix(0.03527778,0,0,-0.03527778,-571.15073,248.13541)"
       clip-path="url(#clipPath1291)" />
    <path
       id="path1292"
       d="m 19014.4,2643.31 c 4.9,-116.94 7,-234 6.2,-351.04 -0.7,-117.04 -4.2,-234.06 -10.6,-350.93 -3.6,-66.06 -8.2,-132.06 -13.5,-197.99 -0.9,-9.87 14.5,-9.81 15.3,0 9.6,116.65 16.4,233.53 20.3,350.5 3.9,116.98 5,234.05 3.3,351.08 -1,66.15 -2.9,132.28 -5.7,198.38 -0.4,9.86 -15.8,9.91 -15.3,0"
       style="fill:#498469;fill-opacity:1;fill-rule:nonzero;stroke:none"
       transform="matrix(0.03527778,0,0,-0.03527778,-571.15073,248.13541)"
       clip-path="url(#clipPath1293)" />
    <path
       id="path1294"
       d="m 19612.4,2507.27 c 0,-12.21 0,-24.43 0,-36.64 0,-4.02 3.5,-7.87 7.7,-7.69 4.1,0.19 7.6,3.38 7.6,7.69 0,12.21 0,24.43 0,36.64 0,4.02 -3.5,7.88 -7.6,7.69 -4.2,-0.19 -7.7,-3.38 -7.7,-7.69"
       style="fill:#498469;fill-opacity:1;fill-rule:nonzero;stroke:none"
       transform="matrix(0.03527778,0,0,-0.03527778,-571.15073,248.13541)"
       clip-path="url(#clipPath1295)" />
    <path
       id="path1296"
       d="m 19660.1,2484.34 c 1.9,-12.18 3.8,-24.37 5.7,-36.56 0.6,-3.98 5.8,-6.55 9.5,-5.37 4.3,1.4 6,5.19 5.3,9.46 -1.9,12.19 -3.8,24.37 -5.7,36.56 -0.6,3.99 -5.8,6.55 -9.4,5.37 -4.4,-1.4 -6.1,-5.19 -5.4,-9.46"
       style="fill:#498469;fill-opacity:1;fill-rule:nonzero;stroke:none"
       transform="matrix(0.03527778,0,0,-0.03527778,-571.15073,248.13541)"
       clip-path="url(#clipPath1297)" />
    <path
       id="path1298"
       d="m 19634.1,2411.89 c -6.5,-9.14 -8.4,-21.43 -5.5,-32.2 1.1,-3.88 5.5,-6.65 9.5,-5.37 4,1.28 6.5,5.3 5.4,9.46 -0.4,1.36 -0.7,2.74 -0.9,4.15 l 0.3,-2.04 c -0.3,2.68 -0.3,5.36 0,8.04 l -0.3,-2.04 c 0.3,2.46 0.9,4.87 1.8,7.19 0.1,0.25 0.5,1.23 0,0.06 -0.5,-1.16 0,-0.19 0.1,0.06 l 0.8,1.7 c 0.6,1.12 1.3,2.19 2.1,3.23 1.1,1.54 1.2,4.18 0.7,5.93 -0.5,1.78 -1.8,3.71 -3.5,4.59 -4,2.1 -8,0.74 -10.5,-2.76"
       style="fill:#498469;fill-opacity:1;fill-rule:nonzero;stroke:none"
       transform="matrix(0.03527778,0,0,-0.03527778,-571.15073,248.13541)"
       clip-path="url(#clipPath1299)" />
    <path
       id="path1300"
       d="m 19713.1,2393.66 c 0.7,-0.98 1.4,-1.99 2,-3.04 l 0.8,-1.7 0.4,-0.77 c 0,0.43 -0.7,1.69 -0.2,0.46 0.9,-2.32 1.5,-4.73 1.8,-7.19 l -0.3,2.04 c 0.3,-2.68 0.4,-5.36 0,-8.04 l 0.3,2.04 c -0.2,-1.4 -0.5,-2.78 -0.9,-4.15 -1,-3.88 1.4,-8.54 5.4,-9.46 4.1,-0.93 8.3,1.22 9.5,5.37 2.9,10.77 1.1,23.06 -5.5,32.2 -1.2,1.67 -2.5,2.97 -4.6,3.54 -1.8,0.5 -4.3,0.28 -5.9,-0.78 -3.2,-2.08 -5.3,-7.02 -2.8,-10.52"
       style="fill:#498469;fill-opacity:1;fill-rule:nonzero;stroke:none"
       transform="matrix(0.03527778,0,0,-0.03527778,-571.15073,248.13541)"
       clip-path="url(#clipPath1301)" />
    <path
       id="path1302"
       d="m 18785.3,2502.04 c 0,-12.22 0,-24.43 0,-36.64 0,-4.02 3.6,-7.88 7.7,-7.69 4.2,0.19 7.7,3.38 7.7,7.69 0,12.21 0,24.42 0,36.64 0,4.02 -3.5,7.87 -7.7,7.69 -4.1,-0.19 -7.7,-3.38 -7.7,-7.69"
       style="fill:#498469;fill-opacity:1;fill-rule:nonzero;stroke:none"
       transform="matrix(0.03527778,0,0,-0.03527778,-571.15073,248.13541)"
       clip-path="url(#clipPath1303)" />
    <path
       id="path1304"
       d="m 18839.2,2503.66 c 0.7,-1.22 1.3,-2.47 1.9,-3.74 0.8,-1.64 -0.5,1.6 0.1,-0.11 l 0.7,-1.98 c 0.9,-2.43 1.4,-4.9 1.8,-7.43 0.1,-0.59 0.1,-0.35 -0.1,0.73 l 0.1,-1.05 0.2,-2.1 c 0,-1.23 0,-2.47 0,-3.7 l -0.2,-2.1 v -0.53 c -0.1,-0.86 -0.1,-0.7 0,0.47 l -0.3,-2.08 -0.5,-2.05 c -1,-3.9 1.3,-8.53 5.4,-9.46 4,-0.91 8.4,1.19 9.4,5.37 3.2,12.64 1.3,26.25 -5.2,37.52 -2.1,3.47 -7.1,5.01 -10.6,2.76 -3.5,-2.26 -4.9,-6.81 -2.7,-10.52"
       style="fill:#498469;fill-opacity:1;fill-rule:nonzero;stroke:none"
       transform="matrix(0.03527778,0,0,-0.03527778,-571.15073,248.13541)"
       clip-path="url(#clipPath1305)" />
    <path
       id="path1306"
       d="m 18827.2,2431.87 c 0.2,-0.97 0.4,-1.95 0.5,-2.94 l -0.3,2.04 c 0.4,-2.97 0.4,-5.96 0,-8.94 l 0.3,2.04 c -0.3,-2.47 -0.9,-4.9 -1.8,-7.24 l -0.3,-0.8 c -0.3,-0.9 0.7,1.52 0.3,0.66 l -0.8,-1.74 c -0.6,-1.14 -1.3,-2.23 -2,-3.3 -2.2,-3.35 -0.8,-8.66 2.8,-10.52 3.8,-2.05 8.1,-0.82 10.5,2.76 6.2,9.34 8.1,21.18 5.6,32.07 -0.9,3.92 -5.6,6.61 -9.5,5.37 -4.1,-1.33 -6.3,-5.25 -5.3,-9.46"
       style="fill:#498469;fill-opacity:1;fill-rule:nonzero;stroke:none"
       transform="matrix(0.03527778,0,0,-0.03527778,-571.15073,248.13541)"
       clip-path="url(#clipPath1307)" />
    <path
       id="path1308"
       d="m 18922.7,2514.35 c -1.9,-8.71 -3.7,-17.42 -5.5,-26.12 -0.8,-3.93 1.1,-8.5 5.4,-9.46 3.8,-0.88 8.5,1.16 9.4,5.37 1.8,8.71 3.7,17.41 5.5,26.12 0.8,3.92 -1.1,8.5 -5.4,9.46 -3.8,0.87 -8.5,-1.17 -9.4,-5.37"
       style="fill:#498469;fill-opacity:1;fill-rule:nonzero;stroke:none"
       transform="matrix(0.03527778,0,0,-0.03527778,-571.15073,248.13541)"
       clip-path="url(#clipPath1309)" />
    <path
       id="path1310"
       d="m 18885.3,2553.28 c -1.7,-3.49 -3.5,-6.98 -5.2,-10.46 -0.6,-0.88 -0.9,-1.84 -0.9,-2.86 -0.2,-1.02 -0.2,-2.04 0.1,-3.07 0.3,-1 0.7,-1.87 1.4,-2.61 l 2.2,-1.98 c 1.7,-0.94 3.9,-1.42 5.9,-0.78 1.8,0.6 3.7,1.76 4.6,3.54 1.7,3.48 3.5,6.97 5.2,10.46 0.6,0.88 0.9,1.83 0.9,2.86 0.3,1.02 0.2,2.04 -0.1,3.06 -0.2,1 -0.7,1.87 -1.4,2.62 l -2.1,1.98 c -1.8,0.94 -4,1.41 -6,0.77 -1.8,-0.59 -3.7,-1.75 -4.6,-3.53"
       style="fill:#498469;fill-opacity:1;fill-rule:nonzero;stroke:none"
       transform="matrix(0.03527778,0,0,-0.03527778,-571.15073,248.13541)"
       clip-path="url(#clipPath1311)" />
    <path
       id="path1312"
       d="m 19802.6,2460.93 c 10.4,8.8 20.9,17.59 31.3,26.39 3,2.6 2.8,8.22 0,10.87 -3.3,3.01 -7.6,2.78 -10.9,0 -10.4,-8.8 -20.8,-17.59 -31.2,-26.39 -3.1,-2.6 -2.9,-8.22 0,-10.87 3.2,-3.01 7.6,-2.78 10.8,0"
       style="fill:#87c3a9;fill-opacity:1;fill-rule:nonzero;stroke:none"
       transform="matrix(0.03527778,0,0,-0.03527778,-571.15073,248.13541)"
       clip-path="url(#clipPath1313)" />
    <path
       id="path1314"
       d="m 19817.1,2433.5 c 10.5,5.34 20.9,10.68 31.3,16.03 3.6,1.83 4.9,7.16 2.7,10.51 -2.3,3.66 -6.6,4.73 -10.5,2.76 -10.4,-5.34 -20.8,-10.68 -31.2,-16.02 -3.6,-1.84 -4.9,-7.16 -2.8,-10.52 2.4,-3.66 6.7,-4.73 10.5,-2.76"
       style="fill:#87c3a9;fill-opacity:1;fill-rule:nonzero;stroke:none"
       transform="matrix(0.03527778,0,0,-0.03527778,-571.15073,248.13541)"
       clip-path="url(#clipPath1315)" />
    <path
       id="path1316"
       d="m 19569.1,2634.26 c 7,10.47 14,20.94 20.9,31.41 2.3,3.35 0.8,8.65 -2.7,10.51 -3.9,2.05 -8.2,0.82 -10.5,-2.75 -7,-10.47 -14,-20.94 -21,-31.41 -2.2,-3.35 -0.7,-8.66 2.8,-10.52 3.8,-2.04 8.1,-0.82 10.5,2.76"
       style="fill:#87c3a9;fill-opacity:1;fill-rule:nonzero;stroke:none"
       transform="matrix(0.03527778,0,0,-0.03527778,-571.15073,248.13541)"
       clip-path="url(#clipPath1317)" />
    <path
       id="path1318"
       d="m 19588.7,2606.66 c 13.5,11.03 27,22.07 40.5,33.11 3.1,2.56 2.9,8.25 0,10.87 -3.3,3.05 -7.5,2.73 -10.9,0 -13.4,-11.04 -26.9,-22.07 -40.4,-33.11 -3.2,-2.56 -2.9,-8.26 0,-10.87 3.3,-3.05 7.5,-2.73 10.8,0"
       style="fill:#87c3a9;fill-opacity:1;fill-rule:nonzero;stroke:none"
       transform="matrix(0.03527778,0,0,-0.03527778,-571.15073,248.13541)"
       clip-path="url(#clipPath1319)" />
    <path
       id="path1320"
       d="m 19667.4,2601.2 c 10.2,9.09 20.3,18.17 30.5,27.25 3,2.69 2.9,8.17 0,10.87 -3.2,2.95 -7.7,2.87 -10.9,0 -10.1,-9.08 -20.3,-18.16 -30.4,-27.24 -3,-2.69 -3,-8.17 0,-10.88 3.2,-2.94 7.6,-2.86 10.8,0"
       style="fill:#87c3a9;fill-opacity:1;fill-rule:nonzero;stroke:none"
       transform="matrix(0.03527778,0,0,-0.03527778,-571.15073,248.13541)"
       clip-path="url(#clipPath1321)" />
    <path
       id="path1322"
       d="m 18923.7,2664.1 c 7,-6.98 13.9,-13.96 20.9,-20.94 2.9,-2.85 8.1,-3.06 10.9,0 2.8,3.07 3,7.84 0,10.88 -7,6.97 -14,13.95 -20.9,20.93 -2.9,2.85 -8.1,3.06 -10.9,0 -2.8,-3.07 -3.1,-7.83 0,-10.87"
       style="fill:#87c3a9;fill-opacity:1;fill-rule:nonzero;stroke:none"
       transform="matrix(0.03527778,0,0,-0.03527778,-571.15073,248.13541)"
       clip-path="url(#clipPath1323)" />
    <path
       id="path1324"
       d="m 18881.8,2643.16 c 7,-6.98 14,-13.96 20.9,-20.93 2.9,-2.85 8.1,-3.06 10.9,0 2.8,3.06 3.1,7.83 0,10.87 -7,6.98 -13.9,13.96 -20.9,20.94 -2.9,2.84 -8.1,3.05 -10.9,0 -2.8,-3.07 -3,-7.84 0,-10.88"
       style="fill:#87c3a9;fill-opacity:1;fill-rule:nonzero;stroke:none"
       transform="matrix(0.03527778,0,0,-0.03527778,-571.15073,248.13541)"
       clip-path="url(#clipPath1325)" />
    <path
       id="path1326"
       d="m 18679.6,2401.3 c 3.2,1.3 6.6,2.39 10,3.23 1.7,0.41 3.4,0.77 5.1,1.07 l 2.3,0.34 c -1.5,-0.2 1,0.09 1.3,0.12 3.4,0.32 6.8,0.41 10.2,0.27 1.7,-0.08 3.5,-0.23 5.2,-0.42 2.5,-0.25 -1.5,0.28 1,-0.12 1,-0.17 1.9,-0.34 2.9,-0.53 4,-0.76 8.5,1.11 9.5,5.37 0.9,3.8 -1.2,8.64 -5.4,9.46 -15.4,2.99 -31.6,1.87 -46.2,-3.97 -3.8,-1.48 -6.8,-5.2 -5.4,-9.45 1.2,-3.61 5.5,-6.96 9.5,-5.37"
       style="fill:#87c3a9;fill-opacity:1;fill-rule:nonzero;stroke:none"
       transform="matrix(0.03527778,0,0,-0.03527778,-571.15073,248.13541)"
       clip-path="url(#clipPath1327)" />
    <path
       id="path1328"
       d="m 18659.1,2326.33 c 10.5,1.85 20.9,3.7 31.4,5.55 3.9,0.7 6.5,5.76 5.3,9.46 -1.3,4.26 -5.2,6.12 -9.4,5.37 -10.5,-1.85 -20.9,-3.7 -31.4,-5.55 -3.9,-0.7 -6.5,-5.76 -5.3,-9.46 1.3,-4.27 5.2,-6.12 9.4,-5.37"
       style="fill:#87c3a9;fill-opacity:1;fill-rule:nonzero;stroke:none"
       transform="matrix(0.03527778,0,0,-0.03527778,-571.15073,248.13541)"
       clip-path="url(#clipPath1329)" />
    <path
       id="path1330"
       d="m 18641.4,2273.57 c 12.2,1.63 24.4,3.27 36.6,4.9 2.2,0.29 3.9,0.67 5.5,2.25 1.3,1.34 2.3,3.53 2.2,5.44 -0.1,3.71 -3.4,8.26 -7.7,7.69 -12.2,-1.64 -24.4,-3.27 -36.6,-4.9 -2.2,-0.29 -3.9,-0.67 -5.5,-2.26 -1.3,-1.33 -2.3,-3.52 -2.2,-5.43 0.1,-3.71 3.4,-8.26 7.7,-7.69"
       style="fill:#87c3a9;fill-opacity:1;fill-rule:nonzero;stroke:none"
       transform="matrix(0.03527778,0,0,-0.03527778,-571.15073,248.13541)"
       clip-path="url(#clipPath1331)" />
    <path
       id="path1332"
       d="m 19045.6,2197.04 c 7,-5.23 14,-10.47 21,-15.7 1.5,-1.12 4.2,-1.25 5.9,-0.78 1.8,0.49 3.7,1.87 4.6,3.54 0.9,1.78 1.4,3.94 0.8,5.92 l -0.8,1.84 c -0.7,1.15 -1.6,2.07 -2.8,2.75 -7,5.24 -13.9,10.47 -20.9,15.71 -1.5,1.12 -4.2,1.24 -5.9,0.77 -1.8,-0.49 -3.7,-1.87 -4.6,-3.53 -1,-1.78 -1.4,-3.94 -0.8,-5.92 l 0.8,-1.84 c 0.7,-1.16 1.6,-2.08 2.7,-2.76"
       style="fill:#87c3a9;fill-opacity:1;fill-rule:nonzero;stroke:none"
       transform="matrix(0.03527778,0,0,-0.03527778,-571.15073,248.13541)"
       clip-path="url(#clipPath1333)" />
    <path
       id="path1334"
       d="m 19043.1,2142.37 c 2.6,-4.7 6.8,-8.75 11.5,-11.24 4.8,-2.52 10.4,-3.96 15.9,-3.4 2.1,0.21 3.9,0.71 5.4,2.25 1.3,1.33 2.3,3.52 2.3,5.43 -0.1,1.99 -0.8,4.06 -2.3,5.44 -1.4,1.3 -3.4,2.46 -5.4,2.25 -1.6,-0.16 -3.2,-0.14 -4.8,0.07 l 2,-0.28 c -1.9,0.27 -3.7,0.78 -5.5,1.52 l 1.8,-0.78 c -1.7,0.76 -3.4,1.73 -4.9,2.89 l 1.6,-1.2 c -1.4,1.06 -2.6,2.26 -3.7,3.6 l 1.2,-1.56 c -0.6,0.88 -1.2,1.8 -1.8,2.77 -1.9,3.53 -7.1,4.97 -10.5,2.76 -3.6,-2.3 -4.8,-6.75 -2.8,-10.52"
       style="fill:#87c3a9;fill-opacity:1;fill-rule:nonzero;stroke:none"
       transform="matrix(0.03527778,0,0,-0.03527778,-571.15073,248.13541)"
       clip-path="url(#clipPath1335)" />
  </g>
</svg>
