<?xml version="1.0" encoding="UTF-8" standalone="no"?>
<!-- Created with Inkscape (http://www.inkscape.org/) -->

<svg
   width="64.332558mm"
   height="64.331856mm"
   viewBox="0 0 64.332558 64.331856"
   version="1.1"
   id="svg1"
   inkscape:version="1.3.2 (091e20e, 2023-11-25)"
   sodipodi:docname="grandfather-avatar.svg"
   xmlns:inkscape="http://www.inkscape.org/namespaces/inkscape"
   xmlns:sodipodi="http://sodipodi.sourceforge.net/DTD/sodipodi-0.dtd"
   xmlns="http://www.w3.org/2000/svg"
   xmlns:svg="http://www.w3.org/2000/svg">
  <sodipodi:namedview
     id="namedview1"
     pagecolor="#ffffff"
     bordercolor="#000000"
     borderopacity="0.25"
     inkscape:showpageshadow="false"
     inkscape:pageopacity="0.0"
     inkscape:pagecheckerboard="0"
     inkscape:deskcolor="#d1d1d1"
     inkscape:document-units="mm"
     inkscape:zoom="0.66607289"
     inkscape:cx="-90.8309"
     inkscape:cy="23.270726"
     inkscape:window-width="1920"
     inkscape:window-height="1052"
     inkscape:window-x="0"
     inkscape:window-y="28"
     inkscape:window-maximized="0"
     inkscape:current-layer="layer1"
     showborder="false"
     borderlayer="false" />
  <defs
     id="defs1">
    <clipPath
       clipPathUnits="userSpaceOnUse"
       id="clipPath353">
      <path
         d="m 20136.2,7228.16 c 0,-503.58 -408.2,-911.79 -911.8,-911.79 -503.6,0 -911.8,408.21 -911.8,911.79 0,503.56 408.2,911.79 911.8,911.79 503.6,0 911.8,-408.23 911.8,-911.79"
         transform="translate(0,-2.5e-4)"
         id="path353" />
    </clipPath>
    <clipPath
       clipPathUnits="userSpaceOnUse"
       id="clipPath355">
      <path
         d="m 20136.2,7228.16 c 0,-503.58 -408.2,-911.79 -911.8,-911.79 -503.6,0 -911.8,408.21 -911.8,911.79 0,503.56 408.2,911.79 911.8,911.79 503.6,0 911.8,-408.23 911.8,-911.79"
         transform="translate(0,-2.5e-4)"
         id="path355" />
    </clipPath>
    <clipPath
       clipPathUnits="userSpaceOnUse"
       id="clipPath357">
      <path
         d="m 20136.2,7228.16 c 0,-503.58 -408.2,-911.79 -911.8,-911.79 -503.6,0 -911.8,408.21 -911.8,911.79 0,503.56 408.2,911.79 911.8,911.79 503.6,0 911.8,-408.23 911.8,-911.79"
         transform="translate(0,-2.5e-4)"
         id="path357" />
    </clipPath>
    <clipPath
       clipPathUnits="userSpaceOnUse"
       id="clipPath358">
      <path
         d="m 19670.5,6731.5 c -84.8,56.82 -187.3,79.57 -287.4,99.67 -6.1,1.22 -12.5,2.55 -17.4,6.39 -8.4,6.56 10.7,171.3 0,267.96 l -142.9,-13.38 -142.9,13.38 c -10.6,-96.66 8.4,-261.4 0,-267.96 -4.9,-3.84 -11.2,-5.17 -17.3,-6.39 -100.1,-20.1 -202.6,-42.85 -287.5,-99.67 -84.8,-56.8 -149,-376.14 -135.4,-477.33 85.2,0.44 322.9,-11.34 563.8,-14.51 v -0.52 c 6.4,0.08 12.9,0.17 19.3,0.26 6.5,-0.09 12.9,-0.18 19.4,-0.26 v 0.52 c 240.8,3.17 478.6,14.95 563.8,14.51 13.6,101.19 -50.7,420.53 -135.5,477.33"
         transform="translate(0,-2.5e-4)"
         id="path358" />
    </clipPath>
    <clipPath
       clipPathUnits="userSpaceOnUse"
       id="clipPath361">
      <path
         d="m 20136.2,7228.16 c 0,-503.58 -408.2,-911.79 -911.8,-911.79 -503.6,0 -911.8,408.21 -911.8,911.79 0,503.56 408.2,911.79 911.8,911.79 503.6,0 911.8,-408.23 911.8,-911.79"
         transform="translate(0,-2.5e-4)"
         id="path361" />
    </clipPath>
    <clipPath
       clipPathUnits="userSpaceOnUse"
       id="clipPath363">
      <path
         d="m 20136.2,7228.16 c 0,-503.58 -408.2,-911.79 -911.8,-911.79 -503.6,0 -911.8,408.21 -911.8,911.79 0,503.56 408.2,911.79 911.8,911.79 503.6,0 911.8,-408.23 911.8,-911.79"
         transform="translate(0,-2.5e-4)"
         id="path363" />
    </clipPath>
    <clipPath
       clipPathUnits="userSpaceOnUse"
       id="clipPath365">
      <path
         d="m 20136.2,7228.16 c 0,-503.58 -408.2,-911.79 -911.8,-911.79 -503.6,0 -911.8,408.21 -911.8,911.79 0,503.56 408.2,911.79 911.8,911.79 503.6,0 911.8,-408.23 911.8,-911.79"
         transform="translate(0,-2.5e-4)"
         id="path365" />
    </clipPath>
    <clipPath
       clipPathUnits="userSpaceOnUse"
       id="clipPath367">
      <path
         d="m 20136.2,7228.16 c 0,-503.58 -408.2,-911.79 -911.8,-911.79 -503.6,0 -911.8,408.21 -911.8,911.79 0,503.56 408.2,911.79 911.8,911.79 503.6,0 911.8,-408.23 911.8,-911.79"
         transform="translate(0,-2.5e-4)"
         id="path367" />
    </clipPath>
    <clipPath
       clipPathUnits="userSpaceOnUse"
       id="clipPath369">
      <path
         d="m 20136.2,7228.16 c 0,-503.58 -408.2,-911.79 -911.8,-911.79 -503.6,0 -911.8,408.21 -911.8,911.79 0,503.56 408.2,911.79 911.8,911.79 503.6,0 911.8,-408.23 911.8,-911.79"
         transform="translate(0,-2.5e-4)"
         id="path369" />
    </clipPath>
    <clipPath
       clipPathUnits="userSpaceOnUse"
       id="clipPath371">
      <path
         d="m 20136.2,7228.16 c 0,-503.58 -408.2,-911.79 -911.8,-911.79 -503.6,0 -911.8,408.21 -911.8,911.79 0,503.56 408.2,911.79 911.8,911.79 503.6,0 911.8,-408.23 911.8,-911.79"
         transform="translate(0,-2.5e-4)"
         id="path371" />
    </clipPath>
    <clipPath
       clipPathUnits="userSpaceOnUse"
       id="clipPath373">
      <path
         d="m 20136.2,7228.16 c 0,-503.58 -408.2,-911.79 -911.8,-911.79 -503.6,0 -911.8,408.21 -911.8,911.79 0,503.56 408.2,911.79 911.8,911.79 503.6,0 911.8,-408.23 911.8,-911.79"
         transform="translate(0,-2.5e-4)"
         id="path373" />
    </clipPath>
    <clipPath
       clipPathUnits="userSpaceOnUse"
       id="clipPath375">
      <path
         d="m 20136.2,7228.16 c 0,-503.58 -408.2,-911.79 -911.8,-911.79 -503.6,0 -911.8,408.21 -911.8,911.79 0,503.56 408.2,911.79 911.8,911.79 503.6,0 911.8,-408.23 911.8,-911.79"
         transform="translate(0,-2.5e-4)"
         id="path375" />
    </clipPath>
    <clipPath
       clipPathUnits="userSpaceOnUse"
       id="clipPath377">
      <path
         d="m 20136.2,7228.16 c 0,-503.58 -408.2,-911.79 -911.8,-911.79 -503.6,0 -911.8,408.21 -911.8,911.79 0,503.56 408.2,911.79 911.8,911.79 503.6,0 911.8,-408.23 911.8,-911.79"
         transform="translate(0,-2.5e-4)"
         id="path377" />
    </clipPath>
    <clipPath
       clipPathUnits="userSpaceOnUse"
       id="clipPath379">
      <path
         d="m 20136.2,7228.16 c 0,-503.58 -408.2,-911.79 -911.8,-911.79 -503.6,0 -911.8,408.21 -911.8,911.79 0,503.56 408.2,911.79 911.8,911.79 503.6,0 911.8,-408.23 911.8,-911.79"
         transform="translate(0,-2.5e-4)"
         id="path379" />
    </clipPath>
    <clipPath
       clipPathUnits="userSpaceOnUse"
       id="clipPath381">
      <path
         d="m 20136.2,7228.16 c 0,-503.58 -408.2,-911.79 -911.8,-911.79 -503.6,0 -911.8,408.21 -911.8,911.79 0,503.56 408.2,911.79 911.8,911.79 503.6,0 911.8,-408.23 911.8,-911.79"
         transform="translate(0,-2.5e-4)"
         id="path381" />
    </clipPath>
    <clipPath
       clipPathUnits="userSpaceOnUse"
       id="clipPath383">
      <path
         d="m 20136.2,7228.16 c 0,-503.58 -408.2,-911.79 -911.8,-911.79 -503.6,0 -911.8,408.21 -911.8,911.79 0,503.56 408.2,911.79 911.8,911.79 503.6,0 911.8,-408.23 911.8,-911.79"
         transform="translate(0,-2.5e-4)"
         id="path383" />
    </clipPath>
    <clipPath
       clipPathUnits="userSpaceOnUse"
       id="clipPath385">
      <path
         d="m 20136.2,7228.16 c 0,-503.58 -408.2,-911.79 -911.8,-911.79 -503.6,0 -911.8,408.21 -911.8,911.79 0,503.56 408.2,911.79 911.8,911.79 503.6,0 911.8,-408.23 911.8,-911.79"
         transform="translate(0,-2.5e-4)"
         id="path385" />
    </clipPath>
    <clipPath
       clipPathUnits="userSpaceOnUse"
       id="clipPath387">
      <path
         d="m 20136.2,7228.16 c 0,-503.58 -408.2,-911.79 -911.8,-911.79 -503.6,0 -911.8,408.21 -911.8,911.79 0,503.56 408.2,911.79 911.8,911.79 503.6,0 911.8,-408.23 911.8,-911.79"
         transform="translate(0,-2.5e-4)"
         id="path387" />
    </clipPath>
    <clipPath
       clipPathUnits="userSpaceOnUse"
       id="clipPath389">
      <path
         d="m 20136.2,7228.16 c 0,-503.58 -408.2,-911.79 -911.8,-911.79 -503.6,0 -911.8,408.21 -911.8,911.79 0,503.56 408.2,911.79 911.8,911.79 503.6,0 911.8,-408.23 911.8,-911.79"
         transform="translate(0,-2.5e-4)"
         id="path389" />
    </clipPath>
    <clipPath
       clipPathUnits="userSpaceOnUse"
       id="clipPath391">
      <path
         d="m 20136.2,7228.16 c 0,-503.58 -408.2,-911.79 -911.8,-911.79 -503.6,0 -911.8,408.21 -911.8,911.79 0,503.56 408.2,911.79 911.8,911.79 503.6,0 911.8,-408.23 911.8,-911.79"
         transform="translate(0,-2.5e-4)"
         id="path391" />
    </clipPath>
    <clipPath
       clipPathUnits="userSpaceOnUse"
       id="clipPath393">
      <path
         d="m 20136.2,7228.16 c 0,-503.58 -408.2,-911.79 -911.8,-911.79 -503.6,0 -911.8,408.21 -911.8,911.79 0,503.56 408.2,911.79 911.8,911.79 503.6,0 911.8,-408.23 911.8,-911.79"
         transform="translate(0,-2.5e-4)"
         id="path393" />
    </clipPath>
    <clipPath
       clipPathUnits="userSpaceOnUse"
       id="clipPath395">
      <path
         d="m 20136.2,7228.16 c 0,-503.58 -408.2,-911.79 -911.8,-911.79 -503.6,0 -911.8,408.21 -911.8,911.79 0,503.56 408.2,911.79 911.8,911.79 503.6,0 911.8,-408.23 911.8,-911.79"
         transform="translate(0,-2.5e-4)"
         id="path395" />
    </clipPath>
    <clipPath
       clipPathUnits="userSpaceOnUse"
       id="clipPath397">
      <path
         d="m 20136.2,7228.16 c 0,-503.58 -408.2,-911.79 -911.8,-911.79 -503.6,0 -911.8,408.21 -911.8,911.79 0,503.56 408.2,911.79 911.8,911.79 503.6,0 911.8,-408.23 911.8,-911.79"
         transform="translate(0,-2.5e-4)"
         id="path397" />
    </clipPath>
    <clipPath
       clipPathUnits="userSpaceOnUse"
       id="clipPath399">
      <path
         d="m 20136.2,7228.16 c 0,-503.58 -408.2,-911.79 -911.8,-911.79 -503.6,0 -911.8,408.21 -911.8,911.79 0,503.56 408.2,911.79 911.8,911.79 503.6,0 911.8,-408.23 911.8,-911.79"
         transform="translate(0,-2.5e-4)"
         id="path399" />
    </clipPath>
    <clipPath
       clipPathUnits="userSpaceOnUse"
       id="clipPath401">
      <path
         d="m 20136.2,7228.16 c 0,-503.58 -408.2,-911.79 -911.8,-911.79 -503.6,0 -911.8,408.21 -911.8,911.79 0,503.56 408.2,911.79 911.8,911.79 503.6,0 911.8,-408.23 911.8,-911.79"
         transform="translate(0,-2.5e-4)"
         id="path401" />
    </clipPath>
    <clipPath
       clipPathUnits="userSpaceOnUse"
       id="clipPath403">
      <path
         d="m 20136.2,7228.16 c 0,-503.58 -408.2,-911.79 -911.8,-911.79 -503.6,0 -911.8,408.21 -911.8,911.79 0,503.56 408.2,911.79 911.8,911.79 503.6,0 911.8,-408.23 911.8,-911.79"
         transform="translate(0,-2.5e-4)"
         id="path403" />
    </clipPath>
    <clipPath
       clipPathUnits="userSpaceOnUse"
       id="clipPath405">
      <path
         d="m 20136.2,7228.16 c 0,-503.58 -408.2,-911.79 -911.8,-911.79 -503.6,0 -911.8,408.21 -911.8,911.79 0,503.56 408.2,911.79 911.8,911.79 503.6,0 911.8,-408.23 911.8,-911.79"
         transform="translate(0,-2.5e-4)"
         id="path405" />
    </clipPath>
    <clipPath
       clipPathUnits="userSpaceOnUse"
       id="clipPath407">
      <path
         d="m 20136.2,7228.16 c 0,-503.58 -408.2,-911.79 -911.8,-911.79 -503.6,0 -911.8,408.21 -911.8,911.79 0,503.56 408.2,911.79 911.8,911.79 503.6,0 911.8,-408.23 911.8,-911.79"
         transform="translate(0,-2.5e-4)"
         id="path407" />
    </clipPath>
    <clipPath
       clipPathUnits="userSpaceOnUse"
       id="clipPath409">
      <path
         d="m 20136.2,7228.16 c 0,-503.58 -408.2,-911.79 -911.8,-911.79 -503.6,0 -911.8,408.21 -911.8,911.79 0,503.56 408.2,911.79 911.8,911.79 503.6,0 911.8,-408.23 911.8,-911.79"
         transform="translate(0,-2.5e-4)"
         id="path409" />
    </clipPath>
    <clipPath
       clipPathUnits="userSpaceOnUse"
       id="clipPath411">
      <path
         d="m 20136.2,7228.16 c 0,-503.58 -408.2,-911.79 -911.8,-911.79 -503.6,0 -911.8,408.21 -911.8,911.79 0,503.56 408.2,911.79 911.8,911.79 503.6,0 911.8,-408.23 911.8,-911.79"
         transform="translate(0,-2.5e-4)"
         id="path411" />
    </clipPath>
    <clipPath
       clipPathUnits="userSpaceOnUse"
       id="clipPath413">
      <path
         d="m 20136.2,7228.16 c 0,-503.58 -408.2,-911.79 -911.8,-911.79 -503.6,0 -911.8,408.21 -911.8,911.79 0,503.56 408.2,911.79 911.8,911.79 503.6,0 911.8,-408.23 911.8,-911.79"
         transform="translate(0,-2.5e-4)"
         id="path413" />
    </clipPath>
    <clipPath
       clipPathUnits="userSpaceOnUse"
       id="clipPath415">
      <path
         d="m 20136.2,7228.16 c 0,-503.58 -408.2,-911.79 -911.8,-911.79 -503.6,0 -911.8,408.21 -911.8,911.79 0,503.56 408.2,911.79 911.8,911.79 503.6,0 911.8,-408.23 911.8,-911.79"
         transform="translate(0,-2.5e-4)"
         id="path415" />
    </clipPath>
    <clipPath
       clipPathUnits="userSpaceOnUse"
       id="clipPath417">
      <path
         d="m 20136.2,7228.16 c 0,-503.58 -408.2,-911.79 -911.8,-911.79 -503.6,0 -911.8,408.21 -911.8,911.79 0,503.56 408.2,911.79 911.8,911.79 503.6,0 911.8,-408.23 911.8,-911.79"
         transform="translate(0,-2.5e-4)"
         id="path417" />
    </clipPath>
    <clipPath
       clipPathUnits="userSpaceOnUse"
       id="clipPath419">
      <path
         d="m 20136.2,7228.16 c 0,-503.58 -408.2,-911.79 -911.8,-911.79 -503.6,0 -911.8,408.21 -911.8,911.79 0,503.56 408.2,911.79 911.8,911.79 503.6,0 911.8,-408.23 911.8,-911.79"
         transform="translate(0,-2.5e-4)"
         id="path419" />
    </clipPath>
    <clipPath
       clipPathUnits="userSpaceOnUse"
       id="clipPath421">
      <path
         d="m 20136.2,7228.16 c 0,-503.58 -408.2,-911.79 -911.8,-911.79 -503.6,0 -911.8,408.21 -911.8,911.79 0,503.56 408.2,911.79 911.8,911.79 503.6,0 911.8,-408.23 911.8,-911.79"
         transform="translate(0,-2.5e-4)"
         id="path421" />
    </clipPath>
    <clipPath
       clipPathUnits="userSpaceOnUse"
       id="clipPath423">
      <path
         d="m 20136.2,7228.16 c 0,-503.58 -408.2,-911.79 -911.8,-911.79 -503.6,0 -911.8,408.21 -911.8,911.79 0,503.56 408.2,911.79 911.8,911.79 503.6,0 911.8,-408.23 911.8,-911.79"
         transform="translate(0,-2.5e-4)"
         id="path423" />
    </clipPath>
    <clipPath
       clipPathUnits="userSpaceOnUse"
       id="clipPath425">
      <path
         d="m 20136.2,7228.16 c 0,-503.58 -408.2,-911.79 -911.8,-911.79 -503.6,0 -911.8,408.21 -911.8,911.79 0,503.56 408.2,911.79 911.8,911.79 503.6,0 911.8,-408.23 911.8,-911.79"
         transform="translate(0,-2.5e-4)"
         id="path425" />
    </clipPath>
    <clipPath
       clipPathUnits="userSpaceOnUse"
       id="clipPath427">
      <path
         d="m 20136.2,7228.16 c 0,-503.58 -408.2,-911.79 -911.8,-911.79 -503.6,0 -911.8,408.21 -911.8,911.79 0,503.56 408.2,911.79 911.8,911.79 503.6,0 911.8,-408.23 911.8,-911.79"
         transform="translate(0,-2.5e-4)"
         id="path427" />
    </clipPath>
    <clipPath
       clipPathUnits="userSpaceOnUse"
       id="clipPath429">
      <path
         d="m 20136.2,7228.16 c 0,-503.58 -408.2,-911.79 -911.8,-911.79 -503.6,0 -911.8,408.21 -911.8,911.79 0,503.56 408.2,911.79 911.8,911.79 503.6,0 911.8,-408.23 911.8,-911.79"
         transform="translate(0,-2.5e-4)"
         id="path429" />
    </clipPath>
    <clipPath
       clipPathUnits="userSpaceOnUse"
       id="clipPath431">
      <path
         d="m 20136.2,7228.16 c 0,-503.58 -408.2,-911.79 -911.8,-911.79 -503.6,0 -911.8,408.21 -911.8,911.79 0,503.56 408.2,911.79 911.8,911.79 503.6,0 911.8,-408.23 911.8,-911.79"
         transform="translate(0,-2.5e-4)"
         id="path431" />
    </clipPath>
    <clipPath
       clipPathUnits="userSpaceOnUse"
       id="clipPath433">
      <path
         d="m 20136.2,7228.16 c 0,-503.58 -408.2,-911.79 -911.8,-911.79 -503.6,0 -911.8,408.21 -911.8,911.79 0,503.56 408.2,911.79 911.8,911.79 503.6,0 911.8,-408.23 911.8,-911.79"
         transform="translate(0,-2.5e-4)"
         id="path433" />
    </clipPath>
    <clipPath
       clipPathUnits="userSpaceOnUse"
       id="clipPath435">
      <path
         d="m 20136.2,7228.16 c 0,-503.58 -408.2,-911.79 -911.8,-911.79 -503.6,0 -911.8,408.21 -911.8,911.79 0,503.56 408.2,911.79 911.8,911.79 503.6,0 911.8,-408.23 911.8,-911.79"
         transform="translate(0,-2.5e-4)"
         id="path435" />
    </clipPath>
    <clipPath
       clipPathUnits="userSpaceOnUse"
       id="clipPath437">
      <path
         d="m 20136.2,7228.16 c 0,-503.58 -408.2,-911.79 -911.8,-911.79 -503.6,0 -911.8,408.21 -911.8,911.79 0,503.56 408.2,911.79 911.8,911.79 503.6,0 911.8,-408.23 911.8,-911.79"
         transform="translate(0,-2.5e-4)"
         id="path437" />
    </clipPath>
    <clipPath
       clipPathUnits="userSpaceOnUse"
       id="clipPath439">
      <path
         d="m 20136.2,7228.16 c 0,-503.58 -408.2,-911.79 -911.8,-911.79 -503.6,0 -911.8,408.21 -911.8,911.79 0,503.56 408.2,911.79 911.8,911.79 503.6,0 911.8,-408.23 911.8,-911.79"
         transform="translate(0,-2.5e-4)"
         id="path439" />
    </clipPath>
    <clipPath
       clipPathUnits="userSpaceOnUse"
       id="clipPath441">
      <path
         d="m 20136.2,7228.16 c 0,-503.58 -408.2,-911.79 -911.8,-911.79 -503.6,0 -911.8,408.21 -911.8,911.79 0,503.56 408.2,911.79 911.8,911.79 503.6,0 911.8,-408.23 911.8,-911.79"
         transform="translate(0,-2.5e-4)"
         id="path441" />
    </clipPath>
    <clipPath
       clipPathUnits="userSpaceOnUse"
       id="clipPath443">
      <path
         d="m 20136.2,7228.16 c 0,-503.58 -408.2,-911.79 -911.8,-911.79 -503.6,0 -911.8,408.21 -911.8,911.79 0,503.56 408.2,911.79 911.8,911.79 503.6,0 911.8,-408.23 911.8,-911.79"
         transform="translate(0,-2.5e-4)"
         id="path443" />
    </clipPath>
  </defs>
  <g
     inkscape:label="Layer 1"
     inkscape:groupmode="layer"
     id="layer1"
     transform="translate(-96.308394,-132.8208)">
    <path
       id="path352"
       d="m 18312.6,6316.37 h 1823.6 v 1823.58 h -1823.6 z"
       style="fill:#a59eff;fill-opacity:1;fill-rule:nonzero;stroke:none"
       transform="matrix(0.03527778,0,0,-0.03527778,-549.71948,419.98016)"
       clip-path="url(#clipPath353)" />
    <path
       id="path354"
       d="m 18923.4,7337.93 c 3.3,-93.93 32.6,-182.75 74.5,-248.49 41.9,-65.75 95.6,-109.68 151.7,-136.82 35.9,-17.4 73.8,-28.3 111,-21.03 60.5,11.8 114.5,71.27 153,147.19 38.5,75.92 63,167.45 83.1,259.83 3.1,14.29 6.2,29.13 5.3,44.2 -2,36.17 -24.7,58.91 -45.4,73.68 -53.4,38.19 -110.7,62.31 -168.9,71.11 -54.1,8.17 -110,3.49 -161.4,32.16 l -202.9,-221.83"
       style="fill:#a3a3a3;fill-opacity:1;fill-rule:nonzero;stroke:none"
       transform="matrix(0.03527778,0,0,-0.03527778,-549.71948,419.98016)"
       clip-path="url(#clipPath355)" />
    <path
       id="path356"
       d="m 19670.5,6731.51 c -84.8,56.8 -187.3,79.55 -287.4,99.66 -6.1,1.23 -12.5,2.56 -17.4,6.39 -8.4,6.56 10.7,171.3 0,267.96 l -142.9,-13.38 -142.9,13.38 c -10.6,-96.66 8.4,-261.4 0,-267.96 -4.9,-3.83 -11.2,-5.16 -17.3,-6.39 -100.1,-20.11 -202.6,-42.86 -287.5,-99.66 -84.8,-56.81 -149,-376.15 -135.4,-477.34 85.2,0.44 322.9,-11.34 563.8,-14.51 v -0.52 c 6.4,0.09 12.9,0.18 19.3,0.26 6.5,-0.08 12.9,-0.17 19.4,-0.26 v 0.52 c 240.8,3.17 478.6,14.95 563.8,14.51 13.6,101.19 -50.7,420.53 -135.5,477.34"
       style="fill:#fbd1b9;fill-opacity:1;fill-rule:nonzero;stroke:none"
       transform="matrix(0.03527778,0,0,-0.03527778,-549.71948,419.98016)"
       clip-path="url(#clipPath357)" />
    <g
       id="g359"
       transform="matrix(0.26458333,0,0,0.26458333,-549.71948,61.46623)">
      <path
         d="m 18889.8,7108.64 c 56.3,36.29 58.7,53.7 61.4,36.29 13.4,-85.56 148.6,-291.67 271.5,-291.67 159.2,0 251.5,268.61 266.4,336.31 -183.9,-26.29 -370.2,-52.62 -554.6,-30.5 5,-4.78 10.1,-9.55 15.1,-14.33 l -59.8,-36.1"
         style="fill:#dba78a;fill-opacity:1;fill-rule:nonzero;stroke:none"
         transform="matrix(0.13333333,0,0,-0.13333333,0,1355.0133)"
         clip-path="url(#clipPath358)"
         id="path359" />
    </g>
    <path
       id="path360"
       d="m 19010.8,7577.58 c -32.8,-110.93 -24.7,-305.31 0,-418.32 l 0.4,-1.82 c 13.5,-60.66 34.9,-121.23 75.3,-168.45 40.3,-47.22 102.5,-79.14 164,-70.77 59.6,8.1 109.5,52.33 138.6,104.92 29,52.6 40.2,113.02 48.3,172.56 14.1,103.66 10.4,378.98 0.5,379.83 -128.2,10.85 -302.3,37.11 -427.1,5.65 v -3.6"
       style="fill:#fbd1b9;fill-opacity:1;fill-rule:nonzero;stroke:none"
       transform="matrix(0.03527778,0,0,-0.03527778,-549.71948,419.98016)"
       clip-path="url(#clipPath361)" />
    <path
       id="path362"
       d="m 19432.3,7238.64 c 3.1,22.83 30.6,37.1 52.7,30.41 22,-6.7 36.6,-29.59 38.2,-52.58 1.7,-22.98 -7.7,-45.61 -20.8,-64.51 -22,-31.52 -60.7,-55.98 -97.9,-46.23 5.9,47.26 14.4,94.21 25.4,140.56 l 2.4,-7.65"
       style="fill:#fbd1b9;fill-opacity:1;fill-rule:nonzero;stroke:none"
       transform="matrix(0.03527778,0,0,-0.03527778,-549.71948,419.98016)"
       clip-path="url(#clipPath363)" />
    <path
       id="path364"
       d="m 19014.2,7238.64 c -3.1,22.83 -30.6,37.1 -52.6,30.41 -22.1,-6.7 -36.7,-29.59 -38.3,-52.58 -1.6,-22.98 7.7,-45.61 20.9,-64.51 22,-31.52 60.6,-55.98 97.8,-46.23 -5.9,47.26 -14.4,94.21 -25.3,140.56 l -2.5,-7.65"
       style="fill:#fbd1b9;fill-opacity:1;fill-rule:nonzero;stroke:none"
       transform="matrix(0.03527778,0,0,-0.03527778,-549.71948,419.98016)"
       clip-path="url(#clipPath365)" />
    <path
       id="path366"
       d="m 19155.4,7225 c 0,-16.01 -11.8,-28.98 -26.4,-28.98 -14.6,0 -26.4,12.97 -26.4,28.98 0,16.02 11.8,29 26.4,29 14.6,0 26.4,-12.98 26.4,-29"
       style="fill:#1a1a1a;fill-opacity:1;fill-rule:nonzero;stroke:none"
       transform="matrix(0.03527778,0,0,-0.03527778,-549.71948,419.98016)"
       clip-path="url(#clipPath367)" />
    <path
       id="path368"
       d="m 19344.9,7230.13 c 0,-16.01 -11.8,-28.99 -26.4,-28.99 -14.6,0 -26.4,12.98 -26.4,28.99 0,16.01 11.8,28.99 26.4,28.99 14.6,0 26.4,-12.98 26.4,-28.99"
       style="fill:#1a1a1a;fill-opacity:1;fill-rule:nonzero;stroke:none"
       transform="matrix(0.03527778,0,0,-0.03527778,-549.71948,419.98016)"
       clip-path="url(#clipPath369)" />
    <path
       id="path370"
       d="m 19690.8,6733.14 c -65.7,63.38 -261.5,87.72 -321.8,104.36 -13.5,-24.32 -198.4,-107.07 -286.9,0 -102.4,0 -288.9,-86.68 -327.8,-112.7 -86.3,-57.78 -125.9,-370.49 -112,-473.41 86.6,0.44 328.5,-11.37 573.5,-14.59 v -0.53 c 6.5,0.09 13.1,0.18 19.6,0.27 6.6,-0.09 13.2,-0.18 19.7,-0.27 v 0.53 c 245,3.22 488.7,-22.64 575.4,-23.08 13.8,102.92 -65,447.31 -139.7,519.42"
       style="fill:#ffb753;fill-opacity:1;fill-rule:nonzero;stroke:none"
       transform="matrix(0.03527778,0,0,-0.03527778,-549.71948,419.98016)"
       clip-path="url(#clipPath371)" />
    <path
       id="path372"
       d="m 19220.5,7239.26 c -5.7,-49.69 -9.2,-99.59 -10.6,-149.58 -0.2,-6.39 6.5,-8.83 11.5,-6.64 20.3,8.83 38.9,20.63 55.7,34.9 7.6,6.4 -3.3,17.22 -10.8,10.86 -15.9,-13.4 -33.6,-24.21 -52.6,-32.49 3.8,-2.22 7.7,-4.43 11.5,-6.63 1.5,49.99 5,99.89 10.6,149.58 1.2,9.81 -14.2,9.73 -15.3,0"
       style="fill:#a46e4a;fill-opacity:1;fill-rule:nonzero;stroke:none"
       transform="matrix(0.03527778,0,0,-0.03527778,-549.71948,419.98016)"
       clip-path="url(#clipPath373)" />
    <path
       id="path374"
       d="m 19434.2,7156.78 c 14.6,19.51 29.1,39.02 43.6,58.53 2.5,3.33 0.6,8.59 -2.7,10.52 -4,2.29 -8.1,0.58 -10.6,-2.76 -14.5,-19.51 -29,-39.02 -43.5,-58.53 -2.5,-3.33 -0.6,-8.59 2.7,-10.51 3.9,-2.29 8,-0.58 10.5,2.75"
       style="fill:#a46e4a;fill-opacity:1;fill-rule:nonzero;stroke:none"
       transform="matrix(0.03527778,0,0,-0.03527778,-549.71948,419.98016)"
       clip-path="url(#clipPath375)" />
    <path
       id="path376"
       d="m 19447.8,7181.46 c 7.8,-5.23 15.7,-10.45 23.5,-15.68 3.4,-2.23 8.7,-0.76 10.6,2.76 2,3.86 0.8,8.13 -2.8,10.51 -7.9,5.23 -15.7,10.45 -23.6,15.67 -3.3,2.24 -8.6,0.77 -10.5,-2.75 -2,-3.86 -0.8,-8.13 2.8,-10.51"
       style="fill:#a46e4a;fill-opacity:1;fill-rule:nonzero;stroke:none"
       transform="matrix(0.03527778,0,0,-0.03527778,-549.71948,419.98016)"
       clip-path="url(#clipPath377)" />
    <path
       id="path378"
       d="m 18948.5,7218.35 c 18.8,-20.99 36.2,-43.1 52.3,-66.26 2.3,-3.41 6.7,-4.97 10.5,-2.76 3.4,1.97 5.1,7.09 2.7,10.51 -16.7,24.23 -35,47.42 -54.7,69.38 -6.6,7.39 -17.4,-3.52 -10.8,-10.87"
       style="fill:#a46e4a;fill-opacity:1;fill-rule:nonzero;stroke:none"
       transform="matrix(0.03527778,0,0,-0.03527778,-549.71948,419.98016)"
       clip-path="url(#clipPath379)" />
    <path
       id="path380"
       d="m 18961.1,7169.19 c 7.9,3.92 15.7,7.84 23.6,11.77 3.6,1.8 4.9,7.18 2.7,10.51 -2.3,3.68 -6.6,4.68 -10.5,2.76 -7.8,-3.93 -15.7,-7.85 -23.5,-11.78 -3.6,-1.8 -4.9,-7.18 -2.8,-10.51 2.4,-3.68 6.7,-4.68 10.5,-2.75"
       style="fill:#a46e4a;fill-opacity:1;fill-rule:nonzero;stroke:none"
       transform="matrix(0.03527778,0,0,-0.03527778,-549.71948,419.98016)"
       clip-path="url(#clipPath381)" />
    <path
       id="path382"
       d="m 19027.8,7424.38 c 44.2,9.31 73.2,72.72 54.9,119.74 38.7,-40.59 86.1,-70.08 136.9,-85.2 29.3,-8.72 61.7,-12.37 89.2,2.96 27.5,15.33 46.6,55.1 34.2,86.96 19.5,-40.23 49.1,-73.64 84.4,-95.05 -10.5,-30.83 -13.2,-64.94 -8.3,-97.37 3.9,-25.27 25.7,-43.77 51.2,-44.03 l 0.9,-0.02 c 31.1,-0.81 56,26.97 51.9,57.88 -4.7,36.42 -21.5,70.73 -47.9,91.26 16.4,26.43 33.2,53.91 38.8,85.65 5.7,31.76 -3,69.13 -27.4,84.39 -16.8,10.47 -40.8,11.65 -48.3,31.92 -5.4,14.32 0.9,30.66 2.1,46.28 2.7,33.75 -19.4,64.64 -46.2,77.94 -26.7,13.3 -57.1,12.66 -86.3,10.41 -65.9,-5.07 -131.4,-17.15 -195.4,-36.07 -20.5,-6.02 -41.9,-13.59 -55.9,-31.96 -5.1,-6.76 -9.1,-14.82 -15.2,-20.34 -7.1,-6.44 -16.3,-8.68 -25.1,-11.05 -45.6,-12.36 -91.4,-35.54 -120.2,-78.51 -28.7,-42.99 -34.8,-109.23 -4.1,-149.38 -27.7,-33.63 -7.9,-130.11 21.5,-160.87 1.3,-1.29 2.5,-2.51 3.8,-3.68 36.7,-33.48 96.2,-10.36 103.6,38.74 3.6,24.74 7.9,59 6.9,79.4"
       style="fill:#a3a3a3;fill-opacity:1;fill-rule:nonzero;stroke:none"
       transform="matrix(0.03527778,0,0,-0.03527778,-549.71948,419.98016)"
       clip-path="url(#clipPath383)" />
    <path
       id="path384"
       d="m 19272.6,7398.4 c 38.3,-13.17 77.9,-20.35 117.5,-21.35 -25.3,55.04 -89.5,69.9 -127.5,29.52 l 10,-8.17"
       style="fill:#a3a3a3;fill-opacity:1;fill-rule:nonzero;stroke:none"
       transform="matrix(0.03527778,0,0,-0.03527778,-549.71948,419.98016)"
       clip-path="url(#clipPath385)" />
    <path
       id="path386"
       d="m 19061.2,7327.3 c 39.9,6.68 78.1,19.19 113.4,37.17 -48.4,36.36 -111.9,18.86 -126.2,-34.75 l 12.8,-2.42"
       style="fill:#a3a3a3;fill-opacity:1;fill-rule:nonzero;stroke:none"
       transform="matrix(0.03527778,0,0,-0.03527778,-549.71948,419.98016)"
       clip-path="url(#clipPath387)" />
    <path
       id="path388"
       d="m 19482.9,7518.97 c 8.9,4.72 18.8,-5.89 23.1,-12.56 6.2,-9.47 9.5,-20.56 9.5,-31.86 0.1,-21.38 -12.2,-40.66 -30.8,-50.83 3.9,-2.21 7.7,-4.42 11.6,-6.63 0,-0.99 -1.2,-0.32 0.4,-0.4 1.5,-0.07 2.9,0.29 4.4,0.03 3.4,-0.59 6.7,-2.49 9.7,-4.2 7.4,-4.25 14.2,-10.43 17.1,-18.7 2.5,-7.35 2.2,-16.67 -3.7,-22.39 -5,-4.88 -12.6,-6.07 -18.5,-2.29 -8.4,5.33 -16.1,-7.97 -7.8,-13.27 11.5,-7.28 26.8,-4.94 36.6,4.12 11.3,10.46 12.6,27.97 6.8,41.56 -5.9,13.75 -18.7,23.62 -32.4,28.81 -10.8,4.06 -28.5,1.35 -28,-13.27 0.2,-5.89 6.4,-9.49 11.6,-6.64 25.7,14.11 41.4,42.89 37.9,72.24 -1.8,14.64 -7.6,29.2 -17.7,40.1 -9.6,10.33 -24.3,16.46 -37.5,9.45 -8.8,-4.63 -1,-17.9 7.7,-13.27"
       style="fill:#a3a3a3;fill-opacity:1;fill-rule:nonzero;stroke:none"
       transform="matrix(0.03527778,0,0,-0.03527778,-549.71948,419.98016)"
       clip-path="url(#clipPath389)" />
    <path
       id="path390"
       d="m 19084.8,7129.48 c -11.7,0 -23.4,0.56 -35.1,1.7 -3.8,0.36 -7.6,0.81 -11.3,1.45 -5.6,38.17 -12.8,76.12 -21.7,113.66 l -2.5,-7.65 c -1.2,8.71 -5.9,16.18 -12.5,21.71 0.6,24.79 3.4,46.58 10.5,51.87 5.6,4.24 12.7,6.43 19.6,8.29 27.3,7.34 55.6,11.05 83.9,11.05 16,0 31.9,-1.17 47.6,-3.53 9.3,-1.38 19.3,-3.62 25,-10.61 3.9,-4.66 5.1,-10.7 6.2,-16.52 6,-32.94 8.7,-66.42 7.9,-99.84 -0.5,-19 -3,-40.07 -18.1,-52.61 -9.3,-7.72 -21.9,-10.81 -34,-13.04 -21.6,-3.95 -43.5,-5.93 -65.5,-5.93 M 19129,7254 c -14.6,0 -26.4,-12.98 -26.4,-29 0,-16.01 11.8,-28.98 26.4,-28.98 14.6,0 26.4,12.97 26.4,28.98 0,16.02 -11.8,29 -26.4,29"
       style="fill:#fde5d8;fill-opacity:1;fill-rule:nonzero;stroke:none"
       transform="matrix(0.03527778,0,0,-0.03527778,-549.71948,419.98016)"
       clip-path="url(#clipPath391)" />
    <path
       id="path392"
       d="m 19038.4,7132.63 c -8.9,1.5 -17.5,4.09 -24.5,9.24 -2.5,1.79 -4.7,3.99 -6.5,6.44 0.1,0 0.1,-0.01 0.2,-0.01 1.2,0 2.5,0.33 3.7,1.03 3.4,1.97 5.1,7.09 2.7,10.51 -3.1,4.53 -6.3,9.03 -9.5,13.48 0,0.1 0.1,0.2 0.2,0.29 0,0 -4.2,47.19 -3,86.74 6.6,-5.53 11.3,-13 12.5,-21.71 l 2.5,7.65 c 8.9,-37.54 16.1,-75.49 21.7,-113.66"
       style="fill:#fde5d8;fill-opacity:1;fill-rule:nonzero;stroke:none"
       transform="matrix(0.03527778,0,0,-0.03527778,-549.71948,419.98016)"
       clip-path="url(#clipPath393)" />
    <path
       id="path394"
       d="m 19129,7196.02 c -14.6,0 -26.4,12.97 -26.4,28.98 0,16.02 11.8,29 26.4,29 14.6,0 26.4,-12.98 26.4,-29 0,-16.01 -11.8,-28.98 -26.4,-28.98"
       style="fill:#7f7f7f;fill-opacity:1;fill-rule:nonzero;stroke:none"
       transform="matrix(0.03527778,0,0,-0.03527778,-549.71948,419.98016)"
       clip-path="url(#clipPath395)" />
    <path
       id="path396"
       d="m 19007.6,7148.3 c -0.1,0 -0.1,0.01 -0.2,0.01 -5.5,7.46 -7.6,17.25 -2.9,25.01 3.2,-4.45 6.4,-8.95 9.5,-13.48 2.4,-3.42 0.7,-8.54 -2.7,-10.51 -1.2,-0.7 -2.5,-1.03 -3.7,-1.03"
       style="fill:#ccae99;fill-opacity:1;fill-rule:nonzero;stroke:none"
       transform="matrix(0.03527778,0,0,-0.03527778,-549.71948,419.98016)"
       clip-path="url(#clipPath397)" />
    <path
       id="path398"
       d="m 19010,7135.23 c 13.1,-9.03 29.1,-10.89 44.6,-12.18 17.2,-1.44 34.5,-1.64 51.7,-0.63 16.8,1 33.6,3.02 50.1,6.36 13.9,2.83 28.4,7.74 37.9,18.8 19.2,22.07 16.6,56.4 15.5,83.55 -0.6,17.82 -2.3,35.58 -4.9,53.23 -2,14.33 -2.7,32.46 -15,42.15 -11.3,8.82 -27.3,9.61 -40.9,11.02 -16.8,1.74 -33.8,2.15 -50.7,1.24 -17.5,-0.93 -35,-3.24 -52.2,-6.9 -12.7,-2.72 -30.2,-5.25 -40,-14.73 -8.2,-7.9 -9.1,-22.84 -10.2,-33.36 -1.9,-17.58 -1.9,-35.39 -1.4,-53.04 0.5,-20.15 1.8,-40.33 4.5,-60.31 0.9,-7.31 1.9,-14.67 3.8,-21.83 1,-4 2.2,-9.42 5.6,-12.17 7.6,-6.17 18.6,4.64 10.9,10.87 -1.4,1.16 0.9,-1.13 0.2,-0.33 -0.3,0.32 -0.9,2.07 -0.5,0.82 0.4,-1.34 -0.3,1.02 -0.4,1.38 -0.3,0.96 -0.6,1.91 -0.9,2.88 -1.3,5.05 -2.1,10.22 -2.9,15.38 -2.3,14.91 -3.4,30.03 -4.2,45.08 -0.9,16.79 -1.3,33.64 -0.7,50.44 0.4,12.66 0.8,25.65 4.5,37.78 l 0.9,2.61 c 0.7,1.93 -0.5,-0.93 0,0.16 l 0.6,1.27 0.8,1.3 2.9,1.83 c 12.4,6.85 28.6,9.03 42.4,11.44 30.2,5.26 61.3,5.92 91.8,2.29 11.4,-1.36 27.4,-2.06 31.6,-15.02 4.5,-14.31 5.5,-30.59 7,-45.46 1.6,-15.8 2.4,-31.68 2.4,-47.56 0.1,-12.77 0.2,-25.89 -3.1,-38.32 -3.8,-14.01 -12.5,-23.7 -26.4,-28.31 -15.6,-5.21 -32.8,-7.04 -49.2,-8.45 -17.2,-1.49 -34.4,-1.75 -51.7,-0.78 -15.8,0.89 -33.2,1.49 -46.7,10.77 -8.1,5.63 -15.8,-7.68 -7.7,-13.27"
       style="fill:#ce7d1d;fill-opacity:1;fill-rule:nonzero;stroke:none"
       transform="matrix(0.03527778,0,0,-0.03527778,-549.71948,419.98016)"
       clip-path="url(#clipPath399)" />
    <path
       id="path400"
       d="m 19325.6,7142.87 c -11.8,0 -23.5,0.56 -35.2,1.7 -12.6,1.23 -25.7,3.35 -35.8,10.68 -10,7.34 -15.6,21.42 -9.2,31.75 0,0 -10.9,124.86 7.5,138.62 5.7,4.23 12.7,6.42 19.7,8.29 27.2,7.34 55.6,11.04 83.9,11.04 15.9,0 31.9,-1.17 47.6,-3.52 9.3,-1.38 19.2,-3.63 25,-10.61 3.8,-4.66 5.1,-10.71 6.2,-16.53 3.4,-18.65 5.7,-37.47 6.9,-56.36 -5.2,-5.21 -8.9,-11.79 -9.9,-19.29 l -2.4,7.65 c -7.2,-30.48 -13.4,-61.23 -18.4,-92.16 -6.5,-2.52 -13.6,-4.07 -20.5,-5.33 -21.5,-3.95 -43.5,-5.93 -65.4,-5.93 m -7.1,116.25 c -14.6,0 -26.4,-12.98 -26.4,-28.99 0,-16.01 11.8,-28.99 26.4,-28.99 14.6,0 26.4,12.98 26.4,28.99 0,16.01 -11.8,28.99 -26.4,28.99"
       style="fill:#fde5d8;fill-opacity:1;fill-rule:nonzero;stroke:none"
       transform="matrix(0.03527778,0,0,-0.03527778,-549.71948,419.98016)"
       clip-path="url(#clipPath401)" />
    <path
       id="path402"
       d="m 19411.5,7154.13 c 5,30.93 11.2,61.68 18.4,92.16 l 2.4,-7.65 c 1,7.5 4.7,14.08 9.9,19.29 1,-14.47 1.3,-28.98 0.9,-43.49 -0.1,-7.59 -0.7,-15.51 -2.2,-23.08 -6.6,-8.94 -13.3,-17.88 -19.9,-26.82 -1.4,-1.75 -1.4,-4.04 -0.7,-6.1 -2.8,-1.7 -5.7,-3.11 -8.8,-4.31"
       style="fill:#fde5d8;fill-opacity:1;fill-rule:nonzero;stroke:none"
       transform="matrix(0.03527778,0,0,-0.03527778,-549.71948,419.98016)"
       clip-path="url(#clipPath403)" />
    <path
       id="path404"
       d="m 19318.5,7201.14 c -14.6,0 -26.4,12.98 -26.4,28.99 0,16.01 11.8,28.99 26.4,28.99 14.6,0 26.4,-12.98 26.4,-28.99 0,-16.01 -11.8,-28.99 -26.4,-28.99"
       style="fill:#7f7f7f;fill-opacity:1;fill-rule:nonzero;stroke:none"
       transform="matrix(0.03527778,0,0,-0.03527778,-549.71948,419.98016)"
       clip-path="url(#clipPath405)" />
    <path
       id="path406"
       d="m 19420.3,7158.44 c -0.7,2.06 -0.7,4.35 0.7,6.1 6.6,8.94 13.3,17.88 19.9,26.82 -2.3,-11.38 -6.8,-21.98 -15.9,-29.52 -1.5,-1.25 -3.1,-2.38 -4.7,-3.4"
       style="fill:#ccae99;fill-opacity:1;fill-rule:nonzero;stroke:none"
       transform="matrix(0.03527778,0,0,-0.03527778,-549.71948,419.98016)"
       clip-path="url(#clipPath407)" />
    <path
       id="path408"
       d="m 19250.7,7148.62 c 13.1,-9.03 29.2,-10.89 44.7,-12.18 17.1,-1.44 34.4,-1.64 51.7,-0.62 16.7,0.99 33.6,3.01 50,6.35 14,2.83 28.4,7.74 38,18.8 19.1,22.08 16.5,56.4 15.5,83.55 -0.7,17.82 -2.4,35.58 -4.9,53.23 -2.1,14.33 -2.8,32.46 -15.1,42.16 -11.2,8.81 -27.2,9.61 -40.9,11.01 -16.8,1.74 -33.7,2.15 -50.6,1.25 -17.5,-0.94 -35,-3.25 -52.2,-6.91 -12.8,-2.72 -30.2,-5.25 -40,-14.73 -8.2,-7.9 -9.2,-22.84 -10.3,-33.36 -1.9,-17.58 -1.9,-35.39 -1.4,-53.04 0.6,-20.15 1.9,-40.33 4.5,-60.31 1,-7.31 2,-14.67 3.8,-21.82 1,-4.01 2.3,-9.43 5.7,-12.17 7.6,-6.17 18.5,4.63 10.8,10.86 -1.4,1.16 1,-1.12 0.2,-0.33 -0.3,0.32 -0.8,2.07 -0.4,0.82 0.4,-1.34 -0.4,1.02 -0.5,1.39 -0.3,0.95 -0.6,1.91 -0.8,2.87 -1.3,5.05 -2.2,10.23 -3,15.38 -2.2,14.92 -3.3,30.03 -4.2,45.09 -0.9,16.78 -1.3,33.63 -0.7,50.44 0.4,12.66 0.8,25.65 4.5,37.77 l 0.9,2.61 c 0.7,1.94 -0.5,-0.93 0.1,0.16 l 0.6,1.27 0.8,1.3 2.8,1.83 c 12.5,6.85 28.7,9.03 42.5,11.44 30.2,5.26 61.3,5.92 91.7,2.29 11.5,-1.36 27.5,-2.06 31.6,-15.02 4.6,-14.31 5.6,-30.59 7.1,-45.46 1.5,-15.8 2.4,-31.68 2.4,-47.56 0,-12.76 0.1,-25.89 -3.2,-38.32 -3.7,-14.01 -12.5,-23.7 -26.3,-28.31 -15.7,-5.21 -32.9,-7.04 -49.2,-8.45 -17.2,-1.49 -34.5,-1.75 -51.7,-0.78 -15.8,0.89 -33.3,1.49 -46.7,10.77 -8.2,5.63 -15.9,-7.68 -7.8,-13.27"
       style="fill:#ce7d1d;fill-opacity:1;fill-rule:nonzero;stroke:none"
       transform="matrix(0.03527778,0,0,-0.03527778,-549.71948,419.98016)"
       clip-path="url(#clipPath409)" />
    <path
       id="path410"
       d="m 19210.7,7245.22 1.1,2.21 0.5,0.86 c 0.2,0.24 1.1,1.49 0.3,0.38 -0.8,-1.05 0,-0.06 0.2,0.17 l 0.8,0.9 1.6,1.51 c 0.7,0.63 -1.4,-1.05 -0.4,-0.32 l 1,0.69 2.2,1.22 0.9,0.45 c 0.8,0.43 -1.7,-0.65 -0.5,-0.21 l 2.4,0.77 2.2,0.51 c 1.3,0.27 -0.1,-0.06 -0.6,-0.06 l 1.2,0.12 c 1.5,0.11 3,-0.06 4.5,-0.11 -2.6,0.09 0,-0.04 0.8,-0.26 l 1.9,-0.61 c 1.4,-0.45 -1.5,0.77 -0.3,0.15 l 1.1,-0.55 2.1,-1.33 c 3.3,-2.34 8.7,-0.68 10.5,2.76 2.1,3.96 0.8,8.01 -2.7,10.51 -14.1,10.02 -37.1,3.87 -44.1,-12.01 -0.8,-1.96 -1.4,-3.77 -0.8,-5.92 0.5,-1.78 1.9,-3.71 3.6,-4.59 3.3,-1.76 8.8,-1.18 10.5,2.76"
       style="fill:#ce7d1d;fill-opacity:1;fill-rule:nonzero;stroke:none"
       transform="matrix(0.03527778,0,0,-0.03527778,-549.71948,419.98016)"
       clip-path="url(#clipPath411)" />
    <path
       id="path412"
       d="m 19071.2,6836.16 c 1.1,16.65 2.3,33.31 3.4,49.97 152.3,-117.79 278.3,10.17 299.1,15.28 2,-19.02 6.6,-64.52 5.3,-67.96 -0.6,-1.56 -101,-65.64 -152.1,-65.11 -90.7,0.95 -155.7,67.82 -155.7,67.82"
       style="fill:#ce7d1d;fill-opacity:1;fill-rule:nonzero;stroke:none"
       transform="matrix(0.03527778,0,0,-0.03527778,-549.71948,419.98016)"
       clip-path="url(#clipPath413)" />
    <path
       id="path414"
       d="m 19218.8,6831.07 c 0,-55.81 0,-111.61 0,-167.41 0,-9.89 15.3,-9.9 15.3,0 0,55.8 0,111.6 0,167.41 0,9.88 -15.3,9.9 -15.3,0"
       style="fill:#ffb753;fill-opacity:1;fill-rule:nonzero;stroke:none"
       transform="matrix(0.03527778,0,0,-0.03527778,-549.71948,419.98016)"
       clip-path="url(#clipPath415)" />
    <path
       id="path416"
       d="m 19213.5,6765.67 c 0,-161.57 0,-323.14 0,-484.71 0,-45.07 0,-90.14 0,-135.21 0,-9.89 15.4,-9.9 15.4,0 0,161.57 0,323.14 0,484.71 0,45.07 0,90.14 0,135.21 0,9.89 -15.4,9.91 -15.4,0"
       style="fill:#ce7d1d;fill-opacity:1;fill-rule:nonzero;stroke:none"
       transform="matrix(0.03527778,0,0,-0.03527778,-549.71948,419.98016)"
       clip-path="url(#clipPath417)" />
    <path
       id="path418"
       d="m 19278.8,6616.97 c 26.1,-1.62 52.3,-3.24 78.5,-4.85 4.1,-0.26 7.6,3.71 7.6,7.68 0,4.37 -3.5,7.42 -7.6,7.68 -26.2,1.62 -52.4,3.24 -78.5,4.86 -4.2,0.25 -7.7,-3.72 -7.7,-7.68 0,-4.38 3.5,-7.43 7.7,-7.69"
       style="fill:#ce7d1d;fill-opacity:1;fill-rule:nonzero;stroke:none"
       transform="matrix(0.03527778,0,0,-0.03527778,-549.71948,419.98016)"
       clip-path="url(#clipPath419)" />
    <path
       id="path420"
       d="m 19286.8,6369.82 c 19,-2.52 38.2,-3.44 57.4,-2.74 4.1,0.16 7.7,3.43 7.7,7.69 0,4.04 -3.5,7.83 -7.7,7.68 -19.2,-0.7 -38.4,0.21 -57.4,2.74 -4.1,0.55 -7.7,-3.92 -7.7,-7.68 0,-4.61 3.6,-7.14 7.7,-7.69"
       style="fill:#ce7d1d;fill-opacity:1;fill-rule:nonzero;stroke:none"
       transform="matrix(0.03527778,0,0,-0.03527778,-549.71948,419.98016)"
       clip-path="url(#clipPath421)" />
    <path
       id="path422"
       d="m 19578.1,6610.41 c 22.1,-133.94 -2.5,-269.96 10.7,-404.48 3.6,-37.23 10.1,-74.15 21,-109.97 2.8,-9.44 17.7,-5.41 14.8,4.08 -39.6,130.41 -18.8,268.03 -21.9,401.85 -0.8,37.71 -3.6,75.37 -9.8,112.6 -1.6,9.74 -16.4,5.61 -14.8,-4.08"
       style="fill:#ce7d1d;fill-opacity:1;fill-rule:nonzero;stroke:none"
       transform="matrix(0.03527778,0,0,-0.03527778,-549.71948,419.98016)"
       clip-path="url(#clipPath423)" />
    <path
       id="path424"
       d="m 19614.1,6555.82 c -7.7,-24.45 -15.5,-48.9 -23.2,-73.35 -3,-9.45 11.8,-13.49 14.8,-4.08 7.7,24.45 15.5,48.89 23.2,73.34 3,9.45 -11.8,13.49 -14.8,4.09"
       style="fill:#ce7d1d;fill-opacity:1;fill-rule:nonzero;stroke:none"
       transform="matrix(0.03527778,0,0,-0.03527778,-549.71948,419.98016)"
       clip-path="url(#clipPath425)" />
    <path
       id="path426"
       d="m 18814.2,6611.45 c 3.6,-123.86 3.5,-247.82 -0.4,-371.68 -1.1,-34.78 -2.5,-69.54 -4.2,-104.3 -0.5,-9.89 14.9,-9.86 15.4,0 6,123.77 8.3,247.71 6.8,371.61 -0.5,34.8 -1.2,69.59 -2.2,104.37 -0.3,9.87 -15.7,9.91 -15.4,0"
       style="fill:#ce7d1d;fill-opacity:1;fill-rule:nonzero;stroke:none"
       transform="matrix(0.03527778,0,0,-0.03527778,-549.71948,419.98016)"
       clip-path="url(#clipPath427)" />
    <path
       id="path428"
       d="m 18785.1,6573.24 c 8.9,-20.01 19.8,-39.05 32.5,-56.85 2.5,-3.37 6.7,-4.99 10.6,-2.76 3.3,1.95 5.1,7.12 2.7,10.52 -12.7,17.8 -23.6,36.84 -32.5,56.84 -1.7,3.8 -7.3,4.69 -10.6,2.76 -3.9,-2.28 -4.4,-6.71 -2.7,-10.51"
       style="fill:#ce7d1d;fill-opacity:1;fill-rule:nonzero;stroke:none"
       transform="matrix(0.03527778,0,0,-0.03527778,-549.71948,419.98016)"
       clip-path="url(#clipPath429)" />
    <path
       id="path430"
       d="m 18913.5,6234.71 c 5.2,72.84 9.6,145.72 14.8,218.55 0.8,11.87 1.7,23.74 2.7,35.6 0.2,2.9 0.5,5.8 0.8,8.7 0.1,1.3 -0.9,-1.62 -0.1,-0.82 0.9,1 0.2,0.57 -2.5,-2.1 -1.3,-1.32 -1.9,-3.23 -3.6,-2.68 l 1.7,0.11 c 28,-0.05 56,-1.29 84,-1.98 43.6,-1.07 87.7,-2.46 131.2,1.58 -1.8,0.75 -3.6,1.5 -5.4,2.25 -0.3,0.21 -2.5,4.36 -1.7,2.36 -0.6,1.5 -0.1,1.49 0,-0.41 0.1,-2.54 0.3,-5.08 0.4,-7.62 0.4,-8.57 0.6,-17.15 0.8,-25.72 0.5,-27.32 0.8,-54.65 1,-81.97 0.4,-60.65 0.5,-121.31 0,-181.96 -0.1,-10.34 -0.2,-20.68 -0.4,-31.02 0,-3.08 -0.1,-6.17 -0.2,-9.25 l -0.1,-2.66 -0.1,-0.74 c -0.3,1.24 1.2,3.84 2.1,4.86 1.9,0.75 3.7,1.5 5.5,2.25 v 0 c -9.8,-0.81 -9.9,-16.18 0,-15.37 8.3,0.68 7.9,8.3 8.1,14.44 0.2,7.55 0.3,15.1 0.3,22.65 0.3,26.61 0.4,53.22 0.4,79.84 0.1,62.66 0,125.35 -1,188.01 -0.3,15.45 0.8,31.98 -1.8,47.3 -0.7,4.36 -2.8,7.8 -7.9,8.13 -4.2,0.27 -8.8,-0.74 -12.9,-1 -4.7,-0.29 -9.5,-0.52 -14.2,-0.71 -21.2,-0.83 -42.4,-0.84 -63.6,-0.61 -37.2,0.39 -74.3,2 -111.4,2.7 -7,0.13 -20.5,2.56 -23.4,-6.06 -2,-5.8 -1.5,-13.44 -2,-19.45 -5.8,-74.53 -10.1,-149.18 -15.2,-223.75 -0.5,-7.82 -1.1,-15.63 -1.6,-23.45 -0.7,-9.86 14.6,-9.82 15.3,0"
       style="fill:#ce7d1d;fill-opacity:1;fill-rule:nonzero;stroke:none"
       transform="matrix(0.03527778,0,0,-0.03527778,-549.71948,419.98016)"
       clip-path="url(#clipPath431)" />
    <path
       id="path432"
       d="m 18923,6438.87 c 71.5,0 143,0 214.5,0 9.9,0 9.9,15.37 0,15.37 -71.5,0 -143,0 -214.5,0 -9.9,0 -9.9,-15.37 0,-15.37"
       style="fill:#ce7d1d;fill-opacity:1;fill-rule:nonzero;stroke:none"
       transform="matrix(0.03527778,0,0,-0.03527778,-549.71948,419.98016)"
       clip-path="url(#clipPath433)" />
    <path
       id="path434"
       d="m 19055.8,7541.72 c 17.5,-33.24 43.2,-62.99 79,-76.73 17.3,-6.65 36.1,-8.66 54.4,-5.38 19.9,3.55 38,13.45 55.6,22.97 8.7,4.73 0.9,18 -7.8,13.27 -15.5,-8.42 -31.2,-16.98 -48.6,-20.76 -16.6,-3.62 -33.8,-1.38 -49.5,4.72 -31.9,12.35 -54.3,40.22 -69.8,69.66 -4.6,8.76 -17.9,1 -13.3,-7.75"
       style="fill:#a3a3a3;fill-opacity:1;fill-rule:nonzero;stroke:none"
       transform="matrix(0.03527778,0,0,-0.03527778,-549.71948,419.98016)"
       clip-path="url(#clipPath435)" />
    <path
       id="path436"
       d="m 19046.7,7499.11 c 22.7,-33.52 59,-56.58 99.2,-61.89 41.5,-5.48 84.1,8.77 114.7,37.11 7.3,6.73 -3.6,17.57 -10.8,10.86 -27.1,-25.06 -65.1,-37.62 -101.8,-32.86 -35.4,4.57 -68.1,25.09 -88,54.53 -5.6,8.15 -18.9,0.47 -13.3,-7.75"
       style="fill:#a3a3a3;fill-opacity:1;fill-rule:nonzero;stroke:none"
       transform="matrix(0.03527778,0,0,-0.03527778,-549.71948,419.98016)"
       clip-path="url(#clipPath437)" />
    <path
       id="path438"
       d="m 19206.3,7014.95 c 5.1,-5.09 12,-7.78 19.2,-8.04 7.2,-0.26 14.1,2.35 19.5,7.03 3,2.65 2.9,8.2 0,10.87 -3.3,2.98 -7.6,2.82 -10.9,0 -0.2,-0.21 -1.2,-0.95 -0.1,-0.12 1.1,0.86 0.1,0.07 -0.1,-0.07 l -1.5,-0.88 -1.5,-0.75 c 0.2,0.22 1.9,0.74 0.7,0.28 l -0.8,-0.25 c -0.9,-0.31 -2.4,-0.92 -3.4,-0.81 0.3,-0.03 2,0.24 0.7,0.13 l -0.8,-0.05 -1.8,-0.02 -1.7,0.13 c 0,-0.04 2,-0.32 0.9,-0.12 l -0.9,0.18 c -1,0.2 -2.7,0.4 -3.5,1.03 0.1,-0.07 1.8,-0.8 0.8,-0.33 l -0.8,0.41 -1.5,0.85 -0.7,0.52 c -0.7,0.44 1.5,-1.31 0.5,-0.4 l -1.4,1.28 c -2.8,2.85 -8.1,3.05 -10.9,0 -2.8,-3.07 -3,-7.82 0,-10.87"
       style="fill:#a46e4a;fill-opacity:1;fill-rule:nonzero;stroke:none"
       transform="matrix(0.03527778,0,0,-0.03527778,-549.71948,419.98016)"
       clip-path="url(#clipPath439)" />
    <path
       id="path440"
       d="m 19265.9,7093.16 c 6.8,-33.17 13.5,-66.34 20.3,-99.52 2,-9.68 16.8,-5.58 14.8,4.09 -6.7,33.17 -13.5,66.34 -20.3,99.52 -2,9.68 -16.8,5.58 -14.8,-4.09"
       style="fill:#a46e4a;fill-opacity:1;fill-rule:nonzero;stroke:none"
       transform="matrix(0.03527778,0,0,-0.03527778,-549.71948,419.98016)"
       clip-path="url(#clipPath441)" />
    <path
       id="path442"
       d="m 19176.5,7084.31 c -4,-28.81 -8.1,-57.63 -12.1,-86.45 -0.6,-4.1 1,-8.25 5.3,-9.45 3.6,-0.99 8.9,1.23 9.5,5.37 4,28.81 8.1,57.63 12.1,86.45 0.6,4.1 -1,8.25 -5.3,9.45 -3.6,0.99 -8.9,-1.23 -9.5,-5.37"
       style="fill:#a46e4a;fill-opacity:1;fill-rule:nonzero;stroke:none"
       transform="matrix(0.03527778,0,0,-0.03527778,-549.71948,419.98016)"
       clip-path="url(#clipPath443)" />
  </g>
</svg>
