<?xml version="1.0" encoding="UTF-8" standalone="no"?>
<!-- Created with Inkscape (http://www.inkscape.org/) -->

<svg
   width="64.332558mm"
   height="64.332207mm"
   viewBox="0 0 64.332558 64.332207"
   version="1.1"
   id="svg1"
   inkscape:version="1.3.2 (091e20e, 2023-11-25)"
   sodipodi:docname="teacher-avatar.svg"
   xmlns:inkscape="http://www.inkscape.org/namespaces/inkscape"
   xmlns:sodipodi="http://sodipodi.sourceforge.net/DTD/sodipodi-0.dtd"
   xmlns="http://www.w3.org/2000/svg"
   xmlns:svg="http://www.w3.org/2000/svg">
  <sodipodi:namedview
     id="namedview1"
     pagecolor="#ffffff"
     bordercolor="#000000"
     borderopacity="0.25"
     inkscape:showpageshadow="2"
     inkscape:pageopacity="0.0"
     inkscape:pagecheckerboard="0"
     inkscape:deskcolor="#d1d1d1"
     inkscape:document-units="mm"
     inkscape:zoom="0.88610948"
     inkscape:cx="261.2544"
     inkscape:cy="175.48622"
     inkscape:window-width="1920"
     inkscape:window-height="1052"
     inkscape:window-x="0"
     inkscape:window-y="28"
     inkscape:window-maximized="0"
     inkscape:current-layer="layer1" />
  <defs
     id="defs1">
    <clipPath
       clipPathUnits="userSpaceOnUse"
       id="clipPath679">
      <path
         d="m 17966.8,5084.48 c 0,-503.57 -408.2,-911.8 -911.8,-911.8 -503.6,0 -911.8,408.23 -911.8,911.8 0,503.57 408.2,911.79 911.8,911.79 503.6,0 911.8,-408.22 911.8,-911.79"
         transform="translate(0,-2.5e-4)"
         id="path679" />
    </clipPath>
    <clipPath
       clipPathUnits="userSpaceOnUse"
       id="clipPath681">
      <path
         d="m 17966.8,5084.48 c 0,-503.57 -408.2,-911.8 -911.8,-911.8 -503.6,0 -911.8,408.23 -911.8,911.8 0,503.57 408.2,911.79 911.8,911.79 503.6,0 911.8,-408.22 911.8,-911.79"
         transform="translate(0,-2.5e-4)"
         id="path681" />
    </clipPath>
    <clipPath
       clipPathUnits="userSpaceOnUse"
       id="clipPath683">
      <path
         d="m 17966.8,5084.48 c 0,-503.57 -408.2,-911.8 -911.8,-911.8 -503.6,0 -911.8,408.23 -911.8,911.8 0,503.57 408.2,911.79 911.8,911.79 503.6,0 911.8,-408.22 911.8,-911.79"
         transform="translate(0,-2.5e-4)"
         id="path683" />
    </clipPath>
    <clipPath
       clipPathUnits="userSpaceOnUse"
       id="clipPath685">
      <path
         d="m 17966.8,5084.48 c 0,-503.57 -408.2,-911.8 -911.8,-911.8 -503.6,0 -911.8,408.23 -911.8,911.8 0,503.57 408.2,911.79 911.8,911.79 503.6,0 911.8,-408.22 911.8,-911.79"
         transform="translate(0,-2.5e-4)"
         id="path685" />
    </clipPath>
    <clipPath
       clipPathUnits="userSpaceOnUse"
       id="clipPath686">
      <path
         d="m 17546.3,4418.06 c -83.8,56.09 -185,78.56 -283.8,98.41 -6.1,1.22 -12.3,2.53 -17.2,6.31 -8.3,6.48 10.6,224.79 0,320.23 l -141.1,-13.21 -141,13.21 c -10.6,-95.44 8.3,-313.75 0,-320.23 -4.9,-3.78 -11.2,-5.09 -17.2,-6.31 -98.8,-19.85 -200,-42.32 -283.8,-98.41 -83.8,-56.1 -147.2,-153.93 -133.8,-253.85 84.1,0.44 318.9,-1.08 556.7,-4.2 v -0.53 c 6.4,0.09 12.8,0.18 19.1,0.27 6.4,-0.09 12.8,-0.18 19.1,-0.27 v 0.53 c 237.9,3.12 472.7,4.64 556.8,4.2 13.4,99.92 -50,197.75 -133.8,253.85"
         transform="translate(0,-2.5e-4)"
         id="path686" />
    </clipPath>
    <clipPath
       clipPathUnits="userSpaceOnUse"
       id="clipPath689">
      <path
         d="m 17966.8,5084.48 c 0,-503.57 -408.2,-911.8 -911.8,-911.8 -503.6,0 -911.8,408.23 -911.8,911.8 0,503.57 408.2,911.79 911.8,911.79 503.6,0 911.8,-408.22 911.8,-911.79"
         transform="translate(0,-2.5e-4)"
         id="path689" />
    </clipPath>
    <clipPath
       clipPathUnits="userSpaceOnUse"
       id="clipPath691">
      <path
         d="m 17966.8,5084.48 c 0,-503.57 -408.2,-911.8 -911.8,-911.8 -503.6,0 -911.8,408.23 -911.8,911.8 0,503.57 408.2,911.79 911.8,911.79 503.6,0 911.8,-408.22 911.8,-911.79"
         transform="translate(0,-2.5e-4)"
         id="path691" />
    </clipPath>
    <clipPath
       clipPathUnits="userSpaceOnUse"
       id="clipPath693">
      <path
         d="m 17966.8,5084.48 c 0,-503.57 -408.2,-911.8 -911.8,-911.8 -503.6,0 -911.8,408.23 -911.8,911.8 0,503.57 408.2,911.79 911.8,911.79 503.6,0 911.8,-408.22 911.8,-911.79"
         transform="translate(0,-2.5e-4)"
         id="path693" />
    </clipPath>
    <clipPath
       clipPathUnits="userSpaceOnUse"
       id="clipPath695">
      <path
         d="m 17966.8,5084.48 c 0,-503.57 -408.2,-911.8 -911.8,-911.8 -503.6,0 -911.8,408.23 -911.8,911.8 0,503.57 408.2,911.79 911.8,911.79 503.6,0 911.8,-408.22 911.8,-911.79"
         transform="translate(0,-2.5e-4)"
         id="path695" />
    </clipPath>
    <clipPath
       clipPathUnits="userSpaceOnUse"
       id="clipPath697">
      <path
         d="m 17966.8,5084.48 c 0,-503.57 -408.2,-911.8 -911.8,-911.8 -503.6,0 -911.8,408.23 -911.8,911.8 0,503.57 408.2,911.79 911.8,911.79 503.6,0 911.8,-408.22 911.8,-911.79"
         transform="translate(0,-2.5e-4)"
         id="path697" />
    </clipPath>
    <clipPath
       clipPathUnits="userSpaceOnUse"
       id="clipPath699">
      <path
         d="m 17966.8,5084.48 c 0,-503.57 -408.2,-911.8 -911.8,-911.8 -503.6,0 -911.8,408.23 -911.8,911.8 0,503.57 408.2,911.79 911.8,911.79 503.6,0 911.8,-408.22 911.8,-911.79"
         transform="translate(0,-2.5e-4)"
         id="path699" />
    </clipPath>
    <clipPath
       clipPathUnits="userSpaceOnUse"
       id="clipPath701">
      <path
         d="m 17966.8,5084.48 c 0,-503.57 -408.2,-911.8 -911.8,-911.8 -503.6,0 -911.8,408.23 -911.8,911.8 0,503.57 408.2,911.79 911.8,911.79 503.6,0 911.8,-408.22 911.8,-911.79"
         transform="translate(0,-2.5e-4)"
         id="path701" />
    </clipPath>
    <clipPath
       clipPathUnits="userSpaceOnUse"
       id="clipPath703">
      <path
         d="m 17966.8,5084.48 c 0,-503.57 -408.2,-911.8 -911.8,-911.8 -503.6,0 -911.8,408.23 -911.8,911.8 0,503.57 408.2,911.79 911.8,911.79 503.6,0 911.8,-408.22 911.8,-911.79"
         transform="translate(0,-2.5e-4)"
         id="path703" />
    </clipPath>
    <clipPath
       clipPathUnits="userSpaceOnUse"
       id="clipPath705">
      <path
         d="m 17966.8,5084.48 c 0,-503.57 -408.2,-911.8 -911.8,-911.8 -503.6,0 -911.8,408.23 -911.8,911.8 0,503.57 408.2,911.79 911.8,911.79 503.6,0 911.8,-408.22 911.8,-911.79"
         transform="translate(0,-2.5e-4)"
         id="path705" />
    </clipPath>
    <clipPath
       clipPathUnits="userSpaceOnUse"
       id="clipPath707">
      <path
         d="m 17966.8,5084.48 c 0,-503.57 -408.2,-911.8 -911.8,-911.8 -503.6,0 -911.8,408.23 -911.8,911.8 0,503.57 408.2,911.79 911.8,911.79 503.6,0 911.8,-408.22 911.8,-911.79"
         transform="translate(0,-2.5e-4)"
         id="path707" />
    </clipPath>
    <clipPath
       clipPathUnits="userSpaceOnUse"
       id="clipPath709">
      <path
         d="m 17966.8,5084.48 c 0,-503.57 -408.2,-911.8 -911.8,-911.8 -503.6,0 -911.8,408.23 -911.8,911.8 0,503.57 408.2,911.79 911.8,911.79 503.6,0 911.8,-408.22 911.8,-911.79"
         transform="translate(0,-2.5e-4)"
         id="path709" />
    </clipPath>
    <clipPath
       clipPathUnits="userSpaceOnUse"
       id="clipPath711">
      <path
         d="m 17966.8,5084.48 c 0,-503.57 -408.2,-911.8 -911.8,-911.8 -503.6,0 -911.8,408.23 -911.8,911.8 0,503.57 408.2,911.79 911.8,911.79 503.6,0 911.8,-408.22 911.8,-911.79"
         transform="translate(0,-2.5e-4)"
         id="path711" />
    </clipPath>
    <clipPath
       clipPathUnits="userSpaceOnUse"
       id="clipPath713">
      <path
         d="m 17966.8,5084.48 c 0,-503.57 -408.2,-911.8 -911.8,-911.8 -503.6,0 -911.8,408.23 -911.8,911.8 0,503.57 408.2,911.79 911.8,911.79 503.6,0 911.8,-408.22 911.8,-911.79"
         transform="translate(0,-2.5e-4)"
         id="path713" />
    </clipPath>
    <clipPath
       clipPathUnits="userSpaceOnUse"
       id="clipPath715">
      <path
         d="m 17966.8,5084.48 c 0,-503.57 -408.2,-911.8 -911.8,-911.8 -503.6,0 -911.8,408.23 -911.8,911.8 0,503.57 408.2,911.79 911.8,911.79 503.6,0 911.8,-408.22 911.8,-911.79"
         transform="translate(0,-2.5e-4)"
         id="path715" />
    </clipPath>
    <clipPath
       clipPathUnits="userSpaceOnUse"
       id="clipPath717">
      <path
         d="m 17966.8,5084.48 c 0,-503.57 -408.2,-911.8 -911.8,-911.8 -503.6,0 -911.8,408.23 -911.8,911.8 0,503.57 408.2,911.79 911.8,911.79 503.6,0 911.8,-408.22 911.8,-911.79"
         transform="translate(0,-2.5e-4)"
         id="path717" />
    </clipPath>
    <clipPath
       clipPathUnits="userSpaceOnUse"
       id="clipPath719">
      <path
         d="m 17966.8,5084.48 c 0,-503.57 -408.2,-911.8 -911.8,-911.8 -503.6,0 -911.8,408.23 -911.8,911.8 0,503.57 408.2,911.79 911.8,911.79 503.6,0 911.8,-408.22 911.8,-911.79"
         transform="translate(0,-2.5e-4)"
         id="path719" />
    </clipPath>
    <clipPath
       clipPathUnits="userSpaceOnUse"
       id="clipPath721">
      <path
         d="m 17966.8,5084.48 c 0,-503.57 -408.2,-911.8 -911.8,-911.8 -503.6,0 -911.8,408.23 -911.8,911.8 0,503.57 408.2,911.79 911.8,911.79 503.6,0 911.8,-408.22 911.8,-911.79"
         transform="translate(0,-2.5e-4)"
         id="path721" />
    </clipPath>
    <clipPath
       clipPathUnits="userSpaceOnUse"
       id="clipPath723">
      <path
         d="m 17966.8,5084.48 c 0,-503.57 -408.2,-911.8 -911.8,-911.8 -503.6,0 -911.8,408.23 -911.8,911.8 0,503.57 408.2,911.79 911.8,911.79 503.6,0 911.8,-408.22 911.8,-911.79"
         transform="translate(0,-2.5e-4)"
         id="path723" />
    </clipPath>
    <clipPath
       clipPathUnits="userSpaceOnUse"
       id="clipPath725">
      <path
         d="m 17966.8,5084.48 c 0,-503.57 -408.2,-911.8 -911.8,-911.8 -503.6,0 -911.8,408.23 -911.8,911.8 0,503.57 408.2,911.79 911.8,911.79 503.6,0 911.8,-408.22 911.8,-911.79"
         transform="translate(0,-2.5e-4)"
         id="path725" />
    </clipPath>
    <clipPath
       clipPathUnits="userSpaceOnUse"
       id="clipPath727">
      <path
         d="m 17966.8,5084.48 c 0,-503.57 -408.2,-911.8 -911.8,-911.8 -503.6,0 -911.8,408.23 -911.8,911.8 0,503.57 408.2,911.79 911.8,911.79 503.6,0 911.8,-408.22 911.8,-911.79"
         transform="translate(0,-2.5e-4)"
         id="path727" />
    </clipPath>
    <clipPath
       clipPathUnits="userSpaceOnUse"
       id="clipPath729">
      <path
         d="m 17966.8,5084.48 c 0,-503.57 -408.2,-911.8 -911.8,-911.8 -503.6,0 -911.8,408.23 -911.8,911.8 0,503.57 408.2,911.79 911.8,911.79 503.6,0 911.8,-408.22 911.8,-911.79"
         transform="translate(0,-2.5e-4)"
         id="path729" />
    </clipPath>
    <clipPath
       clipPathUnits="userSpaceOnUse"
       id="clipPath731">
      <path
         d="m 17966.8,5084.48 c 0,-503.57 -408.2,-911.8 -911.8,-911.8 -503.6,0 -911.8,408.23 -911.8,911.8 0,503.57 408.2,911.79 911.8,911.79 503.6,0 911.8,-408.22 911.8,-911.79"
         transform="translate(0,-2.5e-4)"
         id="path731" />
    </clipPath>
    <clipPath
       clipPathUnits="userSpaceOnUse"
       id="clipPath733">
      <path
         d="m 17966.8,5084.48 c 0,-503.57 -408.2,-911.8 -911.8,-911.8 -503.6,0 -911.8,408.23 -911.8,911.8 0,503.57 408.2,911.79 911.8,911.79 503.6,0 911.8,-408.22 911.8,-911.79"
         transform="translate(0,-2.5e-4)"
         id="path733" />
    </clipPath>
    <clipPath
       clipPathUnits="userSpaceOnUse"
       id="clipPath735">
      <path
         d="m 17966.8,5084.48 c 0,-503.57 -408.2,-911.8 -911.8,-911.8 -503.6,0 -911.8,408.23 -911.8,911.8 0,503.57 408.2,911.79 911.8,911.79 503.6,0 911.8,-408.22 911.8,-911.79"
         transform="translate(0,-2.5e-4)"
         id="path735" />
    </clipPath>
    <clipPath
       clipPathUnits="userSpaceOnUse"
       id="clipPath737">
      <path
         d="m 17966.8,5084.48 c 0,-503.57 -408.2,-911.8 -911.8,-911.8 -503.6,0 -911.8,408.23 -911.8,911.8 0,503.57 408.2,911.79 911.8,911.79 503.6,0 911.8,-408.22 911.8,-911.79"
         transform="translate(0,-2.5e-4)"
         id="path737" />
    </clipPath>
    <clipPath
       clipPathUnits="userSpaceOnUse"
       id="clipPath739">
      <path
         d="m 17966.8,5084.48 c 0,-503.57 -408.2,-911.8 -911.8,-911.8 -503.6,0 -911.8,408.23 -911.8,911.8 0,503.57 408.2,911.79 911.8,911.79 503.6,0 911.8,-408.22 911.8,-911.79"
         transform="translate(0,-2.5e-4)"
         id="path739" />
    </clipPath>
    <clipPath
       clipPathUnits="userSpaceOnUse"
       id="clipPath741">
      <path
         d="m 17966.8,5084.48 c 0,-503.57 -408.2,-911.8 -911.8,-911.8 -503.6,0 -911.8,408.23 -911.8,911.8 0,503.57 408.2,911.79 911.8,911.79 503.6,0 911.8,-408.22 911.8,-911.79"
         transform="translate(0,-2.5e-4)"
         id="path741" />
    </clipPath>
    <clipPath
       clipPathUnits="userSpaceOnUse"
       id="clipPath743">
      <path
         d="m 17966.8,5084.48 c 0,-503.57 -408.2,-911.8 -911.8,-911.8 -503.6,0 -911.8,408.23 -911.8,911.8 0,503.57 408.2,911.79 911.8,911.79 503.6,0 911.8,-408.22 911.8,-911.79"
         transform="translate(0,-2.5e-4)"
         id="path743" />
    </clipPath>
    <clipPath
       clipPathUnits="userSpaceOnUse"
       id="clipPath745">
      <path
         d="m 17966.8,5084.48 c 0,-503.57 -408.2,-911.8 -911.8,-911.8 -503.6,0 -911.8,408.23 -911.8,911.8 0,503.57 408.2,911.79 911.8,911.79 503.6,0 911.8,-408.22 911.8,-911.79"
         transform="translate(0,-2.5e-4)"
         id="path745" />
    </clipPath>
    <clipPath
       clipPathUnits="userSpaceOnUse"
       id="clipPath747">
      <path
         d="m 17966.8,5084.48 c 0,-503.57 -408.2,-911.8 -911.8,-911.8 -503.6,0 -911.8,408.23 -911.8,911.8 0,503.57 408.2,911.79 911.8,911.79 503.6,0 911.8,-408.22 911.8,-911.79"
         transform="translate(0,-2.5e-4)"
         id="path747" />
    </clipPath>
    <clipPath
       clipPathUnits="userSpaceOnUse"
       id="clipPath749">
      <path
         d="m 17966.8,5084.48 c 0,-503.57 -408.2,-911.8 -911.8,-911.8 -503.6,0 -911.8,408.23 -911.8,911.8 0,503.57 408.2,911.79 911.8,911.79 503.6,0 911.8,-408.22 911.8,-911.79"
         transform="translate(0,-2.5e-4)"
         id="path749" />
    </clipPath>
    <clipPath
       clipPathUnits="userSpaceOnUse"
       id="clipPath751">
      <path
         d="m 17966.8,5084.48 c 0,-503.57 -408.2,-911.8 -911.8,-911.8 -503.6,0 -911.8,408.23 -911.8,911.8 0,503.57 408.2,911.79 911.8,911.79 503.6,0 911.8,-408.22 911.8,-911.79"
         transform="translate(0,-2.5e-4)"
         id="path751" />
    </clipPath>
    <clipPath
       clipPathUnits="userSpaceOnUse"
       id="clipPath753">
      <path
         d="m 17966.8,5084.48 c 0,-503.57 -408.2,-911.8 -911.8,-911.8 -503.6,0 -911.8,408.23 -911.8,911.8 0,503.57 408.2,911.79 911.8,911.79 503.6,0 911.8,-408.22 911.8,-911.79"
         transform="translate(0,-2.5e-4)"
         id="path753" />
    </clipPath>
    <clipPath
       clipPathUnits="userSpaceOnUse"
       id="clipPath755">
      <path
         d="m 17966.8,5084.48 c 0,-503.57 -408.2,-911.8 -911.8,-911.8 -503.6,0 -911.8,408.23 -911.8,911.8 0,503.57 408.2,911.79 911.8,911.79 503.6,0 911.8,-408.22 911.8,-911.79"
         transform="translate(0,-2.5e-4)"
         id="path755" />
    </clipPath>
    <clipPath
       clipPathUnits="userSpaceOnUse"
       id="clipPath757">
      <path
         d="m 17966.8,5084.48 c 0,-503.57 -408.2,-911.8 -911.8,-911.8 -503.6,0 -911.8,408.23 -911.8,911.8 0,503.57 408.2,911.79 911.8,911.79 503.6,0 911.8,-408.22 911.8,-911.79"
         transform="translate(0,-2.5e-4)"
         id="path757" />
    </clipPath>
    <clipPath
       clipPathUnits="userSpaceOnUse"
       id="clipPath759">
      <path
         d="m 17966.8,5084.48 c 0,-503.57 -408.2,-911.8 -911.8,-911.8 -503.6,0 -911.8,408.23 -911.8,911.8 0,503.57 408.2,911.79 911.8,911.79 503.6,0 911.8,-408.22 911.8,-911.79"
         transform="translate(0,-2.5e-4)"
         id="path759" />
    </clipPath>
    <clipPath
       clipPathUnits="userSpaceOnUse"
       id="clipPath761">
      <path
         d="m 17966.8,5084.48 c 0,-503.57 -408.2,-911.8 -911.8,-911.8 -503.6,0 -911.8,408.23 -911.8,911.8 0,503.57 408.2,911.79 911.8,911.79 503.6,0 911.8,-408.22 911.8,-911.79"
         transform="translate(0,-2.5e-4)"
         id="path761" />
    </clipPath>
    <clipPath
       clipPathUnits="userSpaceOnUse"
       id="clipPath763">
      <path
         d="m 17966.8,5084.48 c 0,-503.57 -408.2,-911.8 -911.8,-911.8 -503.6,0 -911.8,408.23 -911.8,911.8 0,503.57 408.2,911.79 911.8,911.79 503.6,0 911.8,-408.22 911.8,-911.79"
         transform="translate(0,-2.5e-4)"
         id="path763" />
    </clipPath>
    <clipPath
       clipPathUnits="userSpaceOnUse"
       id="clipPath765">
      <path
         d="m 17966.8,5084.48 c 0,-503.57 -408.2,-911.8 -911.8,-911.8 -503.6,0 -911.8,408.23 -911.8,911.8 0,503.57 408.2,911.79 911.8,911.79 503.6,0 911.8,-408.22 911.8,-911.79"
         transform="translate(0,-2.5e-4)"
         id="path765" />
    </clipPath>
    <clipPath
       clipPathUnits="userSpaceOnUse"
       id="clipPath767">
      <path
         d="m 17966.8,5084.48 c 0,-503.57 -408.2,-911.8 -911.8,-911.8 -503.6,0 -911.8,408.23 -911.8,911.8 0,503.57 408.2,911.79 911.8,911.79 503.6,0 911.8,-408.22 911.8,-911.79"
         transform="translate(0,-2.5e-4)"
         id="path767" />
    </clipPath>
    <clipPath
       clipPathUnits="userSpaceOnUse"
       id="clipPath769">
      <path
         d="m 17966.8,5084.48 c 0,-503.57 -408.2,-911.8 -911.8,-911.8 -503.6,0 -911.8,408.23 -911.8,911.8 0,503.57 408.2,911.79 911.8,911.79 503.6,0 911.8,-408.22 911.8,-911.79"
         transform="translate(0,-2.5e-4)"
         id="path769" />
    </clipPath>
    <clipPath
       clipPathUnits="userSpaceOnUse"
       id="clipPath771">
      <path
         d="m 17966.8,5084.48 c 0,-503.57 -408.2,-911.8 -911.8,-911.8 -503.6,0 -911.8,408.23 -911.8,911.8 0,503.57 408.2,911.79 911.8,911.79 503.6,0 911.8,-408.22 911.8,-911.79"
         transform="translate(0,-2.5e-4)"
         id="path771" />
    </clipPath>
  </defs>
  <g
     inkscape:label="Layer 1"
     inkscape:groupmode="layer"
     id="layer1"
     transform="translate(-79.839778,-101.33539)">
    <path
       id="path678"
       d="m 17966.8,4172.69 h -1823.6 v 1823.58 h 1823.6 V 4172.69"
       style="fill:#a59eff;fill-opacity:1;fill-rule:nonzero;stroke:none"
       transform="matrix(0.03527778,0,0,-0.03527778,-489.65648,312.87048)"
       clip-path="url(#clipPath679)" />
    <path
       id="path680"
       d="m 16800.9,5015.32 c -31.6,41.56 -55.2,89.2 -69.1,139.54 -13.1,47.42 -17.7,97.02 -15.7,146.18 1.1,28.11 4.4,56.35 13.1,83.11 28.3,87.46 112.4,148.24 201.5,170.78 89.2,22.54 183.2,12.49 273.7,-3.66 27.8,-4.95 56.2,-10.74 80.1,-25.82 23.7,-14.97 41,-37.9 57.8,-60.32 16,-21.38 32,-42.77 48,-64.15 12,-15.93 24,-32.05 31.8,-50.35 9.6,-22.2 12.5,-46.6 15.1,-70.61 8.1,-72.96 13.8,-151.56 -23,-215.08 -11.8,-20.29 -27.4,-38.03 -42.8,-55.63 -4.5,-5.07 -9.3,-10.38 -15.8,-12.32 -5.8,-1.73 -11.9,-0.51 -17.9,0.32 -28.3,3.92 -57,-1.32 -85.1,-6.77 -127.4,-24.72 -255.3,-54.03 -385.1,-51.65 -14.9,0.27 -32.6,2.61 -39.5,15.84 l -27.1,60.59"
       style="fill:#7c7a79;fill-opacity:1;fill-rule:nonzero;stroke:none"
       transform="matrix(0.03527778,0,0,-0.03527778,-489.65648,312.87048)"
       clip-path="url(#clipPath681)" />
    <path
       id="path682"
       d="m 16905.5,5541.18 c -20.5,29.74 -41.9,65.8 -29.6,99.76 4.9,13.45 14.7,24.6 25.6,33.84 53.1,44.95 130,47.49 198.9,37.41 24.9,-3.64 52.1,-10.22 66.5,-30.92 6.8,-9.83 9.7,-21.74 12.2,-33.43 3.6,-16.48 6.4,-33.11 8.5,-49.83 2.1,-16.63 3.4,-34.18 -3.4,-49.51 -6.7,-15.34 -24.1,-27.25 -40.1,-22.31 l -238.6,14.99"
       style="fill:#7c7a79;fill-opacity:1;fill-rule:nonzero;stroke:none"
       transform="matrix(0.03527778,0,0,-0.03527778,-489.65648,312.87048)"
       clip-path="url(#clipPath683)" />
    <path
       id="path684"
       d="m 17546.3,4418.06 c -83.8,56.09 -185,78.56 -283.8,98.41 -6.1,1.21 -12.3,2.53 -17.2,6.31 -8.3,6.48 10.6,224.79 0,320.24 l -141.1,-13.21 -141,13.21 c -10.6,-95.45 8.3,-313.76 0,-320.24 -4.9,-3.78 -11.2,-5.1 -17.2,-6.31 -98.8,-19.85 -200,-42.32 -283.8,-98.41 -83.8,-56.09 -147.2,-153.93 -133.8,-253.84 84.1,0.43 318.9,-1.09 556.7,-4.22 v -0.51 c 6.4,0.09 12.8,0.17 19.1,0.26 6.4,-0.09 12.8,-0.17 19.1,-0.26 v 0.51 c 237.9,3.13 472.7,4.65 556.8,4.22 13.4,99.91 -50,197.75 -133.8,253.84"
       style="fill:#fbd1b9;fill-opacity:1;fill-rule:nonzero;stroke:none"
       transform="matrix(0.03527778,0,0,-0.03527778,-489.65648,312.87048)"
       clip-path="url(#clipPath685)" />
    <g
       id="g687"
       transform="matrix(0.26458333,0,0,0.26458333,-489.65648,-45.643453)">
      <path
         d="m 16775.4,4846.09 c 55.6,35.84 58,53.03 60.7,35.84 13.1,-84.48 146.7,-288 268.1,-288 157.1,0 248.3,265.23 263,332.08 -181.6,-25.96 -365.6,-51.95 -547.7,-30.11 5,-4.72 10,-9.44 15,-14.16 l -59.1,-35.65"
         style="fill:#dba78a;fill-opacity:1;fill-rule:nonzero;stroke:none"
         transform="matrix(0.13333333,0,0,-0.13333333,0,1355.0133)"
         clip-path="url(#clipPath686)"
         id="path687" />
    </g>
    <path
       id="path688"
       d="m 16843,4896.08 0.4,-1.79 c 15.9,-59.9 41.1,-119.72 88.6,-166.34 47.6,-46.62 120.8,-78.15 193.3,-69.88 70.1,8 128.9,51.67 163.2,103.6 34.2,51.94 47.3,111.61 56.9,170.4 8,49.59 7,162.91 3.8,266.57 -3.6,117.09 -116.9,210.84 -256.6,212.39 v 0 c -143.6,1.59 -261.4,-94.7 -263.6,-215.1 -2.1,-115.27 -0.5,-244.19 14,-299.85"
       style="fill:#fbd1b9;fill-opacity:1;fill-rule:nonzero;stroke:none"
       transform="matrix(0.03527778,0,0,-0.03527778,-489.65648,312.87048)"
       clip-path="url(#clipPath689)" />
    <path
       id="path690"
       d="m 17339.3,4974.47 c 3.7,22.54 36.1,36.63 62.1,30.02 26,-6.61 43.1,-29.22 45,-51.92 2,-22.7 -9,-45.03 -24.5,-63.69 -25.9,-31.13 -71.5,-55.29 -115.3,-45.66 7,46.67 17,93.03 29.9,138.8 l 2.8,-7.55"
       style="fill:#fbd1b9;fill-opacity:1;fill-rule:nonzero;stroke:none"
       transform="matrix(0.03527778,0,0,-0.03527778,-489.65648,312.87048)"
       clip-path="url(#clipPath691)" />
    <path
       id="path692"
       d="m 16847,4974.47 c -3.7,22.54 -36.1,36.63 -62.1,30.02 -25.9,-6.61 -43.1,-29.22 -45,-51.92 -2,-22.7 9,-45.03 24.6,-63.69 25.9,-31.13 71.4,-55.29 115.2,-45.66 -7,46.67 -16.9,93.03 -29.9,138.8 l -2.8,-7.55"
       style="fill:#fbd1b9;fill-opacity:1;fill-rule:nonzero;stroke:none"
       transform="matrix(0.03527778,0,0,-0.03527778,-489.65648,312.87048)"
       clip-path="url(#clipPath693)" />
    <path
       id="path694"
       d="m 17198.8,5007.09 c 0,-10.18 9.4,-18.42 21,-18.42 11.6,0 21,8.24 21,18.42 0,10.17 -9.4,18.41 -21,18.41 -11.6,0 -21,-8.24 -21,-18.41"
       style="fill:#1a1a1a;fill-opacity:1;fill-rule:nonzero;stroke:none"
       transform="matrix(0.03527778,0,0,-0.03527778,-489.65648,312.87048)"
       clip-path="url(#clipPath695)" />
    <path
       id="path696"
       d="m 16979.8,5005.25 c 0,-10.17 9.4,-18.42 21,-18.42 11.6,0 21,8.25 21,18.42 0,10.17 -9.4,18.42 -21,18.42 -11.6,0 -21,-8.25 -21,-18.42"
       style="fill:#1a1a1a;fill-opacity:1;fill-rule:nonzero;stroke:none"
       transform="matrix(0.03527778,0,0,-0.03527778,-489.65648,312.87048)"
       clip-path="url(#clipPath697)" />
    <path
       id="path698"
       d="m 17348.8,4911.78 c 19.5,19.05 41.9,35.84 66.9,49.73 4,2.26 5.8,6.7 3.2,10.38 -2.4,3.38 -8.3,5 -12.4,2.72 -26.2,-14.59 -50,-32.08 -70.5,-52.1 -3.1,-3.11 -3.6,-7.67 0,-10.73 3.3,-2.73 9.6,-3.12 12.8,0"
       style="fill:#a46e4a;fill-opacity:1;fill-rule:nonzero;stroke:none"
       transform="matrix(0.03527778,0,0,-0.03527778,-489.65648,312.87048)"
       clip-path="url(#clipPath699)" />
    <path
       id="path700"
       d="m 16786.3,4959.55 c 0,0.01 2.6,-0.9 1.3,-0.42 l 2.5,-0.98 c 1.4,-0.56 2.8,-1.16 4.2,-1.79 3,-1.38 5.8,-2.91 8.6,-4.58 1.9,-1.15 4.3,-2.78 6.8,-4.76 2.6,-2.04 5.1,-4.22 7.4,-6.51 3.5,-3.45 7.4,-8.48 10.3,-13.47 1.7,-2.84 2.1,-3.64 3.4,-6.83 1.1,-2.84 2,-5.74 2.7,-8.67 1,-4.02 6.7,-6.34 11.2,-5.3 4.9,1.14 7.3,5.3 6.3,9.33 -6.5,26.66 -29.9,48.8 -59.9,58.61 -4.6,1.49 -9.9,-1.64 -11.1,-5.3 -1.4,-4.3 1.7,-7.84 6.3,-9.33"
       style="fill:#a46e4a;fill-opacity:1;fill-rule:nonzero;stroke:none"
       transform="matrix(0.03527778,0,0,-0.03527778,-489.65648,312.87048)"
       clip-path="url(#clipPath701)" />
    <path
       id="path702"
       d="m 16803.3,4946.68 c -8.5,-8.96 -12.9,-20.18 -11.6,-31.68 1.2,-11.31 6.7,-22.31 17.1,-29.9 3.7,-2.7 9.2,-3.03 12.8,0 3.3,2.75 3.7,8.02 0,10.73 -1,0.74 -2,1.51 -2.9,2.34 l -1.1,1 -0.8,0.8 -0.7,0.86 -1.1,1.42 c -0.7,0.86 -1.2,1.75 -1.8,2.65 l -0.8,1.52 c -0.5,0.79 0.3,-0.96 -0.2,0.38 -0.4,1.08 -0.9,2.13 -1.2,3.22 -0.4,0.98 -0.6,1.97 -0.9,2.97 l -0.3,1.67 c 0.2,-1.11 0.1,-0.32 0,0.34 -0.3,2.14 -0.3,4.3 -0.1,6.44 l 0.1,1.35 c 0.3,2.05 -0.3,-0.79 0.1,0.33 0.4,1.07 0.5,2.22 0.8,3.3 0.4,0.98 0.7,1.95 1.1,2.9 l 0.4,0.98 0.6,0.93 c 0.5,1.01 1.2,1.99 1.9,2.95 l 0.9,1.13 c 0.1,0.12 1.6,1.86 0.5,0.64 3,3.21 3.7,7.6 0,10.73 -3.2,2.65 -9.7,3.23 -12.8,0"
       style="fill:#a46e4a;fill-opacity:1;fill-rule:nonzero;stroke:none"
       transform="matrix(0.03527778,0,0,-0.03527778,-489.65648,312.87048)"
       clip-path="url(#clipPath703)" />
    <path
       id="path704"
       d="m 17546.3,4418.06 c -83.8,56.09 -185,78.56 -283.8,98.41 -2.8,0.57 -168.2,-104.4 -168.2,-104.4 0,0 -145.1,105.04 -148.3,104.4 -98.8,-19.85 -200,-42.32 -283.8,-98.41 -83.8,-56.09 -147.2,-153.93 -133.8,-253.84 84.1,0.43 318.9,-1.09 556.7,-4.22 v -0.51 c 6.4,0.09 12.8,0.17 19.1,0.26 6.4,-0.09 12.8,-0.17 19.1,-0.26 v 0.51 c 237.9,3.13 472.7,4.65 556.8,4.22 13.4,99.91 -50,197.75 -133.8,253.84"
       style="fill:#ef6a55;fill-opacity:1;fill-rule:nonzero;stroke:none"
       transform="matrix(0.03527778,0,0,-0.03527778,-489.65648,312.87048)"
       clip-path="url(#clipPath705)" />
    <path
       id="path706"
       d="m 17096.1,5122.25 c -9.5,-2.7 -4.2,-16.32 -2.7,-22.79 3.1,-14.41 6.4,-28.81 9.6,-43.21 9.6,-42.76 18.9,-85.57 27.2,-128.6 4.2,-22.09 8.3,-44.25 11.3,-66.55 3.2,2.47 6.5,4.94 9.7,7.41 -15.9,5.21 -30,14.32 -40.6,27.4 -6.2,7.69 -17.1,-3.24 -10.9,-10.86 12.3,-15.09 29.1,-25.37 47.4,-31.36 4.3,-1.39 10.4,2.5 9.8,7.41 -10.5,77.92 -29.1,154.8 -46.3,231.45 -1.2,5.61 -2.5,11.22 -3.7,16.84 -0.4,1.71 -0.7,3.43 -1,5.14 -0.7,3.02 0.1,-0.41 -0.4,-1.73 -1.8,-1.79 -3.6,-3.58 -5.4,-5.37 l 0.1,0.01 c 9.5,2.7 5.4,17.53 -4.1,14.81"
       style="fill:#a46e4a;fill-opacity:1;fill-rule:nonzero;stroke:none"
       transform="matrix(0.03527778,0,0,-0.03527778,-489.65648,312.87048)"
       clip-path="url(#clipPath707)" />
    <path
       id="path708"
       d="m 17110.6,4789.32 c 2.5,0.73 5.1,1.27 7.7,1.62 l -2.1,-0.28 c 4.6,0.58 9.2,0.59 13.7,0 l -2,0.27 1.2,-0.18 c 2.1,-0.33 4,-0.35 5.9,0.78 1.6,0.93 3.1,2.76 3.5,4.59 0.5,1.96 0.4,4.17 -0.7,5.92 -1,1.57 -2.7,3.23 -4.6,3.53 -9,1.38 -18,1.1 -26.7,-1.43 -3.8,-1.12 -6.6,-5.46 -5.4,-9.45 1.3,-3.92 5.4,-6.57 9.5,-5.37"
       style="fill:#a46e4a;fill-opacity:1;fill-rule:nonzero;stroke:none"
       transform="matrix(0.03527778,0,0,-0.03527778,-489.65648,312.87048)"
       clip-path="url(#clipPath709)" />
    <path
       id="path710"
       d="m 17365.8,4931.66 c 0.7,-1.09 1.5,-2.21 2.1,-3.38 l 0.9,-1.76 c 0.7,-1.32 -0.2,0.97 0.3,-0.86 0.4,-1.23 0.8,-2.43 1.1,-3.69 0,-0.23 0.4,-2.26 0.2,-1.17 -0.1,1.08 0.1,-0.96 0.2,-1.19 0.1,-1.38 0.1,-2.76 0,-4.13 l -0.2,-1.91 c 0.2,1.37 0.1,0.2 -0.1,-0.5 -0.2,-1.27 -0.5,-2.52 -0.9,-3.76 l -0.6,-1.86 c -0.1,-0.35 -0.9,-2.15 -0.2,-0.6 -1.1,-2.44 -2.4,-4.77 -3.9,-6.95 -0.1,-0.13 -1.5,-1.84 -0.4,-0.6 l -1.4,-1.56 c -0.9,-1.03 -1.9,-2.01 -2.9,-2.94 l -1.5,-1.38 c -1.3,-1.14 0.6,0.39 -0.7,-0.51 -1.2,-0.81 -2.3,-1.61 -3.6,-2.32 l -2.2,-1.2 -1.4,-0.68 -1.5,-0.56 -2.5,-0.81 c -4,-1.18 -6.5,-5.39 -5.4,-9.45 1.1,-3.95 5.5,-6.56 9.5,-5.37 13.7,4.1 25.7,13.88 31.4,27.18 5.6,12.89 5.3,28.04 -3.1,39.72 -2.4,3.37 -6.7,4.99 -10.5,2.76 -3.3,-1.95 -5.2,-7.13 -2.7,-10.52"
       style="fill:#a46e4a;fill-opacity:1;fill-rule:nonzero;stroke:none"
       transform="matrix(0.03527778,0,0,-0.03527778,-489.65648,312.87048)"
       clip-path="url(#clipPath711)" />
    <path
       id="path712"
       d="m 17001.3,5144.09 c 35.4,-7.63 70.6,0.03 106,3.26 37.1,3.38 74.1,-0.57 111,-4.66 9.8,-1.09 9.7,14.29 0,15.37 -36,4 -72.3,7.92 -108.6,4.87 -34.5,-2.9 -69.8,-11.48 -104.3,-4.02 -9.6,2.09 -13.8,-12.73 -4.1,-14.82"
       style="fill:#dba78a;fill-opacity:1;fill-rule:nonzero;stroke:none"
       transform="matrix(0.03527778,0,0,-0.03527778,-489.65648,312.87048)"
       clip-path="url(#clipPath713)" />
    <path
       id="path714"
       d="m 16974.9,5187.62 c 78,0.07 156.1,0.12 234.1,0.19 9.9,0 9.9,15.37 0,15.36 -78,-0.06 -156.1,-0.12 -234.1,-0.18 -9.9,-0.01 -9.9,-15.37 0,-15.37"
       style="fill:#dba78a;fill-opacity:1;fill-rule:nonzero;stroke:none"
       transform="matrix(0.03527778,0,0,-0.03527778,-489.65648,312.87048)"
       clip-path="url(#clipPath715)" />
    <path
       id="path716"
       d="m 17064.1,4893.01 c -25.2,-47.62 -41,-99.46 -45.7,-153.16 -0.9,-9.85 14.5,-9.79 15.3,0 4.5,50.88 19.8,100.3 43.6,145.4 4.7,8.74 -8.6,16.51 -13.2,7.76"
       style="fill:#dba78a;fill-opacity:1;fill-rule:nonzero;stroke:none"
       transform="matrix(0.03527778,0,0,-0.03527778,-489.65648,312.87048)"
       clip-path="url(#clipPath717)" />
    <path
       id="path718"
       d="m 17171.2,4871.06 c 12.2,-30.48 22.7,-61.63 31.3,-93.34 2.6,-9.53 17.5,-5.49 14.9,4.09 -8.7,31.7 -19.1,62.86 -31.4,93.33 -1.6,3.85 -5.1,6.56 -9.5,5.37 -3.6,-1 -6.9,-5.58 -5.3,-9.45"
       style="fill:#dba78a;fill-opacity:1;fill-rule:nonzero;stroke:none"
       transform="matrix(0.03527778,0,0,-0.03527778,-489.65648,312.87048)"
       clip-path="url(#clipPath719)" />
    <path
       id="path720"
       d="m 16831.6,5002.07 c 37.7,100.96 71.2,203.48 100.5,307.21 8,-14.99 19,-29.13 34.3,-36.51 15.3,-7.38 35.5,-6.4 47.4,5.73 11.9,12.13 10.7,35.75 -4.3,43.73 22,-31.54 62.9,-48.72 100.8,-42.33 -0.9,16.31 -6,32.37 -14.8,46.17 16.4,-25.35 44.9,-42.43 75,-44.86 4.5,-0.37 9.3,-0.38 13.4,1.56 8.1,3.83 11.2,14.3 9.3,23.05 -1.8,8.74 -7.4,16.15 -12.9,23.25 5.4,-33.18 37,-60.09 70.6,-60.1 9.9,0 22.7,6.12 20.4,15.81 4.2,-12.98 13.2,-24.34 24.9,-31.29 4.7,-2.78 10.1,-5.17 12.6,-9.98 2.5,-4.72 22.1,-223.21 34.9,-259.71 19.4,6.11 22.4,31.95 21.7,52.31 -1.2,34.46 -2.3,68.91 -3.5,103.37 -1.4,42.45 -2.8,85.29 -13.4,126.44 -10.5,41.16 -30.9,81.05 -64.1,107.47 -33.3,26.41 -76.1,37.15 -117.7,45.44 -79.4,15.81 -166.1,24.28 -237.5,-13.83 -65.3,-34.9 -106.8,-104.58 -123,-176.91 -16.1,-72.33 -9.8,-147.69 0.5,-221.07 7.3,-2.19 14.5,-4.38 21.8,-6.57 l 3.1,1.62"
       style="fill:#7c7a79;fill-opacity:1;fill-rule:nonzero;stroke:none"
       transform="matrix(0.03527778,0,0,-0.03527778,-489.65648,312.87048)"
       clip-path="url(#clipPath721)" />
    <path
       id="path722"
       d="m 16818.2,5005.27 c 21.1,7.61 42.9,12.97 65.2,16.02 3.5,0.49 7.4,4.15 9.1,7.06 2,3.3 2.8,8.15 1.6,11.85 -1.2,3.71 -3.5,7.3 -7.1,9.18 -3.9,2.07 -7.5,2.14 -11.8,1.55 -22.2,-3.05 -44,-8.41 -65.1,-16.02 -7.6,-2.72 -13.5,-10.58 -10.8,-18.91 2.4,-7.42 10.8,-13.65 18.9,-10.73"
       style="fill:#4f657f;fill-opacity:1;fill-rule:nonzero;stroke:none"
       transform="matrix(0.03527778,0,0,-0.03527778,-489.65648,312.87048)"
       clip-path="url(#clipPath723)" />
    <path
       id="path724"
       d="m 16949.2,4085.89 c -93.9,-22.42 -190.8,-32.23 -287.2,-29.1 -45.3,1.47 -91.5,5.68 -135.2,-6.11 -16.3,89.12 -31.8,185.24 7.3,267 27,56.5 77.5,99 133.2,127.67 55.7,28.66 116.8,44.91 177.3,60.94 17.5,4.65 53.7,6.38 71.2,11.03 0,0 16.6,-289.52 33.4,-431.43"
       style="fill:#4f657f;fill-opacity:1;fill-rule:nonzero;stroke:none"
       transform="matrix(0.03527778,0,0,-0.03527778,-489.65648,312.87048)"
       clip-path="url(#clipPath725)" />
    <path
       id="path726"
       d="m 17255.5,4085.89 c 93.8,-22.42 190.7,-32.23 287.2,-29.1 45.2,1.47 91.4,5.68 135.1,-6.11 16.3,89.12 31.8,185.24 -7.2,267 -27,56.5 -77.6,99 -133.3,127.67 -55.6,28.66 -116.7,44.91 -177.2,60.94 -17.6,4.65 -53.7,6.38 -71.3,11.03 0,0 -16.6,-289.52 -33.3,-431.43"
       style="fill:#4f657f;fill-opacity:1;fill-rule:nonzero;stroke:none"
       transform="matrix(0.03527778,0,0,-0.03527778,-489.65648,312.87048)"
       clip-path="url(#clipPath727)" />
    <path
       id="path728"
       d="m 16947.9,4516.47 c -6.8,-29.38 -8.2,-68.71 4.8,-95.87 13.1,-27.17 39.2,-48.76 69.2,-52.28 29.9,-3.51 71.4,13.54 81.8,41.83 15.4,-19.73 27.8,-35.1 52.1,-41.07 24.3,-5.96 51.3,-1.95 71.6,12.7 19.7,14.21 31.9,37.27 36.5,61.13 4.7,23.86 2.4,48.57 -2.3,72.42 l -160.3,-88.56 -153.4,89.7"
       style="fill:#ffffff;fill-opacity:1;fill-rule:nonzero;stroke:none"
       transform="matrix(0.03527778,0,0,-0.03527778,-489.65648,312.87048)"
       clip-path="url(#clipPath729)" />
    <path
       id="path730"
       d="m 17101.9,4416.42 c -6.7,-3.04 -12.3,-9.34 -17.3,-14.56 -7.2,-7.55 -13.9,-15.49 -20.8,-23.32 -5.4,-6.14 -10.7,-12.68 -17,-17.99 -7.4,-6.35 -18.5,-13.72 -22.4,-25.29 -3.9,-11.49 0.3,-23.14 9,-31.12 8.1,-7.49 19,-11.65 26.7,-19.6 2,-2.03 2.5,-2.05 -0.1,-3.79 -3.1,-2.05 -6.4,-3.78 -9.7,-5.61 -7.3,-4.2 -14.7,-8.4 -22.1,-12.6 -10.6,-6.04 -22.4,-12.49 -28.6,-23.54 -7.2,-12.97 -3.1,-28.44 7.8,-38.02 12.4,-11.02 29.2,-12.19 45.1,-12.66 -1.3,4.77 -2.6,9.55 -3.9,14.32 -12.3,-5.91 -22.2,-20.12 -17,-34 4.5,-11.92 19.1,-18.4 30.4,-11.82 8.6,4.97 0.8,18.26 -7.7,13.27 -3.8,-2.21 -8.2,1.87 -8.7,5.66 -0.8,6.41 5.8,11.23 10.8,13.62 7.2,3.47 3.2,14.11 -3.9,14.32 -12.4,0.36 -27.1,0.4 -36.3,10.08 -8.7,9.27 -4.2,19.33 4.8,26.24 10.3,7.94 22.7,13.64 33.9,20.06 9.3,5.3 25.7,12.04 22.1,25.72 -2.5,9.96 -14,16.32 -22,21.52 -6.6,4.27 -16.6,9.62 -16.8,18.62 -0.3,10.91 11.7,17.21 18.9,23.23 5.5,4.63 10.3,10.32 15.1,15.72 6.9,7.84 13.7,15.83 20.8,23.5 4.9,5.2 10.1,11.8 16.6,14.77 9,4.08 1.2,17.33 -7.7,13.27"
       style="fill:#ffffff;fill-opacity:1;fill-rule:nonzero;stroke:none"
       transform="matrix(0.03527778,0,0,-0.03527778,-489.65648,312.87048)"
       clip-path="url(#clipPath731)" />
    <path
       id="path732"
       d="m 17108.3,4412.61 c -7.3,-2.06 -10.5,-9.79 -12.8,-16.32 -3,-8.93 -4.6,-18.41 -6.1,-27.7 -3.2,-19.86 -9.2,-41.62 2.4,-59.85 6.6,-10.57 19.2,-17.53 24.4,-28.93 6,-13.11 -8.7,-22.52 -19.1,-26.53 -13.5,-5.24 -29.9,-8.36 -39.1,-20.8 -8.9,-11.99 -2.7,-25.75 8.4,-33.49 9.8,-6.81 25.1,-7.52 33.1,-16.72 12.5,-14.5 -9,-31.63 -19.1,-39.49 -7.8,-6.1 3.2,-16.9 10.9,-10.87 11.5,9.07 23.3,19.38 26.2,34.56 2.4,13.06 -2.9,25.09 -14,32.2 -9.2,5.87 -21,7.11 -29.7,13.82 -15.5,11.97 12.8,20.91 21.3,23.81 12.7,4.34 25.1,9.8 32.9,21.33 7.2,10.66 6,23.96 -1.2,34.27 -7.4,10.6 -19.7,17.83 -24.7,30.06 -3.5,8.72 -1.6,17 -0.3,25.86 1.4,10.26 2.8,20.54 5,30.69 1,4.96 2.1,10 3.9,14.75 0.6,1.57 1.3,2.79 2,4.31 0.5,1.07 0.7,0.53 -0.3,0.22 9.5,2.69 5.4,17.52 -4.1,14.82"
       style="fill:#ffffff;fill-opacity:1;fill-rule:nonzero;stroke:none"
       transform="matrix(0.03527778,0,0,-0.03527778,-489.65648,312.87048)"
       clip-path="url(#clipPath733)" />
    <path
       id="path734"
       d="m 17103.7,4409.08 c -2.9,-3.95 0.1,-9.58 1.7,-13.36 2.6,-5.92 5.4,-11.73 8.2,-17.54 3,-6.43 6.1,-12.85 9.1,-19.31 1,-2.1 2.5,-5.38 3.1,-6.79 l 0.8,-2.1 c 1.6,-3 -2.8,-1.86 1.2,3.68 -1.6,-2.15 -1.3,-5.57 0,-7.76 5.1,-8.61 13.1,-13.71 20.9,-19.62 7.2,-5.47 14.1,-12.91 8.5,-21.89 -4.2,-6.64 -10.4,-11.72 -13.7,-18.94 -4,-8.77 -2.6,-18.18 3.1,-25.84 5.9,-7.81 15.1,-12.09 21,-19.79 7.1,-9.28 -1.9,-14.44 -9.3,-19.11 -8.1,-5.14 -16.9,-12.89 -17.1,-23.33 -0.1,-8.5 5.4,-14.89 12.7,-18.46 3.6,-1.76 7.5,-2.87 11.1,-4.71 4.1,-2.14 4.9,-4.2 2.5,-8.53 -5.7,-10.45 -17.3,-19.61 -26.7,-26.65 -7.8,-5.87 -0.2,-19.21 7.8,-13.27 9.5,7.14 18.4,15 26.2,24.08 6.7,7.85 13.2,18.63 7.4,28.94 -4.1,7.37 -11.9,9.65 -19.1,12.78 -2.2,0.93 -6,2.23 -6.5,4.93 -0.9,4.84 7,9.42 10.2,11.43 8.5,5.28 17.3,11.44 18.8,22.06 1.5,10.52 -5,19.65 -12.6,26.21 -5.9,5.04 -19.2,12.22 -16.1,21.73 2.6,7.91 10.9,13.36 14.7,20.69 5.5,10.36 3.5,21.44 -3.6,30.41 -7.7,9.56 -20.6,14.04 -26.9,24.64 0,-2.58 0,-5.17 0,-7.76 2.8,3.96 -0.2,9.58 -1.8,13.36 -2.5,5.93 -5.3,11.74 -8.1,17.55 -3.1,6.43 -6.2,12.84 -9.2,19.31 -1,2.1 -2.5,5.38 -3,6.79 l -0.9,2.1 c -1.6,3 2.9,1.86 -1.2,-3.68 5.9,8.02 -7.5,15.7 -13.2,7.75"
       style="fill:#ffffff;fill-opacity:1;fill-rule:nonzero;stroke:none"
       transform="matrix(0.03527778,0,0,-0.03527778,-489.65648,312.87048)"
       clip-path="url(#clipPath735)" />
    <path
       id="path736"
       d="m 16868.4,4499.15 c 7,-65.25 13.9,-130.52 17.7,-196.05 3.8,-64.99 5.7,-130.1 11.1,-194.98 3.1,-37.07 7.5,-74.06 13.8,-110.73 1.4,-8.19 11.4,-12.78 18.9,-10.73 8.6,2.38 12.1,10.69 10.7,18.9 -21.6,126.37 -18.6,255.52 -30.1,382.93 -3.4,36.93 -7.4,73.8 -11.4,110.66 -0.9,8.25 -6.4,15.37 -15.3,15.37 -7.7,0 -16.3,-7.06 -15.4,-15.37"
       style="fill:#2e3d4c;fill-opacity:1;fill-rule:nonzero;stroke:none"
       transform="matrix(0.03527778,0,0,-0.03527778,-489.65648,312.87048)"
       clip-path="url(#clipPath737)" />
    <path
       id="path738"
       d="m 17306.8,4490.93 c -13.3,-124.13 -23.6,-248.56 -31,-373.18 -2.1,-35.6 -3.9,-71.22 -5.6,-106.85 -0.3,-8.3 7.4,-15.37 15.4,-15.37 8.7,0 15,7.05 15.4,15.37 5.7,124.7 14.3,249.27 25.8,373.56 3.4,35.52 6.9,71 10.7,106.47 0.9,8.26 -7.7,15.37 -15.4,15.37 -9,0 -14.5,-7.08 -15.3,-15.37"
       style="fill:#2e3d4c;fill-opacity:1;fill-rule:nonzero;stroke:none"
       transform="matrix(0.03527778,0,0,-0.03527778,-489.65648,312.87048)"
       clip-path="url(#clipPath739)" />
    <path
       id="path740"
       d="m 17469.4,4439.8 c 15,17.67 30,35.35 45,53.03 2.7,3.16 3.1,7.76 0,10.86 -2.7,2.76 -8.1,3.18 -10.8,0 -15,-17.67 -30,-35.35 -45.1,-53.03 -2.6,-3.16 -3.1,-7.76 0,-10.86 2.8,-2.76 8.2,-3.18 10.9,0"
       style="fill:#4f657f;fill-opacity:1;fill-rule:nonzero;stroke:none"
       transform="matrix(0.03527778,0,0,-0.03527778,-489.65648,312.87048)"
       clip-path="url(#clipPath741)" />
    <path
       id="path742"
       d="m 17496.1,4429.41 c 17,13.73 34.1,27.45 51.2,41.18 3.2,2.6 2.7,8.15 0,10.86 -3.2,3.2 -7.7,2.61 -10.9,0 -17.1,-13.72 -34.1,-27.44 -51.2,-41.17 -3.2,-2.6 -2.7,-8.15 0,-10.87 3.2,-3.19 7.6,-2.61 10.9,0"
       style="fill:#4f657f;fill-opacity:1;fill-rule:nonzero;stroke:none"
       transform="matrix(0.03527778,0,0,-0.03527778,-489.65648,312.87048)"
       clip-path="url(#clipPath743)" />
    <path
       id="path744"
       d="m 16743.8,4516.81 c 16.9,-22.54 28.9,-48.14 35.2,-75.64 2.2,-9.64 17,-5.56 14.8,4.08 -6.5,28.64 -19.1,55.84 -36.8,79.32 -2.4,3.31 -6.6,5.02 -10.5,2.76 -3.2,-1.91 -5.2,-7.18 -2.7,-10.52"
       style="fill:#4f657f;fill-opacity:1;fill-rule:nonzero;stroke:none"
       transform="matrix(0.03527778,0,0,-0.03527778,-489.65648,312.87048)"
       clip-path="url(#clipPath745)" />
    <path
       id="path746"
       d="m 16705.9,4483.36 c 13.9,-16.11 28.6,-31.4 44.2,-45.78 3,-2.73 8,-3.14 10.9,0 2.7,2.96 3.1,7.96 0,10.87 -15.6,14.38 -30.4,29.67 -44.2,45.78 -2.6,3.06 -8.2,2.9 -10.9,0 -2.9,-3.26 -2.8,-7.6 0,-10.87"
       style="fill:#4f657f;fill-opacity:1;fill-rule:nonzero;stroke:none"
       transform="matrix(0.03527778,0,0,-0.03527778,-489.65648,312.87048)"
       clip-path="url(#clipPath747)" />
    <path
       id="path748"
       d="m 17074.2,4376.65 c -7,0.35 -13.9,2.78 -19.6,6.9 -1.4,1.03 -2.8,2.29 -3.4,3.95 -0.3,1.18 0,2.46 0.6,3.54 5.3,9.12 16.4,-0.8 23.6,3.93 -4.6,4.68 -8.7,9.82 -12.3,15.3 -1.8,2.79 -3,7.52 0.2,8.63 1.5,0.55 3.2,-0.33 4.6,-1.18 5.3,-3.19 10.7,-6.38 16,-9.57 -4.6,4.54 -9.4,9.57 -9.1,16.43 0.2,4.68 3.9,8.88 8.5,8.47 7.3,-0.63 8.6,-11.15 14.6,-15.33 -0.6,8.07 1.1,16.3 5,23.39 0.8,1.44 1.9,2.96 3.5,3.26 2.2,0.41 4,-1.68 5.1,-3.67 3.6,-6.78 4.1,-15.17 1.4,-22.37 2.2,6.74 6,12.96 10.9,18.06 1.8,1.82 4,3.62 6.5,3.49 5.6,-0.26 6.4,-8.74 3.4,-13.52 -2.9,-4.79 -7.9,-8.92 -7.9,-14.55 2.5,3.37 5.1,6.83 8.7,8.9 3.7,2.06 8.7,2.35 11.8,-0.48 3.9,-3.55 2.9,-10.32 -0.6,-14.24 -3.5,-3.91 -8.8,-5.69 -13.8,-7.32 9.2,0.74 18.7,-3.3 24.5,-10.46 -5.3,-4.65 -13,-6.39 -19.8,-4.49 9.3,-0.19 18.2,-6.27 21.8,-14.87 -7.5,-3.77 -16.6,-3.89 -24.1,-0.32 10.1,-4.78 17,-15.81 16.9,-27.06 -7.4,-0.06 -14.5,4.53 -17.6,11.23 5.1,-6.7 8.2,-14.97 8.6,-23.39 0.2,-2.89 -0.7,-6.65 -3.5,-6.96 -1.3,-0.14 -2.6,0.57 -3.7,1.33 -4.9,3.44 -8.9,8.32 -11.2,13.89 2.3,-5.68 3.8,-11.72 4.4,-17.84 0.3,-3.63 -1,-8.65 -4.6,-8.39 -1.4,0.09 -2.6,1.02 -3.5,1.98 -4.3,4.08 -7.1,9.55 -8.1,15.35 -1.1,-4.38 0.5,-8.93 0.8,-13.44 0.3,-4.51 -1.7,-10.03 -6.2,-10.57 -4.1,-0.51 -7.4,3.63 -8.3,7.68 -0.9,4.04 -0.3,8.32 -1.3,12.33 1.2,-7.77 -1.6,-16.03 -7.2,-21.58 -1.5,-1.51 -4.1,-0.92 -4.8,1.08 -3.2,8.13 -2.6,17.69 1.8,25.26 -3.2,-3.82 -7.7,-6.59 -12.5,-7.82 -1.7,-0.43 -3.6,-0.66 -5.1,0.12 -4.1,2.06 -2.5,8.34 0.2,12.06 3.5,4.86 8,9.03 13,12.21 -6.9,0.19 -15.9,-3.66 -20,1.5 -2.6,3.36 -1.4,8.24 1.9,10.94 4.1,3.33 9.5,3.4 14.6,3.39 -5.5,-1.29 -11,-1.95 -16.6,-1.96 -3.1,0 -6.8,0.61 -8.1,3.47 -1,2.41 0.4,5.18 2.1,7.14 4.9,5.55 13.3,7.74 20.3,5.29 l -2.4,0.88"
       style="fill:#2e3d4c;fill-opacity:1;fill-rule:nonzero;stroke:none"
       transform="matrix(0.03527778,0,0,-0.03527778,-489.65648,312.87048)"
       clip-path="url(#clipPath749)" />
    <path
       id="path750"
       d="m 17104.5,4429.37 c 7,0.96 14.2,-1.21 19.1,-6.3 3.8,-4.01 6.9,-8.84 9.1,-13.97 3.8,-9.03 5.1,-18.98 5.2,-28.79 0.1,-17.23 -3.5,-34.88 -16.1,-48.15 -3.9,-4.08 -8.7,-7.19 -13.9,-9.3 -2.2,-0.88 -4.5,-1.56 -6.9,-1.33 -3.9,0.4 -7.2,3.35 -9.8,6.36 -12.3,13.93 -18.9,32.77 -17.9,51.32 0.9,15.62 7.1,30.87 17.2,42.77 3.5,4.14 8.6,6.66 14,7.39"
       style="fill:#ffb753;fill-opacity:1;fill-rule:nonzero;stroke:none"
       transform="matrix(0.03527778,0,0,-0.03527778,-489.65648,312.87048)"
       clip-path="url(#clipPath751)" />
    <path
       id="path752"
       d="m 17185.1,4384.71 v 1.17 c 0.1,1.05 -0.2,2.04 -0.6,2.96 -0.3,0.95 -0.9,1.78 -1.6,2.47 -0.7,0.75 -1.5,1.28 -2.5,1.59 -0.9,0.48 -1.9,0.7 -3,0.66 l -2,-0.27 c -1.3,-0.37 -2.4,-1.03 -3.4,-1.98 l -1.2,-1.55 c -0.7,-1.2 -1,-2.5 -1,-3.88 v -1.17 c -0.1,-1.06 0.1,-2.05 0.6,-2.96 0.3,-0.95 0.9,-1.78 1.6,-2.47 0.7,-0.75 1.5,-1.28 2.5,-1.59 0.9,-0.48 1.9,-0.7 2.9,-0.66 l 2.1,0.27 c 1.3,0.37 2.4,1.02 3.4,1.98 l 1.2,1.55 c 0.7,1.2 1,2.49 1,3.88"
       style="fill:#4f657f;fill-opacity:1;fill-rule:nonzero;stroke:none"
       transform="matrix(0.03527778,0,0,-0.03527778,-489.65648,312.87048)"
       clip-path="url(#clipPath753)" />
    <path
       id="path754"
       d="m 17225.3,4402.73 h 1.2 c 1.1,-0.04 2.1,0.18 3,0.66 0.9,0.31 1.8,0.84 2.5,1.59 0.7,0.7 1.2,1.52 1.5,2.47 0.5,0.92 0.7,1.91 0.7,2.96 l -0.3,2.05 c -0.3,1.3 -1,2.43 -1.9,3.39 l -1.6,1.2 c -1.2,0.69 -2.5,1.04 -3.9,1.05 h -1.2 c -1,0.04 -2,-0.18 -2.9,-0.66 -1,-0.31 -1.8,-0.84 -2.5,-1.59 -0.7,-0.7 -1.3,-1.52 -1.6,-2.48 -0.5,-0.91 -0.7,-1.9 -0.6,-2.96 l 0.2,-2.04 c 0.4,-1.3 1.1,-2.43 2,-3.39 l 1.6,-1.2 c 1.2,-0.7 2.5,-1.05 3.8,-1.05"
       style="fill:#4f657f;fill-opacity:1;fill-rule:nonzero;stroke:none"
       transform="matrix(0.03527778,0,0,-0.03527778,-489.65648,312.87048)"
       clip-path="url(#clipPath755)" />
    <path
       id="path756"
       d="m 16951.9,4489.19 h 1.2 c 1.1,-0.04 2.1,0.18 3,0.66 0.9,0.31 1.8,0.84 2.4,1.59 0.8,0.7 1.3,1.52 1.6,2.47 0.5,0.92 0.7,1.91 0.7,2.96 l -0.3,2.05 c -0.3,1.3 -1,2.43 -2,3.39 l -1.5,1.2 c -1.2,0.69 -2.5,1.04 -3.9,1.05 h -1.2 c -1,0.04 -2,-0.18 -2.9,-0.66 -1,-0.31 -1.8,-0.84 -2.5,-1.59 -0.7,-0.7 -1.3,-1.52 -1.6,-2.48 -0.5,-0.91 -0.7,-1.9 -0.6,-2.96 l 0.2,-2.04 c 0.4,-1.3 1.1,-2.43 2,-3.39 l 1.6,-1.2 c 1.2,-0.7 2.5,-1.05 3.8,-1.05"
       style="fill:#4f657f;fill-opacity:1;fill-rule:nonzero;stroke:none"
       transform="matrix(0.03527778,0,0,-0.03527778,-489.65648,312.87048)"
       clip-path="url(#clipPath757)" />
    <path
       id="path758"
       d="m 16902,5532.48 c 81.6,19.78 167.2,21.85 249.6,5.67 8.1,-1.6 16.6,2.31 18.9,10.73 2.1,7.55 -2.5,17.3 -10.7,18.9 -88,17.28 -178.8,15.47 -266,-5.66 -19.2,-4.66 -11.1,-34.31 8.2,-29.64"
       style="fill:#4f657f;fill-opacity:1;fill-rule:nonzero;stroke:none"
       transform="matrix(0.03527778,0,0,-0.03527778,-489.65648,312.87048)"
       clip-path="url(#clipPath759)" />
    <path
       id="path760"
       d="m 16906.2,5572.43 c 83.9,16.88 171.1,16.54 254.9,-0.95 8.1,-1.7 16.6,2.38 18.9,10.73 2.1,7.63 -2.6,17.2 -10.7,18.91 -89.5,18.66 -181.7,18.97 -271.3,0.95 -8.1,-1.64 -12.8,-11.31 -10.7,-18.91 2.3,-8.47 10.7,-12.37 18.9,-10.73"
       style="fill:#4f657f;fill-opacity:1;fill-rule:nonzero;stroke:none"
       transform="matrix(0.03527778,0,0,-0.03527778,-489.65648,312.87048)"
       clip-path="url(#clipPath761)" />
    <path
       id="path762"
       d="m 16816.4,5063.88 c 31.4,-6.34 50.2,-36.57 54.8,-66.54 6,-39.34 -12.6,-78.67 -29,-113.24 -8.5,-17.98 -18.8,-37.02 -15.7,-57.59 2.1,-13.46 9.9,-24.8 19.4,-34.21 17.7,-17.54 48.9,-32.57 50.4,-60.64 1.2,-22.46 -12.6,-42.53 -18.3,-63.54 -5.2,-18.93 -5.2,-38.94 7.6,-54.8 6.2,-7.71 17,3.23 10.9,10.87 -10.9,13.51 -6.3,33.38 -1.1,48.22 6.6,18.99 16.9,37.42 16.3,58.13 -0.9,31.83 -28.1,48.56 -49.5,67.52 -9.3,8.31 -18.6,18.05 -20.6,30.91 -3.1,20.25 11.2,41.31 19.3,58.9 16.4,35.54 31.6,74.6 24.9,114.43 -5.8,34.62 -29.3,69.11 -65.4,76.4 -9.6,1.95 -13.7,-12.86 -4,-14.82"
       style="fill:#7c7a79;fill-opacity:1;fill-rule:nonzero;stroke:none"
       transform="matrix(0.03527778,0,0,-0.03527778,-489.65648,312.87048)"
       clip-path="url(#clipPath763)" />
    <path
       id="path764"
       d="m 16929.3,4931.99 c 7.3,-1.75 15.8,0.45 23.1,1.52 11.8,1.75 23.6,3.83 35.4,5.96 31.1,5.6 62.1,11.54 92.9,18.78 18.8,4.45 30.9,23.51 22.9,42.2 -2.8,6.6 -7.7,12.41 -11.8,18.32 -4.5,6.55 -8.9,13.13 -13.4,19.7 -14.9,22.2 -29,46.23 -46.8,66.4 -5.3,6.06 -12.6,10.04 -19.8,13.33 -11.9,5.37 -24.2,9.71 -36.5,13.67 -29.9,9.57 -60.4,17.28 -90.9,24.62 -7.1,1.7 -14.1,3.37 -21.2,5.01 -7.4,1.71 -15.5,4.51 -23,4.12 -20,-1.02 -34.3,-21.67 -27.4,-40.63 4.2,-11.85 12.3,-23.11 18.5,-34.07 6.7,-11.94 13.4,-23.88 20.1,-35.8 13.7,-24.17 27.4,-48.31 41.4,-72.3 8.2,-14.05 16,-28.77 25.6,-41.93 1.8,-2.49 4.2,-6.01 7.2,-7.35 7.6,-3.41 16.5,-2.18 21,5.51 3.9,6.58 2.1,17.6 -5.5,21.03 0,0 4.1,-3.46 2.2,-1.59 -1.7,1.7 2.9,-4.11 0.9,-1.06 -1.3,2.04 -2.7,4.05 -4,6.11 -4.3,6.78 -8.4,13.68 -12.5,20.59 -12,20.2 -23.6,40.58 -35.2,60.98 -12.6,22.14 -25.2,44.34 -37.7,66.56 -2.5,4.53 -5,9.06 -7.6,13.59 -1.2,2.27 -2.5,4.55 -3.8,6.82 -0.6,1.08 -1.2,2.15 -1.8,3.23 0.4,-1.12 0.3,-0.82 -0.2,0.92 l 0.1,-2.14 c 0.5,1.36 1,1.34 0,0.47 2.6,2.27 -0.2,0.19 -0.6,-0.11 2.5,1.65 -1.3,0.54 1.8,0.76 -1.5,-0.11 -2.5,0.39 -0.2,-0.46 5.9,-2.24 13,-2.98 19.1,-4.43 28,-6.55 55.8,-13.46 83.4,-21.4 12.6,-3.62 25.1,-7.45 37.4,-11.86 2.7,-0.94 5.3,-1.91 7.9,-2.91 1,-0.42 6.7,-2.83 3.3,-1.32 3.9,-1.73 7.9,-3.52 11.6,-5.73 1.2,-0.75 2.4,-1.66 3.6,-2.41 -4.2,2.54 -1,0.73 0.2,-0.52 0.8,-0.92 1.6,-1.91 2.4,-2.9 l 1.8,-2.2 c -2.8,3.53 0.4,-0.6 0.9,-1.28 7.4,-9.89 14.3,-20.09 21.2,-30.27 8,-11.76 15.9,-23.57 23.9,-35.33 3.9,-5.81 7.9,-11.62 11.9,-17.39 1.5,-2.19 3,-4.49 4.5,-6.63 -1.6,2.27 0.8,-2.8 -0.1,0.55 1,-3.87 0.3,3.27 -0.2,-0.51 l 0.6,0.8 c -1.3,-1.24 -1.4,-1.37 -0.3,-0.39 2.4,-0.04 -1.6,-0.38 -2.3,-0.54 -3.9,-0.96 -7.8,-1.79 -11.8,-2.66 -7.7,-1.71 -15.5,-3.36 -23.3,-4.97 -16.4,-3.39 -32.8,-6.6 -49.2,-9.64 -13,-2.41 -26.1,-4.74 -39.1,-6.8 -2.6,-0.4 -5.2,-0.78 -7.8,-1.16 -0.4,-0.07 -3.6,-0.52 -0.7,-0.12 2.9,0.39 -0.7,-0.09 -1.3,-0.15 -1.4,-0.16 -2.9,-0.23 -4.3,-0.43 -2.6,-0.38 -2.5,0.47 1.6,-0.52 -19.2,4.58 -27.4,-25.05 -8.1,-29.64"
       style="fill:#4f657f;fill-opacity:1;fill-rule:nonzero;stroke:none"
       transform="matrix(0.03527778,0,0,-0.03527778,-489.65648,312.87048)"
       clip-path="url(#clipPath765)" />
    <path
       id="path766"
       d="m 17295.5,4961.63 c 2.6,0.63 4.8,0.07 2.1,0.49 -1.1,0.17 -2.2,0.18 -3.3,0.29 -1.3,0.14 -2.6,0.32 -3.9,0.47 5.5,-0.66 -2.4,0.38 -3.8,0.59 -11.4,1.74 -22.8,3.73 -34.1,5.78 -28.3,5.12 -56.5,10.68 -84.5,16.94 -2.8,0.62 -5.6,1.21 -8.4,1.89 -0.3,0.09 -4.8,0.46 -2.3,0.54 l 0.8,-0.64 c -1.3,1.3 -1.4,1.38 -0.4,0.23 -0.6,3.88 -0.2,-0.92 -0.2,-0.95 v 1.46 c -0.4,-1.64 -0.3,-1.54 0.1,0.29 -1.8,-1.9 1.3,1.56 1.5,1.8 0.9,1.34 1.8,2.66 2.7,3.99 8.3,11.91 16.4,23.93 24.5,35.94 7.8,11.62 15.7,23.25 23.7,34.74 2.9,4.13 5.8,8.25 8.8,12.31 0.7,0.91 1.4,1.82 2.1,2.73 -2.5,-3.29 -0.5,-0.59 0,0.06 1,1.21 2,2.45 3.1,3.59 1.2,1.25 4.3,3.06 0.1,0.52 1.1,0.68 2.2,1.5 3.3,2.18 3.8,2.32 7.9,4.17 11.9,5.96 -3.5,-1.56 2.4,0.95 3.4,1.32 2.6,1 5.2,1.97 7.8,2.91 5.8,2.09 11.7,4.04 17.7,5.91 27.4,8.67 55.3,15.81 83.2,22.61 6.6,1.6 13.3,3.19 19.9,4.74 6.2,1.45 13.3,2.18 19.2,4.43 2.2,0.85 1.3,0.35 -0.3,0.46 3.1,-0.22 -0.6,0.89 1.9,-0.76 -0.5,0.29 -3.3,2.4 -0.7,0.11 -0.2,0.17 -1.2,3.12 0,-0.47 -0.5,1.65 1,3.11 -0.3,0.6 1,1.94 -1,-1.56 -1,-1.52 -1.5,-2.6 -2.9,-5.28 -4.4,-7.91 -12,-21.4 -24,-42.78 -36.1,-64.12 -13.6,-23.93 -27.2,-47.85 -41.1,-71.57 -4.8,-8.05 -9.5,-16.1 -14.5,-24.02 -1.5,-2.47 -3.1,-4.89 -4.7,-7.33 -1.9,-2.81 -0.9,-0.97 0.5,0.49 -1.9,-1.99 0.7,0.78 2,1.37 -7.5,-3.41 -9.4,-14.41 -5.5,-21.03 4.6,-7.78 13.4,-8.93 21,-5.51 5.1,2.27 8.4,8.81 11.2,13.26 4.5,6.99 8.7,14.14 13,21.29 13.3,22.53 26.3,45.28 39.2,68.05 13.5,23.7 26.9,47.45 40.2,71.23 3.2,5.71 7.1,11.44 9.3,17.62 3.1,8.57 2,18.64 -3,26.33 -5.4,8.36 -14.5,13.79 -24.4,14.3 -7.6,0.39 -15.7,-2.41 -23.1,-4.12 -30.4,-7.07 -60.8,-14.52 -90.8,-23.19 -13.4,-3.88 -26.8,-7.98 -39.9,-12.83 -9.8,-3.62 -20.2,-7.32 -28.9,-13.17 -7.8,-5.27 -13,-12.44 -18.5,-19.99 -8.2,-11.04 -15.9,-22.43 -23.5,-33.78 -9,-13.25 -17.9,-26.56 -27,-39.77 -4.4,-6.42 -9.9,-12.78 -12.6,-20.16 -3,-8.28 -2,-17.61 2.3,-25.28 8.6,-15.49 28.4,-16.72 43.9,-20.03 15.9,-3.39 31.8,-6.58 47.8,-9.62 23.9,-4.58 48.1,-9.67 72.4,-12.07 3,-0.3 5.7,-0.34 8.8,0.38 19.2,4.58 11,34.23 -8.2,29.64"
       style="fill:#4f657f;fill-opacity:1;fill-rule:nonzero;stroke:none"
       transform="matrix(0.03527778,0,0,-0.03527778,-489.65648,312.87048)"
       clip-path="url(#clipPath767)" />
    <path
       id="path768"
       d="m 17092.2,4970.45 c 17.9,-1.01 35.8,-2.02 53.7,-3.04 8,-0.45 15.7,7.39 15.4,15.37 -0.4,8.71 -6.8,14.88 -15.4,15.37 -17.9,1.01 -35.8,2.02 -53.7,3.04 -8.1,0.45 -15.7,-7.4 -15.4,-15.37 0.4,-8.72 6.8,-14.88 15.4,-15.37"
       style="fill:#4f657f;fill-opacity:1;fill-rule:nonzero;stroke:none"
       transform="matrix(0.03527778,0,0,-0.03527778,-489.65648,312.87048)"
       clip-path="url(#clipPath769)" />
    <path
       id="path770"
       d="m 17370.8,5108.64 c -22.1,-12.19 -38.3,-33.4 -45.2,-57.56 -7.4,-26.11 -1.8,-51.16 9.7,-75.13 11.3,-23.6 27.6,-46.85 26.4,-74.16 -1.4,-32.11 -21.8,-60.71 -19.2,-93.49 1.2,-15.24 7.1,-29.45 19.1,-39.33 10.7,-8.8 24.6,-13.02 38.1,-8.75 9.4,2.97 5.4,17.81 -4.1,14.82 -10.5,-3.32 -20.5,1.34 -27.7,9.08 -8.8,9.37 -10.8,22.19 -10,34.57 1.8,28.64 17.9,54.26 19.2,83.1 2.1,49.05 -46.2,85.08 -39,134.56 3.6,24.66 18.6,46.95 40.4,59.02 8.7,4.79 0.9,18.06 -7.7,13.27"
       style="fill:#7c7a79;fill-opacity:1;fill-rule:nonzero;stroke:none"
       transform="matrix(0.03527778,0,0,-0.03527778,-489.65648,312.87048)"
       clip-path="url(#clipPath771)" />
  </g>
</svg>
