<?xml version="1.0" encoding="UTF-8"?>
<!DOCTYPE svg PUBLIC "-//W3C//DTD SVG 1.1//EN" "http://www.w3.org/Graphics/SVG/1.1/DTD/svg11.dtd">
<svg xmlns="http://www.w3.org/2000/svg" version="1.1" width="128px" height="128px" style="shape-rendering:geometricPrecision; text-rendering:geometricPrecision; image-rendering:optimizeQuality; fill-rule:evenodd; clip-rule:evenodd" xmlns:xlink="http://www.w3.org/1999/xlink">
<g><path style="opacity:0.965" fill="#fefffe" d="M -0.5,34.5 C -0.5,30.5 -0.5,26.5 -0.5,22.5C 1.69966,19.1416 4.69966,16.6416 8.5,15C 17.1667,12.6667 25.8333,10.3333 34.5,8C 43.652,5.1045 50.152,7.93783 54,16.5C 57.2123,27.1815 59.7123,38.0148 61.5,49C 61.6935,55.4832 58.6935,59.8166 52.5,62C 43.8333,64.3333 35.1667,66.6667 26.5,69C 22.5,69.6667 18.5,69.6667 14.5,69C 11.6667,67.5 9.5,65.3333 8,62.5C 5.42893,52.9635 2.59559,43.6302 -0.5,34.5 Z M 26.5,32.5 C 32.3099,30.9696 35.9765,32.9696 37.5,38.5C 35.1374,45.7727 30.9708,47.106 25,42.5C 23.254,38.8816 23.754,35.5483 26.5,32.5 Z"/></g>
<g><path style="opacity:0.953" fill="#fefffe" d="M 127.5,75.5 C 127.5,79.1667 127.5,82.8333 127.5,86.5C 121.863,95.6637 116.363,104.997 111,114.5C 106.509,119.259 101.009,120.759 94.5,119C 83.4133,113.377 72.9133,106.877 63,99.5C 61.4661,95.2891 61.1327,90.9558 62,86.5C 67,77.5 72,68.5 77,59.5C 82.3947,53.451 88.8947,51.951 96.5,55C 105.167,60 113.833,65 122.5,70C 124.402,71.7297 126.069,73.563 127.5,75.5 Z M 104.5,76.5 C 113.224,75.0494 116.39,78.3828 114,86.5C 108.029,91.106 103.863,89.7727 101.5,82.5C 102.129,80.2592 103.129,78.2592 104.5,76.5 Z M 74.5,84.5 C 80.3099,82.9696 83.9765,84.9696 85.5,90.5C 83.1374,97.7727 78.9708,99.106 73,94.5C 71.254,90.8816 71.754,87.5483 74.5,84.5 Z"/></g>
</svg>
