<?xml version="1.0" encoding="UTF-8" standalone="no"?>
<!-- Created with Inkscape (http://www.inkscape.org/) -->

<svg
   width="14.517131mm"
   height="69.720566mm"
   viewBox="0 0 14.517131 69.720566"
   version="1.1"
   id="svg1"
   xml:space="preserve"
   inkscape:version="1.3.2 (091e20e, 2023-11-25)"
   sodipodi:docname="filled-point.svg"
   xmlns:inkscape="http://www.inkscape.org/namespaces/inkscape"
   xmlns:sodipodi="http://sodipodi.sourceforge.net/DTD/sodipodi-0.dtd"
   xmlns="http://www.w3.org/2000/svg"
   xmlns:svg="http://www.w3.org/2000/svg"><sodipodi:namedview
     id="namedview1"
     pagecolor="#ffffff"
     bordercolor="#000000"
     borderopacity="0.25"
     inkscape:showpageshadow="2"
     inkscape:pageopacity="0.0"
     inkscape:pagecheckerboard="0"
     inkscape:deskcolor="#d1d1d1"
     inkscape:document-units="mm"
     inkscape:zoom="1.1859409"
     inkscape:cx="-222.18645"
     inkscape:cy="155.57268"
     inkscape:window-width="1920"
     inkscape:window-height="1052"
     inkscape:window-x="0"
     inkscape:window-y="28"
     inkscape:window-maximized="0"
     inkscape:current-layer="layer1" /><defs
     id="defs1" /><g
     inkscape:label="Layer 1"
     inkscape:groupmode="layer"
     id="layer1"
     transform="translate(-97.824066,-113.01048)"><path
       fill="currentColor"
       d="m 105.86048,113.15957 h -0.0132 c 0.4939,0.17639 0.87312,0.51153 1.13771,1.00542 l 0.0132,0.0132 5.29148,65.51024 c 0.11322,0.48781 0.013,1.26106 -0.0455,1.70586 l -0.011,-0.0455 c -0.12348,0.38806 -0.24518,0.55544 -0.4595,0.8796 l 0.0397,-0.0265 -0.0265,0.0265 -0.0926,0.0661 c -0.38807,0.29104 -0.82463,0.43656 -1.30969,0.43656 H 99.80134 c -0.493897,0 -0.93046,-0.15434 -1.309687,-0.46302 h -0.01323 c -0.379228,-0.29986 -0.533863,-0.59653 -0.636407,-1.0933 l -0.01795,-0.16078 c 0.0141,-0.43207 0.08134,-0.79634 0.09873,-1.35209 l 5.291844,-65.48378 0.0397,-0.0662 c 0.22932,-0.43215 0.56444,-0.73201 1.00542,-0.89958 l 0.0794,-0.0397 c 0.4939,-0.21166 1.001,-0.21607 1.52135,-0.0132"
       id="path1"
       sodipodi:nodetypes="cccccccccccsscccccccccc" /></g></svg>
