<?xml version="1.0" encoding="UTF-8" standalone="no"?>
<!-- Created with Inkscape (http://www.inkscape.org/) -->

<svg
   width="64.332558mm"
   height="64.331856mm"
   viewBox="0 0 64.332558 64.331856"
   version="1.1"
   id="svg1"
   inkscape:version="1.3.2 (091e20e, 2023-11-25)"
   sodipodi:docname="curly-woman-avatar.svg"
   xmlns:inkscape="http://www.inkscape.org/namespaces/inkscape"
   xmlns:sodipodi="http://sodipodi.sourceforge.net/DTD/sodipodi-0.dtd"
   xmlns="http://www.w3.org/2000/svg"
   xmlns:svg="http://www.w3.org/2000/svg">
  <sodipodi:namedview
     id="namedview1"
     pagecolor="#ffffff"
     bordercolor="#000000"
     borderopacity="0.25"
     inkscape:showpageshadow="2"
     inkscape:pageopacity="0.0"
     inkscape:pagecheckerboard="0"
     inkscape:deskcolor="#d1d1d1"
     inkscape:document-units="mm"
     inkscape:zoom="1.0379067"
     inkscape:cx="71.779093"
     inkscape:cy="120.91646"
     inkscape:window-width="1920"
     inkscape:window-height="1052"
     inkscape:window-x="0"
     inkscape:window-y="28"
     inkscape:window-maximized="0"
     inkscape:current-layer="layer1" />
  <defs
     id="defs1">
    <clipPath
       clipPathUnits="userSpaceOnUse"
       id="clipPath2201">
      <path
         d="m 30983.4,7228.16 c 0,-503.58 -408.3,-911.79 -911.8,-911.79 -503.6,0 -911.8,408.21 -911.8,911.79 0,503.56 408.2,911.79 911.8,911.79 503.5,0 911.8,-408.23 911.8,-911.79"
         transform="translate(0,-2.5e-4)"
         id="path2201" />
    </clipPath>
    <clipPath
       clipPathUnits="userSpaceOnUse"
       id="clipPath2203">
      <path
         d="m 30983.4,7228.16 c 0,-503.58 -408.3,-911.79 -911.8,-911.79 -503.6,0 -911.8,408.21 -911.8,911.79 0,503.56 408.2,911.79 911.8,911.79 503.5,0 911.8,-408.23 911.8,-911.79"
         transform="translate(0,-2.5e-4)"
         id="path2203" />
    </clipPath>
    <clipPath
       clipPathUnits="userSpaceOnUse"
       id="clipPath2205">
      <path
         d="m 30983.4,7228.16 c 0,-503.58 -408.3,-911.79 -911.8,-911.79 -503.6,0 -911.8,408.21 -911.8,911.79 0,503.56 408.2,911.79 911.8,911.79 503.5,0 911.8,-408.23 911.8,-911.79"
         transform="translate(0,-2.5e-4)"
         id="path2205" />
    </clipPath>
    <clipPath
       clipPathUnits="userSpaceOnUse"
       id="clipPath2206">
      <path
         d="m 30532.9,6537.39 c -84.8,56.73 -187.2,79.45 -287.3,99.52 -6.1,1.23 -12.5,2.56 -17.4,6.39 -8.4,6.56 10.7,227.33 0,323.87 l -142.8,-13.37 -142.9,13.37 c -10.6,-96.54 8.4,-317.31 0,-323.87 -4.9,-3.83 -11.2,-5.16 -17.3,-6.39 -100.1,-20.07 -202.6,-42.79 -287.4,-99.52 -84.8,-56.73 -149,-155.67 -135.4,-256.72 85.1,0.44 322.8,-1.1 563.6,-4.26 v -0.52 c 6.5,0.09 12.9,0.18 19.4,0.26 6.4,-0.08 12.9,-0.17 19.3,-0.26 v 0.52 c 240.8,3.16 478.5,4.7 563.7,4.26 13.6,101.05 -50.6,199.99 -135.5,256.72"
         transform="translate(0,-2.5e-4)"
         id="path2206" />
    </clipPath>
    <clipPath
       clipPathUnits="userSpaceOnUse"
       id="clipPath2209">
      <path
         d="m 30983.4,7228.16 c 0,-503.58 -408.3,-911.79 -911.8,-911.79 -503.6,0 -911.8,408.21 -911.8,911.79 0,503.56 408.2,911.79 911.8,911.79 503.5,0 911.8,-408.23 911.8,-911.79"
         transform="translate(0,-2.5e-4)"
         id="path2209" />
    </clipPath>
    <clipPath
       clipPathUnits="userSpaceOnUse"
       id="clipPath2211">
      <path
         d="m 30983.4,7228.16 c 0,-503.58 -408.3,-911.79 -911.8,-911.79 -503.6,0 -911.8,408.21 -911.8,911.79 0,503.56 408.2,911.79 911.8,911.79 503.5,0 911.8,-408.23 911.8,-911.79"
         transform="translate(0,-2.5e-4)"
         id="path2211" />
    </clipPath>
    <clipPath
       clipPathUnits="userSpaceOnUse"
       id="clipPath2213">
      <path
         d="m 30983.4,7228.16 c 0,-503.58 -408.3,-911.79 -911.8,-911.79 -503.6,0 -911.8,408.21 -911.8,911.79 0,503.56 408.2,911.79 911.8,911.79 503.5,0 911.8,-408.23 911.8,-911.79"
         transform="translate(0,-2.5e-4)"
         id="path2213" />
    </clipPath>
    <clipPath
       clipPathUnits="userSpaceOnUse"
       id="clipPath2215">
      <path
         d="m 30983.4,7228.16 c 0,-503.58 -408.3,-911.79 -911.8,-911.79 -503.6,0 -911.8,408.21 -911.8,911.79 0,503.56 408.2,911.79 911.8,911.79 503.5,0 911.8,-408.23 911.8,-911.79"
         transform="translate(0,-2.5e-4)"
         id="path2215" />
    </clipPath>
    <clipPath
       clipPathUnits="userSpaceOnUse"
       id="clipPath2217">
      <path
         d="m 30983.4,7228.16 c 0,-503.58 -408.3,-911.79 -911.8,-911.79 -503.6,0 -911.8,408.21 -911.8,911.79 0,503.56 408.2,911.79 911.8,911.79 503.5,0 911.8,-408.23 911.8,-911.79"
         transform="translate(0,-2.5e-4)"
         id="path2217" />
    </clipPath>
    <clipPath
       clipPathUnits="userSpaceOnUse"
       id="clipPath2219">
      <path
         d="m 30983.4,7228.16 c 0,-503.58 -408.3,-911.79 -911.8,-911.79 -503.6,0 -911.8,408.21 -911.8,911.79 0,503.56 408.2,911.79 911.8,911.79 503.5,0 911.8,-408.23 911.8,-911.79"
         transform="translate(0,-2.5e-4)"
         id="path2219" />
    </clipPath>
    <clipPath
       clipPathUnits="userSpaceOnUse"
       id="clipPath2221">
      <path
         d="m 30983.4,7228.16 c 0,-503.58 -408.3,-911.79 -911.8,-911.79 -503.6,0 -911.8,408.21 -911.8,911.79 0,503.56 408.2,911.79 911.8,911.79 503.5,0 911.8,-408.23 911.8,-911.79"
         transform="translate(0,-2.5e-4)"
         id="path2221" />
    </clipPath>
    <clipPath
       clipPathUnits="userSpaceOnUse"
       id="clipPath2223">
      <path
         d="m 30983.4,7228.16 c 0,-503.58 -408.3,-911.79 -911.8,-911.79 -503.6,0 -911.8,408.21 -911.8,911.79 0,503.56 408.2,911.79 911.8,911.79 503.5,0 911.8,-408.23 911.8,-911.79"
         transform="translate(0,-2.5e-4)"
         id="path2223" />
    </clipPath>
    <clipPath
       clipPathUnits="userSpaceOnUse"
       id="clipPath2225">
      <path
         d="m 30983.4,7228.16 c 0,-503.58 -408.3,-911.79 -911.8,-911.79 -503.6,0 -911.8,408.21 -911.8,911.79 0,503.56 408.2,911.79 911.8,911.79 503.5,0 911.8,-408.23 911.8,-911.79"
         transform="translate(0,-2.5e-4)"
         id="path2225" />
    </clipPath>
    <clipPath
       clipPathUnits="userSpaceOnUse"
       id="clipPath2227">
      <path
         d="m 30983.4,7228.16 c 0,-503.58 -408.3,-911.79 -911.8,-911.79 -503.6,0 -911.8,408.21 -911.8,911.79 0,503.56 408.2,911.79 911.8,911.79 503.5,0 911.8,-408.23 911.8,-911.79"
         transform="translate(0,-2.5e-4)"
         id="path2227" />
    </clipPath>
    <clipPath
       clipPathUnits="userSpaceOnUse"
       id="clipPath2229">
      <path
         d="m 30983.4,7228.16 c 0,-503.58 -408.3,-911.79 -911.8,-911.79 -503.6,0 -911.8,408.21 -911.8,911.79 0,503.56 408.2,911.79 911.8,911.79 503.5,0 911.8,-408.23 911.8,-911.79"
         transform="translate(0,-2.5e-4)"
         id="path2229" />
    </clipPath>
    <clipPath
       clipPathUnits="userSpaceOnUse"
       id="clipPath2231">
      <path
         d="m 30983.4,7228.16 c 0,-503.58 -408.3,-911.79 -911.8,-911.79 -503.6,0 -911.8,408.21 -911.8,911.79 0,503.56 408.2,911.79 911.8,911.79 503.5,0 911.8,-408.23 911.8,-911.79"
         transform="translate(0,-2.5e-4)"
         id="path2231" />
    </clipPath>
    <clipPath
       clipPathUnits="userSpaceOnUse"
       id="clipPath2233">
      <path
         d="m 30983.4,7228.16 c 0,-503.58 -408.3,-911.79 -911.8,-911.79 -503.6,0 -911.8,408.21 -911.8,911.79 0,503.56 408.2,911.79 911.8,911.79 503.5,0 911.8,-408.23 911.8,-911.79"
         transform="translate(0,-2.5e-4)"
         id="path2233" />
    </clipPath>
    <clipPath
       clipPathUnits="userSpaceOnUse"
       id="clipPath2235">
      <path
         d="m 30983.4,7228.16 c 0,-503.58 -408.3,-911.79 -911.8,-911.79 -503.6,0 -911.8,408.21 -911.8,911.79 0,503.56 408.2,911.79 911.8,911.79 503.5,0 911.8,-408.23 911.8,-911.79"
         transform="translate(0,-2.5e-4)"
         id="path2235" />
    </clipPath>
    <clipPath
       clipPathUnits="userSpaceOnUse"
       id="clipPath2237">
      <path
         d="m 30983.4,7228.16 c 0,-503.58 -408.3,-911.79 -911.8,-911.79 -503.6,0 -911.8,408.21 -911.8,911.79 0,503.56 408.2,911.79 911.8,911.79 503.5,0 911.8,-408.23 911.8,-911.79"
         transform="translate(0,-2.5e-4)"
         id="path2237" />
    </clipPath>
    <clipPath
       clipPathUnits="userSpaceOnUse"
       id="clipPath2239">
      <path
         d="m 30983.4,7228.16 c 0,-503.58 -408.3,-911.79 -911.8,-911.79 -503.6,0 -911.8,408.21 -911.8,911.79 0,503.56 408.2,911.79 911.8,911.79 503.5,0 911.8,-408.23 911.8,-911.79"
         transform="translate(0,-2.5e-4)"
         id="path2239" />
    </clipPath>
    <clipPath
       clipPathUnits="userSpaceOnUse"
       id="clipPath2241">
      <path
         d="m 30983.4,7228.16 c 0,-503.58 -408.3,-911.79 -911.8,-911.79 -503.6,0 -911.8,408.21 -911.8,911.79 0,503.56 408.2,911.79 911.8,911.79 503.5,0 911.8,-408.23 911.8,-911.79"
         transform="translate(0,-2.5e-4)"
         id="path2241" />
    </clipPath>
    <clipPath
       clipPathUnits="userSpaceOnUse"
       id="clipPath2243">
      <path
         d="m 30983.4,7228.16 c 0,-503.58 -408.3,-911.79 -911.8,-911.79 -503.6,0 -911.8,408.21 -911.8,911.79 0,503.56 408.2,911.79 911.8,911.79 503.5,0 911.8,-408.23 911.8,-911.79"
         transform="translate(0,-2.5e-4)"
         id="path2243" />
    </clipPath>
    <clipPath
       clipPathUnits="userSpaceOnUse"
       id="clipPath2245">
      <path
         d="m 30983.4,7228.16 c 0,-503.58 -408.3,-911.79 -911.8,-911.79 -503.6,0 -911.8,408.21 -911.8,911.79 0,503.56 408.2,911.79 911.8,911.79 503.5,0 911.8,-408.23 911.8,-911.79"
         transform="translate(0,-2.5e-4)"
         id="path2245" />
    </clipPath>
    <clipPath
       clipPathUnits="userSpaceOnUse"
       id="clipPath2247">
      <path
         d="m 30983.4,7228.16 c 0,-503.58 -408.3,-911.79 -911.8,-911.79 -503.6,0 -911.8,408.21 -911.8,911.79 0,503.56 408.2,911.79 911.8,911.79 503.5,0 911.8,-408.23 911.8,-911.79"
         transform="translate(0,-2.5e-4)"
         id="path2247" />
    </clipPath>
    <clipPath
       clipPathUnits="userSpaceOnUse"
       id="clipPath2248">
      <path
         d="m 29704.2,6577.13 c 103.9,-88.68 254.7,-158 394,-155.28 139.2,2.72 276.6,57.5 376.6,150.17 166.7,-28.62 191.6,-225.22 198.1,-284.7 -387.8,-47.22 -770.7,-55.28 -1160.2,-24.01 -8.6,0.7 -17.9,1.69 -24.2,7.36 -9,8.16 -8.4,22.05 -5.9,33.68 50.3,239.05 221.6,272.78 221.6,272.78"
         transform="translate(0,-2.5e-4)"
         id="path2248" />
    </clipPath>
    <clipPath
       clipPathUnits="userSpaceOnUse"
       id="clipPath2249">
      <path
         d="m 29704.2,6577.13 c 103.9,-88.68 254.7,-158 394,-155.28 139.2,2.72 276.6,57.5 376.6,150.17 166.7,-28.62 191.6,-225.22 198.1,-284.7 -387.8,-47.22 -770.7,-55.28 -1160.2,-24.01 -8.6,0.7 -17.9,1.69 -24.2,7.36 -9,8.16 -8.4,22.05 -5.9,33.68 50.3,239.05 221.6,272.78 221.6,272.78"
         transform="translate(0,-2.5e-4)"
         id="path2249" />
    </clipPath>
    <clipPath
       clipPathUnits="userSpaceOnUse"
       id="clipPath2250">
      <path
         d="m 29704.2,6577.13 c 103.9,-88.68 254.7,-158 394,-155.28 139.2,2.72 276.6,57.5 376.6,150.17 166.7,-28.62 191.6,-225.22 198.1,-284.7 -387.8,-47.22 -770.7,-55.28 -1160.2,-24.01 -8.6,0.7 -17.9,1.69 -24.2,7.36 -9,8.16 -8.4,22.05 -5.9,33.68 50.3,239.05 221.6,272.78 221.6,272.78"
         transform="translate(0,-2.5e-4)"
         id="path2250" />
    </clipPath>
    <clipPath
       clipPathUnits="userSpaceOnUse"
       id="clipPath2251">
      <path
         d="m 29704.2,6577.13 c 103.9,-88.68 254.7,-158 394,-155.28 139.2,2.72 276.6,57.5 376.6,150.17 166.7,-28.62 191.6,-225.22 198.1,-284.7 -387.8,-47.22 -770.7,-55.28 -1160.2,-24.01 -8.6,0.7 -17.9,1.69 -24.2,7.36 -9,8.16 -8.4,22.05 -5.9,33.68 50.3,239.05 221.6,272.78 221.6,272.78"
         transform="translate(0,-2.5e-4)"
         id="path2251" />
    </clipPath>
    <clipPath
       clipPathUnits="userSpaceOnUse"
       id="clipPath2252">
      <path
         d="m 29704.2,6577.13 c 103.9,-88.68 254.7,-158 394,-155.28 139.2,2.72 276.6,57.5 376.6,150.17 166.7,-28.62 191.6,-225.22 198.1,-284.7 -387.8,-47.22 -770.7,-55.28 -1160.2,-24.01 -8.6,0.7 -17.9,1.69 -24.2,7.36 -9,8.16 -8.4,22.05 -5.9,33.68 50.3,239.05 221.6,272.78 221.6,272.78"
         transform="translate(0,-2.5e-4)"
         id="path2252" />
    </clipPath>
    <clipPath
       clipPathUnits="userSpaceOnUse"
       id="clipPath2259">
      <path
         d="m 30983.4,7228.16 c 0,-503.58 -408.3,-911.79 -911.8,-911.79 -503.6,0 -911.8,408.21 -911.8,911.79 0,503.56 408.2,911.79 911.8,911.79 503.5,0 911.8,-408.23 911.8,-911.79"
         transform="translate(0,-2.5e-4)"
         id="path2259" />
    </clipPath>
    <clipPath
       clipPathUnits="userSpaceOnUse"
       id="clipPath2261">
      <path
         d="m 30983.4,7228.16 c 0,-503.58 -408.3,-911.79 -911.8,-911.79 -503.6,0 -911.8,408.21 -911.8,911.79 0,503.56 408.2,911.79 911.8,911.79 503.5,0 911.8,-408.23 911.8,-911.79"
         transform="translate(0,-2.5e-4)"
         id="path2261" />
    </clipPath>
    <clipPath
       clipPathUnits="userSpaceOnUse"
       id="clipPath2263">
      <path
         d="m 30983.4,7228.16 c 0,-503.58 -408.3,-911.79 -911.8,-911.79 -503.6,0 -911.8,408.21 -911.8,911.79 0,503.56 408.2,911.79 911.8,911.79 503.5,0 911.8,-408.23 911.8,-911.79"
         transform="translate(0,-2.5e-4)"
         id="path2263" />
    </clipPath>
    <clipPath
       clipPathUnits="userSpaceOnUse"
       id="clipPath2265">
      <path
         d="m 30983.4,7228.16 c 0,-503.58 -408.3,-911.79 -911.8,-911.79 -503.6,0 -911.8,408.21 -911.8,911.79 0,503.56 408.2,911.79 911.8,911.79 503.5,0 911.8,-408.23 911.8,-911.79"
         transform="translate(0,-2.5e-4)"
         id="path2265" />
    </clipPath>
    <clipPath
       clipPathUnits="userSpaceOnUse"
       id="clipPath2267">
      <path
         d="m 30983.4,7228.16 c 0,-503.58 -408.3,-911.79 -911.8,-911.79 -503.6,0 -911.8,408.21 -911.8,911.79 0,503.56 408.2,911.79 911.8,911.79 503.5,0 911.8,-408.23 911.8,-911.79"
         transform="translate(0,-2.5e-4)"
         id="path2267" />
    </clipPath>
    <clipPath
       clipPathUnits="userSpaceOnUse"
       id="clipPath2269">
      <path
         d="m 30983.4,7228.16 c 0,-503.58 -408.3,-911.79 -911.8,-911.79 -503.6,0 -911.8,408.21 -911.8,911.79 0,503.56 408.2,911.79 911.8,911.79 503.5,0 911.8,-408.23 911.8,-911.79"
         transform="translate(0,-2.5e-4)"
         id="path2269" />
    </clipPath>
    <clipPath
       clipPathUnits="userSpaceOnUse"
       id="clipPath2271">
      <path
         d="m 30983.4,7228.16 c 0,-503.58 -408.3,-911.79 -911.8,-911.79 -503.6,0 -911.8,408.21 -911.8,911.79 0,503.56 408.2,911.79 911.8,911.79 503.5,0 911.8,-408.23 911.8,-911.79"
         transform="translate(0,-2.5e-4)"
         id="path2271" />
    </clipPath>
  </defs>
  <g
     inkscape:label="Layer 1"
     inkscape:groupmode="layer"
     id="layer1"
     transform="translate(-62.177189,-111.65414)">
    <path
       id="path2200"
       d="m 30983.4,6316.36 h -1823.6 v 1823.59 h 1823.6 V 6316.36"
       style="fill:#a59eff;fill-opacity:1;fill-rule:nonzero;stroke:none"
       transform="matrix(0.03527778,0,0,-0.03527778,-966.51582,398.8135)"
       clip-path="url(#clipPath2201)" />
    <path
       id="path2202"
       d="m 30018,6844 c -10.4,-48.06 -43.3,-93.51 -90.3,-107.94 -47.1,-14.43 -105.9,11.05 -118.4,58.59 -6.2,-22.13 -32.3,-33.75 -55.1,-31.2 -22.9,2.54 -43,15.64 -61.9,28.67 -52.7,36.29 -106,77.66 -131.4,136.36 -25.4,58.71 -11.9,138.9 44.9,168.45 -57.6,78.21 -79.8,181.4 -59.6,276.35 9.9,46.19 30.4,91.7 66.3,122.44 35.9,30.75 89.1,43.88 132.1,24.37 -4.1,84.34 0.9,186.5 74.6,227.94 24.5,13.79 53.1,18.1 81.2,20.13 80.4,5.83 177.5,-16.64 205.2,-92.34 49.7,56.04 123.9,95.87 198.2,85.75 74.3,-10.11 140.4,-82.25 126.9,-155.93 49.4,35.82 128.1,10.61 154.2,-44.52 26.2,-55.13 1.9,-126.41 -48.2,-161.27 58.5,-1.04 104.3,-59.18 108.2,-117.52 3.9,-58.34 -24.5,-114.3 -60,-160.82 40.9,-48.02 43.1,-124.64 5,-174.91 -18.1,-23.94 -43.7,-41.76 -60.1,-66.89 -11.7,-17.84 -18.3,-38.7 -30.6,-56.12 -28.1,-39.89 -86.9,-54.45 -130.4,-32.31 -21.4,-65.46 -109.7,-98.27 -168.7,-62.7 -29.4,-27.09 -75.4,-34.37 -111.6,-17.65 -36.3,16.71 -60.6,56.41 -59,96.27 l -11.5,36.8"
       style="fill:#f9e5cb;fill-opacity:1;fill-rule:nonzero;stroke:none"
       transform="matrix(0.03527778,0,0,-0.03527778,-966.51582,398.8135)"
       clip-path="url(#clipPath2203)" />
    <path
       id="path2204"
       d="m 30532.9,6537.39 c -84.8,56.73 -187.2,79.45 -287.3,99.53 -6.1,1.22 -12.5,2.55 -17.4,6.38 -8.4,6.55 10.7,227.33 0,323.86 l -142.8,-13.36 -142.9,13.36 c -10.6,-96.53 8.4,-317.31 0,-323.86 -4.9,-3.83 -11.2,-5.16 -17.3,-6.38 -100.1,-20.08 -202.6,-42.8 -287.4,-99.53 -84.8,-56.73 -149,-155.68 -135.4,-256.72 85.1,0.44 322.8,-1.1 563.6,-4.26 v -0.52 c 6.5,0.08 12.9,0.17 19.4,0.26 6.4,-0.09 12.9,-0.18 19.3,-0.26 v 0.52 c 240.8,3.16 478.5,4.7 563.7,4.26 13.6,101.04 -50.6,199.99 -135.5,256.72"
       style="fill:#f0bf85;fill-opacity:1;fill-rule:nonzero;stroke:none"
       transform="matrix(0.03527778,0,0,-0.03527778,-966.51582,398.8135)"
       clip-path="url(#clipPath2205)" />
    <g
       id="g2207"
       transform="matrix(0.26458333,0,0,0.26458333,-966.51582,40.299564)">
      <path
         d="m 29752.4,6970.27 c 56.3,36.25 58.8,53.63 61.5,36.25 13.3,-85.45 148.5,-291.27 271.4,-291.27 159.1,0 251.4,268.24 266.3,335.84 -183.9,-26.25 -370.1,-52.54 -554.5,-30.44 5,-4.78 10.1,-9.55 15.2,-14.33 l -59.9,-36.05"
         style="fill:#d3a06c;fill-opacity:1;fill-rule:nonzero;stroke:none"
         transform="matrix(0.13333333,0,0,-0.13333333,0,1355.0133)"
         clip-path="url(#clipPath2206)"
         id="path2207" />
    </g>
    <path
       id="path2208"
       d="m 30385.7,7077.96 c -1.6,22.96 -16.2,45.82 -38.2,52.51 -14.5,4.39 -31.3,-0.29 -42,-10.45 7.2,123.53 3.2,315.81 -5.1,316.51 -128.2,10.84 -302.2,37.06 -427,5.64 v -3.59 c -24,-80.99 -26.1,-206.48 -15.8,-312.24 -10,5.58 -22.4,7.47 -33.4,4.13 -22.1,-6.69 -36.6,-29.55 -38.3,-52.51 -1.6,-22.96 7.7,-45.54 20.9,-64.42 18.8,-26.87 49.7,-48.54 81.5,-48.26 13.4,-41.68 32.4,-81.38 60.8,-114.49 40.3,-47.15 102.5,-79.03 164,-70.67 59.5,8.09 109.5,52.25 138.5,104.78 14,25.3 23.8,52.42 31.2,80.38 31.9,-0.57 63.2,21.21 82,48.26 13.2,18.88 22.6,41.46 20.9,64.42"
       style="fill:#f0bf85;fill-opacity:1;fill-rule:nonzero;stroke:none"
       transform="matrix(0.03527778,0,0,-0.03527778,-966.51582,398.8135)"
       clip-path="url(#clipPath2209)" />
    <path
       id="path2210"
       d="m 29828.7,7129.83 c 51.7,83.74 77.8,183.06 73.9,281.39 8.7,-26.38 40.6,-39.85 68,-34.99 27.4,4.87 50.2,23.9 67.9,45.29 45.2,-36.39 112.2,-43.23 163.9,-16.7 -21.4,-22.73 -25.6,-59.75 -9.8,-86.65 15.7,-26.9 50.1,-41.44 80.4,-34.04 -8.6,-21.28 -16.2,-43.69 -15,-66.59 1.3,-22.91 13.3,-46.55 34.5,-55.49 -14.8,-6.59 -12.1,-31.47 2.4,-38.66 14.4,-7.19 32.8,0.38 42.9,12.95 10.1,12.57 14,28.89 17.6,44.62 17.2,74.89 34.6,151.83 23.8,227.91 -3.1,21.63 -8.7,43.49 -21.3,61.31 -30.6,43.16 -90.8,50.06 -143.6,53.06 -85.3,4.85 -170.6,9.7 -255.8,14.55 -40.7,2.32 -86,3.14 -116.6,-23.71 -18.7,-16.44 -28.5,-40.63 -36.2,-64.32 -33.1,-101.51 -39.8,-211.51 -19.1,-316.26 9.8,-2.06 19.6,-4.12 29.3,-6.17 l 12.8,2.5"
       style="fill:#f9e5cb;fill-opacity:1;fill-rule:nonzero;stroke:none"
       transform="matrix(0.03527778,0,0,-0.03527778,-966.51582,398.8135)"
       clip-path="url(#clipPath2211)" />
    <path
       id="path2212"
       d="m 30067.2,7438.65 c -32.2,-11.38 -42.7,-49.5 -33.9,-80.05 5.1,-17.7 17.4,-34.22 34.1,-42.42 16.4,-8.06 36.3,-6.75 47.8,8.56 10.4,13.85 10.9,34.66 -4.6,44.92 -2.1,1.42 -5.6,1.43 -7.7,0 -15.3,-10.26 -23.4,-26.9 -25.5,-44.9 -2.5,-22.06 5.3,-43.66 12.7,-64.03 3.4,-9.19 18.3,-5.22 14.8,4.08 -10,27.41 -24.9,71 5.7,91.59 -2.5,0 -5.1,0 -7.7,0 10.3,-6.86 2.2,-24.05 -6.6,-28.29 -16.9,-8.08 -35.9,9.45 -43.4,22.92 -12.8,22.87 -9.9,62.81 18.3,72.82 9.3,3.27 5.3,18.11 -4,14.8"
       style="fill:#f9e5cb;fill-opacity:1;fill-rule:nonzero;stroke:none"
       transform="matrix(0.03527778,0,0,-0.03527778,-966.51582,398.8135)"
       clip-path="url(#clipPath2213)" />
    <path
       id="path2214"
       d="m 29973.2,7135.37 c 0,-14.42 -11.5,-26.1 -25.6,-26.1 -14.1,0 -25.5,11.68 -25.5,26.1 0,14.41 11.4,26.1 25.5,26.1 14.1,0 25.6,-11.69 25.6,-26.1"
       style="fill:#1a1a1a;fill-opacity:1;fill-rule:nonzero;stroke:none"
       transform="matrix(0.03527778,0,0,-0.03527778,-966.51582,398.8135)"
       clip-path="url(#clipPath2215)" />
    <path
       id="path2216"
       d="m 30233.8,7135.37 c 0,-14.42 -11.4,-26.1 -25.6,-26.1 -14.1,0 -25.5,11.68 -25.5,26.1 0,14.41 11.4,26.1 25.5,26.1 14.2,0 25.6,-11.69 25.6,-26.1"
       style="fill:#1a1a1a;fill-opacity:1;fill-rule:nonzero;stroke:none"
       transform="matrix(0.03527778,0,0,-0.03527778,-966.51582,398.8135)"
       clip-path="url(#clipPath2217)" />
    <path
       id="path2218"
       d="m 30072.5,7163.09 c -0.8,-32.47 -1.2,-69.28 20,-96.13 17.4,-22 48.5,-34.59 74.7,-20.94 -3.5,3.5 -7,7 -10.5,10.5 -12.7,-21.15 -29.4,-39.64 -49.3,-54.2 -7.9,-5.76 -0.3,-19.09 7.7,-13.25 22.1,16.15 40.7,36.2 54.9,59.7 4.1,6.84 -3.9,13.93 -10.5,10.5 -20.9,-10.86 -46.4,3.28 -58,21.34 -15.6,24.04 -14.4,55.06 -13.7,82.48 0.3,9.88 -15.1,9.88 -15.3,0"
       style="fill:#a46e4a;fill-opacity:1;fill-rule:nonzero;stroke:none"
       transform="matrix(0.03527778,0,0,-0.03527778,-966.51582,398.8135)"
       clip-path="url(#clipPath2219)" />
    <path
       id="path2220"
       d="m 30024.4,6946.6 c 26.2,-23.41 68.1,-26.48 96.8,-5.72 3.4,2.43 5,6.68 2.8,10.5 -2,3.31 -7.2,5.19 -10.5,2.75 -23,-16.62 -56.8,-15.8 -78.2,3.32 -7.4,6.56 -18.3,-4.25 -10.9,-10.85"
       style="fill:#a46e4a;fill-opacity:1;fill-rule:nonzero;stroke:none"
       transform="matrix(0.03527778,0,0,-0.03527778,-966.51582,398.8135)"
       clip-path="url(#clipPath2221)" />
    <path
       id="path2222"
       d="m 30300.5,7039.33 c 1.2,1.99 2.5,3.94 3.9,5.83 l 0.9,1.34 0.7,0.81 0.6,0.78 1.3,1.53 c 2.9,3.46 6.1,6.69 9.5,9.67 l 2.6,2.14 1.3,1.03 c -1.2,-0.92 0,0.03 0.3,0.21 1.9,1.38 3.8,2.69 5.7,3.93 4,2.47 8.1,4.62 12.4,6.47 3.7,1.6 4.8,7.31 2.7,10.5 -2.4,3.84 -6.5,4.46 -10.5,2.75 -18.5,-8 -34.2,-22.05 -44.6,-39.24 -2.1,-3.44 -0.9,-8.59 2.7,-10.5 3.8,-1.97 8.3,-0.91 10.5,2.75"
       style="fill:#a46e4a;fill-opacity:1;fill-rule:nonzero;stroke:none"
       transform="matrix(0.03527778,0,0,-0.03527778,-966.51582,398.8135)"
       clip-path="url(#clipPath2223)" />
    <path
       id="path2224"
       d="m 30311.5,7053.09 c 1.3,-0.79 2.6,-1.65 3.9,-2.56 0.7,-0.55 -1.3,1.06 -0.3,0.15 l 1,-0.79 1.6,-1.49 c 1.1,-1.13 2.2,-2.34 3.2,-3.6 l -0.3,0.4 0.8,-0.99 1.3,-2.03 c 0.8,-1.31 1.6,-2.67 2.2,-4.06 l 0.4,-0.88 c 0.7,-1.52 -0.4,1.18 -0.1,0.26 l 0.9,-2.29 c 0.4,-1.46 0.8,-2.95 1.2,-4.46 l 0.4,-2.4 c -0.1,0.34 -0.2,1.65 -0.1,0.59 l 0.1,-1.46 c 0.3,-3.99 3.3,-7.86 7.7,-7.67 3.9,0.18 7.9,3.39 7.6,7.67 -1.1,15.96 -9.9,30.73 -23.8,38.86 -3.4,2.03 -8.5,0.91 -10.5,-2.76 -1.9,-3.68 -0.9,-8.32 2.8,-10.49"
       style="fill:#a46e4a;fill-opacity:1;fill-rule:nonzero;stroke:none"
       transform="matrix(0.03527778,0,0,-0.03527778,-966.51582,398.8135)"
       clip-path="url(#clipPath2225)" />
    <path
       id="path2226"
       d="m 29826.5,7085.96 c 10.4,-17.4 20.9,-34.81 31.4,-52.22 2.1,-3.55 6.9,-4.86 10.5,-2.75 3.5,2.08 4.9,6.93 2.7,10.5 -10.4,17.4 -20.9,34.81 -31.4,52.22 -2.1,3.55 -6.9,4.86 -10.5,2.75 -3.5,-2.08 -4.9,-6.93 -2.7,-10.5"
       style="fill:#a46e4a;fill-opacity:1;fill-rule:nonzero;stroke:none"
       transform="matrix(0.03527778,0,0,-0.03527778,-966.51582,398.8135)"
       clip-path="url(#clipPath2227)" />
    <path
       id="path2228"
       d="m 29826.9,7036.89 c 6.9,5.21 13.9,10.42 20.9,15.64 1.7,1.23 3,2.51 3.5,4.58 0.5,1.84 0.3,4.28 -0.7,5.91 -1.1,1.64 -2.7,3.08 -4.6,3.53 -1.9,0.43 -4.3,0.44 -5.9,-0.77 -7,-5.21 -14,-10.42 -21,-15.64 -1.6,-1.24 -2.9,-2.51 -3.5,-4.58 -0.5,-1.84 -0.3,-4.28 0.8,-5.91 1,-1.64 2.6,-3.09 4.5,-3.53 1.9,-0.43 4.3,-0.44 6,0.77"
       style="fill:#a46e4a;fill-opacity:1;fill-rule:nonzero;stroke:none"
       transform="matrix(0.03527778,0,0,-0.03527778,-966.51582,398.8135)"
       clip-path="url(#clipPath2229)" />
    <path
       id="path2230"
       d="m 30310.3,6976.83 c 29.3,7.34 58,-10.12 73.2,-34.69 14.4,-23.22 19.6,-51.49 17.1,-78.47 -2.4,-25.57 -12.7,-51.17 -31,-69.53 -16.5,-16.61 -38.6,-25.25 -62,-24.94 -25,0.34 -50.2,11.23 -63.6,33.08 -5.1,8.41 -18.4,0.71 -13.2,-7.74 29.8,-48.62 101.5,-52.27 143,-17.36 47.6,39.95 54.8,116.72 25.1,169.16 -18.4,32.39 -55,54.71 -92.7,45.28 -9.6,-2.39 -5.5,-17.19 4.1,-14.79"
       style="fill:#a46e4a;fill-opacity:1;fill-rule:nonzero;stroke:none"
       transform="matrix(0.03527778,0,0,-0.03527778,-966.51582,398.8135)"
       clip-path="url(#clipPath2231)" />
    <path
       id="path2232"
       d="m 29875.4,6996.03 c -55,-6.32 -94.6,-54.28 -104.3,-106.83 -4.9,-26.36 -2.4,-52.87 9.3,-77.15 12.8,-26.7 35.2,-48.68 61.2,-62.7 30,-16.24 65,-22.18 98.5,-14.8 9.6,2.13 5.5,16.93 -4.1,14.8 -52.2,-11.52 -109.6,14.91 -136.9,60.44 -24.8,41.25 -17.2,94.11 11.3,131.65 15.8,20.75 38.8,36.23 65,39.24 9.7,1.11 9.8,16.47 0,15.35"
       style="fill:#a46e4a;fill-opacity:1;fill-rule:nonzero;stroke:none"
       transform="matrix(0.03527778,0,0,-0.03527778,-966.51582,398.8135)"
       clip-path="url(#clipPath2233)" />
    <path
       id="path2234"
       d="m 29914.8,7216.32 c 5,10.21 12.5,17.72 22.4,23 9.2,4.83 20.7,7.03 30.4,5.46 4.1,-0.66 8.3,1.06 9.5,5.36 1,3.66 -1.3,8.77 -5.4,9.44 -27.9,4.5 -57.6,-9.69 -70.1,-35.51 -1.8,-3.73 -1,-8.29 2.7,-10.5 3.4,-1.97 8.7,-0.99 10.5,2.75"
       style="fill:#f9e5cb;fill-opacity:1;fill-rule:nonzero;stroke:none"
       transform="matrix(0.03527778,0,0,-0.03527778,-966.51582,398.8135)"
       clip-path="url(#clipPath2235)" />
    <path
       id="path2236"
       d="m 30182.4,7225.45 c 1.5,0.73 3.3,1.43 5.8,2.1 1.1,0.33 2.3,0.6 3.5,0.83 l 1.6,0.29 c 0.8,0.11 -0.5,-0.02 0.8,0.09 5.1,0.41 9.4,0.26 13.4,-0.58 9.4,-1.95 16.9,-6.06 23.2,-13.08 2.7,-3.09 8,-2.82 10.8,0 3.1,3.06 2.8,7.76 0,10.85 -16.6,18.49 -44.7,23.27 -66.9,12.75 -3.7,-1.77 -4.7,-7.14 -2.7,-10.49 2.2,-3.84 6.7,-4.54 10.5,-2.76"
       style="fill:#f9e5cb;fill-opacity:1;fill-rule:nonzero;stroke:none"
       transform="matrix(0.03527778,0,0,-0.03527778,-966.51582,398.8135)"
       clip-path="url(#clipPath2237)" />
    <path
       id="path2238"
       d="m 30323.3,7447.49 c -2.5,15.25 10.2,29.32 24,33.8 15.4,5.04 31.3,-2.12 42,-13.36 25.5,-26.75 18.9,-71.68 2.2,-101.43 -6.4,-11.48 -19.8,-24.23 -33.1,-14.23 -4.3,3.24 -6.2,8.65 -2.3,13.06 4.1,4.7 11.7,5.83 17.5,5.84 30.7,0.04 59,-27.43 67.3,-55.43 10.4,-34.83 -7.6,-73.45 -39.3,-90.18 -8.8,-4.61 -1,-17.86 7.7,-13.25 37.4,19.71 58.4,65.68 46.7,106.64 -5.7,20.12 -18.5,37.63 -35.2,50.12 -15.7,11.76 -36.6,20 -56.4,16.57 -8.9,-1.54 -17.9,-6.02 -22.6,-14.04 -4.7,-7.87 -4.1,-17.81 1.1,-25.2 12.2,-17.03 35.6,-15.86 50.1,-2.96 16.6,14.82 24.2,41.46 27.2,62.69 3.3,23.18 -0.2,47.34 -14.7,66.29 -13.9,18.19 -37.4,30.66 -60.6,24.19 -23.2,-6.49 -40.4,-28.8 -36.4,-53.2 1.6,-9.72 16.4,-5.59 14.8,4.08"
       style="fill:#f4d1a6;fill-opacity:1;fill-rule:nonzero;stroke:none"
       transform="matrix(0.03527778,0,0,-0.03527778,-966.51582,398.8135)"
       clip-path="url(#clipPath2239)" />
    <path
       id="path2240"
       d="m 30069.5,7584.58 c 6.4,20.67 -4.8,42.17 -22.3,53.46 -20.8,13.43 -47.8,9.05 -68.7,-1.6 -37.4,-19.07 -67.9,-66.65 -50.1,-108.71 15.9,-37.6 62.6,-48.84 99.2,-39.58 9.2,2.31 19.7,5.74 26.4,12.64 7.3,7.46 8.2,19.92 0,27.13 -8.3,7.27 -19.6,2.33 -23.6,-6.81 -3.8,-8.92 -1.5,-19.43 3.3,-27.56 11,-18.91 35.6,-26.94 56.4,-23.85 27.4,4.06 48.6,25.05 67.2,43.88 6.9,7.04 -3.9,17.89 -10.8,10.85 -21.5,-21.78 -52.6,-52.12 -85.7,-35.38 -5.8,2.94 -11.1,7.12 -14.3,12.92 -1.3,2.48 -2.4,5.31 -2.7,8.15 -0.1,1.29 -0.1,2.58 0.3,3.83 l 0.8,2 c 0.6,1.23 -0.4,-0.41 -0.5,0.18 2,-10.19 -25.5,-14.59 -32.7,-15.32 -26.6,-2.7 -58.7,6.56 -69.5,33.61 -12,30.02 7.7,64.53 32.3,81.68 16.1,11.26 37.7,19.4 57.2,12.57 15.9,-5.55 28.2,-23.22 23,-40.01 -2.9,-9.45 11.9,-13.5 14.8,-4.08"
       style="fill:#f4d1a6;fill-opacity:1;fill-rule:nonzero;stroke:none"
       transform="matrix(0.03527778,0,0,-0.03527778,-966.51582,398.8135)"
       clip-path="url(#clipPath2241)" />
    <path
       id="path2242"
       d="m 29752.9,7410.88 c -8.8,21.84 -34.4,28.07 -54.9,19.05 -20.3,-8.97 -34.7,-29.41 -42.9,-49.43 -14.6,-35.72 -11.4,-84.7 24.4,-106.83 17.3,-10.7 48.4,-10.41 50.3,15.47 0.7,8.58 -3,17.85 -11,21.87 -10.5,5.3 -21.6,-1.9 -29.7,-8.3 -33.9,-26.79 -40.9,-76.31 -29.6,-115.9 6.9,-23.75 21.3,-49.68 47,-56.26 29.2,-7.49 56.8,11.97 78.5,28.94 7.8,6.07 -3.1,16.86 -10.8,10.85 -15,-11.66 -33.1,-25.15 -52.8,-26.03 -19.3,-0.87 -32.4,13.03 -40.4,29.16 -14,28.24 -15.8,65.39 -1.2,93.76 3.5,6.84 7.9,13.1 13.3,18.54 3.4,3.36 13.6,13.79 18.9,11.53 3.6,-1.56 3.1,-8.76 1.3,-11.39 -4.5,-6.75 -16,-4.03 -21.9,-1.27 -28.1,13.04 -33.1,49.06 -26.6,76.02 4.2,17.52 13,33.96 26.3,46.29 7.2,6.71 16.5,12.21 26.7,11.89 7.9,-0.25 17.1,-4.17 20.3,-12.04 3.6,-9.05 18.4,-5.1 14.8,4.08"
       style="fill:#f4d1a6;fill-opacity:1;fill-rule:nonzero;stroke:none"
       transform="matrix(0.03527778,0,0,-0.03527778,-966.51582,398.8135)"
       clip-path="url(#clipPath2243)" />
    <path
       id="path2244"
       d="m 29791.3,7470.81 c -13.6,14.81 -8.4,41.2 6.5,53.17 6.8,5.42 15.5,7.28 22.7,3.14 3.6,-2.05 6.4,-4.97 8.2,-8.67 1.8,-3.58 1.8,-6.54 0,-10.67 -1.4,-3.47 1.3,-7.79 4.5,-9.05 3.6,-1.47 7.4,-0.13 9.6,3.13 2.7,4.22 5.5,8.44 8.3,12.66 2.3,3.46 0.7,8.49 -2.8,10.5 -3.7,2.19 -8.2,0.72 -10.5,-2.76 -2.7,-4.21 -5.5,-8.43 -8.3,-12.65 4.7,-1.97 9.4,-3.94 14,-5.91 8.9,21.14 -14.1,43.34 -34.8,40.89 -23.7,-2.79 -38.8,-25.99 -40.3,-48.31 -1,-13.21 3.1,-26.53 12.1,-36.32 6.7,-7.28 17.5,3.59 10.8,10.85"
       style="fill:#f4d1a6;fill-opacity:1;fill-rule:nonzero;stroke:none"
       transform="matrix(0.03527778,0,0,-0.03527778,-966.51582,398.8135)"
       clip-path="url(#clipPath2245)" />
    <path
       id="path2246"
       d="m 29704.2,6577.13 c 103.9,-88.68 254.7,-158 394,-155.28 139.2,2.72 276.6,57.51 376.6,150.17 166.7,-28.62 191.6,-225.22 198.1,-284.69 -387.8,-47.23 -770.7,-55.3 -1160.2,-24.02 -8.6,0.69 -17.9,1.69 -24.2,7.36 -9,8.16 -8.4,22.05 -5.9,33.68 50.3,239.05 221.6,272.78 221.6,272.78"
       style="fill:#ef6a55;fill-opacity:1;fill-rule:nonzero;stroke:none"
       transform="matrix(0.03527778,0,0,-0.03527778,-966.51582,398.8135)"
       clip-path="url(#clipPath2247)" />
    <g
       id="g2257"
       transform="matrix(0.26458333,0,0,0.26458333,-966.51582,40.299564)">
      <path
         d="m 29702.1,6579.41 c -30.5,-1.26 -52.9,-34.55 -45.9,-63 6.9,-28.46 37.2,-48.34 67.7,-49.65 30.5,-1.31 60.1,13.3 81.6,34.08 -27.3,-37.32 -6.6,-97.39 38.6,-111.83 45.2,-14.45 99.5,21.6 101.2,67.1 1.4,-32.35 3.9,-67.51 26.4,-91.73 27.5,-29.55 79.1,-31.28 113,-8.59 33.8,22.69 50,64.58 47.3,104.02 1.7,-49.11 55.6,-90.23 106.1,-80.82 50.4,9.41 84.2,66.91 66.4,113.01 20.3,-36.9 69.4,-59.59 110,-44.64 40.7,14.96 59.9,71.13 31,102.32 6.6,-15.33 14.5,-31.94 30.1,-39.17 32.3,-14.93 67.4,26.45 59.2,59.81 -8.3,33.37 -40.4,55.47 -70.3,74.49 l -762.4,-65.4"
         style="fill:#ffffff;fill-opacity:1;fill-rule:nonzero;stroke:none"
         transform="matrix(0.13333333,0,0,-0.13333333,0,1355.0133)"
         clip-path="url(#clipPath2248)"
         id="path2253" />
      <path
         d="m 30426.1,6384.84 c 2.2,-36.54 4.5,-73.09 6.7,-109.63 0.6,-9.81 15.9,-9.88 15.3,0 -2.2,36.54 -4.4,73.09 -6.7,109.63 -0.6,9.81 -15.9,9.88 -15.3,0"
         style="fill:#a3362b;fill-opacity:1;fill-rule:nonzero;stroke:none"
         transform="matrix(0.13333333,0,0,-0.13333333,0,1355.0133)"
         clip-path="url(#clipPath2249)"
         id="path2254" />
      <path
         d="m 30465.6,6393.7 c -19.9,-26.38 -33,-57.68 -37.9,-90.32 -0.6,-4.1 1.1,-8.25 5.4,-9.44 3.6,-1 8.8,1.23 9.4,5.36 4.8,31.56 17.1,61.15 36.3,86.66 2.5,3.31 0.6,8.57 -2.7,10.5 -4,2.29 -8,0.57 -10.5,-2.76"
         style="fill:#a3362b;fill-opacity:1;fill-rule:nonzero;stroke:none"
         transform="matrix(0.13333333,0,0,-0.13333333,0,1355.0133)"
         clip-path="url(#clipPath2250)"
         id="path2255" />
      <path
         d="m 29736.3,6382.64 c 8.5,-38.37 16.9,-76.74 25.4,-115.11 2.1,-9.64 16.9,-5.56 14.8,4.08 -8.5,38.37 -16.9,76.74 -25.4,115.11 -2.1,9.64 -16.9,5.56 -14.8,-4.08"
         style="fill:#a3362b;fill-opacity:1;fill-rule:nonzero;stroke:none"
         transform="matrix(0.13333333,0,0,-0.13333333,0,1355.0133)"
         clip-path="url(#clipPath2251)"
         id="path2256" />
      <path
         d="m 29723.9,6353.58 c 10.5,-12.21 20.9,-24.41 31.3,-36.63 2.6,-3.06 8.2,-2.89 10.9,0 3,3.27 2.8,7.59 0,10.86 -10.5,12.21 -20.9,24.42 -31.3,36.63 -2.6,3.06 -8.2,2.89 -10.9,0 -3,-3.27 -2.8,-7.59 0,-10.86"
         style="fill:#a3362b;fill-opacity:1;fill-rule:nonzero;stroke:none"
         transform="matrix(0.13333333,0,0,-0.13333333,0,1355.0133)"
         clip-path="url(#clipPath2252)"
         id="path2257" />
    </g>
    <path
       id="path2258"
       d="m 29882.1,6638.47 c 51,-41.88 107.8,-85.18 176.2,-89.11 57.4,-3.29 116.2,15.69 164.2,46.35 26.4,16.91 50.3,38.08 68.4,63.89 2.8,4.06 -3.8,7.9 -6.6,3.87 -31.5,-45 -81.8,-76.27 -133.3,-93.18 -26.6,-8.7 -54.5,-13.84 -82.5,-13.59 -29,0.26 -56.3,7.35 -82.4,19.84 -36.1,17.27 -67.8,42.1 -98.6,67.36 -3.8,3.11 -9.3,-2.29 -5.4,-5.43"
       style="fill:#ef6a55;fill-opacity:1;fill-rule:nonzero;stroke:none"
       transform="matrix(0.03527778,0,0,-0.03527778,-966.51582,398.8135)"
       clip-path="url(#clipPath2259)" />
    <path
       id="path2260"
       d="m 29947,6620.61 c 0,-18.36 -14.9,-33.25 -33.3,-33.25 -18.4,0 -33.3,14.89 -33.3,33.25 0,18.37 14.9,33.25 33.3,33.25 18.4,0 33.3,-14.88 33.3,-33.25"
       style="fill:#f9e5cb;fill-opacity:1;fill-rule:nonzero;stroke:none"
       transform="matrix(0.03527778,0,0,-0.03527778,-966.51582,398.8135)"
       clip-path="url(#clipPath2261)" />
    <path
       id="path2262"
       d="m 30008.5,6574.57 c 0,-18.36 -14.9,-33.25 -33.3,-33.25 -18.4,0 -33.3,14.89 -33.3,33.25 0,18.37 14.9,33.25 33.3,33.25 18.4,0 33.3,-14.88 33.3,-33.25"
       style="fill:#f9e5cb;fill-opacity:1;fill-rule:nonzero;stroke:none"
       transform="matrix(0.03527778,0,0,-0.03527778,-966.51582,398.8135)"
       clip-path="url(#clipPath2263)" />
    <path
       id="path2264"
       d="m 30080.2,6554.11 c 0,-18.36 -14.9,-33.25 -33.3,-33.25 -18.4,0 -33.3,14.89 -33.3,33.25 0,18.37 14.9,33.25 33.3,33.25 18.4,0 33.3,-14.88 33.3,-33.25"
       style="fill:#f9e5cb;fill-opacity:1;fill-rule:nonzero;stroke:none"
       transform="matrix(0.03527778,0,0,-0.03527778,-966.51582,398.8135)"
       clip-path="url(#clipPath2265)" />
    <path
       id="path2266"
       d="m 30151.9,6549 c 0,-18.37 -14.9,-33.25 -33.3,-33.25 -18.4,0 -33.3,14.88 -33.3,33.25 0,18.36 14.9,33.25 33.3,33.25 18.4,0 33.3,-14.89 33.3,-33.25"
       style="fill:#f9e5cb;fill-opacity:1;fill-rule:nonzero;stroke:none"
       transform="matrix(0.03527778,0,0,-0.03527778,-966.51582,398.8135)"
       clip-path="url(#clipPath2267)" />
    <path
       id="path2268"
       d="m 30228.7,6584.81 c 0,-18.37 -14.9,-33.26 -33.3,-33.26 -18.4,0 -33.3,14.89 -33.3,33.26 0,18.36 14.9,33.25 33.3,33.25 18.4,0 33.3,-14.89 33.3,-33.25"
       style="fill:#f9e5cb;fill-opacity:1;fill-rule:nonzero;stroke:none"
       transform="matrix(0.03527778,0,0,-0.03527778,-966.51582,398.8135)"
       clip-path="url(#clipPath2269)" />
    <path
       id="path2270"
       d="m 30295.3,6630.84 c 0,-18.36 -14.9,-33.25 -33.3,-33.25 -18.4,0 -33.3,14.89 -33.3,33.25 0,18.37 14.9,33.25 33.3,33.25 18.4,0 33.3,-14.88 33.3,-33.25"
       style="fill:#f9e5cb;fill-opacity:1;fill-rule:nonzero;stroke:none"
       transform="matrix(0.03527778,0,0,-0.03527778,-966.51582,398.8135)"
       clip-path="url(#clipPath2271)" />
  </g>
</svg>
