<?xml version="1.0" encoding="UTF-8" standalone="no"?>
<!-- Created with Inkscape (http://www.inkscape.org/) -->

<svg
   width="15.196668pc"
   height="15.682837pc"
   viewBox="0 0 64.33256 66.390675"
   version="1.1"
   id="svg1"
   sodipodi:docname="grandmother-avatar.svg"
   inkscape:version="1.3.2 (091e20e, 2023-11-25)"
   xmlns:inkscape="http://www.inkscape.org/namespaces/inkscape"
   xmlns:sodipodi="http://sodipodi.sourceforge.net/DTD/sodipodi-0.dtd"
   xmlns="http://www.w3.org/2000/svg"
   xmlns:svg="http://www.w3.org/2000/svg">
  <sodipodi:namedview
     id="namedview1"
     pagecolor="#ffffff"
     bordercolor="#d3d3d3"
     borderopacity="0"
     inkscape:showpageshadow="false"
     inkscape:pageopacity="0.0"
     inkscape:pagecheckerboard="0"
     inkscape:deskcolor="#d1d1d1"
     inkscape:document-units="pc"
     inkscape:zoom="0.4045437"
     inkscape:cx="195.28175"
     inkscape:cy="-8.6517229"
     inkscape:window-width="1920"
     inkscape:window-height="1052"
     inkscape:window-x="0"
     inkscape:window-y="28"
     inkscape:window-maximized="0"
     inkscape:current-layer="layer1"
     showborder="false"
     showgrid="true"
     showguides="true" />
  <defs
     id="defs1">
    <clipPath
       clipPathUnits="userSpaceOnUse"
       id="clipPath129">
      <path
         d="m 17966.8,7228.16 c 0,-503.58 -408.2,-911.79 -911.8,-911.79 -503.6,0 -911.8,408.21 -911.8,911.79 0,503.56 408.2,911.79 911.8,911.79 503.6,0 911.8,-408.23 911.8,-911.79"
         transform="translate(0,-2.5e-4)"
         id="path129" />
    </clipPath>
    <clipPath
       clipPathUnits="userSpaceOnUse"
       id="clipPath129-0">
      <path
         d="m 17966.8,7228.16 c 0,-503.58 -408.2,-911.79 -911.8,-911.79 -503.6,0 -911.8,408.21 -911.8,911.79 0,503.56 408.2,911.79 911.8,911.79 503.6,0 911.8,-408.23 911.8,-911.79"
         transform="translate(0,-2.5e-4)"
         id="path129-2" />
    </clipPath>
    <clipPath
       clipPathUnits="userSpaceOnUse"
       id="clipPath131">
      <path
         d="m 17966.8,7228.16 c 0,-503.58 -408.2,-911.79 -911.8,-911.79 -503.6,0 -911.8,408.21 -911.8,911.79 0,503.56 408.2,911.79 911.8,911.79 503.6,0 911.8,-408.23 911.8,-911.79"
         transform="translate(0,-2.5e-4)"
         id="path131" />
    </clipPath>
    <clipPath
       clipPathUnits="userSpaceOnUse"
       id="clipPath133">
      <path
         d="m 17966.8,7228.16 c 0,-503.58 -408.2,-911.79 -911.8,-911.79 -503.6,0 -911.8,408.21 -911.8,911.79 0,503.56 408.2,911.79 911.8,911.79 503.6,0 911.8,-408.23 911.8,-911.79"
         transform="translate(0,-2.5e-4)"
         id="path133" />
    </clipPath>
    <clipPath
       clipPathUnits="userSpaceOnUse"
       id="clipPath225">
      <path
         d="m 17966.8,7228.16 c 0,-503.58 -408.2,-911.79 -911.8,-911.79 -503.6,0 -911.8,408.21 -911.8,911.79 0,503.56 408.2,911.79 911.8,911.79 503.6,0 911.8,-408.23 911.8,-911.79"
         transform="translate(0,-2.5e-4)"
         id="path225" />
    </clipPath>
    <clipPath
       clipPathUnits="userSpaceOnUse"
       id="clipPath134">
      <path
         d="m 16781.4,6760.66 c 143.5,20.49 182.9,-11.96 281.8,-15.37 98.8,-3.4 233.4,-71.05 302.2,0 -17.2,-153.64 -72.3,-345.19 -63.5,-499.54 -155.1,5.51 -310.9,-11.1 -461.4,-49.18 12.8,136.97 -4.2,276.63 -49.3,406.59 l -9.8,157.5"
         transform="translate(0,-2.5e-4)"
         id="path134" />
    </clipPath>
    <clipPath
       clipPathUnits="userSpaceOnUse"
       id="clipPath135">
      <path
         d="m 16781.4,6760.66 c 143.5,20.49 182.9,-11.96 281.8,-15.37 98.8,-3.4 233.4,-71.05 302.2,0 -17.2,-153.64 -72.3,-345.19 -63.5,-499.54 -155.1,5.51 -310.9,-11.1 -461.4,-49.18 12.8,136.97 -4.2,276.63 -49.3,406.59 l -9.8,157.5"
         transform="translate(0,-2.5e-4)"
         id="path135" />
    </clipPath>
    <clipPath
       clipPathUnits="userSpaceOnUse"
       id="clipPath136">
      <path
         d="m 16781.4,6760.66 c 143.5,20.49 182.9,-11.96 281.8,-15.37 98.8,-3.4 233.4,-71.05 302.2,0 -17.2,-153.64 -72.3,-345.19 -63.5,-499.54 -155.1,5.51 -310.9,-11.1 -461.4,-49.18 12.8,136.97 -4.2,276.63 -49.3,406.59 l -9.8,157.5"
         transform="translate(0,-2.5e-4)"
         id="path136" />
    </clipPath>
    <clipPath
       clipPathUnits="userSpaceOnUse"
       id="clipPath137">
      <path
         d="m 16781.4,6760.66 c 143.5,20.49 182.9,-11.96 281.8,-15.37 98.8,-3.4 233.4,-71.05 302.2,0 -17.2,-153.64 -72.3,-345.19 -63.5,-499.54 -155.1,5.51 -310.9,-11.1 -461.4,-49.18 12.8,136.97 -4.2,276.63 -49.3,406.59 l -9.8,157.5"
         transform="translate(0,-2.5e-4)"
         id="path137" />
    </clipPath>
    <clipPath
       clipPathUnits="userSpaceOnUse"
       id="clipPath138">
      <path
         d="m 16781.4,6760.66 c 143.5,20.49 182.9,-11.96 281.8,-15.37 98.8,-3.4 233.4,-71.05 302.2,0 -17.2,-153.64 -72.3,-345.19 -63.5,-499.54 -155.1,5.51 -310.9,-11.1 -461.4,-49.18 12.8,136.97 -4.2,276.63 -49.3,406.59 l -9.8,157.5"
         transform="translate(0,-2.5e-4)"
         id="path138" />
    </clipPath>
    <clipPath
       clipPathUnits="userSpaceOnUse"
       id="clipPath139">
      <path
         d="m 16781.4,6760.66 c 143.5,20.49 182.9,-11.96 281.8,-15.37 98.8,-3.4 233.4,-71.05 302.2,0 -17.2,-153.64 -72.3,-345.19 -63.5,-499.54 -155.1,5.51 -310.9,-11.1 -461.4,-49.18 12.8,136.97 -4.2,276.63 -49.3,406.59 l -9.8,157.5"
         transform="translate(0,-2.5e-4)"
         id="path139" />
    </clipPath>
    <clipPath
       clipPathUnits="userSpaceOnUse"
       id="clipPath140">
      <path
         d="m 16781.4,6760.66 c 143.5,20.49 182.9,-11.96 281.8,-15.37 98.8,-3.4 233.4,-71.05 302.2,0 -17.2,-153.64 -72.3,-345.19 -63.5,-499.54 -155.1,5.51 -310.9,-11.1 -461.4,-49.18 12.8,136.97 -4.2,276.63 -49.3,406.59 l -9.8,157.5"
         transform="translate(0,-2.5e-4)"
         id="path140" />
    </clipPath>
    <clipPath
       clipPathUnits="userSpaceOnUse"
       id="clipPath141">
      <path
         d="m 16781.4,6760.66 c 143.5,20.49 182.9,-11.96 281.8,-15.37 98.8,-3.4 233.4,-71.05 302.2,0 -17.2,-153.64 -72.3,-345.19 -63.5,-499.54 -155.1,5.51 -310.9,-11.1 -461.4,-49.18 12.8,136.97 -4.2,276.63 -49.3,406.59 l -9.8,157.5"
         transform="translate(0,-2.5e-4)"
         id="path141" />
    </clipPath>
    <clipPath
       clipPathUnits="userSpaceOnUse"
       id="clipPath142">
      <path
         d="m 16781.4,6760.66 c 143.5,20.49 182.9,-11.96 281.8,-15.37 98.8,-3.4 233.4,-71.05 302.2,0 -17.2,-153.64 -72.3,-345.19 -63.5,-499.54 -155.1,5.51 -310.9,-11.1 -461.4,-49.18 12.8,136.97 -4.2,276.63 -49.3,406.59 l -9.8,157.5"
         transform="translate(0,-2.5e-4)"
         id="path142" />
    </clipPath>
    <clipPath
       clipPathUnits="userSpaceOnUse"
       id="clipPath143">
      <path
         d="m 16781.4,6760.66 c 143.5,20.49 182.9,-11.96 281.8,-15.37 98.8,-3.4 233.4,-71.05 302.2,0 -17.2,-153.64 -72.3,-345.19 -63.5,-499.54 -155.1,5.51 -310.9,-11.1 -461.4,-49.18 12.8,136.97 -4.2,276.63 -49.3,406.59 l -9.8,157.5"
         transform="translate(0,-2.5e-4)"
         id="path143" />
    </clipPath>
    <clipPath
       clipPathUnits="userSpaceOnUse"
       id="clipPath144">
      <path
         d="m 16781.4,6760.66 c 143.5,20.49 182.9,-11.96 281.8,-15.37 98.8,-3.4 233.4,-71.05 302.2,0 -17.2,-153.64 -72.3,-345.19 -63.5,-499.54 -155.1,5.51 -310.9,-11.1 -461.4,-49.18 12.8,136.97 -4.2,276.63 -49.3,406.59 l -9.8,157.5"
         transform="translate(0,-2.5e-4)"
         id="path144" />
    </clipPath>
    <clipPath
       clipPathUnits="userSpaceOnUse"
       id="clipPath145">
      <path
         d="m 16781.4,6760.66 c 143.5,20.49 182.9,-11.96 281.8,-15.37 98.8,-3.4 233.4,-71.05 302.2,0 -17.2,-153.64 -72.3,-345.19 -63.5,-499.54 -155.1,5.51 -310.9,-11.1 -461.4,-49.18 12.8,136.97 -4.2,276.63 -49.3,406.59 l -9.8,157.5"
         transform="translate(0,-2.5e-4)"
         id="path145" />
    </clipPath>
    <clipPath
       clipPathUnits="userSpaceOnUse"
       id="clipPath146">
      <path
         d="m 16781.4,6760.66 c 143.5,20.49 182.9,-11.96 281.8,-15.37 98.8,-3.4 233.4,-71.05 302.2,0 -17.2,-153.64 -72.3,-345.19 -63.5,-499.54 -155.1,5.51 -310.9,-11.1 -461.4,-49.18 12.8,136.97 -4.2,276.63 -49.3,406.59 l -9.8,157.5"
         transform="translate(0,-2.5e-4)"
         id="path146" />
    </clipPath>
    <clipPath
       clipPathUnits="userSpaceOnUse"
       id="clipPath147">
      <path
         d="m 16781.4,6760.66 c 143.5,20.49 182.9,-11.96 281.8,-15.37 98.8,-3.4 233.4,-71.05 302.2,0 -17.2,-153.64 -72.3,-345.19 -63.5,-499.54 -155.1,5.51 -310.9,-11.1 -461.4,-49.18 12.8,136.97 -4.2,276.63 -49.3,406.59 l -9.8,157.5"
         transform="translate(0,-2.5e-4)"
         id="path147" />
    </clipPath>
    <clipPath
       clipPathUnits="userSpaceOnUse"
       id="clipPath148">
      <path
         d="m 16781.4,6760.66 c 143.5,20.49 182.9,-11.96 281.8,-15.37 98.8,-3.4 233.4,-71.05 302.2,0 -17.2,-153.64 -72.3,-345.19 -63.5,-499.54 -155.1,5.51 -310.9,-11.1 -461.4,-49.18 12.8,136.97 -4.2,276.63 -49.3,406.59 l -9.8,157.5"
         transform="translate(0,-2.5e-4)"
         id="path148" />
    </clipPath>
    <clipPath
       clipPathUnits="userSpaceOnUse"
       id="clipPath149">
      <path
         d="m 16781.4,6760.66 c 143.5,20.49 182.9,-11.96 281.8,-15.37 98.8,-3.4 233.4,-71.05 302.2,0 -17.2,-153.64 -72.3,-345.19 -63.5,-499.54 -155.1,5.51 -310.9,-11.1 -461.4,-49.18 12.8,136.97 -4.2,276.63 -49.3,406.59 l -9.8,157.5"
         transform="translate(0,-2.5e-4)"
         id="path149" />
    </clipPath>
    <clipPath
       clipPathUnits="userSpaceOnUse"
       id="clipPath150">
      <path
         d="m 16781.4,6760.66 c 143.5,20.49 182.9,-11.96 281.8,-15.37 98.8,-3.4 233.4,-71.05 302.2,0 -17.2,-153.64 -72.3,-345.19 -63.5,-499.54 -155.1,5.51 -310.9,-11.1 -461.4,-49.18 12.8,136.97 -4.2,276.63 -49.3,406.59 l -9.8,157.5"
         transform="translate(0,-2.5e-4)"
         id="path150" />
    </clipPath>
    <clipPath
       clipPathUnits="userSpaceOnUse"
       id="clipPath151">
      <path
         d="m 16781.4,6760.66 c 143.5,20.49 182.9,-11.96 281.8,-15.37 98.8,-3.4 233.4,-71.05 302.2,0 -17.2,-153.64 -72.3,-345.19 -63.5,-499.54 -155.1,5.51 -310.9,-11.1 -461.4,-49.18 12.8,136.97 -4.2,276.63 -49.3,406.59 l -9.8,157.5"
         transform="translate(0,-2.5e-4)"
         id="path151" />
    </clipPath>
    <clipPath
       clipPathUnits="userSpaceOnUse"
       id="clipPath152">
      <path
         d="m 16781.4,6760.66 c 143.5,20.49 182.9,-11.96 281.8,-15.37 98.8,-3.4 233.4,-71.05 302.2,0 -17.2,-153.64 -72.3,-345.19 -63.5,-499.54 -155.1,5.51 -310.9,-11.1 -461.4,-49.18 12.8,136.97 -4.2,276.63 -49.3,406.59 l -9.8,157.5"
         transform="translate(0,-2.5e-4)"
         id="path152" />
    </clipPath>
    <clipPath
       clipPathUnits="userSpaceOnUse"
       id="clipPath153">
      <path
         d="m 16781.4,6760.66 c 143.5,20.49 182.9,-11.96 281.8,-15.37 98.8,-3.4 233.4,-71.05 302.2,0 -17.2,-153.64 -72.3,-345.19 -63.5,-499.54 -155.1,5.51 -310.9,-11.1 -461.4,-49.18 12.8,136.97 -4.2,276.63 -49.3,406.59 l -9.8,157.5"
         transform="translate(0,-2.5e-4)"
         id="path153" />
    </clipPath>
    <clipPath
       clipPathUnits="userSpaceOnUse"
       id="clipPath154">
      <path
         d="m 16781.4,6760.66 c 143.5,20.49 182.9,-11.96 281.8,-15.37 98.8,-3.4 233.4,-71.05 302.2,0 -17.2,-153.64 -72.3,-345.19 -63.5,-499.54 -155.1,5.51 -310.9,-11.1 -461.4,-49.18 12.8,136.97 -4.2,276.63 -49.3,406.59 l -9.8,157.5"
         transform="translate(0,-2.5e-4)"
         id="path154" />
    </clipPath>
    <clipPath
       clipPathUnits="userSpaceOnUse"
       id="clipPath155">
      <path
         d="m 16781.4,6760.66 c 143.5,20.49 182.9,-11.96 281.8,-15.37 98.8,-3.4 233.4,-71.05 302.2,0 -17.2,-153.64 -72.3,-345.19 -63.5,-499.54 -155.1,5.51 -310.9,-11.1 -461.4,-49.18 12.8,136.97 -4.2,276.63 -49.3,406.59 l -9.8,157.5"
         transform="translate(0,-2.5e-4)"
         id="path155" />
    </clipPath>
    <clipPath
       clipPathUnits="userSpaceOnUse"
       id="clipPath156">
      <path
         d="m 16781.4,6760.66 c 143.5,20.49 182.9,-11.96 281.8,-15.37 98.8,-3.4 233.4,-71.05 302.2,0 -17.2,-153.64 -72.3,-345.19 -63.5,-499.54 -155.1,5.51 -310.9,-11.1 -461.4,-49.18 12.8,136.97 -4.2,276.63 -49.3,406.59 l -9.8,157.5"
         transform="translate(0,-2.5e-4)"
         id="path156" />
    </clipPath>
    <clipPath
       clipPathUnits="userSpaceOnUse"
       id="clipPath157">
      <path
         d="m 16781.4,6760.66 c 143.5,20.49 182.9,-11.96 281.8,-15.37 98.8,-3.4 233.4,-71.05 302.2,0 -17.2,-153.64 -72.3,-345.19 -63.5,-499.54 -155.1,5.51 -310.9,-11.1 -461.4,-49.18 12.8,136.97 -4.2,276.63 -49.3,406.59 l -9.8,157.5"
         transform="translate(0,-2.5e-4)"
         id="path157" />
    </clipPath>
    <clipPath
       clipPathUnits="userSpaceOnUse"
       id="clipPath158">
      <path
         d="m 16781.4,6760.66 c 143.5,20.49 182.9,-11.96 281.8,-15.37 98.8,-3.4 233.4,-71.05 302.2,0 -17.2,-153.64 -72.3,-345.19 -63.5,-499.54 -155.1,5.51 -310.9,-11.1 -461.4,-49.18 12.8,136.97 -4.2,276.63 -49.3,406.59 l -9.8,157.5"
         transform="translate(0,-2.5e-4)"
         id="path158" />
    </clipPath>
    <clipPath
       clipPathUnits="userSpaceOnUse"
       id="clipPath159">
      <path
         d="m 16781.4,6760.66 c 143.5,20.49 182.9,-11.96 281.8,-15.37 98.8,-3.4 233.4,-71.05 302.2,0 -17.2,-153.64 -72.3,-345.19 -63.5,-499.54 -155.1,5.51 -310.9,-11.1 -461.4,-49.18 12.8,136.97 -4.2,276.63 -49.3,406.59 l -9.8,157.5"
         transform="translate(0,-2.5e-4)"
         id="path159" />
    </clipPath>
    <clipPath
       clipPathUnits="userSpaceOnUse"
       id="clipPath160">
      <path
         d="m 16781.4,6760.66 c 143.5,20.49 182.9,-11.96 281.8,-15.37 98.8,-3.4 233.4,-71.05 302.2,0 -17.2,-153.64 -72.3,-345.19 -63.5,-499.54 -155.1,5.51 -310.9,-11.1 -461.4,-49.18 12.8,136.97 -4.2,276.63 -49.3,406.59 l -9.8,157.5"
         transform="translate(0,-2.5e-4)"
         id="path160" />
    </clipPath>
    <clipPath
       clipPathUnits="userSpaceOnUse"
       id="clipPath161">
      <path
         d="m 16781.4,6760.66 c 143.5,20.49 182.9,-11.96 281.8,-15.37 98.8,-3.4 233.4,-71.05 302.2,0 -17.2,-153.64 -72.3,-345.19 -63.5,-499.54 -155.1,5.51 -310.9,-11.1 -461.4,-49.18 12.8,136.97 -4.2,276.63 -49.3,406.59 l -9.8,157.5"
         transform="translate(0,-2.5e-4)"
         id="path161" />
    </clipPath>
    <clipPath
       clipPathUnits="userSpaceOnUse"
       id="clipPath162">
      <path
         d="m 16781.4,6760.66 c 143.5,20.49 182.9,-11.96 281.8,-15.37 98.8,-3.4 233.4,-71.05 302.2,0 -17.2,-153.64 -72.3,-345.19 -63.5,-499.54 -155.1,5.51 -310.9,-11.1 -461.4,-49.18 12.8,136.97 -4.2,276.63 -49.3,406.59 l -9.8,157.5"
         transform="translate(0,-2.5e-4)"
         id="path162" />
    </clipPath>
    <clipPath
       clipPathUnits="userSpaceOnUse"
       id="clipPath163">
      <path
         d="m 16781.4,6760.66 c 143.5,20.49 182.9,-11.96 281.8,-15.37 98.8,-3.4 233.4,-71.05 302.2,0 -17.2,-153.64 -72.3,-345.19 -63.5,-499.54 -155.1,5.51 -310.9,-11.1 -461.4,-49.18 12.8,136.97 -4.2,276.63 -49.3,406.59 l -9.8,157.5"
         transform="translate(0,-2.5e-4)"
         id="path163" />
    </clipPath>
    <clipPath
       clipPathUnits="userSpaceOnUse"
       id="clipPath164">
      <path
         d="m 16781.4,6760.66 c 143.5,20.49 182.9,-11.96 281.8,-15.37 98.8,-3.4 233.4,-71.05 302.2,0 -17.2,-153.64 -72.3,-345.19 -63.5,-499.54 -155.1,5.51 -310.9,-11.1 -461.4,-49.18 12.8,136.97 -4.2,276.63 -49.3,406.59 l -9.8,157.5"
         transform="translate(0,-2.5e-4)"
         id="path164" />
    </clipPath>
    <clipPath
       clipPathUnits="userSpaceOnUse"
       id="clipPath165">
      <path
         d="m 16781.4,6760.66 c 143.5,20.49 182.9,-11.96 281.8,-15.37 98.8,-3.4 233.4,-71.05 302.2,0 -17.2,-153.64 -72.3,-345.19 -63.5,-499.54 -155.1,5.51 -310.9,-11.1 -461.4,-49.18 12.8,136.97 -4.2,276.63 -49.3,406.59 l -9.8,157.5"
         transform="translate(0,-2.5e-4)"
         id="path165" />
    </clipPath>
    <clipPath
       clipPathUnits="userSpaceOnUse"
       id="clipPath166">
      <path
         d="m 16781.4,6760.66 c 143.5,20.49 182.9,-11.96 281.8,-15.37 98.8,-3.4 233.4,-71.05 302.2,0 -17.2,-153.64 -72.3,-345.19 -63.5,-499.54 -155.1,5.51 -310.9,-11.1 -461.4,-49.18 12.8,136.97 -4.2,276.63 -49.3,406.59 l -9.8,157.5"
         transform="translate(0,-2.5e-4)"
         id="path166" />
    </clipPath>
    <clipPath
       clipPathUnits="userSpaceOnUse"
       id="clipPath167">
      <path
         d="m 16781.4,6760.66 c 143.5,20.49 182.9,-11.96 281.8,-15.37 98.8,-3.4 233.4,-71.05 302.2,0 -17.2,-153.64 -72.3,-345.19 -63.5,-499.54 -155.1,5.51 -310.9,-11.1 -461.4,-49.18 12.8,136.97 -4.2,276.63 -49.3,406.59 l -9.8,157.5"
         transform="translate(0,-2.5e-4)"
         id="path167" />
    </clipPath>
    <clipPath
       clipPathUnits="userSpaceOnUse"
       id="clipPath168">
      <path
         d="m 16781.4,6760.66 c 143.5,20.49 182.9,-11.96 281.8,-15.37 98.8,-3.4 233.4,-71.05 302.2,0 -17.2,-153.64 -72.3,-345.19 -63.5,-499.54 -155.1,5.51 -310.9,-11.1 -461.4,-49.18 12.8,136.97 -4.2,276.63 -49.3,406.59 l -9.8,157.5"
         transform="translate(0,-2.5e-4)"
         id="path168" />
    </clipPath>
    <clipPath
       clipPathUnits="userSpaceOnUse"
       id="clipPath169">
      <path
         d="m 16781.4,6760.66 c 143.5,20.49 182.9,-11.96 281.8,-15.37 98.8,-3.4 233.4,-71.05 302.2,0 -17.2,-153.64 -72.3,-345.19 -63.5,-499.54 -155.1,5.51 -310.9,-11.1 -461.4,-49.18 12.8,136.97 -4.2,276.63 -49.3,406.59 l -9.8,157.5"
         transform="translate(0,-2.5e-4)"
         id="path169" />
    </clipPath>
    <clipPath
       clipPathUnits="userSpaceOnUse"
       id="clipPath170">
      <path
         d="m 16781.4,6760.66 c 143.5,20.49 182.9,-11.96 281.8,-15.37 98.8,-3.4 233.4,-71.05 302.2,0 -17.2,-153.64 -72.3,-345.19 -63.5,-499.54 -155.1,5.51 -310.9,-11.1 -461.4,-49.18 12.8,136.97 -4.2,276.63 -49.3,406.59 l -9.8,157.5"
         transform="translate(0,-2.5e-4)"
         id="path170" />
    </clipPath>
    <clipPath
       clipPathUnits="userSpaceOnUse"
       id="clipPath171">
      <path
         d="m 16781.4,6760.66 c 143.5,20.49 182.9,-11.96 281.8,-15.37 98.8,-3.4 233.4,-71.05 302.2,0 -17.2,-153.64 -72.3,-345.19 -63.5,-499.54 -155.1,5.51 -310.9,-11.1 -461.4,-49.18 12.8,136.97 -4.2,276.63 -49.3,406.59 l -9.8,157.5"
         transform="translate(0,-2.5e-4)"
         id="path171" />
    </clipPath>
    <clipPath
       clipPathUnits="userSpaceOnUse"
       id="clipPath172">
      <path
         d="m 16781.4,6760.66 c 143.5,20.49 182.9,-11.96 281.8,-15.37 98.8,-3.4 233.4,-71.05 302.2,0 -17.2,-153.64 -72.3,-345.19 -63.5,-499.54 -155.1,5.51 -310.9,-11.1 -461.4,-49.18 12.8,136.97 -4.2,276.63 -49.3,406.59 l -9.8,157.5"
         transform="translate(0,-2.5e-4)"
         id="path172" />
    </clipPath>
    <clipPath
       clipPathUnits="userSpaceOnUse"
       id="clipPath173">
      <path
         d="m 16781.4,6760.66 c 143.5,20.49 182.9,-11.96 281.8,-15.37 98.8,-3.4 233.4,-71.05 302.2,0 -17.2,-153.64 -72.3,-345.19 -63.5,-499.54 -155.1,5.51 -310.9,-11.1 -461.4,-49.18 12.8,136.97 -4.2,276.63 -49.3,406.59 l -9.8,157.5"
         transform="translate(0,-2.5e-4)"
         id="path173" />
    </clipPath>
    <clipPath
       clipPathUnits="userSpaceOnUse"
       id="clipPath174">
      <path
         d="m 16781.4,6760.66 c 143.5,20.49 182.9,-11.96 281.8,-15.37 98.8,-3.4 233.4,-71.05 302.2,0 -17.2,-153.64 -72.3,-345.19 -63.5,-499.54 -155.1,5.51 -310.9,-11.1 -461.4,-49.18 12.8,136.97 -4.2,276.63 -49.3,406.59 l -9.8,157.5"
         transform="translate(0,-2.5e-4)"
         id="path174" />
    </clipPath>
    <clipPath
       clipPathUnits="userSpaceOnUse"
       id="clipPath175">
      <path
         d="m 16781.4,6760.66 c 143.5,20.49 182.9,-11.96 281.8,-15.37 98.8,-3.4 233.4,-71.05 302.2,0 -17.2,-153.64 -72.3,-345.19 -63.5,-499.54 -155.1,5.51 -310.9,-11.1 -461.4,-49.18 12.8,136.97 -4.2,276.63 -49.3,406.59 l -9.8,157.5"
         transform="translate(0,-2.5e-4)"
         id="path175" />
    </clipPath>
    <clipPath
       clipPathUnits="userSpaceOnUse"
       id="clipPath176">
      <path
         d="m 16781.4,6760.66 c 143.5,20.49 182.9,-11.96 281.8,-15.37 98.8,-3.4 233.4,-71.05 302.2,0 -17.2,-153.64 -72.3,-345.19 -63.5,-499.54 -155.1,5.51 -310.9,-11.1 -461.4,-49.18 12.8,136.97 -4.2,276.63 -49.3,406.59 l -9.8,157.5"
         transform="translate(0,-2.5e-4)"
         id="path176" />
    </clipPath>
    <clipPath
       clipPathUnits="userSpaceOnUse"
       id="clipPath221">
      <path
         d="m 17966.8,7228.16 c 0,-503.58 -408.2,-911.79 -911.8,-911.79 -503.6,0 -911.8,408.21 -911.8,911.79 0,503.56 408.2,911.79 911.8,911.79 503.6,0 911.8,-408.23 911.8,-911.79"
         transform="translate(0,-2.5e-4)"
         id="path221" />
    </clipPath>
    <clipPath
       clipPathUnits="userSpaceOnUse"
       id="clipPath223">
      <path
         d="m 17966.8,7228.16 c 0,-503.58 -408.2,-911.79 -911.8,-911.79 -503.6,0 -911.8,408.21 -911.8,911.79 0,503.56 408.2,911.79 911.8,911.79 503.6,0 911.8,-408.23 911.8,-911.79"
         transform="translate(0,-2.5e-4)"
         id="path223" />
    </clipPath>
    <clipPath
       clipPathUnits="userSpaceOnUse"
       id="clipPath226">
      <path
         d="m 16603.1,6695.7 c 84.8,56.8 187.4,79.55 287.4,99.66 6.1,1.23 12.5,2.55 17.4,6.39 8.4,6.56 -10.7,171.29 0,267.95 l 142.9,-13.37 142.9,13.37 c 10.6,-96.66 -8.4,-261.39 0,-267.95 4.9,-3.84 11.2,-5.16 17.3,-6.39 100.1,-20.11 202.6,-42.86 287.5,-99.66 84.8,-56.82 149,-376.16 135.4,-477.34 -85.2,0.44 -322.9,219.17 -563.8,216 v -0.52 c -6.4,0.09 -12.9,0.18 -19.3,0.26 -6.5,-0.08 -12.9,-0.17 -19.4,-0.26 v 0.52 c -240.8,3.17 -478.6,-215.56 -563.7,-216 -13.7,101.18 50.6,420.52 135.4,477.34"
         transform="translate(0,-2.5e-4)"
         id="path226" />
    </clipPath>
    <clipPath
       clipPathUnits="userSpaceOnUse"
       id="clipPath229">
      <path
         d="m 17966.8,7228.16 c 0,-503.58 -408.2,-911.79 -911.8,-911.79 -503.6,0 -911.8,408.21 -911.8,911.79 0,503.56 408.2,911.79 911.8,911.79 503.6,0 911.8,-408.23 911.8,-911.79"
         transform="translate(0,-2.5e-4)"
         id="path229" />
    </clipPath>
    <clipPath
       clipPathUnits="userSpaceOnUse"
       id="clipPath231">
      <path
         d="m 17966.8,7228.16 c 0,-503.58 -408.2,-911.79 -911.8,-911.79 -503.6,0 -911.8,408.21 -911.8,911.79 0,503.56 408.2,911.79 911.8,911.79 503.6,0 911.8,-408.23 911.8,-911.79"
         transform="translate(0,-2.5e-4)"
         id="path231" />
    </clipPath>
    <clipPath
       clipPathUnits="userSpaceOnUse"
       id="clipPath233">
      <path
         d="m 17966.8,7228.16 c 0,-503.58 -408.2,-911.79 -911.8,-911.79 -503.6,0 -911.8,408.21 -911.8,911.79 0,503.56 408.2,911.79 911.8,911.79 503.6,0 911.8,-408.23 911.8,-911.79"
         transform="translate(0,-2.5e-4)"
         id="path233" />
    </clipPath>
    <clipPath
       clipPathUnits="userSpaceOnUse"
       id="clipPath235">
      <path
         d="m 17966.8,7228.16 c 0,-503.58 -408.2,-911.79 -911.8,-911.79 -503.6,0 -911.8,408.21 -911.8,911.79 0,503.56 408.2,911.79 911.8,911.79 503.6,0 911.8,-408.23 911.8,-911.79"
         transform="translate(0,-2.5e-4)"
         id="path235" />
    </clipPath>
    <clipPath
       clipPathUnits="userSpaceOnUse"
       id="clipPath237">
      <path
         d="m 17966.8,7228.16 c 0,-503.58 -408.2,-911.79 -911.8,-911.79 -503.6,0 -911.8,408.21 -911.8,911.79 0,503.56 408.2,911.79 911.8,911.79 503.6,0 911.8,-408.23 911.8,-911.79"
         transform="translate(0,-2.5e-4)"
         id="path237" />
    </clipPath>
    <clipPath
       clipPathUnits="userSpaceOnUse"
       id="clipPath239">
      <path
         d="m 17966.8,7228.16 c 0,-503.58 -408.2,-911.79 -911.8,-911.79 -503.6,0 -911.8,408.21 -911.8,911.79 0,503.56 408.2,911.79 911.8,911.79 503.6,0 911.8,-408.23 911.8,-911.79"
         transform="translate(0,-2.5e-4)"
         id="path239" />
    </clipPath>
    <clipPath
       clipPathUnits="userSpaceOnUse"
       id="clipPath241">
      <path
         d="m 17966.8,7228.16 c 0,-503.58 -408.2,-911.79 -911.8,-911.79 -503.6,0 -911.8,408.21 -911.8,911.79 0,503.56 408.2,911.79 911.8,911.79 503.6,0 911.8,-408.23 911.8,-911.79"
         transform="translate(0,-2.5e-4)"
         id="path241" />
    </clipPath>
    <clipPath
       clipPathUnits="userSpaceOnUse"
       id="clipPath243">
      <path
         d="m 17966.8,7228.16 c 0,-503.58 -408.2,-911.79 -911.8,-911.79 -503.6,0 -911.8,408.21 -911.8,911.79 0,503.56 408.2,911.79 911.8,911.79 503.6,0 911.8,-408.23 911.8,-911.79"
         transform="translate(0,-2.5e-4)"
         id="path243" />
    </clipPath>
    <clipPath
       clipPathUnits="userSpaceOnUse"
       id="clipPath245">
      <path
         d="m 17966.8,7228.16 c 0,-503.58 -408.2,-911.79 -911.8,-911.79 -503.6,0 -911.8,408.21 -911.8,911.79 0,503.56 408.2,911.79 911.8,911.79 503.6,0 911.8,-408.23 911.8,-911.79"
         transform="translate(0,-2.5e-4)"
         id="path245" />
    </clipPath>
    <clipPath
       clipPathUnits="userSpaceOnUse"
       id="clipPath247">
      <path
         d="m 17966.8,7228.16 c 0,-503.58 -408.2,-911.79 -911.8,-911.79 -503.6,0 -911.8,408.21 -911.8,911.79 0,503.56 408.2,911.79 911.8,911.79 503.6,0 911.8,-408.23 911.8,-911.79"
         transform="translate(0,-2.5e-4)"
         id="path247" />
    </clipPath>
    <clipPath
       clipPathUnits="userSpaceOnUse"
       id="clipPath249">
      <path
         d="m 17966.8,7228.16 c 0,-503.58 -408.2,-911.79 -911.8,-911.79 -503.6,0 -911.8,408.21 -911.8,911.79 0,503.56 408.2,911.79 911.8,911.79 503.6,0 911.8,-408.23 911.8,-911.79"
         transform="translate(0,-2.5e-4)"
         id="path249" />
    </clipPath>
    <clipPath
       clipPathUnits="userSpaceOnUse"
       id="clipPath251">
      <path
         d="m 17966.8,7228.16 c 0,-503.58 -408.2,-911.79 -911.8,-911.79 -503.6,0 -911.8,408.21 -911.8,911.79 0,503.56 408.2,911.79 911.8,911.79 503.6,0 911.8,-408.23 911.8,-911.79"
         transform="translate(0,-2.5e-4)"
         id="path251" />
    </clipPath>
    <clipPath
       clipPathUnits="userSpaceOnUse"
       id="clipPath253">
      <path
         d="m 17966.8,7228.16 c 0,-503.58 -408.2,-911.79 -911.8,-911.79 -503.6,0 -911.8,408.21 -911.8,911.79 0,503.56 408.2,911.79 911.8,911.79 503.6,0 911.8,-408.23 911.8,-911.79"
         transform="translate(0,-2.5e-4)"
         id="path253" />
    </clipPath>
    <clipPath
       clipPathUnits="userSpaceOnUse"
       id="clipPath255">
      <path
         d="m 17966.8,7228.16 c 0,-503.58 -408.2,-911.79 -911.8,-911.79 -503.6,0 -911.8,408.21 -911.8,911.79 0,503.56 408.2,911.79 911.8,911.79 503.6,0 911.8,-408.23 911.8,-911.79"
         transform="translate(0,-2.5e-4)"
         id="path255" />
    </clipPath>
    <clipPath
       clipPathUnits="userSpaceOnUse"
       id="clipPath257">
      <path
         d="m 17966.8,7228.16 c 0,-503.58 -408.2,-911.79 -911.8,-911.79 -503.6,0 -911.8,408.21 -911.8,911.79 0,503.56 408.2,911.79 911.8,911.79 503.6,0 911.8,-408.23 911.8,-911.79"
         transform="translate(0,-2.5e-4)"
         id="path257" />
    </clipPath>
    <clipPath
       clipPathUnits="userSpaceOnUse"
       id="clipPath259">
      <path
         d="m 17966.8,7228.16 c 0,-503.58 -408.2,-911.79 -911.8,-911.79 -503.6,0 -911.8,408.21 -911.8,911.79 0,503.56 408.2,911.79 911.8,911.79 503.6,0 911.8,-408.23 911.8,-911.79"
         transform="translate(0,-2.5e-4)"
         id="path259" />
    </clipPath>
    <clipPath
       clipPathUnits="userSpaceOnUse"
       id="clipPath261">
      <path
         d="m 17966.8,7228.16 c 0,-503.58 -408.2,-911.79 -911.8,-911.79 -503.6,0 -911.8,408.21 -911.8,911.79 0,503.56 408.2,911.79 911.8,911.79 503.6,0 911.8,-408.23 911.8,-911.79"
         transform="translate(0,-2.5e-4)"
         id="path261" />
    </clipPath>
    <clipPath
       clipPathUnits="userSpaceOnUse"
       id="clipPath263">
      <path
         d="m 17966.8,7228.16 c 0,-503.58 -408.2,-911.79 -911.8,-911.79 -503.6,0 -911.8,408.21 -911.8,911.79 0,503.56 408.2,911.79 911.8,911.79 503.6,0 911.8,-408.23 911.8,-911.79"
         transform="translate(0,-2.5e-4)"
         id="path263" />
    </clipPath>
    <clipPath
       clipPathUnits="userSpaceOnUse"
       id="clipPath265">
      <path
         d="m 17966.8,7228.16 c 0,-503.58 -408.2,-911.79 -911.8,-911.79 -503.6,0 -911.8,408.21 -911.8,911.79 0,503.56 408.2,911.79 911.8,911.79 503.6,0 911.8,-408.23 911.8,-911.79"
         transform="translate(0,-2.5e-4)"
         id="path265" />
    </clipPath>
    <clipPath
       clipPathUnits="userSpaceOnUse"
       id="clipPath267">
      <path
         d="m 17966.8,7228.16 c 0,-503.58 -408.2,-911.79 -911.8,-911.79 -503.6,0 -911.8,408.21 -911.8,911.79 0,503.56 408.2,911.79 911.8,911.79 503.6,0 911.8,-408.23 911.8,-911.79"
         transform="translate(0,-2.5e-4)"
         id="path267" />
    </clipPath>
    <clipPath
       clipPathUnits="userSpaceOnUse"
       id="clipPath269">
      <path
         d="m 17966.8,7228.16 c 0,-503.58 -408.2,-911.79 -911.8,-911.79 -503.6,0 -911.8,408.21 -911.8,911.79 0,503.56 408.2,911.79 911.8,911.79 503.6,0 911.8,-408.23 911.8,-911.79"
         transform="translate(0,-2.5e-4)"
         id="path269" />
    </clipPath>
    <clipPath
       clipPathUnits="userSpaceOnUse"
       id="clipPath271">
      <path
         d="m 17966.8,7228.16 c 0,-503.58 -408.2,-911.79 -911.8,-911.79 -503.6,0 -911.8,408.21 -911.8,911.79 0,503.56 408.2,911.79 911.8,911.79 503.6,0 911.8,-408.23 911.8,-911.79"
         transform="translate(0,-2.5e-4)"
         id="path271" />
    </clipPath>
    <clipPath
       clipPathUnits="userSpaceOnUse"
       id="clipPath273">
      <path
         d="m 17966.8,7228.16 c 0,-503.58 -408.2,-911.79 -911.8,-911.79 -503.6,0 -911.8,408.21 -911.8,911.79 0,503.56 408.2,911.79 911.8,911.79 503.6,0 911.8,-408.23 911.8,-911.79"
         transform="translate(0,-2.5e-4)"
         id="path273" />
    </clipPath>
    <clipPath
       clipPathUnits="userSpaceOnUse"
       id="clipPath275">
      <path
         d="m 17966.8,7228.16 c 0,-503.58 -408.2,-911.79 -911.8,-911.79 -503.6,0 -911.8,408.21 -911.8,911.79 0,503.56 408.2,911.79 911.8,911.79 503.6,0 911.8,-408.23 911.8,-911.79"
         transform="translate(0,-2.5e-4)"
         id="path275" />
    </clipPath>
    <clipPath
       clipPathUnits="userSpaceOnUse"
       id="clipPath277">
      <path
         d="m 17966.8,7228.16 c 0,-503.58 -408.2,-911.79 -911.8,-911.79 -503.6,0 -911.8,408.21 -911.8,911.79 0,503.56 408.2,911.79 911.8,911.79 503.6,0 911.8,-408.23 911.8,-911.79"
         transform="translate(0,-2.5e-4)"
         id="path277" />
    </clipPath>
    <clipPath
       clipPathUnits="userSpaceOnUse"
       id="clipPath279">
      <path
         d="m 17966.8,7228.16 c 0,-503.58 -408.2,-911.79 -911.8,-911.79 -503.6,0 -911.8,408.21 -911.8,911.79 0,503.56 408.2,911.79 911.8,911.79 503.6,0 911.8,-408.23 911.8,-911.79"
         transform="translate(0,-2.5e-4)"
         id="path279" />
    </clipPath>
    <clipPath
       clipPathUnits="userSpaceOnUse"
       id="clipPath281">
      <path
         d="m 17966.8,7228.16 c 0,-503.58 -408.2,-911.79 -911.8,-911.79 -503.6,0 -911.8,408.21 -911.8,911.79 0,503.56 408.2,911.79 911.8,911.79 503.6,0 911.8,-408.23 911.8,-911.79"
         transform="translate(0,-2.5e-4)"
         id="path281" />
    </clipPath>
    <clipPath
       clipPathUnits="userSpaceOnUse"
       id="clipPath283">
      <path
         d="m 17966.8,7228.16 c 0,-503.58 -408.2,-911.79 -911.8,-911.79 -503.6,0 -911.8,408.21 -911.8,911.79 0,503.56 408.2,911.79 911.8,911.79 503.6,0 911.8,-408.23 911.8,-911.79"
         transform="translate(0,-2.5e-4)"
         id="path283" />
    </clipPath>
    <clipPath
       clipPathUnits="userSpaceOnUse"
       id="clipPath285">
      <path
         d="m 17966.8,7228.16 c 0,-503.58 -408.2,-911.79 -911.8,-911.79 -503.6,0 -911.8,408.21 -911.8,911.79 0,503.56 408.2,911.79 911.8,911.79 503.6,0 911.8,-408.23 911.8,-911.79"
         transform="translate(0,-2.5e-4)"
         id="path285" />
    </clipPath>
    <clipPath
       clipPathUnits="userSpaceOnUse"
       id="clipPath287">
      <path
         d="m 17966.8,7228.16 c 0,-503.58 -408.2,-911.79 -911.8,-911.79 -503.6,0 -911.8,408.21 -911.8,911.79 0,503.56 408.2,911.79 911.8,911.79 503.6,0 911.8,-408.23 911.8,-911.79"
         transform="translate(0,-2.5e-4)"
         id="path287" />
    </clipPath>
    <clipPath
       clipPathUnits="userSpaceOnUse"
       id="clipPath289">
      <path
         d="m 17966.8,7228.16 c 0,-503.58 -408.2,-911.79 -911.8,-911.79 -503.6,0 -911.8,408.21 -911.8,911.79 0,503.56 408.2,911.79 911.8,911.79 503.6,0 911.8,-408.23 911.8,-911.79"
         transform="translate(0,-2.5e-4)"
         id="path289" />
    </clipPath>
    <clipPath
       clipPathUnits="userSpaceOnUse"
       id="clipPath291">
      <path
         d="m 17966.8,7228.16 c 0,-503.58 -408.2,-911.79 -911.8,-911.79 -503.6,0 -911.8,408.21 -911.8,911.79 0,503.56 408.2,911.79 911.8,911.79 503.6,0 911.8,-408.23 911.8,-911.79"
         transform="translate(0,-2.5e-4)"
         id="path291" />
    </clipPath>
    <clipPath
       clipPathUnits="userSpaceOnUse"
       id="clipPath293">
      <path
         d="m 17966.8,7228.16 c 0,-503.58 -408.2,-911.79 -911.8,-911.79 -503.6,0 -911.8,408.21 -911.8,911.79 0,503.56 408.2,911.79 911.8,911.79 503.6,0 911.8,-408.23 911.8,-911.79"
         transform="translate(0,-2.5e-4)"
         id="path293" />
    </clipPath>
    <clipPath
       clipPathUnits="userSpaceOnUse"
       id="clipPath295">
      <path
         d="m 17966.8,7228.16 c 0,-503.58 -408.2,-911.79 -911.8,-911.79 -503.6,0 -911.8,408.21 -911.8,911.79 0,503.56 408.2,911.79 911.8,911.79 503.6,0 911.8,-408.23 911.8,-911.79"
         transform="translate(0,-2.5e-4)"
         id="path295" />
    </clipPath>
    <clipPath
       clipPathUnits="userSpaceOnUse"
       id="clipPath297">
      <path
         d="m 17966.8,7228.16 c 0,-503.58 -408.2,-911.79 -911.8,-911.79 -503.6,0 -911.8,408.21 -911.8,911.79 0,503.56 408.2,911.79 911.8,911.79 503.6,0 911.8,-408.23 911.8,-911.79"
         transform="translate(0,-2.5e-4)"
         id="path297" />
    </clipPath>
    <clipPath
       clipPathUnits="userSpaceOnUse"
       id="clipPath299">
      <path
         d="m 17966.8,7228.16 c 0,-503.58 -408.2,-911.79 -911.8,-911.79 -503.6,0 -911.8,408.21 -911.8,911.79 0,503.56 408.2,911.79 911.8,911.79 503.6,0 911.8,-408.23 911.8,-911.79"
         transform="translate(0,-2.5e-4)"
         id="path299" />
    </clipPath>
    <clipPath
       clipPathUnits="userSpaceOnUse"
       id="clipPath301">
      <path
         d="m 17966.8,7228.16 c 0,-503.58 -408.2,-911.79 -911.8,-911.79 -503.6,0 -911.8,408.21 -911.8,911.79 0,503.56 408.2,911.79 911.8,911.79 503.6,0 911.8,-408.23 911.8,-911.79"
         transform="translate(0,-2.5e-4)"
         id="path301" />
    </clipPath>
    <clipPath
       clipPathUnits="userSpaceOnUse"
       id="clipPath303">
      <path
         d="m 17966.8,7228.16 c 0,-503.58 -408.2,-911.79 -911.8,-911.79 -503.6,0 -911.8,408.21 -911.8,911.79 0,503.56 408.2,911.79 911.8,911.79 503.6,0 911.8,-408.23 911.8,-911.79"
         transform="translate(0,-2.5e-4)"
         id="path303" />
    </clipPath>
    <clipPath
       clipPathUnits="userSpaceOnUse"
       id="clipPath305">
      <path
         d="m 17966.8,7228.16 c 0,-503.58 -408.2,-911.79 -911.8,-911.79 -503.6,0 -911.8,408.21 -911.8,911.79 0,503.56 408.2,911.79 911.8,911.79 503.6,0 911.8,-408.23 911.8,-911.79"
         transform="translate(0,-2.5e-4)"
         id="path305" />
    </clipPath>
    <clipPath
       clipPathUnits="userSpaceOnUse"
       id="clipPath307">
      <path
         d="m 17966.8,7228.16 c 0,-503.58 -408.2,-911.79 -911.8,-911.79 -503.6,0 -911.8,408.21 -911.8,911.79 0,503.56 408.2,911.79 911.8,911.79 503.6,0 911.8,-408.23 911.8,-911.79"
         transform="translate(0,-2.5e-4)"
         id="path307" />
    </clipPath>
    <clipPath
       clipPathUnits="userSpaceOnUse"
       id="clipPath309">
      <path
         d="m 17966.8,7228.16 c 0,-503.58 -408.2,-911.79 -911.8,-911.79 -503.6,0 -911.8,408.21 -911.8,911.79 0,503.56 408.2,911.79 911.8,911.79 503.6,0 911.8,-408.23 911.8,-911.79"
         transform="translate(0,-2.5e-4)"
         id="path309" />
    </clipPath>
    <clipPath
       clipPathUnits="userSpaceOnUse"
       id="clipPath311">
      <path
         d="m 17966.8,7228.16 c 0,-503.58 -408.2,-911.79 -911.8,-911.79 -503.6,0 -911.8,408.21 -911.8,911.79 0,503.56 408.2,911.79 911.8,911.79 503.6,0 911.8,-408.23 911.8,-911.79"
         transform="translate(0,-2.5e-4)"
         id="path311" />
    </clipPath>
    <clipPath
       clipPathUnits="userSpaceOnUse"
       id="clipPath313">
      <path
         d="m 17966.8,7228.16 c 0,-503.58 -408.2,-911.79 -911.8,-911.79 -503.6,0 -911.8,408.21 -911.8,911.79 0,503.56 408.2,911.79 911.8,911.79 503.6,0 911.8,-408.23 911.8,-911.79"
         transform="translate(0,-2.5e-4)"
         id="path313" />
    </clipPath>
    <clipPath
       clipPathUnits="userSpaceOnUse"
       id="clipPath315">
      <path
         d="m 17966.8,7228.16 c 0,-503.58 -408.2,-911.79 -911.8,-911.79 -503.6,0 -911.8,408.21 -911.8,911.79 0,503.56 408.2,911.79 911.8,911.79 503.6,0 911.8,-408.23 911.8,-911.79"
         transform="translate(0,-2.5e-4)"
         id="path315" />
    </clipPath>
    <clipPath
       clipPathUnits="userSpaceOnUse"
       id="clipPath317">
      <path
         d="m 17966.8,7228.16 c 0,-503.58 -408.2,-911.79 -911.8,-911.79 -503.6,0 -911.8,408.21 -911.8,911.79 0,503.56 408.2,911.79 911.8,911.79 503.6,0 911.8,-408.23 911.8,-911.79"
         transform="translate(0,-2.5e-4)"
         id="path317" />
    </clipPath>
    <clipPath
       clipPathUnits="userSpaceOnUse"
       id="clipPath319">
      <path
         d="m 17966.8,7228.16 c 0,-503.58 -408.2,-911.79 -911.8,-911.79 -503.6,0 -911.8,408.21 -911.8,911.79 0,503.56 408.2,911.79 911.8,911.79 503.6,0 911.8,-408.23 911.8,-911.79"
         transform="translate(0,-2.5e-4)"
         id="path319" />
    </clipPath>
    <clipPath
       clipPathUnits="userSpaceOnUse"
       id="clipPath321">
      <path
         d="m 17966.8,7228.16 c 0,-503.58 -408.2,-911.79 -911.8,-911.79 -503.6,0 -911.8,408.21 -911.8,911.79 0,503.56 408.2,911.79 911.8,911.79 503.6,0 911.8,-408.23 911.8,-911.79"
         transform="translate(0,-2.5e-4)"
         id="path321" />
    </clipPath>
    <clipPath
       clipPathUnits="userSpaceOnUse"
       id="clipPath323">
      <path
         d="m 17966.8,7228.16 c 0,-503.58 -408.2,-911.79 -911.8,-911.79 -503.6,0 -911.8,408.21 -911.8,911.79 0,503.56 408.2,911.79 911.8,911.79 503.6,0 911.8,-408.23 911.8,-911.79"
         transform="translate(0,-2.5e-4)"
         id="path323" />
    </clipPath>
    <clipPath
       clipPathUnits="userSpaceOnUse"
       id="clipPath325">
      <path
         d="m 17966.8,7228.16 c 0,-503.58 -408.2,-911.79 -911.8,-911.79 -503.6,0 -911.8,408.21 -911.8,911.79 0,503.56 408.2,911.79 911.8,911.79 503.6,0 911.8,-408.23 911.8,-911.79"
         transform="translate(0,-2.5e-4)"
         id="path325" />
    </clipPath>
    <clipPath
       clipPathUnits="userSpaceOnUse"
       id="clipPath327">
      <path
         d="m 17966.8,7228.16 c 0,-503.58 -408.2,-911.79 -911.8,-911.79 -503.6,0 -911.8,408.21 -911.8,911.79 0,503.56 408.2,911.79 911.8,911.79 503.6,0 911.8,-408.23 911.8,-911.79"
         transform="translate(0,-2.5e-4)"
         id="path327" />
    </clipPath>
    <clipPath
       clipPathUnits="userSpaceOnUse"
       id="clipPath329">
      <path
         d="m 17966.8,7228.16 c 0,-503.58 -408.2,-911.79 -911.8,-911.79 -503.6,0 -911.8,408.21 -911.8,911.79 0,503.56 408.2,911.79 911.8,911.79 503.6,0 911.8,-408.23 911.8,-911.79"
         transform="translate(0,-2.5e-4)"
         id="path329" />
    </clipPath>
    <clipPath
       clipPathUnits="userSpaceOnUse"
       id="clipPath331">
      <path
         d="m 17966.8,7228.16 c 0,-503.58 -408.2,-911.79 -911.8,-911.79 -503.6,0 -911.8,408.21 -911.8,911.79 0,503.56 408.2,911.79 911.8,911.79 503.6,0 911.8,-408.23 911.8,-911.79"
         transform="translate(0,-2.5e-4)"
         id="path331" />
    </clipPath>
    <clipPath
       clipPathUnits="userSpaceOnUse"
       id="clipPath333">
      <path
         d="m 17966.8,7228.16 c 0,-503.58 -408.2,-911.79 -911.8,-911.79 -503.6,0 -911.8,408.21 -911.8,911.79 0,503.56 408.2,911.79 911.8,911.79 503.6,0 911.8,-408.23 911.8,-911.79"
         transform="translate(0,-2.5e-4)"
         id="path333" />
    </clipPath>
    <clipPath
       clipPathUnits="userSpaceOnUse"
       id="clipPath335">
      <path
         d="m 17966.8,7228.16 c 0,-503.58 -408.2,-911.79 -911.8,-911.79 -503.6,0 -911.8,408.21 -911.8,911.79 0,503.56 408.2,911.79 911.8,911.79 503.6,0 911.8,-408.23 911.8,-911.79"
         transform="translate(0,-2.5e-4)"
         id="path335" />
    </clipPath>
    <clipPath
       clipPathUnits="userSpaceOnUse"
       id="clipPath337">
      <path
         d="m 17966.8,7228.16 c 0,-503.58 -408.2,-911.79 -911.8,-911.79 -503.6,0 -911.8,408.21 -911.8,911.79 0,503.56 408.2,911.79 911.8,911.79 503.6,0 911.8,-408.23 911.8,-911.79"
         transform="translate(0,-2.5e-4)"
         id="path337" />
    </clipPath>
    <clipPath
       clipPathUnits="userSpaceOnUse"
       id="clipPath339">
      <path
         d="m 17966.8,7228.16 c 0,-503.58 -408.2,-911.79 -911.8,-911.79 -503.6,0 -911.8,408.21 -911.8,911.79 0,503.56 408.2,911.79 911.8,911.79 503.6,0 911.8,-408.23 911.8,-911.79"
         transform="translate(0,-2.5e-4)"
         id="path339" />
    </clipPath>
    <clipPath
       clipPathUnits="userSpaceOnUse"
       id="clipPath341">
      <path
         d="m 17966.8,7228.16 c 0,-503.58 -408.2,-911.79 -911.8,-911.79 -503.6,0 -911.8,408.21 -911.8,911.79 0,503.56 408.2,911.79 911.8,911.79 503.6,0 911.8,-408.23 911.8,-911.79"
         transform="translate(0,-2.5e-4)"
         id="path341" />
    </clipPath>
    <clipPath
       clipPathUnits="userSpaceOnUse"
       id="clipPath343">
      <path
         d="m 17966.8,7228.16 c 0,-503.58 -408.2,-911.79 -911.8,-911.79 -503.6,0 -911.8,408.21 -911.8,911.79 0,503.56 408.2,911.79 911.8,911.79 503.6,0 911.8,-408.23 911.8,-911.79"
         transform="translate(0,-2.5e-4)"
         id="path343" />
    </clipPath>
    <clipPath
       clipPathUnits="userSpaceOnUse"
       id="clipPath345">
      <path
         d="m 17966.8,7228.16 c 0,-503.58 -408.2,-911.79 -911.8,-911.79 -503.6,0 -911.8,408.21 -911.8,911.79 0,503.56 408.2,911.79 911.8,911.79 503.6,0 911.8,-408.23 911.8,-911.79"
         transform="translate(0,-2.5e-4)"
         id="path345" />
    </clipPath>
    <clipPath
       clipPathUnits="userSpaceOnUse"
       id="clipPath347">
      <path
         d="m 17966.8,7228.16 c 0,-503.58 -408.2,-911.79 -911.8,-911.79 -503.6,0 -911.8,408.21 -911.8,911.79 0,503.56 408.2,911.79 911.8,911.79 503.6,0 911.8,-408.23 911.8,-911.79"
         transform="translate(0,-2.5e-4)"
         id="path347" />
    </clipPath>
    <clipPath
       clipPathUnits="userSpaceOnUse"
       id="clipPath349">
      <path
         d="m 17966.8,7228.16 c 0,-503.58 -408.2,-911.79 -911.8,-911.79 -503.6,0 -911.8,408.21 -911.8,911.79 0,503.56 408.2,911.79 911.8,911.79 503.6,0 911.8,-408.23 911.8,-911.79"
         transform="translate(0,-2.5e-4)"
         id="path349" />
    </clipPath>
    <clipPath
       clipPathUnits="userSpaceOnUse"
       id="clipPath351">
      <path
         d="m 17966.8,7228.16 c 0,-503.58 -408.2,-911.79 -911.8,-911.79 -503.6,0 -911.8,408.21 -911.8,911.79 0,503.56 408.2,911.79 911.8,911.79 503.6,0 911.8,-408.23 911.8,-911.79"
         transform="translate(0,-2.5e-4)"
         id="path351" />
    </clipPath>
  </defs>
  <g
     inkscape:label="Layer 1"
     inkscape:groupmode="layer"
     id="layer1"
     transform="translate(-71.013128,-116.45753)">
    <path
       id="path128-9"
       d="m 17966.8,6316.36 h -1823.6 v 1823.59 h 1823.6 V 6316.36"
       style="fill:#a59eff;fill-opacity:1;fill-rule:nonzero;stroke:none"
       transform="matrix(0.03527778,0,0,-0.03527778,-498.48313,403.61689)"
       clip-path="url(#clipPath129-0)" />
    <path
       id="path130"
       d="m 16603.1,6695.69 c 84.8,56.81 187.4,79.56 287.4,99.67 6.2,1.22 12.5,2.55 17.4,6.39 8.4,6.56 -10.7,171.3 0,267.96 l 142.9,-13.38 142.9,13.38 c 10.6,-96.66 -8.4,-261.4 0,-267.96 4.9,-3.84 11.2,-5.17 17.3,-6.39 100.1,-20.11 202.6,-42.86 287.5,-99.67 84.8,-56.8 149,-376.15 135.4,-477.33 -85.2,0.44 -322.9,219.16 -563.8,216 v -0.53 c -6.4,0.09 -12.9,0.18 -19.3,0.27 -6.5,-0.09 -12.9,-0.18 -19.4,-0.27 v 0.53 c -240.8,3.16 -478.6,-215.56 -563.7,-216 -13.7,101.18 50.6,420.53 135.4,477.33"
       style="fill:#fbd1b9;fill-opacity:1;fill-rule:nonzero;stroke:none"
       transform="matrix(0.03527778,0,0,-0.03527778,-498.48313,403.61689)"
       clip-path="url(#clipPath131)" />
    <path
       id="path132"
       d="m 16781.4,6760.66 c 143.5,20.49 182.9,-11.97 281.8,-15.37 98.8,-3.4 233.4,-71.04 302.2,0 -17.2,-153.63 -72.3,-345.19 -63.5,-499.54 -155.1,5.52 -310.9,-11.1 -461.4,-49.19 12.8,136.98 -4.2,276.65 -49.3,406.6 l -9.8,157.5"
       style="fill:#8ca3c3;fill-opacity:1;fill-rule:nonzero;stroke:none"
       transform="matrix(0.03527778,0,0,-0.03527778,-498.48313,403.61689)"
       clip-path="url(#clipPath133)" />
    <path
       id="path224"
       d="m 16787.5,7180.08 c -44.5,109.72 -89.3,233.96 -42.7,342.87 28.5,66.88 88.9,116.72 156.1,144.5 67.2,27.78 141,35.49 213.8,35.91 80,0.47 169.3,-12.26 219.2,-74.84 36.1,6.75 73.7,-10.64 98.9,-37.44 25.2,-26.8 39.7,-61.82 50.4,-97 76.5,-251.1 -40,-547.42 -266.9,-679.25 -47.4,80.7 -4.6,196.83 -10.5,273.33 -7.3,93.32 52.2,185.03 30.8,276.15 l -449.1,-184.23"
       style="fill:#72706e;fill-opacity:1;fill-rule:nonzero;stroke:none"
       transform="matrix(0.03527778,0,0,-0.03527778,-498.48313,403.61689)"
       clip-path="url(#clipPath225)" />
    <g
       id="g219"
       transform="matrix(0.26458333,0,0,0.26458333,-498.48313,45.102954)">
      <path
         d="m 17378.3,7136.12 c -61.1,-21.69 -111,-68.79 -139.5,-126.69 -28.8,-58.54 -36.4,-128.75 -12.1,-190.25 14.2,-36.03 38.7,-68.56 74.1,-85.88 8.8,-4.34 16.6,8.91 7.7,13.27 -58.1,28.46 -82.9,97.81 -80.9,159.13 2,59.84 28.5,118.22 70.2,160.85 23.8,24.23 52.6,43.38 84.6,54.75 9.2,3.29 5.3,18.14 -4.1,14.82"
         style="fill:#72706e;fill-opacity:1;fill-rule:nonzero;stroke:none"
         transform="matrix(0.13333333,0,0,-0.13333333,0,1355.0133)"
         clip-path="url(#clipPath134)"
         id="path177" />
      <path
         d="m 16876.8,6731.04 c 24.7,11.75 55.2,10.46 78.8,-3.35 -43.1,-16.91 -78.8,3.35 -78.8,3.35"
         style="fill:#ffffff;fill-opacity:1;fill-rule:nonzero;stroke:none"
         transform="matrix(0.13333333,0,0,-0.13333333,0,1355.0133)"
         clip-path="url(#clipPath135)"
         id="path178" />
      <path
         d="m 16782.2,6731.04 c 24.7,11.75 55.2,10.46 78.8,-3.35 -43.1,-16.91 -78.8,3.35 -78.8,3.35"
         style="fill:#ffffff;fill-opacity:1;fill-rule:nonzero;stroke:none"
         transform="matrix(0.13333333,0,0,-0.13333333,0,1355.0133)"
         clip-path="url(#clipPath136)"
         id="path179" />
      <path
         d="m 16867.9,6737.89 c -11.8,24.7 -10.5,55.18 3.3,78.79 16.9,-43.08 -3.3,-78.79 -3.3,-78.79"
         style="fill:#ffffff;fill-opacity:1;fill-rule:nonzero;stroke:none"
         transform="matrix(0.13333333,0,0,-0.13333333,0,1355.0133)"
         clip-path="url(#clipPath137)"
         id="path180" />
      <path
         d="m 16867.9,6643.3 c -11.8,24.7 -10.5,55.18 3.3,78.79 16.9,-43.08 -3.3,-78.79 -3.3,-78.79"
         style="fill:#ffffff;fill-opacity:1;fill-rule:nonzero;stroke:none"
         transform="matrix(0.13333333,0,0,-0.13333333,0,1355.0133)"
         clip-path="url(#clipPath138)"
         id="path181" />
      <path
         d="m 16873.3,6736.76 c 9.2,25.77 31.6,46.41 58.1,53.35 -18.5,-42.43 -58.1,-53.35 -58.1,-53.35"
         style="fill:#ffffff;fill-opacity:1;fill-rule:nonzero;stroke:none"
         transform="matrix(0.13333333,0,0,-0.13333333,0,1355.0133)"
         clip-path="url(#clipPath139)"
         id="path182" />
      <path
         d="m 16806.4,6669.87 c 9.2,25.78 31.6,46.42 58.1,53.35 -18.5,-42.42 -58.1,-53.35 -58.1,-53.35"
         style="fill:#ffffff;fill-opacity:1;fill-rule:nonzero;stroke:none"
         transform="matrix(0.13333333,0,0,-0.13333333,0,1355.0133)"
         clip-path="url(#clipPath140)"
         id="path183" />
      <path
         d="m 16875.7,6725.59 c 25.7,-9.16 46.4,-31.62 53.3,-58.08 -42.4,18.5 -53.3,58.08 -53.3,58.08"
         style="fill:#ffffff;fill-opacity:1;fill-rule:nonzero;stroke:none"
         transform="matrix(0.13333333,0,0,-0.13333333,0,1355.0133)"
         clip-path="url(#clipPath141)"
         id="path184" />
      <path
         d="m 16808.8,6792.47 c 25.8,-9.15 46.4,-31.61 53.3,-58.07 -42.4,18.5 -53.3,58.07 -53.3,58.07"
         style="fill:#ffffff;fill-opacity:1;fill-rule:nonzero;stroke:none"
         transform="matrix(0.13333333,0,0,-0.13333333,0,1355.0133)"
         clip-path="url(#clipPath142)"
         id="path185" />
      <path
         d="m 17097.1,6623.46 c 24.7,11.76 55.1,10.47 78.8,-3.34 -43.1,-16.91 -78.8,3.34 -78.8,3.34"
         style="fill:#ffffff;fill-opacity:1;fill-rule:nonzero;stroke:none"
         transform="matrix(0.13333333,0,0,-0.13333333,0,1355.0133)"
         clip-path="url(#clipPath143)"
         id="path186" />
      <path
         d="m 17002.5,6623.46 c 24.7,11.76 55.1,10.47 78.8,-3.34 -43.1,-16.91 -78.8,3.34 -78.8,3.34"
         style="fill:#ffffff;fill-opacity:1;fill-rule:nonzero;stroke:none"
         transform="matrix(0.13333333,0,0,-0.13333333,0,1355.0133)"
         clip-path="url(#clipPath144)"
         id="path187" />
      <path
         d="m 17088.1,6630.32 c -11.7,24.7 -10.4,55.17 3.4,78.79 16.9,-43.08 -3.4,-78.79 -3.4,-78.79"
         style="fill:#ffffff;fill-opacity:1;fill-rule:nonzero;stroke:none"
         transform="matrix(0.13333333,0,0,-0.13333333,0,1355.0133)"
         clip-path="url(#clipPath145)"
         id="path188" />
      <path
         d="m 17088.1,6535.73 c -11.7,24.7 -10.4,55.18 3.4,78.79 16.9,-43.08 -3.4,-78.79 -3.4,-78.79"
         style="fill:#ffffff;fill-opacity:1;fill-rule:nonzero;stroke:none"
         transform="matrix(0.13333333,0,0,-0.13333333,0,1355.0133)"
         clip-path="url(#clipPath146)"
         id="path189" />
      <path
         d="m 17093.6,6629.19 c 9.1,25.77 31.6,46.41 58,53.35 -18.5,-42.43 -58,-53.35 -58,-53.35"
         style="fill:#ffffff;fill-opacity:1;fill-rule:nonzero;stroke:none"
         transform="matrix(0.13333333,0,0,-0.13333333,0,1355.0133)"
         clip-path="url(#clipPath147)"
         id="path190" />
      <path
         d="m 17026.7,6562.3 c 9.1,25.78 31.6,46.42 58.1,53.35 -18.5,-42.42 -58.1,-53.35 -58.1,-53.35"
         style="fill:#ffffff;fill-opacity:1;fill-rule:nonzero;stroke:none"
         transform="matrix(0.13333333,0,0,-0.13333333,0,1355.0133)"
         clip-path="url(#clipPath148)"
         id="path191" />
      <path
         d="m 17095.9,6618.02 c 25.8,-9.16 46.4,-31.62 53.4,-58.08 -42.4,18.5 -53.4,58.08 -53.4,58.08"
         style="fill:#ffffff;fill-opacity:1;fill-rule:nonzero;stroke:none"
         transform="matrix(0.13333333,0,0,-0.13333333,0,1355.0133)"
         clip-path="url(#clipPath149)"
         id="path192" />
      <path
         d="m 17029,6684.9 c 25.8,-9.15 46.5,-31.62 53.4,-58.08 -42.4,18.51 -53.4,58.08 -53.4,58.08"
         style="fill:#ffffff;fill-opacity:1;fill-rule:nonzero;stroke:none"
         transform="matrix(0.13333333,0,0,-0.13333333,0,1355.0133)"
         clip-path="url(#clipPath150)"
         id="path193" />
      <path
         d="m 17291.7,6679.81 c 24.7,11.76 55.2,10.46 78.8,-3.34 -43.1,-16.92 -78.8,3.34 -78.8,3.34"
         style="fill:#ffffff;fill-opacity:1;fill-rule:nonzero;stroke:none"
         transform="matrix(0.13333333,0,0,-0.13333333,0,1355.0133)"
         clip-path="url(#clipPath151)"
         id="path194" />
      <path
         d="m 17197.1,6679.81 c 24.7,11.76 55.2,10.46 78.8,-3.34 -43.1,-16.92 -78.8,3.34 -78.8,3.34"
         style="fill:#ffffff;fill-opacity:1;fill-rule:nonzero;stroke:none"
         transform="matrix(0.13333333,0,0,-0.13333333,0,1355.0133)"
         clip-path="url(#clipPath152)"
         id="path195" />
      <path
         d="m 17282.8,6686.67 c -11.8,24.7 -10.5,55.17 3.3,78.79 16.9,-43.09 -3.3,-78.79 -3.3,-78.79"
         style="fill:#ffffff;fill-opacity:1;fill-rule:nonzero;stroke:none"
         transform="matrix(0.13333333,0,0,-0.13333333,0,1355.0133)"
         clip-path="url(#clipPath153)"
         id="path196" />
      <path
         d="m 17282.8,6592.08 c -11.8,24.7 -10.5,55.17 3.3,78.79 16.9,-43.08 -3.3,-78.79 -3.3,-78.79"
         style="fill:#ffffff;fill-opacity:1;fill-rule:nonzero;stroke:none"
         transform="matrix(0.13333333,0,0,-0.13333333,0,1355.0133)"
         clip-path="url(#clipPath154)"
         id="path197" />
      <path
         d="m 17288.2,6685.53 c 9.2,25.78 31.6,46.42 58.1,53.36 -18.5,-42.43 -58.1,-53.36 -58.1,-53.36"
         style="fill:#ffffff;fill-opacity:1;fill-rule:nonzero;stroke:none"
         transform="matrix(0.13333333,0,0,-0.13333333,0,1355.0133)"
         clip-path="url(#clipPath155)"
         id="path198" />
      <path
         d="m 17221.3,6618.65 c 9.2,25.77 31.6,46.41 58.1,53.35 -18.5,-42.42 -58.1,-53.35 -58.1,-53.35"
         style="fill:#ffffff;fill-opacity:1;fill-rule:nonzero;stroke:none"
         transform="matrix(0.13333333,0,0,-0.13333333,0,1355.0133)"
         clip-path="url(#clipPath156)"
         id="path199" />
      <path
         d="m 17290.6,6674.36 c 25.8,-9.15 46.4,-31.61 53.3,-58.07 -42.4,18.5 -53.3,58.07 -53.3,58.07"
         style="fill:#ffffff;fill-opacity:1;fill-rule:nonzero;stroke:none"
         transform="matrix(0.13333333,0,0,-0.13333333,0,1355.0133)"
         clip-path="url(#clipPath157)"
         id="path200" />
      <path
         d="m 17223.7,6741.25 c 25.8,-9.16 46.4,-31.62 53.3,-58.08 -42.4,18.5 -53.3,58.08 -53.3,58.08"
         style="fill:#ffffff;fill-opacity:1;fill-rule:nonzero;stroke:none"
         transform="matrix(0.13333333,0,0,-0.13333333,0,1355.0133)"
         clip-path="url(#clipPath158)"
         id="path201" />
      <path
         d="m 17204.6,6433.94 c 24.7,11.75 55.2,10.46 78.8,-3.35 -43.1,-16.91 -78.8,3.35 -78.8,3.35"
         style="fill:#ffffff;fill-opacity:1;fill-rule:nonzero;stroke:none"
         transform="matrix(0.13333333,0,0,-0.13333333,0,1355.0133)"
         clip-path="url(#clipPath159)"
         id="path202" />
      <path
         d="m 17110,6433.94 c 24.7,11.75 55.2,10.46 78.8,-3.35 -43.1,-16.91 -78.8,3.35 -78.8,3.35"
         style="fill:#ffffff;fill-opacity:1;fill-rule:nonzero;stroke:none"
         transform="matrix(0.13333333,0,0,-0.13333333,0,1355.0133)"
         clip-path="url(#clipPath160)"
         id="path203" />
      <path
         d="m 17195.7,6440.79 c -11.8,24.7 -10.5,55.18 3.3,78.79 16.9,-43.08 -3.3,-78.79 -3.3,-78.79"
         style="fill:#ffffff;fill-opacity:1;fill-rule:nonzero;stroke:none"
         transform="matrix(0.13333333,0,0,-0.13333333,0,1355.0133)"
         clip-path="url(#clipPath161)"
         id="path204" />
      <path
         d="m 17195.7,6346.2 c -11.8,24.7 -10.5,55.18 3.3,78.79 16.9,-43.08 -3.3,-78.79 -3.3,-78.79"
         style="fill:#ffffff;fill-opacity:1;fill-rule:nonzero;stroke:none"
         transform="matrix(0.13333333,0,0,-0.13333333,0,1355.0133)"
         clip-path="url(#clipPath162)"
         id="path205" />
      <path
         d="m 17201.1,6439.66 c 9.2,25.77 31.7,46.41 58.1,53.35 -18.5,-42.43 -58.1,-53.35 -58.1,-53.35"
         style="fill:#ffffff;fill-opacity:1;fill-rule:nonzero;stroke:none"
         transform="matrix(0.13333333,0,0,-0.13333333,0,1355.0133)"
         clip-path="url(#clipPath163)"
         id="path206" />
      <path
         d="m 17134.3,6372.77 c 9.1,25.78 31.6,46.41 58,53.35 -18.5,-42.42 -58,-53.35 -58,-53.35"
         style="fill:#ffffff;fill-opacity:1;fill-rule:nonzero;stroke:none"
         transform="matrix(0.13333333,0,0,-0.13333333,0,1355.0133)"
         clip-path="url(#clipPath164)"
         id="path207" />
      <path
         d="m 17203.5,6428.49 c 25.8,-9.16 46.4,-31.62 53.3,-58.08 -42.4,18.5 -53.3,58.08 -53.3,58.08"
         style="fill:#ffffff;fill-opacity:1;fill-rule:nonzero;stroke:none"
         transform="matrix(0.13333333,0,0,-0.13333333,0,1355.0133)"
         clip-path="url(#clipPath165)"
         id="path208" />
      <path
         d="m 17136.6,6495.37 c 25.8,-9.15 46.4,-31.62 53.4,-58.08 -42.5,18.51 -53.4,58.08 -53.4,58.08"
         style="fill:#ffffff;fill-opacity:1;fill-rule:nonzero;stroke:none"
         transform="matrix(0.13333333,0,0,-0.13333333,0,1355.0133)"
         clip-path="url(#clipPath166)"
         id="path209" />
      <path
         d="m 16922.9,6464.67 c 24.7,11.75 55.2,10.46 78.8,-3.34 -43.1,-16.92 -78.8,3.34 -78.8,3.34"
         style="fill:#ffffff;fill-opacity:1;fill-rule:nonzero;stroke:none"
         transform="matrix(0.13333333,0,0,-0.13333333,0,1355.0133)"
         clip-path="url(#clipPath167)"
         id="path210" />
      <path
         d="m 16828.3,6464.67 c 24.7,11.75 55.2,10.46 78.8,-3.34 -43.1,-16.92 -78.8,3.34 -78.8,3.34"
         style="fill:#ffffff;fill-opacity:1;fill-rule:nonzero;stroke:none"
         transform="matrix(0.13333333,0,0,-0.13333333,0,1355.0133)"
         clip-path="url(#clipPath168)"
         id="path211" />
      <path
         d="m 16914,6471.52 c -11.8,24.7 -10.5,55.18 3.3,78.8 16.9,-43.09 -3.3,-78.8 -3.3,-78.8"
         style="fill:#ffffff;fill-opacity:1;fill-rule:nonzero;stroke:none"
         transform="matrix(0.13333333,0,0,-0.13333333,0,1355.0133)"
         clip-path="url(#clipPath169)"
         id="path212" />
      <path
         d="m 16914,6376.93 c -11.8,24.7 -10.5,55.18 3.3,78.8 16.9,-43.09 -3.3,-78.8 -3.3,-78.8"
         style="fill:#ffffff;fill-opacity:1;fill-rule:nonzero;stroke:none"
         transform="matrix(0.13333333,0,0,-0.13333333,0,1355.0133)"
         clip-path="url(#clipPath170)"
         id="path213" />
      <path
         d="m 16919.4,6470.39 c 9.2,25.78 31.6,46.41 58.1,53.35 -18.5,-42.42 -58.1,-53.35 -58.1,-53.35"
         style="fill:#ffffff;fill-opacity:1;fill-rule:nonzero;stroke:none"
         transform="matrix(0.13333333,0,0,-0.13333333,0,1355.0133)"
         clip-path="url(#clipPath171)"
         id="path214" />
      <path
         d="m 16852.5,6403.51 c 9.2,25.77 31.6,46.41 58.1,53.35 -18.5,-42.43 -58.1,-53.35 -58.1,-53.35"
         style="fill:#ffffff;fill-opacity:1;fill-rule:nonzero;stroke:none"
         transform="matrix(0.13333333,0,0,-0.13333333,0,1355.0133)"
         clip-path="url(#clipPath172)"
         id="path215" />
      <path
         d="m 16921.8,6459.22 c 25.7,-9.15 46.4,-31.62 53.3,-58.08 -42.4,18.51 -53.3,58.08 -53.3,58.08"
         style="fill:#ffffff;fill-opacity:1;fill-rule:nonzero;stroke:none"
         transform="matrix(0.13333333,0,0,-0.13333333,0,1355.0133)"
         clip-path="url(#clipPath173)"
         id="path216" />
      <path
         d="m 16854.9,6526.11 c 25.8,-9.16 46.4,-31.62 53.3,-58.08 -42.4,18.5 -53.3,58.08 -53.3,58.08"
         style="fill:#ffffff;fill-opacity:1;fill-rule:nonzero;stroke:none"
         transform="matrix(0.13333333,0,0,-0.13333333,0,1355.0133)"
         clip-path="url(#clipPath174)"
         id="path217" />
      <path
         d="m 17052.3,6261.5 c -11.8,24.7 -10.5,55.18 3.3,78.8 16.9,-43.09 -3.3,-78.8 -3.3,-78.8"
         style="fill:#ffffff;fill-opacity:1;fill-rule:nonzero;stroke:none"
         transform="matrix(0.13333333,0,0,-0.13333333,0,1355.0133)"
         clip-path="url(#clipPath175)"
         id="path218" />
      <path
         d="m 16993.2,6316.09 c 25.8,-9.16 46.4,-31.62 53.3,-58.08 -42.4,18.5 -53.3,58.08 -53.3,58.08"
         style="fill:#ffffff;fill-opacity:1;fill-rule:nonzero;stroke:none"
         transform="matrix(0.13333333,0,0,-0.13333333,0,1355.0133)"
         clip-path="url(#clipPath176)"
         id="path219" />
    </g>
    <path
       id="path220"
       d="m 16860.1,6804.91 c 40.5,-200.02 81,-400.04 121.5,-600.06 -160.5,-65.46 -327.1,-116.17 -496.9,-151.27 -80.9,148.14 -38.4,331.8 20.4,490.02 25.1,67.61 54.8,137.01 110.1,183.36 63.8,53.46 150.9,67.63 233.6,76.42 l 11.3,1.53"
       style="fill:#915f3a;fill-opacity:1;fill-rule:nonzero;stroke:none"
       transform="matrix(0.03527778,0,0,-0.03527778,-498.48313,403.61689)"
       clip-path="url(#clipPath221)" />
    <path
       id="path222"
       d="m 17264.1,6804.91 c -37.6,-200.02 -75.2,-400.04 -112.8,-600.06 149,-65.46 303.6,-116.17 461.3,-151.27 75,148.14 35.6,331.8 -19,490.02 -23.3,67.61 -50.9,137.01 -102.2,183.36 -59.1,53.46 -140,67.63 -216.8,76.42 l -10.5,1.53"
       style="fill:#915f3a;fill-opacity:1;fill-rule:nonzero;stroke:none"
       transform="matrix(0.03527778,0,0,-0.03527778,-498.48313,403.61689)"
       clip-path="url(#clipPath223)" />
    <g
       id="g227"
       transform="matrix(0.26458333,0,0,0.26458333,-498.48313,45.102954)">
      <path
         d="m 17383.8,7072.82 c -56.3,36.29 -58.7,53.71 -61.4,36.29 -13.4,-85.55 -151.7,-271.61 -271.5,-291.66 -157,-26.25 -251.5,268.61 -266.4,336.3 183.9,-26.28 370.2,-52.61 554.7,-30.49 -5.1,-4.78 -10.2,-9.56 -15.2,-14.34 l 59.8,-36.1"
         style="fill:#dba78a;fill-opacity:1;fill-rule:nonzero;stroke:none"
         transform="matrix(0.13333333,0,0,-0.13333333,0,1355.0133)"
         clip-path="url(#clipPath226)"
         id="path227" />
    </g>
    <path
       id="path228"
       d="m 17262.8,7541.76 c 32.8,-110.92 24.7,-305.3 0,-418.31 l -0.4,-1.82 c -13.4,-60.66 -34.9,-121.24 -75.3,-168.45 -40.3,-47.22 -102.5,-79.15 -164,-70.77 -59.6,8.1 -109.5,52.32 -138.6,104.92 -29,52.6 -40.2,113.02 -48.3,172.56 -14.1,103.66 -10.4,378.98 -0.5,379.82 128.2,10.86 302.3,37.12 427.1,5.65 v -3.6"
       style="fill:#fbd1b9;fill-opacity:1;fill-rule:nonzero;stroke:none"
       transform="matrix(0.03527778,0,0,-0.03527778,-498.48313,403.61689)"
       clip-path="url(#clipPath229)" />
    <path
       id="path230"
       d="m 16841.3,7202.83 c -3.1,22.82 -30.6,37.1 -52.7,30.4 -22,-6.69 -36.6,-29.59 -38.2,-52.58 -1.7,-22.98 7.7,-45.6 20.8,-64.5 22,-31.52 60.7,-55.99 97.9,-46.24 -5.9,47.27 -14.4,94.21 -25.4,140.56 l -2.4,-7.64"
       style="fill:#fbd1b9;fill-opacity:1;fill-rule:nonzero;stroke:none"
       transform="matrix(0.03527778,0,0,-0.03527778,-498.48313,403.61689)"
       clip-path="url(#clipPath231)" />
    <path
       id="path232"
       d="m 17259.4,7202.83 c 3.1,22.82 30.6,37.1 52.7,30.4 22,-6.69 36.6,-29.59 38.2,-52.58 1.6,-22.98 -7.7,-45.6 -20.9,-64.5 -22,-31.52 -60.6,-55.99 -97.8,-46.24 5.9,47.27 14.4,94.21 25.4,140.56 l 2.4,-7.64"
       style="fill:#fbd1b9;fill-opacity:1;fill-rule:nonzero;stroke:none"
       transform="matrix(0.03527778,0,0,-0.03527778,-498.48313,403.61689)"
       clip-path="url(#clipPath233)" />
    <path
       id="path234"
       d="m 16918.4,7202.15 c 0,-13.1 9.7,-23.72 21.6,-23.72 12,0 21.7,10.62 21.7,23.72 0,13.1 -9.7,23.72 -21.7,23.72 -11.9,0 -21.6,-10.62 -21.6,-23.72"
       style="fill:#1a1a1a;fill-opacity:1;fill-rule:nonzero;stroke:none"
       transform="matrix(0.03527778,0,0,-0.03527778,-498.48313,403.61689)"
       clip-path="url(#clipPath235)" />
    <path
       id="path236"
       d="m 17153.1,7202.15 c 0,-13.1 9.7,-23.72 21.6,-23.72 12,0 21.6,10.62 21.6,23.72 0,13.1 -9.6,23.72 -21.6,23.72 -11.9,0 -21.6,-10.62 -21.6,-23.72"
       style="fill:#1a1a1a;fill-opacity:1;fill-rule:nonzero;stroke:none"
       transform="matrix(0.03527778,0,0,-0.03527778,-498.48313,403.61689)"
       clip-path="url(#clipPath237)" />
    <path
       id="path238"
       d="m 17282.8,7227.12 c -72.5,84.47 -121,189.35 -138.3,299.31 -76.1,-12.63 -149.9,-43.73 -208.1,-94.33 -58.3,-50.59 -100.1,-121.29 -110.3,-197.75 -29.1,59.7 -47.4,124.69 -53.7,190.83 -3.9,42.27 -2.1,88.11 23,122.38 27.6,37.71 76.4,52.42 122.1,61.82 94.4,19.35 191.3,26.07 287.4,19.93 26.4,-1.69 54,-4.83 75.6,-20.1 28,-19.78 39.6,-55.45 45.5,-89.21 16.1,-93.1 1.3,-191.31 -41.6,-275.51 l -1.6,-17.37"
       style="fill:#72706e;fill-opacity:1;fill-rule:nonzero;stroke:none"
       transform="matrix(0.03527778,0,0,-0.03527778,-498.48313,403.61689)"
       clip-path="url(#clipPath239)" />
    <path
       id="path240"
       d="m 17282.5,7626.94 c -53.3,-10.37 -103.2,-33.87 -145.6,-67.76 -7.8,-6.17 3.2,-16.98 10.8,-10.86 40.4,32.22 88.3,53.96 138.9,63.8 9.7,1.88 5.6,16.7 -4.1,14.82"
       style="fill:#444342;fill-opacity:1;fill-rule:nonzero;stroke:none"
       transform="matrix(0.03527778,0,0,-0.03527778,-498.48313,403.61689)"
       clip-path="url(#clipPath241)" />
    <path
       id="path242"
       d="m 17181.1,7529.49 c 12.9,-65.67 39.2,-128.46 76.9,-183.76 5.5,-8.12 18.9,-0.44 13.3,7.76 -37.1,54.33 -62.7,115.56 -75.4,180.09 -1.9,9.69 -16.7,5.59 -14.8,-4.09"
       style="fill:#444342;fill-opacity:1;fill-rule:nonzero;stroke:none"
       transform="matrix(0.03527778,0,0,-0.03527778,-498.48313,403.61689)"
       clip-path="url(#clipPath243)" />
    <path
       id="path244"
       d="m 17233,7508.53 c 9.2,-51.3 30.2,-100.19 61.1,-142.21 5.8,-7.89 19.1,-0.23 13.2,7.76 -30.1,41.1 -50.4,88.36 -59.5,138.53 -1.7,9.72 -16.5,5.6 -14.8,-4.08"
       style="fill:#444342;fill-opacity:1;fill-rule:nonzero;stroke:none"
       transform="matrix(0.03527778,0,0,-0.03527778,-498.48313,403.61689)"
       clip-path="url(#clipPath245)" />
    <path
       id="path246"
       d="m 17101.2,7561.24 c -93.8,-9.39 -183,-52.81 -248.8,-120.33 -18.6,-19.15 -35.3,-40.24 -49.7,-62.77 -5.4,-8.36 7.9,-16.08 13.2,-7.76 48.6,75.99 124.8,133.2 210.7,160.14 24.3,7.6 49.3,12.82 74.6,15.35 9.7,0.98 9.8,16.36 0,15.37"
       style="fill:#444342;fill-opacity:1;fill-rule:nonzero;stroke:none"
       transform="matrix(0.03527778,0,0,-0.03527778,-498.48313,403.61689)"
       clip-path="url(#clipPath247)" />
    <path
       id="path248"
       d="m 17063,7600.4 c -80.6,-19.68 -155,-61.55 -213.7,-120.04 -7,-6.99 3.8,-17.85 10.9,-10.86 56.9,56.7 128.8,97 206.8,116.08 9.6,2.35 5.6,17.17 -4,14.82"
       style="fill:#444342;fill-opacity:1;fill-rule:nonzero;stroke:none"
       transform="matrix(0.03527778,0,0,-0.03527778,-498.48313,403.61689)"
       clip-path="url(#clipPath249)" />
    <path
       id="path250"
       d="m 16931,7614.84 c -50.5,-25.12 -93.9,-62.84 -126.3,-108.99 -5.7,-8.11 7.6,-15.8 13.3,-7.75 30.9,44.01 72.6,79.55 120.7,103.47 8.9,4.4 1.1,17.66 -7.7,13.27"
       style="fill:#444342;fill-opacity:1;fill-rule:nonzero;stroke:none"
       transform="matrix(0.03527778,0,0,-0.03527778,-498.48313,403.61689)"
       clip-path="url(#clipPath251)" />
    <path
       id="path252"
       d="m 16994.9,7268.95 c -4.4,-39.97 -3.5,-80.3 2.6,-120.05 1.2,-7.81 3,-15.79 9.9,-20.54 6.5,-4.39 14.6,-4.4 22.1,-3.62 18.8,1.98 36.8,7.61 53.5,16.44 8.8,4.62 1,17.89 -7.7,13.27 -13.9,-7.33 -29.1,-12.33 -44.7,-14.21 -5.3,-0.64 -14,-2.4 -16.5,3.76 -2.9,7.15 -2.9,16.46 -3.8,24.06 -3.8,33.52 -3.7,67.37 0,100.89 1,9.82 -14.3,9.74 -15.4,0"
       style="fill:#a46e4a;fill-opacity:1;fill-rule:nonzero;stroke:none"
       transform="matrix(0.03527778,0,0,-0.03527778,-498.48313,403.61689)"
       clip-path="url(#clipPath253)" />
    <path
       id="path254"
       d="m 17037.9,7001.25 c 21.5,-11.37 51.4,-2.53 62.1,19.81 1.8,3.74 1.1,8.3 -2.7,10.51 -3.4,1.97 -8.7,1 -10.5,-2.76 -0.6,-1.1 -1.1,-2.18 -1.8,-3.22 l -0.9,-1.39 c -0.1,-0.16 -1.4,-1.86 -0.3,-0.56 -1.4,-1.71 -3,-3.3 -4.6,-4.73 -0.2,-0.12 -1.9,-1.44 -0.6,-0.45 l -1.3,-0.96 c -1,-0.68 -2.1,-1.32 -3.1,-1.91 -1,-0.54 -2,-1.02 -3,-1.49 1.5,0.72 -0.4,-0.17 -0.6,-0.24 l -1.6,-0.55 c -2.2,-0.74 -4.5,-1.27 -6.8,-1.63 1.1,0.17 0.5,0.06 -0.3,0 l -1.6,-0.12 c -1.2,-0.06 -2.4,-0.06 -3.7,-0.01 l -1.6,0.11 c -2.1,0.09 1.5,-0.33 -0.6,0.06 -1.1,0.2 -2.1,0.4 -3.2,0.68 -1.1,0.28 -2.1,0.65 -3.2,0.99 -1.9,0.62 1.3,-0.69 -0.6,0.24 l -1.8,0.89 c -3.6,1.94 -8.3,0.94 -10.5,-2.75 -2,-3.47 -0.9,-8.57 2.8,-10.52"
       style="fill:#a46e4a;fill-opacity:1;fill-rule:nonzero;stroke:none"
       transform="matrix(0.03527778,0,0,-0.03527778,-498.48313,403.61689)"
       clip-path="url(#clipPath255)" />
    <path
       id="path256"
       d="m 16936.4,7327.68 c 10.8,-6.29 10.9,-23 3.4,-33.02 -7.5,-10.02 -19.7,-14.98 -31.4,-19.48 -19.7,-7.61 -39.4,-15.22 -59.2,-22.82 10.2,35.77 38.8,65.77 74,77.72 l 13.2,-2.4"
       style="fill:#444342;fill-opacity:1;fill-rule:nonzero;stroke:none"
       transform="matrix(0.03527778,0,0,-0.03527778,-498.48313,403.61689)"
       clip-path="url(#clipPath257)" />
    <path
       id="path258"
       d="m 17140.4,7333.2 c -12,-7.5 -12.1,-27.43 -3.8,-39.38 8.3,-11.95 21.9,-17.87 34.9,-23.24 21.9,-9.07 43.7,-18.14 65.6,-27.21 -11.3,42.66 -43,78.44 -82.1,92.7 l -14.6,-2.87"
       style="fill:#444342;fill-opacity:1;fill-rule:nonzero;stroke:none"
       transform="matrix(0.03527778,0,0,-0.03527778,-498.48313,403.61689)"
       clip-path="url(#clipPath259)" />
    <path
       id="path260"
       d="m 17450.3,7489.87 c 52.8,-50.3 87.7,-117.75 99.3,-189.77 11.3,-70.93 -2.6,-144.58 -36.9,-207.47 -19.4,-35.55 -45.1,-67.26 -75.9,-93.57 -1.9,-1.62 -2.9,-5.12 -2,-7.47 15.2,-40.43 9.8,-87.01 -15.3,-122.34 -23.8,-33.46 -64.4,-53.57 -105.3,-53.75 -9.8,-0.05 -9.9,-15.41 0,-15.37 35.7,0.16 70.5,13.77 97.2,37.42 27.6,24.5 43.9,59.37 46.9,96.01 1.7,20.99 -1.3,42.4 -8.7,62.11 -0.6,-2.49 -1.3,-4.98 -2,-7.47 56.8,48.45 96.9,115.89 113.1,188.71 16.5,74.16 6.9,151.92 -25.3,220.59 -18.1,38.62 -43.4,73.85 -74.3,103.24 -7.1,6.81 -18,-4.04 -10.8,-10.87"
       style="fill:#72706e;fill-opacity:1;fill-rule:nonzero;stroke:none"
       transform="matrix(0.03527778,0,0,-0.03527778,-498.48313,403.61689)"
       clip-path="url(#clipPath261)" />
    <path
       id="path262"
       d="m 17277.9,7139.22 c 3.4,3.92 7,7.67 10.7,11.19 3.8,3.53 7.8,6.78 11.5,9.46 4.2,3.03 8.5,5.83 13,8.37 2.3,1.27 4.6,2.47 6.9,3.61 2.1,1.06 4.9,2.32 6.4,2.94 3.8,1.58 6.6,5.09 5.4,9.45 -1,3.62 -5.6,6.96 -9.5,5.36 -21.2,-8.77 -40.3,-22.05 -55.3,-39.52 -2.7,-3.14 -3,-7.77 0,-10.86 2.8,-2.77 8.2,-3.16 10.9,0"
       style="fill:#a46e4a;fill-opacity:1;fill-rule:nonzero;stroke:none"
       transform="matrix(0.03527778,0,0,-0.03527778,-498.48313,403.61689)"
       clip-path="url(#clipPath263)" />
    <path
       id="path264"
       d="m 17293,7154.91 2,-2.21 0.5,-0.66 c -0.7,0.95 -0.9,1.18 -0.5,0.72 l 0.9,-1.21 c 1,-1.58 2,-3.24 2.8,-4.96 l 0.7,-1.35 c -1.1,1.78 -0.4,0.9 -0.2,0.27 0.4,-0.93 0.7,-1.86 1,-2.81 0.6,-1.91 1,-3.85 1.3,-5.81 l -0.3,2.04 c 0.2,-1.54 0.3,-3.09 0.4,-4.65 0,-4.02 3.4,-7.88 7.6,-7.69 4.1,0.19 7.8,3.38 7.7,7.69 -0.2,11.73 -4.9,23.06 -13,31.5 -2.8,2.9 -8.1,3.02 -10.9,0 -2.8,-3.11 -3,-7.77 0,-10.87"
       style="fill:#a46e4a;fill-opacity:1;fill-rule:nonzero;stroke:none"
       transform="matrix(0.03527778,0,0,-0.03527778,-498.48313,403.61689)"
       clip-path="url(#clipPath265)" />
    <path
       id="path266"
       d="m 16775.8,7181.86 c 12,-10.67 24.1,-21.34 36.1,-32 3,-2.67 7.9,-3.18 10.9,0 2.6,2.91 3.2,8.02 0,10.86 -12.1,10.67 -24.1,21.34 -36.1,32 -3,2.67 -8,3.19 -10.9,0 -2.7,-2.91 -3.2,-8.02 0,-10.86"
       style="fill:#a46e4a;fill-opacity:1;fill-rule:nonzero;stroke:none"
       transform="matrix(0.03527778,0,0,-0.03527778,-498.48313,403.61689)"
       clip-path="url(#clipPath267)" />
    <path
       id="path268"
       d="m 16786.5,7175.57 c -17.9,-21.14 -8.4,-56.55 17.8,-65.78 3.9,-1.37 8.4,1.57 9.4,5.37 1.2,4.24 -1.4,8.07 -5.3,9.45 -0.7,0.23 -1.7,0.69 -0.5,0.14 l -1.7,0.8 c -1.1,0.58 -2.1,1.26 -3.1,1.93 -1.7,1.05 1,-1.02 -0.4,0.29 l -1.4,1.21 c -0.9,0.85 -1.7,1.77 -2.5,2.68 -1.1,1.17 0.7,-1.06 -0.3,0.38 l -1,1.53 c -0.7,0.95 -1.2,1.93 -1.7,2.94 l -0.9,1.67 c -0.2,0.43 0.4,-1.07 -0.1,0.46 -0.5,1.18 -0.9,2.35 -1.2,3.56 -0.3,1.1 -0.6,2.22 -0.8,3.34 -0.1,0.77 -0.1,1.77 0,0.42 l -0.2,1.86 c -0.1,1.24 -0.1,2.48 0,3.71 l 0.1,1.85 c 0.1,2 -0.3,-1.57 0.1,0.39 0.2,1.2 0.4,2.4 0.8,3.58 l 0.5,1.74 c 0.2,0.41 1,2.06 0.2,0.43 0.5,1.01 1,2.01 1.6,2.98 l 1,1.55 c 1,1.62 -0.5,-0.5 0.5,0.65 2.7,3.17 3.1,7.76 0,10.87 -2.8,2.75 -8.2,3.18 -10.9,0"
       style="fill:#a46e4a;fill-opacity:1;fill-rule:nonzero;stroke:none"
       transform="matrix(0.03527778,0,0,-0.03527778,-498.48313,403.61689)"
       clip-path="url(#clipPath269)" />
    <path
       id="path270"
       d="m 17579.5,6494.93 c 1.6,0.8 3.3,1.59 4.9,2.34 0.9,0.43 1.9,0.84 2.8,1.26 1.6,0.7 -0.4,-0.17 1,0.43 3.5,1.41 6.9,2.72 10.5,3.89 6.9,2.31 14,4.11 21.2,5.44 4,0.74 6.6,5.74 5.4,9.46 -1.4,4.24 -5.2,6.15 -9.5,5.36 -15.3,-2.83 -30.1,-7.95 -44,-14.91 -3.6,-1.8 -4.9,-7.18 -2.8,-10.51 2.4,-3.69 6.7,-4.69 10.5,-2.76"
       style="fill:#915f3a;fill-opacity:1;fill-rule:nonzero;stroke:none"
       transform="matrix(0.03527778,0,0,-0.03527778,-498.48313,403.61689)"
       clip-path="url(#clipPath271)" />
    <path
       id="path272"
       d="m 17598.8,6473.01 c 15.7,3.27 31.4,6.54 47.2,9.82 3.9,0.82 6.6,5.67 5.3,9.45 -1.3,4.17 -5.2,6.24 -9.4,5.36 -15.8,-3.27 -31.5,-6.54 -47.2,-9.81 -4,-0.82 -6.6,-5.68 -5.4,-9.45 1.4,-4.17 5.2,-6.25 9.5,-5.37"
       style="fill:#915f3a;fill-opacity:1;fill-rule:nonzero;stroke:none"
       transform="matrix(0.03527778,0,0,-0.03527778,-498.48313,403.61689)"
       clip-path="url(#clipPath273)" />
    <path
       id="path274"
       d="m 16555.7,6715.78 c 9.8,-8.73 21.7,-15.04 34.6,-17.81 3.9,-0.84 8.5,1.16 9.4,5.37 0.9,3.87 -1.1,8.54 -5.3,9.45 -2.8,0.6 -5.6,1.36 -8.3,2.31 l -2,0.71 -0.9,0.39 c -0.2,0.08 -1.4,0.54 -0.3,0.11 1,-0.44 -0.1,0.04 -0.3,0.13 l -0.9,0.43 -2.1,1.02 c -2.5,1.26 -4.9,2.66 -7.2,4.21 l -1.7,1.19 -1.1,0.77 -0.2,0.19 -0.3,0.2 -0.8,0.66 -1.8,1.54 c -3,2.67 -7.9,3.18 -10.8,0 -2.7,-2.92 -3.2,-8.02 0,-10.87"
       style="fill:#915f3a;fill-opacity:1;fill-rule:nonzero;stroke:none"
       transform="matrix(0.03527778,0,0,-0.03527778,-498.48313,403.61689)"
       clip-path="url(#clipPath275)" />
    <path
       id="path276"
       d="m 16592.2,6741.82 c 10.4,-8.73 20.9,-17.46 31.3,-26.19 1.6,-1.34 3.3,-2.25 5.5,-2.25 1.9,0 4.1,0.83 5.4,2.25 2.6,2.84 3.3,8.11 0,10.86 -10.4,8.73 -20.9,17.47 -31.3,26.2 -1.7,1.33 -3.3,2.25 -5.5,2.25 -1.9,0 -4.1,-0.84 -5.4,-2.25 -2.6,-2.84 -3.3,-8.12 0,-10.87"
       style="fill:#915f3a;fill-opacity:1;fill-rule:nonzero;stroke:none"
       transform="matrix(0.03527778,0,0,-0.03527778,-498.48313,403.61689)"
       clip-path="url(#clipPath277)" />
    <path
       id="path278"
       d="m 16796,6766.4 c 26,-131.89 51.9,-263.78 77.8,-395.68 7.4,-37.56 14.8,-75.13 22.2,-112.69 1.9,-9.7 16.7,-5.59 14.8,4.09 -25.9,131.89 -51.9,263.78 -77.8,395.67 -7.4,37.57 -14.8,75.13 -22.1,112.7 -2,9.69 -16.8,5.59 -14.9,-4.09"
       style="fill:#5b371e;fill-opacity:1;fill-rule:nonzero;stroke:none"
       transform="matrix(0.03527778,0,0,-0.03527778,-498.48313,403.61689)"
       clip-path="url(#clipPath279)" />
    <path
       id="path280"
       d="m 17260.9,6571.1 c -16.5,-84.43 -34.3,-168.59 -53.5,-252.43 -5.5,-23.83 -11.1,-47.64 -16.8,-71.42 -2.3,-9.61 12.5,-13.71 14.8,-4.09 20.1,83.65 38.7,167.63 55.9,251.91 4.9,23.96 9.7,47.94 14.4,71.95 1.9,9.66 -13,13.8 -14.8,4.08"
       style="fill:#5b371e;fill-opacity:1;fill-rule:nonzero;stroke:none"
       transform="matrix(0.03527778,0,0,-0.03527778,-498.48313,403.61689)"
       clip-path="url(#clipPath281)" />
    <path
       id="path282"
       d="m 16590.8,6488.86 c 13.5,-92.84 23.5,-186.21 29.9,-279.82 1.8,-26.4 3.3,-52.82 4.5,-79.26 0.5,-9.84 15.9,-9.9 15.4,0 -4.4,94.84 -12.5,189.49 -24.2,283.7 -3.3,26.53 -6.9,53.02 -10.8,79.47 -1.4,9.75 -16.2,5.6 -14.8,-4.09"
       style="fill:#5b371e;fill-opacity:1;fill-rule:nonzero;stroke:none"
       transform="matrix(0.03527778,0,0,-0.03527778,-498.48313,403.61689)"
       clip-path="url(#clipPath283)" />
    <path
       id="path284"
       d="m 17486.3,6517.12 c 8,-97.57 16,-195.14 24.1,-292.7 2.3,-28 4.6,-56 6.9,-84 0.8,-9.78 16.2,-9.87 15.4,0 -8.1,97.57 -16.1,195.14 -24.2,292.7 -2.3,28 -4.6,56 -6.9,84 -0.8,9.78 -16.1,9.87 -15.3,0"
       style="fill:#5b371e;fill-opacity:1;fill-rule:nonzero;stroke:none"
       transform="matrix(0.03527778,0,0,-0.03527778,-498.48313,403.61689)"
       clip-path="url(#clipPath285)" />
    <path
       id="path286"
       d="m 16737.5,6468.05 c 3.2,-14.01 6.4,-28.03 9.7,-42.04 0.9,-3.92 5.6,-6.61 9.4,-5.37 4.1,1.33 6.3,5.25 5.4,9.45 -3.2,14.02 -6.5,28.03 -9.7,42.04 -0.9,3.93 -5.6,6.61 -9.4,5.37 -4.1,-1.33 -6.3,-5.25 -5.4,-9.45"
       style="fill:#5b371e;fill-opacity:1;fill-rule:nonzero;stroke:none"
       transform="matrix(0.03527778,0,0,-0.03527778,-498.48313,403.61689)"
       clip-path="url(#clipPath287)" />
    <path
       id="path288"
       d="m 16721.4,6609.27 c 4.9,-14.08 9.8,-28.15 14.7,-42.22 1.3,-3.79 5.3,-6.7 9.4,-5.37 3.8,1.22 6.8,5.39 5.4,9.46 -4.9,14.07 -9.8,28.14 -14.7,42.21 -1.3,3.79 -5.3,6.7 -9.4,5.37 -3.8,-1.22 -6.8,-5.39 -5.4,-9.45"
       style="fill:#5b371e;fill-opacity:1;fill-rule:nonzero;stroke:none"
       transform="matrix(0.03527778,0,0,-0.03527778,-498.48313,403.61689)"
       clip-path="url(#clipPath289)" />
    <path
       id="path290"
       d="m 16675,6572.78 c 2.8,-10.64 5.7,-21.28 8.5,-31.91 1,-3.89 5.5,-6.64 9.4,-5.37 4,1.29 6.5,5.29 5.4,9.45 -2.8,10.64 -5.7,21.28 -8.5,31.92 -1,3.88 -5.5,6.63 -9.4,5.36 -4,-1.29 -6.5,-5.29 -5.4,-9.45"
       style="fill:#5b371e;fill-opacity:1;fill-rule:nonzero;stroke:none"
       transform="matrix(0.03527778,0,0,-0.03527778,-498.48313,403.61689)"
       clip-path="url(#clipPath291)" />
    <path
       id="path292"
       d="m 16705.7,6457.48 c 3,-14.06 5.9,-28.12 8.9,-42.18 0.8,-3.94 5.7,-6.59 9.4,-5.37 4.2,1.35 6.3,5.23 5.4,9.45 -3,14.06 -5.9,28.13 -8.9,42.19 -0.8,3.94 -5.6,6.59 -9.4,5.36 -4.2,-1.34 -6.3,-5.23 -5.4,-9.45"
       style="fill:#5b371e;fill-opacity:1;fill-rule:nonzero;stroke:none"
       transform="matrix(0.03527778,0,0,-0.03527778,-498.48313,403.61689)"
       clip-path="url(#clipPath293)" />
    <path
       id="path294"
       d="m 17368.8,6597.78 c -5.4,-13.88 -10.8,-27.76 -16.2,-41.64 -1.5,-3.76 1.6,-8.6 5.4,-9.46 4.4,-1 7.9,1.35 9.4,5.37 5.4,13.88 10.8,27.77 16.2,41.65 1.5,3.75 -1.6,8.59 -5.3,9.45 -4.4,1 -7.9,-1.35 -9.5,-5.37"
       style="fill:#5b371e;fill-opacity:1;fill-rule:nonzero;stroke:none"
       transform="matrix(0.03527778,0,0,-0.03527778,-498.48313,403.61689)"
       clip-path="url(#clipPath295)" />
    <path
       id="path296"
       d="m 17386.3,6536.41 c -7.4,-16.03 -11.6,-33.15 -12.1,-50.82 -0.1,-4.03 3.6,-7.87 7.7,-7.69 4.2,0.19 7.5,3.38 7.7,7.69 0.2,8.17 1,14.11 2.8,21.99 0.9,3.74 2,7.43 3.2,11.06 1.3,3.83 2.5,6.85 4,10.01 1.7,3.65 1.2,8.45 -2.7,10.52 -3.4,1.79 -8.8,1.13 -10.6,-2.76"
       style="fill:#5b371e;fill-opacity:1;fill-rule:nonzero;stroke:none"
       transform="matrix(0.03527778,0,0,-0.03527778,-498.48313,403.61689)"
       clip-path="url(#clipPath297)" />
    <path
       id="path298"
       d="m 17432.2,6671.84 c -0.2,1.49 0.2,-1.46 0.2,-1.73 l 0.2,-2.28 c 0.1,-1.77 0.2,-3.54 0.2,-5.32 0,-3.3 -0.2,-6.59 -0.6,-9.87 0.1,1.51 -0.2,-0.9 -0.2,-0.97 l -0.5,-2.62 c -0.3,-1.62 -0.7,-3.22 -1.1,-4.82 -0.9,-3.44 -2,-6.8 -3.3,-10.1 -1.6,-3.73 1.6,-8.6 5.3,-9.45 4.5,-1.01 7.9,1.37 9.5,5.37 5.9,14.6 7.3,30.36 5.2,45.88 -0.6,4 -5.9,6.53 -9.5,5.37 -4.4,-1.42 -6,-5.17 -5.4,-9.46"
       style="fill:#5b371e;fill-opacity:1;fill-rule:nonzero;stroke:none"
       transform="matrix(0.03527778,0,0,-0.03527778,-498.48313,403.61689)"
       clip-path="url(#clipPath299)" />
    <path
       id="path300"
       d="m 17390,6725.66 c -9.5,-15.43 -14.4,-33.58 -14,-51.71 0.1,-4.02 3.5,-7.87 7.7,-7.68 4.1,0.18 7.8,3.37 7.7,7.68 -0.4,15.62 3.6,30.53 11.9,43.96 2.1,3.42 0.8,8.6 -2.8,10.51 -3.7,1.98 -8.2,0.9 -10.5,-2.76"
       style="fill:#5b371e;fill-opacity:1;fill-rule:nonzero;stroke:none"
       transform="matrix(0.03527778,0,0,-0.03527778,-498.48313,403.61689)"
       clip-path="url(#clipPath301)" />
    <path
       id="path302"
       d="m 17349.5,6390.04 c -6.1,-13.53 -8,-27.83 -5.9,-42.5 0.6,-3.99 5.9,-6.53 9.5,-5.36 4.3,1.41 6,5.17 5.3,9.45 -0.1,0.89 -0.1,0.86 0,-0.09 l -0.1,1.3 -0.2,1.97 c -0.1,1.53 -0.1,3.06 -0.1,4.59 0,1.32 0,2.63 0.1,3.94 l 0.2,2.62 c 0.1,0.41 0.2,2.37 0.1,0.56 0.1,2.77 1,5.69 1.8,8.35 0.4,1.48 0.8,2.94 1.3,4.38 l 0.7,1.85 v -0.02 l 0.6,1.21 c 1.6,3.65 1.1,8.43 -2.8,10.51 -3.4,1.77 -8.8,1.16 -10.5,-2.76"
       style="fill:#5b371e;fill-opacity:1;fill-rule:nonzero;stroke:none"
       transform="matrix(0.03527778,0,0,-0.03527778,-498.48313,403.61689)"
       clip-path="url(#clipPath303)" />
    <path
       id="path304"
       d="m 17400.7,6386.18 c 0,-12.21 0,-24.41 0,-36.62 0,-4.02 3.5,-7.87 7.7,-7.69 4.2,0.19 7.7,3.38 7.7,7.69 0,12.21 0,24.41 0,36.62 0,4.02 -3.6,7.87 -7.7,7.68 -4.2,-0.18 -7.7,-3.37 -7.7,-7.68"
       style="fill:#5b371e;fill-opacity:1;fill-rule:nonzero;stroke:none"
       transform="matrix(0.03527778,0,0,-0.03527778,-498.48313,403.61689)"
       clip-path="url(#clipPath305)" />
    <path
       id="path306"
       d="m 17291.6,6400.71 c -6.5,-9.13 -8.4,-21.42 -5.4,-32.18 1.1,-3.88 5.5,-6.65 9.4,-5.37 4,1.28 6.6,5.3 5.4,9.45 -0.4,1.37 -0.6,2.75 -0.8,4.15 l 0.2,-2.04 c -0.3,2.68 -0.3,5.36 0,8.04 l -0.2,-2.04 c 0.3,2.46 0.9,4.87 1.8,7.19 0.1,0.25 0.5,1.22 0,0.06 -0.5,-1.16 -0.1,-0.19 0,0.05 l 0.9,1.71 c 0.6,1.12 1.3,2.19 2,3.23 1.1,1.53 1.3,4.17 0.8,5.92 -0.5,1.78 -1.9,3.71 -3.5,4.59 -4,2.1 -8.1,0.74 -10.6,-2.76"
       style="fill:#5b371e;fill-opacity:1;fill-rule:nonzero;stroke:none"
       transform="matrix(0.03527778,0,0,-0.03527778,-498.48313,403.61689)"
       clip-path="url(#clipPath307)" />
    <path
       id="path308"
       d="m 16601,6613.05 c -3.1,-10.73 -1.2,-23.06 5.3,-32.2 1.1,-1.66 2.5,-2.97 4.5,-3.53 1.9,-0.5 4.3,-0.27 6,0.78 3.2,2.09 5.2,7.01 2.7,10.51 -0.7,0.98 -1.3,1.99 -1.9,3.05 l -0.8,1.51 -0.3,0.77 c -0.4,0.81 0.7,-1.89 0.2,-0.46 -0.8,2.27 -1.5,4.57 -1.8,6.97 l 0.3,-2.04 c -0.4,2.68 -0.4,5.36 -0.1,8.04 l -0.3,-2.05 c 0.3,1.55 0.6,3.07 1,4.57 1.1,3.86 -1.3,8.54 -5.4,9.45 -4.1,0.93 -8.2,-1.23 -9.4,-5.37"
       style="fill:#5b371e;fill-opacity:1;fill-rule:nonzero;stroke:none"
       transform="matrix(0.03527778,0,0,-0.03527778,-498.48313,403.61689)"
       clip-path="url(#clipPath309)" />
    <path
       id="path310"
       d="m 16652.7,6669.35 c 3.6,-5.16 7.2,-10.33 10.8,-15.49 1.1,-1.67 2.5,-2.98 4.5,-3.53 1.9,-0.51 4.3,-0.28 6,0.77 1.6,1.06 3,2.64 3.5,4.6 0.4,1.92 0.4,4.23 -0.8,5.92 -3.6,5.16 -7.2,10.32 -10.7,15.49 -1.2,1.66 -2.6,2.97 -4.6,3.53 -1.9,0.5 -4.3,0.28 -6,-0.78 -1.6,-1.05 -3,-2.63 -3.5,-4.59 -0.4,-1.92 -0.4,-4.24 0.8,-5.92"
       style="fill:#5b371e;fill-opacity:1;fill-rule:nonzero;stroke:none"
       transform="matrix(0.03527778,0,0,-0.03527778,-498.48313,403.61689)"
       clip-path="url(#clipPath311)" />
    <path
       id="path312"
       d="m 16966.2,7377.74 c 27.1,-4.14 54.5,-3.68 81.9,-3.76 28.6,-0.07 57.1,-0.15 85.7,-0.23 9.9,-0.03 9.9,15.34 0,15.36 -27.7,0.08 -55.4,0.16 -83.2,0.23 -26.7,0.08 -53.8,-0.83 -80.3,3.21 -9.7,1.48 -13.9,-13.32 -4.1,-14.81"
       style="fill:#dba78a;fill-opacity:1;fill-rule:nonzero;stroke:none"
       transform="matrix(0.03527778,0,0,-0.03527778,-498.48313,403.61689)"
       clip-path="url(#clipPath313)" />
    <path
       id="path314"
       d="m 16982.2,7423.63 c 51.1,3.75 102.3,5.22 153.4,4.41 9.9,-0.16 9.9,15.21 0,15.37 -51.1,0.8 -102.3,-0.67 -153.4,-4.41 -9.8,-0.72 -9.9,-16.1 0,-15.37"
       style="fill:#dba78a;fill-opacity:1;fill-rule:nonzero;stroke:none"
       transform="matrix(0.03527778,0,0,-0.03527778,-498.48313,403.61689)"
       clip-path="url(#clipPath315)" />
    <path
       id="path316"
       d="m 17088.5,7119.27 c 15.2,-23.09 29.6,-46.68 43.2,-70.75 4.8,-8.61 18.1,-0.87 13.3,7.76 -13.6,24.06 -28,47.66 -43.2,70.74 -2.3,3.47 -6.8,4.93 -10.5,2.76 -3.4,-2.01 -5,-7.03 -2.8,-10.51"
       style="fill:#dba78a;fill-opacity:1;fill-rule:nonzero;stroke:none"
       transform="matrix(0.03527778,0,0,-0.03527778,-498.48313,403.61689)"
       clip-path="url(#clipPath317)" />
    <path
       id="path318"
       d="m 16990.9,7120.49 c -7.4,-32.91 -12.3,-66.36 -14.7,-100 -0.7,-9.87 14.7,-9.83 15.4,0 2.3,32.3 7,64.32 14.1,95.91 2.2,9.63 -12.7,13.75 -14.8,4.09"
       style="fill:#dba78a;fill-opacity:1;fill-rule:nonzero;stroke:none"
       transform="matrix(0.03527778,0,0,-0.03527778,-498.48313,403.61689)"
       clip-path="url(#clipPath319)" />
    <path
       id="path320"
       d="m 17057.6,6961.56 c -7.2,-12.49 -2.8,-29.4 9.5,-36.89 3.4,-2.1 8.6,-0.86 10.5,2.76 2,3.74 0.9,8.26 -2.8,10.51 l -0.8,0.56 c -1.3,0.88 0.2,-0.39 0.4,-0.38 l -1.5,1.39 c -0.6,0.58 -1.8,2.47 -0.4,0.26 l -1.1,1.72 -1,1.82 c -0.6,1.14 0.7,-1.84 0.2,-0.56 l -0.3,0.97 c -0.5,1.32 -0.8,2.67 -1,4.04 l 0.3,-2.04 c -0.2,1.72 -0.2,3.43 0,5.16 l -0.3,-2.05 c 0.2,1.14 0.4,2.26 0.8,3.35 0.1,0.4 0.7,2.07 0.2,0.69 -0.6,-1.3 -0.1,-0.28 0,0.02 l 0.5,0.91 c 2,3.5 1,8.57 -2.7,10.52 -3.7,1.93 -8.4,0.97 -10.5,-2.76"
       style="fill:#dba78a;fill-opacity:1;fill-rule:nonzero;stroke:none"
       transform="matrix(0.03527778,0,0,-0.03527778,-498.48313,403.61689)"
       clip-path="url(#clipPath321)" />
    <path
       id="path322"
       d="m 16937,6889.83 c 18.8,-9.93 38,-19.97 58.9,-24.24 58.1,-11.88 114.7,22.45 164.1,55.26 27.9,18.51 55.8,37.01 83.7,55.52 15.9,-60.2 28.1,-121.44 36.2,-183.19 -116.1,-81.65 -278,-92.72 -404.2,-27.65 -8.6,4.46 -17.6,9.72 -22,18.37 -3.5,6.63 -3.8,14.37 -3.9,21.83 -0.5,25.1 0.1,50.23 1.9,75.27 2.1,29 35.2,44.47 58.9,27.61 l 26.4,-18.78"
       style="fill:#ef6a55;fill-opacity:1;fill-rule:nonzero;stroke:none"
       transform="matrix(0.03527778,0,0,-0.03527778,-498.48313,403.61689)"
       clip-path="url(#clipPath323)" />
    <path
       id="path324"
       d="m 16859,6824.18 c -5.9,-21.73 -12,-43.89 -10.8,-66.35 1.1,-22.47 10.5,-45.69 29.8,-58.4 19.9,-13.14 47.5,-13.57 65.2,-29.43 22.7,-20.42 18.6,-55.26 16.5,-85.14 -2.1,-29.48 0.5,-61.62 20.3,-84.16 2.2,-2.44 4.5,-4.7 6.9,-6.8 34.7,-30.12 88.2,-7.45 94.1,38.13 3.3,25.41 12.6,49.04 32,66.1 12.5,10.97 28.1,18.03 42.4,26.62 32.6,19.46 61.4,52.27 57.9,88.99 -1,9.86 -4.2,19.74 -2.5,29.5 1.3,7.18 5.2,13.65 8,20.41 9.2,22.01 6.6,48.21 -6.6,68.21 -13.3,19.99 -36.9,33.26 -61.5,34.53 l -291.7,-42.21"
       style="fill:#ef6a55;fill-opacity:1;fill-rule:nonzero;stroke:none"
       transform="matrix(0.03527778,0,0,-0.03527778,-498.48313,403.61689)"
       clip-path="url(#clipPath325)" />
    <path
       id="path326"
       d="m 17434.2,7100.67 c -11.1,-11.55 -9.2,-29.88 -7.2,-45.76 4.6,-36.34 6,-73.86 -4.2,-109.04 -10.3,-35.18 -33.6,-67.96 -67.4,-82.29 -11.5,-4.88 -25,-8.39 -31.3,-19.13 -3.6,-6.09 -4.2,-13.5 -4,-20.58 0.7,-35.09 16.8,-69.79 10.1,-104.23 -5.5,-27.96 -26.9,-52.21 -54,-61.07 -27.1,-8.85 -58.7,-1.95 -79.6,17.38 -14.4,13.3 -23.5,31.41 -30.1,49.85 -7.4,20.51 -12.1,43.41 -4.5,63.85 5.4,14.66 16.6,26.69 21.5,41.54 6,18.04 1.8,37.67 2.6,56.65 1.7,42.44 0,82.84 62.6,106.14 39.8,14.81 74.5,40.38 114.5,54.9 l 71,51.79"
       style="fill:#72706e;fill-opacity:1;fill-rule:nonzero;stroke:none"
       transform="matrix(0.03527778,0,0,-0.03527778,-498.48313,403.61689)"
       clip-path="url(#clipPath327)" />
    <path
       id="path328"
       d="m 17236.4,6648.67 c 18.2,-4.62 27.2,-27.18 22.6,-45.36 -4.7,-18.18 -19.3,-32.11 -34.8,-42.68 -11.7,-7.93 -24.5,-14.79 -33.4,-25.74 -8.9,-10.94 -12.7,-27.68 -4.4,-39.03 -16.7,25.83 -33.8,52.43 -40.1,82.56 -6.3,30.14 0.5,65.05 24.6,84.16 24.2,19.11 66.6,13.5 78.4,-14.92 l -12.9,1.01"
       style="fill:#72706e;fill-opacity:1;fill-rule:nonzero;stroke:none"
       transform="matrix(0.03527778,0,0,-0.03527778,-498.48313,403.61689)"
       clip-path="url(#clipPath329)" />
    <path
       id="path330"
       d="m 17268.5,6642.07 c -23.2,20.65 -52.3,33.08 -83.2,35.77 -4.2,0.36 -7.7,-3.79 -7.7,-7.68 0,-4.46 3.5,-7.33 7.7,-7.69 26.6,-2.31 52.3,-13.5 72.3,-31.26 7.4,-6.56 18.3,4.27 10.9,10.86"
       style="fill:#ef6a55;fill-opacity:1;fill-rule:nonzero;stroke:none"
       transform="matrix(0.03527778,0,0,-0.03527778,-498.48313,403.61689)"
       clip-path="url(#clipPath331)" />
    <path
       id="path332"
       d="m 16938.7,6832.75 c 35.4,-13.1 72.1,-21.88 109.6,-26.69 4.2,-0.53 7.7,3.91 7.7,7.68 0.1,4.59 -3.6,7.16 -7.7,7.69 -36,4.62 -71.5,13.55 -105.5,26.14 -9.3,3.43 -13.3,-11.41 -4.1,-14.82"
       style="fill:#ba4e43;fill-opacity:1;fill-rule:nonzero;stroke:none"
       transform="matrix(0.03527778,0,0,-0.03527778,-498.48313,403.61689)"
       clip-path="url(#clipPath333)" />
    <path
       id="path334"
       d="m 16880.7,6718.51 c 14.6,-15.14 35.8,-19.37 55.4,-24.31 23.4,-5.89 46.8,-11.78 70.2,-17.67 43.8,-11.04 90.6,-23.81 135.2,-9.5 9.4,3.01 5.4,17.85 -4.1,14.82 -41.9,-13.45 -85.9,-0.87 -127,9.5 -21.8,5.48 -43.6,10.96 -65.3,16.45 -18.2,4.58 -39.9,7.48 -53.5,21.58 -6.9,7.12 -17.8,-3.75 -10.9,-10.87"
       style="fill:#ba4e43;fill-opacity:1;fill-rule:nonzero;stroke:none"
       transform="matrix(0.03527778,0,0,-0.03527778,-498.48313,403.61689)"
       clip-path="url(#clipPath335)" />
    <path
       id="path336"
       d="m 16983.3,6662.98 c 5,-33.71 -2.9,-68.71 8.1,-101.63 9,-26.65 32.9,-51.06 63,-48.1 9.8,0.96 9.9,16.33 0,15.37 -28,-2.75 -45.7,22.92 -51,47.36 -6.5,29.86 -0.9,60.93 -5.3,91.08 -1.4,9.75 -16.2,5.61 -14.8,-4.08"
       style="fill:#ba4e43;fill-opacity:1;fill-rule:nonzero;stroke:none"
       transform="matrix(0.03527778,0,0,-0.03527778,-498.48313,403.61689)"
       clip-path="url(#clipPath337)" />
    <path
       id="path338"
       d="m 17019.8,6649.24 c 0.2,-16.36 0.7,-34.02 9.5,-48.43 7.6,-12.53 21.6,-22.58 36.8,-21.09 4.1,0.41 7.7,3.24 7.7,7.68 0,3.85 -3.5,8.09 -7.7,7.69 -5.5,-0.54 -9.4,0.5 -14.1,3.55 -4.3,2.73 -7.8,6.87 -10.4,11.5 -6.4,11.72 -6.2,26.1 -6.5,39.1 -0.1,9.88 -15.5,9.9 -15.3,0"
       style="fill:#ba4e43;fill-opacity:1;fill-rule:nonzero;stroke:none"
       transform="matrix(0.03527778,0,0,-0.03527778,-498.48313,403.61689)"
       clip-path="url(#clipPath339)" />
    <path
       id="path340"
       d="m 16901.4,6892.94 c -16.8,-3.28 -25.3,-21.47 -23.6,-37.34 1,-10.15 5.2,-19.44 9.5,-28.6 4.2,-9.17 9.3,-19.32 8.4,-29.76 -0.9,-9.44 -6,-17.84 -6.4,-27.46 -0.4,-9.41 3.1,-18.9 8.4,-26.55 11.2,-16.06 29.2,-23.73 46.7,-30.86 9.2,-3.73 13.2,11.13 4.1,14.82 -14.1,5.75 -30.1,12.13 -38.7,25.5 -4.2,6.47 -6.1,13.73 -4.5,21.35 1.7,7.87 5.2,15.04 5.8,23.2 1.1,17.27 -9,31.8 -14.8,47.28 -4.2,11.11 -6.5,30.55 9.2,33.6 9.7,1.88 5.6,16.69 -4.1,14.82"
       style="fill:#ba4e43;fill-opacity:1;fill-rule:nonzero;stroke:none"
       transform="matrix(0.03527778,0,0,-0.03527778,-498.48313,403.61689)"
       clip-path="url(#clipPath341)" />
    <path
       id="path342"
       d="m 17153.8,6890.16 c -30.5,-19.61 -35,-57.15 -37.7,-90.22 -1.5,-18.3 -3.1,-37.73 -12.4,-54 -7.6,-13.35 -20.2,-24.95 -36.3,-25.36 -9.9,-0.25 -9.9,-15.61 0,-15.36 37.9,0.95 57,39 61.6,71.92 4.7,32.81 0.4,79.09 32.6,99.75 8.3,5.33 0.6,18.63 -7.8,13.27"
       style="fill:#ba4e43;fill-opacity:1;fill-rule:nonzero;stroke:none"
       transform="matrix(0.03527778,0,0,-0.03527778,-498.48313,403.61689)"
       clip-path="url(#clipPath343)" />
    <path
       id="path344"
       d="m 17073.2,6787.49 -0.4,-0.89 -0.9,-1.9 c -0.6,-1.25 -1.3,-2.47 -2.1,-3.67 -1.6,-2.68 -2.7,-4.16 -4.5,-6.23 -4,-4.48 -7.6,-7.53 -12.3,-10.46 -9.6,-5.86 -19.7,-8.47 -30.8,-7.72 -4.2,0.28 -7.7,-3.73 -7.7,-7.68 0,-4.39 3.5,-7.41 7.7,-7.69 28.4,-1.92 55.3,16.13 65.9,42.15 1.5,3.85 -1.7,8.45 -5.4,9.45 -4.4,1.21 -7.9,-1.5 -9.5,-5.36"
       style="fill:#ba4e43;fill-opacity:1;fill-rule:nonzero;stroke:none"
       transform="matrix(0.03527778,0,0,-0.03527778,-498.48313,403.61689)"
       clip-path="url(#clipPath345)" />
    <path
       id="path346"
       d="m 17011.8,6778.81 c -1.7,0 -3.5,0 -5.2,0 -1.1,0.04 -2.1,-0.18 -3,-0.67 -0.9,-0.31 -1.7,-0.84 -2.4,-1.58 -0.8,-0.7 -1.3,-1.52 -1.6,-2.48 -0.5,-0.91 -0.7,-1.9 -0.7,-2.96 l 0.3,-2.04 c 0.3,-1.3 1,-2.43 2,-3.39 l 1.5,-1.2 c 1.2,-0.7 2.5,-1.05 3.9,-1.05 1.7,0 3.5,0 5.2,0 1.1,-0.04 2.1,0.18 3,0.66 0.9,0.31 1.8,0.84 2.5,1.59 0.7,0.7 1.2,1.52 1.5,2.47 0.5,0.92 0.7,1.91 0.7,2.96 l -0.3,2.04 c -0.3,1.31 -1,2.44 -1.9,3.4 l -1.6,1.2 c -1.2,0.69 -2.5,1.04 -3.9,1.05"
       style="fill:#ba4e43;fill-opacity:1;fill-rule:nonzero;stroke:none"
       transform="matrix(0.03527778,0,0,-0.03527778,-498.48313,403.61689)"
       clip-path="url(#clipPath347)" />
    <path
       id="path348"
       d="m 17007.3,6317 c 37.5,41.68 67.2,92.36 114.7,123.9 8.2,5.45 0.5,18.76 -7.8,13.27 -48.8,-32.43 -79.2,-83.46 -117.8,-126.3 -6.6,-7.34 4.2,-18.24 10.9,-10.87"
       style="fill:#546e8e;fill-opacity:1;fill-rule:nonzero;stroke:none"
       transform="matrix(0.03527778,0,0,-0.03527778,-498.48313,403.61689)"
       clip-path="url(#clipPath349)" />
    <path
       id="path350"
       d="m 17023.4,6299.02 c 30.2,35.22 65.8,65.21 105.7,88.77 8.5,5.03 0.8,18.32 -7.8,13.27 -40.9,-24.18 -77.8,-55.03 -108.7,-91.17 -6.4,-7.48 4.4,-18.4 10.8,-10.87"
       style="fill:#546e8e;fill-opacity:1;fill-rule:nonzero;stroke:none"
       transform="matrix(0.03527778,0,0,-0.03527778,-498.48313,403.61689)"
       clip-path="url(#clipPath351)" />
  </g>
</svg>
