<?xml version="1.0" encoding="UTF-8" standalone="no"?>
<!-- Created with Inkscape (http://www.inkscape.org/) -->

<svg
   width="64.329033mm"
   height="64.331848mm"
   viewBox="0 0 64.329033 64.331848"
   version="1.1"
   id="svg1"
   inkscape:version="1.3.2 (091e20e, 2023-11-25)"
   sodipodi:docname="grand-grandmother-avatar.svg"
   xmlns:inkscape="http://www.inkscape.org/namespaces/inkscape"
   xmlns:sodipodi="http://sodipodi.sourceforge.net/DTD/sodipodi-0.dtd"
   xmlns="http://www.w3.org/2000/svg"
   xmlns:svg="http://www.w3.org/2000/svg">
  <sodipodi:namedview
     id="namedview1"
     pagecolor="#ffffff"
     bordercolor="#000000"
     borderopacity="0.25"
     inkscape:showpageshadow="2"
     inkscape:pageopacity="0.0"
     inkscape:pagecheckerboard="0"
     inkscape:deskcolor="#d1d1d1"
     inkscape:document-units="mm"
     inkscape:zoom="0.2102413"
     inkscape:cx="-2.3782197"
     inkscape:cy="187.87935"
     inkscape:window-width="1920"
     inkscape:window-height="1052"
     inkscape:window-x="0"
     inkscape:window-y="28"
     inkscape:window-maximized="0"
     inkscape:current-layer="layer1" />
  <defs
     id="defs1">
    <clipPath
       clipPathUnits="userSpaceOnUse"
       id="clipPath445">
      <path
         d="m 22305.6,7228.16 c 0,-503.58 -408.2,-911.79 -911.8,-911.79 -503.5,0 -911.7,408.21 -911.7,911.79 0,503.56 408.2,911.79 911.7,911.79 503.6,0 911.8,-408.23 911.8,-911.79"
         transform="translate(0,-2.5e-4)"
         id="path445" />
    </clipPath>
    <clipPath
       clipPathUnits="userSpaceOnUse"
       id="clipPath447">
      <path
         d="m 22305.6,7228.16 c 0,-503.58 -408.2,-911.79 -911.8,-911.79 -503.5,0 -911.7,408.21 -911.7,911.79 0,503.56 408.2,911.79 911.7,911.79 503.6,0 911.8,-408.23 911.8,-911.79"
         transform="translate(0,-2.5e-4)"
         id="path447" />
    </clipPath>
    <clipPath
       clipPathUnits="userSpaceOnUse"
       id="clipPath449">
      <path
         d="m 22305.6,7228.16 c 0,-503.58 -408.2,-911.79 -911.8,-911.79 -503.5,0 -911.7,408.21 -911.7,911.79 0,503.56 408.2,911.79 911.7,911.79 503.6,0 911.8,-408.23 911.8,-911.79"
         transform="translate(0,-2.5e-4)"
         id="path449" />
    </clipPath>
    <clipPath
       clipPathUnits="userSpaceOnUse"
       id="clipPath450">
      <path
         d="m 21856.7,6608.16 c -84.9,56.82 -187.5,79.56 -287.7,99.67 -6.1,1.23 -12.5,2.56 -17.4,6.39 -8.4,6.57 10.7,227.65 0,324.31 l -143,-13.38 -143.1,13.38 c -10.6,-96.66 8.4,-317.74 0,-324.31 -4.9,-3.83 -11.2,-5.16 -17.3,-6.39 -100.3,-20.11 -202.9,-42.85 -287.8,-99.67 -84.9,-56.8 -149.3,-155.88 -135.6,-257.06 85.2,0.44 323.3,-1.1 564.4,-4.27 v -0.52 c 6.5,0.09 12.9,0.17 19.4,0.26 6.4,-0.09 12.9,-0.17 19.3,-0.26 v 0.52 c 241.2,3.17 479.2,4.71 564.5,4.27 13.6,101.18 -50.7,200.26 -135.7,257.06"
         transform="translate(0,-2.5e-4)"
         id="path450" />
    </clipPath>
    <clipPath
       clipPathUnits="userSpaceOnUse"
       id="clipPath453">
      <path
         d="m 22305.6,7228.16 c 0,-503.58 -408.2,-911.79 -911.8,-911.79 -503.5,0 -911.7,408.21 -911.7,911.79 0,503.56 408.2,911.79 911.7,911.79 503.6,0 911.8,-408.23 911.8,-911.79"
         transform="translate(0,-2.5e-4)"
         id="path453" />
    </clipPath>
    <clipPath
       clipPathUnits="userSpaceOnUse"
       id="clipPath455">
      <path
         d="m 22305.6,7228.16 c 0,-503.58 -408.2,-911.79 -911.8,-911.79 -503.5,0 -911.7,408.21 -911.7,911.79 0,503.56 408.2,911.79 911.7,911.79 503.6,0 911.8,-408.23 911.8,-911.79"
         transform="translate(0,-2.5e-4)"
         id="path455" />
    </clipPath>
    <clipPath
       clipPathUnits="userSpaceOnUse"
       id="clipPath457">
      <path
         d="m 22305.6,7228.16 c 0,-503.58 -408.2,-911.79 -911.8,-911.79 -503.5,0 -911.7,408.21 -911.7,911.79 0,503.56 408.2,911.79 911.7,911.79 503.6,0 911.8,-408.23 911.8,-911.79"
         transform="translate(0,-2.5e-4)"
         id="path457" />
    </clipPath>
    <clipPath
       clipPathUnits="userSpaceOnUse"
       id="clipPath459">
      <path
         d="m 22305.6,7228.16 c 0,-503.58 -408.2,-911.79 -911.8,-911.79 -503.5,0 -911.7,408.21 -911.7,911.79 0,503.56 408.2,911.79 911.7,911.79 503.6,0 911.8,-408.23 911.8,-911.79"
         transform="translate(0,-2.5e-4)"
         id="path459" />
    </clipPath>
    <clipPath
       clipPathUnits="userSpaceOnUse"
       id="clipPath461">
      <path
         d="m 22305.6,7228.16 c 0,-503.58 -408.2,-911.79 -911.8,-911.79 -503.5,0 -911.7,408.21 -911.7,911.79 0,503.56 408.2,911.79 911.7,911.79 503.6,0 911.8,-408.23 911.8,-911.79"
         transform="translate(0,-2.5e-4)"
         id="path461" />
    </clipPath>
    <clipPath
       clipPathUnits="userSpaceOnUse"
       id="clipPath463">
      <path
         d="m 22305.6,7228.16 c 0,-503.58 -408.2,-911.79 -911.8,-911.79 -503.5,0 -911.7,408.21 -911.7,911.79 0,503.56 408.2,911.79 911.7,911.79 503.6,0 911.8,-408.23 911.8,-911.79"
         transform="translate(0,-2.5e-4)"
         id="path463" />
    </clipPath>
    <clipPath
       clipPathUnits="userSpaceOnUse"
       id="clipPath465">
      <path
         d="m 22305.6,7228.16 c 0,-503.58 -408.2,-911.79 -911.8,-911.79 -503.5,0 -911.7,408.21 -911.7,911.79 0,503.56 408.2,911.79 911.7,911.79 503.6,0 911.8,-408.23 911.8,-911.79"
         transform="translate(0,-2.5e-4)"
         id="path465" />
    </clipPath>
    <clipPath
       clipPathUnits="userSpaceOnUse"
       id="clipPath467">
      <path
         d="m 22305.6,7228.16 c 0,-503.58 -408.2,-911.79 -911.8,-911.79 -503.5,0 -911.7,408.21 -911.7,911.79 0,503.56 408.2,911.79 911.7,911.79 503.6,0 911.8,-408.23 911.8,-911.79"
         transform="translate(0,-2.5e-4)"
         id="path467" />
    </clipPath>
    <clipPath
       clipPathUnits="userSpaceOnUse"
       id="clipPath469">
      <path
         d="m 22305.6,7228.16 c 0,-503.58 -408.2,-911.79 -911.8,-911.79 -503.5,0 -911.7,408.21 -911.7,911.79 0,503.56 408.2,911.79 911.7,911.79 503.6,0 911.8,-408.23 911.8,-911.79"
         transform="translate(0,-2.5e-4)"
         id="path469" />
    </clipPath>
    <clipPath
       clipPathUnits="userSpaceOnUse"
       id="clipPath471">
      <path
         d="m 22305.6,7228.16 c 0,-503.58 -408.2,-911.79 -911.8,-911.79 -503.5,0 -911.7,408.21 -911.7,911.79 0,503.56 408.2,911.79 911.7,911.79 503.6,0 911.8,-408.23 911.8,-911.79"
         transform="translate(0,-2.5e-4)"
         id="path471" />
    </clipPath>
    <clipPath
       clipPathUnits="userSpaceOnUse"
       id="clipPath473">
      <path
         d="m 22305.6,7228.16 c 0,-503.58 -408.2,-911.79 -911.8,-911.79 -503.5,0 -911.7,408.21 -911.7,911.79 0,503.56 408.2,911.79 911.7,911.79 503.6,0 911.8,-408.23 911.8,-911.79"
         transform="translate(0,-2.5e-4)"
         id="path473" />
    </clipPath>
    <clipPath
       clipPathUnits="userSpaceOnUse"
       id="clipPath475">
      <path
         d="m 22305.6,7228.16 c 0,-503.58 -408.2,-911.79 -911.8,-911.79 -503.5,0 -911.7,408.21 -911.7,911.79 0,503.56 408.2,911.79 911.7,911.79 503.6,0 911.8,-408.23 911.8,-911.79"
         transform="translate(0,-2.5e-4)"
         id="path475" />
    </clipPath>
    <clipPath
       clipPathUnits="userSpaceOnUse"
       id="clipPath477">
      <path
         d="m 22305.6,7228.16 c 0,-503.58 -408.2,-911.79 -911.8,-911.79 -503.5,0 -911.7,408.21 -911.7,911.79 0,503.56 408.2,911.79 911.7,911.79 503.6,0 911.8,-408.23 911.8,-911.79"
         transform="translate(0,-2.5e-4)"
         id="path477" />
    </clipPath>
    <clipPath
       clipPathUnits="userSpaceOnUse"
       id="clipPath479">
      <path
         d="m 22305.6,7228.16 c 0,-503.58 -408.2,-911.79 -911.8,-911.79 -503.5,0 -911.7,408.21 -911.7,911.79 0,503.56 408.2,911.79 911.7,911.79 503.6,0 911.8,-408.23 911.8,-911.79"
         transform="translate(0,-2.5e-4)"
         id="path479" />
    </clipPath>
    <clipPath
       clipPathUnits="userSpaceOnUse"
       id="clipPath481">
      <path
         d="m 22305.6,7228.16 c 0,-503.58 -408.2,-911.79 -911.8,-911.79 -503.5,0 -911.7,408.21 -911.7,911.79 0,503.56 408.2,911.79 911.7,911.79 503.6,0 911.8,-408.23 911.8,-911.79"
         transform="translate(0,-2.5e-4)"
         id="path481" />
    </clipPath>
    <clipPath
       clipPathUnits="userSpaceOnUse"
       id="clipPath483">
      <path
         d="m 22305.6,7228.16 c 0,-503.58 -408.2,-911.79 -911.8,-911.79 -503.5,0 -911.7,408.21 -911.7,911.79 0,503.56 408.2,911.79 911.7,911.79 503.6,0 911.8,-408.23 911.8,-911.79"
         transform="translate(0,-2.5e-4)"
         id="path483" />
    </clipPath>
    <clipPath
       clipPathUnits="userSpaceOnUse"
       id="clipPath485">
      <path
         d="m 22305.6,7228.16 c 0,-503.58 -408.2,-911.79 -911.8,-911.79 -503.5,0 -911.7,408.21 -911.7,911.79 0,503.56 408.2,911.79 911.7,911.79 503.6,0 911.8,-408.23 911.8,-911.79"
         transform="translate(0,-2.5e-4)"
         id="path485" />
    </clipPath>
    <clipPath
       clipPathUnits="userSpaceOnUse"
       id="clipPath487">
      <path
         d="m 22305.6,7228.16 c 0,-503.58 -408.2,-911.79 -911.8,-911.79 -503.5,0 -911.7,408.21 -911.7,911.79 0,503.56 408.2,911.79 911.7,911.79 503.6,0 911.8,-408.23 911.8,-911.79"
         transform="translate(0,-2.5e-4)"
         id="path487" />
    </clipPath>
    <clipPath
       clipPathUnits="userSpaceOnUse"
       id="clipPath489">
      <path
         d="m 22305.6,7228.16 c 0,-503.58 -408.2,-911.79 -911.8,-911.79 -503.5,0 -911.7,408.21 -911.7,911.79 0,503.56 408.2,911.79 911.7,911.79 503.6,0 911.8,-408.23 911.8,-911.79"
         transform="translate(0,-2.5e-4)"
         id="path489" />
    </clipPath>
    <clipPath
       clipPathUnits="userSpaceOnUse"
       id="clipPath491">
      <path
         d="m 22305.6,7228.16 c 0,-503.58 -408.2,-911.79 -911.8,-911.79 -503.5,0 -911.7,408.21 -911.7,911.79 0,503.56 408.2,911.79 911.7,911.79 503.6,0 911.8,-408.23 911.8,-911.79"
         transform="translate(0,-2.5e-4)"
         id="path491" />
    </clipPath>
    <clipPath
       clipPathUnits="userSpaceOnUse"
       id="clipPath493">
      <path
         d="m 22305.6,7228.16 c 0,-503.58 -408.2,-911.79 -911.8,-911.79 -503.5,0 -911.7,408.21 -911.7,911.79 0,503.56 408.2,911.79 911.7,911.79 503.6,0 911.8,-408.23 911.8,-911.79"
         transform="translate(0,-2.5e-4)"
         id="path493" />
    </clipPath>
    <clipPath
       clipPathUnits="userSpaceOnUse"
       id="clipPath495">
      <path
         d="m 22305.6,7228.16 c 0,-503.58 -408.2,-911.79 -911.8,-911.79 -503.5,0 -911.7,408.21 -911.7,911.79 0,503.56 408.2,911.79 911.7,911.79 503.6,0 911.8,-408.23 911.8,-911.79"
         transform="translate(0,-2.5e-4)"
         id="path495" />
    </clipPath>
    <clipPath
       clipPathUnits="userSpaceOnUse"
       id="clipPath497">
      <path
         d="m 22305.6,7228.16 c 0,-503.58 -408.2,-911.79 -911.8,-911.79 -503.5,0 -911.7,408.21 -911.7,911.79 0,503.56 408.2,911.79 911.7,911.79 503.6,0 911.8,-408.23 911.8,-911.79"
         transform="translate(0,-2.5e-4)"
         id="path497" />
    </clipPath>
    <clipPath
       clipPathUnits="userSpaceOnUse"
       id="clipPath499">
      <path
         d="m 22305.6,7228.16 c 0,-503.58 -408.2,-911.79 -911.8,-911.79 -503.5,0 -911.7,408.21 -911.7,911.79 0,503.56 408.2,911.79 911.7,911.79 503.6,0 911.8,-408.23 911.8,-911.79"
         transform="translate(0,-2.5e-4)"
         id="path499" />
    </clipPath>
    <clipPath
       clipPathUnits="userSpaceOnUse"
       id="clipPath501">
      <path
         d="m 22305.6,7228.16 c 0,-503.58 -408.2,-911.79 -911.8,-911.79 -503.5,0 -911.7,408.21 -911.7,911.79 0,503.56 408.2,911.79 911.7,911.79 503.6,0 911.8,-408.23 911.8,-911.79"
         transform="translate(0,-2.5e-4)"
         id="path501" />
    </clipPath>
    <clipPath
       clipPathUnits="userSpaceOnUse"
       id="clipPath503">
      <path
         d="m 22305.6,7228.16 c 0,-503.58 -408.2,-911.79 -911.8,-911.79 -503.5,0 -911.7,408.21 -911.7,911.79 0,503.56 408.2,911.79 911.7,911.79 503.6,0 911.8,-408.23 911.8,-911.79"
         transform="translate(0,-2.5e-4)"
         id="path503" />
    </clipPath>
    <clipPath
       clipPathUnits="userSpaceOnUse"
       id="clipPath505">
      <path
         d="m 22305.6,7228.16 c 0,-503.58 -408.2,-911.79 -911.8,-911.79 -503.5,0 -911.7,408.21 -911.7,911.79 0,503.56 408.2,911.79 911.7,911.79 503.6,0 911.8,-408.23 911.8,-911.79"
         transform="translate(0,-2.5e-4)"
         id="path505" />
    </clipPath>
    <clipPath
       clipPathUnits="userSpaceOnUse"
       id="clipPath507">
      <path
         d="m 22305.6,7228.16 c 0,-503.58 -408.2,-911.79 -911.8,-911.79 -503.5,0 -911.7,408.21 -911.7,911.79 0,503.56 408.2,911.79 911.7,911.79 503.6,0 911.8,-408.23 911.8,-911.79"
         transform="translate(0,-2.5e-4)"
         id="path507" />
    </clipPath>
    <clipPath
       clipPathUnits="userSpaceOnUse"
       id="clipPath509">
      <path
         d="m 22305.6,7228.16 c 0,-503.58 -408.2,-911.79 -911.8,-911.79 -503.5,0 -911.7,408.21 -911.7,911.79 0,503.56 408.2,911.79 911.7,911.79 503.6,0 911.8,-408.23 911.8,-911.79"
         transform="translate(0,-2.5e-4)"
         id="path509" />
    </clipPath>
    <clipPath
       clipPathUnits="userSpaceOnUse"
       id="clipPath511">
      <path
         d="m 22305.6,7228.16 c 0,-503.58 -408.2,-911.79 -911.8,-911.79 -503.5,0 -911.7,408.21 -911.7,911.79 0,503.56 408.2,911.79 911.7,911.79 503.6,0 911.8,-408.23 911.8,-911.79"
         transform="translate(0,-2.5e-4)"
         id="path511" />
    </clipPath>
    <clipPath
       clipPathUnits="userSpaceOnUse"
       id="clipPath513">
      <path
         d="m 22305.6,7228.16 c 0,-503.58 -408.2,-911.79 -911.8,-911.79 -503.5,0 -911.7,408.21 -911.7,911.79 0,503.56 408.2,911.79 911.7,911.79 503.6,0 911.8,-408.23 911.8,-911.79"
         transform="translate(0,-2.5e-4)"
         id="path513" />
    </clipPath>
    <clipPath
       clipPathUnits="userSpaceOnUse"
       id="clipPath515">
      <path
         d="m 22305.6,7228.16 c 0,-503.58 -408.2,-911.79 -911.8,-911.79 -503.5,0 -911.7,408.21 -911.7,911.79 0,503.56 408.2,911.79 911.7,911.79 503.6,0 911.8,-408.23 911.8,-911.79"
         transform="translate(0,-2.5e-4)"
         id="path515" />
    </clipPath>
    <clipPath
       clipPathUnits="userSpaceOnUse"
       id="clipPath517">
      <path
         d="m 22305.6,7228.16 c 0,-503.58 -408.2,-911.79 -911.8,-911.79 -503.5,0 -911.7,408.21 -911.7,911.79 0,503.56 408.2,911.79 911.7,911.79 503.6,0 911.8,-408.23 911.8,-911.79"
         transform="translate(0,-2.5e-4)"
         id="path517" />
    </clipPath>
    <clipPath
       clipPathUnits="userSpaceOnUse"
       id="clipPath519">
      <path
         d="m 22305.6,7228.16 c 0,-503.58 -408.2,-911.79 -911.8,-911.79 -503.5,0 -911.7,408.21 -911.7,911.79 0,503.56 408.2,911.79 911.7,911.79 503.6,0 911.8,-408.23 911.8,-911.79"
         transform="translate(0,-2.5e-4)"
         id="path519" />
    </clipPath>
    <clipPath
       clipPathUnits="userSpaceOnUse"
       id="clipPath521">
      <path
         d="m 22305.6,7228.16 c 0,-503.58 -408.2,-911.79 -911.8,-911.79 -503.5,0 -911.7,408.21 -911.7,911.79 0,503.56 408.2,911.79 911.7,911.79 503.6,0 911.8,-408.23 911.8,-911.79"
         transform="translate(0,-2.5e-4)"
         id="path521" />
    </clipPath>
    <clipPath
       clipPathUnits="userSpaceOnUse"
       id="clipPath523">
      <path
         d="m 22305.6,7228.16 c 0,-503.58 -408.2,-911.79 -911.8,-911.79 -503.5,0 -911.7,408.21 -911.7,911.79 0,503.56 408.2,911.79 911.7,911.79 503.6,0 911.8,-408.23 911.8,-911.79"
         transform="translate(0,-2.5e-4)"
         id="path523" />
    </clipPath>
    <clipPath
       clipPathUnits="userSpaceOnUse"
       id="clipPath525">
      <path
         d="m 22305.6,7228.16 c 0,-503.58 -408.2,-911.79 -911.8,-911.79 -503.5,0 -911.7,408.21 -911.7,911.79 0,503.56 408.2,911.79 911.7,911.79 503.6,0 911.8,-408.23 911.8,-911.79"
         transform="translate(0,-2.5e-4)"
         id="path525" />
    </clipPath>
    <clipPath
       clipPathUnits="userSpaceOnUse"
       id="clipPath527">
      <path
         d="m 22305.6,7228.16 c 0,-503.58 -408.2,-911.79 -911.8,-911.79 -503.5,0 -911.7,408.21 -911.7,911.79 0,503.56 408.2,911.79 911.7,911.79 503.6,0 911.8,-408.23 911.8,-911.79"
         transform="translate(0,-2.5e-4)"
         id="path527" />
    </clipPath>
    <clipPath
       clipPathUnits="userSpaceOnUse"
       id="clipPath529">
      <path
         d="m 22305.6,7228.16 c 0,-503.58 -408.2,-911.79 -911.8,-911.79 -503.5,0 -911.7,408.21 -911.7,911.79 0,503.56 408.2,911.79 911.7,911.79 503.6,0 911.8,-408.23 911.8,-911.79"
         transform="translate(0,-2.5e-4)"
         id="path529" />
    </clipPath>
    <clipPath
       clipPathUnits="userSpaceOnUse"
       id="clipPath531">
      <path
         d="m 22305.6,7228.16 c 0,-503.58 -408.2,-911.79 -911.8,-911.79 -503.5,0 -911.7,408.21 -911.7,911.79 0,503.56 408.2,911.79 911.7,911.79 503.6,0 911.8,-408.23 911.8,-911.79"
         transform="translate(0,-2.5e-4)"
         id="path531" />
    </clipPath>
    <clipPath
       clipPathUnits="userSpaceOnUse"
       id="clipPath533">
      <path
         d="m 22305.6,7228.16 c 0,-503.58 -408.2,-911.79 -911.8,-911.79 -503.5,0 -911.7,408.21 -911.7,911.79 0,503.56 408.2,911.79 911.7,911.79 503.6,0 911.8,-408.23 911.8,-911.79"
         transform="translate(0,-2.5e-4)"
         id="path533" />
    </clipPath>
    <clipPath
       clipPathUnits="userSpaceOnUse"
       id="clipPath535">
      <path
         d="m 22305.6,7228.16 c 0,-503.58 -408.2,-911.79 -911.8,-911.79 -503.5,0 -911.7,408.21 -911.7,911.79 0,503.56 408.2,911.79 911.7,911.79 503.6,0 911.8,-408.23 911.8,-911.79"
         transform="translate(0,-2.5e-4)"
         id="path535" />
    </clipPath>
  </defs>
  <g
     inkscape:label="Layer 1"
     inkscape:groupmode="layer"
     id="layer1"
     transform="translate(-103.71674,-98.689554)">
    <path
       id="path444"
       d="m 20482.1,6316.37 h 1823.5 v 1823.58 h -1823.5 z"
       style="fill:#a59eff;fill-opacity:1;fill-rule:nonzero;stroke:none"
       transform="matrix(0.03527778,0,0,-0.03527778,-618.84628,385.84891)"
       clip-path="url(#clipPath445)" />
    <path
       id="path446"
       d="m 21341.1,6915.19 c -10.4,-48.12 -43.3,-93.63 -90.4,-108.07 -47.2,-14.46 -106.1,11.05 -118.6,58.66 -6.2,-22.16 -32.3,-33.79 -55.2,-31.25 -22.9,2.56 -43,15.67 -62,28.71 -52.7,36.35 -106.1,77.76 -131.5,136.56 -25.4,58.78 -11.9,139.08 44.9,168.66 -57.6,78.32 -79.9,181.66 -59.6,276.73 9.9,46.26 30.4,91.83 66.4,122.62 35.9,30.79 89.1,43.94 132.3,24.4 -4.2,84.45 0.8,186.75 74.6,228.26 24.5,13.8 53.2,18.11 81.3,20.15 80.6,5.83 177.8,-16.67 205.5,-92.47 49.8,56.12 124.1,96 198.5,85.87 74.3,-10.12 140.6,-82.36 127,-156.14 49.6,35.86 128.3,10.62 154.5,-44.58 26.2,-55.21 1.9,-126.59 -48.3,-161.49 58.6,-1.05 104.4,-59.27 108.3,-117.69 4,-58.41 -24.5,-114.45 -60,-161.03 40.9,-48.1 43.1,-124.82 5,-175.15 -18.2,-23.98 -43.8,-41.82 -60.2,-66.98 -11.7,-17.87 -18.3,-38.75 -30.6,-56.2 -28.2,-39.94 -87,-54.53 -130.6,-32.36 -21.4,-65.54 -109.9,-98.39 -169,-62.78 -29.4,-27.13 -75.4,-34.41 -111.7,-17.68 -36.3,16.74 -60.7,56.5 -59.1,96.4 l -11.5,36.85"
       style="fill:#7c7a79;fill-opacity:1;fill-rule:nonzero;stroke:none"
       transform="matrix(0.03527778,0,0,-0.03527778,-618.84628,385.84891)"
       clip-path="url(#clipPath447)" />
    <path
       id="path448"
       d="m 21856.7,6608.17 c -84.9,56.81 -187.5,79.56 -287.7,99.66 -6.1,1.23 -12.5,2.56 -17.4,6.39 -8.4,6.57 10.7,227.65 0,324.31 l -143,-13.38 -143.1,13.38 c -10.6,-96.66 8.4,-317.74 0,-324.31 -4.9,-3.83 -11.2,-5.16 -17.3,-6.39 -100.3,-20.1 -202.9,-42.85 -287.8,-99.66 -84.9,-56.81 -149.2,-155.89 -135.6,-257.07 85.3,0.44 323.3,-1.1 564.4,-4.27 v -0.52 c 6.5,0.09 12.9,0.18 19.4,0.26 6.4,-0.08 12.9,-0.17 19.3,-0.26 v 0.52 c 241.2,3.17 479.2,4.71 564.5,4.27 13.6,101.18 -50.7,200.26 -135.7,257.07"
       style="fill:#f0bf85;fill-opacity:1;fill-rule:nonzero;stroke:none"
       transform="matrix(0.03527778,0,0,-0.03527778,-618.84628,385.84891)"
       clip-path="url(#clipPath449)" />
    <g
       id="g451"
       transform="matrix(0.26458333,0,0,0.26458333,-618.84628,27.33498)">
      <path
         d="m 21075.2,7041.64 c 56.4,36.29 58.8,53.71 61.5,36.29 13.3,-85.55 148.7,-291.66 271.8,-291.66 159.3,0 251.7,268.61 266.7,336.3 -184.2,-26.28 -370.7,-52.61 -555.3,-30.49 5.1,-4.78 10.1,-9.56 15.2,-14.34 l -59.9,-36.1"
         style="fill:#d3a06c;fill-opacity:1;fill-rule:nonzero;stroke:none"
         transform="matrix(0.13333333,0,0,-0.13333333,0,1355.0133)"
         clip-path="url(#clipPath450)"
         id="path451" />
    </g>
    <path
       id="path452"
       d="m 21709.3,7149.48 c -1.6,22.99 -16.2,45.88 -38.3,52.57 -14.5,4.4 -31.3,-0.28 -42,-10.46 7.2,123.7 3.2,316.24 -5.1,316.95 -128.4,10.84 -302.6,37.11 -427.5,5.65 v -3.61 c -24.1,-81.09 -26.2,-206.76 -15.9,-312.66 -10,5.59 -22.4,7.48 -33.5,4.13 -22.1,-6.69 -36.6,-29.58 -38.3,-52.57 -1.6,-22.99 7.7,-45.61 20.9,-64.51 18.8,-26.91 49.8,-48.61 81.6,-48.33 13.5,-41.73 32.5,-81.48 60.9,-114.64 40.4,-47.22 102.6,-79.15 164.2,-70.77 59.6,8.1 109.6,52.32 138.7,104.92 14,25.33 23.9,52.49 31.2,80.49 32.1,-0.56 63.3,21.24 82.2,48.33 13.2,18.9 22.6,41.52 20.9,64.51"
       style="fill:#f0bf85;fill-opacity:1;fill-rule:nonzero;stroke:none"
       transform="matrix(0.03527778,0,0,-0.03527778,-618.84628,385.84891)"
       clip-path="url(#clipPath453)" />
    <path
       id="path454"
       d="m 21128.4,7201.41 c 60.2,83.87 90.6,183.31 86.1,281.77 10.1,-26.41 47.2,-39.89 79,-35.02 31.9,4.87 58.4,23.93 79,45.35 52.6,-36.45 130.5,-43.29 190.6,-16.73 -24.8,-22.76 -29.7,-59.83 -11.4,-86.77 18.3,-26.93 58.3,-41.5 93.5,-34.08 -10,-21.31 -18.8,-43.75 -17.4,-66.69 1.5,-22.93 15.5,-46.6 40.1,-55.55 -17.2,-6.62 -14,-31.52 2.8,-38.72 16.8,-7.19 38.1,0.38 49.9,12.97 11.8,12.59 16.3,28.93 20.5,44.68 20.1,74.99 40.2,152.03 27.7,228.22 -3.6,21.66 -10.1,43.54 -24.8,61.4 -35.5,43.21 -105.6,50.12 -167.1,53.13 -99.2,4.85 -198.3,9.71 -297.5,14.56 -47.3,2.32 -100,3.15 -135.6,-23.74 -21.8,-16.46 -33.2,-40.68 -42.2,-64.4 -38.5,-101.66 -46.2,-211.81 -22.2,-316.7 11.4,-2.06 22.8,-4.12 34.2,-6.18 l 14.8,2.5"
       style="fill:#7c7a79;fill-opacity:1;fill-rule:nonzero;stroke:none"
       transform="matrix(0.03527778,0,0,-0.03527778,-618.84628,385.84891)"
       clip-path="url(#clipPath455)" />
    <path
       id="path456"
       d="m 21390.3,7510.66 c -32.2,-11.4 -42.7,-49.57 -33.9,-80.16 5.1,-17.72 17.4,-34.26 34.2,-42.48 16.4,-8.08 36.3,-6.76 47.9,8.57 10.4,13.87 10.8,34.71 -4.6,44.98 -2.2,1.43 -5.6,1.44 -7.8,0 -15.3,-10.27 -23.4,-26.94 -25.5,-44.96 -2.5,-22.09 5.2,-43.72 12.7,-64.11 3.4,-9.21 18.3,-5.23 14.9,4.08 -10.1,27.44 -25,71.1 5.7,91.72 -2.6,0 -5.2,0 -7.8,0 10.4,-6.87 2.3,-24.08 -6.6,-28.33 -16.9,-8.09 -35.9,9.46 -43.5,22.95 -12.8,22.89 -9.9,62.9 18.4,72.92 9.3,3.27 5.3,18.13 -4.1,14.82"
       style="fill:#7c7a79;fill-opacity:1;fill-rule:nonzero;stroke:none"
       transform="matrix(0.03527778,0,0,-0.03527778,-618.84628,385.84891)"
       clip-path="url(#clipPath457)" />
    <path
       id="path458"
       d="m 21656.2,6695.95 c -103.8,16.14 -100.6,98.95 -103.8,128.83 -92.9,1.66 -200,3.91 -293,5.56 1,-128.49 -118,-146.03 -120.6,-143.86 0,0 -316.6,-72.29 -368.5,-311.66 -2.5,-11.66 -3.2,-25.56 6.1,-33.73 6.5,-5.68 16,-6.68 24.9,-7.37 401.4,-31.32 822.8,-32.62 1222.4,14.68 -6.7,58.76 -46.2,302.22 -367.5,347.55"
       style="fill:#ef6a55;fill-opacity:1;fill-rule:nonzero;stroke:none"
       transform="matrix(0.03527778,0,0,-0.03527778,-618.84628,385.84891)"
       clip-path="url(#clipPath459)" />
    <path
       id="path460"
       d="m 21303.8,7205.73 c 0,-16.58 -13.1,-30.02 -29.4,-30.02 -16.2,0 -29.4,13.44 -29.4,30.02 0,16.58 13.2,30.02 29.4,30.02 16.3,0 29.4,-13.44 29.4,-30.02"
       style="fill:#1a1a1a;fill-opacity:1;fill-rule:nonzero;stroke:none"
       transform="matrix(0.03527778,0,0,-0.03527778,-618.84628,385.84891)"
       clip-path="url(#clipPath461)" />
    <path
       id="path462"
       d="m 21552.4,7205.73 c 0,-16.58 -13.2,-30.02 -29.4,-30.02 -16.2,0 -29.4,13.44 -29.4,30.02 0,16.58 13.2,30.02 29.4,30.02 16.2,0 29.4,-13.44 29.4,-30.02"
       style="fill:#1a1a1a;fill-opacity:1;fill-rule:nonzero;stroke:none"
       transform="matrix(0.03527778,0,0,-0.03527778,-618.84628,385.84891)"
       clip-path="url(#clipPath463)" />
    <path
       id="path464"
       d="m 21368,7043.55 c 26.3,-23.44 68.2,-26.52 96.9,-5.73 3.4,2.43 5,6.69 2.8,10.52 -1.9,3.31 -7.1,5.2 -10.5,2.75 -23.1,-16.64 -56.9,-15.82 -78.3,3.33 -7.4,6.57 -18.3,-4.27 -10.9,-10.87"
       style="fill:#a46e4a;fill-opacity:1;fill-rule:nonzero;stroke:none"
       transform="matrix(0.03527778,0,0,-0.03527778,-618.84628,385.84891)"
       clip-path="url(#clipPath465)" />
    <path
       id="path466"
       d="m 21624,7110.79 c 1.2,1.99 2.5,3.95 3.9,5.84 l 0.9,1.34 0.7,0.81 0.6,0.79 1.3,1.53 c 2.9,3.46 6.1,6.7 9.5,9.69 l 2.6,2.14 1.3,1.03 c -1.2,-0.93 0.1,0.02 0.3,0.21 1.9,1.38 3.8,2.69 5.8,3.93 3.9,2.48 8.1,4.63 12.3,6.48 3.7,1.6 4.8,7.31 2.8,10.52 -2.5,3.83 -6.6,4.46 -10.5,2.75 -18.5,-8.01 -34.3,-22.09 -44.7,-39.3 -2.1,-3.44 -0.9,-8.59 2.7,-10.51 3.7,-1.97 8.3,-0.91 10.5,2.75"
       style="fill:#a46e4a;fill-opacity:1;fill-rule:nonzero;stroke:none"
       transform="matrix(0.03527778,0,0,-0.03527778,-618.84628,385.84891)"
       clip-path="url(#clipPath467)" />
    <path
       id="path468"
       d="m 21635,7124.57 c 1.3,-0.79 2.6,-1.65 3.9,-2.56 0.7,-0.55 -1.3,1.06 -0.3,0.15 l 1,-0.79 1.6,-1.49 c 1.2,-1.14 2.2,-2.35 3.3,-3.61 l -0.3,0.4 0.7,-0.99 1.3,-2.03 c 0.8,-1.32 1.6,-2.67 2.2,-4.07 l 0.5,-0.88 c 0.7,-1.52 -0.5,1.18 -0.2,0.26 l 0.9,-2.29 c 0.5,-1.47 0.9,-2.96 1.2,-4.47 l 0.4,-2.4 c -0.1,0.34 -0.2,1.65 -0.1,0.59 l 0.1,-1.46 c 0.3,-4 3.3,-7.88 7.7,-7.68 3.9,0.17 8,3.39 7.7,7.68 -1.1,15.98 -10,30.77 -23.8,38.91 -3.5,2.03 -8.6,0.91 -10.6,-2.76 -1.9,-3.69 -0.9,-8.34 2.8,-10.51"
       style="fill:#a46e4a;fill-opacity:1;fill-rule:nonzero;stroke:none"
       transform="matrix(0.03527778,0,0,-0.03527778,-618.84628,385.84891)"
       clip-path="url(#clipPath469)" />
    <path
       id="path470"
       d="m 21149.3,7157.49 c 10.5,-17.43 21,-34.86 31.5,-52.29 2.1,-3.56 6.9,-4.87 10.5,-2.76 3.5,2.08 4.9,6.94 2.7,10.51 -10.5,17.43 -20.9,34.87 -31.4,52.3 -2.2,3.55 -6.9,4.87 -10.5,2.75 -3.6,-2.08 -4.9,-6.94 -2.8,-10.51"
       style="fill:#a46e4a;fill-opacity:1;fill-rule:nonzero;stroke:none"
       transform="matrix(0.03527778,0,0,-0.03527778,-618.84628,385.84891)"
       clip-path="url(#clipPath471)" />
    <path
       id="path472"
       d="m 21149.7,7108.35 c 7,5.22 14,10.44 21,15.66 1.6,1.24 2.9,2.51 3.5,4.59 0.5,1.84 0.3,4.29 -0.8,5.92 -1,1.64 -2.6,3.08 -4.6,3.53 -1.8,0.43 -4.2,0.44 -5.9,-0.77 -7,-5.22 -14,-10.44 -21,-15.66 -1.6,-1.24 -2.9,-2.51 -3.5,-4.59 -0.5,-1.84 -0.3,-4.29 0.8,-5.92 1,-1.64 2.6,-3.09 4.6,-3.53 1.9,-0.43 4.3,-0.44 5.9,0.77"
       style="fill:#a46e4a;fill-opacity:1;fill-rule:nonzero;stroke:none"
       transform="matrix(0.03527778,0,0,-0.03527778,-618.84628,385.84891)"
       clip-path="url(#clipPath473)" />
    <path
       id="path474"
       d="m 21749.8,6455.41 c 2.2,-36.59 4.4,-73.18 6.6,-109.77 0.6,-9.83 16,-9.9 15.4,0 -2.2,36.59 -4.4,73.18 -6.7,109.77 -0.6,9.82 -15.9,9.89 -15.3,0"
       style="fill:#a3362b;fill-opacity:1;fill-rule:nonzero;stroke:none"
       transform="matrix(0.03527778,0,0,-0.03527778,-618.84628,385.84891)"
       clip-path="url(#clipPath475)" />
    <path
       id="path476"
       d="m 21789.3,6464.29 c -19.9,-26.43 -33,-57.76 -37.9,-90.45 -0.6,-4.1 1,-8.26 5.4,-9.46 3.6,-0.99 8.8,1.24 9.4,5.37 4.7,31.61 17.2,61.24 36.4,86.78 2.4,3.32 0.5,8.59 -2.8,10.51 -3.9,2.3 -8,0.58 -10.5,-2.75"
       style="fill:#a3362b;fill-opacity:1;fill-rule:nonzero;stroke:none"
       transform="matrix(0.03527778,0,0,-0.03527778,-618.84628,385.84891)"
       clip-path="url(#clipPath477)" />
    <path
       id="path478"
       d="m 21059,6453.21 c 8.5,-38.42 17,-76.84 25.4,-115.26 2.1,-9.66 17,-5.57 14.8,4.08 -8.4,38.42 -16.9,76.84 -25.4,115.27 -2.1,9.65 -16.9,5.56 -14.8,-4.09"
       style="fill:#a3362b;fill-opacity:1;fill-rule:nonzero;stroke:none"
       transform="matrix(0.03527778,0,0,-0.03527778,-618.84628,385.84891)"
       clip-path="url(#clipPath479)" />
    <path
       id="path480"
       d="m 21046.6,6424.11 c 10.5,-12.22 20.9,-24.45 31.4,-36.68 2.6,-3.06 8.2,-2.89 10.8,0 3,3.27 2.8,7.6 0,10.87 -10.4,12.23 -20.9,24.45 -31.3,36.68 -2.6,3.07 -8.2,2.9 -10.9,0 -3,-3.26 -2.8,-7.6 0,-10.87"
       style="fill:#a3362b;fill-opacity:1;fill-rule:nonzero;stroke:none"
       transform="matrix(0.03527778,0,0,-0.03527778,-618.84628,385.84891)"
       clip-path="url(#clipPath481)" />
    <path
       id="path482"
       d="m 21273.3,6816.28 c -4.2,-32.94 -5.2,-66.18 -2.8,-99.3 0.8,-9.8 16.1,-9.88 15.4,0 -2.4,33.12 -1.5,66.36 2.8,99.3 0.5,4.12 -3.9,7.68 -7.7,7.68 -4.6,0 -7.2,-3.54 -7.7,-7.68"
       style="fill:#a3362b;fill-opacity:1;fill-rule:nonzero;stroke:none"
       transform="matrix(0.03527778,0,0,-0.03527778,-618.84628,385.84891)"
       clip-path="url(#clipPath483)" />
    <path
       id="path484"
       d="m 21317,6811.13 c -0.9,-28.51 -0.2,-57.03 2,-85.46 0.3,-4.14 3.3,-7.68 7.7,-7.68 3.9,0 8,3.52 7.7,7.68 -2.2,28.43 -2.9,56.95 -2,85.46 0.3,9.89 -15.1,9.88 -15.4,0"
       style="fill:#a3362b;fill-opacity:1;fill-rule:nonzero;stroke:none"
       transform="matrix(0.03527778,0,0,-0.03527778,-618.84628,385.84891)"
       clip-path="url(#clipPath485)" />
    <path
       id="path486"
       d="m 21358.7,6812.81 c -4.1,-32.1 -3.4,-64.38 1.5,-96.35 0.6,-4.1 5.7,-6.37 9.4,-5.36 4.4,1.2 6,5.33 5.4,9.45 -4.7,30.52 -4.8,61.64 -1,92.26 0.5,4.12 -3.9,7.68 -7.7,7.68 -4.5,0 -7.1,-3.55 -7.6,-7.68"
       style="fill:#a3362b;fill-opacity:1;fill-rule:nonzero;stroke:none"
       transform="matrix(0.03527778,0,0,-0.03527778,-618.84628,385.84891)"
       clip-path="url(#clipPath487)" />
    <path
       id="path488"
       d="m 21423.2,6816.3 c -3.1,-30.36 -2.2,-60.81 2.2,-91.01 0.6,-4.11 5.8,-6.36 9.4,-5.36 4.4,1.21 6,5.33 5.4,9.45 -4.2,28.76 -4.6,58.03 -1.6,86.92 0.4,4.14 -3.8,7.69 -7.7,7.69 -4.5,0 -7.2,-3.54 -7.7,-7.69"
       style="fill:#a3362b;fill-opacity:1;fill-rule:nonzero;stroke:none"
       transform="matrix(0.03527778,0,0,-0.03527778,-618.84628,385.84891)"
       clip-path="url(#clipPath489)" />
    <path
       id="path490"
       d="m 21473.7,6816.29 c -3.6,-27.36 -3,-54.91 1.3,-82.16 0.6,-4.1 5.8,-6.38 9.4,-5.37 4.4,1.2 6,5.34 5.4,9.46 -4.1,25.81 -4.1,52.18 -0.7,78.07 0.6,4.12 -3.9,7.68 -7.7,7.68 -4.6,0 -7.1,-3.55 -7.7,-7.68"
       style="fill:#a3362b;fill-opacity:1;fill-rule:nonzero;stroke:none"
       transform="matrix(0.03527778,0,0,-0.03527778,-618.84628,385.84891)"
       clip-path="url(#clipPath491)" />
    <path
       id="path492"
       d="m 21523.8,6821.61 c -1.5,-27.37 -0.5,-54.79 3.1,-81.97 0.5,-4.11 3.1,-7.68 7.7,-7.68 3.7,0 8.2,3.54 7.7,7.68 -3.7,27.18 -4.7,54.6 -3.1,81.97 0.6,9.88 -14.8,9.84 -15.4,0"
       style="fill:#a3362b;fill-opacity:1;fill-rule:nonzero;stroke:none"
       transform="matrix(0.03527778,0,0,-0.03527778,-618.84628,385.84891)"
       clip-path="url(#clipPath493)" />
    <path
       id="path494"
       d="m 21634.8,7060.53 v 1.74 c 0.1,1.06 -0.1,2.04 -0.6,2.96 -0.3,0.95 -0.9,1.78 -1.6,2.47 -0.7,0.75 -1.5,1.28 -2.5,1.59 -0.9,0.48 -1.9,0.7 -2.9,0.66 l -2.1,-0.27 c -1.3,-0.37 -2.4,-1.03 -3.4,-1.98 l -1.2,-1.55 c -0.7,-1.2 -1,-2.49 -1,-3.88 v -1.74 c -0.1,-1.06 0.1,-2.05 0.6,-2.97 0.3,-0.95 0.9,-1.77 1.6,-2.47 0.7,-0.75 1.5,-1.28 2.5,-1.59 0.9,-0.48 1.9,-0.7 3,-0.66 l 2,0.28 c 1.3,0.36 2.4,1.02 3.4,1.97 l 1.2,1.56 c 0.7,1.2 1,2.49 1,3.88"
       style="fill:#a3362b;fill-opacity:1;fill-rule:nonzero;stroke:none"
       transform="matrix(0.03527778,0,0,-0.03527778,-618.84628,385.84891)"
       clip-path="url(#clipPath495)" />
    <path
       id="path496"
       d="m 21244.9,7314.4 c 0.8,0.8 1.7,1.59 2.6,2.35 1.5,1.3 4.5,2.61 -0.9,-0.66 1.8,1.11 3.5,2.53 5.3,3.68 3.9,2.43 7.9,4.49 12.1,6.27 -1.9,-0.77 -3.7,-1.55 -5.5,-2.32 6.9,2.87 14.1,4.85 21.6,5.93 -2,-0.28 -4.1,-0.54 -6.1,-0.82 7.4,0.97 14.9,1.01 22.4,0.05 -2.1,0.28 -4.1,0.55 -6.2,0.83 2.8,-0.4 5.5,-0.91 8.2,-1.54 11.7,-2.78 25.5,3.66 28.3,16.1 2.7,11.81 -3.5,25.37 -16.1,28.35 -35,8.29 -71.8,-1.4 -98.3,-25.63 -9,-8.15 -8.9,-24.43 0,-32.59 9.5,-8.77 23,-8.71 32.6,0"
       style="fill:#474544;fill-opacity:1;fill-rule:nonzero;stroke:none"
       transform="matrix(0.03527778,0,0,-0.03527778,-618.84628,385.84891)"
       clip-path="url(#clipPath497)" />
    <path
       id="path498"
       d="m 21499.7,7315.69 c 1.2,0.18 2.3,0.34 3.5,0.47 1,0.11 2.2,0.05 2.5,-0.02 0.4,-0.07 -0.3,-0.14 -3.7,0.01 1.2,-0.05 2.4,-0.01 3.5,0.03 1,0.03 2,0.07 3,0.04 4.6,-0.13 9.1,-0.67 13.5,-1.5 -1.9,0.38 -3.9,0.76 -5.8,1.14 7.4,-1.49 14.5,-3.87 21.3,-7.13 -1.9,0.92 -3.8,1.82 -5.6,2.73 6.7,-3.34 13,-7.47 18.6,-12.43 -1.5,1.37 -3,2.73 -4.6,4.1 2.1,-1.85 4,-3.79 5.9,-5.82 8.2,-8.82 23.2,-11.17 32.5,-2.41 8.8,8.31 11.2,23.05 2.4,32.51 -24.4,26.38 -60.4,38.86 -95.9,33.51 -12,-1.8 -21,-15.35 -18.2,-27.07 3.1,-12.6 14.3,-20.08 27.1,-18.16"
       style="fill:#474544;fill-opacity:1;fill-rule:nonzero;stroke:none"
       transform="matrix(0.03527778,0,0,-0.03527778,-618.84628,385.84891)"
       clip-path="url(#clipPath499)" />
    <path
       id="path500"
       d="m 21371.3,7090.62 c -17.7,-23.56 -31.1,-50.24 -39.5,-78.49 -2.9,-9.49 12,-13.55 14.8,-4.08 8.1,27.04 21,52.27 38,74.81 2.5,3.32 0.5,8.59 -2.8,10.51 -3.9,2.31 -8,0.57 -10.5,-2.75"
       style="fill:#a46e4a;fill-opacity:1;fill-rule:nonzero;stroke:none"
       transform="matrix(0.03527778,0,0,-0.03527778,-618.84628,385.84891)"
       clip-path="url(#clipPath501)" />
    <path
       id="path502"
       d="m 21470.9,7081.14 c 11.9,-16.52 22.4,-34.06 31.2,-52.43 1.8,-3.74 7.1,-4.73 10.5,-2.76 3.8,2.24 4.6,6.76 2.7,10.51 -8.8,18.38 -19.2,35.92 -31.1,52.44 -2.5,3.36 -6.7,5 -10.6,2.76 -3.3,-1.94 -5.2,-7.13 -2.7,-10.52"
       style="fill:#a46e4a;fill-opacity:1;fill-rule:nonzero;stroke:none"
       transform="matrix(0.03527778,0,0,-0.03527778,-618.84628,385.84891)"
       clip-path="url(#clipPath503)" />
    <path
       id="path504"
       d="m 21417.3,6953.79 2.1,-1.39 -1.5,1.21 c 1.1,-0.92 2.1,-1.95 3.1,-3.11 l -1.2,1.56 c 1,-1.35 1.8,-2.8 2.5,-4.35 l -0.8,1.83 c 0.6,-1.56 1.1,-3.18 1.3,-4.85 l -0.3,2.04 c 0.3,-1.67 0.3,-3.33 0.1,-5.01 l 0.3,2.05 c -0.3,-1.46 -0.6,-2.87 -1.2,-4.23 l 0.8,1.83 -0.4,-0.86 c -0.9,-1.9 -1.3,-3.83 -0.8,-5.92 0.5,-1.79 1.9,-3.72 3.6,-4.59 3.4,-1.81 8.6,-1.13 10.5,2.75 2.8,6.03 3.5,12.83 1.5,19.25 -2,6.25 -6.1,11.8 -11.8,15.06 -3.5,1.98 -8.6,0.95 -10.5,-2.76 -1.9,-3.64 -1,-8.39 2.7,-10.51"
       style="fill:#a46e4a;fill-opacity:1;fill-rule:nonzero;stroke:none"
       transform="matrix(0.03527778,0,0,-0.03527778,-618.84628,385.84891)"
       clip-path="url(#clipPath505)" />
    <path
       id="path506"
       d="m 21373,7226.74 c 16.8,9.28 37.9,9.8 54.9,1.07 3.7,-1.88 8.4,-0.96 10.6,2.76 2,3.43 0.9,8.63 -2.8,10.52 -22.1,11.25 -48.7,10.94 -70.4,-1.09 -8.7,-4.79 -0.9,-18.07 7.7,-13.26"
       style="fill:#a3362b;fill-opacity:1;fill-rule:nonzero;stroke:none"
       transform="matrix(0.03527778,0,0,-0.03527778,-618.84628,385.84891)"
       clip-path="url(#clipPath507)" />
    <path
       id="path508"
       d="m 21180.5,7197.92 c -0.7,0.36 -1.3,0.7 -2,1.03 0,1.62 -0.1,3.26 -0.1,4.9 0,3.83 0.2,7.63 0.5,11.37 0.5,-5.82 1,-11.58 1.6,-17.3"
       style="fill:#aaa8a8;fill-opacity:1;fill-rule:nonzero;stroke:none"
       transform="matrix(0.03527778,0,0,-0.03527778,-618.84628,385.84891)"
       clip-path="url(#clipPath509)" />
    <path
       id="path510"
       d="m 21275.8,7091.15 c -52.4,0 -95.1,47.82 -97.3,107.8 0.7,-0.33 1.3,-0.67 2,-1.03 -0.6,5.72 -1.1,11.48 -1.6,17.3 5,56.9 46.4,101.32 96.9,101.32 42.4,0 78.5,-31.45 91.8,-75.31 -0.8,-0.4 -1.5,-0.81 -2.3,-1.23 -7.4,-4.08 -2.9,-14.29 4,-14.3 0.6,0 1.3,0.09 1.9,0.28 1.2,-7.16 1.9,-14.56 1.9,-22.13 0,-62.25 -43.6,-112.7 -97.3,-112.7 m -1.4,144.6 c -16.2,0 -29.4,-13.44 -29.4,-30.02 0,-16.58 13.2,-30.02 29.4,-30.02 16.3,0 29.4,13.44 29.4,30.02 0,16.58 -13.1,30.02 -29.4,30.02"
       style="fill:#f5d5b0;fill-opacity:1;fill-rule:nonzero;stroke:none"
       transform="matrix(0.03527778,0,0,-0.03527778,-618.84628,385.84891)"
       clip-path="url(#clipPath511)" />
    <path
       id="path512"
       d="m 21274.4,7175.71 c -16.2,0 -29.4,13.44 -29.4,30.02 0,16.58 13.2,30.02 29.4,30.02 16.3,0 29.4,-13.44 29.4,-30.02 0,-16.58 -13.1,-30.02 -29.4,-30.02"
       style="fill:#6a6a6a;fill-opacity:1;fill-rule:nonzero;stroke:none"
       transform="matrix(0.03527778,0,0,-0.03527778,-618.84628,385.84891)"
       clip-path="url(#clipPath513)" />
    <path
       id="path514"
       d="m 21369.3,7225.7 c -6.9,0.01 -11.4,10.22 -4,14.3 0.8,0.42 1.5,0.83 2.3,1.23 1.5,-4.94 2.7,-10.03 3.6,-15.25 -0.6,-0.19 -1.3,-0.28 -1.9,-0.28"
       style="fill:#c37c75;fill-opacity:1;fill-rule:nonzero;stroke:none"
       transform="matrix(0.03527778,0,0,-0.03527778,-618.84628,385.84891)"
       clip-path="url(#clipPath515)" />
    <path
       id="path516"
       d="m 21629,7191.59 c 0.7,13.32 1.4,27.43 1.9,42.02 2.2,-9.48 3.4,-19.46 3.4,-29.76 0,-2.73 0,-5.44 -0.2,-8.13 -1.8,-1.25 -3.5,-2.63 -5.1,-4.13"
       style="fill:#aaa8a8;fill-opacity:1;fill-rule:nonzero;stroke:none"
       transform="matrix(0.03527778,0,0,-0.03527778,-618.84628,385.84891)"
       clip-path="url(#clipPath517)" />
    <path
       id="path518"
       d="m 21537,7091.15 c -53.7,0 -97.3,50.45 -97.3,112.7 0,55.67 34.9,101.92 80.7,111.05 5,-1.24 9.8,-2.9 14.4,-4.97 4.8,-2.55 9.2,-5.52 13.4,-8.9 1.2,-1.2 2.4,-2.44 3.6,-3.72 4.6,-4.99 11.5,-7.91 18.2,-7.91 5.2,0 10.3,1.7 14.3,5.5 1.5,1.42 2.9,3.03 4,4.77 20.6,-14.81 36.1,-38.3 42.6,-66.06 -0.5,-14.59 -1.2,-28.7 -1.9,-42.02 1.6,1.5 3.3,2.88 5.1,4.13 -3.6,-58.45 -45.7,-104.57 -97.1,-104.57 m -14,144.6 c -16.2,0 -29.4,-13.44 -29.4,-30.02 0,-16.58 13.2,-30.02 29.4,-30.02 16.2,0 29.4,13.44 29.4,30.02 0,16.58 -13.2,30.02 -29.4,30.02"
       style="fill:#f5d5b0;fill-opacity:1;fill-rule:nonzero;stroke:none"
       transform="matrix(0.03527778,0,0,-0.03527778,-618.84628,385.84891)"
       clip-path="url(#clipPath519)" />
    <path
       id="path520"
       d="m 21523,7175.71 c -16.2,0 -29.4,13.44 -29.4,30.02 0,16.58 13.2,30.02 29.4,30.02 16.2,0 29.4,-13.44 29.4,-30.02 0,-16.58 -13.2,-30.02 -29.4,-30.02"
       style="fill:#6a6a6a;fill-opacity:1;fill-rule:nonzero;stroke:none"
       transform="matrix(0.03527778,0,0,-0.03527778,-618.84628,385.84891)"
       clip-path="url(#clipPath521)" />
    <path
       id="path522"
       d="m 21570,7289.4 c -6.7,0 -13.6,2.92 -18.2,7.91 -1.2,1.28 -2.4,2.52 -3.6,3.72 -4.2,3.38 -8.6,6.35 -13.4,8.9 -4.6,2.07 -9.4,3.73 -14.4,4.97 5.4,1.08 11,1.64 16.6,1.64 18.8,0 36.4,-6.18 51.3,-16.87 -1.1,-1.74 -2.5,-3.35 -4,-4.77 -4,-3.8 -9.1,-5.5 -14.3,-5.5 m -19.5,9.63 v 0 0 m -13,9.7 v 0 0 m -15.5,5.99 v 0 0"
       style="fill:#878685;fill-opacity:1;fill-rule:nonzero;stroke:none"
       transform="matrix(0.03527778,0,0,-0.03527778,-618.84628,385.84891)"
       clip-path="url(#clipPath523)" />
    <path
       id="path524"
       d="m 21268.1,7311.42 c -49.4,0 -89.7,-47.11 -89.7,-105.01 0,-57.91 40.3,-105.01 89.7,-105.01 49.4,0 89.6,47.1 89.6,105.01 0,57.9 -40.2,105.01 -89.6,105.01 z m 0,-225.39 c -57.9,0 -105,54 -105,120.38 0,66.37 47.1,120.37 105,120.37 57.9,0 105,-54 105,-120.37 0,-66.38 -47.1,-120.38 -105,-120.38"
       style="fill:#a3362b;fill-opacity:1;fill-rule:nonzero;stroke:none"
       transform="matrix(0.03527778,0,0,-0.03527778,-618.84628,385.84891)"
       clip-path="url(#clipPath525)" />
    <path
       id="path526"
       d="m 21534.5,7311.42 c -49.5,0 -89.7,-47.11 -89.7,-105.01 0,-57.91 40.2,-105.01 89.7,-105.01 49.4,0 89.6,47.1 89.6,105.01 0,57.9 -40.2,105.01 -89.6,105.01 z m 0,-225.39 c -57.9,0 -105.1,54 -105.1,120.38 0,66.37 47.2,120.37 105.1,120.37 57.9,0 105,-54 105,-120.37 0,-66.38 -47.1,-120.38 -105,-120.38"
       style="fill:#a3362b;fill-opacity:1;fill-rule:nonzero;stroke:none"
       transform="matrix(0.03527778,0,0,-0.03527778,-618.84628,385.84891)"
       clip-path="url(#clipPath527)" />
    <path
       id="path528"
       d="m 21418,7220.95 c 3.4,-21.33 17.7,-39.05 30.9,-56.16 10.1,-13.14 20.4,-28.55 17.8,-44.94 -2.4,-14.3 -14.6,-25.48 -28.3,-30.26 -13.7,-4.77 -28.7,-4.18 -43.1,-2.54 l 22.7,133.9"
       style="fill:#f0bf85;fill-opacity:1;fill-rule:nonzero;stroke:none"
       transform="matrix(0.03527778,0,0,-0.03527778,-618.84628,385.84891)"
       clip-path="url(#clipPath529)" />
    <path
       id="path530"
       d="m 21420.8,7218.91 c 2.8,-15.5 10.5,-29.34 19.6,-42.01 9.2,-12.94 21.5,-25.19 27,-40.38 5.2,-14.21 -0.1,-27.67 -12.8,-35.56 -14.6,-9.08 -32.6,-8.01 -49,-6.22 -9.8,1.07 -9.8,-14.31 0,-15.37 18.6,-2.03 38.5,-2.19 55.2,7.38 14.1,8.04 24.7,22.77 24.2,39.46 -0.6,19.21 -13.3,34.58 -24.4,49.12 -11,14.42 -21.7,29.42 -25,47.66 -1.7,9.72 -16.5,5.6 -14.8,-4.08"
       style="fill:#a46e4a;fill-opacity:1;fill-rule:nonzero;stroke:none"
       transform="matrix(0.03527778,0,0,-0.03527778,-618.84628,385.84891)"
       clip-path="url(#clipPath531)" />
    <path
       id="path532"
       d="m 21849,7431.63 c 24.1,27.47 69.4,31.19 98.5,9.28 29.5,-22.17 31.5,-66.41 12.4,-95.91 -4.7,-7.36 -11,-13.9 -18.4,-18.65 -4.8,-3.1 -20.7,-10.44 -20.5,0.9 0.1,9.7 10.6,18.71 17.7,24.02 8.1,6.08 17.4,10.56 27.1,13.34 42.1,12.02 84.2,-8.35 105.7,-45.45 26.6,-45.86 14.3,-103.29 -19.7,-141.76 -6.6,-7.39 4.3,-18.29 10.8,-10.87 37,41.79 51.2,102.46 25.8,153.77 -23.3,46.77 -75.5,73.8 -126.7,59.13 -21.6,-6.19 -49.3,-22.15 -55.2,-45.72 -3,-12.46 3.3,-25.35 16.6,-27.53 11.9,-1.95 23.3,4.23 32.3,11.34 35.1,27.59 43.4,84.42 16.5,120.33 -31.1,41.53 -99.7,43.42 -133.8,4.65 -6.5,-7.4 4.3,-18.31 10.9,-10.87"
       style="fill:#7c7a79;fill-opacity:1;fill-rule:nonzero;stroke:none"
       transform="matrix(0.03527778,0,0,-0.03527778,-618.84628,385.84891)"
       clip-path="url(#clipPath533)" />
    <path
       id="path534"
       d="m 21081.3,7597.95 c -8.6,22.36 -28.4,37.8 -51.4,43.65 -27.7,7.06 -56.7,-0.41 -82.3,-11.48 -41.5,-17.99 -84.8,-53.75 -77.8,-103.97 3.2,-23.3 17.3,-44.59 40.3,-52.06 9.5,-3.06 13.5,11.77 4.1,14.82 -15.9,5.16 -25.3,19.96 -28.6,35.7 -3.8,17.96 1.3,35.55 11.9,50.25 11.9,16.61 29.7,28.42 47.8,37.35 21.2,10.43 45.1,18.37 68.9,16.5 21.5,-1.69 44.2,-13.9 52.3,-34.85 3.5,-9.14 18.3,-5.17 14.8,4.09"
       style="fill:#7c7a79;fill-opacity:1;fill-rule:nonzero;stroke:none"
       transform="matrix(0.03527778,0,0,-0.03527778,-618.84628,385.84891)"
       clip-path="url(#clipPath535)" />
  </g>
</svg>
