<?xml version="1.0" encoding="UTF-8" standalone="no"?>
<!-- Created with Inkscape (http://www.inkscape.org/) -->

<svg
   width="64.329033mm"
   height="64.332207mm"
   viewBox="0 0 64.329033 64.332207"
   version="1.1"
   id="svg1"
   inkscape:version="1.3.2 (091e20e, 2023-11-25)"
   sodipodi:docname="read-headband-girl-avatare.svg"
   xmlns:inkscape="http://www.inkscape.org/namespaces/inkscape"
   xmlns:sodipodi="http://sodipodi.sourceforge.net/DTD/sodipodi-0.dtd"
   xmlns="http://www.w3.org/2000/svg"
   xmlns:svg="http://www.w3.org/2000/svg">
  <sodipodi:namedview
     id="namedview1"
     pagecolor="#ffffff"
     bordercolor="#000000"
     borderopacity="0.25"
     inkscape:showpageshadow="2"
     inkscape:pageopacity="0.0"
     inkscape:pagecheckerboard="0"
     inkscape:deskcolor="#d1d1d1"
     inkscape:document-units="mm"
     inkscape:zoom="1.0079593"
     inkscape:cx="113.59586"
     inkscape:cy="86.80906"
     inkscape:window-width="1920"
     inkscape:window-height="1052"
     inkscape:window-x="0"
     inkscape:window-y="28"
     inkscape:window-maximized="0"
     inkscape:current-layer="layer1" />
  <defs
     id="defs1">
    <clipPath
       clipPathUnits="userSpaceOnUse"
       id="clipPath1593">
      <path
         d="m 37491.6,2934.46 c 0,-503.56 -408.2,-911.79 -911.7,-911.79 -503.6,0 -911.8,408.23 -911.8,911.79 0,503.58 408.2,911.8 911.8,911.8 503.5,0 911.7,-408.22 911.7,-911.8"
         transform="translate(0,-2.5e-4)"
         id="path1593" />
    </clipPath>
    <clipPath
       clipPathUnits="userSpaceOnUse"
       id="clipPath1595">
      <path
         d="m 37491.6,2934.46 c 0,-503.56 -408.2,-911.79 -911.7,-911.79 -503.6,0 -911.8,408.23 -911.8,911.79 0,503.58 408.2,911.8 911.8,911.8 503.5,0 911.7,-408.22 911.7,-911.8"
         transform="translate(0,-2.5e-4)"
         id="path1595" />
    </clipPath>
    <clipPath
       clipPathUnits="userSpaceOnUse"
       id="clipPath1597">
      <path
         d="m 37491.6,2934.46 c 0,-503.56 -408.2,-911.79 -911.7,-911.79 -503.6,0 -911.8,408.23 -911.8,911.79 0,503.58 408.2,911.8 911.8,911.8 503.5,0 911.7,-408.22 911.7,-911.8"
         transform="translate(0,-2.5e-4)"
         id="path1597" />
    </clipPath>
    <clipPath
       clipPathUnits="userSpaceOnUse"
       id="clipPath1599">
      <path
         d="m 37491.6,2934.46 c 0,-503.56 -408.2,-911.79 -911.7,-911.79 -503.6,0 -911.8,408.23 -911.8,911.79 0,503.58 408.2,911.8 911.8,911.8 503.5,0 911.7,-408.22 911.7,-911.8"
         transform="translate(0,-2.5e-4)"
         id="path1599" />
    </clipPath>
    <clipPath
       clipPathUnits="userSpaceOnUse"
       id="clipPath1600">
      <path
         d="m 37043.1,2347.09 c -84.7,56.74 -187,79.46 -287,99.53 -6.1,1.22 -12.4,2.55 -17.3,6.39 -8.4,6.54 10.6,171.06 0,267.58 l -142.7,-13.35 -142.7,13.35 c -10.7,-96.52 8.4,-261.04 0,-267.58 -4.9,-3.84 -11.3,-5.17 -17.3,-6.39 -100,-20.07 -202.4,-42.79 -287.1,-99.53 -84.7,-56.72 -148.9,-155.67 -135.3,-256.71 85.1,0.43 322.5,-1.11 563.1,-4.27 v -0.52 c 6.4,0.09 12.8,0.17 19.3,0.26 6.4,-0.09 12.9,-0.17 19.3,-0.26 v 0.52 c 240.5,3.16 478,4.7 563,4.27 13.6,101.04 -50.5,199.99 -135.3,256.71"
         transform="translate(0,-2.5e-4)"
         id="path1600" />
    </clipPath>
    <clipPath
       clipPathUnits="userSpaceOnUse"
       id="clipPath1603">
      <path
         d="m 37491.6,2934.46 c 0,-503.56 -408.2,-911.79 -911.7,-911.79 -503.6,0 -911.8,408.23 -911.8,911.79 0,503.58 408.2,911.8 911.8,911.8 503.5,0 911.7,-408.22 911.7,-911.8"
         transform="translate(0,-2.5e-4)"
         id="path1603" />
    </clipPath>
    <clipPath
       clipPathUnits="userSpaceOnUse"
       id="clipPath1605">
      <path
         d="m 37491.6,2934.46 c 0,-503.56 -408.2,-911.79 -911.7,-911.79 -503.6,0 -911.8,408.23 -911.8,911.79 0,503.58 408.2,911.8 911.8,911.8 503.5,0 911.7,-408.22 911.7,-911.8"
         transform="translate(0,-2.5e-4)"
         id="path1605" />
    </clipPath>
    <clipPath
       clipPathUnits="userSpaceOnUse"
       id="clipPath1607">
      <path
         d="m 37491.6,2934.46 c 0,-503.56 -408.2,-911.79 -911.7,-911.79 -503.6,0 -911.8,408.23 -911.8,911.79 0,503.58 408.2,911.8 911.8,911.8 503.5,0 911.7,-408.22 911.7,-911.8"
         transform="translate(0,-2.5e-4)"
         id="path1607" />
    </clipPath>
    <clipPath
       clipPathUnits="userSpaceOnUse"
       id="clipPath1609">
      <path
         d="m 37491.6,2934.46 c 0,-503.56 -408.2,-911.79 -911.7,-911.79 -503.6,0 -911.8,408.23 -911.8,911.79 0,503.58 408.2,911.8 911.8,911.8 503.5,0 911.7,-408.22 911.7,-911.8"
         transform="translate(0,-2.5e-4)"
         id="path1609" />
    </clipPath>
    <clipPath
       clipPathUnits="userSpaceOnUse"
       id="clipPath1611">
      <path
         d="m 37491.6,2934.46 c 0,-503.56 -408.2,-911.79 -911.7,-911.79 -503.6,0 -911.8,408.23 -911.8,911.79 0,503.58 408.2,911.8 911.8,911.8 503.5,0 911.7,-408.22 911.7,-911.8"
         transform="translate(0,-2.5e-4)"
         id="path1611" />
    </clipPath>
    <clipPath
       clipPathUnits="userSpaceOnUse"
       id="clipPath1613">
      <path
         d="m 37491.6,2934.46 c 0,-503.56 -408.2,-911.79 -911.7,-911.79 -503.6,0 -911.8,408.23 -911.8,911.79 0,503.58 408.2,911.8 911.8,911.8 503.5,0 911.7,-408.22 911.7,-911.8"
         transform="translate(0,-2.5e-4)"
         id="path1613" />
    </clipPath>
    <clipPath
       clipPathUnits="userSpaceOnUse"
       id="clipPath1615">
      <path
         d="m 37491.6,2934.46 c 0,-503.56 -408.2,-911.79 -911.7,-911.79 -503.6,0 -911.8,408.23 -911.8,911.79 0,503.58 408.2,911.8 911.8,911.8 503.5,0 911.7,-408.22 911.7,-911.8"
         transform="translate(0,-2.5e-4)"
         id="path1615" />
    </clipPath>
    <clipPath
       clipPathUnits="userSpaceOnUse"
       id="clipPath1617">
      <path
         d="m 37491.6,2934.46 c 0,-503.56 -408.2,-911.79 -911.7,-911.79 -503.6,0 -911.8,408.23 -911.8,911.79 0,503.58 408.2,911.8 911.8,911.8 503.5,0 911.7,-408.22 911.7,-911.8"
         transform="translate(0,-2.5e-4)"
         id="path1617" />
    </clipPath>
    <clipPath
       clipPathUnits="userSpaceOnUse"
       id="clipPath1619">
      <path
         d="m 37491.6,2934.46 c 0,-503.56 -408.2,-911.79 -911.7,-911.79 -503.6,0 -911.8,408.23 -911.8,911.79 0,503.58 408.2,911.8 911.8,911.8 503.5,0 911.7,-408.22 911.7,-911.8"
         transform="translate(0,-2.5e-4)"
         id="path1619" />
    </clipPath>
    <clipPath
       clipPathUnits="userSpaceOnUse"
       id="clipPath1621">
      <path
         d="m 37491.6,2934.46 c 0,-503.56 -408.2,-911.79 -911.7,-911.79 -503.6,0 -911.8,408.23 -911.8,911.79 0,503.58 408.2,911.8 911.8,911.8 503.5,0 911.7,-408.22 911.7,-911.8"
         transform="translate(0,-2.5e-4)"
         id="path1621" />
    </clipPath>
    <clipPath
       clipPathUnits="userSpaceOnUse"
       id="clipPath1623">
      <path
         d="m 37491.6,2934.46 c 0,-503.56 -408.2,-911.79 -911.7,-911.79 -503.6,0 -911.8,408.23 -911.8,911.79 0,503.58 408.2,911.8 911.8,911.8 503.5,0 911.7,-408.22 911.7,-911.8"
         transform="translate(0,-2.5e-4)"
         id="path1623" />
    </clipPath>
    <clipPath
       clipPathUnits="userSpaceOnUse"
       id="clipPath1625">
      <path
         d="m 37491.6,2934.46 c 0,-503.56 -408.2,-911.79 -911.7,-911.79 -503.6,0 -911.8,408.23 -911.8,911.79 0,503.58 408.2,911.8 911.8,911.8 503.5,0 911.7,-408.22 911.7,-911.8"
         transform="translate(0,-2.5e-4)"
         id="path1625" />
    </clipPath>
    <clipPath
       clipPathUnits="userSpaceOnUse"
       id="clipPath1627">
      <path
         d="m 37491.6,2934.46 c 0,-503.56 -408.2,-911.79 -911.7,-911.79 -503.6,0 -911.8,408.23 -911.8,911.79 0,503.58 408.2,911.8 911.8,911.8 503.5,0 911.7,-408.22 911.7,-911.8"
         transform="translate(0,-2.5e-4)"
         id="path1627" />
    </clipPath>
    <clipPath
       clipPathUnits="userSpaceOnUse"
       id="clipPath1629">
      <path
         d="m 37491.6,2934.46 c 0,-503.56 -408.2,-911.79 -911.7,-911.79 -503.6,0 -911.8,408.23 -911.8,911.79 0,503.58 408.2,911.8 911.8,911.8 503.5,0 911.7,-408.22 911.7,-911.8"
         transform="translate(0,-2.5e-4)"
         id="path1629" />
    </clipPath>
    <clipPath
       clipPathUnits="userSpaceOnUse"
       id="clipPath1631">
      <path
         d="m 37491.6,2934.46 c 0,-503.56 -408.2,-911.79 -911.7,-911.79 -503.6,0 -911.8,408.23 -911.8,911.79 0,503.58 408.2,911.8 911.8,911.8 503.5,0 911.7,-408.22 911.7,-911.8"
         transform="translate(0,-2.5e-4)"
         id="path1631" />
    </clipPath>
    <clipPath
       clipPathUnits="userSpaceOnUse"
       id="clipPath1633">
      <path
         d="m 37491.6,2934.46 c 0,-503.56 -408.2,-911.79 -911.7,-911.79 -503.6,0 -911.8,408.23 -911.8,911.79 0,503.58 408.2,911.8 911.8,911.8 503.5,0 911.7,-408.22 911.7,-911.8"
         transform="translate(0,-2.5e-4)"
         id="path1633" />
    </clipPath>
    <clipPath
       clipPathUnits="userSpaceOnUse"
       id="clipPath1635">
      <path
         d="m 37491.6,2934.46 c 0,-503.56 -408.2,-911.79 -911.7,-911.79 -503.6,0 -911.8,408.23 -911.8,911.79 0,503.58 408.2,911.8 911.8,911.8 503.5,0 911.7,-408.22 911.7,-911.8"
         transform="translate(0,-2.5e-4)"
         id="path1635" />
    </clipPath>
    <clipPath
       clipPathUnits="userSpaceOnUse"
       id="clipPath1637">
      <path
         d="m 37491.6,2934.46 c 0,-503.56 -408.2,-911.79 -911.7,-911.79 -503.6,0 -911.8,408.23 -911.8,911.79 0,503.58 408.2,911.8 911.8,911.8 503.5,0 911.7,-408.22 911.7,-911.8"
         transform="translate(0,-2.5e-4)"
         id="path1637" />
    </clipPath>
    <clipPath
       clipPathUnits="userSpaceOnUse"
       id="clipPath1639">
      <path
         d="m 37491.6,2934.46 c 0,-503.56 -408.2,-911.79 -911.7,-911.79 -503.6,0 -911.8,408.23 -911.8,911.79 0,503.58 408.2,911.8 911.8,911.8 503.5,0 911.7,-408.22 911.7,-911.8"
         transform="translate(0,-2.5e-4)"
         id="path1639" />
    </clipPath>
    <clipPath
       clipPathUnits="userSpaceOnUse"
       id="clipPath1641">
      <path
         d="m 37491.6,2934.46 c 0,-503.56 -408.2,-911.79 -911.7,-911.79 -503.6,0 -911.8,408.23 -911.8,911.79 0,503.58 408.2,911.8 911.8,911.8 503.5,0 911.7,-408.22 911.7,-911.8"
         transform="translate(0,-2.5e-4)"
         id="path1641" />
    </clipPath>
    <clipPath
       clipPathUnits="userSpaceOnUse"
       id="clipPath1643">
      <path
         d="m 37491.6,2934.46 c 0,-503.56 -408.2,-911.79 -911.7,-911.79 -503.6,0 -911.8,408.23 -911.8,911.79 0,503.58 408.2,911.8 911.8,911.8 503.5,0 911.7,-408.22 911.7,-911.8"
         transform="translate(0,-2.5e-4)"
         id="path1643" />
    </clipPath>
    <clipPath
       clipPathUnits="userSpaceOnUse"
       id="clipPath1645">
      <path
         d="m 37491.6,2934.46 c 0,-503.56 -408.2,-911.79 -911.7,-911.79 -503.6,0 -911.8,408.23 -911.8,911.79 0,503.58 408.2,911.8 911.8,911.8 503.5,0 911.7,-408.22 911.7,-911.8"
         transform="translate(0,-2.5e-4)"
         id="path1645" />
    </clipPath>
    <clipPath
       clipPathUnits="userSpaceOnUse"
       id="clipPath1646">
      <path
         d="m 36919.3,3268.18 c -59,76.87 -192.1,121.61 -285.9,81.64 -7.9,3.5 -18.5,1.62 -23.1,-5.44 -1.9,3.34 -6.6,4.49 -10.7,3.48 -95.3,43.99 -259,11.79 -287.3,-82.54 -15.4,-51.16 -30,-142.13 -7.4,-205.25 l 7.3,-6.96 c 1.6,53.38 33,100.8 64.7,143.76 20.4,27.66 41.6,55.05 67.3,77.92 40.8,36.39 94.7,60.53 149.1,68.25 -2.7,-4.99 -1.8,-11.4 0.9,-16.68 -34.9,-26.35 -50,-77.83 -31.8,-118.11 17.8,15.43 35.9,31.14 48.7,51.03 7.2,11.3 12.5,24.26 14.4,37.48 10.9,-38.34 43.4,-70.29 82.4,-79.19 -1.2,23.1 -4.8,46.71 -16.2,66.82 -11,19.17 -30.3,34.65 -52.1,36.63 4,6.34 5.2,14.46 1.9,21.06 52.3,-8.64 103.7,-32.29 142.9,-67.29 25.7,-22.87 46.8,-50.26 67.3,-77.92 31.7,-42.96 47.3,-103.23 48.9,-156.63 0,0 56.2,179.04 18.7,227.94"
         transform="translate(0,-2.5e-4)"
         id="path1646" />
    </clipPath>
    <clipPath
       clipPathUnits="userSpaceOnUse"
       id="clipPath1647">
      <path
         d="m 36919.3,3268.18 c -59,76.87 -192.1,121.61 -285.9,81.64 -7.9,3.5 -18.5,1.62 -23.1,-5.44 -1.9,3.34 -6.6,4.49 -10.7,3.48 -95.3,43.99 -259,11.79 -287.3,-82.54 -15.4,-51.16 -30,-142.13 -7.4,-205.25 l 7.3,-6.96 c 1.6,53.38 33,100.8 64.7,143.76 20.4,27.66 41.6,55.05 67.3,77.92 40.8,36.39 94.7,60.53 149.1,68.25 -2.7,-4.99 -1.8,-11.4 0.9,-16.68 -34.9,-26.35 -50,-77.83 -31.8,-118.11 17.8,15.43 35.9,31.14 48.7,51.03 7.2,11.3 12.5,24.26 14.4,37.48 10.9,-38.34 43.4,-70.29 82.4,-79.19 -1.2,23.1 -4.8,46.71 -16.2,66.82 -11,19.17 -30.3,34.65 -52.1,36.63 4,6.34 5.2,14.46 1.9,21.06 52.3,-8.64 103.7,-32.29 142.9,-67.29 25.7,-22.87 46.8,-50.26 67.3,-77.92 31.7,-42.96 47.3,-103.23 48.9,-156.63 0,0 56.2,179.04 18.7,227.94"
         transform="translate(0,-2.5e-4)"
         id="path1647" />
    </clipPath>
    <clipPath
       clipPathUnits="userSpaceOnUse"
       id="clipPath1648">
      <path
         d="m 36919.3,3268.18 c -59,76.87 -192.1,121.61 -285.9,81.64 -7.9,3.5 -18.5,1.62 -23.1,-5.44 -1.9,3.34 -6.6,4.49 -10.7,3.48 -95.3,43.99 -259,11.79 -287.3,-82.54 -15.4,-51.16 -30,-142.13 -7.4,-205.25 l 7.3,-6.96 c 1.6,53.38 33,100.8 64.7,143.76 20.4,27.66 41.6,55.05 67.3,77.92 40.8,36.39 94.7,60.53 149.1,68.25 -2.7,-4.99 -1.8,-11.4 0.9,-16.68 -34.9,-26.35 -50,-77.83 -31.8,-118.11 17.8,15.43 35.9,31.14 48.7,51.03 7.2,11.3 12.5,24.26 14.4,37.48 10.9,-38.34 43.4,-70.29 82.4,-79.19 -1.2,23.1 -4.8,46.71 -16.2,66.82 -11,19.17 -30.3,34.65 -52.1,36.63 4,6.34 5.2,14.46 1.9,21.06 52.3,-8.64 103.7,-32.29 142.9,-67.29 25.7,-22.87 46.8,-50.26 67.3,-77.92 31.7,-42.96 47.3,-103.23 48.9,-156.63 0,0 56.2,179.04 18.7,227.94"
         transform="translate(0,-2.5e-4)"
         id="path1648" />
    </clipPath>
    <clipPath
       clipPathUnits="userSpaceOnUse"
       id="clipPath1649">
      <path
         d="m 36919.3,3268.18 c -59,76.87 -192.1,121.61 -285.9,81.64 -7.9,3.5 -18.5,1.62 -23.1,-5.44 -1.9,3.34 -6.6,4.49 -10.7,3.48 -95.3,43.99 -259,11.79 -287.3,-82.54 -15.4,-51.16 -30,-142.13 -7.4,-205.25 l 7.3,-6.96 c 1.6,53.38 33,100.8 64.7,143.76 20.4,27.66 41.6,55.05 67.3,77.92 40.8,36.39 94.7,60.53 149.1,68.25 -2.7,-4.99 -1.8,-11.4 0.9,-16.68 -34.9,-26.35 -50,-77.83 -31.8,-118.11 17.8,15.43 35.9,31.14 48.7,51.03 7.2,11.3 12.5,24.26 14.4,37.48 10.9,-38.34 43.4,-70.29 82.4,-79.19 -1.2,23.1 -4.8,46.71 -16.2,66.82 -11,19.17 -30.3,34.65 -52.1,36.63 4,6.34 5.2,14.46 1.9,21.06 52.3,-8.64 103.7,-32.29 142.9,-67.29 25.7,-22.87 46.8,-50.26 67.3,-77.92 31.7,-42.96 47.3,-103.23 48.9,-156.63 0,0 56.2,179.04 18.7,227.94"
         transform="translate(0,-2.5e-4)"
         id="path1649" />
    </clipPath>
    <clipPath
       clipPathUnits="userSpaceOnUse"
       id="clipPath1650">
      <path
         d="m 36919.3,3268.18 c -59,76.87 -192.1,121.61 -285.9,81.64 -7.9,3.5 -18.5,1.62 -23.1,-5.44 -1.9,3.34 -6.6,4.49 -10.7,3.48 -95.3,43.99 -259,11.79 -287.3,-82.54 -15.4,-51.16 -30,-142.13 -7.4,-205.25 l 7.3,-6.96 c 1.6,53.38 33,100.8 64.7,143.76 20.4,27.66 41.6,55.05 67.3,77.92 40.8,36.39 94.7,60.53 149.1,68.25 -2.7,-4.99 -1.8,-11.4 0.9,-16.68 -34.9,-26.35 -50,-77.83 -31.8,-118.11 17.8,15.43 35.9,31.14 48.7,51.03 7.2,11.3 12.5,24.26 14.4,37.48 10.9,-38.34 43.4,-70.29 82.4,-79.19 -1.2,23.1 -4.8,46.71 -16.2,66.82 -11,19.17 -30.3,34.65 -52.1,36.63 4,6.34 5.2,14.46 1.9,21.06 52.3,-8.64 103.7,-32.29 142.9,-67.29 25.7,-22.87 46.8,-50.26 67.3,-77.92 31.7,-42.96 47.3,-103.23 48.9,-156.63 0,0 56.2,179.04 18.7,227.94"
         transform="translate(0,-2.5e-4)"
         id="path1650" />
    </clipPath>
    <clipPath
       clipPathUnits="userSpaceOnUse"
       id="clipPath1651">
      <path
         d="m 36919.3,3268.18 c -59,76.87 -192.1,121.61 -285.9,81.64 -7.9,3.5 -18.5,1.62 -23.1,-5.44 -1.9,3.34 -6.6,4.49 -10.7,3.48 -95.3,43.99 -259,11.79 -287.3,-82.54 -15.4,-51.16 -30,-142.13 -7.4,-205.25 l 7.3,-6.96 c 1.6,53.38 33,100.8 64.7,143.76 20.4,27.66 41.6,55.05 67.3,77.92 40.8,36.39 94.7,60.53 149.1,68.25 -2.7,-4.99 -1.8,-11.4 0.9,-16.68 -34.9,-26.35 -50,-77.83 -31.8,-118.11 17.8,15.43 35.9,31.14 48.7,51.03 7.2,11.3 12.5,24.26 14.4,37.48 10.9,-38.34 43.4,-70.29 82.4,-79.19 -1.2,23.1 -4.8,46.71 -16.2,66.82 -11,19.17 -30.3,34.65 -52.1,36.63 4,6.34 5.2,14.46 1.9,21.06 52.3,-8.64 103.7,-32.29 142.9,-67.29 25.7,-22.87 46.8,-50.26 67.3,-77.92 31.7,-42.96 47.3,-103.23 48.9,-156.63 0,0 56.2,179.04 18.7,227.94"
         transform="translate(0,-2.5e-4)"
         id="path1651" />
    </clipPath>
    <clipPath
       clipPathUnits="userSpaceOnUse"
       id="clipPath1652">
      <path
         d="m 36919.3,3268.18 c -59,76.87 -192.1,121.61 -285.9,81.64 -7.9,3.5 -18.5,1.62 -23.1,-5.44 -1.9,3.34 -6.6,4.49 -10.7,3.48 -95.3,43.99 -259,11.79 -287.3,-82.54 -15.4,-51.16 -30,-142.13 -7.4,-205.25 l 7.3,-6.96 c 1.6,53.38 33,100.8 64.7,143.76 20.4,27.66 41.6,55.05 67.3,77.92 40.8,36.39 94.7,60.53 149.1,68.25 -2.7,-4.99 -1.8,-11.4 0.9,-16.68 -34.9,-26.35 -50,-77.83 -31.8,-118.11 17.8,15.43 35.9,31.14 48.7,51.03 7.2,11.3 12.5,24.26 14.4,37.48 10.9,-38.34 43.4,-70.29 82.4,-79.19 -1.2,23.1 -4.8,46.71 -16.2,66.82 -11,19.17 -30.3,34.65 -52.1,36.63 4,6.34 5.2,14.46 1.9,21.06 52.3,-8.64 103.7,-32.29 142.9,-67.29 25.7,-22.87 46.8,-50.26 67.3,-77.92 31.7,-42.96 47.3,-103.23 48.9,-156.63 0,0 56.2,179.04 18.7,227.94"
         transform="translate(0,-2.5e-4)"
         id="path1652" />
    </clipPath>
    <clipPath
       clipPathUnits="userSpaceOnUse"
       id="clipPath1653">
      <path
         d="m 36919.3,3268.18 c -59,76.87 -192.1,121.61 -285.9,81.64 -7.9,3.5 -18.5,1.62 -23.1,-5.44 -1.9,3.34 -6.6,4.49 -10.7,3.48 -95.3,43.99 -259,11.79 -287.3,-82.54 -15.4,-51.16 -30,-142.13 -7.4,-205.25 l 7.3,-6.96 c 1.6,53.38 33,100.8 64.7,143.76 20.4,27.66 41.6,55.05 67.3,77.92 40.8,36.39 94.7,60.53 149.1,68.25 -2.7,-4.99 -1.8,-11.4 0.9,-16.68 -34.9,-26.35 -50,-77.83 -31.8,-118.11 17.8,15.43 35.9,31.14 48.7,51.03 7.2,11.3 12.5,24.26 14.4,37.48 10.9,-38.34 43.4,-70.29 82.4,-79.19 -1.2,23.1 -4.8,46.71 -16.2,66.82 -11,19.17 -30.3,34.65 -52.1,36.63 4,6.34 5.2,14.46 1.9,21.06 52.3,-8.64 103.7,-32.29 142.9,-67.29 25.7,-22.87 46.8,-50.26 67.3,-77.92 31.7,-42.96 47.3,-103.23 48.9,-156.63 0,0 56.2,179.04 18.7,227.94"
         transform="translate(0,-2.5e-4)"
         id="path1653" />
    </clipPath>
    <clipPath
       clipPathUnits="userSpaceOnUse"
       id="clipPath1654">
      <path
         d="m 36919.3,3268.18 c -59,76.87 -192.1,121.61 -285.9,81.64 -7.9,3.5 -18.5,1.62 -23.1,-5.44 -1.9,3.34 -6.6,4.49 -10.7,3.48 -95.3,43.99 -259,11.79 -287.3,-82.54 -15.4,-51.16 -30,-142.13 -7.4,-205.25 l 7.3,-6.96 c 1.6,53.38 33,100.8 64.7,143.76 20.4,27.66 41.6,55.05 67.3,77.92 40.8,36.39 94.7,60.53 149.1,68.25 -2.7,-4.99 -1.8,-11.4 0.9,-16.68 -34.9,-26.35 -50,-77.83 -31.8,-118.11 17.8,15.43 35.9,31.14 48.7,51.03 7.2,11.3 12.5,24.26 14.4,37.48 10.9,-38.34 43.4,-70.29 82.4,-79.19 -1.2,23.1 -4.8,46.71 -16.2,66.82 -11,19.17 -30.3,34.65 -52.1,36.63 4,6.34 5.2,14.46 1.9,21.06 52.3,-8.64 103.7,-32.29 142.9,-67.29 25.7,-22.87 46.8,-50.26 67.3,-77.92 31.7,-42.96 47.3,-103.23 48.9,-156.63 0,0 56.2,179.04 18.7,227.94"
         transform="translate(0,-2.5e-4)"
         id="path1654" />
    </clipPath>
    <clipPath
       clipPathUnits="userSpaceOnUse"
       id="clipPath1655">
      <path
         d="m 36919.3,3268.18 c -59,76.87 -192.1,121.61 -285.9,81.64 -7.9,3.5 -18.5,1.62 -23.1,-5.44 -1.9,3.34 -6.6,4.49 -10.7,3.48 -95.3,43.99 -259,11.79 -287.3,-82.54 -15.4,-51.16 -30,-142.13 -7.4,-205.25 l 7.3,-6.96 c 1.6,53.38 33,100.8 64.7,143.76 20.4,27.66 41.6,55.05 67.3,77.92 40.8,36.39 94.7,60.53 149.1,68.25 -2.7,-4.99 -1.8,-11.4 0.9,-16.68 -34.9,-26.35 -50,-77.83 -31.8,-118.11 17.8,15.43 35.9,31.14 48.7,51.03 7.2,11.3 12.5,24.26 14.4,37.48 10.9,-38.34 43.4,-70.29 82.4,-79.19 -1.2,23.1 -4.8,46.71 -16.2,66.82 -11,19.17 -30.3,34.65 -52.1,36.63 4,6.34 5.2,14.46 1.9,21.06 52.3,-8.64 103.7,-32.29 142.9,-67.29 25.7,-22.87 46.8,-50.26 67.3,-77.92 31.7,-42.96 47.3,-103.23 48.9,-156.63 0,0 56.2,179.04 18.7,227.94"
         transform="translate(0,-2.5e-4)"
         id="path1655" />
    </clipPath>
    <clipPath
       clipPathUnits="userSpaceOnUse"
       id="clipPath1656">
      <path
         d="m 36919.3,3268.18 c -59,76.87 -192.1,121.61 -285.9,81.64 -7.9,3.5 -18.5,1.62 -23.1,-5.44 -1.9,3.34 -6.6,4.49 -10.7,3.48 -95.3,43.99 -259,11.79 -287.3,-82.54 -15.4,-51.16 -30,-142.13 -7.4,-205.25 l 7.3,-6.96 c 1.6,53.38 33,100.8 64.7,143.76 20.4,27.66 41.6,55.05 67.3,77.92 40.8,36.39 94.7,60.53 149.1,68.25 -2.7,-4.99 -1.8,-11.4 0.9,-16.68 -34.9,-26.35 -50,-77.83 -31.8,-118.11 17.8,15.43 35.9,31.14 48.7,51.03 7.2,11.3 12.5,24.26 14.4,37.48 10.9,-38.34 43.4,-70.29 82.4,-79.19 -1.2,23.1 -4.8,46.71 -16.2,66.82 -11,19.17 -30.3,34.65 -52.1,36.63 4,6.34 5.2,14.46 1.9,21.06 52.3,-8.64 103.7,-32.29 142.9,-67.29 25.7,-22.87 46.8,-50.26 67.3,-77.92 31.7,-42.96 47.3,-103.23 48.9,-156.63 0,0 56.2,179.04 18.7,227.94"
         transform="translate(0,-2.5e-4)"
         id="path1656" />
    </clipPath>
    <clipPath
       clipPathUnits="userSpaceOnUse"
       id="clipPath1657">
      <path
         d="m 36919.3,3268.18 c -59,76.87 -192.1,121.61 -285.9,81.64 -7.9,3.5 -18.5,1.62 -23.1,-5.44 -1.9,3.34 -6.6,4.49 -10.7,3.48 -95.3,43.99 -259,11.79 -287.3,-82.54 -15.4,-51.16 -30,-142.13 -7.4,-205.25 l 7.3,-6.96 c 1.6,53.38 33,100.8 64.7,143.76 20.4,27.66 41.6,55.05 67.3,77.92 40.8,36.39 94.7,60.53 149.1,68.25 -2.7,-4.99 -1.8,-11.4 0.9,-16.68 -34.9,-26.35 -50,-77.83 -31.8,-118.11 17.8,15.43 35.9,31.14 48.7,51.03 7.2,11.3 12.5,24.26 14.4,37.48 10.9,-38.34 43.4,-70.29 82.4,-79.19 -1.2,23.1 -4.8,46.71 -16.2,66.82 -11,19.17 -30.3,34.65 -52.1,36.63 4,6.34 5.2,14.46 1.9,21.06 52.3,-8.64 103.7,-32.29 142.9,-67.29 25.7,-22.87 46.8,-50.26 67.3,-77.92 31.7,-42.96 47.3,-103.23 48.9,-156.63 0,0 56.2,179.04 18.7,227.94"
         transform="translate(0,-2.5e-4)"
         id="path1657" />
    </clipPath>
    <clipPath
       clipPathUnits="userSpaceOnUse"
       id="clipPath1658">
      <path
         d="m 36919.3,3268.18 c -59,76.87 -192.1,121.61 -285.9,81.64 -7.9,3.5 -18.5,1.62 -23.1,-5.44 -1.9,3.34 -6.6,4.49 -10.7,3.48 -95.3,43.99 -259,11.79 -287.3,-82.54 -15.4,-51.16 -30,-142.13 -7.4,-205.25 l 7.3,-6.96 c 1.6,53.38 33,100.8 64.7,143.76 20.4,27.66 41.6,55.05 67.3,77.92 40.8,36.39 94.7,60.53 149.1,68.25 -2.7,-4.99 -1.8,-11.4 0.9,-16.68 -34.9,-26.35 -50,-77.83 -31.8,-118.11 17.8,15.43 35.9,31.14 48.7,51.03 7.2,11.3 12.5,24.26 14.4,37.48 10.9,-38.34 43.4,-70.29 82.4,-79.19 -1.2,23.1 -4.8,46.71 -16.2,66.82 -11,19.17 -30.3,34.65 -52.1,36.63 4,6.34 5.2,14.46 1.9,21.06 52.3,-8.64 103.7,-32.29 142.9,-67.29 25.7,-22.87 46.8,-50.26 67.3,-77.92 31.7,-42.96 47.3,-103.23 48.9,-156.63 0,0 56.2,179.04 18.7,227.94"
         transform="translate(0,-2.5e-4)"
         id="path1658" />
    </clipPath>
    <clipPath
       clipPathUnits="userSpaceOnUse"
       id="clipPath1659">
      <path
         d="m 36919.3,3268.18 c -59,76.87 -192.1,121.61 -285.9,81.64 -7.9,3.5 -18.5,1.62 -23.1,-5.44 -1.9,3.34 -6.6,4.49 -10.7,3.48 -95.3,43.99 -259,11.79 -287.3,-82.54 -15.4,-51.16 -30,-142.13 -7.4,-205.25 l 7.3,-6.96 c 1.6,53.38 33,100.8 64.7,143.76 20.4,27.66 41.6,55.05 67.3,77.92 40.8,36.39 94.7,60.53 149.1,68.25 -2.7,-4.99 -1.8,-11.4 0.9,-16.68 -34.9,-26.35 -50,-77.83 -31.8,-118.11 17.8,15.43 35.9,31.14 48.7,51.03 7.2,11.3 12.5,24.26 14.4,37.48 10.9,-38.34 43.4,-70.29 82.4,-79.19 -1.2,23.1 -4.8,46.71 -16.2,66.82 -11,19.17 -30.3,34.65 -52.1,36.63 4,6.34 5.2,14.46 1.9,21.06 52.3,-8.64 103.7,-32.29 142.9,-67.29 25.7,-22.87 46.8,-50.26 67.3,-77.92 31.7,-42.96 47.3,-103.23 48.9,-156.63 0,0 56.2,179.04 18.7,227.94"
         transform="translate(0,-2.5e-4)"
         id="path1659" />
    </clipPath>
    <clipPath
       clipPathUnits="userSpaceOnUse"
       id="clipPath1660">
      <path
         d="m 36919.3,3268.18 c -59,76.87 -192.1,121.61 -285.9,81.64 -7.9,3.5 -18.5,1.62 -23.1,-5.44 -1.9,3.34 -6.6,4.49 -10.7,3.48 -95.3,43.99 -259,11.79 -287.3,-82.54 -15.4,-51.16 -30,-142.13 -7.4,-205.25 l 7.3,-6.96 c 1.6,53.38 33,100.8 64.7,143.76 20.4,27.66 41.6,55.05 67.3,77.92 40.8,36.39 94.7,60.53 149.1,68.25 -2.7,-4.99 -1.8,-11.4 0.9,-16.68 -34.9,-26.35 -50,-77.83 -31.8,-118.11 17.8,15.43 35.9,31.14 48.7,51.03 7.2,11.3 12.5,24.26 14.4,37.48 10.9,-38.34 43.4,-70.29 82.4,-79.19 -1.2,23.1 -4.8,46.71 -16.2,66.82 -11,19.17 -30.3,34.65 -52.1,36.63 4,6.34 5.2,14.46 1.9,21.06 52.3,-8.64 103.7,-32.29 142.9,-67.29 25.7,-22.87 46.8,-50.26 67.3,-77.92 31.7,-42.96 47.3,-103.23 48.9,-156.63 0,0 56.2,179.04 18.7,227.94"
         transform="translate(0,-2.5e-4)"
         id="path1660" />
    </clipPath>
    <clipPath
       clipPathUnits="userSpaceOnUse"
       id="clipPath1661">
      <path
         d="m 36919.3,3268.18 c -59,76.87 -192.1,121.61 -285.9,81.64 -7.9,3.5 -18.5,1.62 -23.1,-5.44 -1.9,3.34 -6.6,4.49 -10.7,3.48 -95.3,43.99 -259,11.79 -287.3,-82.54 -15.4,-51.16 -30,-142.13 -7.4,-205.25 l 7.3,-6.96 c 1.6,53.38 33,100.8 64.7,143.76 20.4,27.66 41.6,55.05 67.3,77.92 40.8,36.39 94.7,60.53 149.1,68.25 -2.7,-4.99 -1.8,-11.4 0.9,-16.68 -34.9,-26.35 -50,-77.83 -31.8,-118.11 17.8,15.43 35.9,31.14 48.7,51.03 7.2,11.3 12.5,24.26 14.4,37.48 10.9,-38.34 43.4,-70.29 82.4,-79.19 -1.2,23.1 -4.8,46.71 -16.2,66.82 -11,19.17 -30.3,34.65 -52.1,36.63 4,6.34 5.2,14.46 1.9,21.06 52.3,-8.64 103.7,-32.29 142.9,-67.29 25.7,-22.87 46.8,-50.26 67.3,-77.92 31.7,-42.96 47.3,-103.23 48.9,-156.63 0,0 56.2,179.04 18.7,227.94"
         transform="translate(0,-2.5e-4)"
         id="path1661" />
    </clipPath>
    <clipPath
       clipPathUnits="userSpaceOnUse"
       id="clipPath1662">
      <path
         d="m 36919.3,3268.18 c -59,76.87 -192.1,121.61 -285.9,81.64 -7.9,3.5 -18.5,1.62 -23.1,-5.44 -1.9,3.34 -6.6,4.49 -10.7,3.48 -95.3,43.99 -259,11.79 -287.3,-82.54 -15.4,-51.16 -30,-142.13 -7.4,-205.25 l 7.3,-6.96 c 1.6,53.38 33,100.8 64.7,143.76 20.4,27.66 41.6,55.05 67.3,77.92 40.8,36.39 94.7,60.53 149.1,68.25 -2.7,-4.99 -1.8,-11.4 0.9,-16.68 -34.9,-26.35 -50,-77.83 -31.8,-118.11 17.8,15.43 35.9,31.14 48.7,51.03 7.2,11.3 12.5,24.26 14.4,37.48 10.9,-38.34 43.4,-70.29 82.4,-79.19 -1.2,23.1 -4.8,46.71 -16.2,66.82 -11,19.17 -30.3,34.65 -52.1,36.63 4,6.34 5.2,14.46 1.9,21.06 52.3,-8.64 103.7,-32.29 142.9,-67.29 25.7,-22.87 46.8,-50.26 67.3,-77.92 31.7,-42.96 47.3,-103.23 48.9,-156.63 0,0 56.2,179.04 18.7,227.94"
         transform="translate(0,-2.5e-4)"
         id="path1662" />
    </clipPath>
    <clipPath
       clipPathUnits="userSpaceOnUse"
       id="clipPath1663">
      <path
         d="m 36919.3,3268.18 c -59,76.87 -192.1,121.61 -285.9,81.64 -7.9,3.5 -18.5,1.62 -23.1,-5.44 -1.9,3.34 -6.6,4.49 -10.7,3.48 -95.3,43.99 -259,11.79 -287.3,-82.54 -15.4,-51.16 -30,-142.13 -7.4,-205.25 l 7.3,-6.96 c 1.6,53.38 33,100.8 64.7,143.76 20.4,27.66 41.6,55.05 67.3,77.92 40.8,36.39 94.7,60.53 149.1,68.25 -2.7,-4.99 -1.8,-11.4 0.9,-16.68 -34.9,-26.35 -50,-77.83 -31.8,-118.11 17.8,15.43 35.9,31.14 48.7,51.03 7.2,11.3 12.5,24.26 14.4,37.48 10.9,-38.34 43.4,-70.29 82.4,-79.19 -1.2,23.1 -4.8,46.71 -16.2,66.82 -11,19.17 -30.3,34.65 -52.1,36.63 4,6.34 5.2,14.46 1.9,21.06 52.3,-8.64 103.7,-32.29 142.9,-67.29 25.7,-22.87 46.8,-50.26 67.3,-77.92 31.7,-42.96 47.3,-103.23 48.9,-156.63 0,0 56.2,179.04 18.7,227.94"
         transform="translate(0,-2.5e-4)"
         id="path1663" />
    </clipPath>
    <clipPath
       clipPathUnits="userSpaceOnUse"
       id="clipPath1683">
      <path
         d="m 37491.6,2934.46 c 0,-503.56 -408.2,-911.79 -911.7,-911.79 -503.6,0 -911.8,408.23 -911.8,911.79 0,503.58 408.2,911.8 911.8,911.8 503.5,0 911.7,-408.22 911.7,-911.8"
         transform="translate(0,-2.5e-4)"
         id="path1683" />
    </clipPath>
    <clipPath
       clipPathUnits="userSpaceOnUse"
       id="clipPath1685">
      <path
         d="m 37491.6,2934.46 c 0,-503.56 -408.2,-911.79 -911.7,-911.79 -503.6,0 -911.8,408.23 -911.8,911.79 0,503.58 408.2,911.8 911.8,911.8 503.5,0 911.7,-408.22 911.7,-911.8"
         transform="translate(0,-2.5e-4)"
         id="path1685" />
    </clipPath>
    <clipPath
       clipPathUnits="userSpaceOnUse"
       id="clipPath1687">
      <path
         d="m 37491.6,2934.46 c 0,-503.56 -408.2,-911.79 -911.7,-911.79 -503.6,0 -911.8,408.23 -911.8,911.79 0,503.58 408.2,911.8 911.8,911.8 503.5,0 911.7,-408.22 911.7,-911.8"
         transform="translate(0,-2.5e-4)"
         id="path1687" />
    </clipPath>
    <clipPath
       clipPathUnits="userSpaceOnUse"
       id="clipPath1689">
      <path
         d="m 37491.6,2934.46 c 0,-503.56 -408.2,-911.79 -911.7,-911.79 -503.6,0 -911.8,408.23 -911.8,911.79 0,503.58 408.2,911.8 911.8,911.8 503.5,0 911.7,-408.22 911.7,-911.8"
         transform="translate(0,-2.5e-4)"
         id="path1689" />
    </clipPath>
    <clipPath
       clipPathUnits="userSpaceOnUse"
       id="clipPath1691">
      <path
         d="m 37491.6,2934.46 c 0,-503.56 -408.2,-911.79 -911.7,-911.79 -503.6,0 -911.8,408.23 -911.8,911.79 0,503.58 408.2,911.8 911.8,911.8 503.5,0 911.7,-408.22 911.7,-911.8"
         transform="translate(0,-2.5e-4)"
         id="path1691" />
    </clipPath>
  </defs>
  <g
     inkscape:label="Layer 1"
     inkscape:groupmode="layer"
     id="layer1"
     transform="translate(-68.527185,-111.38956)">
    <path
       id="path1592"
       d="m 37491.6,2022.67 h -1823.5 v 1823.59 h 1823.5 V 2022.67"
       style="fill:#a59eff;fill-opacity:1;fill-rule:nonzero;stroke:none"
       transform="matrix(0.03527778,0,0,-0.03527778,-1189.7642,247.07707)"
       clip-path="url(#clipPath1593)" />
    <path
       id="path1594"
       d="m 36759.2,3387.91 c 0.4,1.19 0.8,2.39 1.2,3.6 0.5,1.91 1.9,3.52 3.7,4.37 1.8,0.87 3.6,1.94 5.2,3.28 7.5,6.2 8.4,19.81 1.8,25.54 -2,1.83 -2.9,4.53 -2.1,7.17 2.1,6.16 -0.1,13.54 -4.5,18.61 -0.8,0.95 -1.5,2.04 -1.7,3.27 -1,4.17 -2.1,8.31 -3.4,12.38 -0.5,1.43 -0.5,2.95 -0.1,4.4 2.5,8.17 1.8,17.33 -2.7,24.62 -4.1,6.67 -11.1,11.24 -18.7,13.11 -1.4,0.36 -2.8,1.1 -3.8,2.25 -2.3,2.69 -4.8,5.27 -7.4,7.76 -1.5,1.49 -2.2,3.57 -2.1,5.7 1.1,16.96 -8.7,35.04 -25,40.84 -11.7,4.18 -24.8,1.3 -35,-5.8 -4.9,-3.44 -10.8,-5.03 -16.7,-4.28 l -0.9,0.11 c -5.3,0.64 -10.1,3.28 -13.9,7 -9.9,9.66 -23.5,15.5 -37.3,14.35 -20.9,-1.75 -38.7,-19.64 -42.2,-39.97 l -0.9,-0.5 c -1.4,-0.87 -2.7,-1.85 -4.1,-2.77 -8.1,9.71 -23.4,13.63 -35.6,8.9 -15.5,-6 -25.2,-22.43 -27.1,-38.94 -1.4,-12.01 0.7,-24.05 4.4,-35.66 -2.6,-3.98 -3.7,-5.76 -6.3,-9.74 -8.1,-0.63 -16.4,-6.73 -18.8,-14.92 -3.5,-12.16 3.3,-25.4 13.3,-33.21 v 0 l -3.4,-16.26 c -80.7,-19.43 -140,-76.93 -163.6,-152.64 -1.1,-3.35 0.6,-6.97 3.7,-8.5 l 117.2,-56.44 c 1.6,-0.75 3.4,-0.89 5,-0.4 149.7,43.79 314.1,43.04 463.4,-2.03 4,-1.21 8,1.27 9,5.35 20.7,91.29 -51.3,192.98 -150.6,209.45"
       style="fill:#241e21;fill-opacity:1;fill-rule:nonzero;stroke:none"
       transform="matrix(0.03527778,0,0,-0.03527778,-1189.7642,247.07707)"
       clip-path="url(#clipPath1595)" />
    <path
       id="path1596"
       d="m 36333,2888.69 c -8.4,55.92 -16.7,111.83 -25.1,167.75 -6.9,46.03 -13.8,93.24 -4.2,138.79 18.2,86.7 95,152.39 179.5,178.81 84.6,26.41 175.9,19.53 263.2,4.6 36.8,-6.29 74.9,-14.67 104,-38.11 32.9,-26.55 49.3,-68.73 57.1,-110.29 25.7,-136.64 -26.5,-275.05 -84,-401.65 -139.4,-15.98 -280.2,-20.22 -420.4,-12.66 l -70.1,72.76"
       style="fill:#241e21;fill-opacity:1;fill-rule:nonzero;stroke:none"
       transform="matrix(0.03527778,0,0,-0.03527778,-1189.7642,247.07707)"
       clip-path="url(#clipPath1597)" />
    <path
       id="path1598"
       d="m 37043.1,2347.09 c -84.7,56.73 -187,79.45 -287,99.53 -6.1,1.23 -12.4,2.56 -17.3,6.39 -8.4,6.55 10.6,171.06 0,267.59 l -142.7,-13.36 -142.7,13.36 c -10.7,-96.53 8.4,-261.04 0,-267.59 -4.9,-3.83 -11.2,-5.16 -17.3,-6.39 -100,-20.08 -202.4,-42.8 -287.1,-99.53 -84.7,-56.73 -148.9,-155.67 -135.3,-256.71 85.1,0.44 322.5,-1.1 563.1,-4.27 v -0.52 c 6.4,0.09 12.8,0.18 19.3,0.27 6.4,-0.09 12.9,-0.18 19.3,-0.27 v 0.52 c 240.5,3.17 478,4.71 563,4.27 13.6,101.04 -50.5,199.98 -135.3,256.71"
       style="fill:#fbd1b9;fill-opacity:1;fill-rule:nonzero;stroke:none"
       transform="matrix(0.03527778,0,0,-0.03527778,-1189.7642,247.07707)"
       clip-path="url(#clipPath1599)" />
    <g
       id="g1601"
       transform="matrix(0.26458333,0,0,0.26458333,-1189.7642,-111.43686)">
      <path
         d="m 36263.5,2723.71 c 56.3,36.24 58.7,53.63 61.4,36.24 13.3,-85.44 148.3,-291.26 271.1,-291.26 158.9,0 251.1,268.24 266,335.84 -183.7,-26.25 -369.7,-52.54 -553.9,-30.45 5.1,-4.77 10.1,-9.55 15.2,-14.32 l -59.8,-36.05"
         style="fill:#dba78a;fill-opacity:1;fill-rule:nonzero;stroke:none"
         transform="matrix(0.13333333,0,0,-0.13333333,0,1355.0133)"
         clip-path="url(#clipPath1600)"
         id="path1601" />
    </g>
    <path
       id="path1602"
       d="m 36384.4,3192.01 c -32.8,-110.77 -24.7,-304.88 0,-417.74 l 0.4,-1.82 c 13.4,-60.58 34.8,-121.07 75.1,-168.22 40.3,-47.15 102.4,-79.04 163.9,-70.68 59.4,8.09 109.3,52.26 138.3,104.78 29,52.53 40.2,112.87 48.3,172.33 14.1,103.52 10.4,378.46 0.4,379.31 -128,10.84 -301.8,37.06 -426.4,5.64 v -3.6"
       style="fill:#fbd1b9;fill-opacity:1;fill-rule:nonzero;stroke:none"
       transform="matrix(0.03527778,0,0,-0.03527778,-1189.7642,247.07707)"
       clip-path="url(#clipPath1603)" />
    <path
       id="path1604"
       d="m 36805.3,2853.54 c 3.1,22.79 30.6,37.05 52.6,30.36 22,-6.68 36.5,-29.55 38.2,-52.5 1.6,-22.96 -7.7,-45.55 -20.9,-64.42 -21.9,-31.48 -60.6,-55.92 -97.7,-46.18 5.9,47.2 14.4,94.09 25.4,140.37 l 2.4,-7.63"
       style="fill:#fbd1b9;fill-opacity:1;fill-rule:nonzero;stroke:none"
       transform="matrix(0.03527778,0,0,-0.03527778,-1189.7642,247.07707)"
       clip-path="url(#clipPath1605)" />
    <path
       id="path1606"
       d="m 36387.8,2853.54 c -3.2,22.79 -30.6,37.05 -52.6,30.36 -22.1,-6.68 -36.6,-29.55 -38.2,-52.5 -1.7,-22.96 7.6,-45.55 20.8,-64.42 22,-31.48 60.6,-55.92 97.7,-46.18 -5.9,47.2 -14.3,94.09 -25.3,140.37 l -2.4,-7.63"
       style="fill:#fbd1b9;fill-opacity:1;fill-rule:nonzero;stroke:none"
       transform="matrix(0.03527778,0,0,-0.03527778,-1189.7642,247.07707)"
       clip-path="url(#clipPath1607)" />
    <path
       id="path1608"
       d="m 36821.2,2781.91 c 1.2,2.25 2.4,4.44 3.8,6.57 0.6,0.96 1.2,1.92 1.9,2.86 l 1.2,1.67 0.6,0.87 0.7,0.84 1.4,1.58 2.2,2.55 c 1.8,1.84 3.6,3.6 5.5,5.28 l 2.6,2.23 c 0.1,0.08 1.8,1.47 0.6,0.51 l 1.4,1.03 c 1.9,1.42 3.9,2.75 6,4 2.1,1.3 4.3,2.5 6.6,3.6 1,0.5 2.1,0.97 3.1,1.43 -1.5,-0.65 0.6,0.22 0.7,0.27 l 2,0.72 c 3.7,1.37 6.7,5.28 5.3,9.44 -1.2,3.7 -5.4,6.83 -9.4,5.36 -21.1,-7.7 -39.1,-23 -49.4,-43.06 -1.8,-3.57 -1.1,-8.49 2.7,-10.5 3.6,-1.85 8.6,-1.06 10.5,2.75"
       style="fill:#a46e4a;fill-opacity:1;fill-rule:nonzero;stroke:none"
       transform="matrix(0.03527778,0,0,-0.03527778,-1189.7642,247.07707)"
       clip-path="url(#clipPath1609)" />
    <path
       id="path1610"
       d="m 36833.6,2801.14 c 1.1,-0.98 2.1,-2.06 3,-3.24 l -1.2,1.55 c 1.2,-1.54 2.2,-3.2 2.9,-4.97 l -0.7,1.83 c 0.8,-1.98 1.4,-4.04 1.7,-6.17 l -0.3,2.04 c 0.2,-1.92 0.2,-3.84 0,-5.75 l 0.2,2.04 -0.1,-0.95 c -0.4,-2.08 -0.3,-4.04 0.8,-5.92 0.9,-1.59 2.7,-3.11 4.5,-3.52 2,-0.45 4.2,-0.35 6,0.77 1.5,1.03 3.1,2.65 3.5,4.59 0.9,5.2 0.8,10.58 -1,15.61 -1.7,4.91 -4.5,9.51 -8.5,12.94 -1.6,1.35 -3.3,2.25 -5.4,2.25 -1.9,0 -4.2,-0.83 -5.4,-2.25 -1.4,-1.46 -2.4,-3.38 -2.3,-5.42 0.1,-1.95 0.7,-4.11 2.3,-5.43"
       style="fill:#a46e4a;fill-opacity:1;fill-rule:nonzero;stroke:none"
       transform="matrix(0.03527778,0,0,-0.03527778,-1189.7642,247.07707)"
       clip-path="url(#clipPath1611)" />
    <path
       id="path1612"
       d="m 36848.7,2943.94 -11.5,-1.11 c -0.9,-1.06 -1.9,-2.13 -2.8,-3.21 8.2,78.87 16.5,188.09 14.9,248.72 -0.5,17.9 -2.2,38.19 -16.3,49.31 -8.5,6.77 -19.9,8.55 -30.6,10 -130.7,17.58 -263.3,21.6 -394.8,11.97 -16.2,-1.19 -34.4,-3.53 -44.7,-16.22 -8.1,-10.01 -9,-23.86 -9.5,-36.74 -3.6,-93.3 -2.2,-186.79 4,-279.96 -3.1,8.4 -4.7,17.12 -3.6,25.95 l -9.4,-4.65 c -5.4,-22.84 -10.4,-48.5 1.9,-68.48 4.3,-6.95 10.4,-12.6 15.1,-19.27 8.9,-12.59 12.5,-28.8 9.7,-43.97 16,5.85 22.6,26 19.5,42.75 -0.3,1.44 -0.6,2.87 -1,4.28 -7,26.91 -8.8,54.88 -2.7,82.04 16.5,74.16 27.8,156.45 36.8,223.88 41.6,-31.39 90.9,-52.41 142.3,-60.64 l -63.7,85.17 c 58.5,-44.03 127.3,-74.28 199.3,-87.65 -22.9,27.15 -45.8,54.3 -68.7,81.44 43.2,-46.02 95.4,-83.54 152.8,-109.82 -12.7,34.67 -25.4,69.34 -38.2,104.01 23.9,-38.52 44.8,-78.95 62.2,-120.8 4.8,21.64 8,43.63 9.7,65.74 -0.9,-37.73 -1.5,-78.8 -1.6,-119.84 0,-38.48 -2.7,-77.16 -12,-114.52 -1.6,-6.73 -2.1,-13.67 -0.8,-20.76 2.3,-13.62 10.7,-25.37 15.4,-38.37 4.7,-13.01 4.4,-29.98 -6.9,-37.91 18.9,3.2 27,26.81 24.7,45.88 -1.9,16.13 -8.4,31.76 -9.5,47.8 0.9,7.18 1.8,15.09 2.8,23.57 3.6,11.3 10,21.84 17.2,31.41"
       style="fill:#241e21;fill-opacity:1;fill-rule:nonzero;stroke:none"
       transform="matrix(0.03527778,0,0,-0.03527778,-1189.7642,247.07707)"
       clip-path="url(#clipPath1613)" />
    <path
       id="path1614"
       d="m 36919.3,3268.18 c -59,76.87 -192.1,121.61 -285.9,81.65 -7.9,3.49 -18.5,1.61 -23.1,-5.45 -1.9,3.33 -6.6,4.49 -10.7,3.48 -95.3,44 -259,11.79 -287.3,-82.54 -15.4,-51.15 -30,-142.13 -7.4,-205.25 l 7.3,-6.97 c 1.6,53.39 33,100.8 64.7,143.78 20.4,27.65 41.6,55.04 67.3,77.91 40.8,36.39 94.7,60.53 149.1,68.25 -2.7,-4.99 -1.8,-11.4 0.9,-16.68 -34.9,-26.34 -50,-77.83 -31.8,-118.11 17.8,15.42 35.9,31.14 48.6,51.03 7.3,11.3 12.6,24.26 14.5,37.47 10.9,-38.34 43.4,-70.29 82.4,-79.18 -1.2,23.1 -4.8,46.71 -16.2,66.81 -11,19.18 -30.3,34.66 -52.1,36.64 4,6.33 5.2,14.46 1.9,21.05 52.3,-8.63 103.7,-32.28 142.9,-67.28 25.7,-22.87 46.9,-50.26 67.3,-77.91 31.7,-42.98 47.3,-103.25 48.9,-156.64 0,0 56.2,179.04 18.7,227.94"
       style="fill:#ed6b55;fill-opacity:1;fill-rule:nonzero;stroke:none"
       transform="matrix(0.03527778,0,0,-0.03527778,-1189.7642,247.07707)"
       clip-path="url(#clipPath1615)" />
    <path
       id="path1616"
       d="m 36730,3456.49 c 9.8,14.11 21.3,27.5 36.1,36.22 14.8,8.72 33.4,12.25 49.5,6.12 -18.9,-11.77 -39.6,-26.43 -42.3,-48.5 13.1,2.73 27.2,0.9 39.2,-5.09 -28.1,-8.69 -54.9,-21.88 -78.9,-38.93 l -3.6,50.18"
       style="fill:#241e21;fill-opacity:1;fill-rule:nonzero;stroke:none"
       transform="matrix(0.03527778,0,0,-0.03527778,-1189.7642,247.07707)"
       clip-path="url(#clipPath1617)" />
    <path
       id="path1618"
       d="m 36498.1,2885.96 c 0,-15.99 -11.8,-28.95 -26.4,-28.95 -14.6,0 -26.4,12.96 -26.4,28.95 0,15.99 11.8,28.95 26.4,28.95 14.6,0 26.4,-12.96 26.4,-28.95"
       style="fill:#1a1a1a;fill-opacity:1;fill-rule:nonzero;stroke:none"
       transform="matrix(0.03527778,0,0,-0.03527778,-1189.7642,247.07707)"
       clip-path="url(#clipPath1619)" />
    <path
       id="path1620"
       d="m 36759.9,2885.96 c 0,-15.99 -11.8,-28.95 -26.4,-28.95 -14.6,0 -26.4,12.96 -26.4,28.95 0,15.99 11.8,28.95 26.4,28.95 14.6,0 26.4,-12.96 26.4,-28.95"
       style="fill:#1a1a1a;fill-opacity:1;fill-rule:nonzero;stroke:none"
       transform="matrix(0.03527778,0,0,-0.03527778,-1189.7642,247.07707)"
       clip-path="url(#clipPath1621)" />
    <path
       id="path1622"
       d="m 36326.6,2826.82 c 14.6,-13.49 25.8,-30.32 32.2,-48.64 1.4,-3.91 5.2,-6.52 9.4,-5.36 3.8,1.04 6.8,5.51 5.4,9.44 -7.4,21.08 -19.7,40.22 -36.1,55.41 -3.1,2.81 -7.9,3.01 -10.9,0 -2.8,-2.85 -3,-8.03 0,-10.85"
       style="fill:#a46e4a;fill-opacity:1;fill-rule:nonzero;stroke:none"
       transform="matrix(0.03527778,0,0,-0.03527778,-1189.7642,247.07707)"
       clip-path="url(#clipPath1623)" />
    <path
       id="path1624"
       d="m 36334.8,2792.89 1.7,-0.17 -2,0.27 c 2.9,-0.4 5.7,-1.17 8.4,-2.29 l -1.8,0.77 c 2.7,-1.15 5.3,-2.62 7.6,-4.42 l -1.6,1.2 c 1.2,-0.91 2.3,-1.88 3.3,-2.92 2.8,-2.86 8.1,-3.04 10.9,0 2.8,3.07 3,7.8 0,10.85 -7.1,7.16 -16.5,11.24 -26.5,12.06 -1.8,0.15 -4.1,-0.97 -5.4,-2.25 -1.3,-1.33 -2.3,-3.52 -2.3,-5.43 0.1,-1.98 0.8,-4.04 2.3,-5.42 1.6,-1.44 3.3,-2.07 5.4,-2.25"
       style="fill:#a46e4a;fill-opacity:1;fill-rule:nonzero;stroke:none"
       transform="matrix(0.03527778,0,0,-0.03527778,-1189.7642,247.07707)"
       clip-path="url(#clipPath1625)" />
    <path
       id="path1626"
       d="m 36516.8,3036.65 c 3.5,-2.2 1.6,-8.13 -2.1,-9.78 -3.7,-1.66 -8.1,-0.53 -12,0.4 -31.2,7.34 -65.3,1.1 -91.8,-16.79 11.5,20.39 31.5,35.84 54.1,41.83 18.7,4.97 42.2,1.65 51.8,-15.2 v -0.46"
       style="fill:#241e21;fill-opacity:1;fill-rule:nonzero;stroke:none"
       transform="matrix(0.03527778,0,0,-0.03527778,-1189.7642,247.07707)"
       clip-path="url(#clipPath1627)" />
    <path
       id="path1628"
       d="m 36678.7,3021.31 c -3.4,-2.21 -1.6,-8.14 2.2,-9.79 3.7,-1.66 8,-0.53 12,0.41 31.1,7.34 65.2,1.09 91.7,-16.8 -11.4,20.4 -31.4,35.84 -54,41.84 -18.8,4.96 -42.3,1.64 -51.8,-15.2 l -0.1,-0.46"
       style="fill:#241e21;fill-opacity:1;fill-rule:nonzero;stroke:none"
       transform="matrix(0.03527778,0,0,-0.03527778,-1189.7642,247.07707)"
       clip-path="url(#clipPath1629)" />
    <path
       id="path1630"
       d="m 36585.1,2947.77 c 5.5,-30.01 12.4,-59.74 20.8,-89.05 1.6,-5.4 2.6,-15.59 7.3,-19.18 5,-3.89 15.3,-4.19 21.4,-5.24 14.9,-2.55 30,-4.01 45.1,-4.4 -2.2,3.84 -4.4,7.69 -6.6,11.54 -14.1,-29.52 -33.4,-55.91 -57.3,-78.23 -7.3,-6.75 3.6,-17.58 10.8,-10.85 24.8,23.12 45.1,50.74 59.7,81.34 2.5,5.23 -0.4,11.38 -6.6,11.54 -20.2,0.52 -40.1,3.09 -59.8,7.73 1.8,-1.79 3.6,-3.58 5.3,-5.36 -10.5,34.22 -18.9,69.02 -25.3,104.24 -1.7,9.71 -16.5,5.6 -14.8,-4.08"
       style="fill:#a46e4a;fill-opacity:1;fill-rule:nonzero;stroke:none"
       transform="matrix(0.03527778,0,0,-0.03527778,-1189.7642,247.07707)"
       clip-path="url(#clipPath1631)" />
    <path
       id="path1632"
       d="m 36565.4,2684.21 c 10.7,-13.95 28.5,-23.91 45.7,-20.34 12.3,2.57 22.5,11.65 29.3,22.3 6.7,10.65 10.5,15.23 14.2,27.29 -33.9,-6.71 -68.6,-1.65 -103,0 l 13.8,-29.25"
       style="fill:#ffffff;fill-opacity:1;fill-rule:nonzero;stroke:none"
       transform="matrix(0.03527778,0,0,-0.03527778,-1189.7642,247.07707)"
       clip-path="url(#clipPath1633)" />
    <path
       id="path1634"
       d="m 36560,2678.79 c 14.6,-18.58 39.7,-29.44 62.4,-19.14 10.4,4.72 18.5,13.22 24.6,22.64 6.1,9.34 11.6,18.42 15,29.13 1.9,5.97 -4,10.48 -9.5,9.43 -33.3,-6.38 -67.4,-1.39 -100.9,0.28 -6.3,0.31 -9,-6.64 -6.7,-11.55 4.7,-9.74 9.3,-19.49 13.9,-29.24 4.2,-8.92 17.4,-1.14 13.2,7.75 -4.6,9.74 -9.2,19.49 -13.8,29.24 -2.2,-3.85 -4.4,-7.7 -6.6,-11.55 35.1,-1.74 70.1,-6.4 105,0.28 -3.1,3.14 -6.3,6.29 -9.4,9.43 -2.6,-8.05 -6.6,-14.83 -11.2,-21.89 -5,-7.74 -10.3,-14.83 -18.5,-19.32 -17.2,-9.29 -35.9,1.68 -46.7,15.36 -2.6,3.28 -8.1,2.66 -10.8,0 -3.3,-3.18 -2.6,-7.62 0,-10.85"
       style="fill:#a46e4a;fill-opacity:1;fill-rule:nonzero;stroke:none"
       transform="matrix(0.03527778,0,0,-0.03527778,-1189.7642,247.07707)"
       clip-path="url(#clipPath1635)" />
    <path
       id="path1636"
       d="m 36294.5,2413.72 c 10.4,-65.13 15.3,-131.02 21.2,-196.68 0.8,-9.76 16.2,-9.85 15.3,0 -6,67.04 -11.1,134.26 -21.7,200.76 -1.6,9.73 -16.4,5.6 -14.8,-4.08"
       style="fill:#ffb753;fill-opacity:1;fill-rule:nonzero;stroke:none"
       transform="matrix(0.03527778,0,0,-0.03527778,-1189.7642,247.07707)"
       clip-path="url(#clipPath1637)" />
    <path
       id="path1638"
       d="m 36142.1,2086.28 c 50.2,43.48 172.7,136.27 177,136.75 5.2,0.56 499.1,0.47 517.2,0 8.5,-0.23 274,-151.92 274,-157.28 -0.1,-25.24 -2.2,-13.74 -2.3,-38.98 0,-5.6 -4.6,-10.63 -3.5,-16.14 8.3,-44.64 -11.9,-7.04 -18.9,-8.01 -304.6,-42.63 -611.2,-71.75 -918.5,-87.23 -3.8,55.8 -12,111.3 -24.7,165.79 l -0.3,5.1"
       style="fill:#ffb753;fill-opacity:1;fill-rule:nonzero;stroke:none"
       transform="matrix(0.03527778,0,0,-0.03527778,-1189.7642,247.07707)"
       clip-path="url(#clipPath1639)" />
    <path
       id="path1640"
       d="m 36835.7,2429.63 c 3,-36.63 -1.3,-73.97 -3.4,-110.56 -2.1,-37.21 -4.2,-74.41 -6.3,-111.62 -0.5,-9.87 14.8,-9.84 15.4,0 2.1,37.21 4.2,74.41 6.3,111.62 2,36.59 6.3,73.93 3.3,110.56 -0.8,9.77 -16.2,9.85 -15.3,0"
       style="fill:#ffb753;fill-opacity:1;fill-rule:nonzero;stroke:none"
       transform="matrix(0.03527778,0,0,-0.03527778,-1189.7642,247.07707)"
       clip-path="url(#clipPath1641)" />
    <path
       id="path1642"
       d="m 36291.3,2418.65 c -14.4,-154.9 -24.2,-310.25 -29.3,-465.74 -87.8,-8.4 -175.7,-16.8 -263.5,-25.19 -5.3,60.72 -10.5,121.85 -4.5,182.51 5.9,60.65 23.8,121.45 60.5,170.07 19.8,26.16 44.6,48.23 71.3,67.28 49,34.97 105,60.15 163.7,73.62 l 1.8,-2.55"
       style="fill:#ce7d1d;fill-opacity:1;fill-rule:nonzero;stroke:none"
       transform="matrix(0.03527778,0,0,-0.03527778,-1189.7642,247.07707)"
       clip-path="url(#clipPath1643)" />
    <path
       id="path1644"
       d="m 36877.5,2418.65 c 15.8,-154.9 26.4,-310.25 31.9,-465.74 95.5,-8.4 191,-16.8 286.5,-25.19 5.7,60.72 11.4,121.85 4.9,182.51 -6.5,60.65 -25.9,121.45 -65.9,170.07 -21.5,26.16 -48.4,48.23 -77.5,67.28 -53.2,34.97 -114.1,60.15 -177.9,73.62 l -2,-2.55"
       style="fill:#ce7d1d;fill-opacity:1;fill-rule:nonzero;stroke:none"
       transform="matrix(0.03527778,0,0,-0.03527778,-1189.7642,247.07707)"
       clip-path="url(#clipPath1645)" />
    <g
       id="g1681"
       transform="matrix(0.26458333,0,0,0.26458333,-1189.7642,-111.43686)">
      <path
         d="m 36445.1,3346.74 v 1.3 c 0.1,3.17 -0.5,6.13 -2,8.87 -0.9,2.85 -2.5,5.32 -4.7,7.41 -2.1,2.24 -4.6,3.83 -7.4,4.76 -2.8,1.44 -5.7,2.1 -8.9,1.98 -2,-0.27 -4.1,-0.55 -6.1,-0.82 -3.9,-1.1 -7.3,-3.07 -10.2,-5.92 -1.2,-1.55 -2.4,-3.11 -3.6,-4.66 -2.1,-3.59 -3.1,-7.46 -3.1,-11.62 v -1.3 c -0.1,-3.17 0.5,-6.13 2,-8.87 0.9,-2.86 2.5,-5.33 4.7,-7.41 2.1,-2.25 4.6,-3.83 7.4,-4.76 2.8,-1.44 5.7,-2.1 8.9,-1.98 2,0.27 4.1,0.54 6.1,0.82 3.9,1.09 7.3,3.07 10.2,5.92 1.2,1.55 2.4,3.1 3.6,4.66 2.1,3.59 3.1,7.46 3.1,11.62"
         style="fill:#ffffff;fill-opacity:1;fill-rule:nonzero;stroke:none"
         transform="matrix(0.13333333,0,0,-0.13333333,0,1355.0133)"
         clip-path="url(#clipPath1646)"
         id="path1664" />
      <path
         d="m 36921,3213.73 v 1.31 c 0.1,3.17 -0.5,6.13 -2,8.87 -0.9,2.85 -2.5,5.32 -4.7,7.41 -2.1,2.24 -4.6,3.83 -7.4,4.76 -2.8,1.44 -5.7,2.1 -8.9,1.98 -2,-0.28 -4.1,-0.55 -6.1,-0.82 -3.9,-1.1 -7.3,-3.07 -10.2,-5.92 -1.2,-1.56 -2.4,-3.11 -3.6,-4.66 -2.1,-3.59 -3.1,-7.47 -3.1,-11.62 v -1.31 c -0.1,-3.17 0.5,-6.12 2,-8.87 0.9,-2.85 2.5,-5.32 4.7,-7.4 2.1,-2.25 4.6,-3.84 7.4,-4.76 2.8,-1.44 5.7,-2.11 8.9,-1.99 2,0.28 4.1,0.55 6.1,0.83 3.9,1.09 7.3,3.06 10.2,5.92 1.2,1.55 2.4,3.1 3.6,4.65 2.1,3.59 3.1,7.47 3.1,11.62"
         style="fill:#ffffff;fill-opacity:1;fill-rule:nonzero;stroke:none"
         transform="matrix(0.13333333,0,0,-0.13333333,0,1355.0133)"
         clip-path="url(#clipPath1647)"
         id="path1665" />
      <path
         d="m 36343,3216.28 v 0.59 c 0,1.4 -0.3,2.72 -0.9,3.94 -0.4,1.26 -1.1,2.36 -2.1,3.29 -1,1 -2.1,1.7 -3.3,2.11 -1.2,0.65 -2.6,0.94 -4,0.89 -0.9,-0.13 -1.8,-0.25 -2.7,-0.37 -1.7,-0.48 -3.2,-1.36 -4.5,-2.63 l -1.6,-2.07 c -0.9,-1.6 -1.4,-3.32 -1.4,-5.16 v -0.59 c -0.1,-1.4 0.2,-2.72 0.9,-3.94 0.4,-1.27 1.1,-2.36 2.1,-3.29 0.9,-1 2,-1.7 3.3,-2.12 1.2,-0.64 2.5,-0.93 3.9,-0.88 0.9,0.12 1.8,0.25 2.8,0.37 1.7,0.48 3.2,1.36 4.5,2.63 l 1.6,2.07 c 0.9,1.6 1.4,3.32 1.4,5.16"
         style="fill:#ffffff;fill-opacity:1;fill-rule:nonzero;stroke:none"
         transform="matrix(0.13333333,0,0,-0.13333333,0,1355.0133)"
         clip-path="url(#clipPath1648)"
         id="path1666" />
      <path
         d="m 36532.2,3349.29 v 0.58 c 0.1,1.4 -0.2,2.72 -0.8,3.94 -0.5,1.27 -1.2,2.36 -2.2,3.29 -0.9,1 -2,1.7 -3.2,2.12 -1.3,0.64 -2.6,0.93 -4,0.88 -0.9,-0.12 -1.8,-0.25 -2.7,-0.37 -1.7,-0.48 -3.2,-1.36 -4.5,-2.63 l -1.6,-2.07 c -0.9,-1.6 -1.4,-3.32 -1.4,-5.16 v -0.58 c -0.1,-1.41 0.2,-2.73 0.9,-3.95 0.4,-1.26 1.1,-2.36 2.1,-3.29 0.9,-1 2,-1.7 3.3,-2.11 1.2,-0.65 2.5,-0.94 3.9,-0.89 0.9,0.13 1.8,0.25 2.7,0.37 1.8,0.49 3.3,1.36 4.5,2.63 l 1.6,2.07 c 1,1.6 1.4,3.32 1.4,5.17"
         style="fill:#ffffff;fill-opacity:1;fill-rule:nonzero;stroke:none"
         transform="matrix(0.13333333,0,0,-0.13333333,0,1355.0133)"
         clip-path="url(#clipPath1649)"
         id="path1667" />
      <path
         d="m 36716.4,3349.29 v 0.58 c 0.1,1.4 -0.2,2.72 -0.9,3.94 -0.4,1.27 -1.1,2.36 -2.1,3.29 -0.9,1 -2,1.7 -3.3,2.12 -1.2,0.64 -2.5,0.93 -3.9,0.88 -0.9,-0.12 -1.8,-0.25 -2.8,-0.37 -1.7,-0.48 -3.2,-1.36 -4.5,-2.63 l -1.6,-2.07 c -0.9,-1.6 -1.4,-3.32 -1.4,-5.16 v -0.58 c 0,-1.41 0.3,-2.73 0.9,-3.95 0.4,-1.26 1.1,-2.36 2.1,-3.29 1,-1 2.1,-1.7 3.3,-2.11 1.2,-0.65 2.6,-0.94 4,-0.89 0.9,0.13 1.8,0.25 2.7,0.37 1.7,0.49 3.2,1.36 4.5,2.63 l 1.6,2.07 c 0.9,1.6 1.4,3.32 1.4,5.17"
         style="fill:#ffffff;fill-opacity:1;fill-rule:nonzero;stroke:none"
         transform="matrix(0.13333333,0,0,-0.13333333,0,1355.0133)"
         clip-path="url(#clipPath1650)"
         id="path1668" />
      <path
         d="m 36849.3,3254.59 v 0.44 c 0,1.05 -0.2,2.03 -0.7,2.93 -0.3,0.95 -0.8,1.77 -1.5,2.46 -0.7,0.74 -1.5,1.26 -2.5,1.57 -0.9,0.48 -1.9,0.7 -2.9,0.66 l -2.1,-0.27 c -1.2,-0.37 -2.4,-1.02 -3.3,-1.96 l -1.2,-1.55 c -0.7,-1.18 -1,-2.47 -1,-3.84 v -0.44 c -0.1,-1.04 0.1,-2.02 0.6,-2.93 0.3,-0.95 0.8,-1.76 1.6,-2.45 0.7,-0.75 1.5,-1.27 2.4,-1.58 0.9,-0.48 1.9,-0.7 3,-0.66 l 2,0.28 c 1.3,0.36 2.4,1.01 3.4,1.96 l 1.2,1.54 c 0.6,1.19 1,2.47 1,3.84"
         style="fill:#ffffff;fill-opacity:1;fill-rule:nonzero;stroke:none"
         transform="matrix(0.13333333,0,0,-0.13333333,0,1355.0133)"
         clip-path="url(#clipPath1651)"
         id="path1669" />
      <path
         d="m 36429.9,3254.65 v 1.01 c 0.1,2.47 -0.4,4.76 -1.5,6.9 -0.7,2.22 -2,4.14 -3.7,5.76 -1.6,1.74 -3.6,2.98 -5.8,3.7 -2.1,1.12 -4.4,1.63 -6.9,1.54 -1.6,-0.21 -3.1,-0.43 -4.7,-0.64 -3.1,-0.85 -5.7,-2.38 -7.9,-4.6 -1,-1.21 -1.9,-2.42 -2.8,-3.62 -1.6,-2.8 -2.5,-5.81 -2.5,-9.04 v -1.01 c -0.1,-2.47 0.4,-4.77 1.6,-6.9 0.7,-2.22 1.9,-4.14 3.7,-5.76 1.6,-1.74 3.5,-2.98 5.7,-3.7 2.2,-1.12 4.5,-1.63 6.9,-1.54 1.6,0.21 3.2,0.43 4.8,0.64 3,0.85 5.6,2.38 7.9,4.6 0.9,1.21 1.8,2.42 2.8,3.62 1.6,2.8 2.4,5.81 2.4,9.04"
         style="fill:#ffffff;fill-opacity:1;fill-rule:nonzero;stroke:none"
         transform="matrix(0.13333333,0,0,-0.13333333,0,1355.0133)"
         clip-path="url(#clipPath1652)"
         id="path1670" />
      <path
         d="m 36762.4,3310.92 v 1.01 c 0.1,2.47 -0.4,4.76 -1.5,6.9 -0.7,2.22 -2,4.14 -3.7,5.76 -1.6,1.74 -3.6,2.98 -5.8,3.7 -2.1,1.12 -4.4,1.63 -6.9,1.54 -1.6,-0.21 -3.1,-0.43 -4.7,-0.64 -3.1,-0.85 -5.7,-2.38 -7.9,-4.6 -1,-1.21 -1.9,-2.42 -2.8,-3.62 -1.6,-2.8 -2.5,-5.81 -2.5,-9.04 v -1.01 c -0.1,-2.47 0.5,-4.77 1.6,-6.9 0.7,-2.22 1.9,-4.14 3.7,-5.76 1.6,-1.74 3.5,-2.98 5.7,-3.7 2.2,-1.12 4.5,-1.63 6.9,-1.54 1.6,0.21 3.2,0.43 4.8,0.64 3,0.85 5.7,2.38 7.9,4.6 0.9,1.21 1.9,2.42 2.8,3.62 1.6,2.8 2.4,5.81 2.4,9.04"
         style="fill:#ffffff;fill-opacity:1;fill-rule:nonzero;stroke:none"
         transform="matrix(0.13333333,0,0,-0.13333333,0,1355.0133)"
         clip-path="url(#clipPath1653)"
         id="path1671" />
      <path
         d="m 36859.6,3305.8 v 0.73 c 0.1,1.76 -0.3,3.4 -1.1,4.92 -0.5,1.59 -1.4,2.96 -2.6,4.12 -1.2,1.24 -2.6,2.13 -4.1,2.64 -1.6,0.8 -3.2,1.17 -5,1.1 -1.1,-0.15 -2.2,-0.3 -3.4,-0.45 -2.1,-0.61 -4,-1.71 -5.6,-3.29 l -2,-2.59 c -1.2,-1.99 -1.7,-4.15 -1.7,-6.45 v -0.73 c -0.1,-1.76 0.3,-3.4 1.1,-4.92 0.5,-1.59 1.4,-2.96 2.6,-4.12 1.2,-1.25 2.5,-2.13 4.1,-2.64 1.5,-0.8 3.2,-1.17 4.9,-1.1 1.2,0.15 2.3,0.3 3.4,0.45 2.2,0.61 4.1,1.71 5.7,3.29 l 2,2.59 c 1.1,1.99 1.7,4.14 1.7,6.45"
         style="fill:#ffffff;fill-opacity:1;fill-rule:nonzero;stroke:none"
         transform="matrix(0.13333333,0,0,-0.13333333,0,1355.0133)"
         clip-path="url(#clipPath1654)"
         id="path1672" />
      <path
         d="m 36597,3336.5 c -1.7,-13.97 10.9,-27.55 24.9,-27.16 2.5,0.07 2.5,3.91 0,3.84 -12.1,-0.34 -22.5,11.38 -21,23.32 0.1,1.03 -1,1.91 -1.9,1.91 -1.2,0 -1.8,-0.88 -2,-1.91"
         style="fill:#b24738;fill-opacity:1;fill-rule:nonzero;stroke:none"
         transform="matrix(0.13333333,0,0,-0.13333333,0,1355.0133)"
         clip-path="url(#clipPath1655)"
         id="path1673" />
      <path
         d="m 36606.2,3316.75 c -10.1,-12.23 -17.9,-26.21 -22.8,-41.31 -0.7,-2.36 3,-3.36 3.7,-1.02 4.7,14.44 12.1,27.92 21.8,39.62 1.6,1.88 -1.1,4.61 -2.7,2.71"
         style="fill:#b24738;fill-opacity:1;fill-rule:nonzero;stroke:none"
         transform="matrix(0.13333333,0,0,-0.13333333,0,1355.0133)"
         clip-path="url(#clipPath1656)"
         id="path1674" />
      <path
         d="m 36613.5,3310.8 c -5,-12.85 -9.4,-25.9 -13.3,-39.1 -0.7,-2.37 3,-3.39 3.7,-1.02 3.9,13.2 8.3,26.25 13.3,39.1 0.9,2.31 -2.8,3.31 -3.7,1.02"
         style="fill:#b24738;fill-opacity:1;fill-rule:nonzero;stroke:none"
         transform="matrix(0.13333333,0,0,-0.13333333,0,1355.0133)"
         clip-path="url(#clipPath1657)"
         id="path1675" />
      <path
         d="m 36633.5,3311.9 c 10.6,-20.42 21.9,-40.49 33.8,-60.18 1.3,-2.11 4.6,-0.18 3.3,1.94 -11.9,19.69 -23.2,39.75 -33.8,60.17 -1.1,2.19 -4.4,0.26 -3.3,-1.93"
         style="fill:#b24738;fill-opacity:1;fill-rule:nonzero;stroke:none"
         transform="matrix(0.13333333,0,0,-0.13333333,0,1355.0133)"
         clip-path="url(#clipPath1658)"
         id="path1676" />
      <path
         d="m 36649.3,3298.32 c 9.1,-11.69 19,-22.67 29.8,-32.86 1.8,-1.69 4.5,1.01 2.7,2.71 -10.7,10.19 -20.7,21.17 -29.8,32.87 -1.5,1.94 -4.2,-0.79 -2.7,-2.72"
         style="fill:#b24738;fill-opacity:1;fill-rule:nonzero;stroke:none"
         transform="matrix(0.13333333,0,0,-0.13333333,0,1355.0133)"
         clip-path="url(#clipPath1659)"
         id="path1677" />
      <path
         d="m 36574.9,3347.55 c -44,0.52 -87.7,-5.71 -129.8,-18.49 -2.4,-0.72 -1.4,-4.42 1,-3.7 41.8,12.69 85.2,18.87 128.8,18.35 2.5,-0.03 2.5,3.81 0,3.84"
         style="fill:#b24738;fill-opacity:1;fill-rule:nonzero;stroke:none"
         transform="matrix(0.13333333,0,0,-0.13333333,0,1355.0133)"
         clip-path="url(#clipPath1660)"
         id="path1678" />
      <path
         d="m 36462.7,3346.94 c 31.8,7.94 64.9,8.63 97,1.96 2.4,-0.5 3.4,3.2 1,3.7 -32.7,6.81 -66.5,6.15 -99,-1.96 -2.4,-0.6 -1.4,-4.3 1,-3.7"
         style="fill:#b24738;fill-opacity:1;fill-rule:nonzero;stroke:none"
         transform="matrix(0.13333333,0,0,-0.13333333,0,1355.0133)"
         clip-path="url(#clipPath1661)"
         id="path1679" />
      <path
         d="m 36642.5,3344.16 c 51.8,5.26 104.1,0.35 154.1,-14.5 2.3,-0.71 3.3,2.99 1,3.7 -50.2,14.94 -103,19.93 -155.1,14.63 -2.4,-0.25 -2.4,-4.08 0,-3.83"
         style="fill:#b24738;fill-opacity:1;fill-rule:nonzero;stroke:none"
         transform="matrix(0.13333333,0,0,-0.13333333,0,1355.0133)"
         clip-path="url(#clipPath1662)"
         id="path1680" />
      <path
         d="m 36666.9,3338.84 c 47.4,-7.33 93.7,-20.42 137.9,-39.08 2.3,-0.95 4.2,2.36 2,3.32 -44.6,18.79 -91.1,32.07 -138.9,39.46 -2.4,0.37 -3.5,-3.32 -1,-3.7"
         style="fill:#b24738;fill-opacity:1;fill-rule:nonzero;stroke:none"
         transform="matrix(0.13333333,0,0,-0.13333333,0,1355.0133)"
         clip-path="url(#clipPath1663)"
         id="path1681" />
    </g>
    <path
       id="path1682"
       d="m 36475.5,3422 c -14,11.8 -30,27.34 -35.7,45.3 -5.4,17.04 5.1,37.94 25.4,30.58 8.8,-3.17 15.2,-10.68 20.9,-17.75 4.5,-5.63 12.7,-16.23 5.4,-22.94 -7.2,-6.51 -14.5,7.71 -15.4,13.2 -1.3,7.36 0.6,15.29 4.7,21.44 5.3,7.76 13.5,13.03 22,16.66 10,4.28 21.3,7.48 32.2,6.28 4.9,-0.54 4.8,7.14 0,7.67 -12.6,1.38 -25.7,-2.62 -37,-7.74 -9.7,-4.36 -18.9,-10.93 -24.5,-20.12 -5.1,-8.24 -6.8,-18.77 -4.4,-28.15 2.3,-8.66 9.8,-18.98 19.8,-18.4 9.3,0.54 14.2,11.18 12.7,19.41 -1,5.59 -4.1,10.37 -7.5,14.8 -3.8,5.04 -7.9,10.06 -12.6,14.28 -8.3,7.4 -19.5,12.57 -30.8,9.89 -9.7,-2.28 -16.5,-10.55 -19,-19.83 -3.5,-12.62 1.1,-25.5 7.9,-36.14 8.2,-12.8 18.9,-24.13 30.5,-33.87 3.8,-3.16 9.2,2.24 5.4,5.43"
       style="fill:#241e21;fill-opacity:1;fill-rule:nonzero;stroke:none"
       transform="matrix(0.03527778,0,0,-0.03527778,-1189.7642,247.07707)"
       clip-path="url(#clipPath1683)" />
    <path
       id="path1684"
       d="m 36502.9,3186.12 c 39.3,-38.72 89.3,-65.61 143.3,-76.94 4.8,-1.01 6.8,6.38 2,7.4 -52.8,11.07 -101.4,37.12 -139.8,74.96 -3.6,3.47 -9,-1.95 -5.5,-5.42"
       style="fill:#241e21;fill-opacity:1;fill-rule:nonzero;stroke:none"
       transform="matrix(0.03527778,0,0,-0.03527778,-1189.7642,247.07707)"
       clip-path="url(#clipPath1685)" />
    <path
       id="path1686"
       d="m 36287.4,2145.52 c 16.6,26.43 55.1,25.66 82.5,26.93 42.4,1.98 84.9,3.95 127.4,5.93 84.3,3.92 168.6,8.82 252.9,11.7 36.6,1.26 78.3,0.61 107.8,-24.35 7.5,-6.34 18.4,4.46 10.8,10.85 -27.5,23.27 -63.3,28.9 -98.3,29.17 -42.2,0.32 -84.6,-3.25 -126.7,-5.2 -90,-4.19 -180.1,-8.38 -270.1,-12.57 -34.7,-1.62 -78.7,-1.55 -99.5,-34.71 -5.3,-8.39 8,-16.1 13.2,-7.75"
       style="fill:#ce7d1d;fill-opacity:1;fill-rule:nonzero;stroke:none"
       transform="matrix(0.03527778,0,0,-0.03527778,-1189.7642,247.07707)"
       clip-path="url(#clipPath1687)" />
    <path
       id="path1688"
       d="m 36917.1,2392.51 c 8.9,-102.76 17.8,-205.53 26.6,-308.29 2.6,-29.18 5.1,-58.36 7.6,-87.54 0.4,-4.88 8.1,-4.93 7.7,0 -8.9,102.76 -17.8,205.53 -26.7,308.29 -2.5,29.18 -5,58.36 -7.5,87.54 -0.5,4.88 -8.1,4.93 -7.7,0"
       style="fill:#844e13;fill-opacity:1;fill-rule:nonzero;stroke:none"
       transform="matrix(0.03527778,0,0,-0.03527778,-1189.7642,247.07707)"
       clip-path="url(#clipPath1689)" />
    <path
       id="path1690"
       d="m 36241.6,2388.55 c -7.7,-104.94 -15.4,-209.89 -23,-314.84 -2.2,-29.62 -4.4,-59.24 -6.5,-88.87 -0.4,-4.92 7.3,-4.9 7.6,0 7.7,104.95 15.4,209.9 23.1,314.85 2.1,29.62 4.3,59.24 6.5,88.86 0.3,4.93 -7.3,4.91 -7.7,0"
       style="fill:#844e13;fill-opacity:1;fill-rule:nonzero;stroke:none"
       transform="matrix(0.03527778,0,0,-0.03527778,-1189.7642,247.07707)"
       clip-path="url(#clipPath1691)" />
  </g>
</svg>
