<?xml version="1.0" encoding="UTF-8" standalone="no"?>
<!-- Created with Inkscape (http://www.inkscape.org/) -->

<svg
   width="64.332558mm"
   height="64.332207mm"
   viewBox="0 0 64.332558 64.332207"
   version="1.1"
   id="svg1"
   inkscape:version="1.3.2 (091e20e, 2023-11-25)"
   sodipodi:docname="winter-clothed-black-hair-guy-avatar.svg"
   xmlns:inkscape="http://www.inkscape.org/namespaces/inkscape"
   xmlns:sodipodi="http://sodipodi.sourceforge.net/DTD/sodipodi-0.dtd"
   xmlns="http://www.w3.org/2000/svg"
   xmlns:svg="http://www.w3.org/2000/svg">
  <sodipodi:namedview
     id="namedview1"
     pagecolor="#ffffff"
     bordercolor="#000000"
     borderopacity="0.25"
     inkscape:showpageshadow="2"
     inkscape:pageopacity="0.0"
     inkscape:pagecheckerboard="0"
     inkscape:deskcolor="#d1d1d1"
     inkscape:document-units="mm"
     inkscape:zoom="0.99422518"
     inkscape:cx="-114.15925"
     inkscape:cy="193.61811"
     inkscape:window-width="1920"
     inkscape:window-height="1052"
     inkscape:window-x="0"
     inkscape:window-y="28"
     inkscape:window-maximized="0"
     inkscape:current-layer="layer1" />
  <defs
     id="defs1">
    <clipPath
       clipPathUnits="userSpaceOnUse"
       id="clipPath1415">
      <path
         d="m 24475.1,2934.46 c 0,-503.56 -408.3,-911.79 -911.8,-911.79 -503.6,0 -911.8,408.23 -911.8,911.79 0,503.58 408.2,911.8 911.8,911.8 503.5,0 911.8,-408.22 911.8,-911.8"
         transform="translate(0,-2.5e-4)"
         id="path1415" />
    </clipPath>
    <clipPath
       clipPathUnits="userSpaceOnUse"
       id="clipPath1417">
      <path
         d="m 24475.1,2934.46 c 0,-503.56 -408.3,-911.79 -911.8,-911.79 -503.6,0 -911.8,408.23 -911.8,911.79 0,503.58 408.2,911.8 911.8,911.8 503.5,0 911.8,-408.22 911.8,-911.8"
         transform="translate(0,-2.5e-4)"
         id="path1417" />
    </clipPath>
    <clipPath
       clipPathUnits="userSpaceOnUse"
       id="clipPath1419">
      <path
         d="m 24475.1,2934.46 c 0,-503.56 -408.3,-911.79 -911.8,-911.79 -503.6,0 -911.8,408.23 -911.8,911.79 0,503.58 408.2,911.8 911.8,911.8 503.5,0 911.8,-408.22 911.8,-911.8"
         transform="translate(0,-2.5e-4)"
         id="path1419" />
    </clipPath>
    <clipPath
       clipPathUnits="userSpaceOnUse"
       id="clipPath1420">
      <path
         d="m 23992.1,2342.6 c -85.1,56.99 -187.9,79.81 -288.3,99.98 -6.1,1.22 -12.5,2.56 -17.4,6.41 -8.5,6.58 10.7,228.35 0,325.3 l -143.3,-13.41 -143.4,13.41 c -10.7,-96.95 8.5,-318.72 0,-325.3 -4.9,-3.85 -11.3,-5.19 -17.4,-6.41 -100.4,-20.17 -203.2,-42.99 -288.3,-99.98 -85.1,-56.98 -149.5,-156.37 -135.9,-257.86 85.4,0.44 324,-1.1 565.5,-4.28 v -0.52 c 6.5,0.09 13,0.18 19.5,0.26 6.4,-0.08 12.9,-0.17 19.4,-0.26 v 0.52 c 241.6,3.18 480,4.72 565.5,4.28 13.6,101.49 -50.8,200.88 -135.9,257.86"
         transform="translate(0,-2.5e-4)"
         id="path1420" />
    </clipPath>
    <clipPath
       clipPathUnits="userSpaceOnUse"
       id="clipPath1423">
      <path
         d="m 24475.1,2934.46 c 0,-503.56 -408.3,-911.79 -911.8,-911.79 -503.6,0 -911.8,408.23 -911.8,911.79 0,503.58 408.2,911.8 911.8,911.8 503.5,0 911.8,-408.22 911.8,-911.8"
         transform="translate(0,-2.5e-4)"
         id="path1423" />
    </clipPath>
    <clipPath
       clipPathUnits="userSpaceOnUse"
       id="clipPath1425">
      <path
         d="m 24475.1,2934.46 c 0,-503.56 -408.3,-911.79 -911.8,-911.79 -503.6,0 -911.8,408.23 -911.8,911.79 0,503.58 408.2,911.8 911.8,911.8 503.5,0 911.8,-408.22 911.8,-911.8"
         transform="translate(0,-2.5e-4)"
         id="path1425" />
    </clipPath>
    <clipPath
       clipPathUnits="userSpaceOnUse"
       id="clipPath1427">
      <path
         d="m 24475.1,2934.46 c 0,-503.56 -408.3,-911.79 -911.8,-911.79 -503.6,0 -911.8,408.23 -911.8,911.79 0,503.58 408.2,911.8 911.8,911.8 503.5,0 911.8,-408.22 911.8,-911.8"
         transform="translate(0,-2.5e-4)"
         id="path1427" />
    </clipPath>
    <clipPath
       clipPathUnits="userSpaceOnUse"
       id="clipPath1429">
      <path
         d="m 24475.1,2934.46 c 0,-503.56 -408.3,-911.79 -911.8,-911.79 -503.6,0 -911.8,408.23 -911.8,911.79 0,503.58 408.2,911.8 911.8,911.8 503.5,0 911.8,-408.22 911.8,-911.8"
         transform="translate(0,-2.5e-4)"
         id="path1429" />
    </clipPath>
    <clipPath
       clipPathUnits="userSpaceOnUse"
       id="clipPath1431">
      <path
         d="m 24475.1,2934.46 c 0,-503.56 -408.3,-911.79 -911.8,-911.79 -503.6,0 -911.8,408.23 -911.8,911.79 0,503.58 408.2,911.8 911.8,911.8 503.5,0 911.8,-408.22 911.8,-911.8"
         transform="translate(0,-2.5e-4)"
         id="path1431" />
    </clipPath>
    <clipPath
       clipPathUnits="userSpaceOnUse"
       id="clipPath1433">
      <path
         d="m 24475.1,2934.46 c 0,-503.56 -408.3,-911.79 -911.8,-911.79 -503.6,0 -911.8,408.23 -911.8,911.79 0,503.58 408.2,911.8 911.8,911.8 503.5,0 911.8,-408.22 911.8,-911.8"
         transform="translate(0,-2.5e-4)"
         id="path1433" />
    </clipPath>
    <clipPath
       clipPathUnits="userSpaceOnUse"
       id="clipPath1434">
      <path
         d="m 23271.4,3231.64 c 18.3,103.79 138.5,231.43 282.7,231.43 208.3,0 282.7,-157.36 280.2,-227.59 l -562.9,-3.84"
         transform="translate(0,-2.5e-4)"
         id="path1434" />
    </clipPath>
    <clipPath
       clipPathUnits="userSpaceOnUse"
       id="clipPath1435">
      <path
         d="m 23271.4,3231.64 c 18.3,103.79 138.5,231.43 282.7,231.43 208.3,0 282.7,-157.36 280.2,-227.59 l -562.9,-3.84"
         transform="translate(0,-2.5e-4)"
         id="path1435" />
    </clipPath>
    <clipPath
       clipPathUnits="userSpaceOnUse"
       id="clipPath1436">
      <path
         d="m 23271.4,3231.64 c 18.3,103.79 138.5,231.43 282.7,231.43 208.3,0 282.7,-157.36 280.2,-227.59 l -562.9,-3.84"
         transform="translate(0,-2.5e-4)"
         id="path1436" />
    </clipPath>
    <clipPath
       clipPathUnits="userSpaceOnUse"
       id="clipPath1437">
      <path
         d="m 23271.4,3231.64 c 18.3,103.79 138.5,231.43 282.7,231.43 208.3,0 282.7,-157.36 280.2,-227.59 l -562.9,-3.84"
         transform="translate(0,-2.5e-4)"
         id="path1437" />
    </clipPath>
    <clipPath
       clipPathUnits="userSpaceOnUse"
       id="clipPath1438">
      <path
         d="m 23271.4,3231.64 c 18.3,103.79 138.5,231.43 282.7,231.43 208.3,0 282.7,-157.36 280.2,-227.59 l -562.9,-3.84"
         transform="translate(0,-2.5e-4)"
         id="path1438" />
    </clipPath>
    <clipPath
       clipPathUnits="userSpaceOnUse"
       id="clipPath1439">
      <path
         d="m 23271.4,3231.64 c 18.3,103.79 138.5,231.43 282.7,231.43 208.3,0 282.7,-157.36 280.2,-227.59 l -562.9,-3.84"
         transform="translate(0,-2.5e-4)"
         id="path1439" />
    </clipPath>
    <clipPath
       clipPathUnits="userSpaceOnUse"
       id="clipPath1447">
      <path
         d="m 24475.1,2934.46 c 0,-503.56 -408.3,-911.79 -911.8,-911.79 -503.6,0 -911.8,408.23 -911.8,911.79 0,503.58 408.2,911.8 911.8,911.8 503.5,0 911.8,-408.22 911.8,-911.8"
         transform="translate(0,-2.5e-4)"
         id="path1447" />
    </clipPath>
    <clipPath
       clipPathUnits="userSpaceOnUse"
       id="clipPath1449">
      <path
         d="m 24475.1,2934.46 c 0,-503.56 -408.3,-911.79 -911.8,-911.79 -503.6,0 -911.8,408.23 -911.8,911.79 0,503.58 408.2,911.8 911.8,911.8 503.5,0 911.8,-408.22 911.8,-911.8"
         transform="translate(0,-2.5e-4)"
         id="path1449" />
    </clipPath>
    <clipPath
       clipPathUnits="userSpaceOnUse"
       id="clipPath1451">
      <path
         d="m 24475.1,2934.46 c 0,-503.56 -408.3,-911.79 -911.8,-911.79 -503.6,0 -911.8,408.23 -911.8,911.79 0,503.58 408.2,911.8 911.8,911.8 503.5,0 911.8,-408.22 911.8,-911.8"
         transform="translate(0,-2.5e-4)"
         id="path1451" />
    </clipPath>
    <clipPath
       clipPathUnits="userSpaceOnUse"
       id="clipPath1453">
      <path
         d="m 24475.1,2934.46 c 0,-503.56 -408.3,-911.79 -911.8,-911.79 -503.6,0 -911.8,408.23 -911.8,911.79 0,503.58 408.2,911.8 911.8,911.8 503.5,0 911.8,-408.22 911.8,-911.8"
         transform="translate(0,-2.5e-4)"
         id="path1453" />
    </clipPath>
    <clipPath
       clipPathUnits="userSpaceOnUse"
       id="clipPath1455">
      <path
         d="m 24475.1,2934.46 c 0,-503.56 -408.3,-911.79 -911.8,-911.79 -503.6,0 -911.8,408.23 -911.8,911.79 0,503.58 408.2,911.8 911.8,911.8 503.5,0 911.8,-408.22 911.8,-911.8"
         transform="translate(0,-2.5e-4)"
         id="path1455" />
    </clipPath>
    <clipPath
       clipPathUnits="userSpaceOnUse"
       id="clipPath1457">
      <path
         d="m 24475.1,2934.46 c 0,-503.56 -408.3,-911.79 -911.8,-911.79 -503.6,0 -911.8,408.23 -911.8,911.79 0,503.58 408.2,911.8 911.8,911.8 503.5,0 911.8,-408.22 911.8,-911.8"
         transform="translate(0,-2.5e-4)"
         id="path1457" />
    </clipPath>
    <clipPath
       clipPathUnits="userSpaceOnUse"
       id="clipPath1459">
      <path
         d="m 24475.1,2934.46 c 0,-503.56 -408.3,-911.79 -911.8,-911.79 -503.6,0 -911.8,408.23 -911.8,911.79 0,503.58 408.2,911.8 911.8,911.8 503.5,0 911.8,-408.22 911.8,-911.8"
         transform="translate(0,-2.5e-4)"
         id="path1459" />
    </clipPath>
    <clipPath
       clipPathUnits="userSpaceOnUse"
       id="clipPath1461">
      <path
         d="m 24475.1,2934.46 c 0,-503.56 -408.3,-911.79 -911.8,-911.79 -503.6,0 -911.8,408.23 -911.8,911.79 0,503.58 408.2,911.8 911.8,911.8 503.5,0 911.8,-408.22 911.8,-911.8"
         transform="translate(0,-2.5e-4)"
         id="path1461" />
    </clipPath>
    <clipPath
       clipPathUnits="userSpaceOnUse"
       id="clipPath1463">
      <path
         d="m 24475.1,2934.46 c 0,-503.56 -408.3,-911.79 -911.8,-911.79 -503.6,0 -911.8,408.23 -911.8,911.79 0,503.58 408.2,911.8 911.8,911.8 503.5,0 911.8,-408.22 911.8,-911.8"
         transform="translate(0,-2.5e-4)"
         id="path1463" />
    </clipPath>
    <clipPath
       clipPathUnits="userSpaceOnUse"
       id="clipPath1465">
      <path
         d="m 24475.1,2934.46 c 0,-503.56 -408.3,-911.79 -911.8,-911.79 -503.6,0 -911.8,408.23 -911.8,911.79 0,503.58 408.2,911.8 911.8,911.8 503.5,0 911.8,-408.22 911.8,-911.8"
         transform="translate(0,-2.5e-4)"
         id="path1465" />
    </clipPath>
    <clipPath
       clipPathUnits="userSpaceOnUse"
       id="clipPath1467">
      <path
         d="m 24475.1,2934.46 c 0,-503.56 -408.3,-911.79 -911.8,-911.79 -503.6,0 -911.8,408.23 -911.8,911.79 0,503.58 408.2,911.8 911.8,911.8 503.5,0 911.8,-408.22 911.8,-911.8"
         transform="translate(0,-2.5e-4)"
         id="path1467" />
    </clipPath>
    <clipPath
       clipPathUnits="userSpaceOnUse"
       id="clipPath1469">
      <path
         d="m 24475.1,2934.46 c 0,-503.56 -408.3,-911.79 -911.8,-911.79 -503.6,0 -911.8,408.23 -911.8,911.79 0,503.58 408.2,911.8 911.8,911.8 503.5,0 911.8,-408.22 911.8,-911.8"
         transform="translate(0,-2.5e-4)"
         id="path1469" />
    </clipPath>
    <clipPath
       clipPathUnits="userSpaceOnUse"
       id="clipPath1471">
      <path
         d="m 24475.1,2934.46 c 0,-503.56 -408.3,-911.79 -911.8,-911.79 -503.6,0 -911.8,408.23 -911.8,911.79 0,503.58 408.2,911.8 911.8,911.8 503.5,0 911.8,-408.22 911.8,-911.8"
         transform="translate(0,-2.5e-4)"
         id="path1471" />
    </clipPath>
    <clipPath
       clipPathUnits="userSpaceOnUse"
       id="clipPath1472">
      <path
         d="m 23823.3,2429.01 c -66.7,-91.3 -164.6,-126.12 -278.1,-122.25 v 0.73 c -2.6,-0.15 -5.1,-0.29 -7.7,-0.42 -2.5,0.13 -5.1,0.27 -7.6,0.42 v -0.73 c -113.6,-3.87 -206.3,30.95 -273,122.25 0,0 -347.3,-66.8 -311.4,-346.96 0.3,-1.91 458.7,-208.21 458.7,-208.21 -7.4,-253.17 725.1,206.29 725.3,208.21 23.5,275.03 -306.2,346.96 -306.2,346.96"
         transform="translate(0,-2.5e-4)"
         id="path1472" />
    </clipPath>
    <clipPath
       clipPathUnits="userSpaceOnUse"
       id="clipPath1473">
      <path
         d="m 23823.3,2429.01 c -66.7,-91.3 -164.6,-126.12 -278.1,-122.25 v 0.73 c -2.6,-0.15 -5.1,-0.29 -7.7,-0.42 -2.5,0.13 -5.1,0.27 -7.6,0.42 v -0.73 c -113.6,-3.87 -206.3,30.95 -273,122.25 0,0 -347.3,-66.8 -311.4,-346.96 0.3,-1.91 458.7,-208.21 458.7,-208.21 -7.4,-253.17 725.1,206.29 725.3,208.21 23.5,275.03 -306.2,346.96 -306.2,346.96"
         transform="translate(0,-2.5e-4)"
         id="path1473" />
    </clipPath>
    <clipPath
       clipPathUnits="userSpaceOnUse"
       id="clipPath1474">
      <path
         d="m 23823.3,2429.01 c -66.7,-91.3 -164.6,-126.12 -278.1,-122.25 v 0.73 c -2.6,-0.15 -5.1,-0.29 -7.7,-0.42 -2.5,0.13 -5.1,0.27 -7.6,0.42 v -0.73 c -113.6,-3.87 -206.3,30.95 -273,122.25 0,0 -347.3,-66.8 -311.4,-346.96 0.3,-1.91 458.7,-208.21 458.7,-208.21 -7.4,-253.17 725.1,206.29 725.3,208.21 23.5,275.03 -306.2,346.96 -306.2,346.96"
         transform="translate(0,-2.5e-4)"
         id="path1474" />
    </clipPath>
    <clipPath
       clipPathUnits="userSpaceOnUse"
       id="clipPath1475">
      <path
         d="m 23823.3,2429.01 c -66.7,-91.3 -164.6,-126.12 -278.1,-122.25 v 0.73 c -2.6,-0.15 -5.1,-0.29 -7.7,-0.42 -2.5,0.13 -5.1,0.27 -7.6,0.42 v -0.73 c -113.6,-3.87 -206.3,30.95 -273,122.25 0,0 -347.3,-66.8 -311.4,-346.96 0.3,-1.91 458.7,-208.21 458.7,-208.21 -7.4,-253.17 725.1,206.29 725.3,208.21 23.5,275.03 -306.2,346.96 -306.2,346.96"
         transform="translate(0,-2.5e-4)"
         id="path1475" />
    </clipPath>
    <clipPath
       clipPathUnits="userSpaceOnUse"
       id="clipPath1476">
      <path
         d="m 23823.3,2429.01 c -66.7,-91.3 -164.6,-126.12 -278.1,-122.25 v 0.73 c -2.6,-0.15 -5.1,-0.29 -7.7,-0.42 -2.5,0.13 -5.1,0.27 -7.6,0.42 v -0.73 c -113.6,-3.87 -206.3,30.95 -273,122.25 0,0 -347.3,-66.8 -311.4,-346.96 0.3,-1.91 458.7,-208.21 458.7,-208.21 -7.4,-253.17 725.1,206.29 725.3,208.21 23.5,275.03 -306.2,346.96 -306.2,346.96"
         transform="translate(0,-2.5e-4)"
         id="path1476" />
    </clipPath>
    <clipPath
       clipPathUnits="userSpaceOnUse"
       id="clipPath1477">
      <path
         d="m 23823.3,2429.01 c -66.7,-91.3 -164.6,-126.12 -278.1,-122.25 v 0.73 c -2.6,-0.15 -5.1,-0.29 -7.7,-0.42 -2.5,0.13 -5.1,0.27 -7.6,0.42 v -0.73 c -113.6,-3.87 -206.3,30.95 -273,122.25 0,0 -347.3,-66.8 -311.4,-346.96 0.3,-1.91 458.7,-208.21 458.7,-208.21 -7.4,-253.17 725.1,206.29 725.3,208.21 23.5,275.03 -306.2,346.96 -306.2,346.96"
         transform="translate(0,-2.5e-4)"
         id="path1477" />
    </clipPath>
    <clipPath
       clipPathUnits="userSpaceOnUse"
       id="clipPath1478">
      <path
         d="m 23823.3,2429.01 c -66.7,-91.3 -164.6,-126.12 -278.1,-122.25 v 0.73 c -2.6,-0.15 -5.1,-0.29 -7.7,-0.42 -2.5,0.13 -5.1,0.27 -7.6,0.42 v -0.73 c -113.6,-3.87 -206.3,30.95 -273,122.25 0,0 -347.3,-66.8 -311.4,-346.96 0.3,-1.91 458.7,-208.21 458.7,-208.21 -7.4,-253.17 725.1,206.29 725.3,208.21 23.5,275.03 -306.2,346.96 -306.2,346.96"
         transform="translate(0,-2.5e-4)"
         id="path1478" />
    </clipPath>
    <clipPath
       clipPathUnits="userSpaceOnUse"
       id="clipPath1479">
      <path
         d="m 23823.3,2429.01 c -66.7,-91.3 -164.6,-126.12 -278.1,-122.25 v 0.73 c -2.6,-0.15 -5.1,-0.29 -7.7,-0.42 -2.5,0.13 -5.1,0.27 -7.6,0.42 v -0.73 c -113.6,-3.87 -206.3,30.95 -273,122.25 0,0 -347.3,-66.8 -311.4,-346.96 0.3,-1.91 458.7,-208.21 458.7,-208.21 -7.4,-253.17 725.1,206.29 725.3,208.21 23.5,275.03 -306.2,346.96 -306.2,346.96"
         transform="translate(0,-2.5e-4)"
         id="path1479" />
    </clipPath>
    <clipPath
       clipPathUnits="userSpaceOnUse"
       id="clipPath1480">
      <path
         d="m 23823.3,2429.01 c -66.7,-91.3 -164.6,-126.12 -278.1,-122.25 v 0.73 c -2.6,-0.15 -5.1,-0.29 -7.7,-0.42 -2.5,0.13 -5.1,0.27 -7.6,0.42 v -0.73 c -113.6,-3.87 -206.3,30.95 -273,122.25 0,0 -347.3,-66.8 -311.4,-346.96 0.3,-1.91 458.7,-208.21 458.7,-208.21 -7.4,-253.17 725.1,206.29 725.3,208.21 23.5,275.03 -306.2,346.96 -306.2,346.96"
         transform="translate(0,-2.5e-4)"
         id="path1480" />
    </clipPath>
    <clipPath
       clipPathUnits="userSpaceOnUse"
       id="clipPath1481">
      <path
         d="m 23823.3,2429.01 c -66.7,-91.3 -164.6,-126.12 -278.1,-122.25 v 0.73 c -2.6,-0.15 -5.1,-0.29 -7.7,-0.42 -2.5,0.13 -5.1,0.27 -7.6,0.42 v -0.73 c -113.6,-3.87 -206.3,30.95 -273,122.25 0,0 -347.3,-66.8 -311.4,-346.96 0.3,-1.91 458.7,-208.21 458.7,-208.21 -7.4,-253.17 725.1,206.29 725.3,208.21 23.5,275.03 -306.2,346.96 -306.2,346.96"
         transform="translate(0,-2.5e-4)"
         id="path1481" />
    </clipPath>
    <clipPath
       clipPathUnits="userSpaceOnUse"
       id="clipPath1482">
      <path
         d="m 23823.3,2429.01 c -66.7,-91.3 -164.6,-126.12 -278.1,-122.25 v 0.73 c -2.6,-0.15 -5.1,-0.29 -7.7,-0.42 -2.5,0.13 -5.1,0.27 -7.6,0.42 v -0.73 c -113.6,-3.87 -206.3,30.95 -273,122.25 0,0 -347.3,-66.8 -311.4,-346.96 0.3,-1.91 458.7,-208.21 458.7,-208.21 -7.4,-253.17 725.1,206.29 725.3,208.21 23.5,275.03 -306.2,346.96 -306.2,346.96"
         transform="translate(0,-2.5e-4)"
         id="path1482" />
    </clipPath>
    <clipPath
       clipPathUnits="userSpaceOnUse"
       id="clipPath1483">
      <path
         d="m 23823.3,2429.01 c -66.7,-91.3 -164.6,-126.12 -278.1,-122.25 v 0.73 c -2.6,-0.15 -5.1,-0.29 -7.7,-0.42 -2.5,0.13 -5.1,0.27 -7.6,0.42 v -0.73 c -113.6,-3.87 -206.3,30.95 -273,122.25 0,0 -347.3,-66.8 -311.4,-346.96 0.3,-1.91 458.7,-208.21 458.7,-208.21 -7.4,-253.17 725.1,206.29 725.3,208.21 23.5,275.03 -306.2,346.96 -306.2,346.96"
         transform="translate(0,-2.5e-4)"
         id="path1483" />
    </clipPath>
    <clipPath
       clipPathUnits="userSpaceOnUse"
       id="clipPath1497">
      <path
         d="m 24475.1,2934.46 c 0,-503.56 -408.3,-911.79 -911.8,-911.79 -503.6,0 -911.8,408.23 -911.8,911.79 0,503.58 408.2,911.8 911.8,911.8 503.5,0 911.8,-408.22 911.8,-911.8"
         transform="translate(0,-2.5e-4)"
         id="path1497" />
    </clipPath>
    <clipPath
       clipPathUnits="userSpaceOnUse"
       id="clipPath1499">
      <path
         d="m 24475.1,2934.46 c 0,-503.56 -408.3,-911.79 -911.8,-911.79 -503.6,0 -911.8,408.23 -911.8,911.79 0,503.58 408.2,911.8 911.8,911.8 503.5,0 911.8,-408.22 911.8,-911.8"
         transform="translate(0,-2.5e-4)"
         id="path1499" />
    </clipPath>
  </defs>
  <g
     inkscape:label="Layer 1"
     inkscape:groupmode="layer"
     id="layer1"
     transform="translate(-72.231324,-103.71665)">
    <path
       id="path1414"
       d="m 24475.1,2022.67 h -1823.6 v 1823.59 h 1823.6 V 2022.67"
       style="fill:#a59eff;fill-opacity:1;fill-rule:nonzero;stroke:none"
       transform="matrix(0.03527778,0,0,-0.03527778,-726.86331,239.40416)"
       clip-path="url(#clipPath1415)" />
    <path
       id="path1416"
       d="m 23289.2,2816.64 c 16.9,-67.78 60.8,-126.82 115.1,-170.75 19.3,-15.58 40.1,-29.55 62.9,-39.16 69.9,-29.42 154.3,-13.62 215.4,31.36 61.1,44.97 100.1,115.78 116.3,189.9 0.8,3.38 1.4,7.26 -0.8,9.97 -2.2,2.8 -6.3,3.05 -9.8,3.06 -129.9,0.45 -259.7,0.91 -389.6,1.36 l -109.5,-25.74"
       style="fill:#241e21;fill-opacity:1;fill-rule:nonzero;stroke:none"
       transform="matrix(0.03527778,0,0,-0.03527778,-726.86331,239.40416)"
       clip-path="url(#clipPath1417)" />
    <path
       id="path1418"
       d="m 23992.1,2342.6 c -85.1,56.99 -187.9,79.81 -288.3,99.97 -6.1,1.23 -12.5,2.57 -17.4,6.42 -8.5,6.58 10.7,228.34 0,325.3 l -143.3,-13.42 -143.4,13.42 c -10.7,-96.96 8.5,-318.72 0,-325.3 -4.9,-3.85 -11.3,-5.19 -17.4,-6.42 -100.4,-20.16 -203.2,-42.98 -288.3,-99.97 -85.1,-56.98 -149.5,-156.36 -135.9,-257.86 85.5,0.44 324,-1.1 565.5,-4.28 v -0.52 c 6.5,0.08 13,0.17 19.5,0.26 6.4,-0.09 12.9,-0.18 19.4,-0.26 v 0.52 c 241.6,3.18 480.1,4.72 565.5,4.28 13.6,101.5 -50.8,200.88 -135.9,257.86"
       style="fill:#fbd1b9;fill-opacity:1;fill-rule:nonzero;stroke:none"
       transform="matrix(0.03527778,0,0,-0.03527778,-726.86331,239.40416)"
       clip-path="url(#clipPath1419)" />
    <g
       id="g1421"
       transform="matrix(0.26458333,0,0,0.26458333,-726.86331,-119.10977)">
      <path
         d="m 23209,2777.42 c 56.5,36.4 58.9,53.87 61.6,36.4 13.4,-85.82 149,-292.56 272.4,-292.56 159.6,0 252.2,269.43 267.2,337.34 -184.5,-26.37 -371.4,-52.78 -556.4,-30.59 5.1,-4.79 10.2,-9.59 15.2,-14.38 l -60,-36.21"
         style="fill:#dba78a;fill-opacity:1;fill-rule:nonzero;stroke:none"
         transform="matrix(0.13333333,0,0,-0.13333333,0,1355.0133)"
         clip-path="url(#clipPath1420)"
         id="path1421" />
    </g>
    <path
       id="path1422"
       d="m 23330.4,3247.81 c -32.9,-111.27 -24.8,-306.25 0,-419.61 l 0.4,-1.83 c 13.5,-60.84 35,-121.61 75.5,-168.97 40.5,-47.36 102.8,-79.39 164.6,-70.99 59.7,8.13 109.8,52.49 138.9,105.25 29.2,52.76 40.4,113.37 48.5,173.09 14.2,103.98 10.5,380.15 0.5,381 -128.6,10.89 -303.2,37.23 -428.4,5.67 v -3.61"
       style="fill:#fbd1b9;fill-opacity:1;fill-rule:nonzero;stroke:none"
       transform="matrix(0.03527778,0,0,-0.03527778,-726.86331,239.40416)"
       clip-path="url(#clipPath1423)" />
    <path
       id="path1424"
       d="m 23753.2,2907.82 c 3.1,22.9 30.7,37.22 52.8,30.5 22.1,-6.71 36.7,-29.68 38.4,-52.74 1.6,-23.06 -7.7,-45.74 -20.9,-64.7 -22.1,-31.62 -60.9,-56.17 -98.2,-46.39 5.9,47.42 14.4,94.51 25.5,141 l 2.4,-7.67"
       style="fill:#fbd1b9;fill-opacity:1;fill-rule:nonzero;stroke:none"
       transform="matrix(0.03527778,0,0,-0.03527778,-726.86331,239.40416)"
       clip-path="url(#clipPath1425)" />
    <path
       id="path1426"
       d="m 23333.8,2907.82 c -3.1,22.9 -30.7,37.22 -52.8,30.5 -22.1,-6.71 -36.7,-29.68 -38.4,-52.74 -1.6,-23.06 7.7,-45.74 20.9,-64.7 22.1,-31.62 60.9,-56.17 98.2,-46.39 -5.9,47.42 -14.4,94.51 -25.5,141 l -2.4,-7.67"
       style="fill:#fbd1b9;fill-opacity:1;fill-rule:nonzero;stroke:none"
       transform="matrix(0.03527778,0,0,-0.03527778,-726.86331,239.40416)"
       clip-path="url(#clipPath1427)" />
    <path
       id="path1428"
       d="m 23302.5,2956.35 c -6.1,-12.03 13.2,-23.83 24.9,-17.22 11.8,6.61 15.6,21.42 18.1,34.66 18.2,94.24 27.8,190.14 28.6,286.12 l 86.5,-101.2 c 7.2,-8.42 17.2,-14.3 28.2,-15.41 21.2,-2.12 29.7,14.03 34.6,29.21 8.6,26.45 10.7,54.97 6,82.38 12.5,-13.59 24.9,-27.17 37.3,-40.75 21.5,-23.43 44.9,-48.05 75.9,-55 30.9,-6.96 69.8,13.77 68.8,45.5 l 50.7,-257.15 c 2.5,-12.65 14,-22.02 26.9,-20.68 l 0.4,0.05 c 12.8,1.14 23.2,10.89 24.1,23.67 6.7,92.84 9.3,185.97 7.7,279.03 -0.3,14.78 -0.9,30.47 -9.2,42.73 -8.8,13.11 -24.5,19.56 -39.4,24.76 -142.6,49.65 -301.8,49.75 -444.4,0.28 -8.1,-2.81 -16.4,-5.87 -22.9,-11.4 -15.8,-13.3 -17.7,-36.48 -18.4,-57.1 -2.9,-87 -5.9,-174 -8.8,-261 -0.4,-10.36 -0.5,-21.55 5.5,-30.04 5.9,-8.49 20.4,-11.41 26.2,-2.83 l -7.3,21.39"
       style="fill:#241e21;fill-opacity:1;fill-rule:nonzero;stroke:none"
       transform="matrix(0.03527778,0,0,-0.03527778,-726.86331,239.40416)"
       clip-path="url(#clipPath1429)" />
    <path
       id="path1430"
       d="m 23513,3438.52 c 1.6,29.16 24.3,54.63 49.5,55.54 25.1,0.92 49.2,-22.87 52.4,-51.85 -32.4,2.63 -65.1,0.77 -97.2,-5.52 l -4.7,1.83"
       style="fill:#724328;fill-opacity:1;fill-rule:nonzero;stroke:none"
       transform="matrix(0.03527778,0,0,-0.03527778,-726.86331,239.40416)"
       clip-path="url(#clipPath1431)" />
    <path
       id="path1432"
       d="m 23271.4,3231.64 c 18.3,103.8 138.5,231.43 282.7,231.43 208.3,0 282.7,-157.36 280.2,-227.6 l -562.9,-3.83"
       style="fill:#a8734f;fill-opacity:1;fill-rule:nonzero;stroke:none"
       transform="matrix(0.03527778,0,0,-0.03527778,-726.86331,239.40416)"
       clip-path="url(#clipPath1433)" />
    <g
       id="g1445"
       transform="matrix(0.26458333,0,0,0.26458333,-726.86331,-119.10977)">
      <path
         d="m 23314.1,3217.88 c 18.5,89.48 60,178.46 138.3,230.49 20.6,13.71 43,24.26 66.8,30.94 4.8,1.34 2.8,8.77 -2,7.43 -90.2,-25.28 -154,-101.43 -187,-186.13 -10.3,-26.14 -17.8,-53.22 -23.5,-80.68 -1,-4.84 6.4,-6.91 7.4,-2.05"
         style="fill:#724328;fill-opacity:1;fill-rule:nonzero;stroke:none"
         transform="matrix(0.13333333,0,0,-0.13333333,0,1355.0133)"
         clip-path="url(#clipPath1434)"
         id="path1440" />
      <path
         d="m 23511.3,3479.76 c -31,-21.51 -51.5,-54.09 -66.8,-87.99 -16.7,-36.92 -27,-76.5 -30.8,-116.83 -2.2,-23.63 -2,-47.41 0.4,-71.02 0.5,-4.89 8.2,-4.94 7.7,0 -7.9,76.63 8.4,158.74 50.8,223.79 11.4,17.53 25.4,33.42 42.6,45.4 4.1,2.81 0.2,9.49 -3.9,6.65"
         style="fill:#724328;fill-opacity:1;fill-rule:nonzero;stroke:none"
         transform="matrix(0.13333333,0,0,-0.13333333,0,1355.0133)"
         clip-path="url(#clipPath1435)"
         id="path1441" />
      <path
         d="m 23539.6,3493.99 c -27.8,-16.59 -28.6,-55.77 -31.1,-84.28 -3.7,-41.91 -4.1,-84.11 -1.2,-126.08 1.7,-23.2 4.3,-46.32 7.9,-69.3 0.8,-4.88 8.2,-2.81 7.5,2.05 -7.8,49.48 -10.8,99.63 -9.2,149.68 0.8,24.3 2.4,48.79 5.8,72.88 2.6,18 7.5,38.41 24.2,48.39 4.3,2.54 0.4,9.21 -3.9,6.66"
         style="fill:#724328;fill-opacity:1;fill-rule:nonzero;stroke:none"
         transform="matrix(0.13333333,0,0,-0.13333333,0,1355.0133)"
         clip-path="url(#clipPath1436)"
         id="path1442" />
      <path
         d="m 23524.3,3485.61 c 48,-54.27 67.7,-125.85 80.1,-195.65 3.6,-20.09 6.6,-40.28 9.5,-60.47 0.7,-4.89 8.1,-2.81 7.4,2.05 -10.3,71.51 -21.6,145.55 -56.7,209.79 -9.8,17.82 -21.4,34.51 -34.9,49.73 -3.3,3.72 -8.7,-1.74 -5.4,-5.45"
         style="fill:#724328;fill-opacity:1;fill-rule:nonzero;stroke:none"
         transform="matrix(0.13333333,0,0,-0.13333333,0,1355.0133)"
         clip-path="url(#clipPath1437)"
         id="path1443" />
      <path
         d="m 23549.2,3479.39 c 75.9,-34.63 136,-100.85 164.4,-179.21 8.1,-22.29 13.7,-45.48 16.3,-69.04 0.6,-4.88 8.3,-4.93 7.8,0 -9.7,85.3 -55.4,164.9 -123.1,217.54 -19,14.8 -39.6,27.36 -61.6,37.36 -4.4,2.05 -8.4,-4.6 -3.8,-6.65"
         style="fill:#724328;fill-opacity:1;fill-rule:nonzero;stroke:none"
         transform="matrix(0.13333333,0,0,-0.13333333,0,1355.0133)"
         clip-path="url(#clipPath1438)"
         id="path1444" />
      <path
         d="m 23553,3481.43 c 26.1,3.07 50.6,-6.74 73.1,-19.3 21.3,-11.93 41.9,-25.49 61.9,-39.53 19.6,-13.76 38.3,-28.92 54.3,-46.78 16.7,-18.7 29.4,-40.41 38.7,-63.65 10.6,-26.45 17.5,-54.2 24.2,-81.82 1.2,-4.81 8.6,-2.77 7.5,2.05 -12.3,49.92 -25.5,100.99 -58.7,141.59 -31.6,38.65 -76.4,67.08 -119.1,91.96 -24.8,14.47 -52.5,26.63 -81.9,23.19 -4.9,-0.57 -5,-8.29 0,-7.71"
         style="fill:#724328;fill-opacity:1;fill-rule:nonzero;stroke:none"
         transform="matrix(0.13333333,0,0,-0.13333333,0,1355.0133)"
         clip-path="url(#clipPath1439)"
         id="path1445" />
    </g>
    <path
       id="path1446"
       d="m 23269.9,3239.46 c -4.6,-1.93 -7.8,-6.97 -9.8,-13.62 -7.7,-25.55 9,-51.57 29.1,-46.97 174,39.68 352.5,34.2 522.7,-16.05 15.2,-4.5 30.5,9.44 33.2,30.3 l 2.1,15.89 c 2.4,17.96 -5.4,35.09 -18.3,40.05 -70.9,27.29 -301.3,98.36 -559,-9.6"
       style="fill:#724328;fill-opacity:1;fill-rule:nonzero;stroke:none"
       transform="matrix(0.03527778,0,0,-0.03527778,-726.86331,239.40416)"
       clip-path="url(#clipPath1447)" />
    <path
       id="path1448"
       d="m 23450.1,2960.54 c 0,-14.48 -11.5,-26.21 -25.6,-26.21 -14.2,0 -25.7,11.73 -25.7,26.21 0,14.48 11.5,26.22 25.7,26.22 14.1,0 25.6,-11.74 25.6,-26.22"
       style="fill:#1a1a1a;fill-opacity:1;fill-rule:nonzero;stroke:none"
       transform="matrix(0.03527778,0,0,-0.03527778,-726.86331,239.40416)"
       clip-path="url(#clipPath1449)" />
    <path
       id="path1450"
       d="m 23711.6,2960.54 c 0,-14.48 -11.5,-26.21 -25.6,-26.21 -14.2,0 -25.7,11.73 -25.7,26.21 0,14.48 11.5,26.22 25.7,26.22 14.1,0 25.6,-11.74 25.6,-26.22"
       style="fill:#1a1a1a;fill-opacity:1;fill-rule:nonzero;stroke:none"
       transform="matrix(0.03527778,0,0,-0.03527778,-726.86331,239.40416)"
       clip-path="url(#clipPath1451)" />
    <path
       id="path1452"
       d="m 23486.4,2818.18 c 28,-51.28 95.4,-74.63 143.9,-5.15 l -143.9,5.15"
       style="fill:#ffffff;fill-opacity:1;fill-rule:nonzero;stroke:none"
       transform="matrix(0.03527778,0,0,-0.03527778,-726.86331,239.40416)"
       clip-path="url(#clipPath1453)" />
    <path
       id="path1454"
       d="m 23479.8,2814.29 c 14.7,-26.5 40.2,-47.83 70.9,-51.68 36.2,-4.54 66.3,18.38 86.3,46.53 3.5,5.02 -1.3,11.4 -6.7,11.59 -42.1,1.51 -84.1,3.02 -126.2,4.53 -5.9,0.21 -11.8,0.42 -17.7,0.63 -9.9,0.35 -9.9,-15.06 0,-15.42 42.1,-1.5 84.2,-3.01 126.2,-4.52 5.9,-0.21 11.8,-0.42 17.7,-0.63 -2.2,3.86 -4.4,7.73 -6.6,11.6 -16.6,-23.41 -42.1,-43.26 -72.4,-38.97 -25.5,3.61 -46.1,22.26 -58.2,44.12 -4.9,8.68 -18.2,0.91 -13.3,-7.78"
       style="fill:#a46e4a;fill-opacity:1;fill-rule:nonzero;stroke:none"
       transform="matrix(0.03527778,0,0,-0.03527778,-726.86331,239.40416)"
       clip-path="url(#clipPath1455)" />
    <path
       id="path1456"
       d="m 23565.3,3011.64 c 20.1,-52.04 27.2,-108.02 20.6,-163.42 4.4,1.82 8.8,3.63 13.2,5.45 -10.4,11.64 -18.4,25.08 -23.6,39.77 -3.3,9.28 -18.2,5.28 -14.9,-4.1 6.2,-17.29 15.4,-32.86 27.6,-46.57 4.9,-5.53 12.4,-0.58 13.2,5.45 6.6,56.55 -0.7,114.39 -21.2,167.51 -3.5,9.16 -18.5,5.18 -14.9,-4.09"
       style="fill:#a46e4a;fill-opacity:1;fill-rule:nonzero;stroke:none"
       transform="matrix(0.03527778,0,0,-0.03527778,-726.86331,239.40416)"
       clip-path="url(#clipPath1457)" />
    <path
       id="path1458"
       d="m 23393,3027.42 c 7.7,24.02 31.9,41.42 56.8,41.69 9.9,0.1 10,15.52 0,15.41 -32.2,-0.34 -61.8,-22.43 -71.6,-53.01 -1.3,-3.96 1.4,-8.41 5.3,-9.48 4.2,-1.14 8.2,1.41 9.5,5.39"
       style="fill:#241e21;fill-opacity:1;fill-rule:nonzero;stroke:none"
       transform="matrix(0.03527778,0,0,-0.03527778,-726.86331,239.40416)"
       clip-path="url(#clipPath1459)" />
    <path
       id="path1460"
       d="m 23650.8,3071.93 c 28.7,-2.72 54.3,-21.58 66.6,-47.33 1.8,-3.75 7.2,-4.74 10.6,-2.76 3.8,2.24 4.6,6.77 2.7,10.54 -14.7,30.89 -46,51.75 -79.9,54.97 -4.1,0.39 -7.7,-3.83 -7.7,-7.71 0,-4.49 3.6,-7.31 7.7,-7.71"
       style="fill:#241e21;fill-opacity:1;fill-rule:nonzero;stroke:none"
       transform="matrix(0.03527778,0,0,-0.03527778,-726.86331,239.40416)"
       clip-path="url(#clipPath1461)" />
    <path
       id="path1462"
       d="m 23288.4,2884.47 c 4.3,-2.57 8.5,-5.38 12.5,-8.42 l 0.5,-0.34 1.4,-1.12 c 1,-0.83 2,-1.68 3,-2.55 1.9,-1.64 3.8,-3.35 5.6,-5.1 3.5,-3.43 6.8,-7.06 10,-10.87 l 1.1,-1.4 c 0,-0.06 1.4,-1.89 0.5,-0.71 0.8,-0.96 1.5,-1.92 2.2,-2.89 1.5,-2.15 3,-4.34 4.4,-6.58 2.1,-3.4 7,-5.07 10.5,-2.76 3.5,2.2 5.1,6.9 2.8,10.54 -11.7,18.61 -27.8,34.29 -46.7,45.51 -3.5,2.06 -8.6,0.9 -10.6,-2.76 -1.9,-3.72 -0.9,-8.35 2.8,-10.55"
       style="fill:#a46e4a;fill-opacity:1;fill-rule:nonzero;stroke:none"
       transform="matrix(0.03527778,0,0,-0.03527778,-726.86331,239.40416)"
       clip-path="url(#clipPath1463)" />
    <path
       id="path1464"
       d="m 23299.1,2851.95 0.7,0.89 -1.2,-1.56 c 2.2,2.83 4.8,5.35 7.6,7.56 l -1.6,-1.21 c 3,2.26 6.2,4.13 9.6,5.58 l -1.8,-0.78 c 1.8,0.76 3.7,1.39 5.6,1.89 3.9,1.03 6.7,5.55 5.4,9.49 -1.3,4.01 -5.3,6.48 -9.5,5.38 -5.3,-1.4 -10.5,-3.72 -15.1,-6.83 -5.1,-3.5 -9.3,-7.66 -13,-12.63 -1.1,-1.5 -1.2,-4.21 -0.8,-5.94 0.5,-1.79 1.9,-3.72 3.6,-4.6 1.8,-0.95 3.9,-1.42 5.9,-0.78 2,0.65 3.4,1.84 4.6,3.54"
       style="fill:#a46e4a;fill-opacity:1;fill-rule:nonzero;stroke:none"
       transform="matrix(0.03527778,0,0,-0.03527778,-726.86331,239.40416)"
       clip-path="url(#clipPath1465)" />
    <path
       id="path1466"
       d="m 23771.3,2832.36 c 2.3,3.67 4.7,7.25 7.3,10.72 l 1,1.37 c 0.5,0.7 -0.6,-0.79 0.3,0.33 l 2.1,2.66 c 1.4,1.67 2.8,3.31 4.2,4.93 5.9,6.53 12.3,12.55 19.1,18.02 3.2,2.53 2.9,8.3 0,10.9 -3.3,3.09 -7.5,2.7 -10.9,0 -14.4,-11.49 -26.7,-25.52 -36.4,-41.15 -2.2,-3.42 -0.9,-8.64 2.7,-10.54 3.8,-2 8.3,-0.9 10.6,2.76"
       style="fill:#a46e4a;fill-opacity:1;fill-rule:nonzero;stroke:none"
       transform="matrix(0.03527778,0,0,-0.03527778,-726.86331,239.40416)"
       clip-path="url(#clipPath1467)" />
    <path
       id="path1468"
       d="m 23778.6,2846.18 c 6.6,-5.24 13.2,-10.49 19.7,-15.74 1.7,-1.32 3.3,-2.25 5.5,-2.25 1.9,0 4.1,0.84 5.4,2.25 1.4,1.47 2.4,3.4 2.3,5.46 -0.1,1.9 -0.7,4.2 -2.3,5.44 -6.5,5.25 -13.1,10.5 -19.7,15.74 -1.6,1.32 -3.2,2.26 -5.4,2.26 -1.9,0 -4.2,-0.84 -5.5,-2.26 -1.3,-1.47 -2.3,-3.4 -2.2,-5.45 0.1,-1.91 0.7,-4.2 2.2,-5.45"
       style="fill:#a46e4a;fill-opacity:1;fill-rule:nonzero;stroke:none"
       transform="matrix(0.03527778,0,0,-0.03527778,-726.86331,239.40416)"
       clip-path="url(#clipPath1469)" />
    <path
       id="path1470"
       d="m 23823.3,2429.01 c -66.7,-91.3 -164.6,-126.12 -278.1,-122.25 v 0.73 c -2.6,-0.15 -5.1,-0.29 -7.7,-0.42 -2.5,0.13 -5.1,0.27 -7.6,0.42 v -0.73 c -113.6,-3.87 -206.3,30.95 -273,122.25 0,0 -347.3,-66.79 -311.4,-346.96 0.3,-1.91 526.7,-200.83 525.5,-203.07 -95.4,-177.94 134.1,-362.56 143.9,-349.41 l -30.8,195.26 c 296.4,1.99 545.2,355.3 545.4,357.22 23.6,275.03 -306.2,346.96 -306.2,346.96"
       style="fill:#f5e6df;fill-opacity:1;fill-rule:nonzero;stroke:none"
       transform="matrix(0.03527778,0,0,-0.03527778,-726.86331,239.40416)"
       clip-path="url(#clipPath1471)" />
    <g
       id="g1495"
       transform="matrix(0.26458333,0,0,0.26458333,-726.86331,-119.10977)">
      <path
         d="m 23233.8,2370.13 c 24.8,18.86 49.6,37.71 74.4,56.57 3.9,2.96 0,9.66 -3.9,6.65 -24.8,-18.85 -49.6,-37.71 -74.4,-56.56 -3.9,-2.97 0,-9.66 3.9,-6.66"
         style="fill:#724328;fill-opacity:1;fill-rule:nonzero;stroke:none"
         transform="matrix(0.13333333,0,0,-0.13333333,0,1355.0133)"
         clip-path="url(#clipPath1472)"
         id="path1484" />
      <path
         d="m 23272.3,2336.1 c 21,14.31 40.2,30.96 57.4,49.69 3.3,3.66 -2.1,9.12 -5.5,5.45 -16.7,-18.25 -35.4,-34.54 -55.8,-48.48 -4,-2.78 -0.2,-9.47 3.9,-6.66"
         style="fill:#724328;fill-opacity:1;fill-rule:nonzero;stroke:none"
         transform="matrix(0.13333333,0,0,-0.13333333,0,1355.0133)"
         clip-path="url(#clipPath1473)"
         id="path1485" />
      <path
         d="m 23323.8,2298.22 c 12.4,19.14 24.8,38.27 37.2,57.4 2.7,4.17 -3.9,8.04 -6.6,3.89 -12.4,-19.13 -24.9,-38.26 -37.3,-57.4 -2.7,-4.17 4,-8.04 6.7,-3.89"
         style="fill:#724328;fill-opacity:1;fill-rule:nonzero;stroke:none"
         transform="matrix(0.13333333,0,0,-0.13333333,0,1355.0133)"
         clip-path="url(#clipPath1474)"
         id="path1486" />
      <path
         d="m 23377.9,2271 c 12.5,24.39 24.9,48.78 37.3,73.17 2.3,4.41 -4.4,8.32 -6.6,3.89 -12.5,-24.39 -24.9,-48.78 -37.3,-73.17 -2.3,-4.41 4.4,-8.31 6.6,-3.89"
         style="fill:#724328;fill-opacity:1;fill-rule:nonzero;stroke:none"
         transform="matrix(0.13333333,0,0,-0.13333333,0,1355.0133)"
         clip-path="url(#clipPath1475)"
         id="path1487" />
      <path
         d="m 23459.5,2327.89 c -11.8,-21.77 -18.7,-45.71 -20.6,-70.37 -0.3,-4.95 7.4,-4.93 7.7,0 1.8,23.26 8.5,45.95 19.5,66.48 2.4,4.37 -4.3,8.26 -6.6,3.89"
         style="fill:#724328;fill-opacity:1;fill-rule:nonzero;stroke:none"
         transform="matrix(0.13333333,0,0,-0.13333333,0,1355.0133)"
         clip-path="url(#clipPath1476)"
         id="path1488" />
      <path
         d="m 23510.1,2316.74 c -4.7,-19.74 -3.6,-40.54 3.3,-59.64 1.7,-4.63 9.1,-2.63 7.4,2.05 -6.4,17.83 -7.6,37.08 -3.3,55.54 1.2,4.83 -6.3,6.88 -7.4,2.05"
         style="fill:#724328;fill-opacity:1;fill-rule:nonzero;stroke:none"
         transform="matrix(0.13333333,0,0,-0.13333333,0,1355.0133)"
         clip-path="url(#clipPath1477)"
         id="path1489" />
      <path
         d="m 23570.4,2325.07 c 6.6,-18.34 9.8,-37.55 9.7,-57.01 -0.1,-4.96 7.7,-4.97 7.7,0 0.2,20.09 -3.2,40.13 -9.9,59.06 -1.7,4.64 -9.1,2.64 -7.5,-2.05"
         style="fill:#724328;fill-opacity:1;fill-rule:nonzero;stroke:none"
         transform="matrix(0.13333333,0,0,-0.13333333,0,1355.0133)"
         clip-path="url(#clipPath1478)"
         id="path1490" />
      <path
         d="m 23638.1,2334.31 c 10.6,-21.63 19,-44.21 25.3,-67.45 1.3,-4.78 8.7,-2.75 7.4,2.05 -6.4,23.88 -15.2,47.07 -26,69.29 -2.2,4.46 -8.8,0.56 -6.7,-3.89"
         style="fill:#724328;fill-opacity:1;fill-rule:nonzero;stroke:none"
         transform="matrix(0.13333333,0,0,-0.13333333,0,1355.0133)"
         clip-path="url(#clipPath1479)"
         id="path1491" />
      <path
         d="m 23734.1,2366.48 c 10.3,-22.84 20.5,-45.69 30.8,-68.53 2,-4.52 8.7,-0.61 6.7,3.89 -10.3,22.84 -20.6,45.69 -30.8,68.53 -2,4.52 -8.7,0.6 -6.7,-3.89"
         style="fill:#724328;fill-opacity:1;fill-rule:nonzero;stroke:none"
         transform="matrix(0.13333333,0,0,-0.13333333,0,1355.0133)"
         clip-path="url(#clipPath1480)"
         id="path1492" />
      <path
         d="m 23779,2391.46 c 12.3,-17.46 24.6,-34.92 36.9,-52.38 2.8,-4.03 9.5,-0.18 6.6,3.89 -12.2,17.46 -24.5,34.92 -36.8,52.38 -2.8,4.03 -9.5,0.18 -6.7,-3.89"
         style="fill:#724328;fill-opacity:1;fill-rule:nonzero;stroke:none"
         transform="matrix(0.13333333,0,0,-0.13333333,0,1355.0133)"
         clip-path="url(#clipPath1481)"
         id="path1493" />
      <path
         d="m 23691,2345.01 c 8,-15.82 13,-33.09 14.6,-50.74 0.4,-4.9 8.1,-4.95 7.7,0 -1.8,19.07 -7,37.52 -15.6,54.63 -2.3,4.43 -8.9,0.53 -6.7,-3.89"
         style="fill:#724328;fill-opacity:1;fill-rule:nonzero;stroke:none"
         transform="matrix(0.13333333,0,0,-0.13333333,0,1355.0133)"
         clip-path="url(#clipPath1482)"
         id="path1494" />
      <path
         d="m 23822.3,2429.12 c 9.8,-14.48 19.6,-28.96 29.4,-43.43 2.7,-4.09 9.4,-0.24 6.6,3.89 -9.7,14.47 -19.5,28.95 -29.3,43.43 -2.8,4.09 -9.4,0.23 -6.7,-3.89"
         style="fill:#724328;fill-opacity:1;fill-rule:nonzero;stroke:none"
         transform="matrix(0.13333333,0,0,-0.13333333,0,1355.0133)"
         clip-path="url(#clipPath1483)"
         id="path1495" />
    </g>
    <path
       id="path1496"
       d="m 23160.7,2407.32 c -1.1,-109.81 -1,-219.63 0.3,-329.44 20.9,-1.62 41.7,-3.23 62.5,-4.85 2.9,-0.23 8.8,236.59 0,350.02 l -62.8,-15.73"
       style="fill:#ce7d1d;fill-opacity:1;fill-rule:nonzero;stroke:none"
       transform="matrix(0.03527778,0,0,-0.03527778,-726.86331,239.40416)"
       clip-path="url(#clipPath1497)" />
    <path
       id="path1498"
       d="m 23953.3,2391.9 c 1.1,-109.81 1,-219.63 -0.3,-329.43 -20.9,-1.62 -22.8,-136.05 -55.5,-65.32 -1.2,2.69 -15.9,297.06 -7,410.48 l 62.8,-15.73"
       style="fill:#ce7d1d;fill-opacity:1;fill-rule:nonzero;stroke:none"
       transform="matrix(0.03527778,0,0,-0.03527778,-726.86331,239.40416)"
       clip-path="url(#clipPath1499)" />
  </g>
</svg>
