<?xml version="1.0" encoding="UTF-8" standalone="no"?>
<!-- Created with Inkscape (http://www.inkscape.org/) -->

<svg
   width="64.329033mm"
   height="64.332207mm"
   viewBox="0 0 64.329033 64.332207"
   version="1.1"
   id="svg1"
   inkscape:version="1.3.2 (091e20e, 2023-11-25)"
   sodipodi:docname="blonde-girl-avatar.svg"
   xmlns:inkscape="http://www.inkscape.org/namespaces/inkscape"
   xmlns:sodipodi="http://sodipodi.sourceforge.net/DTD/sodipodi-0.dtd"
   xmlns="http://www.w3.org/2000/svg"
   xmlns:svg="http://www.w3.org/2000/svg">
  <sodipodi:namedview
     id="namedview1"
     pagecolor="#ffffff"
     bordercolor="#000000"
     borderopacity="0.25"
     inkscape:showpageshadow="2"
     inkscape:pageopacity="0.0"
     inkscape:pagecheckerboard="0"
     inkscape:deskcolor="#d1d1d1"
     inkscape:document-units="mm"
     inkscape:zoom="0.69797839"
     inkscape:cx="32.235955"
     inkscape:cy="142.55456"
     inkscape:window-width="1920"
     inkscape:window-height="1052"
     inkscape:window-x="0"
     inkscape:window-y="28"
     inkscape:window-maximized="0"
     inkscape:current-layer="layer1" />
  <defs
     id="defs1">
    <clipPath
       clipPathUnits="userSpaceOnUse"
       id="clipPath1337">
      <path
         d="m 22305.6,2934.46 c 0,-503.56 -408.2,-911.79 -911.8,-911.79 -503.5,0 -911.7,408.23 -911.7,911.79 0,503.58 408.2,911.8 911.7,911.8 503.6,0 911.8,-408.22 911.8,-911.8"
         transform="translate(0,-2.5e-4)"
         id="path1337" />
    </clipPath>
    <clipPath
       clipPathUnits="userSpaceOnUse"
       id="clipPath1339">
      <path
         d="m 22305.6,2934.46 c 0,-503.56 -408.2,-911.79 -911.8,-911.79 -503.5,0 -911.7,408.23 -911.7,911.79 0,503.58 408.2,911.8 911.7,911.8 503.6,0 911.8,-408.22 911.8,-911.8"
         transform="translate(0,-2.5e-4)"
         id="path1339" />
    </clipPath>
    <clipPath
       clipPathUnits="userSpaceOnUse"
       id="clipPath1341">
      <path
         d="m 22305.6,2934.46 c 0,-503.56 -408.2,-911.79 -911.8,-911.79 -503.5,0 -911.7,408.23 -911.7,911.79 0,503.58 408.2,911.8 911.7,911.8 503.6,0 911.8,-408.22 911.8,-911.8"
         transform="translate(0,-2.5e-4)"
         id="path1341" />
    </clipPath>
    <clipPath
       clipPathUnits="userSpaceOnUse"
       id="clipPath1342">
      <path
         d="m 21876.9,2265.52 c -84.7,56.73 -187.1,79.45 -287,99.53 -6.1,1.22 -12.5,2.56 -17.4,6.38 -8.4,6.56 10.7,227.34 0,323.87 l -142.7,-13.36 -142.6,13.36 c -10.7,-96.53 8.3,-317.31 0,-323.87 -4.9,-3.82 -11.3,-5.16 -17.4,-6.38 -99.9,-20.08 -202.3,-42.8 -287,-99.53 -84.7,-56.73 -148.9,-155.67 -135.3,-256.72 85.1,0.44 322.5,-1.09 563,-4.26 v -0.52 c 6.5,0.09 12.9,0.18 19.3,0.27 6.5,-0.09 12.9,-0.18 19.4,-0.27 v 0.52 c 240.5,3.17 477.9,4.7 563,4.26 13.6,101.05 -50.6,199.99 -135.3,256.72"
         transform="translate(0,-2.5e-4)"
         id="path1342" />
    </clipPath>
    <clipPath
       clipPathUnits="userSpaceOnUse"
       id="clipPath1345">
      <path
         d="m 22305.6,2934.46 c 0,-503.56 -408.2,-911.79 -911.8,-911.79 -503.5,0 -911.7,408.23 -911.7,911.79 0,503.58 408.2,911.8 911.7,911.8 503.6,0 911.8,-408.22 911.8,-911.8"
         transform="translate(0,-2.5e-4)"
         id="path1345" />
    </clipPath>
    <clipPath
       clipPathUnits="userSpaceOnUse"
       id="clipPath1347">
      <path
         d="m 22305.6,2934.46 c 0,-503.56 -408.2,-911.79 -911.8,-911.79 -503.5,0 -911.7,408.23 -911.7,911.79 0,503.58 408.2,911.8 911.7,911.8 503.6,0 911.8,-408.22 911.8,-911.8"
         transform="translate(0,-2.5e-4)"
         id="path1347" />
    </clipPath>
    <clipPath
       clipPathUnits="userSpaceOnUse"
       id="clipPath1349">
      <path
         d="m 22305.6,2934.46 c 0,-503.56 -408.2,-911.79 -911.8,-911.79 -503.5,0 -911.7,408.23 -911.7,911.79 0,503.58 408.2,911.8 911.7,911.8 503.6,0 911.8,-408.22 911.8,-911.8"
         transform="translate(0,-2.5e-4)"
         id="path1349" />
    </clipPath>
    <clipPath
       clipPathUnits="userSpaceOnUse"
       id="clipPath1351">
      <path
         d="m 22305.6,2934.46 c 0,-503.56 -408.2,-911.79 -911.8,-911.79 -503.5,0 -911.7,408.23 -911.7,911.79 0,503.58 408.2,911.8 911.7,911.8 503.6,0 911.8,-408.22 911.8,-911.8"
         transform="translate(0,-2.5e-4)"
         id="path1351" />
    </clipPath>
    <clipPath
       clipPathUnits="userSpaceOnUse"
       id="clipPath1353">
      <path
         d="m 22305.6,2934.46 c 0,-503.56 -408.2,-911.79 -911.8,-911.79 -503.5,0 -911.7,408.23 -911.7,911.79 0,503.58 408.2,911.8 911.7,911.8 503.6,0 911.8,-408.22 911.8,-911.8"
         transform="translate(0,-2.5e-4)"
         id="path1353" />
    </clipPath>
    <clipPath
       clipPathUnits="userSpaceOnUse"
       id="clipPath1355">
      <path
         d="m 22305.6,2934.46 c 0,-503.56 -408.2,-911.79 -911.8,-911.79 -503.5,0 -911.7,408.23 -911.7,911.79 0,503.58 408.2,911.8 911.7,911.8 503.6,0 911.8,-408.22 911.8,-911.8"
         transform="translate(0,-2.5e-4)"
         id="path1355" />
    </clipPath>
    <clipPath
       clipPathUnits="userSpaceOnUse"
       id="clipPath1357">
      <path
         d="m 22305.6,2934.46 c 0,-503.56 -408.2,-911.79 -911.8,-911.79 -503.5,0 -911.7,408.23 -911.7,911.79 0,503.58 408.2,911.8 911.7,911.8 503.6,0 911.8,-408.22 911.8,-911.8"
         transform="translate(0,-2.5e-4)"
         id="path1357" />
    </clipPath>
    <clipPath
       clipPathUnits="userSpaceOnUse"
       id="clipPath1359">
      <path
         d="m 22305.6,2934.46 c 0,-503.56 -408.2,-911.79 -911.8,-911.79 -503.5,0 -911.7,408.23 -911.7,911.79 0,503.58 408.2,911.8 911.7,911.8 503.6,0 911.8,-408.22 911.8,-911.8"
         transform="translate(0,-2.5e-4)"
         id="path1359" />
    </clipPath>
    <clipPath
       clipPathUnits="userSpaceOnUse"
       id="clipPath1361">
      <path
         d="m 22305.6,2934.46 c 0,-503.56 -408.2,-911.79 -911.8,-911.79 -503.5,0 -911.7,408.23 -911.7,911.79 0,503.58 408.2,911.8 911.7,911.8 503.6,0 911.8,-408.22 911.8,-911.8"
         transform="translate(0,-2.5e-4)"
         id="path1361" />
    </clipPath>
    <clipPath
       clipPathUnits="userSpaceOnUse"
       id="clipPath1363">
      <path
         d="m 22305.6,2934.46 c 0,-503.56 -408.2,-911.79 -911.8,-911.79 -503.5,0 -911.7,408.23 -911.7,911.79 0,503.58 408.2,911.8 911.7,911.8 503.6,0 911.8,-408.22 911.8,-911.8"
         transform="translate(0,-2.5e-4)"
         id="path1363" />
    </clipPath>
    <clipPath
       clipPathUnits="userSpaceOnUse"
       id="clipPath1365">
      <path
         d="m 22305.6,2934.46 c 0,-503.56 -408.2,-911.79 -911.8,-911.79 -503.5,0 -911.7,408.23 -911.7,911.79 0,503.58 408.2,911.8 911.7,911.8 503.6,0 911.8,-408.22 911.8,-911.8"
         transform="translate(0,-2.5e-4)"
         id="path1365" />
    </clipPath>
    <clipPath
       clipPathUnits="userSpaceOnUse"
       id="clipPath1367">
      <path
         d="m 22305.6,2934.46 c 0,-503.56 -408.2,-911.79 -911.8,-911.79 -503.5,0 -911.7,408.23 -911.7,911.79 0,503.58 408.2,911.8 911.7,911.8 503.6,0 911.8,-408.22 911.8,-911.8"
         transform="translate(0,-2.5e-4)"
         id="path1367" />
    </clipPath>
    <clipPath
       clipPathUnits="userSpaceOnUse"
       id="clipPath1369">
      <path
         d="m 22305.6,2934.46 c 0,-503.56 -408.2,-911.79 -911.8,-911.79 -503.5,0 -911.7,408.23 -911.7,911.79 0,503.58 408.2,911.8 911.7,911.8 503.6,0 911.8,-408.22 911.8,-911.8"
         transform="translate(0,-2.5e-4)"
         id="path1369" />
    </clipPath>
    <clipPath
       clipPathUnits="userSpaceOnUse"
       id="clipPath1371">
      <path
         d="m 22305.6,2934.46 c 0,-503.56 -408.2,-911.79 -911.8,-911.79 -503.5,0 -911.7,408.23 -911.7,911.79 0,503.58 408.2,911.8 911.7,911.8 503.6,0 911.8,-408.22 911.8,-911.8"
         transform="translate(0,-2.5e-4)"
         id="path1371" />
    </clipPath>
    <clipPath
       clipPathUnits="userSpaceOnUse"
       id="clipPath1373">
      <path
         d="m 22305.6,2934.46 c 0,-503.56 -408.2,-911.79 -911.8,-911.79 -503.5,0 -911.7,408.23 -911.7,911.79 0,503.58 408.2,911.8 911.7,911.8 503.6,0 911.8,-408.22 911.8,-911.8"
         transform="translate(0,-2.5e-4)"
         id="path1373" />
    </clipPath>
    <clipPath
       clipPathUnits="userSpaceOnUse"
       id="clipPath1375">
      <path
         d="m 22305.6,2934.46 c 0,-503.56 -408.2,-911.79 -911.8,-911.79 -503.5,0 -911.7,408.23 -911.7,911.79 0,503.58 408.2,911.8 911.7,911.8 503.6,0 911.8,-408.22 911.8,-911.8"
         transform="translate(0,-2.5e-4)"
         id="path1375" />
    </clipPath>
    <clipPath
       clipPathUnits="userSpaceOnUse"
       id="clipPath1377">
      <path
         d="m 22305.6,2934.46 c 0,-503.56 -408.2,-911.79 -911.8,-911.79 -503.5,0 -911.7,408.23 -911.7,911.79 0,503.58 408.2,911.8 911.7,911.8 503.6,0 911.8,-408.22 911.8,-911.8"
         transform="translate(0,-2.5e-4)"
         id="path1377" />
    </clipPath>
    <clipPath
       clipPathUnits="userSpaceOnUse"
       id="clipPath1379">
      <path
         d="m 22305.6,2934.46 c 0,-503.56 -408.2,-911.79 -911.8,-911.79 -503.5,0 -911.7,408.23 -911.7,911.79 0,503.58 408.2,911.8 911.7,911.8 503.6,0 911.8,-408.22 911.8,-911.8"
         transform="translate(0,-2.5e-4)"
         id="path1379" />
    </clipPath>
    <clipPath
       clipPathUnits="userSpaceOnUse"
       id="clipPath1381">
      <path
         d="m 22305.6,2934.46 c 0,-503.56 -408.2,-911.79 -911.8,-911.79 -503.5,0 -911.7,408.23 -911.7,911.79 0,503.58 408.2,911.8 911.7,911.8 503.6,0 911.8,-408.22 911.8,-911.8"
         transform="translate(0,-2.5e-4)"
         id="path1381" />
    </clipPath>
    <clipPath
       clipPathUnits="userSpaceOnUse"
       id="clipPath1383">
      <path
         d="m 22305.6,2934.46 c 0,-503.56 -408.2,-911.79 -911.8,-911.79 -503.5,0 -911.7,408.23 -911.7,911.79 0,503.58 408.2,911.8 911.7,911.8 503.6,0 911.8,-408.22 911.8,-911.8"
         transform="translate(0,-2.5e-4)"
         id="path1383" />
    </clipPath>
    <clipPath
       clipPathUnits="userSpaceOnUse"
       id="clipPath1385">
      <path
         d="m 22305.6,2934.46 c 0,-503.56 -408.2,-911.79 -911.8,-911.79 -503.5,0 -911.7,408.23 -911.7,911.79 0,503.58 408.2,911.8 911.7,911.8 503.6,0 911.8,-408.22 911.8,-911.8"
         transform="translate(0,-2.5e-4)"
         id="path1385" />
    </clipPath>
    <clipPath
       clipPathUnits="userSpaceOnUse"
       id="clipPath1387">
      <path
         d="m 22305.6,2934.46 c 0,-503.56 -408.2,-911.79 -911.8,-911.79 -503.5,0 -911.7,408.23 -911.7,911.79 0,503.58 408.2,911.8 911.7,911.8 503.6,0 911.8,-408.22 911.8,-911.8"
         transform="translate(0,-2.5e-4)"
         id="path1387" />
    </clipPath>
    <clipPath
       clipPathUnits="userSpaceOnUse"
       id="clipPath1389">
      <path
         d="m 22305.6,2934.46 c 0,-503.56 -408.2,-911.79 -911.8,-911.79 -503.5,0 -911.7,408.23 -911.7,911.79 0,503.58 408.2,911.8 911.7,911.8 503.6,0 911.8,-408.22 911.8,-911.8"
         transform="translate(0,-2.5e-4)"
         id="path1389" />
    </clipPath>
    <clipPath
       clipPathUnits="userSpaceOnUse"
       id="clipPath1391">
      <path
         d="m 22305.6,2934.46 c 0,-503.56 -408.2,-911.79 -911.8,-911.79 -503.5,0 -911.7,408.23 -911.7,911.79 0,503.58 408.2,911.8 911.7,911.8 503.6,0 911.8,-408.22 911.8,-911.8"
         transform="translate(0,-2.5e-4)"
         id="path1391" />
    </clipPath>
    <clipPath
       clipPathUnits="userSpaceOnUse"
       id="clipPath1393">
      <path
         d="m 22305.6,2934.46 c 0,-503.56 -408.2,-911.79 -911.8,-911.79 -503.5,0 -911.7,408.23 -911.7,911.79 0,503.58 408.2,911.8 911.7,911.8 503.6,0 911.8,-408.22 911.8,-911.8"
         transform="translate(0,-2.5e-4)"
         id="path1393" />
    </clipPath>
    <clipPath
       clipPathUnits="userSpaceOnUse"
       id="clipPath1395">
      <path
         d="m 22305.6,2934.46 c 0,-503.56 -408.2,-911.79 -911.8,-911.79 -503.5,0 -911.7,408.23 -911.7,911.79 0,503.58 408.2,911.8 911.7,911.8 503.6,0 911.8,-408.22 911.8,-911.8"
         transform="translate(0,-2.5e-4)"
         id="path1395" />
    </clipPath>
    <clipPath
       clipPathUnits="userSpaceOnUse"
       id="clipPath1397">
      <path
         d="m 22305.6,2934.46 c 0,-503.56 -408.2,-911.79 -911.8,-911.79 -503.5,0 -911.7,408.23 -911.7,911.79 0,503.58 408.2,911.8 911.7,911.8 503.6,0 911.8,-408.22 911.8,-911.8"
         transform="translate(0,-2.5e-4)"
         id="path1397" />
    </clipPath>
    <clipPath
       clipPathUnits="userSpaceOnUse"
       id="clipPath1399">
      <path
         d="m 22305.6,2934.46 c 0,-503.56 -408.2,-911.79 -911.8,-911.79 -503.5,0 -911.7,408.23 -911.7,911.79 0,503.58 408.2,911.8 911.7,911.8 503.6,0 911.8,-408.22 911.8,-911.8"
         transform="translate(0,-2.5e-4)"
         id="path1399" />
    </clipPath>
    <clipPath
       clipPathUnits="userSpaceOnUse"
       id="clipPath1401">
      <path
         d="m 22305.6,2934.46 c 0,-503.56 -408.2,-911.79 -911.8,-911.79 -503.5,0 -911.7,408.23 -911.7,911.79 0,503.58 408.2,911.8 911.7,911.8 503.6,0 911.8,-408.22 911.8,-911.8"
         transform="translate(0,-2.5e-4)"
         id="path1401" />
    </clipPath>
    <clipPath
       clipPathUnits="userSpaceOnUse"
       id="clipPath1403">
      <path
         d="m 22305.6,2934.46 c 0,-503.56 -408.2,-911.79 -911.8,-911.79 -503.5,0 -911.7,408.23 -911.7,911.79 0,503.58 408.2,911.8 911.7,911.8 503.6,0 911.8,-408.22 911.8,-911.8"
         transform="translate(0,-2.5e-4)"
         id="path1403" />
    </clipPath>
    <clipPath
       clipPathUnits="userSpaceOnUse"
       id="clipPath1405">
      <path
         d="m 22305.6,2934.46 c 0,-503.56 -408.2,-911.79 -911.8,-911.79 -503.5,0 -911.7,408.23 -911.7,911.79 0,503.58 408.2,911.8 911.7,911.8 503.6,0 911.8,-408.22 911.8,-911.8"
         transform="translate(0,-2.5e-4)"
         id="path1405" />
    </clipPath>
    <clipPath
       clipPathUnits="userSpaceOnUse"
       id="clipPath1407">
      <path
         d="m 22305.6,2934.46 c 0,-503.56 -408.2,-911.79 -911.8,-911.79 -503.5,0 -911.7,408.23 -911.7,911.79 0,503.58 408.2,911.8 911.7,911.8 503.6,0 911.8,-408.22 911.8,-911.8"
         transform="translate(0,-2.5e-4)"
         id="path1407" />
    </clipPath>
    <clipPath
       clipPathUnits="userSpaceOnUse"
       id="clipPath1409">
      <path
         d="m 22305.6,2934.46 c 0,-503.56 -408.2,-911.79 -911.8,-911.79 -503.5,0 -911.7,408.23 -911.7,911.79 0,503.58 408.2,911.8 911.7,911.8 503.6,0 911.8,-408.22 911.8,-911.8"
         transform="translate(0,-2.5e-4)"
         id="path1409" />
    </clipPath>
    <clipPath
       clipPathUnits="userSpaceOnUse"
       id="clipPath1411">
      <path
         d="m 22305.6,2934.46 c 0,-503.56 -408.2,-911.79 -911.8,-911.79 -503.5,0 -911.7,408.23 -911.7,911.79 0,503.58 408.2,911.8 911.7,911.8 503.6,0 911.8,-408.22 911.8,-911.8"
         transform="translate(0,-2.5e-4)"
         id="path1411" />
    </clipPath>
    <clipPath
       clipPathUnits="userSpaceOnUse"
       id="clipPath1413">
      <path
         d="m 22305.6,2934.46 c 0,-503.56 -408.2,-911.79 -911.8,-911.79 -503.5,0 -911.7,408.23 -911.7,911.79 0,503.58 408.2,911.8 911.7,911.8 503.6,0 911.8,-408.22 911.8,-911.8"
         transform="translate(0,-2.5e-4)"
         id="path1413" />
    </clipPath>
  </defs>
  <g
     inkscape:label="Layer 1"
     inkscape:groupmode="layer"
     id="layer1"
     transform="translate(-68.527148,-102.39373)">
    <path
       id="path1336"
       d="m 22305.6,2022.67 h -1823.5 v 1823.59 h 1823.5 V 2022.67"
       style="fill:#a59eff;fill-opacity:1;fill-rule:nonzero;stroke:none"
       transform="matrix(0.03527778,0,0,-0.03527778,-654.03587,238.08124)"
       clip-path="url(#clipPath1337)" />
    <path
       id="path1338"
       d="m 21877.8,2767.61 c 31.3,100.77 10.6,216.28 -53.9,299.81 -14.1,18.18 -30.3,35.43 -38,57.05 -5.9,16.46 -6.4,34.3 -9.9,51.43 -13.4,66.16 -70.8,116.54 -134.2,139.83 -63.3,23.29 -132.4,24.04 -199.9,23.39 -84.1,-0.8 -171.8,-4.24 -245.9,-44.1 -74.1,-39.85 -129.5,-127.29 -105.3,-207.86 -108.7,-42.73 -167.6,-182 -122.6,-289.8 -76,-63.3 -99.2,-181.79 -52.7,-269.09 0,0 78.8,-1.13 194,-2.48 6.1,22.12 12.2,44.25 18.3,66.37 21.3,-17.97 38.1,-41.26 48.5,-67.12 2.3,-0.03 4.5,-0.05 6.8,-0.08 9.3,20.1 16.2,41.31 20.5,63.04 6.6,-21.16 13.2,-42.31 19.8,-63.47 323.9,-3.39 787.2,-6.45 788.6,3.74 11.6,85.89 -64.7,187.49 -134.1,239.34"
       style="fill:#f59f18;fill-opacity:1;fill-rule:nonzero;stroke:none"
       transform="matrix(0.03527778,0,0,-0.03527778,-654.03587,238.08124)"
       clip-path="url(#clipPath1339)" />
    <path
       id="path1340"
       d="m 21876.9,2265.52 c -84.7,56.73 -187.1,79.45 -287,99.53 -6.1,1.22 -12.5,2.55 -17.4,6.38 -8.4,6.56 10.7,227.34 0,323.87 l -142.7,-13.36 -142.6,13.36 c -10.7,-96.53 8.3,-317.31 0,-323.87 -4.9,-3.83 -11.3,-5.16 -17.4,-6.38 -99.9,-20.08 -202.3,-42.8 -287,-99.53 -84.7,-56.73 -148.9,-155.67 -135.3,-256.72 85.1,0.44 322.5,-1.1 563,-4.26 v -0.52 c 6.5,0.09 12.9,0.18 19.3,0.26 6.5,-0.08 12.9,-0.17 19.4,-0.26 v 0.52 c 240.5,3.16 477.9,4.7 563,4.26 13.6,101.05 -50.6,199.99 -135.3,256.72"
       style="fill:#fbd1b9;fill-opacity:1;fill-rule:nonzero;stroke:none"
       transform="matrix(0.03527778,0,0,-0.03527778,-654.03587,238.08124)"
       clip-path="url(#clipPath1341)" />
    <g
       id="g1343"
       transform="matrix(0.26458333,0,0,0.26458333,-654.03587,-120.43269)">
      <path
         d="m 21097.3,2698.41 c 56.2,36.24 58.6,53.63 61.3,36.24 13.3,-85.44 148.4,-291.27 271.2,-291.27 158.9,0 251.1,268.24 266,335.85 -183.7,-26.25 -369.8,-52.54 -553.9,-30.45 5,-4.77 10.1,-9.55 15.1,-14.32 l -59.7,-36.05"
         style="fill:#dba78a;fill-opacity:1;fill-rule:nonzero;stroke:none"
         transform="matrix(0.13333333,0,0,-0.13333333,0,1355.0133)"
         clip-path="url(#clipPath1342)"
         id="path1343" />
    </g>
    <path
       id="path1344"
       d="m 21218.2,3166.71 c -32.8,-110.78 -24.7,-304.89 0,-417.75 l 0.4,-1.81 c 13.3,-60.58 34.8,-121.07 75.1,-168.22 40.3,-47.16 102.4,-79.04 163.8,-70.68 59.5,8.09 109.4,52.25 138.4,104.78 29,52.53 40.1,112.87 48.2,172.32 14.1,103.53 10.5,378.47 0.5,379.31 -128,10.84 -301.9,37.07 -426.4,5.65 v -3.6"
       style="fill:#fbd1b9;fill-opacity:1;fill-rule:nonzero;stroke:none"
       transform="matrix(0.03527778,0,0,-0.03527778,-654.03587,238.08124)"
       clip-path="url(#clipPath1345)" />
    <path
       id="path1346"
       d="m 21639,2828.23 c 3.2,22.8 30.6,37.06 52.6,30.37 22.1,-6.69 36.6,-29.55 38.2,-52.51 1.7,-22.95 -7.6,-45.54 -20.8,-64.41 -22,-31.48 -60.6,-55.92 -97.7,-46.18 5.9,47.2 14.3,94.09 25.3,140.37 l 2.4,-7.64"
       style="fill:#fbd1b9;fill-opacity:1;fill-rule:nonzero;stroke:none"
       transform="matrix(0.03527778,0,0,-0.03527778,-654.03587,238.08124)"
       clip-path="url(#clipPath1347)" />
    <path
       id="path1348"
       d="m 21221.6,2828.23 c -3.2,22.8 -30.6,37.06 -52.7,30.37 -22,-6.69 -36.5,-29.55 -38.2,-52.51 -1.6,-22.95 7.7,-45.54 20.9,-64.41 21.9,-31.48 60.6,-55.92 97.7,-46.18 -5.9,47.2 -14.4,94.09 -25.3,140.37 l -2.4,-7.64"
       style="fill:#fbd1b9;fill-opacity:1;fill-rule:nonzero;stroke:none"
       transform="matrix(0.03527778,0,0,-0.03527778,-654.03587,238.08124)"
       clip-path="url(#clipPath1349)" />
    <path
       id="path1350"
       d="m 21341,2836.1 c 0,-14.1 -11.7,-25.54 -26,-25.54 -14.3,0 -25.9,11.44 -25.9,25.54 0,14.1 11.6,25.53 25.9,25.53 14.3,0 26,-11.43 26,-25.53"
       style="fill:#1a1a1a;fill-opacity:1;fill-rule:nonzero;stroke:none"
       transform="matrix(0.03527778,0,0,-0.03527778,-654.03587,238.08124)"
       clip-path="url(#clipPath1351)" />
    <path
       id="path1352"
       d="m 21578.1,2836.1 c 0,-14.1 -11.6,-25.54 -25.9,-25.54 -14.4,0 -26,11.44 -26,25.54 0,14.1 11.6,25.53 26,25.53 14.3,0 25.9,-11.43 25.9,-25.53"
       style="fill:#1a1a1a;fill-opacity:1;fill-rule:nonzero;stroke:none"
       transform="matrix(0.03527778,0,0,-0.03527778,-654.03587,238.08124)"
       clip-path="url(#clipPath1353)" />
    <path
       id="path1354"
       d="m 21145.3,2926.76 c 91.1,58.04 163.2,145.44 202.9,245.93 59.5,-65.97 119.5,-132.35 190.3,-186.18 70.7,-53.83 153.5,-94.94 242,-103.2 -34,104.54 -68,209.08 -102,313.63 -3.2,9.84 -6.6,20.07 -13.9,27.45 -12.9,13.11 -33.6,13.43 -52,12.89 -137.8,-4.08 -275.7,-8.16 -413.5,-12.23 l -53.8,-298.29"
       style="fill:#f59f18;fill-opacity:1;fill-rule:nonzero;stroke:none"
       transform="matrix(0.03527778,0,0,-0.03527778,-654.03587,238.08124)"
       clip-path="url(#clipPath1355)" />
    <path
       id="path1356"
       d="m 21346.4,3184.47 c 3.8,50.88 25.9,99.49 61.5,136 6.9,7.07 -3.9,17.94 -10.8,10.85 -38.6,-39.53 -61.9,-91.84 -66,-146.85 -0.7,-9.85 14.6,-9.8 15.3,0"
       style="fill:#ce7d1d;fill-opacity:1;fill-rule:nonzero;stroke:none"
       transform="matrix(0.03527778,0,0,-0.03527778,-654.03587,238.08124)"
       clip-path="url(#clipPath1357)" />
    <path
       id="path1358"
       d="m 21187.8,3207.28 c -52.8,-22.53 -69.5,-96.66 -35,-141.14 1.2,4.28 2.3,8.55 3.4,12.83 -34.2,-14.31 -66.7,-34.57 -90.2,-63.62 -23.3,-28.69 -36.9,-65.05 -33.6,-102.29 1.7,-20.36 8.2,-40.04 20.2,-56.69 0.4,3.1 0.8,6.2 1.2,9.3 -58.1,-48.33 -105.2,-117.85 -93,-196.78 3.2,-20.67 10.9,-40.63 23,-57.7 5.7,-7.99 19,-0.33 13.3,7.74 -20.1,28.32 -26.5,64.03 -21.4,98.1 5.3,35.02 22.4,67.21 44.9,94.26 13.2,15.94 28.2,30.31 44.1,43.53 2.4,1.98 3,6.75 1.2,9.3 -19.3,26.76 -22.8,61.12 -14.1,92.47 9,32.55 31.4,59.81 58.4,79.52 15.4,11.32 32.4,20.66 50.1,28.06 5.7,2.37 7.2,7.95 3.4,12.82 -29.2,37.51 -10.8,98.85 31.9,117.04 9,3.86 1.2,17.09 -7.8,13.25"
       style="fill:#ce7d1d;fill-opacity:1;fill-rule:nonzero;stroke:none"
       transform="matrix(0.03527778,0,0,-0.03527778,-654.03587,238.08124)"
       clip-path="url(#clipPath1359)" />
    <path
       id="path1360"
       d="m 21051.5,2754.64 c -25,-44.71 -21.4,-103.29 9.9,-144.07 2.5,-3.31 6.6,-4.98 10.5,-2.75 3.3,1.85 5.3,7.22 2.8,10.5 -28.1,36.53 -32.5,88.21 -9.9,128.58 4.8,8.62 -8.5,16.37 -13.3,7.74"
       style="fill:#ce7d1d;fill-opacity:1;fill-rule:nonzero;stroke:none"
       transform="matrix(0.03527778,0,0,-0.03527778,-654.03587,238.08124)"
       clip-path="url(#clipPath1361)" />
    <path
       id="path1362"
       d="m 21108.6,2689.96 c -15.5,-36.95 0.1,-82.76 33.8,-103.81 8.4,-5.25 16.1,8.02 7.7,13.25 -28.4,17.74 -39.5,55.9 -26.7,86.48 1.6,3.83 -1.8,8.44 -5.4,9.44 -4.4,1.22 -7.8,-1.52 -9.4,-5.36"
       style="fill:#ce7d1d;fill-opacity:1;fill-rule:nonzero;stroke:none"
       transform="matrix(0.03527778,0,0,-0.03527778,-654.03587,238.08124)"
       clip-path="url(#clipPath1363)" />
    <path
       id="path1364"
       d="m 21386.9,3209.41 c 19.6,-50.72 54.2,-94.46 91.8,-133.14 31,-31.86 64.9,-60.63 100,-87.82 3.5,-2.69 6.9,-5.37 10.4,-8.04 1.9,-1.47 3.2,-2.41 5.8,-4.51 1.5,-1.2 3,-2.45 4.5,-3.66 l 1.5,-1.3 0.3,-0.41 c -1,1.39 -1.3,1.8 -0.9,1.24 -1.9,3.36 -1,6.73 2.7,10.12 -9.1,-3.86 -1.2,-17.09 7.7,-13.25 6.6,2.78 3.8,10.49 0.1,14.03 -3.1,2.92 -6.7,5.39 -10,7.98 -13.2,10.21 -26.5,20.49 -39.8,31.33 -40.4,33.15 -79,69.25 -111.3,110.45 -19.4,24.66 -36.7,51.72 -48,81.06 -3.5,9.11 -18.4,5.15 -14.8,-4.08"
       style="fill:#ce7d1d;fill-opacity:1;fill-rule:nonzero;stroke:none"
       transform="matrix(0.03527778,0,0,-0.03527778,-654.03587,238.08124)"
       clip-path="url(#clipPath1365)" />
    <path
       id="path1366"
       d="m 21401.9,3232.97 c 38.1,-49.59 81.7,-94.53 130.4,-133.7 7.7,-6.13 18.6,4.66 10.9,10.85 -47.7,38.28 -90.8,82.11 -128.1,130.6 -2.5,3.31 -6.5,4.98 -10.5,2.75 -3.2,-1.85 -5.2,-7.22 -2.7,-10.5"
       style="fill:#ce7d1d;fill-opacity:1;fill-rule:nonzero;stroke:none"
       transform="matrix(0.03527778,0,0,-0.03527778,-654.03587,238.08124)"
       clip-path="url(#clipPath1367)" />
    <path
       id="path1368"
       d="m 21710.8,2683.11 c 27.4,-31.81 65.3,-79.79 36.1,-122.53 -5.6,-8.18 7.7,-15.86 13.2,-7.74 14.6,21.29 15,49.34 6.6,73.11 -9.1,26.08 -27.3,47.39 -45.1,68.01 -6.4,7.49 -17.3,-3.4 -10.8,-10.85"
       style="fill:#ce7d1d;fill-opacity:1;fill-rule:nonzero;stroke:none"
       transform="matrix(0.03527778,0,0,-0.03527778,-654.03587,238.08124)"
       clip-path="url(#clipPath1369)" />
    <path
       id="path1370"
       d="m 21699.8,2645.24 c 19.3,-18.69 28.2,-45.59 24.8,-72.14 -0.6,-4.12 3.9,-7.67 7.7,-7.67 4.5,0 7.1,3.54 7.6,7.67 4,30.28 -7.4,61.79 -29.3,83 -7.1,6.88 -17.9,-3.96 -10.8,-10.86"
       style="fill:#ce7d1d;fill-opacity:1;fill-rule:nonzero;stroke:none"
       transform="matrix(0.03527778,0,0,-0.03527778,-654.03587,238.08124)"
       clip-path="url(#clipPath1371)" />
    <path
       id="path1372"
       d="m 21657.4,2642.31 c 8.9,-18.23 11.9,-38.67 9.5,-58.73 -0.5,-4.12 3.9,-7.67 7.7,-7.67 4.5,0 7.1,3.54 7.6,7.67 2.8,22.79 -1.5,45.88 -11.5,66.47 -1.8,3.73 -7.2,4.74 -10.5,2.76 -3.8,-2.23 -4.6,-6.76 -2.8,-10.5"
       style="fill:#ce7d1d;fill-opacity:1;fill-rule:nonzero;stroke:none"
       transform="matrix(0.03527778,0,0,-0.03527778,-654.03587,238.08124)"
       clip-path="url(#clipPath1373)" />
    <path
       id="path1374"
       d="m 21754,3160.65 c 73,-34.06 129.2,-99.52 154.6,-175.77 13.2,-39.68 16.4,-79.86 13.3,-121.36 -1.7,-22.34 -3.6,-45.39 2.2,-67.33 5.6,-20.93 18.8,-37.08 35.2,-50.71 17.7,-14.77 37.9,-27.57 49.4,-48.26 11.6,-20.98 13.6,-46.2 6.1,-68.87 -3.2,-9.39 11.7,-13.42 14.8,-4.08 6.8,20.74 6.7,43.74 -0.5,64.4 -7.2,20.94 -21,36.99 -37.9,50.84 -16,13.07 -34.5,24.96 -45.1,43.2 -11.9,20.36 -11.3,44.93 -9.8,67.68 1.4,22.23 3.4,44.18 1.6,66.47 -1.6,20.42 -5.2,40.7 -10.9,60.38 -11.6,40.1 -31.2,77.53 -57,110.27 -28.8,36.57 -66,66.69 -108.3,86.39 -8.9,4.15 -16.7,-9.08 -7.7,-13.25"
       style="fill:#f59f18;fill-opacity:1;fill-rule:nonzero;stroke:none"
       transform="matrix(0.03527778,0,0,-0.03527778,-654.03587,238.08124)"
       clip-path="url(#clipPath1375)" />
    <path
       id="path1376"
       d="m 20844.1,2625.3 c -1.3,69.43 42.3,137.57 106.7,164.29 4.4,1.86 7.3,6.56 4.5,11.27 -19.6,33.72 -13.8,74.28 -5.9,110.63 3.7,17.25 8.8,33.52 17.9,48.74 7.6,12.64 17.1,23.88 28,33.81 9.7,8.9 20.4,16.53 31.7,23.32 8.4,5.1 0.7,18.37 -7.8,13.26 -24.5,-14.81 -46.6,-33.91 -62.3,-58.09 -10.2,-15.79 -17.1,-33.33 -21.2,-51.67 -4.4,-20.07 -8.3,-40.51 -8.9,-61.13 -0.7,-23.23 3.5,-46.37 15.3,-66.61 1.5,3.75 3.1,7.51 4.6,11.27 -70.8,-29.35 -119.4,-102.23 -117.9,-179.09 0.2,-9.86 15.5,-9.89 15.3,0"
       style="fill:#f59f18;fill-opacity:1;fill-rule:nonzero;stroke:none"
       transform="matrix(0.03527778,0,0,-0.03527778,-654.03587,238.08124)"
       clip-path="url(#clipPath1377)" />
    <path
       id="path1378"
       d="m 21780.2,3014.81 c 43.8,-71.39 51.1,-163.46 18.1,-240.61 -1.5,-3.52 -1.3,-8.59 2.8,-10.5 61.3,-28.37 110.7,-80.13 136.7,-142.49 7.4,-17.83 12.8,-36.46 16.2,-55.46 1.7,-9.71 16.5,-5.6 14.8,4.08 -12.6,69.83 -52.7,133.26 -108.9,176.26 -15.8,12.13 -32.9,22.47 -51.1,30.86 1,-3.5 1.9,-7 2.8,-10.5 27.3,63.93 29.9,137.27 7,202.99 -6.5,18.54 -14.8,36.37 -25.1,53.11 -5.2,8.41 -18.4,0.71 -13.3,-7.74"
       style="fill:#ce7d1d;fill-opacity:1;fill-rule:nonzero;stroke:none"
       transform="matrix(0.03527778,0,0,-0.03527778,-654.03587,238.08124)"
       clip-path="url(#clipPath1379)" />
    <path
       id="path1380"
       d="m 21176.4,2795.81 c 1,-0.27 2,-0.57 3,-0.91 l 1.5,-0.53 c 0.2,-0.07 2.2,-0.87 1.1,-0.39 -1.2,0.46 0.5,-0.27 0.8,-0.37 l 1.4,-0.7 c 0.9,-0.48 1.9,-0.99 2.8,-1.53 1,-0.58 2,-1.2 2.9,-1.85 l 1.3,-0.92 c 0.5,-0.33 1.8,-0.88 0.2,-0.08 l 2.4,-2.06 2.3,-2.21 2.2,-2.33 1,-1.22 c 0.4,-0.47 1,-1.66 0.1,-0.12 1,-1.84 2.5,-3.49 3.6,-5.31 0.5,-0.92 1,-1.85 1.5,-2.8 l 0.7,-1.44 0.4,-0.97 -0.3,0.85 c 0.5,-0.78 0.8,-2.31 1.1,-3.24 0.4,-1.1 0.7,-2.21 1,-3.33 1,-3.89 5.6,-6.61 9.4,-5.36 4.1,1.31 6.5,5.27 5.4,9.44 -5.1,20.2 -21.6,36.83 -41.8,42.18 -3.8,1.03 -8.5,-1.29 -9.4,-5.36 -0.9,-4.02 1.2,-8.34 5.4,-9.44"
       style="fill:#a46e4a;fill-opacity:1;fill-rule:nonzero;stroke:none"
       transform="matrix(0.03527778,0,0,-0.03527778,-654.03587,238.08124)"
       clip-path="url(#clipPath1381)" />
    <path
       id="path1382"
       d="m 21183.8,2761.01 c 8.7,6.96 17.4,13.93 26.1,20.9 1.4,1.14 2.2,3.67 2.2,5.42 0,1.88 -0.8,4.13 -2.2,5.43 -1.5,1.34 -3.4,2.34 -5.5,2.24 -2.1,-0.09 -3.7,-0.9 -5.4,-2.24 -8.7,-6.97 -17.4,-13.94 -26.1,-20.9 -1.4,-1.15 -2.2,-3.68 -2.2,-5.43 0,-1.88 0.8,-4.13 2.2,-5.42 1.5,-1.35 3.4,-2.34 5.4,-2.25 2.2,0.1 3.8,0.91 5.5,2.25"
       style="fill:#a46e4a;fill-opacity:1;fill-rule:nonzero;stroke:none"
       transform="matrix(0.03527778,0,0,-0.03527778,-654.03587,238.08124)"
       clip-path="url(#clipPath1383)" />
    <path
       id="path1384"
       d="m 21660.5,2767.7 c 1.9,3.81 4,7.48 6.5,10.96 0.6,0.92 1.3,1.97 2,2.8 l 0.1,0.04 0.9,1.12 c 1.4,1.7 2.9,3.34 4.5,4.93 1.5,1.52 3,2.98 4.6,4.37 l 2.4,2.06 c 0.4,0.26 1.7,1.41 0.3,0.23 l 1.2,0.87 c 3.5,2.58 7.2,4.86 11,6.86 3.6,1.85 4.9,7.14 2.8,10.5 -2.4,3.64 -6.7,4.73 -10.5,2.75 -16.7,-8.66 -30.7,-22.86 -39,-39.74 -1.8,-3.59 -1.1,-8.47 2.7,-10.5 3.5,-1.83 8.6,-1.09 10.5,2.75"
       style="fill:#a46e4a;fill-opacity:1;fill-rule:nonzero;stroke:none"
       transform="matrix(0.03527778,0,0,-0.03527778,-654.03587,238.08124)"
       clip-path="url(#clipPath1385)" />
    <path
       id="path1386"
       d="m 21673,2775.89 c 5.2,-1.75 10.4,-3.5 15.7,-5.24 1.8,-0.61 4.3,-0.18 5.9,0.77 1.6,0.93 3.1,2.76 3.5,4.59 0.5,1.96 0.4,4.17 -0.8,5.91 -1.1,1.73 -2.6,2.87 -4.5,3.52 -5.3,1.75 -10.5,3.5 -15.7,5.25 -1.8,0.61 -4.3,0.17 -5.9,-0.78 -1.6,-0.93 -3.1,-2.75 -3.6,-4.58 -0.4,-1.97 -0.3,-4.17 0.8,-5.92 1.1,-1.73 2.6,-2.86 4.6,-3.52"
       style="fill:#a46e4a;fill-opacity:1;fill-rule:nonzero;stroke:none"
       transform="matrix(0.03527778,0,0,-0.03527778,-654.03587,238.08124)"
       clip-path="url(#clipPath1387)" />
    <path
       id="path1388"
       d="m 21449.4,2854.45 c 15.9,-52.14 27,-105.66 32.9,-159.86 3.2,2.47 6.5,4.93 9.7,7.4 -16.5,6.41 -31.2,17.48 -41.8,31.66 -5.9,7.8 -19.2,0.16 -13.3,-7.75 13.3,-17.66 30.4,-30.72 51,-38.71 4.4,-1.69 10.2,2.72 9.7,7.4 -6,55.58 -17.1,110.46 -33.4,163.93 -2.9,9.43 -17.7,5.41 -14.8,-4.07"
       style="fill:#a46e4a;fill-opacity:1;fill-rule:nonzero;stroke:none"
       transform="matrix(0.03527778,0,0,-0.03527778,-654.03587,238.08124)"
       clip-path="url(#clipPath1389)" />
    <path
       id="path1390"
       d="m 21363.7,2670.47 c 21.1,-25.14 57.3,-35.66 88.7,-26.26 9.4,2.83 5.4,17.65 -4.1,14.8 -26.5,-7.95 -56,1.15 -73.8,22.31 -2.7,3.17 -8.1,2.75 -10.8,0 -3.2,-3.14 -2.7,-7.67 0,-10.85"
       style="fill:#a46e4a;fill-opacity:1;fill-rule:nonzero;stroke:none"
       transform="matrix(0.03527778,0,0,-0.03527778,-654.03587,238.08124)"
       clip-path="url(#clipPath1391)" />
    <path
       id="path1392"
       d="m 21282.1,2904.32 c 0.6,1.29 1.2,2.54 1.9,3.76 l 1.3,1.93 c 1.3,2.09 -0.2,-0.38 -0.8,-0.96 1,0.93 1.8,2.14 2.8,3.12 0.9,0.98 2.1,1.81 3.1,2.82 -2.6,-2.81 -1.9,-1.44 -0.7,-0.56 l 1.6,1.07 c 1.2,0.76 2.4,1.46 3.7,2.1 l 1.7,0.84 c 1.4,0.75 -3.9,-1.46 -0.8,-0.35 1.3,0.48 2.7,0.96 4,1.34 1.3,0.35 2.5,0.65 3.8,0.89 l 2.3,0.39 c -4.7,-0.98 -2.3,-0.31 -1,-0.21 2.3,0.18 6.2,0.75 8.4,-0.16 -0.6,0.25 -4.1,0.7 -1.4,0.15 l 1.8,-0.39 c 1.4,-0.31 2.7,-0.7 4.1,-1.16 l 1.7,-0.68 c -4.3,1.36 -2,0.87 -0.8,0.28 1.3,-0.7 2.7,-1.5 3.9,-2.36 6.7,-4.47 17.3,-1.52 21,5.51 4.1,7.72 1.7,16.23 -5.5,20.99 -26.8,17.93 -69,6.65 -82.6,-22.87 -1.8,-3.83 -2.8,-7.61 -1.6,-11.83 1,-3.56 3.7,-7.41 7.1,-9.17 6.7,-3.57 17.4,-2.27 21,5.51"
       style="fill:#ce7d1d;fill-opacity:1;fill-rule:nonzero;stroke:none"
       transform="matrix(0.03527778,0,0,-0.03527778,-654.03587,238.08124)"
       clip-path="url(#clipPath1393)" />
    <path
       id="path1394"
       d="m 21540.9,2925 c 1.1,0.86 2.2,1.67 3.5,2.41 l 2,1.13 c 2.1,1.24 -0.4,-0.26 -1.2,-0.48 1.3,0.36 2.6,1.05 3.9,1.46 1.4,0.41 2.8,0.59 4.1,1.04 -3.6,-1.26 -2.4,-0.37 -0.8,-0.18 l 1.9,0.2 c 1.4,0.12 2.8,0.17 4.2,0.15 l 1.9,-0.06 c 1.6,0 -4.1,0.53 -0.9,0.07 1.4,-0.19 2.8,-0.4 4.2,-0.69 1.3,-0.27 2.5,-0.59 3.8,-0.96 l 2.2,-0.73 c -4.7,1.34 -2.2,0.8 -1,0.29 2.1,-0.93 5.8,-2.24 7.4,-4.07 -0.5,0.5 -3.3,2.51 -1.2,0.8 l 1.4,-1.21 c 1.1,-0.92 2.1,-1.89 3.1,-2.91 l 1.2,-1.43 c -3.2,3.23 -1.4,1.71 -0.6,0.66 0.9,-1.26 1.7,-2.58 2.4,-3.94 3.8,-7.07 14.6,-9.4 21.1,-4.91 7.2,4.93 9.1,13.6 5,21.14 -15.5,28.38 -58,38.03 -83.9,18.27 -3.3,-2.57 -5.9,-5.47 -6.8,-9.74 -0.8,-3.61 -0.2,-8.31 1.9,-11.4 4.3,-6.32 14.4,-10.12 21.2,-4.91"
       style="fill:#ce7d1d;fill-opacity:1;fill-rule:nonzero;stroke:none"
       transform="matrix(0.03527778,0,0,-0.03527778,-654.03587,238.08124)"
       clip-path="url(#clipPath1395)" />
    <path
       id="path1396"
       d="m 21213.7,3066.87 c 20.5,-21.21 41.1,-42.41 61.7,-63.61 6.9,-7.1 17.7,3.75 10.9,10.85 -20.6,21.2 -41.2,42.41 -61.8,63.61 -6.9,7.1 -17.7,-3.76 -10.8,-10.85"
       style="fill:#ffffff;fill-opacity:1;fill-rule:nonzero;stroke:none"
       transform="matrix(0.03527778,0,0,-0.03527778,-654.03587,238.08124)"
       clip-path="url(#clipPath1397)" />
    <path
       id="path1398"
       d="m 21243.3,3087.56 c 17,-23.8 37.9,-44.39 61.9,-61.17 3.4,-2.37 8.5,-0.62 10.5,2.75 2.2,3.83 0.6,8.12 -2.8,10.5 -21.7,15.18 -40.9,34.13 -56.4,55.66 -2.4,3.37 -6.7,4.99 -10.5,2.76 -3.3,-1.95 -5.2,-7.12 -2.7,-10.5"
       style="fill:#ffffff;fill-opacity:1;fill-rule:nonzero;stroke:none"
       transform="matrix(0.03527778,0,0,-0.03527778,-654.03587,238.08124)"
       clip-path="url(#clipPath1399)" />
    <path
       id="path1400"
       d="m 21217.5,2369.21 c -59.8,-22.09 -191.9,-62.31 -250.7,-86.96 -158.6,-66.5 -158.3,-336.13 -158.9,-374.33 149.7,-20.91 301.1,14.48 452.2,16.14 62.7,0.69 125.3,-4.43 187.9,-6.62 233.5,-8.17 366.8,10.05 598.2,42.53 30.7,286.47 -233,375.86 -384.1,409.49 -4.3,38.23 -8.6,76.45 -13,114.68 -129.8,-12.62 -212.2,-247.67 -222.9,-304.72 -6.8,128.75 -90.5,250.47 -208.3,302.92 0,0 5.3,-111.01 -0.4,-113.13"
       style="fill:#87c3a9;fill-opacity:1;fill-rule:nonzero;stroke:none"
       transform="matrix(0.03527778,0,0,-0.03527778,-654.03587,238.08124)"
       clip-path="url(#clipPath1401)" />
    <path
       id="path1402"
       d="m 21233.6,2414.05 c 23.7,-8.13 43,-27.62 58.7,-46.76 20.5,-24.93 37,-53.18 51.9,-81.74 27.6,-53.25 49.7,-109.46 68.6,-166.35 4.1,-12.18 8.1,-24.4 11.7,-36.74 2,-7.14 12.8,-7.45 14.8,0 26.4,102.89 56.3,210.75 130.6,290.37 19,20.27 40.3,37.98 64.1,52.21 8.5,5.06 0.8,18.33 -7.7,13.25 -92.6,-55.31 -143.4,-155.47 -174.9,-254.98 -10.1,-31.93 -18.6,-64.34 -26.9,-96.77 4.9,0 9.8,0 14.8,0 -10.4,35.75 -23,70.97 -36.6,105.59 -24.5,62.66 -52.8,126.31 -94.4,179.68 -18.6,23.81 -41.4,47.02 -70.7,57.03 -9.3,3.21 -13.3,-11.61 -4,-14.79"
       style="fill:#498469;fill-opacity:1;fill-rule:nonzero;stroke:none"
       transform="matrix(0.03527778,0,0,-0.03527778,-654.03587,238.08124)"
       clip-path="url(#clipPath1403)" />
    <path
       id="path1404"
       d="m 21843,2255.95 c -20.7,-86.34 -23.8,-176.03 -9.6,-263.63 1.6,-9.72 16.4,-5.59 14.8,4.08 -13.7,84.76 -10.4,171.97 9.6,255.47 2.3,9.6 -12.5,13.69 -14.8,4.08"
       style="fill:#498469;fill-opacity:1;fill-rule:nonzero;stroke:none"
       transform="matrix(0.03527778,0,0,-0.03527778,-654.03587,238.08124)"
       clip-path="url(#clipPath1405)" />
    <path
       id="path1406"
       d="m 20949.8,2245.45 c 46.7,-67.31 80.8,-142.89 100.1,-222.52 5.5,-22.43 9.8,-45.16 12.8,-68.04 0.6,-4.14 3.1,-7.62 7.7,-7.67 3.7,-0.04 8.2,3.56 7.7,7.67 -11.1,83.22 -37.2,164.01 -77.5,237.69 -11.4,20.86 -24,41.08 -37.5,60.61 -5.6,8.06 -18.9,0.4 -13.3,-7.74"
       style="fill:#498469;fill-opacity:1;fill-rule:nonzero;stroke:none"
       transform="matrix(0.03527778,0,0,-0.03527778,-654.03587,238.08124)"
       clip-path="url(#clipPath1407)" />
    <path
       id="path1408"
       d="m 21336.3,3183.42 c 32.8,-79.47 80.6,-152.1 141,-213.39 6.9,-7.05 17.7,3.8 10.8,10.85 -58.4,59.29 -105.2,129.69 -137,206.62 -3.7,9 -18.6,5.06 -14.8,-4.08"
       style="fill:#f59f18;fill-opacity:1;fill-rule:nonzero;stroke:none"
       transform="matrix(0.03527778,0,0,-0.03527778,-654.03587,238.08124)"
       clip-path="url(#clipPath1409)" />
    <path
       id="path1410"
       d="m 21366.2,2766.22 1.8,-1.74 c 0.6,-0.75 1.5,-1.28 2.4,-1.59 0.9,-0.48 1.9,-0.7 3,-0.66 1,-0.04 2,0.18 2.9,0.66 1,0.31 1.8,0.84 2.5,1.59 l 1.2,1.55 c 0.7,1.2 1,2.49 1,3.87 l -0.2,2.04 c -0.4,1.3 -1,2.43 -2,3.39 l -1.7,1.74 c -0.7,0.75 -1.6,1.28 -2.5,1.59 -0.9,0.48 -1.9,0.7 -3,0.66 -1,0.04 -2,-0.18 -2.9,-0.66 -1,-0.31 -1.8,-0.84 -2.5,-1.59 l -1.2,-1.55 c -0.7,-1.2 -1,-2.49 -1,-3.88 l 0.2,-2.04 c 0.4,-1.3 1.1,-2.42 2,-3.38"
       style="fill:#f59f18;fill-opacity:1;fill-rule:nonzero;stroke:none"
       transform="matrix(0.03527778,0,0,-0.03527778,-654.03587,238.08124)"
       clip-path="url(#clipPath1411)" />
    <path
       id="path1412"
       d="m 21208.1,2726.57 -1.7,1.74 c -0.7,0.75 -1.5,1.28 -2.5,1.59 -0.9,0.48 -1.9,0.7 -2.9,0.66 -1.1,0.04 -2.1,-0.18 -3,-0.66 -0.9,-0.31 -1.8,-0.84 -2.5,-1.59 l -1.1,-1.55 c -0.7,-1.2 -1.1,-2.49 -1.1,-3.88 l 0.3,-2.04 c 0.3,-1.3 1,-2.42 1.9,-3.38 l 1.8,-1.74 c 0.7,-0.75 1.5,-1.28 2.5,-1.59 0.9,-0.48 1.9,-0.7 2.9,-0.66 1.1,-0.04 2.1,0.18 3,0.66 0.9,0.31 1.7,0.84 2.4,1.59 l 1.2,1.55 c 0.7,1.2 1.1,2.49 1.1,3.87 l -0.3,2.04 c -0.3,1.3 -1,2.43 -2,3.39"
       style="fill:#498469;fill-opacity:1;fill-rule:nonzero;stroke:none"
       transform="matrix(0.03527778,0,0,-0.03527778,-654.03587,238.08124)"
       clip-path="url(#clipPath1413)" />
  </g>
</svg>
