<?xml version="1.0" encoding="UTF-8" standalone="no"?>
<!-- Created with Inkscape (http://www.inkscape.org/) -->

<svg
   width="64.332558mm"
   height="72.215294mm"
   viewBox="0 0 64.332558 72.215294"
   version="1.1"
   id="svg1"
   inkscape:version="1.3.2 (091e20e, 2023-11-25)"
   sodipodi:docname="poncho-bold-guy-avatar.svg"
   xmlns:inkscape="http://www.inkscape.org/namespaces/inkscape"
   xmlns:sodipodi="http://sodipodi.sourceforge.net/DTD/sodipodi-0.dtd"
   xmlns="http://www.w3.org/2000/svg"
   xmlns:svg="http://www.w3.org/2000/svg">
  <sodipodi:namedview
     id="namedview1"
     pagecolor="#ffffff"
     bordercolor="#000000"
     borderopacity="0.25"
     inkscape:showpageshadow="2"
     inkscape:pageopacity="0.0"
     inkscape:pagecheckerboard="0"
     inkscape:deskcolor="#d1d1d1"
     inkscape:document-units="mm"
     inkscape:zoom="0.2102413"
     inkscape:cx="183.12291"
     inkscape:cy="-787.19071"
     inkscape:window-width="1920"
     inkscape:window-height="1052"
     inkscape:window-x="0"
     inkscape:window-y="28"
     inkscape:window-maximized="0"
     inkscape:current-layer="layer1" />
  <defs
     id="defs1">
    <clipPath
       clipPathUnits="userSpaceOnUse"
       id="clipPath1867">
      <path
         d="m 30983.4,5084.48 c 0,-503.57 -408.3,-911.8 -911.8,-911.8 -503.6,0 -911.8,408.23 -911.8,911.8 0,503.57 408.2,911.79 911.8,911.79 503.5,0 911.8,-408.22 911.8,-911.79"
         transform="translate(0,-2.5e-4)"
         id="path1867" />
    </clipPath>
    <clipPath
       clipPathUnits="userSpaceOnUse"
       id="clipPath1869">
      <path
         d="m 30983.4,5084.48 c 0,-503.57 -408.3,-911.8 -911.8,-911.8 -503.6,0 -911.8,408.23 -911.8,911.8 0,503.57 408.2,911.79 911.8,911.79 503.5,0 911.8,-408.22 911.8,-911.79"
         transform="translate(0,-2.5e-4)"
         id="path1869" />
    </clipPath>
    <clipPath
       clipPathUnits="userSpaceOnUse"
       id="clipPath1870">
      <path
         d="m 30527.1,4457.97 c -84.7,56.74 -187.1,79.46 -287,99.53 -6.1,1.23 -12.5,2.56 -17.4,6.39 -8.4,6.55 10.7,227.34 0,323.86 l -142.6,-13.36 -142.7,13.36 c -10.7,-96.52 8.4,-317.31 0,-323.86 -4.9,-3.83 -11.3,-5.16 -17.4,-6.39 -99.9,-20.07 -202.3,-42.79 -287,-99.53 -84.7,-56.72 -148.9,-155.67 -135.3,-256.71 85.1,0.44 322.5,-1.1 563,-4.27 v -0.52 c 6.5,0.09 12.9,0.18 19.4,0.27 6.4,-0.09 12.8,-0.18 19.3,-0.27 v 0.52 c 240.5,3.17 477.9,4.71 563,4.27 13.6,101.04 -50.6,199.99 -135.3,256.71"
         transform="translate(0,-2.5e-4)"
         id="path1870" />
    </clipPath>
    <clipPath
       clipPathUnits="userSpaceOnUse"
       id="clipPath1873">
      <path
         d="m 30983.4,5084.48 c 0,-503.57 -408.3,-911.8 -911.8,-911.8 -503.6,0 -911.8,408.23 -911.8,911.8 0,503.57 408.2,911.79 911.8,911.79 503.5,0 911.8,-408.22 911.8,-911.79"
         transform="translate(0,-2.5e-4)"
         id="path1873" />
    </clipPath>
    <clipPath
       clipPathUnits="userSpaceOnUse"
       id="clipPath1875">
      <path
         d="m 30983.4,5084.48 c 0,-503.57 -408.3,-911.8 -911.8,-911.8 -503.6,0 -911.8,408.23 -911.8,911.8 0,503.57 408.2,911.79 911.8,911.79 503.5,0 911.8,-408.22 911.8,-911.79"
         transform="translate(0,-2.5e-4)"
         id="path1875" />
    </clipPath>
    <clipPath
       clipPathUnits="userSpaceOnUse"
       id="clipPath1877">
      <path
         d="m 30983.4,5084.48 c 0,-503.57 -408.3,-911.8 -911.8,-911.8 -503.6,0 -911.8,408.23 -911.8,911.8 0,503.57 408.2,911.79 911.8,911.79 503.5,0 911.8,-408.22 911.8,-911.79"
         transform="translate(0,-2.5e-4)"
         id="path1877" />
    </clipPath>
    <clipPath
       clipPathUnits="userSpaceOnUse"
       id="clipPath1879">
      <path
         d="m 30983.4,5084.48 c 0,-503.57 -408.3,-911.8 -911.8,-911.8 -503.6,0 -911.8,408.23 -911.8,911.8 0,503.57 408.2,911.79 911.8,911.79 503.5,0 911.8,-408.22 911.8,-911.79"
         transform="translate(0,-2.5e-4)"
         id="path1879" />
    </clipPath>
    <clipPath
       clipPathUnits="userSpaceOnUse"
       id="clipPath1881">
      <path
         d="m 30983.4,5084.48 c 0,-503.57 -408.3,-911.8 -911.8,-911.8 -503.6,0 -911.8,408.23 -911.8,911.8 0,503.57 408.2,911.79 911.8,911.79 503.5,0 911.8,-408.22 911.8,-911.79"
         transform="translate(0,-2.5e-4)"
         id="path1881" />
    </clipPath>
    <clipPath
       clipPathUnits="userSpaceOnUse"
       id="clipPath1883">
      <path
         d="m 30983.4,5084.48 c 0,-503.57 -408.3,-911.8 -911.8,-911.8 -503.6,0 -911.8,408.23 -911.8,911.8 0,503.57 408.2,911.79 911.8,911.79 503.5,0 911.8,-408.22 911.8,-911.79"
         transform="translate(0,-2.5e-4)"
         id="path1883" />
    </clipPath>
    <clipPath
       clipPathUnits="userSpaceOnUse"
       id="clipPath1885">
      <path
         d="m 30983.4,5084.48 c 0,-503.57 -408.3,-911.8 -911.8,-911.8 -503.6,0 -911.8,408.23 -911.8,911.8 0,503.57 408.2,911.79 911.8,911.79 503.5,0 911.8,-408.22 911.8,-911.79"
         transform="translate(0,-2.5e-4)"
         id="path1885" />
    </clipPath>
    <clipPath
       clipPathUnits="userSpaceOnUse"
       id="clipPath1887">
      <path
         d="m 30983.4,5084.48 c 0,-503.57 -408.3,-911.8 -911.8,-911.8 -503.6,0 -911.8,408.23 -911.8,911.8 0,503.57 408.2,911.79 911.8,911.79 503.5,0 911.8,-408.22 911.8,-911.79"
         transform="translate(0,-2.5e-4)"
         id="path1887" />
    </clipPath>
    <clipPath
       clipPathUnits="userSpaceOnUse"
       id="clipPath1889">
      <path
         d="m 30983.4,5084.48 c 0,-503.57 -408.3,-911.8 -911.8,-911.8 -503.6,0 -911.8,408.23 -911.8,911.8 0,503.57 408.2,911.79 911.8,911.79 503.5,0 911.8,-408.22 911.8,-911.79"
         transform="translate(0,-2.5e-4)"
         id="path1889" />
    </clipPath>
    <clipPath
       clipPathUnits="userSpaceOnUse"
       id="clipPath1891">
      <path
         d="m 30983.4,5084.48 c 0,-503.57 -408.3,-911.8 -911.8,-911.8 -503.6,0 -911.8,408.23 -911.8,911.8 0,503.57 408.2,911.79 911.8,911.79 503.5,0 911.8,-408.22 911.8,-911.79"
         transform="translate(0,-2.5e-4)"
         id="path1891" />
    </clipPath>
    <clipPath
       clipPathUnits="userSpaceOnUse"
       id="clipPath1893">
      <path
         d="m 30983.4,5084.48 c 0,-503.57 -408.3,-911.8 -911.8,-911.8 -503.6,0 -911.8,408.23 -911.8,911.8 0,503.57 408.2,911.79 911.8,911.79 503.5,0 911.8,-408.22 911.8,-911.79"
         transform="translate(0,-2.5e-4)"
         id="path1893" />
    </clipPath>
    <clipPath
       clipPathUnits="userSpaceOnUse"
       id="clipPath1895">
      <path
         d="m 30983.4,5084.48 c 0,-503.57 -408.3,-911.8 -911.8,-911.8 -503.6,0 -911.8,408.23 -911.8,911.8 0,503.57 408.2,911.79 911.8,911.79 503.5,0 911.8,-408.22 911.8,-911.79"
         transform="translate(0,-2.5e-4)"
         id="path1895" />
    </clipPath>
    <clipPath
       clipPathUnits="userSpaceOnUse"
       id="clipPath1897">
      <path
         d="m 30983.4,5084.48 c 0,-503.57 -408.3,-911.8 -911.8,-911.8 -503.6,0 -911.8,408.23 -911.8,911.8 0,503.57 408.2,911.79 911.8,911.79 503.5,0 911.8,-408.22 911.8,-911.79"
         transform="translate(0,-2.5e-4)"
         id="path1897" />
    </clipPath>
    <clipPath
       clipPathUnits="userSpaceOnUse"
       id="clipPath1899">
      <path
         d="m 30983.4,5084.48 c 0,-503.57 -408.3,-911.8 -911.8,-911.8 -503.6,0 -911.8,408.23 -911.8,911.8 0,503.57 408.2,911.79 911.8,911.79 503.5,0 911.8,-408.22 911.8,-911.79"
         transform="translate(0,-2.5e-4)"
         id="path1899" />
    </clipPath>
    <clipPath
       clipPathUnits="userSpaceOnUse"
       id="clipPath1901">
      <path
         d="m 30983.4,5084.48 c 0,-503.57 -408.3,-911.8 -911.8,-911.8 -503.6,0 -911.8,408.23 -911.8,911.8 0,503.57 408.2,911.79 911.8,911.79 503.5,0 911.8,-408.22 911.8,-911.79"
         transform="translate(0,-2.5e-4)"
         id="path1901" />
    </clipPath>
    <clipPath
       clipPathUnits="userSpaceOnUse"
       id="clipPath1902">
      <path
         d="m 30362.9,4528.41 c -66.3,-90.89 -163.7,-125.56 -276.8,-121.7 v 0.72 c -2.6,-0.15 -5.1,-0.28 -7.6,-0.42 -2.6,0.14 -5.1,0.27 -7.7,0.42 v -0.72 c -113,-3.86 -205.3,30.81 -271.7,121.7 0,0 -219.6,-42.22 -290.7,-200.53 -18.1,-40.35 -30.4,-88.87 -19.3,-144.89 110.9,-556.33 1195.3,-85.7 1178.7,0 -7.6,39.03 -0.6,75.01 -9.8,106.55 -4.5,15 -10.1,29.13 -16.6,42.43 -75.3,152.14 -278.5,196.44 -278.5,196.44"
         transform="translate(0,-2.5e-4)"
         id="path1902" />
    </clipPath>
    <clipPath
       clipPathUnits="userSpaceOnUse"
       id="clipPath1903">
      <path
         d="m 30362.9,4528.41 c -66.3,-90.89 -163.7,-125.56 -276.8,-121.7 v 0.72 c -2.6,-0.15 -5.1,-0.28 -7.6,-0.42 -2.6,0.14 -5.1,0.27 -7.7,0.42 v -0.72 c -113,-3.86 -205.3,30.81 -271.7,121.7 0,0 -219.6,-42.22 -290.7,-200.53 -18.1,-40.35 -30.4,-88.87 -19.3,-144.89 110.9,-556.33 1195.3,-85.7 1178.7,0 -7.6,39.03 -0.6,75.01 -9.8,106.55 -4.5,15 -10.1,29.13 -16.6,42.43 -75.3,152.14 -278.5,196.44 -278.5,196.44"
         transform="translate(0,-2.5e-4)"
         id="path1903" />
    </clipPath>
    <clipPath
       clipPathUnits="userSpaceOnUse"
       id="clipPath1904">
      <path
         d="m 30362.9,4528.41 c -66.3,-90.89 -163.7,-125.56 -276.8,-121.7 v 0.72 c -2.6,-0.15 -5.1,-0.28 -7.6,-0.42 -2.6,0.14 -5.1,0.27 -7.7,0.42 v -0.72 c -113,-3.86 -205.3,30.81 -271.7,121.7 0,0 -219.6,-42.22 -290.7,-200.53 -18.1,-40.35 -30.4,-88.87 -19.3,-144.89 110.9,-556.33 1195.3,-85.7 1178.7,0 -7.6,39.03 -0.6,75.01 -9.8,106.55 -4.5,15 -10.1,29.13 -16.6,42.43 -75.3,152.14 -278.5,196.44 -278.5,196.44"
         transform="translate(0,-2.5e-4)"
         id="path1904" />
    </clipPath>
    <clipPath
       clipPathUnits="userSpaceOnUse"
       id="clipPath1905">
      <path
         d="m 30362.9,4528.41 c -66.3,-90.89 -163.7,-125.56 -276.8,-121.7 v 0.72 c -2.6,-0.15 -5.1,-0.28 -7.6,-0.42 -2.6,0.14 -5.1,0.27 -7.7,0.42 v -0.72 c -113,-3.86 -205.3,30.81 -271.7,121.7 0,0 -219.6,-42.22 -290.7,-200.53 -18.1,-40.35 -30.4,-88.87 -19.3,-144.89 110.9,-556.33 1195.3,-85.7 1178.7,0 -7.6,39.03 -0.6,75.01 -9.8,106.55 -4.5,15 -10.1,29.13 -16.6,42.43 -75.3,152.14 -278.5,196.44 -278.5,196.44"
         transform="translate(0,-2.5e-4)"
         id="path1905" />
    </clipPath>
    <clipPath
       clipPathUnits="userSpaceOnUse"
       id="clipPath1906">
      <path
         d="m 30362.9,4528.41 c -66.3,-90.89 -163.7,-125.56 -276.8,-121.7 v 0.72 c -2.6,-0.15 -5.1,-0.28 -7.6,-0.42 -2.6,0.14 -5.1,0.27 -7.7,0.42 v -0.72 c -113,-3.86 -205.3,30.81 -271.7,121.7 0,0 -219.6,-42.22 -290.7,-200.53 -18.1,-40.35 -30.4,-88.87 -19.3,-144.89 110.9,-556.33 1195.3,-85.7 1178.7,0 -7.6,39.03 -0.6,75.01 -9.8,106.55 -4.5,15 -10.1,29.13 -16.6,42.43 -75.3,152.14 -278.5,196.44 -278.5,196.44"
         transform="translate(0,-2.5e-4)"
         id="path1906" />
    </clipPath>
    <clipPath
       clipPathUnits="userSpaceOnUse"
       id="clipPath1907">
      <path
         d="m 30362.9,4528.41 c -66.3,-90.89 -163.7,-125.56 -276.8,-121.7 v 0.72 c -2.6,-0.15 -5.1,-0.28 -7.6,-0.42 -2.6,0.14 -5.1,0.27 -7.7,0.42 v -0.72 c -113,-3.86 -205.3,30.81 -271.7,121.7 0,0 -219.6,-42.22 -290.7,-200.53 -18.1,-40.35 -30.4,-88.87 -19.3,-144.89 110.9,-556.33 1195.3,-85.7 1178.7,0 -7.6,39.03 -0.6,75.01 -9.8,106.55 -4.5,15 -10.1,29.13 -16.6,42.43 -75.3,152.14 -278.5,196.44 -278.5,196.44"
         transform="translate(0,-2.5e-4)"
         id="path1907" />
    </clipPath>
    <clipPath
       clipPathUnits="userSpaceOnUse"
       id="clipPath1908">
      <path
         d="m 30362.9,4528.41 c -66.3,-90.89 -163.7,-125.56 -276.8,-121.7 v 0.72 c -2.6,-0.15 -5.1,-0.28 -7.6,-0.42 -2.6,0.14 -5.1,0.27 -7.7,0.42 v -0.72 c -113,-3.86 -205.3,30.81 -271.7,121.7 0,0 -219.6,-42.22 -290.7,-200.53 -18.1,-40.35 -30.4,-88.87 -19.3,-144.89 110.9,-556.33 1195.3,-85.7 1178.7,0 -7.6,39.03 -0.6,75.01 -9.8,106.55 -4.5,15 -10.1,29.13 -16.6,42.43 -75.3,152.14 -278.5,196.44 -278.5,196.44"
         transform="translate(0,-2.5e-4)"
         id="path1908" />
    </clipPath>
    <clipPath
       clipPathUnits="userSpaceOnUse"
       id="clipPath1909">
      <path
         d="m 30362.9,4528.41 c -66.3,-90.89 -163.7,-125.56 -276.8,-121.7 v 0.72 c -2.6,-0.15 -5.1,-0.28 -7.6,-0.42 -2.6,0.14 -5.1,0.27 -7.7,0.42 v -0.72 c -113,-3.86 -205.3,30.81 -271.7,121.7 0,0 -219.6,-42.22 -290.7,-200.53 -18.1,-40.35 -30.4,-88.87 -19.3,-144.89 110.9,-556.33 1195.3,-85.7 1178.7,0 -7.6,39.03 -0.6,75.01 -9.8,106.55 -4.5,15 -10.1,29.13 -16.6,42.43 -75.3,152.14 -278.5,196.44 -278.5,196.44"
         transform="translate(0,-2.5e-4)"
         id="path1909" />
    </clipPath>
  </defs>
  <g
     inkscape:label="Layer 1"
     inkscape:groupmode="layer"
     id="layer1"
     transform="translate(-69.681499,-109.80135)">
    <path
       id="path1866"
       d="m 30983.4,4172.69 h -1823.6 v 1823.58 h 1823.6 V 4172.69"
       style="fill:#a59eff;fill-opacity:1;fill-rule:nonzero;stroke:none"
       transform="matrix(0.03527778,0,0,-0.03527778,-959.01151,321.33644)"
       clip-path="url(#clipPath1867)" />
    <path
       id="path1868"
       d="m 30527.1,4457.98 c -84.7,56.73 -187.1,79.45 -287,99.53 -6.1,1.22 -12.5,2.55 -17.4,6.38 -8.3,6.55 10.7,227.33 0,323.86 l -142.6,-13.36 -142.7,13.36 c -10.7,-96.53 8.4,-317.31 0,-323.86 -4.9,-3.83 -11.3,-5.16 -17.4,-6.38 -99.9,-20.08 -202.3,-42.8 -287,-99.53 -84.7,-56.73 -148.9,-155.68 -135.3,-256.72 85.1,0.44 322.5,-1.1 563,-4.26 v -0.52 c 6.5,0.08 12.9,0.17 19.4,0.26 6.4,-0.09 12.8,-0.18 19.3,-0.26 v 0.52 c 240.5,3.16 477.9,4.7 563,4.26 13.6,101.04 -50.6,199.99 -135.3,256.72"
       style="fill:#fbd1b9;fill-opacity:1;fill-rule:nonzero;stroke:none"
       transform="matrix(0.03527778,0,0,-0.03527778,-959.01151,321.33644)"
       clip-path="url(#clipPath1869)" />
    <g
       id="g1871"
       transform="matrix(0.26458333,0,0,0.26458333,-959.01151,-37.177493)">
      <path
         d="m 29747.5,4890.86 c 56.2,36.25 58.6,53.63 61.4,36.25 13.3,-85.44 148.3,-291.27 271.1,-291.27 158.9,0 251.1,268.24 266,335.84 -183.7,-26.25 -369.7,-52.54 -553.9,-30.44 5,-4.78 10.1,-9.55 15.1,-14.33 l -59.7,-36.05"
         style="fill:#dba78a;fill-opacity:1;fill-rule:nonzero;stroke:none"
         transform="matrix(0.13333333,0,0,-0.13333333,0,1355.0133)"
         clip-path="url(#clipPath1870)"
         id="path1871" />
    </g>
    <path
       id="path1872"
       d="m 29868.4,4941.42 0.4,-1.82 c 13.4,-60.57 34.8,-121.07 75.1,-168.22 40.3,-47.15 102.4,-79.03 163.8,-70.67 59.5,8.09 109.4,52.25 138.4,104.78 29,52.52 40.2,112.87 48.3,172.32 6.8,50.16 5.9,164.76 3.2,269.6 -3.1,118.41 -99.2,213.23 -217.6,214.79 v 0 c -121.8,1.62 -221.6,-95.76 -223.5,-217.53 -1.7,-116.58 -0.4,-246.96 11.9,-303.25"
       style="fill:#fbd1b9;fill-opacity:1;fill-rule:nonzero;stroke:none"
       transform="matrix(0.03527778,0,0,-0.03527778,-959.01151,321.33644)"
       clip-path="url(#clipPath1873)" />
    <path
       id="path1874"
       d="m 30289.2,5020.69 c 3.2,22.8 30.6,37.06 52.7,30.37 22,-6.69 36.5,-29.55 38.2,-52.51 1.6,-22.95 -7.7,-45.54 -20.9,-64.42 -21.9,-31.47 -60.6,-55.91 -97.7,-46.17 5.9,47.2 14.4,94.08 25.3,140.37 l 2.4,-7.64"
       style="fill:#fbd1b9;fill-opacity:1;fill-rule:nonzero;stroke:none"
       transform="matrix(0.03527778,0,0,-0.03527778,-959.01151,321.33644)"
       clip-path="url(#clipPath1875)" />
    <path
       id="path1876"
       d="m 29871.8,5020.69 c -3.2,22.8 -30.6,37.06 -52.7,30.37 -22,-6.69 -36.5,-29.55 -38.2,-52.51 -1.6,-22.95 7.7,-45.54 20.9,-64.42 21.9,-31.47 60.6,-55.91 97.7,-46.17 -5.9,47.2 -14.4,94.08 -25.3,140.37 l -2.4,-7.64"
       style="fill:#fbd1b9;fill-opacity:1;fill-rule:nonzero;stroke:none"
       transform="matrix(0.03527778,0,0,-0.03527778,-959.01151,321.33644)"
       clip-path="url(#clipPath1877)" />
    <path
       id="path1878"
       d="m 30171.4,5044.43 c 0,-14.1 11.6,-25.53 25.9,-25.53 14.3,0 26,11.43 26,25.53 0,14.1 -11.7,25.54 -26,25.54 -14.3,0 -25.9,-11.44 -25.9,-25.54"
       style="fill:#1a1a1a;fill-opacity:1;fill-rule:nonzero;stroke:none"
       transform="matrix(0.03527778,0,0,-0.03527778,-959.01151,321.33644)"
       clip-path="url(#clipPath1879)" />
    <path
       id="path1880"
       d="m 29934.2,5044.43 c 0,-14.1 11.6,-25.53 26,-25.53 14.3,0 25.9,11.43 25.9,25.53 0,14.1 -11.6,25.54 -25.9,25.54 -14.4,0 -26,-11.44 -26,-25.54"
       style="fill:#1a1a1a;fill-opacity:1;fill-rule:nonzero;stroke:none"
       transform="matrix(0.03527778,0,0,-0.03527778,-959.01151,321.33644)"
       clip-path="url(#clipPath1881)" />
    <path
       id="path1882"
       d="m 30048.1,5066.86 c -16.3,-53.48 -27.4,-108.35 -33.4,-163.93 -0.5,-4.68 5.4,-9.09 9.7,-7.4 20.6,7.99 37.8,21.05 51,38.71 6,7.9 -7.4,15.56 -13.2,7.75 -10.7,-14.18 -25.4,-25.26 -41.9,-31.66 3.3,-2.47 6.5,-4.94 9.7,-7.4 5.9,54.19 17,107.72 32.9,159.85 2.9,9.47 -11.9,13.52 -14.8,4.08"
       style="fill:#a46e4a;fill-opacity:1;fill-rule:nonzero;stroke:none"
       transform="matrix(0.03527778,0,0,-0.03527778,-959.01151,321.33644)"
       clip-path="url(#clipPath1883)" />
    <path
       id="path1884"
       d="m 30112.2,4848.74 c -17.7,-21.17 -47.2,-30.27 -73.8,-22.31 -9.4,2.84 -13.5,-11.97 -4,-14.8 31.3,-9.4 67.6,1.12 88.7,26.25 2.7,3.17 3.1,7.75 0,10.86 -2.7,2.73 -8.2,3.18 -10.9,0"
       style="fill:#a46e4a;fill-opacity:1;fill-rule:nonzero;stroke:none"
       transform="matrix(0.03527778,0,0,-0.03527778,-959.01151,321.33644)"
       clip-path="url(#clipPath1885)" />
    <path
       id="path1886"
       d="m 30230.3,5112.66 c -0.6,1.28 -1.3,2.54 -2,3.76 l -1.2,1.93 c -1.4,2.09 0.1,-0.38 0.8,-0.96 -1,0.93 -1.9,2.14 -2.8,3.12 -1,0.98 -2.2,1.81 -3.1,2.82 2.6,-2.81 1.9,-1.44 0.6,-0.56 l -1.6,1.07 c -1.2,0.76 -2.4,1.46 -3.6,2.1 l -1.8,0.84 c -1.4,0.75 3.9,-1.46 0.8,-0.35 -1.3,0.48 -2.6,0.95 -4,1.34 -1.2,0.35 -2.5,0.65 -3.8,0.89 l -2.2,0.39 c 4.7,-0.98 2.3,-0.31 1,-0.21 -2.4,0.17 -6.3,0.74 -8.5,-0.16 0.6,0.25 4.1,0.7 1.5,0.15 l -1.9,-0.39 c -1.4,-0.32 -2.7,-0.71 -4,-1.17 l -1.8,-0.67 c 4.3,1.35 2,0.86 0.9,0.28 -1.4,-0.7 -2.7,-1.5 -4,-2.36 -6.7,-4.47 -17.3,-1.52 -21,5.51 -4.1,7.72 -1.6,16.22 5.5,20.99 26.9,17.93 69,6.65 82.7,-22.87 1.7,-3.84 2.7,-7.61 1.5,-11.83 -1,-3.56 -3.7,-7.42 -7,-9.17 -6.8,-3.58 -17.4,-2.27 -21,5.51"
       style="fill:#1a1a1a;fill-opacity:1;fill-rule:nonzero;stroke:none"
       transform="matrix(0.03527778,0,0,-0.03527778,-959.01151,321.33644)"
       clip-path="url(#clipPath1887)" />
    <path
       id="path1888"
       d="m 29971.5,5133.34 c -1.2,0.86 -2.3,1.67 -3.5,2.41 l -2,1.12 c -2.2,1.24 0.3,-0.25 1.1,-0.47 -1.3,0.36 -2.6,1.05 -3.9,1.46 -1.3,0.41 -2.8,0.59 -4.1,1.04 3.7,-1.26 2.4,-0.38 0.9,-0.18 l -1.9,0.2 c -1.4,0.12 -2.8,0.17 -4.3,0.15 l -1.9,-0.06 c -1.6,0 4.1,0.53 0.9,0.07 -1.4,-0.2 -2.8,-0.4 -4.2,-0.7 -1.3,-0.26 -2.5,-0.58 -3.7,-0.96 l -2.2,-0.72 c 4.6,1.33 2.1,0.8 1,0.29 -2.2,-0.93 -5.9,-2.24 -7.4,-4.07 0.4,0.5 3.2,2.51 1.2,0.8 l -1.5,-1.21 c -1.1,-0.92 -2.1,-1.89 -3,-2.91 l -1.3,-1.43 c 3.2,3.23 1.4,1.71 0.7,0.65 -0.9,-1.26 -1.7,-2.58 -2.5,-3.93 -3.8,-7.08 -14.6,-9.4 -21.1,-4.91 -7.2,4.93 -9,13.6 -4.9,21.14 15.4,28.38 58,38.03 83.8,18.27 3.4,-2.57 5.9,-5.47 6.9,-9.74 0.8,-3.61 0.1,-8.31 -2,-11.41 -4.3,-6.31 -14.3,-10.11 -21.1,-4.9"
       style="fill:#1a1a1a;fill-opacity:1;fill-rule:nonzero;stroke:none"
       transform="matrix(0.03527778,0,0,-0.03527778,-959.01151,321.33644)"
       clip-path="url(#clipPath1889)" />
    <path
       id="path1890"
       d="m 30297.3,4957.3 c 16.5,19.26 35.5,36.24 56.7,50.28 3.4,2.29 4.9,6.78 2.7,10.5 -2,3.43 -7,5.06 -10.5,2.76 -22.2,-14.76 -42.4,-32.44 -59.8,-52.69 -2.6,-3.14 -3,-7.76 0,-10.85 2.8,-2.76 8.2,-3.16 10.9,0"
       style="fill:#a46e4a;fill-opacity:1;fill-rule:nonzero;stroke:none"
       transform="matrix(0.03527778,0,0,-0.03527778,-959.01151,321.33644)"
       clip-path="url(#clipPath1891)" />
    <path
       id="path1892"
       d="m 30316.3,4980.93 c 2.2,-7.95 4.5,-15.9 6.7,-23.85 0.3,1.98 0.5,3.95 0.8,5.92 -0.8,-1.48 -1.8,-2.87 -2.8,-4.27 l 0.1,0.04 -0.9,-0.97 -1.9,-2.1 -1.9,-1.75 -0.9,-0.84 -0.5,-0.39 -0.5,-0.36 -1,-0.72 -2.5,-1.52 c -3.4,-2.03 -5,-7.01 -2.7,-10.5 2.2,-3.49 6.8,-4.92 10.5,-2.75 7.2,4.25 13.8,10.46 17.9,17.83 1.2,2.07 1.6,4.12 1.1,6.46 -0.2,1.13 -0.6,2.25 -0.9,3.36 -0.6,2.23 -1.3,4.47 -1.9,6.7 -1.3,4.6 -2.6,9.19 -3.9,13.79 -1.1,3.86 -5.5,6.64 -9.4,5.35 -4,-1.27 -6.6,-5.3 -5.4,-9.43"
       style="fill:#a46e4a;fill-opacity:1;fill-rule:nonzero;stroke:none"
       transform="matrix(0.03527778,0,0,-0.03527778,-959.01151,321.33644)"
       clip-path="url(#clipPath1893)" />
    <path
       id="path1894"
       d="m 29820.3,5005.61 c 0,0 2.2,-0.92 1.1,-0.43 l 2.1,-0.99 c 1.2,-0.57 2.4,-1.17 3.6,-1.8 2.5,-1.4 4.9,-2.95 7.3,-4.64 1.6,-1.16 3.6,-2.82 5.8,-4.81 2.2,-2.07 4.3,-4.27 6.2,-6.59 3,-3.49 6.3,-8.58 8.8,-13.62 1.4,-2.87 1.7,-3.68 2.8,-6.91 1,-2.87 1.8,-5.8 2.4,-8.77 0.8,-4.06 5.6,-6.4 9.4,-5.36 4.2,1.16 6.2,5.36 5.4,9.44 -5.5,26.96 -25.4,49.35 -50.8,59.27 -3.9,1.51 -8.4,-1.65 -9.5,-5.36 -1.2,-4.34 1.5,-7.92 5.4,-9.43"
       style="fill:#a46e4a;fill-opacity:1;fill-rule:nonzero;stroke:none"
       transform="matrix(0.03527778,0,0,-0.03527778,-959.01151,321.33644)"
       clip-path="url(#clipPath1895)" />
    <path
       id="path1896"
       d="m 29834.7,4992.59 c -7.2,-9.06 -10.9,-20.41 -9.8,-32.03 1,-11.45 5.7,-22.57 14.5,-30.25 3.1,-2.73 7.8,-3.07 10.8,0 2.8,2.79 3.2,8.11 0,10.85 l -2.5,2.37 -0.9,1.01 -0.7,0.81 -0.6,0.87 -0.9,1.44 c -0.5,0.87 -1,1.76 -1.5,2.68 l -0.7,1.54 c -0.4,0.79 0.3,-0.98 -0.1,0.38 -0.4,1.09 -0.8,2.15 -1.1,3.26 -0.3,0.99 -0.5,1.99 -0.7,3 l -0.3,1.69 c 0.2,-1.12 0.1,-0.33 0,0.35 -0.2,2.16 -0.2,4.34 0,6.51 l 0.1,1.36 c 0.2,2.08 -0.3,-0.8 0,0.33 0.3,1.09 0.5,2.25 0.7,3.34 0.3,0.99 0.6,1.97 0.9,2.93 l 0.4,0.99 0.4,0.95 c 0.5,1.02 1.1,2.01 1.7,2.98 l 0.7,1.14 c 0.1,0.12 1.5,1.88 0.5,0.65 2.5,3.24 3.1,7.69 0,10.85 -2.7,2.68 -8.3,3.27 -10.9,0"
       style="fill:#a46e4a;fill-opacity:1;fill-rule:nonzero;stroke:none"
       transform="matrix(0.03527778,0,0,-0.03527778,-959.01151,321.33644)"
       clip-path="url(#clipPath1897)" />
    <path
       id="path1898"
       d="m 30153.8,4724.46 c -6.2,-1.65 -12.9,-2.31 -19.1,-0.32 -6.4,2.09 -11.6,6.98 -17.2,10.88 -21.4,14.92 -52.1,14.62 -73.2,-0.71 -4.6,-3.31 -8.2,-9.77 -13.8,-9.85 -6.1,-0.07 -12.7,1.76 -19.5,5.17 -35,17.39 -39.1,63.07 -8.9,87.13 21.8,17.47 46.5,32.88 65.7,47.86 7.7,6.08 18.9,6.47 27,0.78 13,-9.18 35.9,-24.38 71.6,-45.22 39.1,-22.84 35,-79.23 -8.2,-94.34 -1.4,-0.52 -2.9,-0.98 -4.4,-1.38 z m 130,228.47 c -2,7.39 -11.8,11.29 -18.2,7.23 -1.2,-16.27 -5.5,-45.05 -13.5,-77.09 -7.7,-31.14 -46.5,-45.53 -74.5,-27.32 -26.4,17.16 -59.9,31.95 -99.3,31.95 -38,0 -67.2,-16.35 -89.1,-36.64 -25.6,-23.69 -68.6,-13.54 -80,18.46 -8.4,23.89 -13,47.03 -11.4,66.06 0.4,5.92 -4.1,10.99 -10,10.96 -5.6,-0.02 -10.1,-4.63 -10,-10.26 1.7,-66.73 11.1,-81.33 33.9,-143.96 23.9,-65.84 77.1,-125.4 145.6,-135.85 74.4,-11.35 148.1,39.04 184.9,105.55 36.8,66.52 43.3,114.69 41.6,190.91"
       style="fill:#1a1a1a;fill-opacity:1;fill-rule:nonzero;stroke:none"
       transform="matrix(0.03527778,0,0,-0.03527778,-959.01151,321.33644)"
       clip-path="url(#clipPath1899)" />
    <path
       id="path1900"
       d="m 30362.9,4528.42 c -66.3,-90.9 -163.7,-125.57 -276.8,-121.71 v 0.72 c -2.6,-0.15 -5.1,-0.29 -7.6,-0.42 -2.6,0.13 -5.1,0.27 -7.7,0.42 v -0.72 c -113,-3.86 -205.3,30.81 -271.7,121.71 0,0 -345.8,-66.51 -310,-345.43 0.3,-1.91 371.8,-638.18 622.7,-226.26 v -0.11 c 2.5,0.02 5.1,0.04 7.6,0.05 2.5,-0.01 7.6,0.06 7.6,0.06 295.1,1.98 540.6,224.35 540.8,226.26 23.5,273.81 -304.9,345.43 -304.9,345.43"
       style="fill:#8a8297;fill-opacity:1;fill-rule:nonzero;stroke:none"
       transform="matrix(0.03527778,0,0,-0.03527778,-959.01151,321.33644)"
       clip-path="url(#clipPath1901)" />
    <g
       id="g1917"
       transform="matrix(0.26458333,0,0,0.26458333,-959.01151,-37.177493)">
      <path
         d="m 29644.5,4544.15 c 5.5,-144.67 14.9,-289.18 28.4,-433.32 3.8,-40.8 7.9,-81.57 12.4,-122.3 1,-9.71 16.4,-9.82 15.3,0 -15.7,143.95 -27.4,288.32 -35.2,432.92 -2.2,40.88 -4,81.79 -5.6,122.7 -0.4,9.84 -15.7,9.89 -15.3,0"
         style="fill:#39354c;fill-opacity:1;fill-rule:nonzero;stroke:none"
         transform="matrix(0.13333333,0,0,-0.13333333,0,1355.0133)"
         clip-path="url(#clipPath1902)"
         id="path1910" />
      <path
         d="m 29842.5,4528.62 c -0.3,-131.39 7.1,-262.78 22.4,-393.28 4.3,-36.65 9.2,-73.23 14.6,-109.72 1.5,-9.74 16.3,-5.6 14.8,4.08 -19.2,128.42 -30.9,257.97 -34.9,387.77 -1.1,37.04 -1.6,74.09 -1.5,111.15 0,9.88 -15.4,9.89 -15.4,0"
         style="fill:#39354c;fill-opacity:1;fill-rule:nonzero;stroke:none"
         transform="matrix(0.13333333,0,0,-0.13333333,0,1355.0133)"
         clip-path="url(#clipPath1903)"
         id="path1911" />
      <path
         d="m 30057.2,4536.64 c 15.8,-132.68 31.7,-265.37 47.5,-398.05 4.4,-37.19 8.8,-74.37 13.2,-111.56 1.2,-9.68 16.6,-9.8 15.4,0 -15.8,132.69 -31.6,265.37 -47.4,398.05 -4.5,37.19 -8.9,74.37 -13.3,111.56 -1.2,9.69 -16.5,9.8 -15.4,0"
         style="fill:#39354c;fill-opacity:1;fill-rule:nonzero;stroke:none"
         transform="matrix(0.13333333,0,0,-0.13333333,0,1355.0133)"
         clip-path="url(#clipPath1904)"
         id="path1912" />
      <path
         d="m 30248.2,4528.43 c 4,-72.56 14.3,-144.81 24.2,-216.75 11.1,-80.5 23.3,-160.89 33,-241.58 4.5,-37.72 8.6,-75.55 10.7,-113.49 0.6,-9.82 15.9,-9.88 15.4,0 -4.1,72.56 -14.4,144.8 -24.3,216.74 -11.1,80.51 -23.2,160.89 -32.9,241.59 -4.6,37.72 -8.7,75.54 -10.8,113.49 -0.6,9.82 -15.9,9.88 -15.3,0"
         style="fill:#39354c;fill-opacity:1;fill-rule:nonzero;stroke:none"
         transform="matrix(0.13333333,0,0,-0.13333333,0,1355.0133)"
         clip-path="url(#clipPath1905)"
         id="path1913" />
      <path
         d="m 30424.2,4536.47 c 8.9,-124.23 19.6,-248.34 31.9,-372.27 3.5,-35.41 7.2,-70.81 11,-106.19 1,-9.72 16.4,-9.83 15.3,0 -13.3,123.83 -24.9,247.85 -34.8,372.01 -2.8,35.47 -5.5,70.96 -8.1,106.45 -0.7,9.79 -16,9.87 -15.3,0"
         style="fill:#39354c;fill-opacity:1;fill-rule:nonzero;stroke:none"
         transform="matrix(0.13333333,0,0,-0.13333333,0,1355.0133)"
         clip-path="url(#clipPath1906)"
         id="path1914" />
      <path
         d="m 30554.8,4502.44 c 26.3,-110.84 48.6,-222.6 66.8,-335.05 5.2,-31.72 10,-63.49 14.4,-95.3 1.4,-9.74 16.2,-5.6 14.8,4.08 -15.9,112.79 -35.8,225.01 -59.9,336.35 -6.7,31.41 -13.9,62.74 -21.3,94 -2.3,9.6 -17.1,5.54 -14.8,-4.08"
         style="fill:#39354c;fill-opacity:1;fill-rule:nonzero;stroke:none"
         transform="matrix(0.13333333,0,0,-0.13333333,0,1355.0133)"
         clip-path="url(#clipPath1907)"
         id="path1915" />
      <path
         d="m 29472,4408.08 c 21.9,-93.55 39.5,-188.06 52.9,-283.19 3.8,-27.45 7.3,-54.95 10.4,-82.49 1.1,-9.7 16.5,-9.82 15.3,0 -11,96.96 -26.3,193.43 -46,289 -5.6,27 -11.5,53.92 -17.8,80.76 -2.2,9.62 -17,5.55 -14.8,-4.08"
         style="fill:#39354c;fill-opacity:1;fill-rule:nonzero;stroke:none"
         transform="matrix(0.13333333,0,0,-0.13333333,0,1355.0133)"
         clip-path="url(#clipPath1908)"
         id="path1916" />
      <path
         d="m 29651,4554.18 c 45.7,-71.24 111.7,-126.65 186.3,-156.54 47,-18.83 96.8,-27.62 146.5,-34.42 90.9,-12.45 184.9,-18.28 272.4,11.46 87.4,29.74 167.8,101.41 190.4,198.73 -258.5,42.81 -523.1,41.13 -781.1,-4.96 l -14.5,-14.27"
         style="fill:#ffffff;fill-opacity:1;fill-rule:nonzero;stroke:none"
         transform="matrix(0.13333333,0,0,-0.13333333,0,1355.0133)"
         clip-path="url(#clipPath1909)"
         id="path1917" />
    </g>
  </g>
</svg>
