<?xml version="1.0" encoding="UTF-8" standalone="no"?>
<!-- Created with Inkscape (http://www.inkscape.org/) -->

<svg
   width="64.332558mm"
   height="64.332207mm"
   viewBox="0 0 64.332558 64.332207"
   version="1.1"
   id="svg1"
   inkscape:version="1.3.2 (091e20e, 2023-11-25)"
   sodipodi:docname="redhead-sweater-woman-avatar.svg"
   xmlns:inkscape="http://www.inkscape.org/namespaces/inkscape"
   xmlns:sodipodi="http://sodipodi.sourceforge.net/DTD/sodipodi-0.dtd"
   xmlns="http://www.w3.org/2000/svg"
   xmlns:svg="http://www.w3.org/2000/svg">
  <sodipodi:namedview
     id="namedview1"
     pagecolor="#ffffff"
     bordercolor="#000000"
     borderopacity="0.25"
     inkscape:showpageshadow="2"
     inkscape:pageopacity="0.0"
     inkscape:pagecheckerboard="0"
     inkscape:deskcolor="#d1d1d1"
     inkscape:document-units="mm"
     inkscape:zoom="1.2030496"
     inkscape:cx="-105.14945"
     inkscape:cy="98.499678"
     inkscape:window-width="1920"
     inkscape:window-height="1052"
     inkscape:window-x="0"
     inkscape:window-y="28"
     inkscape:window-maximized="0"
     inkscape:current-layer="layer1" />
  <defs
     id="defs1">
    <clipPath
       clipPathUnits="userSpaceOnUse"
       id="clipPath969">
      <path
         d="m 24475.1,5084.48 c 0,-503.57 -408.2,-911.8 -911.8,-911.8 -503.6,0 -911.8,408.23 -911.8,911.8 0,503.57 408.2,911.79 911.8,911.79 503.6,0 911.8,-408.22 911.8,-911.79"
         transform="translate(0,-2.5e-4)"
         id="path969" />
    </clipPath>
    <clipPath
       clipPathUnits="userSpaceOnUse"
       id="clipPath971">
      <path
         d="m 24475.1,5084.48 c 0,-503.57 -408.2,-911.8 -911.8,-911.8 -503.6,0 -911.8,408.23 -911.8,911.8 0,503.57 408.2,911.79 911.8,911.79 503.6,0 911.8,-408.22 911.8,-911.79"
         transform="translate(0,-2.5e-4)"
         id="path971" />
    </clipPath>
    <clipPath
       clipPathUnits="userSpaceOnUse"
       id="clipPath973">
      <path
         d="m 24475.1,5084.48 c 0,-503.57 -408.2,-911.8 -911.8,-911.8 -503.6,0 -911.8,408.23 -911.8,911.8 0,503.57 408.2,911.79 911.8,911.79 503.6,0 911.8,-408.22 911.8,-911.79"
         transform="translate(0,-2.5e-4)"
         id="path973" />
    </clipPath>
    <clipPath
       clipPathUnits="userSpaceOnUse"
       id="clipPath974">
      <path
         d="m 24026.7,4580.08 c -84.9,56.8 -187.4,79.56 -287.5,99.66 -6.1,1.23 -12.4,2.56 -17.3,6.4 -8.4,6.55 10.6,227.64 0,324.3 l -142.9,-13.38 -142.9,13.38 c -10.7,-96.66 8.4,-317.75 0,-324.3 -4.9,-3.84 -11.3,-5.17 -17.4,-6.4 -100.1,-20.1 -202.6,-42.86 -287.4,-99.66 -84.8,-56.81 -149.1,-155.89 -135.4,-257.07 85.1,0.44 322.9,-1.1 563.7,-4.26 v -0.53 c 6.5,0.09 12.9,0.18 19.4,0.27 6.4,-0.09 12.9,-0.18 19.3,-0.27 v 0.53 c 240.9,3.16 478.7,4.7 563.8,4.26 13.6,101.18 -50.6,200.26 -135.4,257.07"
         transform="translate(0,-2.5e-4)"
         id="path974" />
    </clipPath>
    <clipPath
       clipPathUnits="userSpaceOnUse"
       id="clipPath977">
      <path
         d="m 24475.1,5084.48 c 0,-503.57 -408.2,-911.8 -911.8,-911.8 -503.6,0 -911.8,408.23 -911.8,911.8 0,503.57 408.2,911.79 911.8,911.79 503.6,0 911.8,-408.22 911.8,-911.79"
         transform="translate(0,-2.5e-4)"
         id="path977" />
    </clipPath>
    <clipPath
       clipPathUnits="userSpaceOnUse"
       id="clipPath979">
      <path
         d="m 24475.1,5084.48 c 0,-503.57 -408.2,-911.8 -911.8,-911.8 -503.6,0 -911.8,408.23 -911.8,911.8 0,503.57 408.2,911.79 911.8,911.79 503.6,0 911.8,-408.22 911.8,-911.79"
         transform="translate(0,-2.5e-4)"
         id="path979" />
    </clipPath>
    <clipPath
       clipPathUnits="userSpaceOnUse"
       id="clipPath981">
      <path
         d="m 24475.1,5084.48 c 0,-503.57 -408.2,-911.8 -911.8,-911.8 -503.6,0 -911.8,408.23 -911.8,911.8 0,503.57 408.2,911.79 911.8,911.79 503.6,0 911.8,-408.22 911.8,-911.79"
         transform="translate(0,-2.5e-4)"
         id="path981" />
    </clipPath>
    <clipPath
       clipPathUnits="userSpaceOnUse"
       id="clipPath983">
      <path
         d="m 24475.1,5084.48 c 0,-503.57 -408.2,-911.8 -911.8,-911.8 -503.6,0 -911.8,408.23 -911.8,911.8 0,503.57 408.2,911.79 911.8,911.79 503.6,0 911.8,-408.22 911.8,-911.79"
         transform="translate(0,-2.5e-4)"
         id="path983" />
    </clipPath>
    <clipPath
       clipPathUnits="userSpaceOnUse"
       id="clipPath985">
      <path
         d="m 24475.1,5084.48 c 0,-503.57 -408.2,-911.8 -911.8,-911.8 -503.6,0 -911.8,408.23 -911.8,911.8 0,503.57 408.2,911.79 911.8,911.79 503.6,0 911.8,-408.22 911.8,-911.79"
         transform="translate(0,-2.5e-4)"
         id="path985" />
    </clipPath>
    <clipPath
       clipPathUnits="userSpaceOnUse"
       id="clipPath987">
      <path
         d="m 24475.1,5084.48 c 0,-503.57 -408.2,-911.8 -911.8,-911.8 -503.6,0 -911.8,408.23 -911.8,911.8 0,503.57 408.2,911.79 911.8,911.79 503.6,0 911.8,-408.22 911.8,-911.79"
         transform="translate(0,-2.5e-4)"
         id="path987" />
    </clipPath>
    <clipPath
       clipPathUnits="userSpaceOnUse"
       id="clipPath989">
      <path
         d="m 24475.1,5084.48 c 0,-503.57 -408.2,-911.8 -911.8,-911.8 -503.6,0 -911.8,408.23 -911.8,911.8 0,503.57 408.2,911.79 911.8,911.79 503.6,0 911.8,-408.22 911.8,-911.79"
         transform="translate(0,-2.5e-4)"
         id="path989" />
    </clipPath>
    <clipPath
       clipPathUnits="userSpaceOnUse"
       id="clipPath991">
      <path
         d="m 24475.1,5084.48 c 0,-503.57 -408.2,-911.8 -911.8,-911.8 -503.6,0 -911.8,408.23 -911.8,911.8 0,503.57 408.2,911.79 911.8,911.79 503.6,0 911.8,-408.22 911.8,-911.79"
         transform="translate(0,-2.5e-4)"
         id="path991" />
    </clipPath>
    <clipPath
       clipPathUnits="userSpaceOnUse"
       id="clipPath993">
      <path
         d="m 24475.1,5084.48 c 0,-503.57 -408.2,-911.8 -911.8,-911.8 -503.6,0 -911.8,408.23 -911.8,911.8 0,503.57 408.2,911.79 911.8,911.79 503.6,0 911.8,-408.22 911.8,-911.79"
         transform="translate(0,-2.5e-4)"
         id="path993" />
    </clipPath>
    <clipPath
       clipPathUnits="userSpaceOnUse"
       id="clipPath995">
      <path
         d="m 24475.1,5084.48 c 0,-503.57 -408.2,-911.8 -911.8,-911.8 -503.6,0 -911.8,408.23 -911.8,911.8 0,503.57 408.2,911.79 911.8,911.79 503.6,0 911.8,-408.22 911.8,-911.79"
         transform="translate(0,-2.5e-4)"
         id="path995" />
    </clipPath>
    <clipPath
       clipPathUnits="userSpaceOnUse"
       id="clipPath997">
      <path
         d="m 24475.1,5084.48 c 0,-503.57 -408.2,-911.8 -911.8,-911.8 -503.6,0 -911.8,408.23 -911.8,911.8 0,503.57 408.2,911.79 911.8,911.79 503.6,0 911.8,-408.22 911.8,-911.79"
         transform="translate(0,-2.5e-4)"
         id="path997" />
    </clipPath>
    <clipPath
       clipPathUnits="userSpaceOnUse"
       id="clipPath999">
      <path
         d="m 24475.1,5084.48 c 0,-503.57 -408.2,-911.8 -911.8,-911.8 -503.6,0 -911.8,408.23 -911.8,911.8 0,503.57 408.2,911.79 911.8,911.79 503.6,0 911.8,-408.22 911.8,-911.79"
         transform="translate(0,-2.5e-4)"
         id="path999" />
    </clipPath>
    <clipPath
       clipPathUnits="userSpaceOnUse"
       id="clipPath1001">
      <path
         d="m 24475.1,5084.48 c 0,-503.57 -408.2,-911.8 -911.8,-911.8 -503.6,0 -911.8,408.23 -911.8,911.8 0,503.57 408.2,911.79 911.8,911.79 503.6,0 911.8,-408.22 911.8,-911.79"
         transform="translate(0,-2.5e-4)"
         id="path1001" />
    </clipPath>
    <clipPath
       clipPathUnits="userSpaceOnUse"
       id="clipPath1003">
      <path
         d="m 24475.1,5084.48 c 0,-503.57 -408.2,-911.8 -911.8,-911.8 -503.6,0 -911.8,408.23 -911.8,911.8 0,503.57 408.2,911.79 911.8,911.79 503.6,0 911.8,-408.22 911.8,-911.79"
         transform="translate(0,-2.5e-4)"
         id="path1003" />
    </clipPath>
    <clipPath
       clipPathUnits="userSpaceOnUse"
       id="clipPath1005">
      <path
         d="m 24475.1,5084.48 c 0,-503.57 -408.2,-911.8 -911.8,-911.8 -503.6,0 -911.8,408.23 -911.8,911.8 0,503.57 408.2,911.79 911.8,911.79 503.6,0 911.8,-408.22 911.8,-911.79"
         transform="translate(0,-2.5e-4)"
         id="path1005" />
    </clipPath>
    <clipPath
       clipPathUnits="userSpaceOnUse"
       id="clipPath1007">
      <path
         d="m 24475.1,5084.48 c 0,-503.57 -408.2,-911.8 -911.8,-911.8 -503.6,0 -911.8,408.23 -911.8,911.8 0,503.57 408.2,911.79 911.8,911.79 503.6,0 911.8,-408.22 911.8,-911.79"
         transform="translate(0,-2.5e-4)"
         id="path1007" />
    </clipPath>
    <clipPath
       clipPathUnits="userSpaceOnUse"
       id="clipPath1009">
      <path
         d="m 24475.1,5084.48 c 0,-503.57 -408.2,-911.8 -911.8,-911.8 -503.6,0 -911.8,408.23 -911.8,911.8 0,503.57 408.2,911.79 911.8,911.79 503.6,0 911.8,-408.22 911.8,-911.79"
         transform="translate(0,-2.5e-4)"
         id="path1009" />
    </clipPath>
    <clipPath
       clipPathUnits="userSpaceOnUse"
       id="clipPath1011">
      <path
         d="m 24475.1,5084.48 c 0,-503.57 -408.2,-911.8 -911.8,-911.8 -503.6,0 -911.8,408.23 -911.8,911.8 0,503.57 408.2,911.79 911.8,911.79 503.6,0 911.8,-408.22 911.8,-911.79"
         transform="translate(0,-2.5e-4)"
         id="path1011" />
    </clipPath>
    <clipPath
       clipPathUnits="userSpaceOnUse"
       id="clipPath1013">
      <path
         d="m 24475.1,5084.48 c 0,-503.57 -408.2,-911.8 -911.8,-911.8 -503.6,0 -911.8,408.23 -911.8,911.8 0,503.57 408.2,911.79 911.8,911.79 503.6,0 911.8,-408.22 911.8,-911.79"
         transform="translate(0,-2.5e-4)"
         id="path1013" />
    </clipPath>
    <clipPath
       clipPathUnits="userSpaceOnUse"
       id="clipPath1015">
      <path
         d="m 24475.1,5084.48 c 0,-503.57 -408.2,-911.8 -911.8,-911.8 -503.6,0 -911.8,408.23 -911.8,911.8 0,503.57 408.2,911.79 911.8,911.79 503.6,0 911.8,-408.22 911.8,-911.79"
         transform="translate(0,-2.5e-4)"
         id="path1015" />
    </clipPath>
    <clipPath
       clipPathUnits="userSpaceOnUse"
       id="clipPath1017">
      <path
         d="m 24475.1,5084.48 c 0,-503.57 -408.2,-911.8 -911.8,-911.8 -503.6,0 -911.8,408.23 -911.8,911.8 0,503.57 408.2,911.79 911.8,911.79 503.6,0 911.8,-408.22 911.8,-911.79"
         transform="translate(0,-2.5e-4)"
         id="path1017" />
    </clipPath>
    <clipPath
       clipPathUnits="userSpaceOnUse"
       id="clipPath1019">
      <path
         d="m 24475.1,5084.48 c 0,-503.57 -408.2,-911.8 -911.8,-911.8 -503.6,0 -911.8,408.23 -911.8,911.8 0,503.57 408.2,911.79 911.8,911.79 503.6,0 911.8,-408.22 911.8,-911.79"
         transform="translate(0,-2.5e-4)"
         id="path1019" />
    </clipPath>
    <clipPath
       clipPathUnits="userSpaceOnUse"
       id="clipPath1021">
      <path
         d="m 24475.1,5084.48 c 0,-503.57 -408.2,-911.8 -911.8,-911.8 -503.6,0 -911.8,408.23 -911.8,911.8 0,503.57 408.2,911.79 911.8,911.79 503.6,0 911.8,-408.22 911.8,-911.79"
         transform="translate(0,-2.5e-4)"
         id="path1021" />
    </clipPath>
    <clipPath
       clipPathUnits="userSpaceOnUse"
       id="clipPath1023">
      <path
         d="m 24475.1,5084.48 c 0,-503.57 -408.2,-911.8 -911.8,-911.8 -503.6,0 -911.8,408.23 -911.8,911.8 0,503.57 408.2,911.79 911.8,911.79 503.6,0 911.8,-408.22 911.8,-911.79"
         transform="translate(0,-2.5e-4)"
         id="path1023" />
    </clipPath>
    <clipPath
       clipPathUnits="userSpaceOnUse"
       id="clipPath1025">
      <path
         d="m 24475.1,5084.48 c 0,-503.57 -408.2,-911.8 -911.8,-911.8 -503.6,0 -911.8,408.23 -911.8,911.8 0,503.57 408.2,911.79 911.8,911.79 503.6,0 911.8,-408.22 911.8,-911.79"
         transform="translate(0,-2.5e-4)"
         id="path1025" />
    </clipPath>
    <clipPath
       clipPathUnits="userSpaceOnUse"
       id="clipPath1027">
      <path
         d="m 24475.1,5084.48 c 0,-503.57 -408.2,-911.8 -911.8,-911.8 -503.6,0 -911.8,408.23 -911.8,911.8 0,503.57 408.2,911.79 911.8,911.79 503.6,0 911.8,-408.22 911.8,-911.79"
         transform="translate(0,-2.5e-4)"
         id="path1027" />
    </clipPath>
    <clipPath
       clipPathUnits="userSpaceOnUse"
       id="clipPath1029">
      <path
         d="m 24475.1,5084.48 c 0,-503.57 -408.2,-911.8 -911.8,-911.8 -503.6,0 -911.8,408.23 -911.8,911.8 0,503.57 408.2,911.79 911.8,911.79 503.6,0 911.8,-408.22 911.8,-911.79"
         transform="translate(0,-2.5e-4)"
         id="path1029" />
    </clipPath>
    <clipPath
       clipPathUnits="userSpaceOnUse"
       id="clipPath1031">
      <path
         d="m 24475.1,5084.48 c 0,-503.57 -408.2,-911.8 -911.8,-911.8 -503.6,0 -911.8,408.23 -911.8,911.8 0,503.57 408.2,911.79 911.8,911.79 503.6,0 911.8,-408.22 911.8,-911.79"
         transform="translate(0,-2.5e-4)"
         id="path1031" />
    </clipPath>
    <clipPath
       clipPathUnits="userSpaceOnUse"
       id="clipPath1033">
      <path
         d="m 24475.1,5084.48 c 0,-503.57 -408.2,-911.8 -911.8,-911.8 -503.6,0 -911.8,408.23 -911.8,911.8 0,503.57 408.2,911.79 911.8,911.79 503.6,0 911.8,-408.22 911.8,-911.79"
         transform="translate(0,-2.5e-4)"
         id="path1033" />
    </clipPath>
    <clipPath
       clipPathUnits="userSpaceOnUse"
       id="clipPath1035">
      <path
         d="m 24475.1,5084.48 c 0,-503.57 -408.2,-911.8 -911.8,-911.8 -503.6,0 -911.8,408.23 -911.8,911.8 0,503.57 408.2,911.79 911.8,911.79 503.6,0 911.8,-408.22 911.8,-911.79"
         transform="translate(0,-2.5e-4)"
         id="path1035" />
    </clipPath>
    <clipPath
       clipPathUnits="userSpaceOnUse"
       id="clipPath1037">
      <path
         d="m 24475.1,5084.48 c 0,-503.57 -408.2,-911.8 -911.8,-911.8 -503.6,0 -911.8,408.23 -911.8,911.8 0,503.57 408.2,911.79 911.8,911.79 503.6,0 911.8,-408.22 911.8,-911.79"
         transform="translate(0,-2.5e-4)"
         id="path1037" />
    </clipPath>
    <clipPath
       clipPathUnits="userSpaceOnUse"
       id="clipPath1039">
      <path
         d="m 24475.1,5084.48 c 0,-503.57 -408.2,-911.8 -911.8,-911.8 -503.6,0 -911.8,408.23 -911.8,911.8 0,503.57 408.2,911.79 911.8,911.79 503.6,0 911.8,-408.22 911.8,-911.79"
         transform="translate(0,-2.5e-4)"
         id="path1039" />
    </clipPath>
    <clipPath
       clipPathUnits="userSpaceOnUse"
       id="clipPath1041">
      <path
         d="m 24475.1,5084.48 c 0,-503.57 -408.2,-911.8 -911.8,-911.8 -503.6,0 -911.8,408.23 -911.8,911.8 0,503.57 408.2,911.79 911.8,911.79 503.6,0 911.8,-408.22 911.8,-911.79"
         transform="translate(0,-2.5e-4)"
         id="path1041" />
    </clipPath>
    <clipPath
       clipPathUnits="userSpaceOnUse"
       id="clipPath1043">
      <path
         d="m 24475.1,5084.48 c 0,-503.57 -408.2,-911.8 -911.8,-911.8 -503.6,0 -911.8,408.23 -911.8,911.8 0,503.57 408.2,911.79 911.8,911.79 503.6,0 911.8,-408.22 911.8,-911.79"
         transform="translate(0,-2.5e-4)"
         id="path1043" />
    </clipPath>
    <clipPath
       clipPathUnits="userSpaceOnUse"
       id="clipPath1045">
      <path
         d="m 24475.1,5084.48 c 0,-503.57 -408.2,-911.8 -911.8,-911.8 -503.6,0 -911.8,408.23 -911.8,911.8 0,503.57 408.2,911.79 911.8,911.79 503.6,0 911.8,-408.22 911.8,-911.79"
         transform="translate(0,-2.5e-4)"
         id="path1045" />
    </clipPath>
    <clipPath
       clipPathUnits="userSpaceOnUse"
       id="clipPath1047">
      <path
         d="m 24475.1,5084.48 c 0,-503.57 -408.2,-911.8 -911.8,-911.8 -503.6,0 -911.8,408.23 -911.8,911.8 0,503.57 408.2,911.79 911.8,911.79 503.6,0 911.8,-408.22 911.8,-911.79"
         transform="translate(0,-2.5e-4)"
         id="path1047" />
    </clipPath>
    <clipPath
       clipPathUnits="userSpaceOnUse"
       id="clipPath1049">
      <path
         d="m 24475.1,5084.48 c 0,-503.57 -408.2,-911.8 -911.8,-911.8 -503.6,0 -911.8,408.23 -911.8,911.8 0,503.57 408.2,911.79 911.8,911.79 503.6,0 911.8,-408.22 911.8,-911.79"
         transform="translate(0,-2.5e-4)"
         id="path1049" />
    </clipPath>
    <clipPath
       clipPathUnits="userSpaceOnUse"
       id="clipPath1051">
      <path
         d="m 24475.1,5084.48 c 0,-503.57 -408.2,-911.8 -911.8,-911.8 -503.6,0 -911.8,408.23 -911.8,911.8 0,503.57 408.2,911.79 911.8,911.79 503.6,0 911.8,-408.22 911.8,-911.79"
         transform="translate(0,-2.5e-4)"
         id="path1051" />
    </clipPath>
  </defs>
  <g
     inkscape:label="Layer 1"
     inkscape:groupmode="layer"
     id="layer1"
     transform="translate(-48.418824,-81.227055)">
    <path
       id="path968"
       d="m 24475.1,4172.69 h -1823.6 v 1823.58 h 1823.6 V 4172.69"
       style="fill:#a59effff;fill-opacity:1;fill-rule:nonzero;stroke:none"
       transform="matrix(0.03527778,0,0,-0.03527778,-750.67581,292.76214)"
       clip-path="url(#clipPath969)" />
    <path
       id="path970"
       d="m 23230.6,4513.13 c 95.8,4.6 191.5,31.53 274.6,85.11 78.5,50.63 143.5,123.17 207.6,194.85 38,42.6 76.4,85.64 105.1,136.51 51.4,90.89 68.5,199.98 84.6,305.94 8.3,54.53 16.6,110.57 6.7,164.77 -28,153.34 -191.3,231.03 -330.9,216.91 -119.2,-12.07 -241.6,-82.08 -288.2,-205.22 -36.4,-96.01 -22.3,-208.54 -58,-304.87 -49.7,-134.12 -190,-222.4 -199.4,-367.16 -2.2,-34.03 3.5,-68.64 -2.3,-102.16 -6.4,-37.58 -26.5,-70.84 -33.2,-108.37 -10.4,-59 15.9,-121.7 58.7,-158.19 42.8,-36.5 99.5,-48.84 153,-42.83 0.2,69.6 26.4,138.69 71.2,187.11 l -49.5,-2.4"
       style="fill:#ef6a55;fill-opacity:1;fill-rule:nonzero;stroke:none"
       transform="matrix(0.03527778,0,0,-0.03527778,-750.67581,292.76214)"
       clip-path="url(#clipPath971)" />
    <path
       id="path972"
       d="m 24026.7,4580.08 c -84.9,56.81 -187.4,79.56 -287.5,99.66 -6.1,1.23 -12.4,2.56 -17.3,6.39 -8.4,6.57 10.6,227.65 0,324.31 l -142.9,-13.38 -142.9,13.38 c -10.7,-96.66 8.4,-317.74 0,-324.31 -4.9,-3.83 -11.2,-5.16 -17.4,-6.39 -100.1,-20.1 -202.6,-42.85 -287.4,-99.66 -84.8,-56.81 -149.1,-155.89 -135.4,-257.07 85.1,0.44 322.9,-1.1 563.7,-4.27 v -0.52 c 6.5,0.09 12.9,0.18 19.4,0.27 6.4,-0.09 12.9,-0.18 19.3,-0.27 v 0.52 c 240.9,3.17 478.7,4.71 563.8,4.27 13.6,101.18 -50.6,200.26 -135.4,257.07"
       style="fill:#fbd1b9;fill-opacity:1;fill-rule:nonzero;stroke:none"
       transform="matrix(0.03527778,0,0,-0.03527778,-750.67581,292.76214)"
       clip-path="url(#clipPath973)" />
    <g
       id="g975"
       transform="matrix(0.26458333,0,0,0.26458333,-750.67581,-65.751787)">
      <path
         d="m 23245.9,5013.55 c 56.4,36.29 58.8,53.71 61.5,36.29 13.3,-85.55 148.6,-291.66 271.5,-291.66 159.1,0 251.5,268.61 266.4,336.3 -183.9,-26.28 -370.2,-52.61 -554.7,-30.49 5.1,-4.78 10.1,-9.56 15.2,-14.34 l -59.9,-36.1"
         style="fill:#dba78a;fill-opacity:1;fill-rule:nonzero;stroke:none"
         transform="matrix(0.13333333,0,0,-0.13333333,0,1355.0133)"
         clip-path="url(#clipPath974)"
         id="path975" />
    </g>
    <path
       id="path976"
       d="m 23367,5482.5 c -32.8,-110.93 -24.7,-305.31 0,-418.32 l 0.4,-1.82 c 13.4,-60.66 34.9,-121.24 75.2,-168.45 40.4,-47.22 102.6,-79.14 164.1,-70.77 59.6,8.1 109.5,52.32 138.6,104.92 29,52.6 40.2,113.02 48.3,172.56 14.1,103.66 10.4,378.98 0.4,379.83 -128.2,10.85 -302.2,37.11 -427,5.64 v -3.59"
       style="fill:#fbd1b9;fill-opacity:1;fill-rule:nonzero;stroke:none"
       transform="matrix(0.03527778,0,0,-0.03527778,-750.67581,292.76214)"
       clip-path="url(#clipPath977)" />
    <path
       id="path978"
       d="m 23788.5,5143.56 c 3.1,22.83 30.6,37.1 52.6,30.41 22.1,-6.7 36.6,-29.6 38.3,-52.58 1.6,-22.99 -7.7,-45.61 -20.9,-64.51 -22,-31.52 -60.6,-55.99 -97.8,-46.24 5.9,47.27 14.4,94.22 25.3,140.57 l 2.5,-7.65"
       style="fill:#fbd1b9;fill-opacity:1;fill-rule:nonzero;stroke:none"
       transform="matrix(0.03527778,0,0,-0.03527778,-750.67581,292.76214)"
       clip-path="url(#clipPath979)" />
    <path
       id="path980"
       d="m 23370.4,5143.56 c -3.1,22.83 -30.6,37.1 -52.7,30.41 -22,-6.7 -36.6,-29.6 -38.2,-52.58 -1.7,-22.99 7.7,-45.61 20.8,-64.51 22,-31.52 60.7,-55.99 97.9,-46.24 -5.9,47.27 -14.4,94.22 -25.4,140.57 l -2.4,-7.65"
       style="fill:#fbd1b9;fill-opacity:1;fill-rule:nonzero;stroke:none"
       transform="matrix(0.03527778,0,0,-0.03527778,-750.67581,292.76214)"
       clip-path="url(#clipPath981)" />
    <path
       id="path982"
       d="m 23333,5231.25 c 56.9,-4.78 112.4,17.6 154.5,52.45 42,34.85 76,77.12 119.2,110.79 44.3,34.49 97.7,59.28 154.5,71.68 -15.1,-84.59 12.8,-170.09 40.3,-252.09 14.9,78.32 29.9,158.12 17.9,236.85 -3.5,23.65 -10.9,49.01 -31.9,63.46 -16.9,11.61 -39.3,13.84 -60.5,15.27 -114.7,7.78 -230.3,4.55 -344.2,-9.6 -8.8,-1.1 -17.9,-2.38 -25.2,-6.96 -10,-6.29 -14.5,-17.46 -17.8,-28.05 -25.9,-82.46 -15.6,-170.19 -5.1,-255.38 l -1.7,1.58"
       style="fill:#ef6a55;fill-opacity:1;fill-rule:nonzero;stroke:none"
       transform="matrix(0.03527778,0,0,-0.03527778,-750.67581,292.76214)"
       clip-path="url(#clipPath983)" />
    <path
       id="path984"
       d="m 23786.5,5475.52 c 2.2,3.82 4.5,7.58 7,11.24 1.2,1.83 2.4,3.64 3.7,5.43 l 2,2.66 0.9,1.18 c 0.8,1.08 -1.1,-1.36 0.4,0.48 5.4,6.93 11.4,13.46 17.7,19.57 2.9,2.78 3,8.1 0,10.86 -3.1,2.87 -7.7,2.98 -10.8,0 -13.4,-12.81 -25,-27.6 -34.2,-43.67 -2,-3.49 -0.9,-8.56 2.8,-10.51 3.6,-1.93 8.4,-0.97 10.5,2.76"
       style="fill:#a3362b;fill-opacity:1;fill-rule:nonzero;stroke:none"
       transform="matrix(0.03527778,0,0,-0.03527778,-750.67581,292.76214)"
       clip-path="url(#clipPath985)" />
    <path
       id="path986"
       d="m 23795.4,5400.16 c -1.5,-52.98 10.2,-105.56 33.8,-152.98 4.4,-8.85 17.7,-1.08 13.3,7.76 -22.4,45 -33.2,94.99 -31.8,145.22 0.3,9.89 -15.1,9.88 -15.3,0"
       style="fill:#a3362b;fill-opacity:1;fill-rule:nonzero;stroke:none"
       transform="matrix(0.03527778,0,0,-0.03527778,-750.67581,292.76214)"
       clip-path="url(#clipPath987)" />
    <path
       id="path988"
       d="m 23850.5,5352.99 c 2.6,-22.24 5.1,-44.48 7.7,-66.72 0.5,-4.12 3.2,-7.68 7.7,-7.68 3.8,0 8.2,3.53 7.7,7.68 -2.6,22.24 -5.2,44.48 -7.8,66.72 -0.4,4.12 -3.1,7.68 -7.6,7.68 -3.8,0 -8.2,-3.53 -7.7,-7.68"
       style="fill:#a3362b;fill-opacity:1;fill-rule:nonzero;stroke:none"
       transform="matrix(0.03527778,0,0,-0.03527778,-750.67581,292.76214)"
       clip-path="url(#clipPath989)" />
    <path
       id="path990"
       d="m 23206.2,4998.92 c -12,-30.3 -27.1,-59.32 -45.1,-86.48 -17.2,-25.96 -38.6,-49.45 -52.4,-77.55 -27.5,-55.91 -18.9,-119.59 -32,-178.89 -6.6,-29.8 -18.7,-58.62 -42.1,-79.03 -7.5,-6.51 3.4,-17.34 10.9,-10.87 44.5,38.75 50.5,101.28 54.9,156.35 2.5,31.75 5.2,64.11 16.9,94.04 11.7,30.01 33.8,54.32 51.9,80.51 21,30.48 38.2,63.39 51.8,97.84 3.7,9.2 -11.2,13.19 -14.8,4.08"
       style="fill:#a3362b;fill-opacity:1;fill-rule:nonzero;stroke:none"
       transform="matrix(0.03527778,0,0,-0.03527778,-750.67581,292.76214)"
       clip-path="url(#clipPath991)" />
    <path
       id="path992"
       d="m 23148.3,4785.88 c 8.8,-56.69 -4.2,-115.59 -35,-163.8 -5.4,-8.35 7.9,-16.06 13.2,-7.75 33.3,51.9 46.1,114.82 36.7,175.63 -1.5,9.74 -16.4,5.61 -14.9,-4.08"
       style="fill:#a3362b;fill-opacity:1;fill-rule:nonzero;stroke:none"
       transform="matrix(0.03527778,0,0,-0.03527778,-750.67581,292.76214)"
       clip-path="url(#clipPath993)" />
    <path
       id="path994"
       d="m 23247.8,4803.85 c 0.8,-20.59 -2,-40.92 -8.3,-60.55 -3,-9.44 11.8,-13.49 14.8,-4.09 6.7,20.82 9.7,42.81 8.9,64.64 -0.2,4.15 -3.5,7.69 -7.7,7.69 -4.1,0 -7.9,-3.52 -7.7,-7.69"
       style="fill:#a3362b;fill-opacity:1;fill-rule:nonzero;stroke:none"
       transform="matrix(0.03527778,0,0,-0.03527778,-750.67581,292.76214)"
       clip-path="url(#clipPath995)" />
    <path
       id="path996"
       d="m 23317.6,5109.5 c 16.8,-15.18 32.1,-32.17 45.1,-50.43 2.4,-3.37 6.7,-4.98 10.5,-2.75 3.3,1.95 5.2,7.11 2.7,10.51 -13.8,19.48 -29.7,37.48 -47.4,53.54 -3.1,2.78 -7.9,3.04 -10.9,0 -2.8,-2.83 -3.1,-8.07 0,-10.87"
       style="fill:#a46e4a;fill-opacity:1;fill-rule:nonzero;stroke:none"
       transform="matrix(0.03527778,0,0,-0.03527778,-750.67581,292.76214)"
       clip-path="url(#clipPath997)" />
    <path
       id="path998"
       d="m 23333.2,5057.17 c 9.3,5.02 18.5,10.05 27.8,15.07 3.5,1.92 5,7.11 2.8,10.52 -2.4,3.59 -6.8,4.81 -10.6,2.75 -9.2,-5.02 -18.5,-10.05 -27.8,-15.07 -3.5,-1.92 -4.9,-7.11 -2.7,-10.52 2.3,-3.59 6.7,-4.81 10.5,-2.75"
       style="fill:#a46e4a;fill-opacity:1;fill-rule:nonzero;stroke:none"
       transform="matrix(0.03527778,0,0,-0.03527778,-750.67581,292.76214)"
       clip-path="url(#clipPath999)" />
    <path
       id="path1000"
       d="m 23803.5,5086.34 c 0.9,1.77 1.8,3.49 2.9,5.17 l 1.6,2.47 1.7,2.39 v -0.07 l 0.8,1.03 2,2.21 c 1.3,1.45 2.7,2.83 4.2,4.15 l 2.2,1.92 c 0.2,0.16 1.4,1.15 0.5,0.4 -0.9,-0.74 0.3,0.23 0.5,0.38 1.6,1.17 3.3,2.26 4.9,3.28 1.7,1.02 3.5,1.95 5.2,2.81 l 2.5,1.11 c -2,-0.66 -0.2,-0.11 0.1,0.03 l 1.5,0.56 c 3.8,1.37 6.8,5.29 5.4,9.46 -1.2,3.7 -5.4,6.82 -9.4,5.36 -17.1,-6.16 -31.7,-18.57 -39.9,-34.9 -1.8,-3.59 -1,-8.49 2.8,-10.51 3.5,-1.84 8.6,-1.09 10.5,2.75"
       style="fill:#a46e4a;fill-opacity:1;fill-rule:nonzero;stroke:none"
       transform="matrix(0.03527778,0,0,-0.03527778,-750.67581,292.76214)"
       clip-path="url(#clipPath1001)" />
    <path
       id="path1002"
       d="m 23797.7,5086.21 c 4,-5.21 7.9,-10.43 11.9,-15.65 l 2,-2.15 c 0.7,-0.68 1.6,-1.14 2.6,-1.38 1.8,-0.5 4.3,-0.28 5.9,0.78 1.6,1.05 3.1,2.63 3.5,4.59 0.4,1.88 0.5,4.31 -0.8,5.92 -3.9,5.22 -7.8,10.43 -11.8,15.65 l -2,2.15 c -0.7,0.68 -1.6,1.14 -2.6,1.38 -1.8,0.51 -4.3,0.28 -5.9,-0.77 -1.6,-1.06 -3.1,-2.64 -3.5,-4.6 -0.5,-1.87 -0.5,-4.31 0.7,-5.92"
       style="fill:#a46e4a;fill-opacity:1;fill-rule:nonzero;stroke:none"
       transform="matrix(0.03527778,0,0,-0.03527778,-750.67581,292.76214)"
       clip-path="url(#clipPath1003)" />
    <path
       id="path1004"
       d="m 23469.7,5175.17 c 0,-16.01 -11.9,-28.99 -26.5,-28.99 -14.6,0 -26.4,12.98 -26.4,28.99 0,16.01 11.8,28.99 26.4,28.99 14.6,0 26.5,-12.98 26.5,-28.99"
       style="fill:#1a1a1a;fill-opacity:1;fill-rule:nonzero;stroke:none"
       transform="matrix(0.03527778,0,0,-0.03527778,-750.67581,292.76214)"
       clip-path="url(#clipPath1005)" />
    <path
       id="path1006"
       d="m 23731.8,5175.17 c 0,-16.01 -11.8,-28.99 -26.4,-28.99 -14.6,0 -26.4,12.98 -26.4,28.99 0,16.01 11.8,28.99 26.4,28.99 14.6,0 26.4,-12.98 26.4,-28.99"
       style="fill:#1a1a1a;fill-opacity:1;fill-rule:nonzero;stroke:none"
       transform="matrix(0.03527778,0,0,-0.03527778,-750.67581,292.76214)"
       clip-path="url(#clipPath1007)" />
    <path
       id="path1008"
       d="m 23522.3,4952.85 c 5.7,16.48 19.3,30.62 36.3,34.54 16.9,3.92 36.6,-3.91 44.3,-19.55 10.1,-20.66 -6,-48.65 -28.8,-51.75 -22.8,-3.1 -45.2,17.74 -45.4,40.75 l -6.4,-3.99"
       style="fill:#ef6a55;fill-opacity:1;fill-rule:nonzero;stroke:none"
       transform="matrix(0.03527778,0,0,-0.03527778,-750.67581,292.76214)"
       clip-path="url(#clipPath1009)" />
    <path
       id="path1010"
       d="m 23497.2,4959.82 c 42.5,-33.84 108.5,-30.27 146.1,9.48 6.8,7.19 -4.1,18.07 -10.9,10.87 -31.4,-33.17 -88.3,-38.22 -124.3,-9.48 -7.6,6.1 -18.6,-4.7 -10.9,-10.87"
       style="fill:#a46e4a;fill-opacity:1;fill-rule:nonzero;stroke:none"
       transform="matrix(0.03527778,0,0,-0.03527778,-750.67581,292.76214)"
       clip-path="url(#clipPath1011)" />
    <path
       id="path1012"
       d="m 23535.9,5197.82 c -7.3,-37 -13.2,-74.25 -17.7,-111.69 -1.9,-15.73 -4.1,-33.82 5.6,-47.64 7.7,-10.97 22.2,-18.31 35.3,-12.91 9.1,3.7 5.1,18.57 -4,14.81 -11.2,-4.58 -20.1,5.84 -22.3,15.92 -3.1,14.22 0.7,30.48 2.6,44.67 4.1,31.08 9.3,62.01 15.3,92.76 1.9,9.66 -12.9,13.79 -14.8,4.08"
       style="fill:#a46e4a;fill-opacity:1;fill-rule:nonzero;stroke:none"
       transform="matrix(0.03527778,0,0,-0.03527778,-750.67581,292.76214)"
       clip-path="url(#clipPath1013)" />
    <path
       id="path1014"
       d="m 23657.7,5278.71 c -3.5,-2.21 -1.6,-8.15 2.1,-9.8 3.8,-1.66 8.1,-0.53 12.1,0.41 31.1,7.34 65.3,1.09 91.8,-16.82 -11.5,20.42 -31.5,35.88 -54.1,41.89 -18.8,4.97 -42.3,1.65 -51.9,-15.22 v -0.46"
       style="fill:#ef6a55;fill-opacity:1;fill-rule:nonzero;stroke:none"
       transform="matrix(0.03527778,0,0,-0.03527778,-750.67581,292.76214)"
       clip-path="url(#clipPath1015)" />
    <path
       id="path1016"
       d="m 23310,5252.61 c 24.6,13.75 54,13.13 80.2,22.14 22.5,7.7 42.2,20.97 59.8,36.59 37.3,32.97 65.4,75.29 105.5,105.15 25,18.59 52.9,32.79 82.7,42.02 9.4,2.93 5.4,17.77 -4.1,14.82 -52.4,-16.28 -96.5,-46.9 -133.6,-86.78 -32.3,-34.58 -63,-76.41 -108.2,-94.7 -29.2,-11.81 -62.1,-10.39 -90,-25.97 -8.7,-4.83 -0.9,-18.1 7.7,-13.27"
       style="fill:#a3362b;fill-opacity:1;fill-rule:nonzero;stroke:none"
       transform="matrix(0.03527778,0,0,-0.03527778,-750.67581,292.76214)"
       clip-path="url(#clipPath1017)" />
    <path
       id="path1018"
       d="m 23546.2,5476.85 c -40,-19.59 -73.7,-48.35 -100.9,-83.45 -25.2,-32.65 -55.4,-77.4 -102.8,-71.79 -9.8,1.16 -9.7,-14.21 0,-15.36 48.1,-5.7 82.1,34.78 108.1,68.98 13.9,18.14 28.3,35.37 45.6,50.37 17.5,15.18 37,27.81 57.7,37.98 8.9,4.35 1.1,17.61 -7.7,13.27"
       style="fill:#a3362b;fill-opacity:1;fill-rule:nonzero;stroke:none"
       transform="matrix(0.03527778,0,0,-0.03527778,-750.67581,292.76214)"
       clip-path="url(#clipPath1019)" />
    <path
       id="path1020"
       d="m 23435.5,4753.06 c 158.8,-87.08 261.2,-5.12 286.8,0 5.1,1 13.6,-81.24 3.3,-91.06 -7.5,-7.11 -293.6,-14.87 -300.4,-6.12 -6.8,8.68 -6.7,106.47 10.3,97.18"
       style="fill:#ffb753;fill-opacity:1;fill-rule:nonzero;stroke:none"
       transform="matrix(0.03527778,0,0,-0.03527778,-750.67581,292.76214)"
       clip-path="url(#clipPath1021)" />
    <path
       id="path1022"
       d="m 22962.4,4301.33 c -7.9,119.93 70.7,232.93 172.6,296.76 101.8,63.83 223.6,86.76 342.9,101.31 156.6,19.09 320.2,25.06 467.2,-32.09 147,-57.14 273.6,-190.98 279.5,-348.6 l -620.1,-216.2 -642.1,198.82"
       style="fill:#ffb753;fill-opacity:1;fill-rule:nonzero;stroke:none"
       transform="matrix(0.03527778,0,0,-0.03527778,-750.67581,292.76214)"
       clip-path="url(#clipPath1023)" />
    <path
       id="path1024"
       d="m 23455.4,4711.38 c 5.6,-15.51 6,-31.35 1.2,-46.96 -1.2,-3.84 1.4,-8.55 5.3,-9.45 4.2,-0.95 8.2,1.25 9.5,5.36 5.5,17.86 5.2,37.55 -1.2,55.14 -1.4,3.9 -5.2,6.53 -9.5,5.37 -3.7,-1.04 -6.7,-5.54 -5.3,-9.46"
       style="fill:#724328;fill-opacity:1;fill-rule:nonzero;stroke:none"
       transform="matrix(0.03527778,0,0,-0.03527778,-750.67581,292.76214)"
       clip-path="url(#clipPath1025)" />
    <path
       id="path1026"
       d="m 23492.6,4692.17 c 2.3,-14.44 4.6,-28.87 6.9,-43.3 0.6,-3.99 5.8,-6.55 9.5,-5.37 4.3,1.4 6,5.18 5.3,9.45 -2.3,14.44 -4.6,28.87 -6.9,43.3 -0.7,3.98 -5.8,6.55 -9.5,5.37 -4.3,-1.4 -6,-5.19 -5.3,-9.45"
       style="fill:#724328;fill-opacity:1;fill-rule:nonzero;stroke:none"
       transform="matrix(0.03527778,0,0,-0.03527778,-750.67581,292.76214)"
       clip-path="url(#clipPath1027)" />
    <path
       id="path1028"
       d="m 23555.6,4690.18 c 0.7,-11.81 1.4,-23.61 2.1,-35.42 0.3,-4 3.4,-7.88 7.7,-7.68 3.9,0.17 7.9,3.38 7.7,7.68 -0.7,11.81 -1.5,23.61 -2.2,35.42 -0.2,4 -3.3,7.88 -7.7,7.68 -3.9,-0.17 -7.9,-3.38 -7.6,-7.68"
       style="fill:#724328;fill-opacity:1;fill-rule:nonzero;stroke:none"
       transform="matrix(0.03527778,0,0,-0.03527778,-750.67581,292.76214)"
       clip-path="url(#clipPath1029)" />
    <path
       id="path1030"
       d="m 23616.4,4693.99 c 0,-11.77 0,-23.54 0,-35.31 0,-4.02 3.6,-7.87 7.7,-7.69 4.2,0.19 7.7,3.38 7.7,7.69 0,11.77 0,23.54 0,35.31 0,4.02 -3.5,7.87 -7.7,7.68 -4.1,-0.18 -7.7,-3.37 -7.7,-7.68"
       style="fill:#724328;fill-opacity:1;fill-rule:nonzero;stroke:none"
       transform="matrix(0.03527778,0,0,-0.03527778,-750.67581,292.76214)"
       clip-path="url(#clipPath1031)" />
    <path
       id="path1032"
       d="m 23679.2,4717.53 c 0,-14.39 0,-28.77 0,-43.16 0,-4.02 3.6,-7.87 7.7,-7.68 4.2,0.18 7.7,3.37 7.7,7.68 0,14.39 0,28.77 0,43.16 0,4.02 -3.5,7.87 -7.7,7.68 -4.2,-0.18 -7.7,-3.37 -7.7,-7.68"
       style="fill:#724328;fill-opacity:1;fill-rule:nonzero;stroke:none"
       transform="matrix(0.03527778,0,0,-0.03527778,-750.67581,292.76214)"
       clip-path="url(#clipPath1033)" />
    <path
       id="path1034"
       d="m 23129,4485.97 c 4.3,-56.21 8.6,-112.42 13,-168.62 0.7,-9.8 16.1,-9.88 15.3,0 -4.3,56.2 -8.6,112.41 -12.9,168.62 -0.8,9.8 -16.1,9.88 -15.4,0"
       style="fill:#724328;fill-opacity:1;fill-rule:nonzero;stroke:none"
       transform="matrix(0.03527778,0,0,-0.03527778,-750.67581,292.76214)"
       clip-path="url(#clipPath1035)" />
    <path
       id="path1036"
       d="m 23102.7,4458.06 c 10.5,-15.66 21,-31.31 31.5,-46.97 2.3,-3.33 6.9,-5.1 10.5,-2.76 3.4,2.14 5.2,6.95 2.8,10.52 -10.5,15.65 -21,31.31 -31.6,46.96 -2.2,3.33 -6.8,5.1 -10.5,2.76 -3.3,-2.14 -5.1,-6.95 -2.7,-10.51"
       style="fill:#724328;fill-opacity:1;fill-rule:nonzero;stroke:none"
       transform="matrix(0.03527778,0,0,-0.03527778,-750.67581,292.76214)"
       clip-path="url(#clipPath1037)" />
    <path
       id="path1038"
       d="m 24034.2,4503.89 c 8.8,-51.36 14.4,-103.18 17,-155.21 0.5,-9.84 15.9,-9.9 15.4,0 -2.7,53.4 -8.6,106.58 -17.6,159.29 -1.6,9.73 -16.4,5.61 -14.8,-4.08"
       style="fill:#724328;fill-opacity:1;fill-rule:nonzero;stroke:none"
       transform="matrix(0.03527778,0,0,-0.03527778,-750.67581,292.76214)"
       clip-path="url(#clipPath1039)" />
    <path
       id="path1040"
       d="m 24076.5,4486.01 c -10.2,-14.55 -17.2,-31.43 -20.3,-48.94 -0.7,-3.94 1,-8.47 5.3,-9.45 3.8,-0.85 8.8,1.14 9.5,5.37 3,16.97 8.9,31.18 18.8,45.26 2.3,3.3 0.7,8.68 -2.8,10.51 -3.9,2.08 -8,0.77 -10.5,-2.75"
       style="fill:#724328;fill-opacity:1;fill-rule:nonzero;stroke:none"
       transform="matrix(0.03527778,0,0,-0.03527778,-750.67581,292.76214)"
       clip-path="url(#clipPath1041)" />
    <path
       id="path1042"
       d="m 23905.1,4643.2 c 12.2,20.32 27.8,38.07 46.3,53.08 3.2,2.61 2.7,8.15 0,10.87 -3.2,3.19 -7.6,2.61 -10.9,0 -19.3,-15.68 -35.8,-34.83 -48.6,-56.19 -2.2,-3.56 -0.8,-8.44 2.7,-10.52 3.6,-2.12 8.4,-0.81 10.5,2.76"
       style="fill:#ffb753;fill-opacity:1;fill-rule:nonzero;stroke:none"
       transform="matrix(0.03527778,0,0,-0.03527778,-750.67581,292.76214)"
       clip-path="url(#clipPath1043)" />
    <path
       id="path1044"
       d="m 23941,4638.94 1.6,2.28 0.1,0.01 0.9,1.1 c 1.1,1.37 2.3,2.72 3.5,4.02 2.6,2.66 5.3,5.16 8.2,7.47 l 0.9,0.7 -0.5,-0.34 0.5,0.34 2.3,1.65 c 1.5,1.01 3,1.99 4.5,2.91 3.3,1.93 6.6,3.63 10.1,5.11 1.7,0.69 3.1,2.96 3.6,4.59 0.5,1.84 0.2,4.29 -0.8,5.92 -2.5,3.86 -6.6,4.44 -10.5,2.75 -15.2,-6.45 -28.1,-17.36 -37.7,-30.75 -2.4,-3.29 -0.7,-8.7 2.7,-10.52 4,-2.09 8.1,-0.74 10.6,2.76"
       style="fill:#ffb753;fill-opacity:1;fill-rule:nonzero;stroke:none"
       transform="matrix(0.03527778,0,0,-0.03527778,-750.67581,292.76214)"
       clip-path="url(#clipPath1045)" />
    <path
       id="path1046"
       d="m 23272,4697.81 c 8,-10.35 16,-20.7 24,-31.05 1.3,-1.66 2.5,-2.95 4.6,-3.53 1.8,-0.51 4.3,-0.28 5.9,0.77 3.2,2.02 5.4,7.11 2.8,10.51 -8,10.35 -16,20.7 -24,31.05 -1.3,1.66 -2.5,2.95 -4.6,3.53 -1.8,0.51 -4.3,0.28 -5.9,-0.77 -3.1,-2.02 -5.4,-7.11 -2.8,-10.51"
       style="fill:#ffb753;fill-opacity:1;fill-rule:nonzero;stroke:none"
       transform="matrix(0.03527778,0,0,-0.03527778,-750.67581,292.76214)"
       clip-path="url(#clipPath1047)" />
    <path
       id="path1048"
       d="m 23310.4,4701.37 c 7.2,-15.35 14.5,-30.7 21.8,-46.05 1.7,-3.64 7.2,-4.87 10.5,-2.76 3.7,2.42 4.6,6.62 2.7,10.52 -7.2,15.34 -14.5,30.69 -21.8,46.04 -1.7,3.64 -7.2,4.87 -10.5,2.76 -3.7,-2.42 -4.6,-6.62 -2.7,-10.51"
       style="fill:#ffb753;fill-opacity:1;fill-rule:nonzero;stroke:none"
       transform="matrix(0.03527778,0,0,-0.03527778,-750.67581,292.76214)"
       clip-path="url(#clipPath1049)" />
    <path
       id="path1050"
       d="m 23357.9,4697.66 c 5.6,-11.61 11.2,-23.22 16.7,-34.83 1.8,-3.63 7.2,-4.88 10.5,-2.76 3.8,2.41 4.7,6.63 2.8,10.52 -5.6,11.61 -11.1,23.21 -16.7,34.82 -1.8,3.64 -7.2,4.88 -10.5,2.76 -3.8,-2.41 -4.7,-6.63 -2.8,-10.51"
       style="fill:#ffb753;fill-opacity:1;fill-rule:nonzero;stroke:none"
       transform="matrix(0.03527778,0,0,-0.03527778,-750.67581,292.76214)"
       clip-path="url(#clipPath1051)" />
  </g>
</svg>
