<?xml version="1.0" encoding="UTF-8" standalone="no"?>
<!-- Created with Inkscape (http://www.inkscape.org/) -->

<svg
   width="64.329033mm"
   height="64.331856mm"
   viewBox="0 0 64.329033 64.331856"
   version="1.1"
   id="svg1"
   inkscape:version="1.3.2 (091e20e, 2023-11-25)"
   sodipodi:docname="student-girl-avatar.svg"
   xmlns:inkscape="http://www.inkscape.org/namespaces/inkscape"
   xmlns:sodipodi="http://sodipodi.sourceforge.net/DTD/sodipodi-0.dtd"
   xmlns="http://www.w3.org/2000/svg"
   xmlns:svg="http://www.w3.org/2000/svg">
  <sodipodi:namedview
     id="namedview1"
     pagecolor="#ffffff"
     bordercolor="#000000"
     borderopacity="0.25"
     inkscape:showpageshadow="2"
     inkscape:pageopacity="0.0"
     inkscape:pagecheckerboard="0"
     inkscape:deskcolor="#d1d1d1"
     inkscape:document-units="mm"
     inkscape:zoom="1.2989377"
     inkscape:cx="94.307831"
     inkscape:cy="170.52396"
     inkscape:window-width="1920"
     inkscape:window-height="1052"
     inkscape:window-x="0"
     inkscape:window-y="28"
     inkscape:window-maximized="0"
     inkscape:current-layer="layer1" />
  <defs
     id="defs1">
    <clipPath
       clipPathUnits="userSpaceOnUse"
       id="clipPath1757">
      <path
         d="m 37491.6,7228.16 c 0,-503.58 -408.2,-911.79 -911.7,-911.79 -503.6,0 -911.8,408.21 -911.8,911.79 0,503.56 408.2,911.79 911.8,911.79 503.5,0 911.7,-408.23 911.7,-911.79"
         transform="translate(0,-2.5e-4)"
         id="path1757" />
    </clipPath>
    <clipPath
       clipPathUnits="userSpaceOnUse"
       id="clipPath1759">
      <path
         d="m 37491.6,7228.16 c 0,-503.58 -408.2,-911.79 -911.7,-911.79 -503.6,0 -911.8,408.21 -911.8,911.79 0,503.56 408.2,911.79 911.8,911.79 503.5,0 911.7,-408.23 911.7,-911.79"
         transform="translate(0,-2.5e-4)"
         id="path1759" />
    </clipPath>
    <clipPath
       clipPathUnits="userSpaceOnUse"
       id="clipPath1761">
      <path
         d="m 37491.6,7228.16 c 0,-503.58 -408.2,-911.79 -911.7,-911.79 -503.6,0 -911.8,408.21 -911.8,911.79 0,503.56 408.2,911.79 911.8,911.79 503.5,0 911.7,-408.23 911.7,-911.79"
         transform="translate(0,-2.5e-4)"
         id="path1761" />
    </clipPath>
    <clipPath
       clipPathUnits="userSpaceOnUse"
       id="clipPath1762">
      <path
         d="m 37028.4,6734.82 c -84.7,56.73 -187.1,79.45 -287,99.52 -6.1,1.24 -12.5,2.56 -17.4,6.39 -8.4,6.56 10.7,227.34 0,323.86 l -142.7,-13.36 -142.7,13.36 c -10.6,-96.52 8.4,-317.3 0,-323.86 -4.8,-3.83 -11.2,-5.15 -17.3,-6.39 -100,-20.07 -202.3,-42.79 -287,-99.52 -84.8,-56.73 -148.9,-155.67 -135.3,-256.72 85,0.44 322.5,-1.1 563,-4.26 v -0.52 c 6.5,0.09 12.9,0.18 19.3,0.26 6.5,-0.08 12.9,-0.17 19.3,-0.26 v 0.52 c 240.6,3.16 478,4.7 563.1,4.26 13.6,101.05 -50.6,199.99 -135.3,256.72"
         transform="translate(0,-2.5e-4)"
         id="path1762" />
    </clipPath>
    <clipPath
       clipPathUnits="userSpaceOnUse"
       id="clipPath1765">
      <path
         d="m 37491.6,7228.16 c 0,-503.58 -408.2,-911.79 -911.7,-911.79 -503.6,0 -911.8,408.21 -911.8,911.79 0,503.56 408.2,911.79 911.8,911.79 503.5,0 911.7,-408.23 911.7,-911.79"
         transform="translate(0,-2.5e-4)"
         id="path1765" />
    </clipPath>
    <clipPath
       clipPathUnits="userSpaceOnUse"
       id="clipPath1767">
      <path
         d="m 37491.6,7228.16 c 0,-503.58 -408.2,-911.79 -911.7,-911.79 -503.6,0 -911.8,408.21 -911.8,911.79 0,503.56 408.2,911.79 911.8,911.79 503.5,0 911.7,-408.23 911.7,-911.79"
         transform="translate(0,-2.5e-4)"
         id="path1767" />
    </clipPath>
    <clipPath
       clipPathUnits="userSpaceOnUse"
       id="clipPath1769">
      <path
         d="m 37491.6,7228.16 c 0,-503.58 -408.2,-911.79 -911.7,-911.79 -503.6,0 -911.8,408.21 -911.8,911.79 0,503.56 408.2,911.79 911.8,911.79 503.5,0 911.7,-408.23 911.7,-911.79"
         transform="translate(0,-2.5e-4)"
         id="path1769" />
    </clipPath>
    <clipPath
       clipPathUnits="userSpaceOnUse"
       id="clipPath1771">
      <path
         d="m 37491.6,7228.16 c 0,-503.58 -408.2,-911.79 -911.7,-911.79 -503.6,0 -911.8,408.21 -911.8,911.79 0,503.56 408.2,911.79 911.8,911.79 503.5,0 911.7,-408.23 911.7,-911.79"
         transform="translate(0,-2.5e-4)"
         id="path1771" />
    </clipPath>
    <clipPath
       clipPathUnits="userSpaceOnUse"
       id="clipPath1773">
      <path
         d="m 37491.6,7228.16 c 0,-503.58 -408.2,-911.79 -911.7,-911.79 -503.6,0 -911.8,408.21 -911.8,911.79 0,503.56 408.2,911.79 911.8,911.79 503.5,0 911.7,-408.23 911.7,-911.79"
         transform="translate(0,-2.5e-4)"
         id="path1773" />
    </clipPath>
    <clipPath
       clipPathUnits="userSpaceOnUse"
       id="clipPath1775">
      <path
         d="m 37491.6,7228.16 c 0,-503.58 -408.2,-911.79 -911.7,-911.79 -503.6,0 -911.8,408.21 -911.8,911.79 0,503.56 408.2,911.79 911.8,911.79 503.5,0 911.7,-408.23 911.7,-911.79"
         transform="translate(0,-2.5e-4)"
         id="path1775" />
    </clipPath>
    <clipPath
       clipPathUnits="userSpaceOnUse"
       id="clipPath1777">
      <path
         d="m 37491.6,7228.16 c 0,-503.58 -408.2,-911.79 -911.7,-911.79 -503.6,0 -911.8,408.21 -911.8,911.79 0,503.56 408.2,911.79 911.8,911.79 503.5,0 911.7,-408.23 911.7,-911.79"
         transform="translate(0,-2.5e-4)"
         id="path1777" />
    </clipPath>
    <clipPath
       clipPathUnits="userSpaceOnUse"
       id="clipPath1779">
      <path
         d="m 37491.6,7228.16 c 0,-503.58 -408.2,-911.79 -911.7,-911.79 -503.6,0 -911.8,408.21 -911.8,911.79 0,503.56 408.2,911.79 911.8,911.79 503.5,0 911.7,-408.23 911.7,-911.79"
         transform="translate(0,-2.5e-4)"
         id="path1779" />
    </clipPath>
    <clipPath
       clipPathUnits="userSpaceOnUse"
       id="clipPath1781">
      <path
         d="m 37491.6,7228.16 c 0,-503.58 -408.2,-911.79 -911.7,-911.79 -503.6,0 -911.8,408.21 -911.8,911.79 0,503.56 408.2,911.79 911.8,911.79 503.5,0 911.7,-408.23 911.7,-911.79"
         transform="translate(0,-2.5e-4)"
         id="path1781" />
    </clipPath>
    <clipPath
       clipPathUnits="userSpaceOnUse"
       id="clipPath1783">
      <path
         d="m 37491.6,7228.16 c 0,-503.58 -408.2,-911.79 -911.7,-911.79 -503.6,0 -911.8,408.21 -911.8,911.79 0,503.56 408.2,911.79 911.8,911.79 503.5,0 911.7,-408.23 911.7,-911.79"
         transform="translate(0,-2.5e-4)"
         id="path1783" />
    </clipPath>
    <clipPath
       clipPathUnits="userSpaceOnUse"
       id="clipPath1785">
      <path
         d="m 37491.6,7228.16 c 0,-503.58 -408.2,-911.79 -911.7,-911.79 -503.6,0 -911.8,408.21 -911.8,911.79 0,503.56 408.2,911.79 911.8,911.79 503.5,0 911.7,-408.23 911.7,-911.79"
         transform="translate(0,-2.5e-4)"
         id="path1785" />
    </clipPath>
    <clipPath
       clipPathUnits="userSpaceOnUse"
       id="clipPath1787">
      <path
         d="m 37491.6,7228.16 c 0,-503.58 -408.2,-911.79 -911.7,-911.79 -503.6,0 -911.8,408.21 -911.8,911.79 0,503.56 408.2,911.79 911.8,911.79 503.5,0 911.7,-408.23 911.7,-911.79"
         transform="translate(0,-2.5e-4)"
         id="path1787" />
    </clipPath>
    <clipPath
       clipPathUnits="userSpaceOnUse"
       id="clipPath1789">
      <path
         d="m 37491.6,7228.16 c 0,-503.58 -408.2,-911.79 -911.7,-911.79 -503.6,0 -911.8,408.21 -911.8,911.79 0,503.56 408.2,911.79 911.8,911.79 503.5,0 911.7,-408.23 911.7,-911.79"
         transform="translate(0,-2.5e-4)"
         id="path1789" />
    </clipPath>
    <clipPath
       clipPathUnits="userSpaceOnUse"
       id="clipPath1791">
      <path
         d="m 37491.6,7228.16 c 0,-503.58 -408.2,-911.79 -911.7,-911.79 -503.6,0 -911.8,408.21 -911.8,911.79 0,503.56 408.2,911.79 911.8,911.79 503.5,0 911.7,-408.23 911.7,-911.79"
         transform="translate(0,-2.5e-4)"
         id="path1791" />
    </clipPath>
    <clipPath
       clipPathUnits="userSpaceOnUse"
       id="clipPath1793">
      <path
         d="m 37491.6,7228.16 c 0,-503.58 -408.2,-911.79 -911.7,-911.79 -503.6,0 -911.8,408.21 -911.8,911.79 0,503.56 408.2,911.79 911.8,911.79 503.5,0 911.7,-408.23 911.7,-911.79"
         transform="translate(0,-2.5e-4)"
         id="path1793" />
    </clipPath>
    <clipPath
       clipPathUnits="userSpaceOnUse"
       id="clipPath1795">
      <path
         d="m 37491.6,7228.16 c 0,-503.58 -408.2,-911.79 -911.7,-911.79 -503.6,0 -911.8,408.21 -911.8,911.79 0,503.56 408.2,911.79 911.8,911.79 503.5,0 911.7,-408.23 911.7,-911.79"
         transform="translate(0,-2.5e-4)"
         id="path1795" />
    </clipPath>
    <clipPath
       clipPathUnits="userSpaceOnUse"
       id="clipPath1797">
      <path
         d="m 37491.6,7228.16 c 0,-503.58 -408.2,-911.79 -911.7,-911.79 -503.6,0 -911.8,408.21 -911.8,911.79 0,503.56 408.2,911.79 911.8,911.79 503.5,0 911.7,-408.23 911.7,-911.79"
         transform="translate(0,-2.5e-4)"
         id="path1797" />
    </clipPath>
    <clipPath
       clipPathUnits="userSpaceOnUse"
       id="clipPath1799">
      <path
         d="m 37491.6,7228.16 c 0,-503.58 -408.2,-911.79 -911.7,-911.79 -503.6,0 -911.8,408.21 -911.8,911.79 0,503.56 408.2,911.79 911.8,911.79 503.5,0 911.7,-408.23 911.7,-911.79"
         transform="translate(0,-2.5e-4)"
         id="path1799" />
    </clipPath>
    <clipPath
       clipPathUnits="userSpaceOnUse"
       id="clipPath1801">
      <path
         d="m 37491.6,7228.16 c 0,-503.58 -408.2,-911.79 -911.7,-911.79 -503.6,0 -911.8,408.21 -911.8,911.79 0,503.56 408.2,911.79 911.8,911.79 503.5,0 911.7,-408.23 911.7,-911.79"
         transform="translate(0,-2.5e-4)"
         id="path1801" />
    </clipPath>
    <clipPath
       clipPathUnits="userSpaceOnUse"
       id="clipPath1803">
      <path
         d="m 37491.6,7228.16 c 0,-503.58 -408.2,-911.79 -911.7,-911.79 -503.6,0 -911.8,408.21 -911.8,911.79 0,503.56 408.2,911.79 911.8,911.79 503.5,0 911.7,-408.23 911.7,-911.79"
         transform="translate(0,-2.5e-4)"
         id="path1803" />
    </clipPath>
    <clipPath
       clipPathUnits="userSpaceOnUse"
       id="clipPath1805">
      <path
         d="m 37491.6,7228.16 c 0,-503.58 -408.2,-911.79 -911.7,-911.79 -503.6,0 -911.8,408.21 -911.8,911.79 0,503.56 408.2,911.79 911.8,911.79 503.5,0 911.7,-408.23 911.7,-911.79"
         transform="translate(0,-2.5e-4)"
         id="path1805" />
    </clipPath>
    <clipPath
       clipPathUnits="userSpaceOnUse"
       id="clipPath1807">
      <path
         d="m 37491.6,7228.16 c 0,-503.58 -408.2,-911.79 -911.7,-911.79 -503.6,0 -911.8,408.21 -911.8,911.79 0,503.56 408.2,911.79 911.8,911.79 503.5,0 911.7,-408.23 911.7,-911.79"
         transform="translate(0,-2.5e-4)"
         id="path1807" />
    </clipPath>
    <clipPath
       clipPathUnits="userSpaceOnUse"
       id="clipPath1809">
      <path
         d="m 37491.6,7228.16 c 0,-503.58 -408.2,-911.79 -911.7,-911.79 -503.6,0 -911.8,408.21 -911.8,911.79 0,503.56 408.2,911.79 911.8,911.79 503.5,0 911.7,-408.23 911.7,-911.79"
         transform="translate(0,-2.5e-4)"
         id="path1809" />
    </clipPath>
    <clipPath
       clipPathUnits="userSpaceOnUse"
       id="clipPath1811">
      <path
         d="m 37491.6,7228.16 c 0,-503.58 -408.2,-911.79 -911.7,-911.79 -503.6,0 -911.8,408.21 -911.8,911.79 0,503.56 408.2,911.79 911.8,911.79 503.5,0 911.7,-408.23 911.7,-911.79"
         transform="translate(0,-2.5e-4)"
         id="path1811" />
    </clipPath>
    <clipPath
       clipPathUnits="userSpaceOnUse"
       id="clipPath1813">
      <path
         d="m 37491.6,7228.16 c 0,-503.58 -408.2,-911.79 -911.7,-911.79 -503.6,0 -911.8,408.21 -911.8,911.79 0,503.56 408.2,911.79 911.8,911.79 503.5,0 911.7,-408.23 911.7,-911.79"
         transform="translate(0,-2.5e-4)"
         id="path1813" />
    </clipPath>
    <clipPath
       clipPathUnits="userSpaceOnUse"
       id="clipPath1815">
      <path
         d="m 37491.6,7228.16 c 0,-503.58 -408.2,-911.79 -911.7,-911.79 -503.6,0 -911.8,408.21 -911.8,911.79 0,503.56 408.2,911.79 911.8,911.79 503.5,0 911.7,-408.23 911.7,-911.79"
         transform="translate(0,-2.5e-4)"
         id="path1815" />
    </clipPath>
    <clipPath
       clipPathUnits="userSpaceOnUse"
       id="clipPath1817">
      <path
         d="m 37491.6,7228.16 c 0,-503.58 -408.2,-911.79 -911.7,-911.79 -503.6,0 -911.8,408.21 -911.8,911.79 0,503.56 408.2,911.79 911.8,911.79 503.5,0 911.7,-408.23 911.7,-911.79"
         transform="translate(0,-2.5e-4)"
         id="path1817" />
    </clipPath>
    <clipPath
       clipPathUnits="userSpaceOnUse"
       id="clipPath1819">
      <path
         d="m 37491.6,7228.16 c 0,-503.58 -408.2,-911.79 -911.7,-911.79 -503.6,0 -911.8,408.21 -911.8,911.79 0,503.56 408.2,911.79 911.8,911.79 503.5,0 911.7,-408.23 911.7,-911.79"
         transform="translate(0,-2.5e-4)"
         id="path1819" />
    </clipPath>
    <clipPath
       clipPathUnits="userSpaceOnUse"
       id="clipPath1821">
      <path
         d="m 37491.6,7228.16 c 0,-503.58 -408.2,-911.79 -911.7,-911.79 -503.6,0 -911.8,408.21 -911.8,911.79 0,503.56 408.2,911.79 911.8,911.79 503.5,0 911.7,-408.23 911.7,-911.79"
         transform="translate(0,-2.5e-4)"
         id="path1821" />
    </clipPath>
    <clipPath
       clipPathUnits="userSpaceOnUse"
       id="clipPath1823">
      <path
         d="m 37491.6,7228.16 c 0,-503.58 -408.2,-911.79 -911.7,-911.79 -503.6,0 -911.8,408.21 -911.8,911.79 0,503.56 408.2,911.79 911.8,911.79 503.5,0 911.7,-408.23 911.7,-911.79"
         transform="translate(0,-2.5e-4)"
         id="path1823" />
    </clipPath>
    <clipPath
       clipPathUnits="userSpaceOnUse"
       id="clipPath1825">
      <path
         d="m 37491.6,7228.16 c 0,-503.58 -408.2,-911.79 -911.7,-911.79 -503.6,0 -911.8,408.21 -911.8,911.79 0,503.56 408.2,911.79 911.8,911.79 503.5,0 911.7,-408.23 911.7,-911.79"
         transform="translate(0,-2.5e-4)"
         id="path1825" />
    </clipPath>
    <clipPath
       clipPathUnits="userSpaceOnUse"
       id="clipPath1827">
      <path
         d="m 37491.6,7228.16 c 0,-503.58 -408.2,-911.79 -911.7,-911.79 -503.6,0 -911.8,408.21 -911.8,911.79 0,503.56 408.2,911.79 911.8,911.79 503.5,0 911.7,-408.23 911.7,-911.79"
         transform="translate(0,-2.5e-4)"
         id="path1827" />
    </clipPath>
    <clipPath
       clipPathUnits="userSpaceOnUse"
       id="clipPath1829">
      <path
         d="m 37491.6,7228.16 c 0,-503.58 -408.2,-911.79 -911.7,-911.79 -503.6,0 -911.8,408.21 -911.8,911.79 0,503.56 408.2,911.79 911.8,911.79 503.5,0 911.7,-408.23 911.7,-911.79"
         transform="translate(0,-2.5e-4)"
         id="path1829" />
    </clipPath>
    <clipPath
       clipPathUnits="userSpaceOnUse"
       id="clipPath1831">
      <path
         d="m 37491.6,7228.16 c 0,-503.58 -408.2,-911.79 -911.7,-911.79 -503.6,0 -911.8,408.21 -911.8,911.79 0,503.56 408.2,911.79 911.8,911.79 503.5,0 911.7,-408.23 911.7,-911.79"
         transform="translate(0,-2.5e-4)"
         id="path1831" />
    </clipPath>
    <clipPath
       clipPathUnits="userSpaceOnUse"
       id="clipPath1833">
      <path
         d="m 37491.6,7228.16 c 0,-503.58 -408.2,-911.79 -911.7,-911.79 -503.6,0 -911.8,408.21 -911.8,911.79 0,503.56 408.2,911.79 911.8,911.79 503.5,0 911.7,-408.23 911.7,-911.79"
         transform="translate(0,-2.5e-4)"
         id="path1833" />
    </clipPath>
    <clipPath
       clipPathUnits="userSpaceOnUse"
       id="clipPath1835">
      <path
         d="m 37491.6,7228.16 c 0,-503.58 -408.2,-911.79 -911.7,-911.79 -503.6,0 -911.8,408.21 -911.8,911.79 0,503.56 408.2,911.79 911.8,911.79 503.5,0 911.7,-408.23 911.7,-911.79"
         transform="translate(0,-2.5e-4)"
         id="path1835" />
    </clipPath>
    <clipPath
       clipPathUnits="userSpaceOnUse"
       id="clipPath1837">
      <path
         d="m 37491.6,7228.16 c 0,-503.58 -408.2,-911.79 -911.7,-911.79 -503.6,0 -911.8,408.21 -911.8,911.79 0,503.56 408.2,911.79 911.8,911.79 503.5,0 911.7,-408.23 911.7,-911.79"
         transform="translate(0,-2.5e-4)"
         id="path1837" />
    </clipPath>
    <clipPath
       clipPathUnits="userSpaceOnUse"
       id="clipPath1839">
      <path
         d="m 37491.6,7228.16 c 0,-503.58 -408.2,-911.79 -911.7,-911.79 -503.6,0 -911.8,408.21 -911.8,911.79 0,503.56 408.2,911.79 911.8,911.79 503.5,0 911.7,-408.23 911.7,-911.79"
         transform="translate(0,-2.5e-4)"
         id="path1839" />
    </clipPath>
    <clipPath
       clipPathUnits="userSpaceOnUse"
       id="clipPath1841">
      <path
         d="m 37491.6,7228.16 c 0,-503.58 -408.2,-911.79 -911.7,-911.79 -503.6,0 -911.8,408.21 -911.8,911.79 0,503.56 408.2,911.79 911.8,911.79 503.5,0 911.7,-408.23 911.7,-911.79"
         transform="translate(0,-2.5e-4)"
         id="path1841" />
    </clipPath>
    <clipPath
       clipPathUnits="userSpaceOnUse"
       id="clipPath1843">
      <path
         d="m 37491.6,7228.16 c 0,-503.58 -408.2,-911.79 -911.7,-911.79 -503.6,0 -911.8,408.21 -911.8,911.79 0,503.56 408.2,911.79 911.8,911.79 503.5,0 911.7,-408.23 911.7,-911.79"
         transform="translate(0,-2.5e-4)"
         id="path1843" />
    </clipPath>
    <clipPath
       clipPathUnits="userSpaceOnUse"
       id="clipPath1845">
      <path
         d="m 37491.6,7228.16 c 0,-503.58 -408.2,-911.79 -911.7,-911.79 -503.6,0 -911.8,408.21 -911.8,911.79 0,503.56 408.2,911.79 911.8,911.79 503.5,0 911.7,-408.23 911.7,-911.79"
         transform="translate(0,-2.5e-4)"
         id="path1845" />
    </clipPath>
    <clipPath
       clipPathUnits="userSpaceOnUse"
       id="clipPath1847">
      <path
         d="m 37491.6,7228.16 c 0,-503.58 -408.2,-911.79 -911.7,-911.79 -503.6,0 -911.8,408.21 -911.8,911.79 0,503.56 408.2,911.79 911.8,911.79 503.5,0 911.7,-408.23 911.7,-911.79"
         transform="translate(0,-2.5e-4)"
         id="path1847" />
    </clipPath>
    <clipPath
       clipPathUnits="userSpaceOnUse"
       id="clipPath1849">
      <path
         d="m 37491.6,7228.16 c 0,-503.58 -408.2,-911.79 -911.7,-911.79 -503.6,0 -911.8,408.21 -911.8,911.79 0,503.56 408.2,911.79 911.8,911.79 503.5,0 911.7,-408.23 911.7,-911.79"
         transform="translate(0,-2.5e-4)"
         id="path1849" />
    </clipPath>
    <clipPath
       clipPathUnits="userSpaceOnUse"
       id="clipPath1851">
      <path
         d="m 37491.6,7228.16 c 0,-503.58 -408.2,-911.79 -911.7,-911.79 -503.6,0 -911.8,408.21 -911.8,911.79 0,503.56 408.2,911.79 911.8,911.79 503.5,0 911.7,-408.23 911.7,-911.79"
         transform="translate(0,-2.5e-4)"
         id="path1851" />
    </clipPath>
    <clipPath
       clipPathUnits="userSpaceOnUse"
       id="clipPath1853">
      <path
         d="m 37491.6,7228.16 c 0,-503.58 -408.2,-911.79 -911.7,-911.79 -503.6,0 -911.8,408.21 -911.8,911.79 0,503.56 408.2,911.79 911.8,911.79 503.5,0 911.7,-408.23 911.7,-911.79"
         transform="translate(0,-2.5e-4)"
         id="path1853" />
    </clipPath>
    <clipPath
       clipPathUnits="userSpaceOnUse"
       id="clipPath1855">
      <path
         d="m 37491.6,7228.16 c 0,-503.58 -408.2,-911.79 -911.7,-911.79 -503.6,0 -911.8,408.21 -911.8,911.79 0,503.56 408.2,911.79 911.8,911.79 503.5,0 911.7,-408.23 911.7,-911.79"
         transform="translate(0,-2.5e-4)"
         id="path1855" />
    </clipPath>
    <clipPath
       clipPathUnits="userSpaceOnUse"
       id="clipPath1857">
      <path
         d="m 37491.6,7228.16 c 0,-503.58 -408.2,-911.79 -911.7,-911.79 -503.6,0 -911.8,408.21 -911.8,911.79 0,503.56 408.2,911.79 911.8,911.79 503.5,0 911.7,-408.23 911.7,-911.79"
         transform="translate(0,-2.5e-4)"
         id="path1857" />
    </clipPath>
    <clipPath
       clipPathUnits="userSpaceOnUse"
       id="clipPath1859">
      <path
         d="m 37491.6,7228.16 c 0,-503.58 -408.2,-911.79 -911.7,-911.79 -503.6,0 -911.8,408.21 -911.8,911.79 0,503.56 408.2,911.79 911.8,911.79 503.5,0 911.7,-408.23 911.7,-911.79"
         transform="translate(0,-2.5e-4)"
         id="path1859" />
    </clipPath>
    <clipPath
       clipPathUnits="userSpaceOnUse"
       id="clipPath1861">
      <path
         d="m 37491.6,7228.16 c 0,-503.58 -408.2,-911.79 -911.7,-911.79 -503.6,0 -911.8,408.21 -911.8,911.79 0,503.56 408.2,911.79 911.8,911.79 503.5,0 911.7,-408.23 911.7,-911.79"
         transform="translate(0,-2.5e-4)"
         id="path1861" />
    </clipPath>
    <clipPath
       clipPathUnits="userSpaceOnUse"
       id="clipPath1863">
      <path
         d="m 37491.6,7228.16 c 0,-503.58 -408.2,-911.79 -911.7,-911.79 -503.6,0 -911.8,408.21 -911.8,911.79 0,503.56 408.2,911.79 911.8,911.79 503.5,0 911.7,-408.23 911.7,-911.79"
         transform="translate(0,-2.5e-4)"
         id="path1863" />
    </clipPath>
    <clipPath
       clipPathUnits="userSpaceOnUse"
       id="clipPath1865">
      <path
         d="m 37491.6,7228.16 c 0,-503.58 -408.2,-911.79 -911.7,-911.79 -503.6,0 -911.8,408.21 -911.8,911.79 0,503.56 408.2,911.79 911.8,911.79 503.5,0 911.7,-408.23 911.7,-911.79"
         transform="translate(0,-2.5e-4)"
         id="path1865" />
    </clipPath>
  </defs>
  <g
     inkscape:label="Layer 1"
     inkscape:groupmode="layer"
     id="layer1"
     transform="translate(-59.795885,-108.74372)">
    <path
       id="path1756"
       d="m 37491.6,6316.36 h -1823.5 v 1823.59 h 1823.5 V 6316.36"
       style="fill:#a59eff;fill-opacity:1;fill-rule:nonzero;stroke:none"
       transform="matrix(0.03527778,0,0,-0.03527778,-1198.4955,395.90308)"
       clip-path="url(#clipPath1757)" />
    <path
       id="path1758"
       d="m 36739,7812.07 c 25.1,-1.89 50.4,-5.57 73.5,-15.58 36.6,-15.91 64.9,-46.64 86.9,-80 58.2,-88.41 77.4,-196.66 85.4,-302.19 7.9,-105.54 -2.7,-389.02 30.2,-401.46 24.9,-9.41 22.6,-4.52 35.1,-27.96 -222.8,-7.26 -357.7,-10.67 -580.6,-11.4 -42.9,-0.14 -85.8,-0.16 -128.7,-0.17 -57.9,-0.03 -115.8,-0.06 -173.7,-0.08 11.3,9.5 22.7,19.01 34.1,28.51 5,4.16 10.1,8.56 12.6,14.54 3.1,7.49 1.5,16.01 -0.1,23.95 -30.5,147.35 -56.8,297.98 -41.5,447.67 5.4,52.17 16,104.38 38.5,151.77 22.4,47.39 57.5,89.88 103.7,114.76 29.7,15.98 62.9,24.27 96.1,30.01 40.9,7.07 99.3,-14.05 140.9,-14.34 0,0 135,45.94 187.6,41.97"
       style="fill:#1a1a1a;fill-opacity:1;fill-rule:nonzero;stroke:none"
       transform="matrix(0.03527778,0,0,-0.03527778,-1198.4955,395.90308)"
       clip-path="url(#clipPath1759)" />
    <path
       id="path1760"
       d="m 37028.4,6734.82 c -84.7,56.73 -187.1,79.45 -287,99.53 -6.1,1.22 -12.5,2.55 -17.4,6.38 -8.4,6.56 10.7,227.34 0,323.86 l -142.7,-13.35 -142.6,13.35 c -10.7,-96.52 8.3,-317.3 0,-323.86 -4.9,-3.83 -11.3,-5.16 -17.4,-6.38 -99.9,-20.08 -202.3,-42.8 -287,-99.53 -84.7,-56.73 -148.9,-155.67 -135.3,-256.72 85,0.44 322.5,-1.1 563,-4.26 v -0.52 c 6.5,0.09 12.9,0.18 19.3,0.26 6.5,-0.08 12.9,-0.17 19.3,-0.26 v 0.52 c 240.6,3.16 478,4.7 563.1,4.26 13.6,101.05 -50.6,199.99 -135.3,256.72"
       style="fill:#fbd1b9;fill-opacity:1;fill-rule:nonzero;stroke:none"
       transform="matrix(0.03527778,0,0,-0.03527778,-1198.4955,395.90308)"
       clip-path="url(#clipPath1761)" />
    <g
       id="g1763"
       transform="matrix(0.26458333,0,0,0.26458333,-1198.4955,37.389147)">
      <path
         d="m 36248.7,7167.71 c 56.3,36.24 58.7,53.63 61.4,36.24 13.3,-85.44 148.4,-291.27 271.1,-291.27 159,0 251.2,268.24 266,335.85 -183.6,-26.25 -369.7,-52.54 -553.8,-30.45 5,-4.78 10.1,-9.55 15.1,-14.32 l -59.8,-36.05"
         style="fill:#dba78a;fill-opacity:1;fill-rule:nonzero;stroke:none"
         transform="matrix(0.13333333,0,0,-0.13333333,0,1355.0133)"
         clip-path="url(#clipPath1762)"
         id="path1763" />
    </g>
    <path
       id="path1764"
       d="m 36340.6,7625.78 c -37.2,-110.78 -28,-304.89 0,-417.75 l 0.5,-1.82 c 15.2,-60.57 39.5,-121.07 85.4,-168.22 45.8,-47.15 116.3,-79.03 186.1,-70.67 67.6,8.09 124.3,52.25 157.2,104.78 33,52.52 45.7,112.87 54.9,172.32 16,103.52 11.8,378.47 0.5,379.31 -145.5,10.84 -343,37.06 -484.6,5.64 v -3.59"
       style="fill:#fbd1b9;fill-opacity:1;fill-rule:nonzero;stroke:none"
       transform="matrix(0.03527778,0,0,-0.03527778,-1198.4955,395.90308)"
       clip-path="url(#clipPath1765)" />
    <path
       id="path1766"
       d="m 36818.8,7287.3 c 3.6,22.8 34.8,37.06 59.8,30.37 25,-6.69 41.6,-29.55 43.4,-52.51 1.9,-22.95 -8.7,-45.54 -23.7,-64.42 -24.9,-31.47 -68.8,-55.91 -111,-46.17 6.7,47.2 16.3,94.08 28.8,140.37 l 2.7,-7.64"
       style="fill:#fbd1b9;fill-opacity:1;fill-rule:nonzero;stroke:none"
       transform="matrix(0.03527778,0,0,-0.03527778,-1198.4955,395.90308)"
       clip-path="url(#clipPath1767)" />
    <path
       id="path1768"
       d="m 36344.5,7287.3 c -3.6,22.8 -34.8,37.06 -59.8,30.37 -25,-6.69 -41.5,-29.55 -43.4,-52.51 -1.8,-22.95 8.7,-45.54 23.7,-64.42 25,-31.47 68.8,-55.91 111,-46.17 -6.7,47.2 -16.3,94.08 -28.8,140.37 l -2.7,-7.64"
       style="fill:#fbd1b9;fill-opacity:1;fill-rule:nonzero;stroke:none"
       transform="matrix(0.03527778,0,0,-0.03527778,-1198.4955,395.90308)"
       clip-path="url(#clipPath1769)" />
    <path
       id="path1770"
       d="m 36482.4,7276.24 c 0,-11.5 -12.6,-20.82 -28.2,-20.82 -15.5,0 -28.2,9.32 -28.2,20.82 0,11.5 12.7,20.82 28.2,20.82 15.6,0 28.2,-9.32 28.2,-20.82"
       style="fill:#1a1a1a;fill-opacity:1;fill-rule:nonzero;stroke:none"
       transform="matrix(0.03527778,0,0,-0.03527778,-1198.4955,395.90308)"
       clip-path="url(#clipPath1771)" />
    <path
       id="path1772"
       d="m 36742.1,7276.24 c 0,-11.5 -12.6,-20.82 -28.1,-20.82 -15.6,0 -28.2,9.32 -28.2,20.82 0,11.5 12.6,20.82 28.2,20.82 15.5,0 28.1,-9.32 28.1,-20.82"
       style="fill:#1a1a1a;fill-opacity:1;fill-rule:nonzero;stroke:none"
       transform="matrix(0.03527778,0,0,-0.03527778,-1198.4955,395.90308)"
       clip-path="url(#clipPath1773)" />
    <path
       id="path1774"
       d="m 36375.3,7403.08 c 14.6,6.64 30.7,11.62 47.1,14.63 10.5,1.94 21.9,3.04 31.2,0.4 9.4,-2.65 15.9,-10.1 12,-17.27 -3.9,-7.22 -15.8,-11.09 -26.5,-12.76 -24.8,-3.87 -50.4,-0.85 -69.7,8.21 l 5.9,6.79"
       style="fill:#1a1a1a;fill-opacity:1;fill-rule:nonzero;stroke:none"
       transform="matrix(0.03527778,0,0,-0.03527778,-1198.4955,395.90308)"
       clip-path="url(#clipPath1775)" />
    <path
       id="path1776"
       d="m 36790.8,7388.17 c -16,-3.32 -33,-4.73 -49.7,-4.16 -10.8,0.36 -22.1,1.7 -30.5,6.27 -8.4,4.56 -12.6,13.17 -6.9,19.31 5.8,6.17 18.5,7.38 29.3,6.72 25.1,-1.51 49.1,-9.89 65.3,-22.79 l -7.5,-5.35"
       style="fill:#1a1a1a;fill-opacity:1;fill-rule:nonzero;stroke:none"
       transform="matrix(0.03527778,0,0,-0.03527778,-1198.4955,395.90308)"
       clip-path="url(#clipPath1777)" />
    <path
       id="path1778"
       d="m 36838,7222.03 c 20.9,12.86 43.7,23.38 68.1,30.89 4.1,1.27 6.8,4.56 5.6,8.28 -1.1,3.28 -5.8,5.98 -10,4.71 -25.6,-7.93 -49.9,-18.67 -71.8,-32.25 -3.6,-2.16 -5.3,-5.83 -3,-9.21 2.1,-2.87 7.6,-4.6 11.1,-2.42"
       style="fill:#a46e4a;fill-opacity:1;fill-rule:nonzero;stroke:none"
       transform="matrix(0.03527778,0,0,-0.03527778,-1198.4955,395.90308)"
       clip-path="url(#clipPath1779)" />
    <path
       id="path1780"
       d="m 36849.5,7232.21 c 2.1,-1.53 4,-3.24 5.7,-5.11 l -1.2,1.35 c 2.1,-2.4 3.9,-5 5.3,-7.78 l -0.8,1.59 c 1.2,-2.39 2,-4.86 2.6,-7.41 0.3,-1.56 2,-3.21 3.5,-3.98 1.7,-0.84 4.1,-1.19 6,-0.67 1.9,0.52 3.7,1.52 4.6,3.06 1.1,1.66 1.2,3.27 0.8,5.12 -1.8,8.88 -7.5,17.41 -15.5,23.24 -1.6,1.16 -3.4,1.95 -5.5,1.95 -1.9,0 -4.2,-0.73 -5.5,-1.95 -2.7,-2.48 -3.3,-7 0,-9.41"
       style="fill:#a46e4a;fill-opacity:1;fill-rule:nonzero;stroke:none"
       transform="matrix(0.03527778,0,0,-0.03527778,-1198.4955,395.90308)"
       clip-path="url(#clipPath1781)" />
    <path
       id="path1782"
       d="m 36271.7,7261.67 c 10.2,-5.62 19.6,-14.07 26.7,-22.44 8,-9.45 14.7,-19.66 21.4,-29.87 2.3,-3.59 7.8,-4.83 11.9,-2.75 4.1,2.11 5.5,6.89 3.1,10.5 -14.2,21.79 -29.5,44.11 -54.3,57.81 -4,2.21 -9.6,0.74 -11.9,-2.75 -2.4,-3.69 -0.9,-8.29 3.1,-10.5"
       style="fill:#a46e4a;fill-opacity:1;fill-rule:nonzero;stroke:none"
       transform="matrix(0.03527778,0,0,-0.03527778,-1198.4955,395.90308)"
       clip-path="url(#clipPath1783)" />
    <path
       id="path1784"
       d="m 36286.3,7218.66 c 1.8,1.6 3.7,3.09 5.7,4.47 l -1.7,-1.2 c 3.7,2.54 7.8,4.65 12.2,6.27 l -2.1,-0.77 c 1,0.35 1.9,0.67 2.9,0.98 2.2,0.68 4,1.74 5.2,3.53 1.1,1.64 1.6,4.07 0.9,5.91 -0.7,1.86 -2,3.65 -4,4.58 -2,0.93 -4.5,1.47 -6.7,0.78 -9.3,-2.9 -17.8,-7.47 -24.7,-13.69 -1.6,-1.42 -2.5,-3.44 -2.5,-5.43 0,-1.88 0.9,-4.13 2.5,-5.43 3.5,-2.78 8.9,-3.06 12.3,0"
       style="fill:#a46e4a;fill-opacity:1;fill-rule:nonzero;stroke:none"
       transform="matrix(0.03527778,0,0,-0.03527778,-1198.4955,395.90308)"
       clip-path="url(#clipPath1785)" />
    <path
       id="path1786"
       d="m 36374.9,6826.3 c 4.7,-56.36 12.9,-103.8 33,-156.64 21.1,-55.12 54.2,-110.83 108.8,-133.22 74.5,-30.6 162.8,14.87 207.4,82 44.6,67.14 56.1,129.77 66.4,209.7 44.8,-12.07 89.5,-23.9 121.5,-32.54 -14.9,-118.42 -29.9,-376.56 1.8,-491.66 -230.5,-30.49 -430.2,-96.74 -659.9,-61.38 24.7,98.25 -15,446.63 -17.1,547.93 36.1,15.07 138.1,35.81 138.1,35.81"
       style="fill:#ce7d1d;fill-opacity:1;fill-rule:nonzero;stroke:none"
       transform="matrix(0.03527778,0,0,-0.03527778,-1198.4955,395.90308)"
       clip-path="url(#clipPath1787)" />
    <path
       id="path1788"
       d="m 36423.6,6561.39 c 54.2,-67.34 148.2,-93.18 229.1,-62.56 23,8.72 44.1,21.29 62.7,37.41 7.4,6.48 -3.5,17.3 -10.9,10.85 -30.3,-26.3 -69.3,-42.52 -109.4,-45.53 -39.1,-2.93 -78.1,6.9 -111.6,27.33 -18.8,11.48 -35.3,26.2 -49.1,43.35 -6.2,7.7 -17,-3.22 -10.8,-10.85"
       style="fill:#5b371e;fill-opacity:1;fill-rule:nonzero;stroke:none"
       transform="matrix(0.03527778,0,0,-0.03527778,-1198.4955,395.90308)"
       clip-path="url(#clipPath1789)" />
    <path
       id="path1790"
       d="m 36310,7430.27 c 20.6,11.22 44.5,16.33 67.9,14.51 4.2,49.07 10.7,97.93 19.4,146.4 3.5,-46.38 7.1,-92.76 10.6,-139.14 25.1,0.28 50.1,0.55 75.2,0.83 -5.1,67.89 3.9,136.8 26.2,201.11 24.1,-65.47 40.7,-133.67 49.5,-202.87 38.1,2.63 76.5,2.27 114.6,-1.11 -1.9,47.52 -7.5,94.88 -16.9,141.48 35.4,-37.75 39.6,-94.27 41.9,-146.01 50.7,6.08 102.2,4.86 152.5,-3.62 7.7,74.54 1.4,150.51 -18.5,222.74 -163.6,26.72 -330.7,12.52 -495.8,-1.75 -5.2,-0.45 -10.7,-1.06 -14.5,-4.53 -2.8,-2.51 -4.2,-6.15 -5.5,-9.66 -26.4,-72.07 -35.8,-150.29 -27.2,-226.56 6.1,1.95 12.2,3.9 18.4,5.85 l 2.2,2.33"
       style="fill:#1a1a1a;fill-opacity:1;fill-rule:nonzero;stroke:none"
       transform="matrix(0.03527778,0,0,-0.03527778,-1198.4955,395.90308)"
       clip-path="url(#clipPath1791)" />
    <path
       id="path1792"
       d="m 36559.3,7230.63 c -6.3,-11.28 -6.5,-25.8 0.4,-36.92 6.5,-10.56 18.1,-17.09 30.4,-17.47 4.1,-0.13 7.9,3.61 7.7,7.67 -0.2,4.26 -3.3,7.54 -7.7,7.67 l -1.6,0.08 c -0.8,0.07 -1.2,0.2 -0.2,0 -1,0.2 -2.1,0.4 -3.1,0.69 -1,0.3 -2,0.65 -3,1.05 1.6,-0.66 -0.3,0.19 -0.5,0.3 l -1.2,0.61 c -0.9,0.53 -1.8,1.12 -2.7,1.73 -1.7,1.19 1.1,-0.99 -0.5,0.4 l -0.9,0.86 -2.2,2.33 c -1.4,1.53 0.7,-1.22 -0.4,0.48 l -0.9,1.35 c -0.6,0.96 -1.1,1.96 -1.6,2.98 -0.5,1.08 0.5,-1.61 -0.1,0.4 l -0.5,1.64 c -0.3,1.11 -0.5,2.23 -0.8,3.36 -0.2,1.19 0.1,-1.77 0,0.35 v 1.72 c -0.1,1.16 0.1,2.29 0.1,3.45 0,0.89 -0.3,-1.1 0,0.34 l 0.4,1.69 c 0.3,1.12 0.7,2.18 1,3.28 0.2,0.81 -0.5,-0.86 0.2,0.39 l 0.9,1.83 c 2,3.5 1,8.53 -2.7,10.5 -3.6,1.91 -8.4,0.99 -10.5,-2.76"
       style="fill:#a46e4a;fill-opacity:1;fill-rule:nonzero;stroke:none"
       transform="matrix(0.03527778,0,0,-0.03527778,-1198.4955,395.90308)"
       clip-path="url(#clipPath1793)" />
    <path
       id="path1794"
       d="m 36621.5,7113.5 c 23.1,2.33 43.5,18.86 49.6,41.52 1.1,3.88 -1.3,8.52 -5.3,9.44 -4.1,0.92 -8.4,-1.21 -9.5,-5.36 -0.3,-1.17 -0.6,-2.33 -1.1,-3.48 l -0.6,-1.71 c -0.5,-1.37 0.4,0.72 0,-0.11 -1.1,-2.08 -2.1,-4.15 -3.4,-6.12 -0.6,-1.02 -1.3,-2.01 -2.1,-2.98 l -0.1,-0.12 -1.2,-1.39 c -1.5,-1.74 -3.2,-3.38 -4.9,-4.9 l -1.4,-1.16 -0.2,-0.1 c -0.9,-0.66 -1.8,-1.29 -2.7,-1.89 -2.1,-1.31 -4.2,-2.41 -6.4,-3.45 -1.4,-0.63 0.7,0.26 -0.1,-0.06 l -1.8,-0.63 c -1,-0.37 -2.1,-0.71 -3.1,-1 -1.2,-0.33 -2.4,-0.6 -3.6,-0.83 l -1.8,-0.31 c 1.4,0.22 0.5,0.06 -0.3,-0.02 -4,-0.4 -7.9,-3.24 -7.7,-7.67 0.2,-3.81 3.4,-8.11 7.7,-7.67"
       style="fill:#a46e4a;fill-opacity:1;fill-rule:nonzero;stroke:none"
       transform="matrix(0.03527778,0,0,-0.03527778,-1198.4955,395.90308)"
       clip-path="url(#clipPath1795)" />
    <path
       id="path1796"
       d="m 36865.9,7736.29 c 36.2,-22.44 60,-59.14 75.4,-98.1 17.7,-44.7 26.3,-92.71 33.2,-140.08 15.9,-109.13 17.5,-220.31 40.5,-328.41 10.5,-49.3 33.9,-105.52 88.4,-118.25 9.6,-2.25 13.7,12.55 4.1,14.8 -48.7,11.36 -68,62.8 -77.4,106.42 -11.5,53.27 -17.4,107.66 -22.7,161.84 -5.2,54.32 -9.7,108.74 -17.4,162.8 -6.8,47.74 -15.2,96.15 -32.5,141.36 -16.9,44.18 -43,85.48 -83.9,110.87 -8.4,5.22 -16.1,-8.05 -7.7,-13.25"
       style="fill:#1a1a1a;fill-opacity:1;fill-rule:nonzero;stroke:none"
       transform="matrix(0.03527778,0,0,-0.03527778,-1198.4955,395.90308)"
       clip-path="url(#clipPath1797)" />
    <path
       id="path1798"
       d="m 36494.7,7645.92 c 18.9,-64.18 26.4,-131.09 22.2,-197.86 -0.6,-9.86 14.7,-9.82 15.4,0 4.2,68.02 -3.6,136.56 -22.8,201.94 -2.8,9.45 -17.6,5.43 -14.8,-4.08"
       style="fill:#1a1a1a;fill-opacity:1;fill-rule:nonzero;stroke:none"
       transform="matrix(0.03527778,0,0,-0.03527778,-1198.4955,395.90308)"
       clip-path="url(#clipPath1799)" />
    <path
       id="path1800"
       d="m 36241.2,7675.91 c -26.1,-28.03 -52.6,-56.76 -71.2,-90.54 -9,-16.36 -16.2,-33.97 -20,-52.3 -4.5,-21.86 -4.5,-44.29 -2.2,-66.42 4.6,-44.31 15.5,-87.6 18.1,-132.19 2.5,-44.39 -3.7,-87.37 -12.5,-130.76 -9.6,-47.44 -20.4,-95.32 -17.8,-144.05 0.5,-9.82 15.9,-9.89 15.3,0 -4.5,85.22 31.4,166.32 31,251.4 -0.1,43.78 -8.3,86.42 -15.2,129.46 -6.7,41.75 -8.5,83.87 9.5,123.18 17.7,38.76 47.1,70.53 75.9,101.37 6.7,7.22 -4.1,18.09 -10.9,10.85"
       style="fill:#1a1a1a;fill-opacity:1;fill-rule:nonzero;stroke:none"
       transform="matrix(0.03527778,0,0,-0.03527778,-1198.4955,395.90308)"
       clip-path="url(#clipPath1801)" />
    <path
       id="path1802"
       d="m 36445.6,7348.15 c -50.5,0 -91.7,-41.14 -91.7,-91.7 0,-50.57 41.2,-91.7 91.7,-91.7 50.6,0 91.7,41.13 91.7,91.7 0,50.56 -41.1,91.7 -91.7,91.7 z m 0,-193.63 c -56.2,0 -101.9,45.72 -101.9,101.93 0,56.2 45.7,101.93 101.9,101.93 56.2,0 102,-45.73 102,-101.93 0,-56.21 -45.8,-101.93 -102,-101.93"
       style="fill:#ed6b55;fill-opacity:1;fill-rule:nonzero;stroke:none"
       transform="matrix(0.03527778,0,0,-0.03527778,-1198.4955,395.90308)"
       clip-path="url(#clipPath1803)" />
    <path
       id="path1804"
       d="m 36713.3,7348.15 c -50.6,0 -91.7,-41.14 -91.7,-91.7 0,-50.57 41.1,-91.7 91.7,-91.7 50.6,0 91.7,41.13 91.7,91.7 0,50.56 -41.1,91.7 -91.7,91.7 z m 0,-193.63 c -56.2,0 -101.9,45.72 -101.9,101.93 0,56.2 45.7,101.93 101.9,101.93 56.2,0 101.9,-45.73 101.9,-101.93 0,-56.21 -45.7,-101.93 -101.9,-101.93"
       style="fill:#ed6b55;fill-opacity:1;fill-rule:nonzero;stroke:none"
       transform="matrix(0.03527778,0,0,-0.03527778,-1198.4955,395.90308)"
       clip-path="url(#clipPath1805)" />
    <path
       id="path1806"
       d="m 36552.3,7252.89 c 7.4,7.98 18,12.22 28.7,10.96 9.7,-1.14 19,-7.37 24.2,-15.96 5.1,-8.45 18.4,-0.74 13.2,7.74 -7.8,13.04 -21.3,21.68 -36.4,23.45 -14.9,1.75 -30.4,-4.36 -40.5,-15.33 -2.8,-3.05 -3,-7.84 0,-10.86 2.8,-2.84 8,-3.05 10.8,0"
       style="fill:#ed6b55;fill-opacity:1;fill-rule:nonzero;stroke:none"
       transform="matrix(0.03527778,0,0,-0.03527778,-1198.4955,395.90308)"
       clip-path="url(#clipPath1807)" />
    <path
       id="path1808"
       d="m 36864.6,6806.97 c -30.1,-178.17 -180.8,-351.68 -300.4,-487.1 -102.4,127.88 -225.7,279.29 -289.1,488.52 -399,-112.54 -315.2,-464.86 -316.1,-587.65 418.8,-99.1 863.4,-87.21 1276.3,34.14 1.6,59.17 -35.4,244.1 -49.6,287.51 -47.1,143.64 -167.3,272.76 -318.4,269.57 l -2.7,-4.99"
       style="fill:#5b371e;fill-opacity:1;fill-rule:nonzero;stroke:none"
       transform="matrix(0.03527778,0,0,-0.03527778,-1198.4955,395.90308)"
       clip-path="url(#clipPath1809)" />
    <path
       id="path1810"
       d="m 36191.5,6615.56 c 3.3,-106.29 3.1,-212.68 -0.6,-318.96 -1.1,-30.06 -2.4,-60.11 -4,-90.15 -0.5,-9.86 14.8,-9.84 15.3,0 5.7,106.19 8,212.56 6.6,318.89 -0.3,30.08 -1,60.15 -1.9,90.22 -0.3,9.85 -15.7,9.89 -15.4,0"
       style="fill:#ce7d1d;fill-opacity:1;fill-rule:nonzero;stroke:none"
       transform="matrix(0.03527778,0,0,-0.03527778,-1198.4955,395.90308)"
       clip-path="url(#clipPath1811)" />
    <path
       id="path1812"
       d="m 37001.1,6605.1 c -1.5,-86.99 -3.3,-173.96 -5.7,-260.92 -0.7,-25.03 -1.4,-50.06 -2.2,-75.08 -0.3,-9.88 15.1,-9.87 15.4,0 2.6,86.95 4.8,173.92 6.5,260.9 0.4,25.03 0.9,50.06 1.3,75.1 0.2,9.88 -15.2,9.88 -15.3,0"
       style="fill:#ce7d1d;fill-opacity:1;fill-rule:nonzero;stroke:none"
       transform="matrix(0.03527778,0,0,-0.03527778,-1198.4955,395.90308)"
       clip-path="url(#clipPath1813)" />
    <path
       id="path1814"
       d="m 36618,6385.66 c 14.1,-13.68 29.1,-26.31 44.9,-37.94 3.2,-2.39 8.7,-0.65 10.5,2.75 2.1,4.01 0.7,7.95 -2.8,10.5 -1.8,1.37 -3.7,2.74 -5.5,4.14 l -1.6,1.23 -0.4,0.29 -2.5,2.01 c -3.7,2.94 -7.4,5.95 -11,9.01 -7.2,6.05 -14.1,12.35 -20.8,18.86 -2.9,2.8 -8,3.08 -10.8,0 -2.8,-3.03 -3.1,-7.86 0,-10.85"
       style="fill:#ce7d1d;fill-opacity:1;fill-rule:nonzero;stroke:none"
       transform="matrix(0.03527778,0,0,-0.03527778,-1198.4955,395.90308)"
       clip-path="url(#clipPath1815)" />
    <path
       id="path1816"
       d="m 36643.8,6420.94 c 18.1,-12.56 36.3,-25.12 54.4,-37.69 3.4,-2.36 8.5,-0.63 10.5,2.76 2.2,3.81 0.7,8.13 -2.7,10.49 -18.2,12.57 -36.3,25.13 -54.4,37.69 -3.5,2.36 -8.6,0.63 -10.5,-2.75 -2.3,-3.82 -0.7,-8.13 2.7,-10.5"
       style="fill:#ce7d1d;fill-opacity:1;fill-rule:nonzero;stroke:none"
       transform="matrix(0.03527778,0,0,-0.03527778,-1198.4955,395.90308)"
       clip-path="url(#clipPath1817)" />
    <path
       id="path1818"
       d="m 36671.3,6449.97 c 17,-11.92 34,-23.84 51,-35.76 3.4,-2.37 8.6,-0.61 10.5,2.76 2.3,3.82 0.7,8.11 -2.7,10.49 -17,11.92 -34.1,23.84 -51.1,35.76 -3.4,2.38 -8.5,0.61 -10.5,-2.76 -2.2,-3.82 -0.6,-8.11 2.8,-10.49"
       style="fill:#ce7d1d;fill-opacity:1;fill-rule:nonzero;stroke:none"
       transform="matrix(0.03527778,0,0,-0.03527778,-1198.4955,395.90308)"
       clip-path="url(#clipPath1819)" />
    <path
       id="path1820"
       d="m 36702.1,6495.98 c 16.6,-14.25 34.1,-27.49 52.4,-39.57 3.5,-2.29 8.5,-0.69 10.5,2.75 2.2,3.75 0.7,8.21 -2.7,10.5 -17.3,11.44 -33.7,23.71 -49.4,37.17 -3.1,2.69 -7.7,3.09 -10.8,0 -2.8,-2.76 -3.2,-8.15 0,-10.85"
       style="fill:#ce7d1d;fill-opacity:1;fill-rule:nonzero;stroke:none"
       transform="matrix(0.03527778,0,0,-0.03527778,-1198.4955,395.90308)"
       clip-path="url(#clipPath1821)" />
    <path
       id="path1822"
       d="m 36734.3,6539.25 c 23.7,-10.49 45.7,-24.54 65,-41.89 3.1,-2.77 7.8,-3.04 10.8,0 2.9,2.82 3.1,8.07 0,10.85 -20.2,18.22 -43.1,33.27 -68.1,44.3 -3.7,1.67 -8.2,1.1 -10.5,-2.76 -1.9,-3.26 -1,-8.81 2.8,-10.5"
       style="fill:#ce7d1d;fill-opacity:1;fill-rule:nonzero;stroke:none"
       transform="matrix(0.03527778,0,0,-0.03527778,-1198.4955,395.90308)"
       clip-path="url(#clipPath1823)" />
    <path
       id="path1824"
       d="m 36761.8,6590.82 c 21.2,-10.62 41.7,-22.61 61.3,-35.89 3.4,-2.32 8.5,-0.65 10.5,2.75 2.2,3.79 0.7,8.18 -2.8,10.5 -19.6,13.28 -40,25.27 -61.2,35.89 -3.7,1.86 -8.3,0.99 -10.5,-2.75 -2,-3.41 -1,-8.64 2.7,-10.5"
       style="fill:#ce7d1d;fill-opacity:1;fill-rule:nonzero;stroke:none"
       transform="matrix(0.03527778,0,0,-0.03527778,-1198.4955,395.90308)"
       clip-path="url(#clipPath1825)" />
    <path
       id="path1826"
       d="m 36795.3,6648.1 c 24.3,-8.86 48.7,-17.72 73,-26.58 3.9,-1.41 8.4,1.6 9.4,5.36 1.2,4.28 -1.4,8.02 -5.3,9.44 -24.4,8.86 -48.7,17.72 -73,26.58 -3.9,1.41 -8.4,-1.6 -9.4,-5.36 -1.2,-4.28 1.4,-8.02 5.3,-9.44"
       style="fill:#ce7d1d;fill-opacity:1;fill-rule:nonzero;stroke:none"
       transform="matrix(0.03527778,0,0,-0.03527778,-1198.4955,395.90308)"
       clip-path="url(#clipPath1827)" />
    <path
       id="path1828"
       d="m 36817.6,6696.09 c 24.6,-9.95 49.8,-18.03 75.5,-24.21 9.6,-2.3 13.7,12.5 4.1,14.8 -25.7,6.17 -51,14.26 -75.5,24.21 -3.8,1.55 -8.4,-1.7 -9.4,-5.36 -1.2,-4.39 1.5,-7.88 5.3,-9.44"
       style="fill:#ce7d1d;fill-opacity:1;fill-rule:nonzero;stroke:none"
       transform="matrix(0.03527778,0,0,-0.03527778,-1198.4955,395.90308)"
       clip-path="url(#clipPath1829)" />
    <path
       id="path1830"
       d="m 36832.2,6741.49 c 25.5,-2.4 50.6,-7.85 74.8,-15.94 9.4,-3.13 13.5,11.69 4.1,14.8 -25.6,8.53 -52.1,13.95 -78.9,16.48 -4.2,0.39 -7.7,-3.8 -7.7,-7.67 0,-4.47 3.5,-7.28 7.7,-7.67"
       style="fill:#ce7d1d;fill-opacity:1;fill-rule:nonzero;stroke:none"
       transform="matrix(0.03527778,0,0,-0.03527778,-1198.4955,395.90308)"
       clip-path="url(#clipPath1831)" />
    <path
       id="path1832"
       d="m 36854.9,6780.51 c 17.4,-0.38 34.9,-1.73 52.2,-4.05 4.1,-0.55 7.6,3.92 7.6,7.67 0,4.6 -3.5,7.12 -7.6,7.67 -17.3,2.32 -34.8,3.67 -52.2,4.05 -4.2,0.09 -7.7,-3.59 -7.7,-7.67 0,-4.24 3.5,-7.58 7.7,-7.67"
       style="fill:#ce7d1d;fill-opacity:1;fill-rule:nonzero;stroke:none"
       transform="matrix(0.03527778,0,0,-0.03527778,-1198.4955,395.90308)"
       clip-path="url(#clipPath1833)" />
    <path
       id="path1834"
       d="m 36586.8,6368.35 c 12.6,-14.76 23.8,-30.14 34.3,-46.83 2.1,-3.4 7,-5.05 10.5,-2.75 3.4,2.19 5.1,6.86 2.8,10.49 -11,17.53 -23.3,34.21 -36.8,49.95 -2.6,3.06 -8.2,2.89 -10.8,0 -3,-3.27 -2.8,-7.59 0,-10.86"
       style="fill:#ce7d1d;fill-opacity:1;fill-rule:nonzero;stroke:none"
       transform="matrix(0.03527778,0,0,-0.03527778,-1198.4955,395.90308)"
       clip-path="url(#clipPath1835)" />
    <path
       id="path1836"
       d="m 36565.3,6344.75 c 11.1,-17.79 20.4,-36.65 27.5,-56.39 1.4,-3.9 5.2,-6.52 9.4,-5.36 3.8,1.04 6.8,5.52 5.4,9.44 -7.6,20.98 -17.2,41.15 -29.1,60.05 -2.1,3.51 -6.8,4.89 -10.5,2.75 -3.5,-2.04 -4.9,-6.97 -2.7,-10.49"
       style="fill:#ce7d1d;fill-opacity:1;fill-rule:nonzero;stroke:none"
       transform="matrix(0.03527778,0,0,-0.03527778,-1198.4955,395.90308)"
       clip-path="url(#clipPath1837)" />
    <path
       id="path1838"
       d="m 36546.8,6340.9 c -7.9,-13.47 -15.8,-26.94 -23.7,-40.41 -2.1,-3.46 -0.9,-8.57 2.7,-10.5 3.7,-1.95 8.3,-0.94 10.5,2.76 7.9,13.47 15.9,26.93 23.8,40.4 2,3.47 0.9,8.57 -2.8,10.5 -3.6,1.95 -8.3,0.95 -10.5,-2.75"
       style="fill:#ce7d1d;fill-opacity:1;fill-rule:nonzero;stroke:none"
       transform="matrix(0.03527778,0,0,-0.03527778,-1198.4955,395.90308)"
       clip-path="url(#clipPath1839)" />
    <path
       id="path1840"
       d="m 36522.2,6368.92 c -4.9,-7.24 -10,-14.35 -15.3,-21.33 l -1.9,-2.57 c -0.8,-1.06 0.5,0.7 -0.3,-0.36 l -1,-1.28 c -1.3,-1.69 -2.7,-3.38 -4,-5.06 -2.8,-3.47 -5.6,-6.89 -8.5,-10.29 -2.6,-3.06 -3.2,-7.89 0,-10.85 2.9,-2.62 8.1,-3.27 10.8,0 12,14.07 23.1,28.76 33.5,44 2.3,3.33 0.7,8.65 -2.8,10.5 -3.8,2.05 -8,0.8 -10.5,-2.76"
       style="fill:#ce7d1d;fill-opacity:1;fill-rule:nonzero;stroke:none"
       transform="matrix(0.03527778,0,0,-0.03527778,-1198.4955,395.90308)"
       clip-path="url(#clipPath1841)" />
    <path
       id="path1842"
       d="m 36509.7,6389.54 c -10.4,-11.03 -20.9,-22.06 -31.3,-33.09 -2.8,-2.92 -3.1,-8 0,-10.85 3,-2.75 7.9,-3.12 10.8,0 10.5,11.03 20.9,22.06 31.4,33.09 2.7,2.92 3.1,8 0,10.85 -3,2.75 -7.9,3.12 -10.9,0"
       style="fill:#ce7d1d;fill-opacity:1;fill-rule:nonzero;stroke:none"
       transform="matrix(0.03527778,0,0,-0.03527778,-1198.4955,395.90308)"
       clip-path="url(#clipPath1843)" />
    <path
       id="path1844"
       d="m 36477.2,6440.16 c -11.4,-20.17 -26,-37.61 -43.9,-52.55 -3.2,-2.65 -2.8,-8.1 0,-10.85 3.1,-3.15 7.6,-2.66 10.8,0 18.6,15.56 34.4,34.55 46.3,55.66 2.1,3.6 0.9,8.38 -2.7,10.5 -3.6,2.07 -8.5,0.86 -10.5,-2.76"
       style="fill:#ce7d1d;fill-opacity:1;fill-rule:nonzero;stroke:none"
       transform="matrix(0.03527778,0,0,-0.03527778,-1198.4955,395.90308)"
       clip-path="url(#clipPath1845)" />
    <path
       id="path1846"
       d="m 36447.5,6483.19 c -11.1,-13.78 -23,-26.98 -35.4,-39.53 -2.9,-2.85 -3.1,-8.05 0,-10.86 3,-2.8 7.8,-3.04 10.8,0 12.5,12.56 24.3,25.75 35.4,39.54 2.5,3.12 3.3,7.85 0,10.85 -2.8,2.57 -8.1,3.34 -10.8,0"
       style="fill:#ce7d1d;fill-opacity:1;fill-rule:nonzero;stroke:none"
       transform="matrix(0.03527778,0,0,-0.03527778,-1198.4955,395.90308)"
       clip-path="url(#clipPath1847)" />
    <path
       id="path1848"
       d="m 36417.4,6527.11 c -11.3,-14.14 -23.4,-27.57 -36.4,-40.24 -2.8,-2.81 -3,-8.06 0,-10.85 3.1,-2.83 7.8,-3 10.9,0 12.9,12.66 25.1,26.1 36.3,40.24 2.5,3.13 3.3,7.84 0,10.85 -2.7,2.56 -8.1,3.35 -10.8,0"
       style="fill:#ce7d1d;fill-opacity:1;fill-rule:nonzero;stroke:none"
       transform="matrix(0.03527778,0,0,-0.03527778,-1198.4955,395.90308)"
       clip-path="url(#clipPath1849)" />
    <path
       id="path1850"
       d="m 36396.4,6557.39 c -13,-16.91 -28.6,-33.47 -44.9,-47.96 -3.1,-2.75 -2.8,-8.04 0,-10.85 3.1,-3.08 7.7,-2.76 10.9,0 17.4,15.46 33.1,32.59 47.3,51.06 2.4,3.2 0.5,8.73 -2.8,10.5 -4.1,2.14 -7.9,0.66 -10.5,-2.75"
       style="fill:#ce7d1d;fill-opacity:1;fill-rule:nonzero;stroke:none"
       transform="matrix(0.03527778,0,0,-0.03527778,-1198.4955,395.90308)"
       clip-path="url(#clipPath1851)" />
    <path
       id="path1852"
       d="m 36375.8,6587.86 c -11,-13.29 -23.2,-25.55 -36.5,-36.6 -3.1,-2.58 -2.9,-8.22 0,-10.85 3.3,-3.03 7.5,-2.75 10.8,0 13.3,11.05 25.6,23.3 36.6,36.6 2.6,3.08 3.2,7.87 0,10.85 -2.8,2.6 -8.1,3.3 -10.9,0"
       style="fill:#ce7d1d;fill-opacity:1;fill-rule:nonzero;stroke:none"
       transform="matrix(0.03527778,0,0,-0.03527778,-1198.4955,395.90308)"
       clip-path="url(#clipPath1853)" />
    <path
       id="path1854"
       d="m 36349.9,6622.52 c -10.4,-11.61 -20.9,-23.22 -31.3,-34.84 -2.7,-2.98 -3.2,-7.94 0,-10.85 2.9,-2.69 8,-3.18 10.8,0 10.5,11.62 20.9,23.23 31.4,34.84 2.6,2.99 3.1,7.95 0,10.85 -3,2.69 -8,3.19 -10.9,0"
       style="fill:#ce7d1d;fill-opacity:1;fill-rule:nonzero;stroke:none"
       transform="matrix(0.03527778,0,0,-0.03527778,-1198.4955,395.90308)"
       clip-path="url(#clipPath1855)" />
    <path
       id="path1856"
       d="m 36336.6,6670.61 c -13.5,-13.19 -27,-26.37 -40.5,-39.55 -2.9,-2.8 -3.1,-8.07 0,-10.85 3,-2.84 7.7,-2.99 10.8,0 13.5,13.18 27.1,26.36 40.6,39.54 2.9,2.81 3,8.08 0,10.86 -3.1,2.84 -7.8,2.99 -10.9,0"
       style="fill:#ce7d1d;fill-opacity:1;fill-rule:nonzero;stroke:none"
       transform="matrix(0.03527778,0,0,-0.03527778,-1198.4955,395.90308)"
       clip-path="url(#clipPath1857)" />
    <path
       id="path1858"
       d="m 36335.2,6706.23 c -16.8,-11.02 -33.6,-22.04 -50.5,-33.06 -3.4,-2.26 -4.9,-6.79 -2.7,-10.49 2,-3.45 7,-5.04 10.5,-2.76 16.8,11.02 33.6,22.04 50.5,33.06 3.5,2.27 4.9,6.79 2.7,10.5 -2,3.44 -7,5.03 -10.5,2.75"
       style="fill:#ce7d1d;fill-opacity:1;fill-rule:nonzero;stroke:none"
       transform="matrix(0.03527778,0,0,-0.03527778,-1198.4955,395.90308)"
       clip-path="url(#clipPath1859)" />
    <path
       id="path1860"
       d="m 36309.4,6749.43 c -21.1,-9.73 -40.7,-21.98 -58.9,-36.28 -3.3,-2.56 -2.7,-8.17 0,-10.85 3.2,-3.22 7.6,-2.57 10.9,0 17.1,13.45 36,24.74 55.7,33.88 3.8,1.74 4.7,7.17 2.8,10.5 -2.3,3.86 -6.8,4.5 -10.5,2.75"
       style="fill:#ce7d1d;fill-opacity:1;fill-rule:nonzero;stroke:none"
       transform="matrix(0.03527778,0,0,-0.03527778,-1198.4955,395.90308)"
       clip-path="url(#clipPath1861)" />
    <path
       id="path1862"
       d="m 36290.2,6772.09 c -17.3,-12.24 -35.3,-23.3 -54,-33.12 -3.6,-1.93 -4.8,-7.04 -2.7,-10.5 2.1,-3.72 6.8,-4.69 10.5,-2.75 18.7,9.82 36.7,20.88 53.9,33.12 3.4,2.4 5,6.7 2.8,10.5 -2,3.33 -7.1,5.16 -10.5,2.75"
       style="fill:#ce7d1d;fill-opacity:1;fill-rule:nonzero;stroke:none"
       transform="matrix(0.03527778,0,0,-0.03527778,-1198.4955,395.90308)"
       clip-path="url(#clipPath1863)" />
    <path
       id="path1864"
       d="m 36286.7,6792.59 c -17.4,-4.5 -34.1,-11.97 -48.9,-22.02 -3.3,-2.25 -5.1,-6.86 -2.8,-10.5 2.2,-3.31 7,-5.16 10.5,-2.76 14.4,9.73 28.7,16.19 45.3,20.48 3.8,1.01 6.6,5.54 5.3,9.44 -1.3,4.01 -5.3,6.44 -9.4,5.36"
       style="fill:#ce7d1d;fill-opacity:1;fill-rule:nonzero;stroke:none"
       transform="matrix(0.03527778,0,0,-0.03527778,-1198.4955,395.90308)"
       clip-path="url(#clipPath1865)" />
  </g>
</svg>
