<?xml version="1.0" encoding="UTF-8" standalone="no"?>
<!-- Created with Inkscape (http://www.inkscape.org/) -->

<svg
   width="64.332558mm"
   height="64.332207mm"
   viewBox="0 0 64.332558 64.332207"
   version="1.1"
   id="svg1"
   inkscape:version="1.3.2 (091e20e, 2023-11-25)"
   sodipodi:docname="suspenders-redhead-girl-avatar.svg"
   xmlns:inkscape="http://www.inkscape.org/namespaces/inkscape"
   xmlns:sodipodi="http://sodipodi.sourceforge.net/DTD/sodipodi-0.dtd"
   xmlns="http://www.w3.org/2000/svg"
   xmlns:svg="http://www.w3.org/2000/svg">
  <sodipodi:namedview
     id="namedview1"
     pagecolor="#ffffff"
     bordercolor="#000000"
     borderopacity="0.25"
     inkscape:showpageshadow="2"
     inkscape:pageopacity="0.0"
     inkscape:pagecheckerboard="0"
     inkscape:deskcolor="#d1d1d1"
     inkscape:document-units="mm"
     inkscape:zoom="0.76338144"
     inkscape:cx="-41.263775"
     inkscape:cy="249.54759"
     inkscape:window-width="1920"
     inkscape:window-height="1052"
     inkscape:window-x="0"
     inkscape:window-y="28"
     inkscape:window-maximized="0"
     inkscape:current-layer="layer1" />
  <defs
     id="defs1">
    <clipPath
       clipPathUnits="userSpaceOnUse"
       id="clipPath773">
      <path
         d="m 20136.2,5084.48 c 0,-503.57 -408.2,-911.8 -911.8,-911.8 -503.6,0 -911.8,408.23 -911.8,911.8 0,503.57 408.2,911.79 911.8,911.79 503.6,0 911.8,-408.22 911.8,-911.79"
         transform="translate(0,-2.5e-4)"
         id="path773" />
    </clipPath>
    <clipPath
       clipPathUnits="userSpaceOnUse"
       id="clipPath775">
      <path
         d="m 20136.2,5084.48 c 0,-503.57 -408.2,-911.8 -911.8,-911.8 -503.6,0 -911.8,408.23 -911.8,911.8 0,503.57 408.2,911.79 911.8,911.79 503.6,0 911.8,-408.22 911.8,-911.79"
         transform="translate(0,-2.5e-4)"
         id="path775" />
    </clipPath>
    <clipPath
       clipPathUnits="userSpaceOnUse"
       id="clipPath777">
      <path
         d="m 20136.2,5084.48 c 0,-503.57 -408.2,-911.8 -911.8,-911.8 -503.6,0 -911.8,408.23 -911.8,911.8 0,503.57 408.2,911.79 911.8,911.79 503.6,0 911.8,-408.22 911.8,-911.79"
         transform="translate(0,-2.5e-4)"
         id="path777" />
    </clipPath>
    <clipPath
       clipPathUnits="userSpaceOnUse"
       id="clipPath778">
      <path
         d="m 19948,4857.33 c -16.3,45.09 -54.7,76.26 -95.7,87.82 34.9,46.85 25.1,124.94 -13.9,167.31 -39,42.37 -99.1,51.55 -150.6,34.61 25.1,50.77 34.8,115.17 13.1,167.99 -14.7,35.71 -73.8,52.49 -124.6,51.73 -1,-1.42 -1.9,-2.85 -2.8,-4.26 -0.9,1.39 -1.9,2.72 -2.8,4.1 -22.2,-0.91 -42.4,-5.21 -56,-12.88 -1,25.8 -0.6,52.11 0.8,78.76 -55.4,53.47 -125.3,90.54 -199.6,104.07 -103.3,18.82 -213.5,-8.05 -298.3,-72.76 l -34.4,10.5 c -20.8,-44.7 -36.1,-92.11 -30.9,-108.41 -34.1,14.24 -122,16.05 -143.4,-17.77 -21.3,-33.84 -20.8,-83.98 1.3,-117.17 -52.3,-6.02 -101,-44.51 -124.8,-98.69 -23.8,-54.19 -22,-122.34 4.6,-174.73 -63.5,22.04 -135.4,-20.3 -168.6,-86.77 -33.2,-66.45 -32.1,-150.45 -9.9,-222.77 0.2,-0.01 70.8,-1.23 180.4,-2.84 3.5,31.38 10.4,62.4 20.4,92.34 10.1,-31.03 20.1,-62.05 30.1,-93.07 251.3,-3.58 652.3,-8.32 915.1,-6.7 4.8,38.03 14.2,75.48 28.1,111.18 10.3,-36.51 18.9,-73.48 25.9,-110.72 22.1,0.22 42.8,0.52 62,0.87 5.8,34.22 15.2,67.81 28.2,100.01 18.6,-29.43 29.3,-63.76 30.9,-98.54 50.7,1.67 82.1,4.09 86.3,7.47 34.9,27.64 45.3,164.24 29.1,209.32"
         transform="translate(0,-2.5e-4)"
         id="path778" />
    </clipPath>
    <clipPath
       clipPathUnits="userSpaceOnUse"
       id="clipPath781">
      <path
         d="m 20136.2,5084.48 c 0,-503.57 -408.2,-911.8 -911.8,-911.8 -503.6,0 -911.8,408.23 -911.8,911.8 0,503.57 408.2,911.79 911.8,911.79 503.6,0 911.8,-408.22 911.8,-911.79"
         transform="translate(0,-2.5e-4)"
         id="path781" />
    </clipPath>
    <clipPath
       clipPathUnits="userSpaceOnUse"
       id="clipPath782">
      <path
         d="m 19669.6,4531.5 c -84.9,56.8 -187.4,79.56 -287.5,99.67 -6.1,1.22 -12.4,2.55 -17.3,6.38 -8.4,6.57 10.6,171.3 0,267.97 l -142.9,-13.38 -142.9,13.38 c -10.7,-96.67 8.4,-261.4 0,-267.97 -4.9,-3.83 -11.2,-5.16 -17.3,-6.38 -100.1,-20.11 -202.6,-42.87 -287.5,-99.67 -84.8,-56.81 -149.1,-376.15 -135.4,-477.33 85.1,0.44 322.9,219.16 563.8,215.99 v -0.52 c 6.4,0.09 12.8,0.18 19.3,0.27 6.4,-0.09 12.9,-0.18 19.3,-0.27 v 0.52 c 240.9,3.17 478.7,-215.55 563.8,-215.99 13.6,101.18 -50.6,420.52 -135.4,477.33"
         transform="translate(0,-2.5e-4)"
         id="path782" />
    </clipPath>
    <clipPath
       clipPathUnits="userSpaceOnUse"
       id="clipPath785">
      <path
         d="m 20136.2,5084.48 c 0,-503.57 -408.2,-911.8 -911.8,-911.8 -503.6,0 -911.8,408.23 -911.8,911.8 0,503.57 408.2,911.79 911.8,911.79 503.6,0 911.8,-408.22 911.8,-911.79"
         transform="translate(0,-2.5e-4)"
         id="path785" />
    </clipPath>
    <clipPath
       clipPathUnits="userSpaceOnUse"
       id="clipPath787">
      <path
         d="m 20136.2,5084.48 c 0,-503.57 -408.2,-911.8 -911.8,-911.8 -503.6,0 -911.8,408.23 -911.8,911.8 0,503.57 408.2,911.79 911.8,911.79 503.6,0 911.8,-408.22 911.8,-911.79"
         transform="translate(0,-2.5e-4)"
         id="path787" />
    </clipPath>
    <clipPath
       clipPathUnits="userSpaceOnUse"
       id="clipPath789">
      <path
         d="m 20136.2,5084.48 c 0,-503.57 -408.2,-911.8 -911.8,-911.8 -503.6,0 -911.8,408.23 -911.8,911.8 0,503.57 408.2,911.79 911.8,911.79 503.6,0 911.8,-408.22 911.8,-911.79"
         transform="translate(0,-2.5e-4)"
         id="path789" />
    </clipPath>
    <clipPath
       clipPathUnits="userSpaceOnUse"
       id="clipPath791">
      <path
         d="m 20136.2,5084.48 c 0,-503.57 -408.2,-911.8 -911.8,-911.8 -503.6,0 -911.8,408.23 -911.8,911.8 0,503.57 408.2,911.79 911.8,911.79 503.6,0 911.8,-408.22 911.8,-911.79"
         transform="translate(0,-2.5e-4)"
         id="path791" />
    </clipPath>
    <clipPath
       clipPathUnits="userSpaceOnUse"
       id="clipPath793">
      <path
         d="m 20136.2,5084.48 c 0,-503.57 -408.2,-911.8 -911.8,-911.8 -503.6,0 -911.8,408.23 -911.8,911.8 0,503.57 408.2,911.79 911.8,911.79 503.6,0 911.8,-408.22 911.8,-911.79"
         transform="translate(0,-2.5e-4)"
         id="path793" />
    </clipPath>
    <clipPath
       clipPathUnits="userSpaceOnUse"
       id="clipPath795">
      <path
         d="m 20136.2,5084.48 c 0,-503.57 -408.2,-911.8 -911.8,-911.8 -503.6,0 -911.8,408.23 -911.8,911.8 0,503.57 408.2,911.79 911.8,911.79 503.6,0 911.8,-408.22 911.8,-911.79"
         transform="translate(0,-2.5e-4)"
         id="path795" />
    </clipPath>
    <clipPath
       clipPathUnits="userSpaceOnUse"
       id="clipPath797">
      <path
         d="m 20136.2,5084.48 c 0,-503.57 -408.2,-911.8 -911.8,-911.8 -503.6,0 -911.8,408.23 -911.8,911.8 0,503.57 408.2,911.79 911.8,911.79 503.6,0 911.8,-408.22 911.8,-911.79"
         transform="translate(0,-2.5e-4)"
         id="path797" />
    </clipPath>
    <clipPath
       clipPathUnits="userSpaceOnUse"
       id="clipPath799">
      <path
         d="m 20136.2,5084.48 c 0,-503.57 -408.2,-911.8 -911.8,-911.8 -503.6,0 -911.8,408.23 -911.8,911.8 0,503.57 408.2,911.79 911.8,911.79 503.6,0 911.8,-408.22 911.8,-911.79"
         transform="translate(0,-2.5e-4)"
         id="path799" />
    </clipPath>
    <clipPath
       clipPathUnits="userSpaceOnUse"
       id="clipPath801">
      <path
         d="m 20136.2,5084.48 c 0,-503.57 -408.2,-911.8 -911.8,-911.8 -503.6,0 -911.8,408.23 -911.8,911.8 0,503.57 408.2,911.79 911.8,911.79 503.6,0 911.8,-408.22 911.8,-911.79"
         transform="translate(0,-2.5e-4)"
         id="path801" />
    </clipPath>
    <clipPath
       clipPathUnits="userSpaceOnUse"
       id="clipPath803">
      <path
         d="m 20136.2,5084.48 c 0,-503.57 -408.2,-911.8 -911.8,-911.8 -503.6,0 -911.8,408.23 -911.8,911.8 0,503.57 408.2,911.79 911.8,911.79 503.6,0 911.8,-408.22 911.8,-911.79"
         transform="translate(0,-2.5e-4)"
         id="path803" />
    </clipPath>
    <clipPath
       clipPathUnits="userSpaceOnUse"
       id="clipPath805">
      <path
         d="m 20136.2,5084.48 c 0,-503.57 -408.2,-911.8 -911.8,-911.8 -503.6,0 -911.8,408.23 -911.8,911.8 0,503.57 408.2,911.79 911.8,911.79 503.6,0 911.8,-408.22 911.8,-911.79"
         transform="translate(0,-2.5e-4)"
         id="path805" />
    </clipPath>
    <clipPath
       clipPathUnits="userSpaceOnUse"
       id="clipPath807">
      <path
         d="m 20136.2,5084.48 c 0,-503.57 -408.2,-911.8 -911.8,-911.8 -503.6,0 -911.8,408.23 -911.8,911.8 0,503.57 408.2,911.79 911.8,911.79 503.6,0 911.8,-408.22 911.8,-911.79"
         transform="translate(0,-2.5e-4)"
         id="path807" />
    </clipPath>
    <clipPath
       clipPathUnits="userSpaceOnUse"
       id="clipPath809">
      <path
         d="m 20136.2,5084.48 c 0,-503.57 -408.2,-911.8 -911.8,-911.8 -503.6,0 -911.8,408.23 -911.8,911.8 0,503.57 408.2,911.79 911.8,911.79 503.6,0 911.8,-408.22 911.8,-911.79"
         transform="translate(0,-2.5e-4)"
         id="path809" />
    </clipPath>
    <clipPath
       clipPathUnits="userSpaceOnUse"
       id="clipPath811">
      <path
         d="m 20136.2,5084.48 c 0,-503.57 -408.2,-911.8 -911.8,-911.8 -503.6,0 -911.8,408.23 -911.8,911.8 0,503.57 408.2,911.79 911.8,911.79 503.6,0 911.8,-408.22 911.8,-911.79"
         transform="translate(0,-2.5e-4)"
         id="path811" />
    </clipPath>
    <clipPath
       clipPathUnits="userSpaceOnUse"
       id="clipPath813">
      <path
         d="m 20136.2,5084.48 c 0,-503.57 -408.2,-911.8 -911.8,-911.8 -503.6,0 -911.8,408.23 -911.8,911.8 0,503.57 408.2,911.79 911.8,911.79 503.6,0 911.8,-408.22 911.8,-911.79"
         transform="translate(0,-2.5e-4)"
         id="path813" />
    </clipPath>
    <clipPath
       clipPathUnits="userSpaceOnUse"
       id="clipPath814">
      <path
         d="m 19679.6,4533.13 c -51.8,34.69 -110.1,56.85 -170.4,73.48 -13.5,-24.32 -31,-46.33 -52.8,-64.79 -49.2,-41.62 -113.8,-60.61 -177.6,-69.43 -139,-19.2 -295.8,13.54 -384.2,120.6 -44.3,-14.88 -86.8,-33.84 -125.7,-59.86 -86.3,-57.78 -151.6,-378.83 -137.8,-481.75 86.6,0.45 328.5,219.14 573.5,215.92 v -0.53 c 6.5,0.09 13.1,0.18 19.7,0.27 6.5,-0.09 13.1,-0.18 19.6,-0.27 v 0.53 c 245,3.22 486.9,-215.47 573.5,-215.92 13.9,102.92 -51.5,423.97 -137.8,481.75"
         transform="translate(0,-2.5e-4)"
         id="path814" />
    </clipPath>
    <clipPath
       clipPathUnits="userSpaceOnUse"
       id="clipPath815">
      <path
         d="m 19679.6,4533.13 c -51.8,34.69 -110.1,56.85 -170.4,73.48 -13.5,-24.32 -31,-46.33 -52.8,-64.79 -49.2,-41.62 -113.8,-60.61 -177.6,-69.43 -139,-19.2 -295.8,13.54 -384.2,120.6 -44.3,-14.88 -86.8,-33.84 -125.7,-59.86 -86.3,-57.78 -151.6,-378.83 -137.8,-481.75 86.6,0.45 328.5,219.14 573.5,215.92 v -0.53 c 6.5,0.09 13.1,0.18 19.7,0.27 6.5,-0.09 13.1,-0.18 19.6,-0.27 v 0.53 c 245,3.22 486.9,-215.47 573.5,-215.92 13.9,102.92 -51.5,423.97 -137.8,481.75"
         transform="translate(0,-2.5e-4)"
         id="path815" />
    </clipPath>
    <clipPath
       clipPathUnits="userSpaceOnUse"
       id="clipPath816">
      <path
         d="m 19679.6,4533.13 c -51.8,34.69 -110.1,56.85 -170.4,73.48 -13.5,-24.32 -31,-46.33 -52.8,-64.79 -49.2,-41.62 -113.8,-60.61 -177.6,-69.43 -139,-19.2 -295.8,13.54 -384.2,120.6 -44.3,-14.88 -86.8,-33.84 -125.7,-59.86 -86.3,-57.78 -151.6,-378.83 -137.8,-481.75 86.6,0.45 328.5,219.14 573.5,215.92 v -0.53 c 6.5,0.09 13.1,0.18 19.7,0.27 6.5,-0.09 13.1,-0.18 19.6,-0.27 v 0.53 c 245,3.22 486.9,-215.47 573.5,-215.92 13.9,102.92 -51.5,423.97 -137.8,481.75"
         transform="translate(0,-2.5e-4)"
         id="path816" />
    </clipPath>
    <clipPath
       clipPathUnits="userSpaceOnUse"
       id="clipPath817">
      <path
         d="m 19679.6,4533.13 c -51.8,34.69 -110.1,56.85 -170.4,73.48 -13.5,-24.32 -31,-46.33 -52.8,-64.79 -49.2,-41.62 -113.8,-60.61 -177.6,-69.43 -139,-19.2 -295.8,13.54 -384.2,120.6 -44.3,-14.88 -86.8,-33.84 -125.7,-59.86 -86.3,-57.78 -151.6,-378.83 -137.8,-481.75 86.6,0.45 328.5,219.14 573.5,215.92 v -0.53 c 6.5,0.09 13.1,0.18 19.7,0.27 6.5,-0.09 13.1,-0.18 19.6,-0.27 v 0.53 c 245,3.22 486.9,-215.47 573.5,-215.92 13.9,102.92 -51.5,423.97 -137.8,481.75"
         transform="translate(0,-2.5e-4)"
         id="path817" />
    </clipPath>
    <clipPath
       clipPathUnits="userSpaceOnUse"
       id="clipPath818">
      <path
         d="m 19679.6,4533.13 c -51.8,34.69 -110.1,56.85 -170.4,73.48 -13.5,-24.32 -31,-46.33 -52.8,-64.79 -49.2,-41.62 -113.8,-60.61 -177.6,-69.43 -139,-19.2 -295.8,13.54 -384.2,120.6 -44.3,-14.88 -86.8,-33.84 -125.7,-59.86 -86.3,-57.78 -151.6,-378.83 -137.8,-481.75 86.6,0.45 328.5,219.14 573.5,215.92 v -0.53 c 6.5,0.09 13.1,0.18 19.7,0.27 6.5,-0.09 13.1,-0.18 19.6,-0.27 v 0.53 c 245,3.22 486.9,-215.47 573.5,-215.92 13.9,102.92 -51.5,423.97 -137.8,481.75"
         transform="translate(0,-2.5e-4)"
         id="path818" />
    </clipPath>
    <clipPath
       clipPathUnits="userSpaceOnUse"
       id="clipPath819">
      <path
         d="m 19679.6,4533.13 c -51.8,34.69 -110.1,56.85 -170.4,73.48 -13.5,-24.32 -31,-46.33 -52.8,-64.79 -49.2,-41.62 -113.8,-60.61 -177.6,-69.43 -139,-19.2 -295.8,13.54 -384.2,120.6 -44.3,-14.88 -86.8,-33.84 -125.7,-59.86 -86.3,-57.78 -151.6,-378.83 -137.8,-481.75 86.6,0.45 328.5,219.14 573.5,215.92 v -0.53 c 6.5,0.09 13.1,0.18 19.7,0.27 6.5,-0.09 13.1,-0.18 19.6,-0.27 v 0.53 c 245,3.22 486.9,-215.47 573.5,-215.92 13.9,102.92 -51.5,423.97 -137.8,481.75"
         transform="translate(0,-2.5e-4)"
         id="path819" />
    </clipPath>
    <clipPath
       clipPathUnits="userSpaceOnUse"
       id="clipPath820">
      <path
         d="m 19679.6,4533.13 c -51.8,34.69 -110.1,56.85 -170.4,73.48 -13.5,-24.32 -31,-46.33 -52.8,-64.79 -49.2,-41.62 -113.8,-60.61 -177.6,-69.43 -139,-19.2 -295.8,13.54 -384.2,120.6 -44.3,-14.88 -86.8,-33.84 -125.7,-59.86 -86.3,-57.78 -151.6,-378.83 -137.8,-481.75 86.6,0.45 328.5,219.14 573.5,215.92 v -0.53 c 6.5,0.09 13.1,0.18 19.7,0.27 6.5,-0.09 13.1,-0.18 19.6,-0.27 v 0.53 c 245,3.22 486.9,-215.47 573.5,-215.92 13.9,102.92 -51.5,423.97 -137.8,481.75"
         transform="translate(0,-2.5e-4)"
         id="path820" />
    </clipPath>
    <clipPath
       clipPathUnits="userSpaceOnUse"
       id="clipPath829">
      <path
         d="m 20136.2,5084.48 c 0,-503.57 -408.2,-911.8 -911.8,-911.8 -503.6,0 -911.8,408.23 -911.8,911.8 0,503.57 408.2,911.79 911.8,911.79 503.6,0 911.8,-408.22 911.8,-911.79"
         transform="translate(0,-2.5e-4)"
         id="path829" />
    </clipPath>
    <clipPath
       clipPathUnits="userSpaceOnUse"
       id="clipPath831">
      <path
         d="m 20136.2,5084.48 c 0,-503.57 -408.2,-911.8 -911.8,-911.8 -503.6,0 -911.8,408.23 -911.8,911.8 0,503.57 408.2,911.79 911.8,911.79 503.6,0 911.8,-408.22 911.8,-911.79"
         transform="translate(0,-2.5e-4)"
         id="path831" />
    </clipPath>
    <clipPath
       clipPathUnits="userSpaceOnUse"
       id="clipPath833">
      <path
         d="m 20136.2,5084.48 c 0,-503.57 -408.2,-911.8 -911.8,-911.8 -503.6,0 -911.8,408.23 -911.8,911.8 0,503.57 408.2,911.79 911.8,911.79 503.6,0 911.8,-408.22 911.8,-911.79"
         transform="translate(0,-2.5e-4)"
         id="path833" />
    </clipPath>
    <clipPath
       clipPathUnits="userSpaceOnUse"
       id="clipPath835">
      <path
         d="m 20136.2,5084.48 c 0,-503.57 -408.2,-911.8 -911.8,-911.8 -503.6,0 -911.8,408.23 -911.8,911.8 0,503.57 408.2,911.79 911.8,911.79 503.6,0 911.8,-408.22 911.8,-911.79"
         transform="translate(0,-2.5e-4)"
         id="path835" />
    </clipPath>
    <clipPath
       clipPathUnits="userSpaceOnUse"
       id="clipPath837">
      <path
         d="m 20136.2,5084.48 c 0,-503.57 -408.2,-911.8 -911.8,-911.8 -503.6,0 -911.8,408.23 -911.8,911.8 0,503.57 408.2,911.79 911.8,911.79 503.6,0 911.8,-408.22 911.8,-911.79"
         transform="translate(0,-2.5e-4)"
         id="path837" />
    </clipPath>
    <clipPath
       clipPathUnits="userSpaceOnUse"
       id="clipPath839">
      <path
         d="m 20136.2,5084.48 c 0,-503.57 -408.2,-911.8 -911.8,-911.8 -503.6,0 -911.8,408.23 -911.8,911.8 0,503.57 408.2,911.79 911.8,911.79 503.6,0 911.8,-408.22 911.8,-911.79"
         transform="translate(0,-2.5e-4)"
         id="path839" />
    </clipPath>
    <clipPath
       clipPathUnits="userSpaceOnUse"
       id="clipPath841">
      <path
         d="m 20136.2,5084.48 c 0,-503.57 -408.2,-911.8 -911.8,-911.8 -503.6,0 -911.8,408.23 -911.8,911.8 0,503.57 408.2,911.79 911.8,911.79 503.6,0 911.8,-408.22 911.8,-911.79"
         transform="translate(0,-2.5e-4)"
         id="path841" />
    </clipPath>
    <clipPath
       clipPathUnits="userSpaceOnUse"
       id="clipPath843">
      <path
         d="m 20136.2,5084.48 c 0,-503.57 -408.2,-911.8 -911.8,-911.8 -503.6,0 -911.8,408.23 -911.8,911.8 0,503.57 408.2,911.79 911.8,911.79 503.6,0 911.8,-408.22 911.8,-911.79"
         transform="translate(0,-2.5e-4)"
         id="path843" />
    </clipPath>
    <clipPath
       clipPathUnits="userSpaceOnUse"
       id="clipPath845">
      <path
         d="m 20136.2,5084.48 c 0,-503.57 -408.2,-911.8 -911.8,-911.8 -503.6,0 -911.8,408.23 -911.8,911.8 0,503.57 408.2,911.79 911.8,911.79 503.6,0 911.8,-408.22 911.8,-911.79"
         transform="translate(0,-2.5e-4)"
         id="path845" />
    </clipPath>
    <clipPath
       clipPathUnits="userSpaceOnUse"
       id="clipPath847">
      <path
         d="m 20136.2,5084.48 c 0,-503.57 -408.2,-911.8 -911.8,-911.8 -503.6,0 -911.8,408.23 -911.8,911.8 0,503.57 408.2,911.79 911.8,911.79 503.6,0 911.8,-408.22 911.8,-911.79"
         transform="translate(0,-2.5e-4)"
         id="path847" />
    </clipPath>
    <clipPath
       clipPathUnits="userSpaceOnUse"
       id="clipPath849">
      <path
         d="m 20136.2,5084.48 c 0,-503.57 -408.2,-911.8 -911.8,-911.8 -503.6,0 -911.8,408.23 -911.8,911.8 0,503.57 408.2,911.79 911.8,911.79 503.6,0 911.8,-408.22 911.8,-911.79"
         transform="translate(0,-2.5e-4)"
         id="path849" />
    </clipPath>
    <clipPath
       clipPathUnits="userSpaceOnUse"
       id="clipPath851">
      <path
         d="m 20136.2,5084.48 c 0,-503.57 -408.2,-911.8 -911.8,-911.8 -503.6,0 -911.8,408.23 -911.8,911.8 0,503.57 408.2,911.79 911.8,911.79 503.6,0 911.8,-408.22 911.8,-911.79"
         transform="translate(0,-2.5e-4)"
         id="path851" />
    </clipPath>
    <clipPath
       clipPathUnits="userSpaceOnUse"
       id="clipPath853">
      <path
         d="m 20136.2,5084.48 c 0,-503.57 -408.2,-911.8 -911.8,-911.8 -503.6,0 -911.8,408.23 -911.8,911.8 0,503.57 408.2,911.79 911.8,911.79 503.6,0 911.8,-408.22 911.8,-911.79"
         transform="translate(0,-2.5e-4)"
         id="path853" />
    </clipPath>
    <clipPath
       clipPathUnits="userSpaceOnUse"
       id="clipPath855">
      <path
         d="m 20136.2,5084.48 c 0,-503.57 -408.2,-911.8 -911.8,-911.8 -503.6,0 -911.8,408.23 -911.8,911.8 0,503.57 408.2,911.79 911.8,911.79 503.6,0 911.8,-408.22 911.8,-911.79"
         transform="translate(0,-2.5e-4)"
         id="path855" />
    </clipPath>
    <clipPath
       clipPathUnits="userSpaceOnUse"
       id="clipPath857">
      <path
         d="m 20136.2,5084.48 c 0,-503.57 -408.2,-911.8 -911.8,-911.8 -503.6,0 -911.8,408.23 -911.8,911.8 0,503.57 408.2,911.79 911.8,911.79 503.6,0 911.8,-408.22 911.8,-911.79"
         transform="translate(0,-2.5e-4)"
         id="path857" />
    </clipPath>
    <clipPath
       clipPathUnits="userSpaceOnUse"
       id="clipPath859">
      <path
         d="m 20136.2,5084.48 c 0,-503.57 -408.2,-911.8 -911.8,-911.8 -503.6,0 -911.8,408.23 -911.8,911.8 0,503.57 408.2,911.79 911.8,911.79 503.6,0 911.8,-408.22 911.8,-911.79"
         transform="translate(0,-2.5e-4)"
         id="path859" />
    </clipPath>
    <clipPath
       clipPathUnits="userSpaceOnUse"
       id="clipPath861">
      <path
         d="m 20136.2,5084.48 c 0,-503.57 -408.2,-911.8 -911.8,-911.8 -503.6,0 -911.8,408.23 -911.8,911.8 0,503.57 408.2,911.79 911.8,911.79 503.6,0 911.8,-408.22 911.8,-911.79"
         transform="translate(0,-2.5e-4)"
         id="path861" />
    </clipPath>
  </defs>
  <g
     inkscape:label="Layer 1"
     inkscape:groupmode="layer"
     id="layer1"
     transform="translate(-123.82506,-55.827055)">
    <path
       id="path772"
       d="m 20136.2,4172.69 h -1823.6 v 1823.58 h 1823.6 V 4172.69"
       style="fill:#a59eff;fill-opacity:1;fill-rule:nonzero;stroke:none"
       transform="matrix(0.03527778,0,0,-0.03527778,-522.20281,267.36214)"
       clip-path="url(#clipPath773)" />
    <path
       id="path774"
       d="m 19950.1,4858.56 c -16.3,45.09 -54.6,76.27 -95.7,87.82 35,46.86 25.1,124.95 -13.9,167.32 -39,42.37 -99.1,51.54 -150.6,34.6 25.1,50.77 34.8,115.18 13.1,168 -14.7,35.7 -73.8,52.48 -124.6,51.72 -0.9,-1.42 -1.9,-2.84 -2.8,-4.26 -0.9,1.39 -1.9,2.72 -2.8,4.11 -22.2,-0.91 -42.4,-5.23 -56,-12.89 -1,25.8 -0.6,52.11 0.9,78.77 -55.5,53.46 -125.4,90.53 -199.6,104.06 -103.4,18.83 -213.6,-8.04 -298.4,-72.76 l -34.4,10.51 c -20.8,-44.71 -36.1,-92.12 -30.9,-108.41 -34.1,14.23 -122,16.04 -143.3,-17.78 -21.4,-33.83 -20.9,-83.97 1.2,-117.17 -52.3,-6.02 -101,-44.51 -124.8,-98.69 -23.8,-54.19 -22,-122.33 4.7,-174.73 -63.6,22.04 -135.5,-20.3 -168.7,-86.76 -33.1,-66.46 -32,-150.46 -9.8,-222.77 0.1,-0.01 70.7,-1.24 180.3,-2.85 3.6,31.38 10.4,62.4 20.4,92.34 10.1,-31.02 20.1,-62.05 30.2,-93.07 251.2,-3.58 652.2,-8.32 915,-6.69 4.8,38.02 14.2,75.47 28.1,111.17 10.3,-36.51 18.9,-73.47 26,-110.72 22,0.23 42.7,0.53 61.9,0.88 5.8,34.21 15.2,67.8 28.2,100 18.6,-29.43 29.3,-63.75 30.9,-98.53 50.7,1.66 82.1,4.09 86.4,7.47 34.8,27.63 45.3,164.23 29,209.31"
       style="fill:#ef6a55;fill-opacity:1;fill-rule:nonzero;stroke:none"
       transform="matrix(0.03527778,0,0,-0.03527778,-522.20281,267.36214)"
       clip-path="url(#clipPath775)" />
    <path
       id="path776"
       d="m 18958.5,5073.83 c -8.4,55.99 -16.8,111.99 -25.2,167.98 -6.9,46.09 -13.8,93.37 -4.2,138.98 18.2,86.82 95.1,152.6 179.8,179.05 84.7,26.45 176.1,19.56 263.6,4.61 36.8,-6.3 75,-14.69 104.1,-38.16 32.9,-26.59 49.3,-68.83 57.1,-110.44 25.8,-136.83 -26.5,-275.43 -84,-402.2 -139.7,-16 -280.7,-20.25 -421.1,-12.67 l -70.1,72.85"
       style="fill:#ef6a55;fill-opacity:1;fill-rule:nonzero;stroke:none"
       transform="matrix(0.03527778,0,0,-0.03527778,-522.20281,267.36214)"
       clip-path="url(#clipPath777)" />
    <g
       id="g779"
       transform="matrix(0.26458333,0,0,0.26458333,-522.20281,-91.151787)">
      <path
         d="m 18833.6,4628.54 c 80.1,24.24 129.6,120.93 102.5,200.04 -2.7,7.89 -5.9,17.1 -1.3,24.05 3.3,5.03 9.6,6.95 15.3,8.94 77.2,26.89 110.2,136.39 60.8,201.49 146.7,37.41 303.1,36.35 449.3,-3.04 -36,-20.61 -58.4,-62.72 -55.5,-104.06 3,-41.34 31.2,-79.84 69.7,-95.13 -41.5,-29.13 -45.9,-92.18 -23.5,-137.66 22.5,-45.48 64.6,-77.48 105.3,-107.76 -213.4,-31.9 -510.3,-21.86 -723.6,10.76 l 1,2.37"
         style="fill:#933b32;fill-opacity:1;fill-rule:nonzero;stroke:none"
         transform="matrix(0.13333333,0,0,-0.13333333,0,1355.0133)"
         clip-path="url(#clipPath778)"
         id="path779" />
    </g>
    <path
       id="path780"
       d="m 19669.6,4531.5 c -84.9,56.81 -187.4,79.56 -287.5,99.66 -6.1,1.23 -12.4,2.56 -17.3,6.39 -8.4,6.57 10.6,171.3 0,267.96 l -142.9,-13.38 -142.9,13.38 c -10.6,-96.66 8.4,-261.39 0,-267.96 -4.9,-3.83 -11.2,-5.16 -17.3,-6.39 -100.1,-20.1 -202.6,-42.85 -287.5,-99.66 -84.8,-56.81 -149.1,-376.15 -135.4,-477.33 85.1,0.44 322.9,219.16 563.8,215.99 v -0.52 c 6.4,0.09 12.8,0.18 19.3,0.27 6.4,-0.09 12.9,-0.18 19.3,-0.27 v 0.52 c 240.9,3.17 478.7,-215.55 563.8,-215.99 13.7,101.18 -50.6,420.52 -135.4,477.33"
       style="fill:#fbd1b9;fill-opacity:1;fill-rule:nonzero;stroke:none"
       transform="matrix(0.03527778,0,0,-0.03527778,-522.20281,267.36214)"
       clip-path="url(#clipPath781)" />
    <g
       id="g783"
       transform="matrix(0.26458333,0,0,0.26458333,-522.20281,-91.151787)">
      <path
         d="m 18888.9,4908.63 c 56.3,36.29 58.7,53.7 61.4,36.29 13.3,-85.56 148.6,-291.66 271.5,-291.66 159.1,0 251.5,268.6 266.4,336.3 -183.9,-26.29 -370.2,-52.61 -554.7,-30.49 5.1,-4.78 10.2,-9.56 15.2,-14.34 l -59.8,-36.1"
         style="fill:#dba78a;fill-opacity:1;fill-rule:nonzero;stroke:none"
         transform="matrix(0.13333333,0,0,-0.13333333,0,1355.0133)"
         clip-path="url(#clipPath782)"
         id="path783" />
    </g>
    <path
       id="path784"
       d="m 19009.9,5377.57 c -32.8,-110.93 -24.7,-305.3 0,-418.32 l 0.4,-1.82 c 13.4,-60.66 34.9,-121.23 75.2,-168.45 40.4,-47.21 102.6,-79.14 164.1,-70.77 59.6,8.1 109.5,52.33 138.6,104.92 29,52.6 40.2,113.03 48.3,172.56 14.1,103.66 10.4,378.99 0.5,379.83 -128.3,10.85 -302.3,37.11 -427.1,5.65 v -3.6"
       style="fill:#fbd1b9;fill-opacity:1;fill-rule:nonzero;stroke:none"
       transform="matrix(0.03527778,0,0,-0.03527778,-522.20281,267.36214)"
       clip-path="url(#clipPath785)" />
    <path
       id="path786"
       d="m 19431.4,5038.63 c 3.1,22.83 30.6,37.11 52.7,30.41 22,-6.7 36.6,-29.59 38.2,-52.58 1.6,-22.99 -7.7,-45.6 -20.9,-64.5 -22,-31.52 -60.6,-56 -97.8,-46.25 5.9,47.27 14.4,94.22 25.4,140.57 l 2.4,-7.65"
       style="fill:#fbd1b9;fill-opacity:1;fill-rule:nonzero;stroke:none"
       transform="matrix(0.03527778,0,0,-0.03527778,-522.20281,267.36214)"
       clip-path="url(#clipPath787)" />
    <path
       id="path788"
       d="m 19013.3,5038.63 c -3.1,22.83 -30.6,37.11 -52.7,30.41 -22,-6.7 -36.6,-29.59 -38.2,-52.58 -1.7,-22.99 7.7,-45.6 20.8,-64.5 22,-31.52 60.7,-56 97.9,-46.25 -5.9,47.27 -14.4,94.22 -25.4,140.57 l -2.4,-7.65"
       style="fill:#fbd1b9;fill-opacity:1;fill-rule:nonzero;stroke:none"
       transform="matrix(0.03527778,0,0,-0.03527778,-522.20281,267.36214)"
       clip-path="url(#clipPath789)" />
    <path
       id="path790"
       d="m 19447.4,4966.91 c 1.1,2.25 2.4,4.44 3.7,6.57 0.6,0.97 1.3,1.93 1.9,2.87 l 1.2,1.67 0.7,0.87 0.7,0.84 1.3,1.58 2.3,2.56 c 1.7,1.85 3.5,3.61 5.4,5.29 l 2.6,2.23 c 0.1,0.08 1.9,1.48 0.6,0.51 l 1.4,1.03 c 2,1.42 4,2.76 6,4 2.2,1.31 4.4,2.52 6.7,3.61 1,0.5 2.1,0.98 3.1,1.43 -1.5,-0.65 0.6,0.22 0.7,0.27 l 2,0.73 c 3.7,1.37 6.7,5.28 5.3,9.45 -1.2,3.7 -5.4,6.84 -9.4,5.37 -21.2,-7.71 -39.2,-23.04 -49.5,-43.12 -1.8,-3.57 -1,-8.51 2.8,-10.52 3.5,-1.85 8.5,-1.06 10.5,2.76"
       style="fill:#a46e4a;fill-opacity:1;fill-rule:nonzero;stroke:none"
       transform="matrix(0.03527778,0,0,-0.03527778,-522.20281,267.36214)"
       clip-path="url(#clipPath791)" />
    <path
       id="path792"
       d="m 19459.7,4986.17 c 1.1,-0.99 2.2,-2.07 3.1,-3.25 l -1.2,1.55 c 1.2,-1.54 2.1,-3.2 2.9,-4.98 l -0.8,1.84 c 0.9,-1.99 1.4,-4.05 1.7,-6.18 l -0.3,2.04 c 0.3,-1.92 0.3,-3.84 0,-5.76 l 0.3,2.04 -0.2,-0.95 c -0.3,-2.08 -0.3,-4.04 0.8,-5.92 0.9,-1.59 2.8,-3.11 4.6,-3.53 2,-0.45 4.2,-0.35 5.9,0.77 1.6,1.03 3.2,2.65 3.6,4.59 0.9,5.22 0.8,10.6 -1,15.64 -1.8,4.92 -4.5,9.53 -8.5,12.96 -1.6,1.35 -3.3,2.25 -5.5,2.25 -1.9,0 -4.1,-0.83 -5.4,-2.25 -1.3,-1.46 -2.3,-3.39 -2.3,-5.43 0.1,-1.95 0.8,-4.11 2.3,-5.43"
       style="fill:#a46e4a;fill-opacity:1;fill-rule:nonzero;stroke:none"
       transform="matrix(0.03527778,0,0,-0.03527778,-522.20281,267.36214)"
       clip-path="url(#clipPath793)" />
    <path
       id="path794"
       d="m 19123.8,5071.1 c 0,-16.01 -11.9,-28.99 -26.5,-28.99 -14.6,0 -26.4,12.98 -26.4,28.99 0,16.01 11.8,28.99 26.4,28.99 14.6,0 26.5,-12.98 26.5,-28.99"
       style="fill:#1a1a1a;fill-opacity:1;fill-rule:nonzero;stroke:none"
       transform="matrix(0.03527778,0,0,-0.03527778,-522.20281,267.36214)"
       clip-path="url(#clipPath795)" />
    <path
       id="path796"
       d="m 19385.9,5071.1 c 0,-16.01 -11.8,-28.99 -26.4,-28.99 -14.6,0 -26.4,12.98 -26.4,28.99 0,16.01 11.8,28.99 26.4,28.99 14.6,0 26.4,-12.98 26.4,-28.99"
       style="fill:#1a1a1a;fill-opacity:1;fill-rule:nonzero;stroke:none"
       transform="matrix(0.03527778,0,0,-0.03527778,-522.20281,267.36214)"
       clip-path="url(#clipPath797)" />
    <path
       id="path798"
       d="m 18952.1,5011.87 c 14.6,-13.5 25.8,-30.35 32.2,-48.7 1.4,-3.92 5.2,-6.52 9.4,-5.37 3.8,1.04 6.8,5.52 5.4,9.45 -7.4,21.12 -19.7,40.28 -36.2,55.49 -3,2.82 -7.8,3.01 -10.8,0 -2.9,-2.85 -3.1,-8.04 0,-10.87"
       style="fill:#a46e4a;fill-opacity:1;fill-rule:nonzero;stroke:none"
       transform="matrix(0.03527778,0,0,-0.03527778,-522.20281,267.36214)"
       clip-path="url(#clipPath799)" />
    <path
       id="path800"
       d="m 18960.3,4977.9 1.7,-0.17 -2.1,0.27 c 2.9,-0.39 5.8,-1.17 8.5,-2.29 l -1.8,0.77 c 2.7,-1.15 5.2,-2.63 7.6,-4.42 l -1.6,1.2 c 1.2,-0.91 2.3,-1.89 3.3,-2.93 2.8,-2.87 8.1,-3.05 10.9,0 2.8,3.08 3,7.81 0,10.86 -7.1,7.18 -16.5,11.26 -26.5,12.08 -1.9,0.15 -4.2,-0.97 -5.4,-2.25 -1.4,-1.33 -2.4,-3.52 -2.3,-5.43 0.1,-1.99 0.7,-4.05 2.3,-5.44 1.5,-1.44 3.3,-2.07 5.4,-2.25"
       style="fill:#a46e4a;fill-opacity:1;fill-rule:nonzero;stroke:none"
       transform="matrix(0.03527778,0,0,-0.03527778,-522.20281,267.36214)"
       clip-path="url(#clipPath801)" />
    <path
       id="path802"
       d="m 19147.7,5216.87 c 3.4,-2.2 1.6,-8.14 -2.2,-9.8 -3.7,-1.65 -8,-0.53 -12,0.41 -31.2,7.35 -65.3,1.1 -91.9,-16.82 11.5,20.43 31.5,35.89 54.2,41.9 18.7,4.97 42.2,1.64 51.8,-15.22 l 0.1,-0.47"
       style="fill:#241e21;fill-opacity:1;fill-rule:nonzero;stroke:none"
       transform="matrix(0.03527778,0,0,-0.03527778,-522.20281,267.36214)"
       clip-path="url(#clipPath803)" />
    <path
       id="path804"
       d="m 19309.8,5155.41 c -3.4,-2.21 -1.6,-8.15 2.1,-9.81 3.8,-1.65 8.1,-0.53 12.1,0.41 31.2,7.35 65.3,1.1 91.8,-16.82 -11.5,20.43 -31.5,35.89 -54.1,41.9 -18.8,4.97 -42.3,1.64 -51.9,-15.22 v -0.46"
       style="fill:#241e21;fill-opacity:1;fill-rule:nonzero;stroke:none"
       transform="matrix(0.03527778,0,0,-0.03527778,-522.20281,267.36214)"
       clip-path="url(#clipPath805)" />
    <path
       id="path806"
       d="m 18992.2,5090.12 c 38.4,88.88 59.3,185.23 61.3,282 21.3,-21.02 43.5,-42.61 71.5,-53.24 28,-10.64 63.5,-7.37 82.6,15.75 31.5,-48.67 110.3,-56.46 150.8,-14.91 10.6,-38.9 52.1,-66.77 92.1,-61.85 5,0.61 10.4,1.95 13.4,5.98 2.4,3.3 2.7,7.68 2.9,11.78 1.8,44.84 0.9,89.8 -2.9,134.53 -0.5,5.99 -1.2,12.43 -5.2,16.89 -4.3,4.72 -11.1,6 -17.3,6.95 -147.8,22.39 -298.3,14.26 -447.5,6.08 -5.3,-0.29 -11,-0.8 -14.8,-4.56 -3.2,-3.25 -3.9,-8.11 -4.6,-12.64 -11.9,-89.23 -13.6,-179.81 -5.2,-269.44 l 22.9,-63.32"
       style="fill:#ef6a55;fill-opacity:1;fill-rule:nonzero;stroke:none"
       transform="matrix(0.03527778,0,0,-0.03527778,-522.20281,267.36214)"
       clip-path="url(#clipPath807)" />
    <path
       id="path808"
       d="m 19211.7,5005.97 c 7.4,8.63 15.7,16.5 25.1,23.06 7.6,5.42 18.8,13.99 28.5,10.55 6.1,-2.2 10.3,-9.18 11.9,-15.9 2,-8.53 -0.5,-16.65 -5.1,-24.05 -6.4,-10.36 -16.1,-18.34 -25.4,-26.07 -3.2,-2.66 -2.7,-8.11 0,-10.87 3.2,-3.15 7.7,-2.67 10.9,0 18.9,15.85 39.8,36.01 34.8,63.08 -1.9,10.4 -8.1,20.81 -17.4,26.14 -12.6,7.23 -26.5,2.65 -38,-4.38 -13.6,-8.25 -25.8,-18.67 -36.2,-30.69 -2.7,-3.14 -3.1,-7.78 0,-10.87 2.8,-2.77 8.1,-3.15 10.9,0"
       style="fill:#a46e4a;fill-opacity:1;fill-rule:nonzero;stroke:none"
       transform="matrix(0.03527778,0,0,-0.03527778,-522.20281,267.36214)"
       clip-path="url(#clipPath809)" />
    <path
       id="path810"
       d="m 19169.4,4934.15 c 21.2,-20.96 57.4,-24.36 81.6,-6.74 3.4,2.43 5,6.68 2.8,10.51 -1.9,3.31 -7.1,5.21 -10.5,2.76 -18.8,-13.64 -46.3,-12.22 -63,4.34 -7,6.96 -17.9,-3.9 -10.9,-10.87"
       style="fill:#a46e4a;fill-opacity:1;fill-rule:nonzero;stroke:none"
       transform="matrix(0.03527778,0,0,-0.03527778,-522.20281,267.36214)"
       clip-path="url(#clipPath811)" />
    <path
       id="path812"
       d="m 19679.6,4533.13 c -51.8,34.69 -110.1,56.85 -170.4,73.48 -13.5,-24.32 -31,-46.32 -52.8,-64.79 -49.2,-41.62 -113.8,-60.61 -177.6,-69.43 -139,-19.2 -295.8,13.54 -384.2,120.61 -44.3,-14.89 -86.8,-33.85 -125.7,-59.87 -86.3,-57.78 -151.6,-378.83 -137.8,-481.75 86.6,0.44 328.5,219.14 573.5,215.92 v -0.53 c 6.5,0.09 13.1,0.18 19.7,0.27 6.5,-0.09 13.1,-0.18 19.6,-0.27 v 0.53 c 245,3.22 486.9,-215.48 573.5,-215.92 13.9,102.92 -51.5,423.97 -137.8,481.75"
       style="fill:#ef6a55;fill-opacity:1;fill-rule:nonzero;stroke:none"
       transform="matrix(0.03527778,0,0,-0.03527778,-522.20281,267.36214)"
       clip-path="url(#clipPath813)" />
    <g
       id="g827"
       transform="matrix(0.26458333,0,0,0.26458333,-522.20281,-91.151787)">
      <path
         d="m 18731.2,4485.47 44.4,-3.44 28,34.64 10.4,-43.29 41.6,-15.93 -37.9,-23.33 -2.3,-44.48 -33.9,28.88 -43,-11.57 17,41.18 -24.3,37.34"
         style="fill:#ffffff;fill-opacity:1;fill-rule:nonzero;stroke:none"
         transform="matrix(0.13333333,0,0,-0.13333333,0,1355.0133)"
         clip-path="url(#clipPath814)"
         id="path821" />
      <path
         d="m 19074.6,4370.52 -44.4,-4.31 -21.5,-38.97 -17.8,40.83 -43.8,8.49 33.4,29.54 -5.5,44.21 38.4,-22.57 40.4,18.84 -9.6,-43.49 30.4,-32.57"
         style="fill:#ffffff;fill-opacity:1;fill-rule:nonzero;stroke:none"
         transform="matrix(0.13333333,0,0,-0.13333333,0,1355.0133)"
         clip-path="url(#clipPath815)"
         id="path822" />
      <path
         d="m 18888.1,4318.62 -4.2,-44.35 34.2,-28.54 -43.4,-9.79 -16.6,-41.34 -22.7,38.3 -44.5,2.98 29.4,33.46 -10.9,43.19 41,-17.62 37.7,23.71"
         style="fill:#ffffff;fill-opacity:1;fill-rule:nonzero;stroke:none"
         transform="matrix(0.13333333,0,0,-0.13333333,0,1355.0133)"
         clip-path="url(#clipPath816)"
         id="path823" />
      <path
         d="m 19247.1,4327.6 19.7,-39.95 44.1,-6.4 -31.9,-31.09 7.5,-43.9 -39.4,20.72 -39.4,-20.72 7.5,43.9 -31.9,31.09 44.1,6.4 19.7,39.95"
         style="fill:#ffffff;fill-opacity:1;fill-rule:nonzero;stroke:none"
         transform="matrix(0.13333333,0,0,-0.13333333,0,1355.0133)"
         clip-path="url(#clipPath817)"
         id="path824" />
      <path
         d="m 19446.2,4469.37 3.9,-44.37 38.8,-21.93 -41,-17.43 -8.9,-43.65 -29.2,33.6 -44.3,-5.05 22.9,38.2 -18.4,40.53 43.4,-9.99 32.8,30.09"
         style="fill:#ffffff;fill-opacity:1;fill-rule:nonzero;stroke:none"
         transform="matrix(0.13333333,0,0,-0.13333333,0,1355.0133)"
         clip-path="url(#clipPath818)"
         id="path825" />
      <path
         d="m 19627.4,4603.75 19.8,-39.94 44,-6.41 -31.9,-31.09 7.6,-43.9 -39.5,20.73 -39.4,-20.73 7.6,43.9 -31.9,31.09 44,6.41 19.7,39.94"
         style="fill:#ffffff;fill-opacity:1;fill-rule:nonzero;stroke:none"
         transform="matrix(0.13333333,0,0,-0.13333333,0,1355.0133)"
         clip-path="url(#clipPath819)"
         id="path826" />
      <path
         d="m 19598.7,4350.81 30.9,-32.12 43.9,7.22 -21,-39.28 20.4,-39.57 -43.8,7.84 -31.3,-31.67 -6.1,44.13 -39.8,19.99 40.1,19.43 6.7,44.03"
         style="fill:#ffffff;fill-opacity:1;fill-rule:nonzero;stroke:none"
         transform="matrix(0.13333333,0,0,-0.13333333,0,1355.0133)"
         clip-path="url(#clipPath820)"
         id="path827" />
    </g>
    <path
       id="path828"
       d="m 18863.9,4583.04 c 9.9,-110.41 19.7,-220.83 29.6,-331.25 -27.6,-3.88 -55.2,-7.77 -82.7,-11.66 -7.1,98.71 -14.2,197.41 -21.2,296.12 -0.3,4.14 -0.6,8.58 1.5,12.15 2,3.34 5.6,5.27 9.1,7.04 18.9,9.69 37.8,19.39 56.8,29.08 l 6.9,-1.48"
       style="fill:#8ca3c3;fill-opacity:1;fill-rule:nonzero;stroke:none"
       transform="matrix(0.03527778,0,0,-0.03527778,-522.20281,267.36214)"
       clip-path="url(#clipPath829)" />
    <path
       id="path830"
       d="m 19534.5,4606.74 c -2.1,-110.83 -4.2,-221.65 -6.3,-332.47 27.4,-2.02 54.7,-4.03 82,-6.04 0.2,98.95 0.3,197.9 0.5,296.85 0,4.15 -0.1,8.59 -2.4,12.01 -2.2,3.2 -5.9,4.88 -9.4,6.41 -19.2,8.39 -38.4,16.79 -57.7,25.18 l -6.7,-1.94"
       style="fill:#8ca3c3;fill-opacity:1;fill-rule:nonzero;stroke:none"
       transform="matrix(0.03527778,0,0,-0.03527778,-522.20281,267.36214)"
       clip-path="url(#clipPath831)" />
    <path
       id="path832"
       d="m 18860.5,4303.03 c 241.4,19.72 509.1,11.43 750.3,-9.86 5.8,-47.38 -10.2,-133.18 -7.4,-134.65 -234.6,7.22 -552,-1.67 -786.6,-8.77 l 43.7,153.28"
       style="fill:#8ca3c3;fill-opacity:1;fill-rule:nonzero;stroke:none"
       transform="matrix(0.03527778,0,0,-0.03527778,-522.20281,267.36214)"
       clip-path="url(#clipPath833)" />
    <path
       id="path834"
       d="m 18977.7,5348.19 c 24.6,-22.73 50.8,-43.67 78.3,-62.7 3.4,-2.36 8.6,14.74 10.5,18.12 2.3,3.82 0.7,-7.22 -2.7,-4.85 -26.5,18.29 -51.6,38.45 -75.2,60.3 -7.3,6.71 -18.2,-4.14 -10.9,-10.87"
       style="fill:#241e21;fill-opacity:1;fill-rule:nonzero;stroke:none"
       transform="matrix(0.03527778,0,0,-0.03527778,-522.20281,267.36214)"
       clip-path="url(#clipPath835)" />
    <path
       id="path836"
       d="m 19003.2,5371 c 24.6,-18.97 49.2,-37.93 73.7,-56.9 3.3,-2.54 8.6,-0.5 10.5,2.76 2.4,3.97 0.6,23.34 -2.7,25.88 -24.6,18.97 -49.2,22.56 -73.8,41.53 -3.2,2.54 -8.6,0.5 -10.5,-2.76 -2.3,-3.96 -0.5,-7.97 2.8,-10.51"
       style="fill:#241e21;fill-opacity:1;fill-rule:nonzero;stroke:none"
       transform="matrix(0.03527778,0,0,-0.03527778,-522.20281,267.36214)"
       clip-path="url(#clipPath837)" />
    <path
       id="path838"
       d="m 18907.4,4261.6 c 154.1,0 308.1,0 462.2,0 43.4,0 86.8,0 130.2,0 9.9,0 9.9,15.37 0,15.37 -154,0 -308.1,0 -462.2,0 -43.4,0 -86.8,0 -130.2,0 -9.9,0 -9.9,-15.37 0,-15.37"
       style="fill:#566e8c;fill-opacity:1;fill-rule:nonzero;stroke:none"
       transform="matrix(0.03527778,0,0,-0.03527778,-522.20281,267.36214)"
       clip-path="url(#clipPath839)" />
    <path
       id="path840"
       d="m 18869.1,4298 c 0,-11.31 -9.2,-20.49 -20.5,-20.49 -11.3,0 -20.5,9.18 -20.5,20.49 0,11.32 9.2,20.49 20.5,20.49 11.3,0 20.5,-9.17 20.5,-20.49"
       style="fill:#566e8c;fill-opacity:1;fill-rule:nonzero;stroke:none"
       transform="matrix(0.03527778,0,0,-0.03527778,-522.20281,267.36214)"
       clip-path="url(#clipPath841)" />
    <path
       id="path842"
       d="m 19593.9,4295.44 c 0,-11.31 -9.2,-20.49 -20.5,-20.49 -11.3,0 -20.5,9.18 -20.5,20.49 0,11.32 9.2,20.49 20.5,20.49 11.3,0 20.5,-9.17 20.5,-20.49"
       style="fill:#566e8c;fill-opacity:1;fill-rule:nonzero;stroke:none"
       transform="matrix(0.03527778,0,0,-0.03527778,-522.20281,267.36214)"
       clip-path="url(#clipPath843)" />
    <path
       id="path844"
       d="m 19002,4925.5 c 0,-8.48 -6.8,-15.37 -15.3,-15.37 -8.5,0 -15.4,6.89 -15.4,15.37 0,8.49 6.9,15.37 15.4,15.37 8.5,0 15.3,-6.88 15.3,-15.37"
       style="fill:#241e21;fill-opacity:1;fill-rule:nonzero;stroke:none"
       transform="matrix(0.03527778,0,0,-0.03527778,-522.20281,267.36214)"
       clip-path="url(#clipPath845)" />
    <path
       id="path846"
       d="m 19020.6,4833.3 h -67.9 c -7.3,0 -11.8,8.08 -7.9,14.34 l 41.9,67.62 41.9,-67.62 c 3.9,-6.26 -0.6,-14.34 -8,-14.34"
       style="fill:#241e21;fill-opacity:1;fill-rule:nonzero;stroke:none"
       transform="matrix(0.03527778,0,0,-0.03527778,-522.20281,267.36214)"
       clip-path="url(#clipPath847)" />
    <path
       id="path848"
       d="m 19463.1,4925.5 c 0,-8.48 -6.9,-15.37 -15.4,-15.37 -8.5,0 -15.4,6.89 -15.4,15.37 0,8.49 6.9,15.37 15.4,15.37 8.5,0 15.4,-6.88 15.4,-15.37"
       style="fill:#241e21;fill-opacity:1;fill-rule:nonzero;stroke:none"
       transform="matrix(0.03527778,0,0,-0.03527778,-522.20281,267.36214)"
       clip-path="url(#clipPath849)" />
    <path
       id="path850"
       d="m 19481.6,4833.3 h -67.8 c -7.4,0 -11.9,8.08 -8,14.34 l 41.9,67.62 41.9,-67.62 c 3.9,-6.26 -0.6,-14.34 -8,-14.34"
       style="fill:#241e21;fill-opacity:1;fill-rule:nonzero;stroke:none"
       transform="matrix(0.03527778,0,0,-0.03527778,-522.20281,267.36214)"
       clip-path="url(#clipPath851)" />
    <path
       id="path852"
       d="m 19598,5340.86 c 38.8,3.53 78.4,-9.69 106.4,-37.1 28,-27.4 42.2,-66.66 39.5,-105.58 -0.3,-4.22 3.8,-7.58 7.7,-7.68 41.3,-1.11 81.2,-19.83 108.3,-51.11 27.6,-31.84 39.4,-75.29 34,-116.81 -0.6,-4.15 3.9,-7.64 7.7,-7.68 4.6,-0.05 7.1,3.58 7.6,7.68 9.5,72.39 -32,143.04 -99.2,170.92 -18.5,7.71 -38.3,11.83 -58.4,12.37 2.6,-2.57 5.1,-5.13 7.7,-7.69 2.9,42.75 -13.3,86.41 -44,116.45 -30.7,30.03 -74.6,45.48 -117.3,41.6 -9.8,-0.89 -9.9,-16.27 0,-15.37"
       style="fill:#ef6a55;fill-opacity:1;fill-rule:nonzero;stroke:none"
       transform="matrix(0.03527778,0,0,-0.03527778,-522.20281,267.36214)"
       clip-path="url(#clipPath853)" />
    <path
       id="path854"
       d="m 18779.8,5219.05 c -68.1,-17.65 -119.2,-80.52 -128.6,-149.37 -2.7,-19.71 -1.9,-39.56 2.6,-58.96 2.5,3.24 5,6.49 7.4,9.73 -67,-3 -129.4,-45.46 -159.4,-105.1 -8.5,-16.78 -14.4,-34.72 -17.2,-53.32 -1.4,-9.68 13.4,-13.85 14.9,-4.09 9,61.07 53.4,114.4 110.9,136.4 16.3,6.23 33.4,9.96 50.8,10.74 5.1,0.23 8.6,4.72 7.4,9.73 -14.3,62.05 15.1,130.2 66.5,166.62 14.8,10.5 31.2,18.24 48.7,22.8 9.6,2.48 5.6,17.31 -4,14.82"
       style="fill:#ef6a55;fill-opacity:1;fill-rule:nonzero;stroke:none"
       transform="matrix(0.03527778,0,0,-0.03527778,-522.20281,267.36214)"
       clip-path="url(#clipPath855)" />
    <path
       id="path856"
       d="m 18872.2,5159.33 c -59.6,-27.36 -84.4,-108.96 -51,-165.14 1.5,3.76 3.1,7.53 4.6,11.29 -58,-9.4 -99.6,-68.71 -91.6,-126.21 1.3,-9.75 16.1,-5.6 14.8,4.08 -6.9,49.83 32,99.39 80.9,107.31 5,0.8 6.9,7.4 4.6,11.29 -29.4,49.54 -6.7,120.21 45.5,144.11 8.9,4.12 1.1,17.37 -7.8,13.27"
       style="fill:#933b32;fill-opacity:1;fill-rule:nonzero;stroke:none"
       transform="matrix(0.03527778,0,0,-0.03527778,-522.20281,267.36214)"
       clip-path="url(#clipPath857)" />
    <path
       id="path858"
       d="m 19587.8,5111.98 c 6.9,-7.22 12.8,-15.15 17.9,-23.6 30.6,-51.5 67.9,-99.23 116.8,-133.75 4.4,-3.09 8.6,-6.53 12.5,-10.31 27.3,-26.65 38.5,-67.72 29.2,-104.64 -2.5,-9.59 12.4,-13.68 14.8,-4.08 8.2,32.71 2.7,68.29 -15.1,96.98 -18,29.02 -48.2,49.07 -81.8,55.2 -18.8,3.45 -38.1,2.78 -56.7,-2.41 3.2,-3.15 6.4,-6.3 9.5,-9.46 14.6,51.25 0.4,108.3 -36.2,146.93 -6.8,7.19 -17.7,-3.69 -10.9,-10.86"
       style="fill:#933b32;fill-opacity:1;fill-rule:nonzero;stroke:none"
       transform="matrix(0.03527778,0,0,-0.03527778,-522.20281,267.36214)"
       clip-path="url(#clipPath859)" />
    <path
       id="path860"
       d="m 19567,4866.93 c 37.9,14.39 84.5,-18.14 83.1,-58.93 -0.3,-9.89 15.1,-9.87 15.4,0 1.6,50.08 -55.5,91.64 -102.6,73.75 -3.9,-1.48 -6.5,-5.18 -5.4,-9.46 1.1,-3.71 5.6,-6.84 9.5,-5.36"
       style="fill:#933b32;fill-opacity:1;fill-rule:nonzero;stroke:none"
       transform="matrix(0.03527778,0,0,-0.03527778,-522.20281,267.36214)"
       clip-path="url(#clipPath861)" />
  </g>
</svg>
