<?xml version="1.0" encoding="UTF-8" standalone="no"?>
<!-- Created with Inkscape (http://www.inkscape.org/) -->

<svg
   width="64.332558mm"
   height="64.331848mm"
   viewBox="0 0 64.332558 64.331848"
   version="1.1"
   id="svg1"
   inkscape:version="1.3.2 (091e20e, 2023-11-25)"
   sodipodi:docname="sweather-guy.svg"
   xmlns:inkscape="http://www.inkscape.org/namespaces/inkscape"
   xmlns:sodipodi="http://sodipodi.sourceforge.net/DTD/sodipodi-0.dtd"
   xmlns="http://www.w3.org/2000/svg"
   xmlns:svg="http://www.w3.org/2000/svg">
  <sodipodi:namedview
     id="namedview1"
     pagecolor="#ffffff"
     bordercolor="#000000"
     borderopacity="0.25"
     inkscape:showpageshadow="2"
     inkscape:pageopacity="0.0"
     inkscape:pagecheckerboard="0"
     inkscape:deskcolor="#d1d1d1"
     inkscape:document-units="mm"
     inkscape:zoom="1.1206597"
     inkscape:cx="-64.694038"
     inkscape:cy="137.86522"
     inkscape:window-width="1920"
     inkscape:window-height="1052"
     inkscape:window-x="0"
     inkscape:window-y="28"
     inkscape:window-maximized="0"
     inkscape:current-layer="layer1" />
  <defs
     id="defs1">
    <clipPath
       clipPathUnits="userSpaceOnUse"
       id="clipPath2273">
      <path
         d="m 33152.8,7228.16 c 0,-503.58 -408.2,-911.79 -911.8,-911.79 -503.6,0 -911.8,408.21 -911.8,911.79 0,503.56 408.2,911.79 911.8,911.79 503.6,0 911.8,-408.23 911.8,-911.79"
         transform="translate(0,-2.5e-4)"
         id="path2273" />
    </clipPath>
    <clipPath
       clipPathUnits="userSpaceOnUse"
       id="clipPath2275">
      <path
         d="m 33152.8,7228.16 c 0,-503.58 -408.2,-911.79 -911.8,-911.79 -503.6,0 -911.8,408.21 -911.8,911.79 0,503.56 408.2,911.79 911.8,911.79 503.6,0 911.8,-408.23 911.8,-911.79"
         transform="translate(0,-2.5e-4)"
         id="path2275" />
    </clipPath>
    <clipPath
       clipPathUnits="userSpaceOnUse"
       id="clipPath2277">
      <path
         d="m 33152.8,7228.16 c 0,-503.58 -408.2,-911.79 -911.8,-911.79 -503.6,0 -911.8,408.21 -911.8,911.79 0,503.56 408.2,911.79 911.8,911.79 503.6,0 911.8,-408.23 911.8,-911.79"
         transform="translate(0,-2.5e-4)"
         id="path2277" />
    </clipPath>
    <clipPath
       clipPathUnits="userSpaceOnUse"
       id="clipPath2278">
      <path
         d="m 32748.6,6562.98 c -95.7,56.73 -211.4,79.45 -324.4,99.52 -6.9,1.23 -14.1,2.56 -19.6,6.39 -9.5,6.56 12,227.34 0,323.86 l -161.3,-13.36 -161.3,13.36 c -12.1,-96.52 9.5,-317.3 0,-323.86 -5.6,-3.83 -12.7,-5.16 -19.6,-6.39 -113,-20.07 -228.7,-42.79 -324.5,-99.52 -95.8,-56.73 -168.3,-155.68 -152.9,-256.72 96.1,0.44 364.5,-1.1 636.4,-4.27 v -0.51 c 7.3,0.09 14.6,0.18 21.9,0.26 7.3,-0.08 14.5,-0.17 21.8,-0.26 v 0.51 c 271.9,3.17 540.3,4.71 636.5,4.27 15.3,101.04 -57.2,199.99 -153,256.72"
         transform="translate(0,-2.5e-4)"
         id="path2278" />
    </clipPath>
    <clipPath
       clipPathUnits="userSpaceOnUse"
       id="clipPath2281">
      <path
         d="m 33152.8,7228.16 c 0,-503.58 -408.2,-911.79 -911.8,-911.79 -503.6,0 -911.8,408.21 -911.8,911.79 0,503.56 408.2,911.79 911.8,911.79 503.6,0 911.8,-408.23 911.8,-911.79"
         transform="translate(0,-2.5e-4)"
         id="path2281" />
    </clipPath>
    <clipPath
       clipPathUnits="userSpaceOnUse"
       id="clipPath2283">
      <path
         d="m 33152.8,7228.16 c 0,-503.58 -408.2,-911.79 -911.8,-911.79 -503.6,0 -911.8,408.21 -911.8,911.79 0,503.56 408.2,911.79 911.8,911.79 503.6,0 911.8,-408.23 911.8,-911.79"
         transform="translate(0,-2.5e-4)"
         id="path2283" />
    </clipPath>
    <clipPath
       clipPathUnits="userSpaceOnUse"
       id="clipPath2285">
      <path
         d="m 33152.8,7228.16 c 0,-503.58 -408.2,-911.79 -911.8,-911.79 -503.6,0 -911.8,408.21 -911.8,911.79 0,503.56 408.2,911.79 911.8,911.79 503.6,0 911.8,-408.23 911.8,-911.79"
         transform="translate(0,-2.5e-4)"
         id="path2285" />
    </clipPath>
    <clipPath
       clipPathUnits="userSpaceOnUse"
       id="clipPath2287">
      <path
         d="m 33152.8,7228.16 c 0,-503.58 -408.2,-911.79 -911.8,-911.79 -503.6,0 -911.8,408.21 -911.8,911.79 0,503.56 408.2,911.79 911.8,911.79 503.6,0 911.8,-408.23 911.8,-911.79"
         transform="translate(0,-2.5e-4)"
         id="path2287" />
    </clipPath>
    <clipPath
       clipPathUnits="userSpaceOnUse"
       id="clipPath2289">
      <path
         d="m 33152.8,7228.16 c 0,-503.58 -408.2,-911.79 -911.8,-911.79 -503.6,0 -911.8,408.21 -911.8,911.79 0,503.56 408.2,911.79 911.8,911.79 503.6,0 911.8,-408.23 911.8,-911.79"
         transform="translate(0,-2.5e-4)"
         id="path2289" />
    </clipPath>
    <clipPath
       clipPathUnits="userSpaceOnUse"
       id="clipPath2291">
      <path
         d="m 33152.8,7228.16 c 0,-503.58 -408.2,-911.79 -911.8,-911.79 -503.6,0 -911.8,408.21 -911.8,911.79 0,503.56 408.2,911.79 911.8,911.79 503.6,0 911.8,-408.23 911.8,-911.79"
         transform="translate(0,-2.5e-4)"
         id="path2291" />
    </clipPath>
    <clipPath
       clipPathUnits="userSpaceOnUse"
       id="clipPath2293">
      <path
         d="m 33152.8,7228.16 c 0,-503.58 -408.2,-911.79 -911.8,-911.79 -503.6,0 -911.8,408.21 -911.8,911.79 0,503.56 408.2,911.79 911.8,911.79 503.6,0 911.8,-408.23 911.8,-911.79"
         transform="translate(0,-2.5e-4)"
         id="path2293" />
    </clipPath>
    <clipPath
       clipPathUnits="userSpaceOnUse"
       id="clipPath2295">
      <path
         d="m 33152.8,7228.16 c 0,-503.58 -408.2,-911.79 -911.8,-911.79 -503.6,0 -911.8,408.21 -911.8,911.79 0,503.56 408.2,911.79 911.8,911.79 503.6,0 911.8,-408.23 911.8,-911.79"
         transform="translate(0,-2.5e-4)"
         id="path2295" />
    </clipPath>
    <clipPath
       clipPathUnits="userSpaceOnUse"
       id="clipPath2297">
      <path
         d="m 33152.8,7228.16 c 0,-503.58 -408.2,-911.79 -911.8,-911.79 -503.6,0 -911.8,408.21 -911.8,911.79 0,503.56 408.2,911.79 911.8,911.79 503.6,0 911.8,-408.23 911.8,-911.79"
         transform="translate(0,-2.5e-4)"
         id="path2297" />
    </clipPath>
    <clipPath
       clipPathUnits="userSpaceOnUse"
       id="clipPath2299">
      <path
         d="m 33152.8,7228.16 c 0,-503.58 -408.2,-911.79 -911.8,-911.79 -503.6,0 -911.8,408.21 -911.8,911.79 0,503.56 408.2,911.79 911.8,911.79 503.6,0 911.8,-408.23 911.8,-911.79"
         transform="translate(0,-2.5e-4)"
         id="path2299" />
    </clipPath>
    <clipPath
       clipPathUnits="userSpaceOnUse"
       id="clipPath2301">
      <path
         d="m 33152.8,7228.16 c 0,-503.58 -408.2,-911.79 -911.8,-911.79 -503.6,0 -911.8,408.21 -911.8,911.79 0,503.56 408.2,911.79 911.8,911.79 503.6,0 911.8,-408.23 911.8,-911.79"
         transform="translate(0,-2.5e-4)"
         id="path2301" />
    </clipPath>
    <clipPath
       clipPathUnits="userSpaceOnUse"
       id="clipPath2303">
      <path
         d="m 33152.8,7228.16 c 0,-503.58 -408.2,-911.79 -911.8,-911.79 -503.6,0 -911.8,408.21 -911.8,911.79 0,503.56 408.2,911.79 911.8,911.79 503.6,0 911.8,-408.23 911.8,-911.79"
         transform="translate(0,-2.5e-4)"
         id="path2303" />
    </clipPath>
    <clipPath
       clipPathUnits="userSpaceOnUse"
       id="clipPath2305">
      <path
         d="m 33152.8,7228.16 c 0,-503.58 -408.2,-911.79 -911.8,-911.79 -503.6,0 -911.8,408.21 -911.8,911.79 0,503.56 408.2,911.79 911.8,911.79 503.6,0 911.8,-408.23 911.8,-911.79"
         transform="translate(0,-2.5e-4)"
         id="path2305" />
    </clipPath>
    <clipPath
       clipPathUnits="userSpaceOnUse"
       id="clipPath2307">
      <path
         d="m 33152.8,7228.16 c 0,-503.58 -408.2,-911.79 -911.8,-911.79 -503.6,0 -911.8,408.21 -911.8,911.79 0,503.56 408.2,911.79 911.8,911.79 503.6,0 911.8,-408.23 911.8,-911.79"
         transform="translate(0,-2.5e-4)"
         id="path2307" />
    </clipPath>
    <clipPath
       clipPathUnits="userSpaceOnUse"
       id="clipPath2309">
      <path
         d="m 33152.8,7228.16 c 0,-503.58 -408.2,-911.79 -911.8,-911.79 -503.6,0 -911.8,408.21 -911.8,911.79 0,503.56 408.2,911.79 911.8,911.79 503.6,0 911.8,-408.23 911.8,-911.79"
         transform="translate(0,-2.5e-4)"
         id="path2309" />
    </clipPath>
    <clipPath
       clipPathUnits="userSpaceOnUse"
       id="clipPath2310">
      <path
         d="m 32063.6,6755 c 109,-36.39 246.9,-31.97 353.3,12.3 -2.2,2.42 -2,-15.84 -1.3,-34.12 0.6,-17.85 1.7,-35.69 1.3,-34.27 -0.7,2.88 476.5,-13.74 520.7,-413.35 H 31535 c 0,0 41.8,206.56 181.8,297.02 138.1,89.2 352.4,116.33 352.4,116.33 l -5.6,56.09"
         transform="translate(0,-2.5e-4)"
         id="path2310" />
    </clipPath>
    <clipPath
       clipPathUnits="userSpaceOnUse"
       id="clipPath2311">
      <path
         d="m 32063.6,6755 c 109,-36.39 246.9,-31.97 353.3,12.3 -2.2,2.42 -2,-15.84 -1.3,-34.12 0.6,-17.85 1.7,-35.69 1.3,-34.27 -0.7,2.88 476.5,-13.74 520.7,-413.35 H 31535 c 0,0 41.8,206.56 181.8,297.02 138.1,89.2 352.4,116.33 352.4,116.33 l -5.6,56.09"
         transform="translate(0,-2.5e-4)"
         id="path2311" />
    </clipPath>
    <clipPath
       clipPathUnits="userSpaceOnUse"
       id="clipPath2312">
      <path
         d="m 32063.6,6755 c 109,-36.39 246.9,-31.97 353.3,12.3 -2.2,2.42 -2,-15.84 -1.3,-34.12 0.6,-17.85 1.7,-35.69 1.3,-34.27 -0.7,2.88 476.5,-13.74 520.7,-413.35 H 31535 c 0,0 41.8,206.56 181.8,297.02 138.1,89.2 352.4,116.33 352.4,116.33 l -5.6,56.09"
         transform="translate(0,-2.5e-4)"
         id="path2312" />
    </clipPath>
    <clipPath
       clipPathUnits="userSpaceOnUse"
       id="clipPath2313">
      <path
         d="m 32063.6,6755 c 109,-36.39 246.9,-31.97 353.3,12.3 -2.2,2.42 -2,-15.84 -1.3,-34.12 0.6,-17.85 1.7,-35.69 1.3,-34.27 -0.7,2.88 476.5,-13.74 520.7,-413.35 H 31535 c 0,0 41.8,206.56 181.8,297.02 138.1,89.2 352.4,116.33 352.4,116.33 l -5.6,56.09"
         transform="translate(0,-2.5e-4)"
         id="path2313" />
    </clipPath>
    <clipPath
       clipPathUnits="userSpaceOnUse"
       id="clipPath2314">
      <path
         d="m 32063.6,6755 c 109,-36.39 246.9,-31.97 353.3,12.3 -2.2,2.42 -2,-15.84 -1.3,-34.12 0.6,-17.85 1.7,-35.69 1.3,-34.27 -0.7,2.88 476.5,-13.74 520.7,-413.35 H 31535 c 0,0 41.8,206.56 181.8,297.02 138.1,89.2 352.4,116.33 352.4,116.33 l -5.6,56.09"
         transform="translate(0,-2.5e-4)"
         id="path2314" />
    </clipPath>
    <clipPath
       clipPathUnits="userSpaceOnUse"
       id="clipPath2315">
      <path
         d="m 32063.6,6755 c 109,-36.39 246.9,-31.97 353.3,12.3 -2.2,2.42 -2,-15.84 -1.3,-34.12 0.6,-17.85 1.7,-35.69 1.3,-34.27 -0.7,2.88 476.5,-13.74 520.7,-413.35 H 31535 c 0,0 41.8,206.56 181.8,297.02 138.1,89.2 352.4,116.33 352.4,116.33 l -5.6,56.09"
         transform="translate(0,-2.5e-4)"
         id="path2315" />
    </clipPath>
    <clipPath
       clipPathUnits="userSpaceOnUse"
       id="clipPath2316">
      <path
         d="m 32063.6,6755 c 109,-36.39 246.9,-31.97 353.3,12.3 -2.2,2.42 -2,-15.84 -1.3,-34.12 0.6,-17.85 1.7,-35.69 1.3,-34.27 -0.7,2.88 476.5,-13.74 520.7,-413.35 H 31535 c 0,0 41.8,206.56 181.8,297.02 138.1,89.2 352.4,116.33 352.4,116.33 l -5.6,56.09"
         transform="translate(0,-2.5e-4)"
         id="path2316" />
    </clipPath>
    <clipPath
       clipPathUnits="userSpaceOnUse"
       id="clipPath2325">
      <path
         d="m 33152.8,7228.16 c 0,-503.58 -408.2,-911.79 -911.8,-911.79 -503.6,0 -911.8,408.21 -911.8,911.79 0,503.56 408.2,911.79 911.8,911.79 503.6,0 911.8,-408.23 911.8,-911.79"
         transform="translate(0,-2.5e-4)"
         id="path2325" />
    </clipPath>
    <clipPath
       clipPathUnits="userSpaceOnUse"
       id="clipPath2327">
      <path
         d="m 33152.8,7228.16 c 0,-503.58 -408.2,-911.79 -911.8,-911.79 -503.6,0 -911.8,408.21 -911.8,911.79 0,503.56 408.2,911.79 911.8,911.79 503.6,0 911.8,-408.23 911.8,-911.79"
         transform="translate(0,-2.5e-4)"
         id="path2327" />
    </clipPath>
    <clipPath
       clipPathUnits="userSpaceOnUse"
       id="clipPath2329">
      <path
         d="m 33152.8,7228.16 c 0,-503.58 -408.2,-911.79 -911.8,-911.79 -503.6,0 -911.8,408.21 -911.8,911.79 0,503.56 408.2,911.79 911.8,911.79 503.6,0 911.8,-408.23 911.8,-911.79"
         transform="translate(0,-2.5e-4)"
         id="path2329" />
    </clipPath>
    <clipPath
       clipPathUnits="userSpaceOnUse"
       id="clipPath2331">
      <path
         d="m 33152.8,7228.16 c 0,-503.58 -408.2,-911.79 -911.8,-911.79 -503.6,0 -911.8,408.21 -911.8,911.79 0,503.56 408.2,911.79 911.8,911.79 503.6,0 911.8,-408.23 911.8,-911.79"
         transform="translate(0,-2.5e-4)"
         id="path2331" />
    </clipPath>
    <clipPath
       clipPathUnits="userSpaceOnUse"
       id="clipPath2333">
      <path
         d="m 33152.8,7228.16 c 0,-503.58 -408.2,-911.79 -911.8,-911.79 -503.6,0 -911.8,408.21 -911.8,911.79 0,503.56 408.2,911.79 911.8,911.79 503.6,0 911.8,-408.23 911.8,-911.79"
         transform="translate(0,-2.5e-4)"
         id="path2333" />
    </clipPath>
    <clipPath
       clipPathUnits="userSpaceOnUse"
       id="clipPath2335">
      <path
         d="m 33152.8,7228.16 c 0,-503.58 -408.2,-911.79 -911.8,-911.79 -503.6,0 -911.8,408.21 -911.8,911.79 0,503.56 408.2,911.79 911.8,911.79 503.6,0 911.8,-408.23 911.8,-911.79"
         transform="translate(0,-2.5e-4)"
         id="path2335" />
    </clipPath>
    <clipPath
       clipPathUnits="userSpaceOnUse"
       id="clipPath2337">
      <path
         d="m 33152.8,7228.16 c 0,-503.58 -408.2,-911.79 -911.8,-911.79 -503.6,0 -911.8,408.21 -911.8,911.79 0,503.56 408.2,911.79 911.8,911.79 503.6,0 911.8,-408.23 911.8,-911.79"
         transform="translate(0,-2.5e-4)"
         id="path2337" />
    </clipPath>
    <clipPath
       clipPathUnits="userSpaceOnUse"
       id="clipPath2339">
      <path
         d="m 33152.8,7228.16 c 0,-503.58 -408.2,-911.79 -911.8,-911.79 -503.6,0 -911.8,408.21 -911.8,911.79 0,503.56 408.2,911.79 911.8,911.79 503.6,0 911.8,-408.23 911.8,-911.79"
         transform="translate(0,-2.5e-4)"
         id="path2339" />
    </clipPath>
    <clipPath
       clipPathUnits="userSpaceOnUse"
       id="clipPath2341">
      <path
         d="m 33152.8,7228.16 c 0,-503.58 -408.2,-911.79 -911.8,-911.79 -503.6,0 -911.8,408.21 -911.8,911.79 0,503.56 408.2,911.79 911.8,911.79 503.6,0 911.8,-408.23 911.8,-911.79"
         transform="translate(0,-2.5e-4)"
         id="path2341" />
    </clipPath>
    <clipPath
       clipPathUnits="userSpaceOnUse"
       id="clipPath2343">
      <path
         d="m 33152.8,7228.16 c 0,-503.58 -408.2,-911.79 -911.8,-911.79 -503.6,0 -911.8,408.21 -911.8,911.79 0,503.56 408.2,911.79 911.8,911.79 503.6,0 911.8,-408.23 911.8,-911.79"
         transform="translate(0,-2.5e-4)"
         id="path2343" />
    </clipPath>
    <clipPath
       clipPathUnits="userSpaceOnUse"
       id="clipPath2345">
      <path
         d="m 33152.8,7228.16 c 0,-503.58 -408.2,-911.79 -911.8,-911.79 -503.6,0 -911.8,408.21 -911.8,911.79 0,503.56 408.2,911.79 911.8,911.79 503.6,0 911.8,-408.23 911.8,-911.79"
         transform="translate(0,-2.5e-4)"
         id="path2345" />
    </clipPath>
    <clipPath
       clipPathUnits="userSpaceOnUse"
       id="clipPath2347">
      <path
         d="m 33152.8,7228.16 c 0,-503.58 -408.2,-911.79 -911.8,-911.79 -503.6,0 -911.8,408.21 -911.8,911.79 0,503.56 408.2,911.79 911.8,911.79 503.6,0 911.8,-408.23 911.8,-911.79"
         transform="translate(0,-2.5e-4)"
         id="path2347" />
    </clipPath>
  </defs>
  <g
     inkscape:label="Layer 1"
     inkscape:groupmode="layer"
     id="layer1"
     transform="translate(-73.554325,-105.8333)">
    <path
       id="path2272"
       d="m 31329.2,6316.37 h 1823.6 v 1823.58 h -1823.6 z"
       style="fill:#a59eff;fill-opacity:1;fill-rule:nonzero;stroke:none"
       transform="matrix(0.03527778,0,0,-0.03527778,-1031.6703,392.99266)"
       clip-path="url(#clipPath2273)" />
    <path
       id="path2274"
       d="m 31977.9,7185.98 c -8.3,-69.14 -16.1,-141.66 8.9,-206.51 10.8,-28.07 27.3,-53.41 44.3,-78.08 10.5,-15.17 21.3,-30.26 34.4,-43.12 31.6,-30.9 75,-46.86 118.4,-52.53 43.4,-5.69 87.4,-1.91 131,1.87 19.8,1.71 40.1,3.58 57.8,12.57 20,10.1 34.8,28.19 48.9,45.82 47,58.84 95.3,122.86 102.5,198.39 2.2,23.33 0.3,46.85 -1.7,70.19 -2.9,32.67 -6.1,65.31 -9.7,97.92 -1.5,13.81 -3.2,79.22 -10.1,91.25 -8.1,14.41 -22.7,23.86 -37.6,30.66 -44.5,20.31 -95.3,21.4 -143.8,16.36 -48.5,-5.04 -96.5,-15.82 -145.2,-18.01 l -198.1,-166.78"
       style="fill:#241e21;fill-opacity:1;fill-rule:nonzero;stroke:none"
       transform="matrix(0.03527778,0,0,-0.03527778,-1031.6703,392.99266)"
       clip-path="url(#clipPath2275)" />
    <path
       id="path2276"
       d="m 32748.6,6562.98 c -95.7,56.73 -211.4,79.45 -324.4,99.52 -6.9,1.23 -14.1,2.56 -19.6,6.39 -9.5,6.56 12,227.34 0,323.86 l -161.3,-13.36 -161.3,13.36 c -12.1,-96.52 9.5,-317.3 0,-323.86 -5.6,-3.83 -12.7,-5.16 -19.6,-6.39 -113,-20.07 -228.7,-42.79 -324.5,-99.52 -95.8,-56.73 -168.3,-155.68 -152.9,-256.72 96.1,0.44 364.5,-1.1 636.4,-4.27 v -0.51 c 7.3,0.09 14.6,0.18 21.9,0.26 7.3,-0.08 14.5,-0.17 21.8,-0.26 v 0.51 c 271.9,3.17 540.3,4.71 636.5,4.27 15.3,101.04 -57.2,199.99 -153,256.72"
       style="fill:#b77456;fill-opacity:1;fill-rule:nonzero;stroke:none"
       transform="matrix(0.03527778,0,0,-0.03527778,-1031.6703,392.99266)"
       clip-path="url(#clipPath2277)" />
    <g
       id="g2279"
       transform="matrix(0.26458333,0,0,0.26458333,-1031.6703,34.47873)">
      <path
         d="m 32243.2,6740.84 c -55.3,0 -112.9,32.69 -163,77.42 -1.1,30.56 -2,62.43 -2,92.1 0,31.3 1,60.14 3.8,82.39 l 161.3,-13.36 161.3,13.36 c 2.7,-22.25 3.7,-51.09 3.7,-82.39 0,-28.35 -0.8,-58.69 -1.8,-87.99 -44.4,-47.2 -99.1,-81.53 -163.3,-81.53"
         style="fill:#8d5239;fill-opacity:1;fill-rule:nonzero;stroke:none"
         transform="matrix(0.13333333,0,0,-0.13333333,0,1355.0133)"
         clip-path="url(#clipPath2278)"
         id="path2279" />
    </g>
    <path
       id="path2280"
       d="m 32004,7490.33 c -37.1,-106.58 -27.9,-344.49 0,-453.08 l 0.4,-1.75 c 15.2,-58.28 39.4,-116.48 84.9,-161.85 45.6,-45.36 115.8,-76.04 185.3,-67.99 67.2,7.78 123.6,50.27 156.4,100.81 32.8,50.53 45.4,108.59 54.5,165.79 16,99.6 11.8,415.29 0.5,416.1 -144.7,10.43 -341.2,35.66 -482,5.43 v -3.46"
       style="fill:#b77456;fill-opacity:1;fill-rule:nonzero;stroke:none"
       transform="matrix(0.03527778,0,0,-0.03527778,-1031.6703,392.99266)"
       clip-path="url(#clipPath2281)" />
    <path
       id="path2282"
       d="m 32479.7,7125.69 c 3.6,22.8 34.6,37.05 59.5,30.37 24.9,-6.69 41.3,-29.55 43.2,-52.51 1.9,-22.95 -8.7,-45.54 -23.6,-64.42 -24.8,-31.47 -68.4,-55.91 -110.4,-46.18 6.6,47.21 16.2,94.09 28.6,140.38 l 2.7,-7.64"
       style="fill:#b77456;fill-opacity:1;fill-rule:nonzero;stroke:none"
       transform="matrix(0.03527778,0,0,-0.03527778,-1031.6703,392.99266)"
       clip-path="url(#clipPath2283)" />
    <path
       id="path2284"
       d="m 32007.8,7125.69 c -3.5,22.8 -34.6,37.05 -59.5,30.37 -24.9,-6.69 -41.3,-29.55 -43.1,-52.51 -1.9,-22.95 8.6,-45.54 23.5,-64.42 24.8,-31.47 68.5,-55.91 110.5,-46.18 -6.7,47.21 -16.3,94.09 -28.7,140.38 l -2.7,-7.64"
       style="fill:#b77456;fill-opacity:1;fill-rule:nonzero;stroke:none"
       transform="matrix(0.03527778,0,0,-0.03527778,-1031.6703,392.99266)"
       clip-path="url(#clipPath2285)" />
    <path
       id="path2286"
       d="m 32494.4,7150.08 c -2.2,78.3 -16.3,209.31 -18.5,287.61 -34.4,-31.03 -92.2,-31.45 -127.1,-0.92 -8.4,7.44 -17.2,17.04 -28.5,16.38 -9.7,-0.57 -16.9,-8.62 -24.1,-15.14 -28,-25.4 -70.7,-33.15 -105.8,-19.19 -15.4,6.12 -30.5,16.22 -46.9,14.52 -13.3,-1.36 -24.4,-10.12 -36.4,-15.83 -30.8,-14.65 -70.5,-7.64 -94.4,16.67 -5,-78.4 -10,-207.96 -14.9,-286.36 -9.5,7.38 -21.9,10.88 -33.8,9.55 6.7,78.74 6.9,209.19 0.5,287.96 -2.4,30.05 -5.8,60.64 0.6,90.1 6.5,29.46 24.8,58.25 53.2,68.33 28.5,10.08 65.9,-5.83 71.2,-35.51 -20.5,59.03 5.9,133.67 63.5,157.98 57.6,24.32 135.4,-17.62 138.5,-80.06 15.1,39.44 65.5,60.95 104.4,44.59 39,-16.36 58.9,-67.42 41.3,-105.82 10.7,13.91 21.8,28.21 37.2,36.6 15.4,8.4 36.3,9.27 49.1,-2.71 20,-18.73 8.4,-51.82 -4.4,-76.06 22,17.52 56.4,-9.3 56.4,-37.44 0.1,-28.14 -20.2,-51.66 -39.4,-72.31 21.9,-8.78 14,-41.07 4.4,-62.56 -21.8,-48.87 -21.9,-151.55 -20.5,-205.04 -8.4,27.95 -3,21.09 -20.5,-10.23 l -5.1,-5.11"
       style="fill:#241e21;fill-opacity:1;fill-rule:nonzero;stroke:none"
       transform="matrix(0.03527778,0,0,-0.03527778,-1031.6703,392.99266)"
       clip-path="url(#clipPath2287)" />
    <path
       id="path2288"
       d="m 32492.7,7055.46 c 13.1,13.76 26.1,24.08 42.3,33.58 3.4,2.04 5,7.01 2.7,10.5 -2.2,3.49 -6.8,4.93 -10.5,2.75 -16.7,-9.8 -32,-21.95 -45.3,-35.98 -2.8,-2.92 -3.1,-8 0,-10.85 3,-2.75 7.9,-3.11 10.8,0"
       style="fill:#66331f;fill-opacity:1;fill-rule:nonzero;stroke:none"
       transform="matrix(0.03527778,0,0,-0.03527778,-1031.6703,392.99266)"
       clip-path="url(#clipPath2289)" />
    <path
       id="path2290"
       d="m 32506.7,7062.82 c 5.3,-6.43 10.7,-12.85 16,-19.28 1.2,-1.43 3.7,-2.24 5.5,-2.24 1.8,0 4.1,0.83 5.4,2.24 1.3,1.46 2.3,3.38 2.2,5.43 -0.1,2.13 -0.9,3.78 -2.2,5.42 -5.4,6.43 -10.7,12.85 -16.1,19.28 -1.2,1.43 -3.6,2.25 -5.4,2.25 -1.9,0 -4.1,-0.84 -5.4,-2.25 -1.4,-1.46 -2.4,-3.38 -2.3,-5.43 0.1,-2.14 0.9,-3.78 2.3,-5.42"
       style="fill:#66331f;fill-opacity:1;fill-rule:nonzero;stroke:none"
       transform="matrix(0.03527778,0,0,-0.03527778,-1031.6703,392.99266)"
       clip-path="url(#clipPath2291)" />
    <path
       id="path2292"
       d="m 31940,7097.11 c 17.6,-10.24 30.3,-27.17 35.3,-46.94 1,-4.02 5.5,-6.44 9.4,-5.36 4.1,1.12 6.4,5.41 5.4,9.44 -5.9,23.42 -21.5,43.96 -42.3,56.11 -3.6,2.09 -8.5,0.83 -10.5,-2.75 -2.1,-3.59 -0.9,-8.41 2.7,-10.5"
       style="fill:#66331f;fill-opacity:1;fill-rule:nonzero;stroke:none"
       transform="matrix(0.03527778,0,0,-0.03527778,-1031.6703,392.99266)"
       clip-path="url(#clipPath2293)" />
    <path
       id="path2294"
       d="m 31957.9,7064.1 c 0.6,1.42 1.4,2.74 2.3,3.97 l -1.2,-1.55 c 1,1.34 2.2,2.53 3.6,3.59 l -1.6,-1.2 c 1.4,1.08 3,1.97 4.6,2.67 l -1.8,-0.78 c 1.5,0.62 3,1.05 4.6,1.29 l -2,-0.28 0.7,0.08 c 1,-0.04 2,0.18 2.9,0.67 1,0.3 1.8,0.83 2.5,1.58 1.3,1.33 2.3,3.52 2.2,5.43 0,1.98 -0.7,4.04 -2.2,5.42 -1.4,1.3 -3.4,2.46 -5.4,2.25 -4.8,-0.51 -9.5,-1.87 -13.4,-4.74 -3.8,-2.79 -7.2,-6.26 -9.1,-10.65 -0.6,-0.88 -0.9,-1.84 -0.9,-2.86 -0.2,-1.02 -0.2,-2.04 0.1,-3.06 0.5,-1.78 1.9,-3.71 3.6,-4.58 1.7,-0.94 3.9,-1.42 5.9,-0.78 1.7,0.58 3.8,1.74 4.6,3.53"
       style="fill:#66331f;fill-opacity:1;fill-rule:nonzero;stroke:none"
       transform="matrix(0.03527778,0,0,-0.03527778,-1031.6703,392.99266)"
       clip-path="url(#clipPath2295)" />
    <path
       id="path2296"
       d="m 32260.8,7185.72 c -0.2,-23.5 -0.4,-47 -0.6,-70.5 0,-6.31 6.5,-8.9 11.6,-6.63 17,7.62 38.7,-6.16 37.6,-25 -0.5,-8.74 -5.2,-17.46 -12.5,-22.33 -10.8,-7.16 -25,-4.02 -36.6,-1.1 -9.6,2.41 -13.7,-12.39 -4.1,-14.8 16.7,-4.18 35.6,-6.76 50.4,4.05 11.2,8.19 18.2,21.9 18.2,35.82 -0.1,30.69 -34.2,48.48 -60.8,36.61 3.9,-2.2 7.7,-4.41 11.6,-6.62 0.2,23.5 0.4,47 0.6,70.5 0.1,9.88 -15.3,9.89 -15.4,0"
       style="fill:#66331f;fill-opacity:1;fill-rule:nonzero;stroke:none"
       transform="matrix(0.03527778,0,0,-0.03527778,-1031.6703,392.99266)"
       clip-path="url(#clipPath2297)" />
    <path
       id="path2298"
       d="m 32141.3,7187.43 c 0,-18.92 -11.6,-34.26 -25.8,-34.26 -14.2,0 -25.7,15.34 -25.7,34.26 0,18.92 11.5,34.26 25.7,34.26 14.2,0 25.8,-15.34 25.8,-34.26"
       style="fill:#1a1a1a;fill-opacity:1;fill-rule:nonzero;stroke:none"
       transform="matrix(0.03527778,0,0,-0.03527778,-1031.6703,392.99266)"
       clip-path="url(#clipPath2299)" />
    <path
       id="path2300"
       d="m 32403.7,7187.43 c 0,-18.92 -11.5,-34.26 -25.7,-34.26 -14.2,0 -25.8,15.34 -25.8,34.26 0,18.92 11.6,34.26 25.8,34.26 14.2,0 25.7,-15.34 25.7,-34.26"
       style="fill:#1a1a1a;fill-opacity:1;fill-rule:nonzero;stroke:none"
       transform="matrix(0.03527778,0,0,-0.03527778,-1031.6703,392.99266)"
       clip-path="url(#clipPath2301)" />
    <path
       id="path2302"
       d="m 32172.5,7008.68 c 23.2,-17.73 52.6,-27.02 81.8,-26.3 9.9,0.24 9.9,15.58 0,15.34 -26.8,-0.65 -52.8,7.97 -74.1,24.22 -3.3,2.51 -8.6,0.51 -10.5,-2.76 -2.3,-3.94 -0.6,-7.98 2.8,-10.5"
       style="fill:#66331f;fill-opacity:1;fill-rule:nonzero;stroke:none"
       transform="matrix(0.03527778,0,0,-0.03527778,-1031.6703,392.99266)"
       clip-path="url(#clipPath2303)" />
    <path
       id="path2304"
       d="m 32345.7,7266.82 c 2,2.63 4.4,4.78 6.7,7.14 1.5,1.49 -2.1,-1.42 -0.3,-0.24 l 1.9,1.33 c 1.4,0.96 2.9,1.84 4.5,2.64 l 2.1,1.02 c -0.2,0.11 -2.9,-1.05 -0.5,-0.22 1.7,0.57 3.3,1.12 5,1.55 l 2.3,0.51 c 0.4,0.09 3,0.53 0.8,0.2 -2.2,-0.33 0.4,0.01 0.8,0.04 1,0.06 1.9,0.11 2.9,0.11 l 4.6,-0.21 c 0,-0.18 -3.2,0.59 -0.6,0.08 l 2.3,-0.45 c 1.7,-0.39 3.4,-0.87 5,-1.43 0.4,-0.13 2.8,-0.97 0.9,-0.27 -1.9,0.7 0.4,-0.22 0.8,-0.4 1.6,-0.76 3.1,-1.6 4.6,-2.52 l 1.9,-1.28 c 1.9,-1.25 0.2,0.32 -0.3,0.31 l 3.8,-3.51 c 1.3,-1.24 2.4,-2.56 3.5,-3.92 5,-6.3 16.5,-5.65 21.7,0 6.1,6.69 5.4,14.98 0,21.7 -11.4,14.21 -30.1,22.71 -48.2,22.6 -18.1,-0.12 -36.7,-8.69 -47.9,-23.08 -2.6,-3.36 -4.5,-6.4 -4.5,-10.85 0,-3.76 1.7,-8.26 4.5,-10.85 5.5,-5.05 16.4,-6.77 21.7,0"
       style="fill:#1a1a1a;fill-opacity:1;fill-rule:nonzero;stroke:none"
       transform="matrix(0.03527778,0,0,-0.03527778,-1031.6703,392.99266)"
       clip-path="url(#clipPath2305)" />
    <path
       id="path2306"
       d="m 32100.1,7277.05 c 2.1,2.63 4.5,4.79 6.8,7.14 1.5,1.49 -2.1,-1.42 -0.4,-0.24 l 1.9,1.33 c 1.5,0.96 3,1.84 4.5,2.64 l 2.1,1.02 c -0.1,0.12 -2.8,-1.05 -0.4,-0.22 1.6,0.57 3.3,1.12 5,1.55 l 2.2,0.51 c 0.4,0.09 3,0.53 0.8,0.2 -2.1,-0.33 0.4,0.01 0.9,0.04 0.9,0.07 1.9,0.11 2.9,0.11 l 4.6,-0.21 c -0.1,-0.18 -3.2,0.59 -0.6,0.08 l 2.2,-0.45 c 1.7,-0.38 3.4,-0.87 5.1,-1.43 0.3,-0.13 2.8,-0.97 0.8,-0.27 -1.9,0.7 0.5,-0.22 0.9,-0.4 1.5,-0.76 3.1,-1.6 4.5,-2.52 l 2,-1.28 c 1.9,-1.25 0.2,0.32 -0.4,0.31 l 3.9,-3.51 c 1.2,-1.24 2.4,-2.56 3.4,-3.92 5.1,-6.3 16.6,-5.64 21.7,0 6.2,6.69 5.4,14.98 0,21.7 -11.3,14.22 -30,22.71 -48.1,22.6 -18.2,-0.12 -36.8,-8.69 -48,-23.08 -2.6,-3.36 -4.5,-6.4 -4.5,-10.85 0,-3.76 1.7,-8.26 4.5,-10.85 5.5,-5.05 16.5,-6.77 21.7,0"
       style="fill:#1a1a1a;fill-opacity:1;fill-rule:nonzero;stroke:none"
       transform="matrix(0.03527778,0,0,-0.03527778,-1031.6703,392.99266)"
       clip-path="url(#clipPath2307)" />
    <path
       id="path2308"
       d="m 32063.6,6754.99 c 109,-36.38 246.9,-31.96 353.3,12.31 -4.4,4.79 0.8,-71.27 0,-68.39 -0.7,2.88 476.5,-13.74 520.7,-413.35 l -683.6,-168.81 -719,168.81 c 0,0 41.8,206.56 181.8,297.02 138.2,89.2 352.4,116.33 352.4,116.33 l -5.6,56.08"
       style="fill:#e9a167;fill-opacity:1;fill-rule:nonzero;stroke:none"
       transform="matrix(0.03527778,0,0,-0.03527778,-1031.6703,392.99266)"
       clip-path="url(#clipPath2309)" />
    <g
       id="g2323"
       transform="matrix(0.26458333,0,0,0.26458333,-1031.6703,34.47873)">
      <path
         d="m 32091.9,6754.73 c 4.1,-30.02 8.1,-60.05 12.1,-90.07 0.6,-4.11 3.2,-7.67 7.7,-7.67 3.7,0 8.2,3.53 7.7,7.67 -4,30.02 -8.1,60.05 -12.1,90.07 -0.6,4.11 -3.1,7.68 -7.7,7.68 -3.7,0 -8.2,-3.54 -7.7,-7.68"
         style="fill:#aa6f48;fill-opacity:1;fill-rule:nonzero;stroke:none"
         transform="matrix(0.13333333,0,0,-0.13333333,0,1355.0133)"
         clip-path="url(#clipPath2310)"
         id="path2317" />
      <path
         d="m 32150.6,6750.84 c 1,-35.23 2,-70.47 3.1,-105.7 0.3,-9.85 15.6,-9.9 15.3,0 -1,35.23 -2,70.47 -3.1,105.7 -0.3,9.86 -15.6,9.9 -15.3,0"
         style="fill:#aa6f48;fill-opacity:1;fill-rule:nonzero;stroke:none"
         transform="matrix(0.13333333,0,0,-0.13333333,0,1355.0133)"
         clip-path="url(#clipPath2311)"
         id="path2318" />
      <path
         d="m 32222.7,6745.07 c 6,-31.67 8.1,-63.9 6.5,-96.09 -0.4,-9.87 14.9,-9.84 15.4,0 1.6,33.57 -0.9,67.15 -7.1,100.17 -1.8,9.69 -16.6,5.59 -14.8,-4.08"
         style="fill:#aa6f48;fill-opacity:1;fill-rule:nonzero;stroke:none"
         transform="matrix(0.13333333,0,0,-0.13333333,0,1355.0133)"
         clip-path="url(#clipPath2312)"
         id="path2319" />
      <path
         d="m 32302.1,6751.04 c 2.5,-30.04 2.9,-60.19 1.4,-90.29 -0.5,-9.87 14.8,-9.84 15.3,0 1.6,30.1 1.1,60.25 -1.3,90.29 -0.8,9.77 -16.2,9.86 -15.4,0"
         style="fill:#aa6f48;fill-opacity:1;fill-rule:nonzero;stroke:none"
         transform="matrix(0.13333333,0,0,-0.13333333,0,1355.0133)"
         clip-path="url(#clipPath2313)"
         id="path2320" />
      <path
         d="m 32359.6,6762.73 c 4.4,-34.44 4,-69.43 -1.7,-103.71 -1.6,-9.66 13.2,-13.81 14.8,-4.07 5.9,35.69 6.8,71.88 2.2,107.78 -0.5,4.14 -3.1,7.63 -7.6,7.67 -3.8,0.04 -8.2,-3.56 -7.7,-7.67"
         style="fill:#aa6f48;fill-opacity:1;fill-rule:nonzero;stroke:none"
         transform="matrix(0.13333333,0,0,-0.13333333,0,1355.0133)"
         clip-path="url(#clipPath2314)"
         id="path2321" />
      <path
         d="m 31781.6,6480.6 c -9.7,-96.59 -19.4,-193.18 -29.2,-289.77 -0.9,-9.82 14.4,-9.75 15.4,0 9.7,96.59 19.4,193.18 29.2,289.77 0.9,9.82 -14.4,9.75 -15.4,0"
         style="fill:#aa6f48;fill-opacity:1;fill-rule:nonzero;stroke:none"
         transform="matrix(0.13333333,0,0,-0.13333333,0,1355.0133)"
         clip-path="url(#clipPath2315)"
         id="path2322" />
      <path
         d="m 32706.6,6490.77 c 16.7,-84.53 36.1,-168.5 58.2,-251.77 2.5,-9.54 17.3,-5.5 14.7,4.08 -22,83.27 -41.4,167.24 -58.1,251.77 -1.9,9.68 -16.7,5.58 -14.8,-4.08"
         style="fill:#aa6f48;fill-opacity:1;fill-rule:nonzero;stroke:none"
         transform="matrix(0.13333333,0,0,-0.13333333,0,1355.0133)"
         clip-path="url(#clipPath2316)"
         id="path2323" />
    </g>
    <path
       id="path2324"
       d="m 32603.5,6645.19 c 1.4,3.18 3,6.24 4.8,9.13 l 1.6,2.33 0.7,0.95 c 0.7,0.99 0.3,0.12 -0.2,-0.24 l 1.8,2.17 1.7,1.92 c 1.2,1.26 2.4,2.46 3.7,3.61 l 2,1.69 1.1,0.88 c -0.4,-0.48 -1.3,-0.94 -0.3,-0.2 2.8,2.1 5.9,3.93 9,5.51 3.6,1.79 4.9,7.17 2.8,10.5 -2.4,3.68 -6.7,4.67 -10.5,2.75 -13.9,-6.9 -25.4,-19.01 -31.4,-33.25 -0.9,-1.98 -1.4,-3.74 -0.8,-5.91 0.5,-1.78 1.9,-3.71 3.5,-4.59 3.3,-1.73 8.9,-1.19 10.5,2.75"
       style="fill:#e9a167;fill-opacity:1;fill-rule:nonzero;stroke:none"
       transform="matrix(0.03527778,0,0,-0.03527778,-1031.6703,392.99266)"
       clip-path="url(#clipPath2325)" />
    <path
       id="path2326"
       d="m 32633.1,6634.23 c 9.2,6.41 18.4,12.83 27.7,19.24 1.6,1.16 2.9,2.57 3.5,4.58 0.5,1.84 0.3,4.29 -0.8,5.92 -2.1,3.27 -7,5.2 -10.5,2.75 -9.2,-6.41 -18.4,-12.82 -27.7,-19.23 -1.6,-1.16 -2.9,-2.58 -3.5,-4.59 -0.5,-1.84 -0.3,-4.28 0.8,-5.91 2.1,-3.27 7,-5.21 10.5,-2.76"
       style="fill:#e9a167;fill-opacity:1;fill-rule:nonzero;stroke:none"
       transform="matrix(0.03527778,0,0,-0.03527778,-1031.6703,392.99266)"
       clip-path="url(#clipPath2327)" />
    <path
       id="path2328"
       d="m 31863.6,6666.22 c 20.6,-6.03 41.3,-12.06 62,-18.08 9.5,-2.78 13.5,12.03 4,14.79 -20.6,6.03 -41.3,12.06 -61.9,18.09 -9.5,2.77 -13.6,-12.03 -4.1,-14.8"
       style="fill:#e9a167;fill-opacity:1;fill-rule:nonzero;stroke:none"
       transform="matrix(0.03527778,0,0,-0.03527778,-1031.6703,392.99266)"
       clip-path="url(#clipPath2329)" />
    <path
       id="path2330"
       d="m 31761.5,6637.98 c 16.9,-5.41 33.8,-10.81 50.7,-16.22 3.9,-1.22 8.6,1.43 9.5,5.36 0.9,4.19 -1.3,8.13 -5.4,9.44 -16.9,5.41 -33.8,10.81 -50.7,16.22 -3.9,1.22 -8.6,-1.43 -9.5,-5.36 -0.9,-4.19 1.3,-8.13 5.4,-9.44"
       style="fill:#e9a167;fill-opacity:1;fill-rule:nonzero;stroke:none"
       transform="matrix(0.03527778,0,0,-0.03527778,-1031.6703,392.99266)"
       clip-path="url(#clipPath2331)" />
    <path
       id="path2332"
       d="m 31720.2,6594.02 c 19.3,0.49 38.3,-2.04 56.8,-7.56 9.4,-2.84 13.5,11.97 4,14.8 -19.6,5.88 -40.3,8.63 -60.8,8.1 -4.1,-0.1 -7.7,-3.45 -7.7,-7.67 0,-4.08 3.5,-7.78 7.7,-7.67"
       style="fill:#e9a167;fill-opacity:1;fill-rule:nonzero;stroke:none"
       transform="matrix(0.03527778,0,0,-0.03527778,-1031.6703,392.99266)"
       clip-path="url(#clipPath2333)" />
    <path
       id="path2334"
       d="m 32497.7,6494.09 c 2.5,-10.46 5,-20.93 7.6,-31.4 0.9,-3.9 5.5,-6.61 9.4,-5.36 4.1,1.31 6.4,5.26 5.4,9.44 -2.6,10.47 -5.1,20.93 -7.6,31.4 -1,3.9 -5.6,6.61 -9.5,5.36 -4,-1.31 -6.4,-5.26 -5.3,-9.44"
       style="fill:#aa6f48;fill-opacity:1;fill-rule:nonzero;stroke:none"
       transform="matrix(0.03527778,0,0,-0.03527778,-1031.6703,392.99266)"
       clip-path="url(#clipPath2335)" />
    <path
       id="path2336"
       d="m 32539.2,6481.99 c 1.6,-10.4 3.3,-20.79 4.9,-31.19 0.3,-1.78 2,-3.72 3.5,-4.59 1.7,-0.96 4.1,-1.37 5.9,-0.77 4.4,1.4 6.1,5.18 5.4,9.44 -1.6,10.4 -3.3,20.79 -4.9,31.19 -0.3,1.78 -2,3.72 -3.5,4.59 -1.7,0.96 -4.1,1.37 -5.9,0.77 -4.4,-1.4 -6.1,-5.18 -5.4,-9.44"
       style="fill:#aa6f48;fill-opacity:1;fill-rule:nonzero;stroke:none"
       transform="matrix(0.03527778,0,0,-0.03527778,-1031.6703,392.99266)"
       clip-path="url(#clipPath2337)" />
    <path
       id="path2338"
       d="m 32422.6,6425.25 c 0.7,-1.17 1.4,-2.35 2,-3.57 l 0.9,-1.71 0.4,-1 c 0.3,-0.77 0.3,-0.66 -0.1,0.33 0.2,-1.18 0.9,-2.44 1.3,-3.58 0.4,-1.21 0.8,-2.43 1.1,-3.66 0.3,-1.23 0.6,-2.48 0.8,-3.73 l 0.4,-2.15 c 0.3,-1.59 -0.1,1.61 0,-0.12 0.2,-2.74 0.4,-5.44 0.3,-8.18 -0.1,-4.01 3.6,-7.85 7.7,-7.67 4.3,0.19 7.5,3.37 7.7,7.67 0.4,12.26 -2.9,24.62 -9.2,35.12 -2.1,3.44 -7,5.02 -10.5,2.75 -3.5,-2.23 -5,-6.82 -2.8,-10.5"
       style="fill:#aa6f48;fill-opacity:1;fill-rule:nonzero;stroke:none"
       transform="matrix(0.03527778,0,0,-0.03527778,-1031.6703,392.99266)"
       clip-path="url(#clipPath2339)" />
    <path
       id="path2340"
       d="m 31951.6,6452.74 c 0,-13.06 0,-26.12 0,-39.18 0,-4.02 3.5,-7.86 7.6,-7.67 4.2,0.18 7.7,3.37 7.7,7.67 0,13.06 0,26.12 0,39.18 0,4.02 -3.5,7.86 -7.7,7.67 -4.1,-0.18 -7.6,-3.37 -7.6,-7.67"
       style="fill:#aa6f48;fill-opacity:1;fill-rule:nonzero;stroke:none"
       transform="matrix(0.03527778,0,0,-0.03527778,-1031.6703,392.99266)"
       clip-path="url(#clipPath2341)" />
    <path
       id="path2342"
       d="m 32017.9,6454.53 c 2.4,-14.4 4.9,-28.79 7.3,-43.19 0.7,-3.97 5.8,-6.54 9.5,-5.36 4.2,1.39 6,5.19 5.3,9.44 -2.4,14.4 -4.9,28.79 -7.3,43.19 -0.7,3.96 -5.8,6.54 -9.5,5.36 -4.2,-1.39 -6,-5.19 -5.3,-9.44"
       style="fill:#aa6f48;fill-opacity:1;fill-rule:nonzero;stroke:none"
       transform="matrix(0.03527778,0,0,-0.03527778,-1031.6703,392.99266)"
       clip-path="url(#clipPath2343)" />
    <path
       id="path2344"
       d="m 32085,6525.14 c 1,-3.04 1.8,-6.12 2.4,-9.23 0.4,-1.68 0.6,-3.37 0.9,-5.06 0.4,-2.38 -0.1,1.53 0.1,-0.87 l 0.3,-2.55 c 0.6,-6.46 0.6,-12.96 -0.1,-19.41 -0.4,-4.01 3.8,-7.85 7.7,-7.68 4.5,0.2 7.2,3.38 7.6,7.68 1.5,13.79 0,27.95 -4.1,41.2 -1.2,3.83 -5.4,6.66 -9.4,5.36 -3.9,-1.25 -6.7,-5.34 -5.4,-9.44"
       style="fill:#aa6f48;fill-opacity:1;fill-rule:nonzero;stroke:none"
       transform="matrix(0.03527778,0,0,-0.03527778,-1031.6703,392.99266)"
       clip-path="url(#clipPath2345)" />
    <path
       id="path2346"
       d="m 32154.6,7443.96 c 1,-24.81 3,-51.3 20.7,-70.45 14.7,-15.83 38.5,-21.39 56.6,-8.03 8.4,6.14 14.3,15.66 14.1,26.26 -0.2,11.64 -8.5,21.41 -20.5,21.25 -11.4,-0.15 -20.7,-8.82 -23.1,-19.72 -2.3,-10.51 0.2,-21.96 6.2,-30.84 12.3,-18.19 37.3,-27.85 58.1,-19.36 3.8,1.56 6.6,5.11 5.4,9.44 -1,3.63 -5.6,6.94 -9.5,5.36 -11.6,-4.76 -24.9,-2.37 -34.6,5.68 -4.8,4.01 -8.6,9.25 -10.2,15.34 -1.6,5.62 -1.8,14.53 4.2,17.76 6.1,3.29 9.4,-1.85 8.4,-7.71 -1,-6.09 -5.9,-10.78 -11.3,-13.39 -12.9,-6.31 -26.5,0.7 -34.9,11.08 -12.8,15.89 -13.5,37.88 -14.3,57.33 -0.4,9.84 -15.8,9.9 -15.3,0"
       style="fill:#241e21;fill-opacity:1;fill-rule:nonzero;stroke:none"
       transform="matrix(0.03527778,0,0,-0.03527778,-1031.6703,392.99266)"
       clip-path="url(#clipPath2347)" />
  </g>
</svg>
