<?xml version="1.0" encoding="UTF-8" standalone="no"?>
<!-- Created with Inkscape (http://www.inkscape.org/) -->

<svg
   width="64.332558mm"
   height="64.331856mm"
   viewBox="0 0 64.332558 64.331856"
   version="1.1"
   id="svg1"
   inkscape:version="1.3.2 (091e20e, 2023-11-25)"
   sodipodi:docname="theguy-avatar.svg"
   xmlns:inkscape="http://www.inkscape.org/namespaces/inkscape"
   xmlns:sodipodi="http://sodipodi.sourceforge.net/DTD/sodipodi-0.dtd"
   xmlns="http://www.w3.org/2000/svg"
   xmlns:svg="http://www.w3.org/2000/svg">
  <sodipodi:namedview
     id="namedview1"
     pagecolor="#ffffff"
     bordercolor="#000000"
     borderopacity="0.25"
     inkscape:showpageshadow="2"
     inkscape:pageopacity="0.0"
     inkscape:pagecheckerboard="0"
     inkscape:deskcolor="#d1d1d1"
     inkscape:document-units="mm"
     inkscape:zoom="0.2102413"
     inkscape:cx="130.80208"
     inkscape:cy="140.31496"
     inkscape:window-width="1920"
     inkscape:window-height="1052"
     inkscape:window-x="0"
     inkscape:window-y="28"
     inkscape:window-maximized="0"
     inkscape:current-layer="layer1" />
  <defs
     id="defs1">
    <clipPath
       clipPathUnits="userSpaceOnUse"
       id="clipPath537">
      <path
         d="m 24475.1,7228.16 c 0,-503.58 -408.2,-911.79 -911.8,-911.79 -503.6,0 -911.8,408.21 -911.8,911.79 0,503.56 408.2,911.79 911.8,911.79 503.6,0 911.8,-408.23 911.8,-911.79"
         transform="translate(0,-2.5e-4)"
         id="path537" />
    </clipPath>
    <clipPath
       clipPathUnits="userSpaceOnUse"
       id="clipPath539">
      <path
         d="m 24475.1,7228.16 c 0,-503.58 -408.2,-911.79 -911.8,-911.79 -503.6,0 -911.8,408.21 -911.8,911.79 0,503.56 408.2,911.79 911.8,911.79 503.6,0 911.8,-408.23 911.8,-911.79"
         transform="translate(0,-2.5e-4)"
         id="path539" />
    </clipPath>
    <clipPath
       clipPathUnits="userSpaceOnUse"
       id="clipPath541">
      <path
         d="m 24475.1,7228.16 c 0,-503.58 -408.2,-911.79 -911.8,-911.79 -503.6,0 -911.8,408.21 -911.8,911.79 0,503.56 408.2,911.79 911.8,911.79 503.6,0 911.8,-408.23 911.8,-911.79"
         transform="translate(0,-2.5e-4)"
         id="path541" />
    </clipPath>
    <clipPath
       clipPathUnits="userSpaceOnUse"
       id="clipPath543">
      <path
         d="m 24475.1,7228.16 c 0,-503.58 -408.2,-911.79 -911.8,-911.79 -503.6,0 -911.8,408.21 -911.8,911.79 0,503.56 408.2,911.79 911.8,911.79 503.6,0 911.8,-408.23 911.8,-911.79"
         transform="translate(0,-2.5e-4)"
         id="path543" />
    </clipPath>
    <clipPath
       clipPathUnits="userSpaceOnUse"
       id="clipPath544">
      <path
         d="m 24089.5,6592.84 c -93.8,62.83 -207.2,87.99 -317.9,110.23 -6.7,1.35 -13.7,2.83 -19.2,7.07 -9.3,7.26 11.8,251.75 0,358.66 l -158,-14.8 -158,14.8 c -11.8,-106.91 9.3,-351.4 0,-358.66 -5.4,-4.24 -12.4,-5.72 -19.2,-7.07 -110.7,-22.24 -224.1,-47.4 -317.9,-110.23 -93.8,-62.81 -164.9,-172.39 -149.8,-284.29 94.2,0.48 357.2,-1.22 623.5,-4.72 v -0.59 c 7.2,0.1 14.3,0.2 21.4,0.3 7.2,-0.1 14.3,-0.2 21.4,-0.3 v 0.59 c 266.4,3.5 529.3,5.2 623.5,4.72 15.1,111.9 -56,221.48 -149.8,284.29"
         transform="translate(0,-2.5e-4)"
         id="path544" />
    </clipPath>
    <clipPath
       clipPathUnits="userSpaceOnUse"
       id="clipPath547">
      <path
         d="m 24475.1,7228.16 c 0,-503.58 -408.2,-911.79 -911.8,-911.79 -503.6,0 -911.8,408.21 -911.8,911.79 0,503.56 408.2,911.79 911.8,911.79 503.6,0 911.8,-408.23 911.8,-911.79"
         transform="translate(0,-2.5e-4)"
         id="path547" />
    </clipPath>
    <clipPath
       clipPathUnits="userSpaceOnUse"
       id="clipPath549">
      <path
         d="m 24475.1,7228.16 c 0,-503.58 -408.2,-911.79 -911.8,-911.79 -503.6,0 -911.8,408.21 -911.8,911.79 0,503.56 408.2,911.79 911.8,911.79 503.6,0 911.8,-408.23 911.8,-911.79"
         transform="translate(0,-2.5e-4)"
         id="path549" />
    </clipPath>
    <clipPath
       clipPathUnits="userSpaceOnUse"
       id="clipPath551">
      <path
         d="m 24475.1,7228.16 c 0,-503.58 -408.2,-911.79 -911.8,-911.79 -503.6,0 -911.8,408.21 -911.8,911.79 0,503.56 408.2,911.79 911.8,911.79 503.6,0 911.8,-408.23 911.8,-911.79"
         transform="translate(0,-2.5e-4)"
         id="path551" />
    </clipPath>
    <clipPath
       clipPathUnits="userSpaceOnUse"
       id="clipPath553">
      <path
         d="m 24475.1,7228.16 c 0,-503.58 -408.2,-911.79 -911.8,-911.79 -503.6,0 -911.8,408.21 -911.8,911.79 0,503.56 408.2,911.79 911.8,911.79 503.6,0 911.8,-408.23 911.8,-911.79"
         transform="translate(0,-2.5e-4)"
         id="path553" />
    </clipPath>
    <clipPath
       clipPathUnits="userSpaceOnUse"
       id="clipPath555">
      <path
         d="m 24475.1,7228.16 c 0,-503.58 -408.2,-911.79 -911.8,-911.79 -503.6,0 -911.8,408.21 -911.8,911.79 0,503.56 408.2,911.79 911.8,911.79 503.6,0 911.8,-408.23 911.8,-911.79"
         transform="translate(0,-2.5e-4)"
         id="path555" />
    </clipPath>
    <clipPath
       clipPathUnits="userSpaceOnUse"
       id="clipPath557">
      <path
         d="m 24475.1,7228.16 c 0,-503.58 -408.2,-911.79 -911.8,-911.79 -503.6,0 -911.8,408.21 -911.8,911.79 0,503.56 408.2,911.79 911.8,911.79 503.6,0 911.8,-408.23 911.8,-911.79"
         transform="translate(0,-2.5e-4)"
         id="path557" />
    </clipPath>
    <clipPath
       clipPathUnits="userSpaceOnUse"
       id="clipPath559">
      <path
         d="m 24475.1,7228.16 c 0,-503.58 -408.2,-911.79 -911.8,-911.79 -503.6,0 -911.8,408.21 -911.8,911.79 0,503.56 408.2,911.79 911.8,911.79 503.6,0 911.8,-408.23 911.8,-911.79"
         transform="translate(0,-2.5e-4)"
         id="path559" />
    </clipPath>
    <clipPath
       clipPathUnits="userSpaceOnUse"
       id="clipPath561">
      <path
         d="m 24475.1,7228.16 c 0,-503.58 -408.2,-911.79 -911.8,-911.79 -503.6,0 -911.8,408.21 -911.8,911.79 0,503.56 408.2,911.79 911.8,911.79 503.6,0 911.8,-408.23 911.8,-911.79"
         transform="translate(0,-2.5e-4)"
         id="path561" />
    </clipPath>
    <clipPath
       clipPathUnits="userSpaceOnUse"
       id="clipPath563">
      <path
         d="m 24475.1,7228.16 c 0,-503.58 -408.2,-911.79 -911.8,-911.79 -503.6,0 -911.8,408.21 -911.8,911.79 0,503.56 408.2,911.79 911.8,911.79 503.6,0 911.8,-408.23 911.8,-911.79"
         transform="translate(0,-2.5e-4)"
         id="path563" />
    </clipPath>
    <clipPath
       clipPathUnits="userSpaceOnUse"
       id="clipPath565">
      <path
         d="m 24475.1,7228.16 c 0,-503.58 -408.2,-911.79 -911.8,-911.79 -503.6,0 -911.8,408.21 -911.8,911.79 0,503.56 408.2,911.79 911.8,911.79 503.6,0 911.8,-408.23 911.8,-911.79"
         transform="translate(0,-2.5e-4)"
         id="path565" />
    </clipPath>
    <clipPath
       clipPathUnits="userSpaceOnUse"
       id="clipPath567">
      <path
         d="m 24475.1,7228.16 c 0,-503.58 -408.2,-911.79 -911.8,-911.79 -503.6,0 -911.8,408.21 -911.8,911.79 0,503.56 408.2,911.79 911.8,911.79 503.6,0 911.8,-408.23 911.8,-911.79"
         transform="translate(0,-2.5e-4)"
         id="path567" />
    </clipPath>
    <clipPath
       clipPathUnits="userSpaceOnUse"
       id="clipPath569">
      <path
         d="m 24475.1,7228.16 c 0,-503.58 -408.2,-911.79 -911.8,-911.79 -503.6,0 -911.8,408.21 -911.8,911.79 0,503.56 408.2,911.79 911.8,911.79 503.6,0 911.8,-408.23 911.8,-911.79"
         transform="translate(0,-2.5e-4)"
         id="path569" />
    </clipPath>
    <clipPath
       clipPathUnits="userSpaceOnUse"
       id="clipPath571">
      <path
         d="m 24475.1,7228.16 c 0,-503.58 -408.2,-911.79 -911.8,-911.79 -503.6,0 -911.8,408.21 -911.8,911.79 0,503.56 408.2,911.79 911.8,911.79 503.6,0 911.8,-408.23 911.8,-911.79"
         transform="translate(0,-2.5e-4)"
         id="path571" />
    </clipPath>
    <clipPath
       clipPathUnits="userSpaceOnUse"
       id="clipPath573">
      <path
         d="m 24475.1,7228.16 c 0,-503.58 -408.2,-911.79 -911.8,-911.79 -503.6,0 -911.8,408.21 -911.8,911.79 0,503.56 408.2,911.79 911.8,911.79 503.6,0 911.8,-408.23 911.8,-911.79"
         transform="translate(0,-2.5e-4)"
         id="path573" />
    </clipPath>
    <clipPath
       clipPathUnits="userSpaceOnUse"
       id="clipPath575">
      <path
         d="m 24475.1,7228.16 c 0,-503.58 -408.2,-911.79 -911.8,-911.79 -503.6,0 -911.8,408.21 -911.8,911.79 0,503.56 408.2,911.79 911.8,911.79 503.6,0 911.8,-408.23 911.8,-911.79"
         transform="translate(0,-2.5e-4)"
         id="path575" />
    </clipPath>
    <clipPath
       clipPathUnits="userSpaceOnUse"
       id="clipPath577">
      <path
         d="m 24475.1,7228.16 c 0,-503.58 -408.2,-911.79 -911.8,-911.79 -503.6,0 -911.8,408.21 -911.8,911.79 0,503.56 408.2,911.79 911.8,911.79 503.6,0 911.8,-408.23 911.8,-911.79"
         transform="translate(0,-2.5e-4)"
         id="path577" />
    </clipPath>
    <clipPath
       clipPathUnits="userSpaceOnUse"
       id="clipPath579">
      <path
         d="m 24475.1,7228.16 c 0,-503.58 -408.2,-911.79 -911.8,-911.79 -503.6,0 -911.8,408.21 -911.8,911.79 0,503.56 408.2,911.79 911.8,911.79 503.6,0 911.8,-408.23 911.8,-911.79"
         transform="translate(0,-2.5e-4)"
         id="path579" />
    </clipPath>
    <clipPath
       clipPathUnits="userSpaceOnUse"
       id="clipPath581">
      <path
         d="m 24475.1,7228.16 c 0,-503.58 -408.2,-911.79 -911.8,-911.79 -503.6,0 -911.8,408.21 -911.8,911.79 0,503.56 408.2,911.79 911.8,911.79 503.6,0 911.8,-408.23 911.8,-911.79"
         transform="translate(0,-2.5e-4)"
         id="path581" />
    </clipPath>
    <clipPath
       clipPathUnits="userSpaceOnUse"
       id="clipPath583">
      <path
         d="m 24475.1,7228.16 c 0,-503.58 -408.2,-911.79 -911.8,-911.79 -503.6,0 -911.8,408.21 -911.8,911.79 0,503.56 408.2,911.79 911.8,911.79 503.6,0 911.8,-408.23 911.8,-911.79"
         transform="translate(0,-2.5e-4)"
         id="path583" />
    </clipPath>
    <clipPath
       clipPathUnits="userSpaceOnUse"
       id="clipPath585">
      <path
         d="m 24475.1,7228.16 c 0,-503.58 -408.2,-911.79 -911.8,-911.79 -503.6,0 -911.8,408.21 -911.8,911.79 0,503.56 408.2,911.79 911.8,911.79 503.6,0 911.8,-408.23 911.8,-911.79"
         transform="translate(0,-2.5e-4)"
         id="path585" />
    </clipPath>
    <clipPath
       clipPathUnits="userSpaceOnUse"
       id="clipPath587">
      <path
         d="m 24475.1,7228.16 c 0,-503.58 -408.2,-911.79 -911.8,-911.79 -503.6,0 -911.8,408.21 -911.8,911.79 0,503.56 408.2,911.79 911.8,911.79 503.6,0 911.8,-408.23 911.8,-911.79"
         transform="translate(0,-2.5e-4)"
         id="path587" />
    </clipPath>
    <clipPath
       clipPathUnits="userSpaceOnUse"
       id="clipPath589">
      <path
         d="m 24475.1,7228.16 c 0,-503.58 -408.2,-911.79 -911.8,-911.79 -503.6,0 -911.8,408.21 -911.8,911.79 0,503.56 408.2,911.79 911.8,911.79 503.6,0 911.8,-408.23 911.8,-911.79"
         transform="translate(0,-2.5e-4)"
         id="path589" />
    </clipPath>
    <clipPath
       clipPathUnits="userSpaceOnUse"
       id="clipPath591">
      <path
         d="m 24475.1,7228.16 c 0,-503.58 -408.2,-911.79 -911.8,-911.79 -503.6,0 -911.8,408.21 -911.8,911.79 0,503.56 408.2,911.79 911.8,911.79 503.6,0 911.8,-408.23 911.8,-911.79"
         transform="translate(0,-2.5e-4)"
         id="path591" />
    </clipPath>
  </defs>
  <g
     inkscape:label="Layer 1"
     inkscape:groupmode="layer"
     id="layer1"
     transform="translate(-70.407384,-110.98504)">
    <path
       id="path536"
       d="m 24475.1,6316.36 h -1823.6 v 1823.59 h 1823.6 V 6316.36"
       style="fill:#a59eff;fill-opacity:1;fill-rule:nonzero;stroke:none"
       transform="matrix(0.03527778,0,0,-0.03527778,-728.68725,398.1444)"
       clip-path="url(#clipPath537)" />
    <path
       id="path538"
       d="m 23712.1,6910.09 c 42.8,15.06 75.3,51.73 94.7,92.75 19.4,41.01 27.3,86.43 33.6,131.36 -40,1.19 -80,2.37 -120,3.55 l -8.3,-227.66"
       style="fill:#724328;fill-opacity:1;fill-rule:nonzero;stroke:none"
       transform="matrix(0.03527778,0,0,-0.03527778,-728.68725,398.1444)"
       clip-path="url(#clipPath539)" />
    <path
       id="path540"
       d="m 23273.3,7277.87 c -28.3,-101.97 54.6,-253.13 82.2,-287.24 27.6,-34.1 65.5,-60.96 108.4,-70.14 -7.3,52.21 -7.8,105.36 -1.4,157.68 l -189.2,199.7"
       style="fill:#724328;fill-opacity:1;fill-rule:nonzero;stroke:none"
       transform="matrix(0.03527778,0,0,-0.03527778,-728.68725,398.1444)"
       clip-path="url(#clipPath541)" />
    <path
       id="path542"
       d="m 24089.5,6592.85 c -93.8,62.82 -207.2,87.98 -317.9,110.22 -6.7,1.35 -13.7,2.83 -19.2,7.07 -9.3,7.25 11.8,251.76 0,358.66 l -158,-14.8 -158,14.8 c -11.8,-106.9 9.3,-351.41 0,-358.66 -5.4,-4.24 -12.4,-5.72 -19.2,-7.07 -110.7,-22.24 -224.1,-47.4 -317.9,-110.22 -93.8,-62.83 -164.8,-172.4 -149.8,-284.3 94.2,0.48 357.2,-1.22 623.5,-4.72 v -0.58 c 7.2,0.1 14.3,0.2 21.4,0.29 7.2,-0.09 14.3,-0.19 21.4,-0.29 v 0.58 c 266.4,3.5 529.3,5.2 623.5,4.72 15.1,111.9 -56,221.47 -149.8,284.3"
       style="fill:#fbd1b9;fill-opacity:1;fill-rule:nonzero;stroke:none"
       transform="matrix(0.03527778,0,0,-0.03527778,-728.68725,398.1444)"
       clip-path="url(#clipPath543)" />
    <g
       id="g545"
       transform="matrix(0.26458333,0,0,0.26458333,-728.68725,39.630473)">
      <path
         d="m 23226.1,7072.24 c 62.3,40.14 65,59.39 68,40.14 14.7,-94.62 164.3,-322.56 300.2,-322.56 176,0 278.1,297.06 294.6,371.92 -203.4,-29.06 -409.4,-58.18 -613.4,-33.71 5.6,-5.29 11.2,-10.58 16.8,-15.86 l -66.2,-39.93"
         style="fill:#dba78a;fill-opacity:1;fill-rule:nonzero;stroke:none"
         transform="matrix(0.13333333,0,0,-0.13333333,0,1355.0133)"
         clip-path="url(#clipPath544)"
         id="path545" />
    </g>
    <path
       id="path546"
       d="m 23360,7128.23 0.4,-2.01 c 14.9,-67.09 38.6,-134.08 83.2,-186.3 44.7,-52.21 113.4,-87.52 181.5,-78.26 65.8,8.95 121.1,57.86 153.2,116.03 32.1,58.17 44.5,125 53.4,190.84 7.6,55.55 6.6,182.47 3.6,298.56 -3.4,131.14 -109.8,236.14 -240.9,237.88 -134.9,1.78 -245.4,-106.06 -247.5,-240.91 -2,-129.1 -0.5,-273.5 13.1,-335.83"
       style="fill:#fbd1b9;fill-opacity:1;fill-rule:nonzero;stroke:none"
       transform="matrix(0.03527778,0,0,-0.03527778,-728.68725,398.1444)"
       clip-path="url(#clipPath547)" />
    <path
       id="path548"
       d="m 23826.1,7216.02 c 3.5,25.25 33.9,41.03 58.2,33.63 24.4,-7.41 40.5,-32.73 42.4,-58.15 1.8,-25.42 -8.5,-50.44 -23.1,-71.34 -24.3,-34.86 -67.1,-61.92 -108.2,-51.14 6.5,52.28 15.9,104.2 28,155.46 l 2.7,-8.46"
       style="fill:#fbd1b9;fill-opacity:1;fill-rule:nonzero;stroke:none"
       transform="matrix(0.03527778,0,0,-0.03527778,-728.68725,398.1444)"
       clip-path="url(#clipPath549)" />
    <path
       id="path550"
       d="m 23363.7,7216.02 c -3.4,25.25 -33.8,41.03 -58.2,33.63 -24.4,-7.41 -40.5,-32.73 -42.3,-58.15 -1.8,-25.42 8.5,-50.44 23.1,-71.34 24.3,-34.86 67,-61.92 108.2,-51.14 -6.6,52.28 -15.9,104.2 -28.1,155.46 l -2.7,-8.46"
       style="fill:#fbd1b9;fill-opacity:1;fill-rule:nonzero;stroke:none"
       transform="matrix(0.03527778,0,0,-0.03527778,-728.68725,398.1444)"
       clip-path="url(#clipPath551)" />
    <path
       id="path552"
       d="m 23698,7230.59 c 0,-14.56 13.4,-26.37 30,-26.37 16.6,0 30,11.81 30,26.37 0,14.56 -13.4,26.36 -30,26.36 -16.6,0 -30,-11.8 -30,-26.36"
       style="fill:#1a1a1a;fill-opacity:1;fill-rule:nonzero;stroke:none"
       transform="matrix(0.03527778,0,0,-0.03527778,-728.68725,398.1444)"
       clip-path="url(#clipPath553)" />
    <path
       id="path554"
       d="m 23449.9,7234.51 c 0,-14.56 13.5,-26.36 30.1,-26.36 16.5,0 30,11.8 30,26.36 0,14.56 -13.5,26.36 -30,26.36 -16.6,0 -30.1,-11.8 -30.1,-26.36"
       style="fill:#1a1a1a;fill-opacity:1;fill-rule:nonzero;stroke:none"
       transform="matrix(0.03527778,0,0,-0.03527778,-728.68725,398.1444)"
       clip-path="url(#clipPath555)" />
    <path
       id="path556"
       d="m 23760.8,7283.88 c -0.7,1.42 -1.4,2.81 -2.2,4.16 l -1.4,2.14 c -1.4,2.32 0.2,-0.43 0.9,-1.07 -1.1,1.03 -2,2.38 -3.1,3.46 -1.1,1.09 -2.4,2 -3.4,3.12 2.9,-3.11 2.1,-1.59 0.7,-0.61 l -1.8,1.18 c -1.3,0.84 -2.6,1.61 -4,2.33 l -2,0.93 c -1.5,0.82 4.4,-1.62 0.9,-0.39 -1.4,0.53 -2.9,1.05 -4.4,1.48 -1.4,0.39 -2.8,0.72 -4.2,0.99 l -2.5,0.43 c 5.2,-1.09 2.5,-0.34 1.1,-0.24 -2.6,0.2 -6.9,0.83 -9.3,-0.17 0.6,0.27 4.5,0.77 1.6,0.16 l -2.1,-0.43 c -1.5,-0.35 -3,-0.78 -4.5,-1.29 l -1.9,-0.74 c 4.8,1.5 2.2,0.95 0.9,0.3 -1.5,-0.77 -3,-1.66 -4.4,-2.61 -7.4,-4.94 -19.1,-1.68 -23.2,6.1 -4.6,8.55 -1.8,17.97 6.1,23.25 29.7,19.86 76.4,7.36 91.5,-25.33 2,-4.25 3,-8.42 1.7,-13.09 -1,-3.95 -4.1,-8.22 -7.8,-10.16 -7.5,-3.96 -19.2,-2.52 -23.2,6.1"
       style="fill:#724328;fill-opacity:1;fill-rule:nonzero;stroke:none"
       transform="matrix(0.03527778,0,0,-0.03527778,-728.68725,398.1444)"
       clip-path="url(#clipPath557)" />
    <path
       id="path558"
       d="m 23508.1,7306.78 c -1.2,0.95 -2.5,1.85 -3.8,2.67 l -2.2,1.25 c -2.4,1.37 0.3,-0.29 1.2,-0.53 -1.4,0.39 -2.8,1.16 -4.3,1.62 -1.5,0.45 -3.1,0.65 -4.5,1.15 4,-1.4 2.6,-0.42 0.9,-0.2 l -2.1,0.22 c -1.5,0.13 -3.1,0.19 -4.7,0.17 l -2.1,-0.07 c -1.8,0 4.6,0.58 1,0.08 -1.6,-0.22 -3.1,-0.45 -4.7,-0.77 -1.4,-0.3 -2.7,-0.66 -4.1,-1.07 l -2.4,-0.8 c 5.1,1.48 2.4,0.89 1.1,0.32 -2.4,-1.03 -6.5,-2.48 -8.2,-4.51 0.4,0.56 3.6,2.78 1.3,0.89 l -1.6,-1.34 c -1.2,-1.02 -2.3,-2.09 -3.4,-3.22 l -1.4,-1.59 c 3.6,3.58 1.6,1.9 0.7,0.73 -0.9,-1.4 -1.8,-2.86 -2.6,-4.36 -4.3,-7.83 -16.2,-10.41 -23.5,-5.44 -7.9,5.47 -9.9,15.06 -5.4,23.42 17.1,31.42 64.2,42.11 92.8,20.23 3.7,-2.85 6.6,-6.06 7.6,-10.79 0.9,-4 0.2,-9.2 -2.1,-12.63 -4.8,-6.99 -15.9,-11.2 -23.5,-5.43"
       style="fill:#724328;fill-opacity:1;fill-rule:nonzero;stroke:none"
       transform="matrix(0.03527778,0,0,-0.03527778,-728.68725,398.1444)"
       clip-path="url(#clipPath559)" />
    <path
       id="path560"
       d="m 23835,7145.81 c 18.3,21.34 39.3,40.14 62.8,55.69 3.8,2.54 5.4,7.51 3,11.63 -2.2,3.79 -7.8,5.6 -11.6,3.05 -24.6,-16.34 -47,-35.93 -66.2,-58.35 -3,-3.48 -3.4,-8.6 0,-12.02 3,-3.05 9,-3.49 12,0"
       style="fill:#a46e4a;fill-opacity:1;fill-rule:nonzero;stroke:none"
       transform="matrix(0.03527778,0,0,-0.03527778,-728.68725,398.1444)"
       clip-path="url(#clipPath561)" />
    <path
       id="path562"
       d="m 23856,7171.98 c 2.5,-8.8 5,-17.6 7.5,-26.4 0.3,2.18 0.6,4.36 0.9,6.54 -1,-1.63 -2,-3.17 -3.1,-4.72 v 0.05 l -0.9,-1.08 -2.2,-2.33 -2,-1.94 -1.1,-0.92 -0.5,-0.44 -0.5,-0.39 -1.2,-0.81 c -0.9,-0.59 -1.8,-1.14 -2.7,-1.67 -3.8,-2.25 -5.5,-7.77 -3,-11.63 2.5,-3.87 7.5,-5.45 11.6,-3.05 8,4.7 15.3,11.58 19.9,19.75 1.3,2.29 1.7,4.55 1.2,7.15 -0.3,1.25 -0.7,2.49 -1.1,3.72 -0.7,2.47 -1.4,4.95 -2.1,7.42 -1.4,5.09 -2.8,10.18 -4.3,15.27 -1.2,4.27 -6,7.35 -10.4,5.93 -4.4,-1.41 -7.3,-5.87 -6,-10.45"
       style="fill:#a46e4a;fill-opacity:1;fill-rule:nonzero;stroke:none"
       transform="matrix(0.03527778,0,0,-0.03527778,-728.68725,398.1444)"
       clip-path="url(#clipPath563)" />
    <path
       id="path564"
       d="m 23306.8,7199.31 c -0.1,0.01 2.4,-1.01 1.2,-0.47 l 2.4,-1.09 c 1.3,-0.63 2.6,-1.3 3.8,-2 2.8,-1.55 5.6,-3.27 8.2,-5.14 1.8,-1.29 4,-3.12 6.4,-5.33 2.4,-2.29 4.7,-4.73 6.9,-7.29 3.2,-3.87 6.9,-9.5 9.7,-15.08 1.5,-3.19 1.9,-4.09 3.1,-7.66 1.1,-3.18 1.9,-6.42 2.6,-9.71 0.9,-4.5 6.3,-7.09 10.5,-5.94 4.6,1.29 6.8,5.95 5.9,10.46 -6.1,29.85 -28.1,54.65 -56.2,65.64 -4.3,1.67 -9.4,-1.83 -10.5,-5.93 -1.3,-4.82 1.7,-8.78 6,-10.46"
       style="fill:#a46e4a;fill-opacity:1;fill-rule:nonzero;stroke:none"
       transform="matrix(0.03527778,0,0,-0.03527778,-728.68725,398.1444)"
       clip-path="url(#clipPath565)" />
    <path
       id="path566"
       d="m 23322.7,7184.9 c -8,-10.04 -12.1,-22.6 -10.9,-35.48 1.2,-12.67 6.4,-24.99 16.1,-33.49 3.4,-3.02 8.6,-3.4 12,0 3.1,3.08 3.5,8.98 0,12.02 -1,0.83 -1.9,1.69 -2.8,2.61 l -1,1.13 -0.7,0.89 -0.7,0.97 -1,1.59 c -0.6,0.96 -1.2,1.95 -1.7,2.97 l -0.8,1.7 c -0.4,0.88 0.4,-1.08 -0.1,0.43 -0.4,1.2 -0.8,2.38 -1.2,3.6 -0.3,1.1 -0.5,2.21 -0.8,3.33 l -0.3,1.87 c 0.2,-1.24 0.1,-0.36 0,0.38 -0.2,2.4 -0.2,4.81 -0.1,7.21 l 0.2,1.51 c 0.2,2.3 -0.3,-0.89 0,0.37 0.4,1.21 0.5,2.49 0.8,3.7 0.3,1.09 0.6,2.18 1,3.25 0,-0.04 0.8,2.06 0.4,1.09 -0.4,-1 0.4,0.86 0.5,1.05 0.6,1.13 1.2,2.23 1.8,3.3 l 0.9,1.27 c 0,0.12 1.5,2.08 0.4,0.72 2.9,3.59 3.5,8.51 0,12.01 -2.9,2.96 -9.1,3.62 -12,0"
       style="fill:#a46e4a;fill-opacity:1;fill-rule:nonzero;stroke:none"
       transform="matrix(0.03527778,0,0,-0.03527778,-728.68725,398.1444)"
       clip-path="url(#clipPath567)" />
    <path
       id="path568"
       d="m 23622.1,7208.44 c 4.4,-10.62 8.8,-21.23 13.2,-31.85 4.3,-10.32 8.9,-20.65 11.4,-31.59 2.1,-9.49 2.1,-19.49 -3.1,-27.97 -3.8,-6.12 -10.8,-12.06 -18.5,-10.93 -4.2,0.61 -8.3,-1.03 -9.5,-5.37 -1,-3.61 1.3,-8.85 5.4,-9.46 24.3,-3.58 42,18.7 42.4,41.55 0.2,13.58 -4.5,26.62 -9.6,39 -5.6,13.59 -11.3,27.14 -16.9,40.7 -1.6,3.87 -5.1,6.53 -9.4,5.37 -3.7,-0.95 -7,-5.62 -5.4,-9.45"
       style="fill:#a46e4a;fill-opacity:1;fill-rule:nonzero;stroke:none"
       transform="matrix(0.03527778,0,0,-0.03527778,-728.68725,398.1444)"
       clip-path="url(#clipPath569)" />
    <path
       id="path570"
       d="m 23614.3,6979.88 c 14.3,6.02 49.9,61.89 51.9,78.82 -42.5,2.77 -85.2,1.82 -127.5,-2.84 0,0 48.4,-87.46 75.6,-75.98"
       style="fill:#ffffff;fill-opacity:1;fill-rule:nonzero;stroke:none"
       transform="matrix(0.03527778,0,0,-0.03527778,-728.68725,398.1444)"
       clip-path="url(#clipPath571)" />
    <path
       id="path572"
       d="m 23618.2,6973.24 c 5.9,2.72 10.8,8.32 15,13.19 6.5,7.62 12.4,15.85 17.9,24.24 5.4,8.24 10.4,16.73 14.8,25.54 3.2,6.36 6.7,13.32 7.7,20.45 0.7,5.12 -1.9,9.39 -7.4,9.73 -42.5,2.7 -85.1,1.75 -127.5,-2.84 -5.7,-0.62 -9.7,-6.07 -6.6,-11.57 8.7,-15.74 18.7,-30.92 29.8,-45.14 11,-14.33 32.8,-42.79 54.5,-34.38 9.1,3.54 5.1,18.42 -4.1,14.83 -3.3,-1.28 -4.1,-1.2 -8,0.32 -2.9,1.12 -7.1,4.03 -10,6.48 -8.9,7.45 -16.4,16.66 -23.3,25.96 -9.4,12.63 -18,25.94 -25.6,39.69 -2.3,-3.85 -4.5,-7.71 -6.7,-11.56 42.4,4.58 85,5.53 127.5,2.84 -2.5,3.24 -4.9,6.48 -7.4,9.73 -2,-14.51 -12.4,-29.05 -20.2,-41.02 -4.7,-7.41 -9.8,-14.7 -15.5,-21.45 -3.8,-4.54 -7.9,-9.57 -12.7,-11.77 -9,-4.1 -1.2,-17.36 7.8,-13.27"
       style="fill:#a46e4a;fill-opacity:1;fill-rule:nonzero;stroke:none"
       transform="matrix(0.03527778,0,0,-0.03527778,-728.68725,398.1444)"
       clip-path="url(#clipPath573)" />
    <path
       id="path574"
       d="m 23390.3,7488.65 c 132,-14.16 266.4,-28.24 396.8,-3.08 -66.5,30.58 -137.4,51.56 -209.8,62.1 121.6,-30.83 249.3,-37.83 373.6,-20.49 -50.5,39.94 -111.4,66.4 -175,75.95 61.6,4 169.8,11.56 231.4,15.56 -8.9,21.21 -199.9,48.45 -248,58.03 51,12.71 99.3,36.3 140.7,68.74 -12.7,18.51 -189.3,8.32 -252.5,-1.78 32.4,16.89 62.8,37.73 90.2,61.9 -8.5,19.27 -220.3,-21.05 -296.4,-56.71 12.6,13.3 25.2,26.6 37.8,39.9 -83.9,-21.95 -104.5,-69.18 -162.2,-133.95 -15.3,28.34 -43.2,49.57 -74.6,56.79 6.9,-31.34 18.6,-61.63 34.4,-89.58 -31.4,17.08 -72.2,15 -101.7,-5.15 15.7,-30.89 65.1,-29.21 83.4,-58.66 5.3,-8.61 7.2,-18.85 9,-28.82 19.6,-108.56 0.2,-291.19 0.2,-291.19 16.5,13.93 85,45.33 113.3,-50.98 0,0 12.4,205.46 9.4,301.42"
       style="fill:#724328;fill-opacity:1;fill-rule:nonzero;stroke:none"
       transform="matrix(0.03527778,0,0,-0.03527778,-728.68725,398.1444)"
       clip-path="url(#clipPath575)" />
    <path
       id="path576"
       d="m 23798.6,7544.58 c 20.3,-102.76 31.1,-207.38 32.4,-312.12 4.9,15.96 24.5,25.56 40.2,19.71 -13.2,108.63 -39.8,377.2 -52.2,378.88 -33.9,4.55 -67.9,7.6 -102.1,9.13 -0.2,-25.94 12.2,-51.71 32.8,-67.55 l 48.9,-28.05"
       style="fill:#724328;fill-opacity:1;fill-rule:nonzero;stroke:none"
       transform="matrix(0.03527778,0,0,-0.03527778,-728.68725,398.1444)"
       clip-path="url(#clipPath577)" />
    <path
       id="path578"
       d="m 24089.5,6592.85 c -93.8,62.82 -207.2,87.98 -317.9,110.22 -6.7,1.35 -21.7,53.14 -19.6,110.26 h -315.1 c 2,-57.12 -12.9,-108.91 -19.7,-110.26 -110.7,-22.24 -224.1,-47.4 -317.9,-110.22 -93.8,-62.83 -164.8,-172.4 -149.8,-284.3 94.2,0.48 357.2,-1.22 623.5,-4.72 v -0.58 c 7.2,0.1 14.3,0.2 21.4,0.29 7.2,-0.09 14.3,-0.19 21.4,-0.29 v 0.58 c 266.4,3.5 529.3,5.2 623.5,4.72 15.1,111.9 -56,221.47 -149.8,284.3"
       style="fill:#262b44;fill-opacity:1;fill-rule:nonzero;stroke:none"
       transform="matrix(0.03527778,0,0,-0.03527778,-728.68725,398.1444)"
       clip-path="url(#clipPath579)" />
    <path
       id="path580"
       d="m 23496.4,6780.43 c 0,-19.29 0,-38.57 0,-57.86 0,-9.89 15.4,-9.91 15.4,0 0,19.29 0,38.57 0,57.86 0,9.89 -15.4,9.91 -15.4,0"
       style="fill:#8a8297;fill-opacity:1;fill-rule:nonzero;stroke:none"
       transform="matrix(0.03527778,0,0,-0.03527778,-728.68725,398.1444)"
       clip-path="url(#clipPath581)" />
    <path
       id="path582"
       d="m 23554.3,6780.43 c 0,-17.36 0,-34.72 0,-52.07 0,-4.16 3.5,-7.69 7.7,-7.69 4.1,0 7.7,3.52 7.7,7.69 0,17.35 0,34.71 0,52.07 0,4.15 -3.6,7.69 -7.7,7.69 -4.2,0 -7.7,-3.52 -7.7,-7.69"
       style="fill:#8a8297;fill-opacity:1;fill-rule:nonzero;stroke:none"
       transform="matrix(0.03527778,0,0,-0.03527778,-728.68725,398.1444)"
       clip-path="url(#clipPath583)" />
    <path
       id="path584"
       d="m 23623.7,6780.43 c 0,-15.43 0,-30.86 0,-46.29 0,-4.02 3.6,-7.87 7.7,-7.69 4.2,0.19 7.7,3.38 7.7,7.69 0,15.43 0,30.86 0,46.29 0,4.02 -3.5,7.87 -7.7,7.69 -4.2,-0.19 -7.7,-3.38 -7.7,-7.69"
       style="fill:#8a8297;fill-opacity:1;fill-rule:nonzero;stroke:none"
       transform="matrix(0.03527778,0,0,-0.03527778,-728.68725,398.1444)"
       clip-path="url(#clipPath585)" />
    <path
       id="path586"
       d="m 23693.1,6786.21 c 0,-21.21 0,-42.42 0,-63.64 0,-9.89 15.4,-9.91 15.4,0 0,21.22 0,42.43 0,63.64 0,9.9 -15.4,9.91 -15.4,0"
       style="fill:#8a8297;fill-opacity:1;fill-rule:nonzero;stroke:none"
       transform="matrix(0.03527778,0,0,-0.03527778,-728.68725,398.1444)"
       clip-path="url(#clipPath587)" />
    <path
       id="path588"
       d="m 24001.8,6502.9 c 4.3,-48.35 8.6,-96.7 12.8,-145.04 0.9,-9.78 16.3,-9.87 15.4,0 -4.3,48.34 -8.5,96.69 -12.8,145.04 -0.9,9.78 -16.2,9.87 -15.4,0"
       style="fill:#8a8297;fill-opacity:1;fill-rule:nonzero;stroke:none"
       transform="matrix(0.03527778,0,0,-0.03527778,-728.68725,398.1444)"
       clip-path="url(#clipPath589)" />
    <path
       id="path590"
       d="m 23156.7,6521.7 c -18,-60.48 -23.5,-124.43 -15.6,-187.07 1.2,-9.69 16.6,-9.81 15.4,0 -7.7,61.41 -2.7,123.68 15.1,182.98 2.8,9.5 -12,13.56 -14.9,4.09"
       style="fill:#8a8297;fill-opacity:1;fill-rule:nonzero;stroke:none"
       transform="matrix(0.03527778,0,0,-0.03527778,-728.68725,398.1444)"
       clip-path="url(#clipPath591)" />
  </g>
</svg>
