<svg width="663.35" height="663.35" xmlns="http://www.w3.org/2000/svg" stroke-width="5.85309" stroke="#563A82" fill="#563A82" xml:space="preserve" version="1.1">

 <g>
  <title>Layer 1</title>
  <g stroke-width="0.78041" stroke="#CCCCCC" stroke-linejoin="round" stroke-linecap="round" id="SVGRepo_tracerCarrier"/>
  <g stroke="null" id="SVGRepo_iconCarrier">
   <path stroke="null" id="svg_2" fill="#FFFFFF" d="m263.505,423.435c2.198,-2.198 4.848,-3.232 7.564,-3.232l227.62,0c5.948,0 10.861,-4.848 10.861,-10.861l0,-221.672c0,-5.947 -4.849,-10.861 -10.861,-10.861l-325.172,0c-5.947,0 -10.861,4.848 -10.861,10.861l0,221.673c0,5.947 4.848,10.861 10.861,10.861l22.756,0c5.947,0 10.861,4.848 10.861,10.861l0,48.808l56.371,-56.438z"/>
   <path stroke="null" id="svg_3" fill="#F7A154" d="m184.378,198.53l0,11.895l44.412,0c5.947,0 10.861,4.848 10.861,10.861c0,5.947 -4.848,10.861 -10.861,10.861l-44.412,0l0,21.657l11.895,0c5.947,0 10.861,4.848 10.861,10.861c0,5.947 -4.848,10.861 -10.861,10.861l-11.895,0l0,123.022l44.412,0l0,29.285l29.285,-29.285l229.818,0l0,-200.018l-303.515,0z"/>
   <g stroke="null" id="svg_4">
    <path stroke="null" id="svg_5" fill="#FFFFFF" d="m249.412,309.593c0,-9.244 -7.564,-17.325 -17.325,-17.325c-9.244,0 -17.325,7.564 -17.325,17.325c0,9.244 7.564,17.325 17.325,17.325c9.697,-0.517 17.325,-8.081 17.325,-17.325z"/>
    <circle stroke="null" id="svg_6" fill="#FFFFFF" r="17.325" cy="309.593" cx="336.103"/>
    <circle stroke="null" id="svg_7" fill="#FFFFFF" r="17.325" cy="309.593" cx="439.602"/>
   </g>
   <g stroke="null" id="svg_8">
    <path stroke="null" id="svg_9" fill="#563A82" d="m498.689,155.152l-325.172,0c-17.907,0 -32.517,14.611 -32.517,32.518l0,221.673c0,17.907 14.61,32.517 32.517,32.517l11.895,0l0,64.517c-0.517,8.663 11.378,14.61 18.424,7.564l72.081,-72.081l222.772,0c17.907,0 32.517,-14.61 32.517,-32.517l0,-221.673c0,-17.907 -14.61,-32.518 -32.517,-32.518zm10.86,254.19c0,5.947 -4.849,10.861 -10.861,10.861l-227.62,0c-2.715,0 -5.43,1.099 -7.564,3.232l-56.372,56.889l0,-48.808c0,-5.947 -4.848,-10.861 -10.861,-10.861l-22.754,0c-5.947,0 -10.861,-4.849 -10.861,-10.861l0,-222.124c0,-5.947 4.848,-10.861 10.861,-10.861l325.172,0c5.948,0 10.861,4.848 10.861,10.861l0,221.672l-0.001,0z"/>
    <path stroke="null" id="svg_10" fill="#563A82" d="m232.604,270.611c-21.139,0 -39.046,17.325 -39.046,39.046s17.325,39.046 39.046,39.046c21.139,0 39.046,-17.325 39.046,-39.046s-17.907,-39.046 -39.046,-39.046zm0,55.79c-9.244,0 -17.325,-7.564 -17.325,-17.325c0,-9.244 7.564,-17.325 17.325,-17.325c9.244,0 17.325,7.564 17.325,17.325c-0.517,9.761 -8.145,17.325 -17.325,17.325z"/>
    <path stroke="null" id="svg_11" fill="#563A82" d="m336.103,270.611c-21.139,0 -39.046,17.325 -39.046,39.046s17.325,39.046 39.046,39.046c21.139,0 39.046,-17.325 39.046,-39.046s-17.907,-39.046 -39.046,-39.046zm0,55.79c-9.244,0 -17.325,-7.564 -17.325,-17.325c0,-9.244 7.564,-17.325 17.325,-17.325c9.244,0 17.325,7.564 17.325,17.325c0,9.761 -8.081,17.325 -17.325,17.325z"/>
    <path stroke="null" id="svg_12" fill="#563A82" d="m439.602,270.611c-21.139,0 -39.046,17.325 -39.046,39.046s17.325,39.046 39.046,39.046s39.046,-17.325 39.046,-39.046s-17.325,-39.046 -39.046,-39.046zm0,55.79c-9.244,0 -17.325,-7.564 -17.325,-17.325c0,-9.244 7.564,-17.325 17.325,-17.325s17.39,7.564 17.39,17.325c0,9.761 -8.146,17.325 -17.39,17.325z"/>
   </g>
  </g>
 </g>
</svg>