<svg width="400" height="400" xmlns="http://www.w3.org/2000/svg" stroke-width="15.24" stroke="#543A7D" fill="#543A7D" xml:space="preserve" version="1.1">

 <g>
  <title>Layer 1</title>
  <g stroke-width="0" id="SVGRepo_bgCarrier"/>
  <g stroke-linejoin="round" stroke-linecap="round" id="SVGRepo_tracerCarrier"/>
  <path id="svg_3" fill="#543A7D" d="m171.45,291.59999c3.9,0 7.6,-1.3 10.8,-3.9l93.4,-73.8c4.3,-3.4 6.7,-8.4 6.7,-13.9s-2.4,-10.5 -6.7,-13.9l-93.4,-73.8c-3.2,-2.6 -6.9,-3.9 -10.8,-3.9c-8.8,0 -17.8,6.6 -17.8,17.7l0,147.7c0,11.1 9.1,17.8 17.8,17.8l0,0z"/>
  <path stroke="null" id="svg_6" fill="#f7a154" d="m293.15,163.95l-93.4,-73.8c-8.2,-6.5 -18,-10 -28.3,-10c-25.4,0 -46,20.6 -46,46l0,147.7c0,25.3 20.7,46 46,46l0,0c10.3,0 20.1,-3.4 28.3,-9.9l93.4,-73.8c11.1,-8.8 17.4,-21.9 17.4,-36c0,-14.3 -6.3,-27.4 -17.4,-36.2zm-17.5,49.9l-93.4,73.8c-3.2,2.6 -6.9,3.9 -10.8,3.9c-8.8,0 -17.8,-6.6 -17.8,-17.7l0,-17.4l22,0c7.8,0 14.1,-6.3 14.1,-14.1c0,-7.8 -6.3,-14.1 -14.1,-14.1l-22,0l0,-28.3l64.3,0c7.8,0 14.1,-6.3 14.1,-14.1s-6.3,-14.1 -14.1,-14.1l-64.4,0l0,-45.6c0,-11.1 9.1,-17.7 17.8,-17.7c3.9,0 7.6,1.3 10.8,3.9l93.4,73.8c4.3,3.4 6.7,8.4 6.7,13.9c0.1,5.3 -2.4,10.4 -6.6,13.8z"/>
 </g>
</svg>