<?xml version="1.0" encoding="UTF-8"?>
<!DOCTYPE svg PUBLIC "-//W3C//DTD SVG 1.1//EN" "http://www.w3.org/Graphics/SVG/1.1/DTD/svg11.dtd">
<svg xmlns="http://www.w3.org/2000/svg" version="1.1" width="128px" height="128px" style="shape-rendering:geometricPrecision; text-rendering:geometricPrecision; image-rendering:optimizeQuality; fill-rule:evenodd; clip-rule:evenodd" xmlns:xlink="http://www.w3.org/1999/xlink">
<g><path style="opacity:0.99" fill="#fefffe" d="M 21.5,-0.5 C 49.5,-0.5 77.5,-0.5 105.5,-0.5C 110.456,0.80814 115.123,2.97481 119.5,6C 123.117,10.4076 125.783,15.241 127.5,20.5C 127.5,49.1667 127.5,77.8333 127.5,106.5C 125.907,111.02 123.74,115.353 121,119.5C 116.817,122.836 112.317,125.503 107.5,127.5C 78.1667,127.5 48.8333,127.5 19.5,127.5C 14.6834,125.503 10.1834,122.836 6,119.5C 3.25995,115.353 1.09328,111.02 -0.5,106.5C -0.5,77.8333 -0.5,49.1667 -0.5,20.5C 1.21662,15.241 3.88329,10.4076 7.5,6C 11.8772,2.97481 16.5439,0.80814 21.5,-0.5 Z M 88.5,22.5 C 98.0183,20.4167 103.685,24.0833 105.5,33.5C 102.854,44.1564 96.5205,47.3231 86.5,43C 79.6079,35.4093 80.2745,28.576 88.5,22.5 Z M 28.5,82.5 C 38.0183,80.4167 43.6849,84.0833 45.5,93.5C 42.8539,104.156 36.5205,107.323 26.5,103C 19.6079,95.4093 20.2745,88.576 28.5,82.5 Z"/></g>
</svg>
