

<svg
   width="14.517123mm"
   height="69.720566mm"
   viewBox="0 0 14.517123 69.720566"
   version="1.1"
   id="svg1"
   xml:space="preserve"
   inkscape:version="1.3.2 (091e20e, 2023-11-25)"
   sodipodi:docname="hollow-point.svg"
   xmlns:inkscape="http://www.inkscape.org/namespaces/inkscape"
   xmlns:sodipodi="http://sodipodi.sourceforge.net/DTD/sodipodi-0.dtd"
   xmlns="http://www.w3.org/2000/svg"
   xmlns:svg="http://www.w3.org/2000/svg">
   <sodipodi:namedview
     id="namedview1"
     pagecolor="#ffffff"
     bordercolor="#000000"
     borderopacity="0.25"
     inkscape:showpageshadow="2"
     inkscape:pageopacity="0.0"
     inkscape:pagecheckerboard="0"
     inkscape:deskcolor="#d1d1d1"
     inkscape:document-units="mm"
     inkscape:zoom="4.0411471"
     inkscape:cx="2.1033632"
     inkscape:cy="93.41407"
     inkscape:window-width="1920"
     inkscape:window-height="1052"
     inkscape:window-x="0"
     inkscape:window-y="28"
     inkscape:window-maximized="0"
     inkscape:current-layer="layer1" />
     <defs
     id="defs1" />
      <g
     inkscape:label="Layer 1"
     inkscape:groupmode="layer"
     id="layer1"
     transform="translate(-19.717271,-79.241262)">
     <path
      fill="currentColor"
       d="m 27.753683,79.390351 h -0.01323 c 0.493898,0.17639 0.873125,0.51153 1.137709,1.00542 l 0.01323,0.0132 5.291486,65.510239 c 0.113216,0.48781 0.01295,1.26106 -0.04545,1.70586 l -0.01098,-0.0455 c -0.123481,0.38806 -0.245178,0.55544 -0.459506,0.8796 l 0.03969,-0.0265 -0.02646,0.0265 -0.0926,0.0661 c -0.388064,0.29104 -0.824628,0.43656 -1.309688,0.43656 H 21.694545 c -0.493897,0 -0.93046,-0.15434 -1.309687,-0.46302 h -0.01323 c -0.379228,-0.29986 -0.533863,-0.59653 -0.636407,-1.0933 l -0.01795,-0.16078 c 0.0141,-0.43207 0.08134,-0.79634 0.09873,-1.35209 l 5.291848,-65.483779 0.03969,-0.0662 c 0.229314,-0.43215 0.564435,-0.73201 1.005416,-0.89958 l 0.07937,-0.0397 c 0.493898,-0.21166 1.000999,-0.21607 1.521355,-0.0132 m -1.217084,1.73302 -0.06615,0.10584 -5.238931,65.377949 c -0.05292,0.0882 -0.07057,0.18521 -0.05292,0.29104 l 0.01323,0.0926 c 0.02646,0.10584 0.08819,0.19403 0.185208,0.26459 v 0.0132 c 0.08819,0.0705 0.194019,0.10583 0.3175,0.10583 h 10.583334 c 0.123481,0 0.238125,-0.0353 0.343958,-0.10583 l 0.15875,-0.23813 0.03969,-0.23812 -0.05292,-0.17198 -5.291485,-65.497019 c -0.07056,-0.11461 -0.16756,-0.19839 -0.291041,-0.25131 l -0.30427,-0.0132 -0.105834,0.0397 c -0.114644,0.0353 -0.194019,0.11024 -0.238125,0.22489"
       style="stroke:none;stroke-width:0.264583"
       id="path1"
       sodipodi:nodetypes="cccccccccccsscccccccccccccccccssccccccccc" />
       </g>
       </svg>
